<?xml version="1.0" encoding="utf-8"?>
<!-- Generator: Adobe Illustrator 24.3.0, SVG Export Plug-In . SVG Version: 6.00 Build 0)  -->
<svg version="1.1" id="Capa_1" xmlns="http://www.w3.org/2000/svg" xmlns:xlink="http://www.w3.org/1999/xlink" x="0px" y="0px"
	 viewBox="0 0 289.1 172.9" style="enable-background:new 0 0 289.1 172.9;" xml:space="preserve">
<style type="text/css">
	.st0{fill:#9FACD2;fill-opacity:0.45;}
	.st1{fill:#7979A8;}
	.st2{fill:none;stroke:#E4E4E4;stroke-linejoin:round;stroke-opacity:0.9;}
	.st3{fill:#E4E4E4;fill-opacity:0.9;}
</style>
<path class="st0" d="M33.6,1.4h222c17.7,0,32,14.3,32,32v106c0,17.7-14.3,32-32,32h-222c-17.7,0-32-14.3-32-32v-106
	C1.6,15.7,15.9,1.4,33.6,1.4z"/>
<path class="st1" d="M98.6,32.4h92c0.6,0,1,0.4,1,1v47c0,0.6-0.4,1-1,1h-92c-0.6,0-1-0.4-1-1v-47C97.6,32.8,98,32.4,98.6,32.4z"/>
<path class="st2" d="M101.6,35.9h86c0.3,0,0.5,0.2,0.5,0.5v41c0,0.3-0.2,0.5-0.5,0.5h-86c-0.3,0-0.5-0.2-0.5-0.5v-41
	C101.1,36.1,101.3,35.9,101.6,35.9z"/>
<path class="st3" d="M145.5,69.8c-0.2,0-0.3-0.1-0.4-0.2c-0.1-0.1-0.2-0.3-0.2-0.4v-1.7c-1.2-0.1-2.2-0.4-3-0.9
	c-0.8-0.5-1.5-1-1.9-1.7c-0.4-0.7-0.6-1.4-0.7-2.1c0-0.1,0-0.2,0.1-0.3c0.1-0.1,0.2-0.2,0.4-0.2h3c0.2,0,0.3,0,0.5,0.1
	c0.1,0.1,0.3,0.2,0.4,0.3c0.2,0.4,0.5,0.8,1,1c0.5,0.3,1.1,0.4,1.9,0.4c0.9,0,1.6-0.1,2.1-0.4c0.5-0.3,0.7-0.7,0.7-1.2
	c0-0.4-0.1-0.6-0.4-0.9c-0.2-0.2-0.6-0.4-1.2-0.6c-0.5-0.2-1.3-0.4-2.4-0.6c-1.9-0.4-3.4-1-4.3-1.8s-1.4-1.9-1.4-3.3
	c0-1.3,0.5-2.4,1.4-3.3c0.9-0.9,2.2-1.5,3.8-1.7v-1.7c0-0.2,0.1-0.3,0.2-0.4c0.1-0.1,0.3-0.2,0.4-0.2h2c0.2,0,0.3,0.1,0.4,0.2
	c0.1,0.1,0.2,0.3,0.2,0.4v1.7c1.1,0.2,2,0.5,2.7,1c0.8,0.5,1.4,1,1.8,1.7c0.4,0.6,0.6,1.2,0.6,1.8c0,0.1,0,0.2-0.1,0.4
	c-0.1,0.1-0.2,0.1-0.4,0.1h-3.2c-0.2,0-0.4,0-0.5-0.1c-0.1-0.1-0.2-0.2-0.3-0.3c-0.1-0.4-0.4-0.7-0.8-0.9c-0.4-0.3-0.9-0.4-1.6-0.4
	c-0.7,0-1.3,0.1-1.7,0.4s-0.6,0.6-0.6,1.1c0,0.3,0.1,0.6,0.3,0.8c0.2,0.2,0.6,0.4,1.1,0.6c0.5,0.2,1.2,0.4,2.1,0.6
	c1.5,0.3,2.7,0.6,3.6,1c0.9,0.4,1.5,0.9,1.9,1.6s0.6,1.5,0.6,2.4c0,1.4-0.5,2.6-1.5,3.5c-1,0.9-2.4,1.5-4.1,1.7v1.7
	c0,0.2-0.1,0.3-0.2,0.4s-0.3,0.2-0.4,0.2H145.5z"/>
<path d="M63.1,142.4c-0.1,0-0.2,0-0.2-0.1c-0.1-0.1-0.1-0.1-0.1-0.2v-9.1c0-0.1,0-0.2,0.1-0.2c0.1-0.1,0.1-0.1,0.2-0.1h3.6
	c1.1,0,1.9,0.3,2.5,0.8c0.6,0.5,0.9,1.3,0.9,2.2c0,1-0.3,1.7-0.9,2.2c-0.6,0.5-1.4,0.8-2.5,0.8h-2.5v3.5c0,0.1,0,0.2-0.1,0.2
	c-0.1,0.1-0.1,0.1-0.2,0.1H63.1z M66.6,137.4c0.7,0,1.2-0.2,1.5-0.5c0.4-0.3,0.5-0.8,0.5-1.3s-0.2-1-0.5-1.3
	c-0.3-0.3-0.9-0.5-1.6-0.5h-2.4v3.6H66.6z M74.9,142.5c-0.5,0-0.9-0.1-1.3-0.3c-0.4-0.2-0.7-0.4-0.9-0.8c-0.2-0.3-0.3-0.7-0.3-1.1
	c0-0.6,0.3-1.1,0.8-1.5c0.5-0.4,1.2-0.7,2.1-0.8l2.1-0.3v-0.4c0-1-0.5-1.4-1.6-1.4c-0.4,0-0.7,0.1-1,0.3c-0.3,0.2-0.5,0.4-0.6,0.6
	c0,0.1-0.1,0.1-0.1,0.2c0,0-0.1,0.1-0.2,0.1h-0.6c-0.1,0-0.2,0-0.2-0.1c-0.1-0.1-0.1-0.1-0.1-0.2c0-0.2,0.1-0.5,0.3-0.8
	c0.2-0.3,0.5-0.5,0.9-0.7c0.4-0.2,0.9-0.3,1.6-0.3c1,0,1.8,0.2,2.3,0.7c0.5,0.5,0.7,1.1,0.7,1.8v4.5c0,0.1,0,0.2-0.1,0.2
	c-0.1,0.1-0.1,0.1-0.2,0.1h-0.6c-0.1,0-0.2,0-0.2-0.1c-0.1-0.1-0.1-0.1-0.1-0.2v-0.6c-0.2,0.3-0.5,0.6-0.9,0.8
	S75.6,142.5,74.9,142.5z M75.2,141.5c0.6,0,1.1-0.2,1.5-0.6c0.4-0.4,0.6-1,0.6-1.7v-0.4l-1.6,0.2c-0.7,0.1-1.2,0.3-1.5,0.5
	c-0.3,0.2-0.5,0.5-0.5,0.8c0,0.4,0.2,0.7,0.5,0.9C74.5,141.4,74.8,141.5,75.2,141.5z M85.1,145.4c-0.8,0-1.4-0.1-1.8-0.4
	c-0.5-0.3-0.8-0.5-1-0.9c-0.2-0.3-0.3-0.6-0.3-0.9c0-0.1,0-0.2,0.1-0.2c0.1-0.1,0.2-0.1,0.2-0.1h0.7c0.1,0,0.2,0,0.2,0.1
	c0.1,0,0.1,0.1,0.1,0.2c0.1,0.3,0.3,0.6,0.5,0.8c0.3,0.2,0.7,0.3,1.2,0.3c0.7,0,1.2-0.1,1.5-0.4c0.3-0.3,0.5-0.8,0.5-1.6v-1
	c-0.2,0.3-0.6,0.6-0.9,0.7c-0.4,0.2-0.8,0.3-1.3,0.3c-1,0-1.7-0.3-2.2-0.9c-0.5-0.6-0.7-1.4-0.8-2.4l0-0.4l0-0.4
	c0-1,0.3-1.8,0.8-2.4c0.5-0.6,1.2-1,2.2-1c1,0,1.7,0.4,2.3,1.1v-0.6c0-0.1,0-0.2,0.1-0.2c0.1-0.1,0.1-0.1,0.2-0.1H88
	c0.1,0,0.2,0,0.2,0.1c0.1,0.1,0.1,0.1,0.1,0.2v6.8C88.4,144.4,87.3,145.4,85.1,145.4z M85.1,141.3c0.6,0,1.1-0.2,1.4-0.6
	s0.5-0.9,0.5-1.5c0-0.1,0-0.2,0-0.5c0-0.2,0-0.4,0-0.5c0-0.6-0.2-1.1-0.5-1.5c-0.3-0.4-0.8-0.6-1.4-0.6c-0.7,0-1.1,0.2-1.4,0.6
	c-0.3,0.4-0.5,1-0.5,1.6l0,0.4l0,0.4c0,0.7,0.2,1.2,0.5,1.6C83.9,141.1,84.4,141.3,85.1,141.3z M94.9,142.5c-1,0-1.8-0.3-2.4-0.9
	c-0.6-0.6-0.9-1.3-0.9-2.3l0-0.6l0-0.6c0-1,0.3-1.7,0.9-2.3c0.6-0.6,1.4-0.9,2.4-0.9c1,0,1.8,0.3,2.4,0.9c0.6,0.6,0.9,1.3,0.9,2.3
	c0,0.1,0,0.3,0,0.6s0,0.5,0,0.6c0,1-0.3,1.7-0.9,2.3C96.7,142.2,95.9,142.5,94.9,142.5z M94.9,141.4c0.6,0,1.1-0.2,1.4-0.6
	c0.3-0.4,0.5-0.9,0.6-1.6c0-0.1,0-0.3,0-0.5s0-0.4,0-0.5c0-0.7-0.2-1.2-0.6-1.6c-0.3-0.4-0.8-0.6-1.4-0.6s-1.1,0.2-1.4,0.6
	c-0.3,0.4-0.5,0.9-0.5,1.6l0,0.5l0,0.5c0,0.7,0.2,1.2,0.5,1.6C93.9,141.2,94.3,141.4,94.9,141.4z M101.9,142.4c-0.1,0-0.2,0-0.2-0.1
	c-0.1-0.1-0.1-0.1-0.1-0.2v-9.1c0-0.1,0-0.2,0.1-0.2c0.1-0.1,0.1-0.1,0.2-0.1h5.7c0.1,0,0.2,0,0.2,0.1c0.1,0.1,0.1,0.1,0.1,0.2v0.6
	c0,0.1,0,0.2-0.1,0.2c-0.1,0.1-0.1,0.1-0.2,0.1H103v3.3h4.4c0.1,0,0.2,0,0.2,0.1c0.1,0.1,0.1,0.1,0.1,0.2v0.6c0,0.1,0,0.2-0.1,0.2
	c-0.1,0.1-0.1,0.1-0.2,0.1H103v3.8c0,0.1,0,0.2-0.1,0.2c-0.1,0.1-0.1,0.1-0.2,0.1H101.9z M112.7,142.5c-0.5,0-0.9-0.1-1.3-0.3
	c-0.4-0.2-0.7-0.4-0.9-0.8c-0.2-0.3-0.3-0.7-0.3-1.1c0-0.6,0.3-1.1,0.8-1.5c0.5-0.4,1.2-0.7,2.1-0.8l2.1-0.3v-0.4
	c0-1-0.5-1.4-1.6-1.4c-0.4,0-0.7,0.1-1,0.3c-0.3,0.2-0.5,0.4-0.6,0.6c0,0.1-0.1,0.1-0.1,0.2c0,0-0.1,0.1-0.2,0.1H111
	c-0.1,0-0.2,0-0.2-0.1c-0.1-0.1-0.1-0.1-0.1-0.2c0-0.2,0.1-0.5,0.3-0.8c0.2-0.3,0.5-0.5,0.9-0.7c0.4-0.2,0.9-0.3,1.6-0.3
	c1,0,1.8,0.2,2.3,0.7c0.5,0.5,0.7,1.1,0.7,1.8v4.5c0,0.1,0,0.2-0.1,0.2c-0.1,0.1-0.1,0.1-0.2,0.1h-0.6c-0.1,0-0.2,0-0.2-0.1
	c-0.1-0.1-0.1-0.1-0.1-0.2v-0.6c-0.2,0.3-0.5,0.6-0.9,0.8C113.8,142.4,113.3,142.5,112.7,142.5z M113,141.5c0.6,0,1.1-0.2,1.5-0.6
	c0.4-0.4,0.6-1,0.6-1.7v-0.4l-1.6,0.2c-0.7,0.1-1.2,0.3-1.5,0.5c-0.3,0.2-0.5,0.5-0.5,0.8c0,0.4,0.2,0.7,0.5,0.9
	C112.2,141.4,112.6,141.5,113,141.5z M112.8,134c-0.2,0-0.2-0.1-0.2-0.2c0-0.1,0-0.1,0.1-0.2l1.1-1.3c0.1-0.1,0.2-0.2,0.2-0.2
	c0.1,0,0.2-0.1,0.3-0.1h1c0.1,0,0.1,0,0.2,0.1c0,0,0.1,0.1,0.1,0.2c0,0.1,0,0.1-0.1,0.2l-1.6,1.3c-0.1,0.1-0.1,0.1-0.2,0.1
	c-0.1,0-0.2,0-0.3,0H112.8z M122.8,142.5c-1,0-1.8-0.3-2.4-0.8c-0.6-0.6-0.9-1.4-0.9-2.4l0-0.6l0-0.6c0-1,0.3-1.8,0.9-2.4
	c0.6-0.6,1.4-0.9,2.4-0.9c0.7,0,1.2,0.1,1.7,0.4s0.8,0.5,1,0.9c0.2,0.4,0.4,0.7,0.4,1.1c0,0.1,0,0.2-0.1,0.2
	c-0.1,0.1-0.1,0.1-0.2,0.1h-0.7c-0.1,0-0.2,0-0.2-0.1c0,0-0.1-0.1-0.1-0.2c-0.2-0.4-0.4-0.8-0.7-1c-0.3-0.2-0.7-0.3-1.1-0.3
	c-0.6,0-1,0.2-1.4,0.5c-0.3,0.4-0.5,0.9-0.5,1.6l0,0.5l0,0.5c0,0.7,0.2,1.3,0.5,1.7s0.8,0.5,1.4,0.5c0.4,0,0.8-0.1,1.1-0.3
	c0.3-0.2,0.5-0.5,0.7-1c0-0.1,0.1-0.2,0.1-0.2c0,0,0.1-0.1,0.2-0.1h0.7c0.1,0,0.2,0,0.2,0.1c0.1,0.1,0.1,0.1,0.1,0.2
	c0,0.3-0.1,0.7-0.4,1.1c-0.2,0.4-0.6,0.7-1,0.9C124.1,142.4,123.5,142.5,122.8,142.5z M129.3,133.7c-0.1,0-0.2,0-0.2-0.1
	c-0.1-0.1-0.1-0.1-0.1-0.2v-0.8c0-0.1,0-0.2,0.1-0.2c0.1-0.1,0.1-0.1,0.2-0.1h0.9c0.1,0,0.2,0,0.2,0.1c0.1,0.1,0.1,0.1,0.1,0.2v0.8
	c0,0.1,0,0.2-0.1,0.2c-0.1,0.1-0.1,0.1-0.2,0.1H129.3z M129.4,142.4c-0.1,0-0.2,0-0.2-0.1c-0.1-0.1-0.1-0.1-0.1-0.2v-6.6
	c0-0.1,0-0.2,0.1-0.2c0.1-0.1,0.1-0.1,0.2-0.1h0.7c0.1,0,0.2,0,0.2,0.1c0.1,0.1,0.1,0.1,0.1,0.2v6.6c0,0.1,0,0.2-0.1,0.2
	c-0.1,0.1-0.1,0.1-0.2,0.1H129.4z M134.3,142.4c-0.1,0-0.2,0-0.2-0.1c-0.1-0.1-0.1-0.1-0.1-0.2v-9.3c0-0.1,0-0.2,0.1-0.2
	c0.1-0.1,0.1-0.1,0.2-0.1h0.7c0.1,0,0.2,0,0.2,0.1c0.1,0.1,0.1,0.1,0.1,0.2v9.3c0,0.1,0,0.2-0.1,0.2c-0.1,0.1-0.1,0.1-0.2,0.1H134.3
	z M143.3,143.5c-0.1,0-0.1,0-0.2-0.1s-0.1-0.1-0.1-0.2c0,0,0-0.1,0-0.2l4.8-11.5c0.1-0.2,0.2-0.3,0.4-0.3h0.5c0.1,0,0.1,0,0.2,0.1
	s0.1,0.1,0.1,0.2c0,0.1,0,0.1,0,0.2l-4.8,11.5c-0.1,0.2-0.2,0.3-0.4,0.3H143.3z M157.3,142.4c-0.1,0-0.2,0-0.2-0.1
	c-0.1-0.1-0.1-0.1-0.1-0.2v-9.1c0-0.1,0-0.2,0.1-0.2c0.1-0.1,0.1-0.1,0.2-0.1h3.4c1.1,0,1.9,0.3,2.5,0.8c0.6,0.5,0.9,1.2,0.9,2.2
	c0,0.7-0.2,1.3-0.5,1.8c-0.3,0.5-0.8,0.8-1.5,1l2.2,3.7c0,0.1,0,0.1,0,0.2c0,0.1,0,0.1-0.1,0.2c-0.1,0.1-0.1,0.1-0.2,0.1h-0.7
	c-0.1,0-0.3,0-0.3-0.1c-0.1-0.1-0.1-0.2-0.2-0.3l-2-3.6h-2.4v3.6c0,0.1,0,0.2-0.1,0.2c-0.1,0.1-0.1,0.1-0.2,0.1H157.3z M160.7,137.2
	c1.4,0,2.1-0.6,2.1-1.8c0-1.2-0.7-1.8-2.1-1.8h-2.3v3.5H160.7z M169.5,142.5c-0.5,0-0.9-0.1-1.3-0.3s-0.7-0.4-0.9-0.8
	c-0.2-0.3-0.3-0.7-0.3-1.1c0-0.6,0.3-1.1,0.8-1.5c0.5-0.4,1.2-0.7,2.1-0.8l2.1-0.3v-0.4c0-1-0.5-1.4-1.6-1.4c-0.4,0-0.7,0.1-1,0.3
	c-0.3,0.2-0.5,0.4-0.6,0.6c0,0.1-0.1,0.1-0.1,0.2c0,0-0.1,0.1-0.2,0.1h-0.6c-0.1,0-0.2,0-0.2-0.1c-0.1-0.1-0.1-0.1-0.1-0.2
	c0-0.2,0.1-0.5,0.3-0.8c0.2-0.3,0.5-0.5,0.9-0.7c0.4-0.2,0.9-0.3,1.6-0.3c1,0,1.8,0.2,2.3,0.7c0.5,0.5,0.7,1.1,0.7,1.8v4.5
	c0,0.1,0,0.2-0.1,0.2c-0.1,0.1-0.1,0.1-0.2,0.1h-0.6c-0.1,0-0.2,0-0.2-0.1c-0.1-0.1-0.1-0.1-0.1-0.2v-0.6c-0.2,0.3-0.5,0.6-0.9,0.8
	S170.1,142.5,169.5,142.5z M169.8,141.5c0.6,0,1.1-0.2,1.5-0.6c0.4-0.4,0.6-1,0.6-1.7v-0.4l-1.6,0.2c-0.7,0.1-1.2,0.3-1.5,0.5
	c-0.3,0.2-0.5,0.5-0.5,0.8c0,0.4,0.2,0.7,0.5,0.9C169,141.4,169.4,141.5,169.8,141.5z M177,145c-0.1,0-0.2,0-0.2-0.1
	c-0.1-0.1-0.1-0.1-0.1-0.2v-9.3c0-0.1,0-0.2,0.1-0.2c0.1-0.1,0.1-0.1,0.2-0.1h0.6c0.1,0,0.2,0,0.2,0.1c0.1,0.1,0.1,0.1,0.1,0.2v0.6
	c0.5-0.7,1.3-1.1,2.3-1.1c1,0,1.7,0.3,2.2,0.9c0.5,0.6,0.8,1.4,0.8,2.4c0,0.1,0,0.3,0,0.5s0,0.4,0,0.5c0,1-0.3,1.8-0.8,2.4
	c-0.5,0.6-1.2,0.9-2.2,0.9c-1,0-1.7-0.4-2.3-1.1v3.2c0,0.1,0,0.2-0.1,0.2c-0.1,0.1-0.1,0.1-0.2,0.1H177z M180,141.4
	c0.7,0,1.1-0.2,1.4-0.6c0.3-0.4,0.5-1,0.5-1.6c0-0.1,0-0.2,0-0.4c0-1.8-0.7-2.6-2-2.6c-0.6,0-1.1,0.2-1.5,0.6
	c-0.3,0.4-0.5,0.9-0.5,1.5l0,0.5l0,0.5c0,0.6,0.2,1,0.5,1.4S179.3,141.4,180,141.4z M186.7,133.7c-0.1,0-0.2,0-0.2-0.1
	c-0.1-0.1-0.1-0.1-0.1-0.2v-0.8c0-0.1,0-0.2,0.1-0.2c0.1-0.1,0.1-0.1,0.2-0.1h0.9c0.1,0,0.2,0,0.2,0.1c0.1,0.1,0.1,0.1,0.1,0.2v0.8
	c0,0.1,0,0.2-0.1,0.2c-0.1,0.1-0.1,0.1-0.2,0.1H186.7z M186.8,142.4c-0.1,0-0.2,0-0.2-0.1c-0.1-0.1-0.1-0.1-0.1-0.2v-6.6
	c0-0.1,0-0.2,0.1-0.2c0.1-0.1,0.1-0.1,0.2-0.1h0.7c0.1,0,0.2,0,0.2,0.1c0.1,0.1,0.1,0.1,0.1,0.2v6.6c0,0.1,0,0.2-0.1,0.2
	c-0.1,0.1-0.1,0.1-0.2,0.1H186.8z M191.7,145c-0.1,0-0.2,0-0.2-0.1c-0.1-0.1-0.1-0.1-0.1-0.2v-9.3c0-0.1,0-0.2,0.1-0.2
	c0.1-0.1,0.1-0.1,0.2-0.1h0.6c0.1,0,0.2,0,0.2,0.1c0.1,0.1,0.1,0.1,0.1,0.2v0.6c0.5-0.7,1.3-1.1,2.3-1.1c1,0,1.7,0.3,2.2,0.9
	c0.5,0.6,0.8,1.4,0.8,2.4c0,0.1,0,0.3,0,0.5s0,0.4,0,0.5c0,1-0.3,1.8-0.8,2.4c-0.5,0.6-1.2,0.9-2.2,0.9c-1,0-1.7-0.4-2.3-1.1v3.2
	c0,0.1,0,0.2-0.1,0.2c-0.1,0.1-0.1,0.1-0.2,0.1H191.7z M194.6,141.4c0.7,0,1.1-0.2,1.4-0.6c0.3-0.4,0.5-1,0.5-1.6c0-0.1,0-0.2,0-0.4
	c0-1.8-0.7-2.6-2-2.6c-0.6,0-1.1,0.2-1.5,0.6c-0.3,0.4-0.5,0.9-0.5,1.5l0,0.5l0,0.5c0,0.6,0.2,1,0.5,1.4
	C193.5,141.2,194,141.4,194.6,141.4z M203.2,142.5c-0.5,0-0.9-0.1-1.3-0.3s-0.7-0.4-0.9-0.8c-0.2-0.3-0.3-0.7-0.3-1.1
	c0-0.6,0.3-1.1,0.8-1.5c0.5-0.4,1.2-0.7,2.1-0.8l2.1-0.3v-0.4c0-1-0.5-1.4-1.6-1.4c-0.4,0-0.7,0.1-1,0.3c-0.3,0.2-0.5,0.4-0.6,0.6
	c0,0.1-0.1,0.1-0.1,0.2c0,0-0.1,0.1-0.2,0.1h-0.6c-0.1,0-0.2,0-0.2-0.1c-0.1-0.1-0.1-0.1-0.1-0.2c0-0.2,0.1-0.5,0.3-0.8
	c0.2-0.3,0.5-0.5,0.9-0.7c0.4-0.2,0.9-0.3,1.6-0.3c1,0,1.8,0.2,2.3,0.7c0.5,0.5,0.7,1.1,0.7,1.8v4.5c0,0.1,0,0.2-0.1,0.2
	c-0.1,0.1-0.1,0.1-0.2,0.1h-0.6c-0.1,0-0.2,0-0.2-0.1c-0.1-0.1-0.1-0.1-0.1-0.2v-0.6c-0.2,0.3-0.5,0.6-0.9,0.8
	C204.3,142.4,203.8,142.5,203.2,142.5z M203.5,141.5c0.6,0,1.1-0.2,1.5-0.6c0.4-0.4,0.6-1,0.6-1.7v-0.4l-1.6,0.2
	c-0.7,0.1-1.2,0.3-1.5,0.5c-0.3,0.2-0.5,0.5-0.5,0.8c0,0.4,0.2,0.7,0.5,0.9C202.7,141.4,203.1,141.5,203.5,141.5z M213.3,145.4
	c-0.8,0-1.4-0.1-1.8-0.4c-0.5-0.3-0.8-0.5-1-0.9c-0.2-0.3-0.3-0.6-0.3-0.9c0-0.1,0-0.2,0.1-0.2c0.1-0.1,0.2-0.1,0.2-0.1h0.7
	c0.1,0,0.2,0,0.2,0.1c0.1,0,0.1,0.1,0.1,0.2c0.1,0.3,0.3,0.6,0.5,0.8c0.3,0.2,0.7,0.3,1.2,0.3c0.7,0,1.2-0.1,1.5-0.4
	c0.3-0.3,0.5-0.8,0.5-1.6v-1c-0.2,0.3-0.6,0.6-0.9,0.7c-0.4,0.2-0.8,0.3-1.3,0.3c-1,0-1.7-0.3-2.2-0.9c-0.5-0.6-0.7-1.4-0.8-2.4
	l0-0.4l0-0.4c0-1,0.3-1.8,0.8-2.4c0.5-0.6,1.2-1,2.2-1s1.7,0.4,2.3,1.1v-0.6c0-0.1,0-0.2,0.1-0.2c0.1-0.1,0.1-0.1,0.2-0.1h0.6
	c0.1,0,0.2,0,0.2,0.1c0.1,0.1,0.1,0.1,0.1,0.2v6.8C216.6,144.4,215.5,145.4,213.3,145.4z M213.3,141.3c0.6,0,1.1-0.2,1.4-0.6
	c0.3-0.4,0.5-0.9,0.5-1.5c0-0.1,0-0.2,0-0.5c0-0.2,0-0.4,0-0.5c0-0.6-0.2-1.1-0.5-1.5c-0.3-0.4-0.8-0.6-1.4-0.6
	c-0.7,0-1.1,0.2-1.4,0.6c-0.3,0.4-0.5,1-0.5,1.6l0,0.4l0,0.4c0,0.7,0.2,1.2,0.5,1.6C212.2,141.1,212.6,141.3,213.3,141.3z
	 M223.1,142.5c-1,0-1.8-0.3-2.4-0.9c-0.6-0.6-0.9-1.3-0.9-2.3l0-0.6l0-0.6c0-1,0.3-1.7,0.9-2.3c0.6-0.6,1.4-0.9,2.4-0.9
	c1,0,1.8,0.3,2.4,0.9c0.6,0.6,0.9,1.3,0.9,2.3c0,0.1,0,0.3,0,0.6s0,0.5,0,0.6c0,1-0.3,1.7-0.9,2.3
	C225,142.2,224.2,142.5,223.1,142.5z M223.1,141.4c0.6,0,1-0.2,1.4-0.6c0.3-0.4,0.5-0.9,0.6-1.6c0-0.1,0-0.3,0-0.5s0-0.4,0-0.5
	c0-0.7-0.2-1.2-0.6-1.6c-0.3-0.4-0.8-0.6-1.4-0.6c-0.6,0-1.1,0.2-1.4,0.6c-0.3,0.4-0.5,0.9-0.5,1.6l0,0.5l0,0.5
	c0,0.7,0.2,1.2,0.5,1.6C222.1,141.2,222.6,141.4,223.1,141.4z"/>
</svg>
