<?xml version="1.0" encoding="utf-8"?>
<!-- Generator: Adobe Illustrator 24.3.0, SVG Export Plug-In . SVG Version: 6.00 Build 0)  -->
<svg version="1.1" id="Capa_1" xmlns="http://www.w3.org/2000/svg" xmlns:xlink="http://www.w3.org/1999/xlink" x="0px" y="0px"
	 viewBox="0 0 342.99 473.39" style="enable-background:new 0 0 342.99 473.39;" xml:space="preserve">
<style type="text/css">
	.st0{clip-path:url(#SVGID_2_);}
	.st1{fill:#3A3A3A;}
	.st2{fill:#E4E4E4;}
	.st3{fill:#18268A;}
	.st4{fill:#D4DCEA;}
	.st5{fill:#DADADA;}
	.st6{fill:#FFFFFF;}
	.st7{fill:#3C4FA2;}
	.st8{opacity:0.35;fill:none;stroke:#000000;enable-background:new    ;}
	.st9{opacity:0.4;fill:#FFFFFF;enable-background:new    ;}
	.st10{fill-rule:evenodd;clip-rule:evenodd;fill:#FFFFFF;}
	.st11{fill:none;stroke:#EF1F71;}
	.st12{fill:none;stroke:#FFFFFF;}
	.st13{fill:#5E5B5B;}
	.st14{fill:#A29D9D;}
	.st15{fill:none;stroke:#6F6F6F;stroke-width:0.3;}
	.st16{fill:none;stroke:#8F8F8F;stroke-width:0.3;}
	.st17{fill:#534D4D;}
	.st18{fill:#EF1F71;}
</style>
<g>
	<defs>
		<rect id="SVGID_1_" x="0" y="14.45" width="343" height="478"/>
	</defs>
	<clipPath id="SVGID_2_">
		<use xlink:href="#SVGID_1_"  style="overflow:visible;"/>
	</clipPath>
	<g class="st0">
		<g>
			<path class="st1" d="M236.36,55.77H106.63c-15.01,0-27.17,11.05-27.17,24.67v284.33c0,13.62,12.16,24.67,27.17,24.67h129.73
				c15.01,0,27.17-11.05,27.17-24.67V80.44C263.53,66.82,251.37,55.77,236.36,55.77z"/>
		</g>
		<path class="st2" d="M231.61,66.48H110.3c-10.5,0-19.02,7.73-19.02,17.27V361.2c0,9.54,8.51,17.27,19.02,17.27h121.3
			c10.5,0,19.02-7.73,19.02-17.27V83.75C250.62,74.21,242.11,66.48,231.61,66.48z"/>
		<path class="st3" d="M91,106.78c0-0.89,0.07-1.78,0.2-2.66l0.31-2.01c0.32-2.07,1.18-4.03,2.49-5.66
			c1.95-2.92,4.79-5.14,8.09-6.32l1.91-0.68c1.62,0.65,2.96,1.83,3.81,3.35l1.93,3.47c2.68,4.83,7.49,8.11,12.96,8.86l2.3,0.31h22.5
			H167h46.5l10.07-1.29c1.11-0.14,2.2-0.47,3.22-0.96c4.28-2.08,7.6-5.77,9.19-10.26c0.34-0.98,0.95-1.83,1.76-2.48l0.64-0.51
			c0.38-0.31,0.91-0.36,1.35-0.14l0.27,0.13c4.54,2.27,8.19,6.01,10.36,10.6l0.66,1.4v31.5H91V106.78z"/>
		<path class="st4" d="M96.67,123.45v-4.98h1.47c0.44,0,0.83,0.1,1.17,0.29c0.34,0.2,0.61,0.47,0.79,0.83
			c0.19,0.36,0.28,0.77,0.28,1.24v0.25c0,0.47-0.09,0.89-0.28,1.24c-0.19,0.36-0.45,0.63-0.8,0.83c-0.35,0.19-0.74,0.29-1.19,0.29
			H96.67z M97.53,119.17v3.59h0.56c0.45,0,0.8-0.14,1.04-0.42c0.24-0.29,0.37-0.69,0.37-1.22v-0.28c0-0.54-0.12-0.95-0.35-1.24
			c-0.23-0.29-0.58-0.43-1.02-0.43H97.53z M102.15,123.45h-0.86v-4.98h0.86V123.45z M106.06,122.29h-1.93l-0.4,1.16h-0.9l1.88-4.98
			h0.78l1.88,4.98h-0.9L106.06,122.29z M104.38,121.59h1.44l-0.72-2.06L104.38,121.59z M109.77,121.53h-0.96v1.92h-0.87v-4.98h1.75
			c0.58,0,1.02,0.13,1.33,0.39c0.31,0.26,0.47,0.63,0.47,1.12c0,0.33-0.08,0.61-0.24,0.84c-0.16,0.22-0.38,0.4-0.67,0.52l1.12,2.08
			v0.04h-0.93L109.77,121.53z M108.8,120.84h0.89c0.29,0,0.52-0.07,0.68-0.22c0.16-0.15,0.25-0.35,0.25-0.6
			c0-0.27-0.08-0.47-0.23-0.62c-0.15-0.15-0.38-0.22-0.68-0.22h-0.91V120.84z M113.22,123.45h-0.86v-4.98h0.86V123.45z
			 M118.25,121.09c0,0.49-0.08,0.92-0.25,1.29c-0.17,0.37-0.41,0.65-0.73,0.85c-0.31,0.2-0.67,0.29-1.08,0.29
			c-0.4,0-0.76-0.1-1.08-0.29c-0.31-0.2-0.56-0.48-0.73-0.84c-0.17-0.36-0.26-0.79-0.26-1.26v-0.28c0-0.49,0.09-0.91,0.26-1.29
			c0.17-0.37,0.42-0.66,0.73-0.85c0.32-0.2,0.67-0.3,1.08-0.3c0.41,0,0.76,0.1,1.08,0.29c0.31,0.19,0.56,0.47,0.73,0.84
			c0.17,0.36,0.26,0.79,0.26,1.28V121.09z M117.39,120.83c0-0.55-0.11-0.97-0.31-1.27c-0.21-0.29-0.5-0.44-0.89-0.44
			c-0.37,0-0.67,0.15-0.88,0.44c-0.21,0.29-0.32,0.71-0.32,1.24v0.29c0,0.55,0.11,0.97,0.32,1.27c0.21,0.3,0.51,0.45,0.89,0.45
			c0.38,0,0.68-0.15,0.88-0.44c0.21-0.29,0.31-0.72,0.31-1.28V120.83z M121.72,122.17c0-0.22-0.08-0.39-0.23-0.51
			c-0.15-0.12-0.43-0.24-0.83-0.36c-0.4-0.12-0.72-0.26-0.96-0.4c-0.45-0.28-0.68-0.66-0.68-1.11c0-0.4,0.16-0.73,0.49-0.99
			c0.33-0.26,0.75-0.39,1.28-0.39c0.35,0,0.65,0.06,0.93,0.19c0.27,0.13,0.48,0.31,0.64,0.55c0.15,0.24,0.23,0.5,0.23,0.78h-0.86
			c0-0.26-0.08-0.46-0.25-0.61c-0.16-0.15-0.39-0.22-0.7-0.22c-0.28,0-0.5,0.06-0.66,0.18c-0.16,0.12-0.23,0.29-0.23,0.51
			c0,0.18,0.08,0.33,0.25,0.46c0.17,0.12,0.45,0.24,0.83,0.36c0.39,0.11,0.7,0.24,0.93,0.39c0.23,0.15,0.41,0.31,0.52,0.51
			c0.11,0.19,0.16,0.41,0.16,0.67c0,0.42-0.16,0.75-0.48,0.99c-0.32,0.24-0.75,0.36-1.29,0.36c-0.36,0-0.69-0.07-0.99-0.2
			c-0.3-0.13-0.54-0.32-0.7-0.55c-0.17-0.23-0.25-0.51-0.25-0.82h0.86c0,0.28,0.09,0.5,0.28,0.66s0.46,0.23,0.8,0.23
			c0.3,0,0.53-0.06,0.68-0.18C121.64,122.53,121.72,122.37,121.72,122.17z"/>
		<path class="st5" d="M154.47,121.6v1.85h-0.86v-4.98h1.9c0.56,0,1,0.14,1.32,0.43c0.33,0.29,0.49,0.67,0.49,1.15
			c0,0.49-0.16,0.87-0.48,1.14c-0.32,0.27-0.77,0.41-1.34,0.41H154.47z M154.47,120.9h1.04c0.31,0,0.54-0.07,0.7-0.22
			c0.16-0.15,0.24-0.36,0.24-0.63c0-0.27-0.08-0.48-0.25-0.64c-0.16-0.16-0.39-0.25-0.68-0.25h-1.06V120.9z M160.99,121.23h-2.04
			v1.53h2.39v0.69h-3.25v-4.98h3.23v0.7h-2.36v1.37h2.04V121.23z M163.87,121.53h-0.96v1.92h-0.86v-4.98h1.75
			c0.58,0,1.02,0.13,1.33,0.39c0.31,0.26,0.47,0.63,0.47,1.12c0,0.33-0.08,0.61-0.24,0.84c-0.16,0.22-0.38,0.4-0.67,0.52l1.12,2.08
			v0.04h-0.93L163.87,121.53z M162.91,120.84h0.89c0.29,0,0.52-0.07,0.68-0.22c0.16-0.15,0.25-0.35,0.25-0.6
			c0-0.27-0.08-0.47-0.23-0.62c-0.15-0.15-0.38-0.22-0.68-0.22h-0.91V120.84z M167.32,123.45h-0.86v-4.98h0.86V123.45z
			 M172.36,121.09c0,0.49-0.08,0.92-0.25,1.29c-0.17,0.37-0.41,0.65-0.72,0.85c-0.31,0.2-0.67,0.29-1.08,0.29
			c-0.4,0-0.76-0.1-1.08-0.29c-0.31-0.2-0.56-0.48-0.73-0.84c-0.17-0.36-0.26-0.79-0.26-1.26v-0.28c0-0.49,0.09-0.91,0.26-1.29
			c0.17-0.37,0.42-0.66,0.73-0.85c0.32-0.2,0.67-0.3,1.08-0.3c0.41,0,0.76,0.1,1.08,0.29c0.32,0.19,0.56,0.47,0.73,0.84
			c0.17,0.36,0.26,0.79,0.26,1.28V121.09z M171.49,120.83c0-0.55-0.1-0.97-0.31-1.27c-0.21-0.29-0.5-0.44-0.89-0.44
			c-0.37,0-0.67,0.15-0.88,0.44c-0.21,0.29-0.32,0.71-0.32,1.24v0.29c0,0.55,0.11,0.97,0.32,1.27c0.21,0.3,0.51,0.45,0.89,0.45
			c0.38,0,0.68-0.15,0.88-0.44c0.21-0.29,0.31-0.72,0.31-1.28V120.83z M173.22,123.45v-4.98h1.47c0.44,0,0.83,0.1,1.17,0.29
			c0.34,0.2,0.61,0.47,0.79,0.83s0.28,0.77,0.28,1.24v0.25c0,0.47-0.09,0.89-0.28,1.24c-0.19,0.36-0.45,0.63-0.8,0.83
			c-0.35,0.19-0.74,0.29-1.19,0.29H173.22z M174.08,119.17v3.59h0.56c0.45,0,0.8-0.14,1.04-0.42c0.24-0.29,0.37-0.69,0.37-1.22
			v-0.28c0-0.54-0.12-0.95-0.35-1.24c-0.23-0.29-0.58-0.43-1.02-0.43H174.08z M178.7,123.45h-0.86v-4.98h0.86V123.45z
			 M183.56,121.83c-0.05,0.53-0.25,0.95-0.59,1.24c-0.34,0.3-0.8,0.44-1.36,0.44c-0.4,0-0.75-0.09-1.05-0.28
			c-0.3-0.19-0.53-0.46-0.7-0.8s-0.25-0.75-0.26-1.21v-0.46c0-0.47,0.08-0.88,0.25-1.24c0.17-0.36,0.41-0.63,0.72-0.83
			c0.31-0.19,0.67-0.29,1.08-0.29c0.55,0,0.99,0.15,1.33,0.45c0.33,0.3,0.53,0.72,0.58,1.26h-0.86c-0.04-0.36-0.15-0.61-0.31-0.77
			c-0.17-0.16-0.41-0.24-0.73-0.24c-0.38,0-0.67,0.14-0.87,0.41c-0.2,0.27-0.3,0.68-0.31,1.21v0.44c0,0.54,0.1,0.95,0.29,1.23
			c0.19,0.28,0.48,0.42,0.85,0.42c0.34,0,0.59-0.08,0.77-0.23c0.17-0.15,0.28-0.41,0.32-0.76H183.56z M188.31,121.09
			c0,0.49-0.08,0.92-0.25,1.29c-0.17,0.37-0.41,0.65-0.72,0.85c-0.31,0.2-0.67,0.29-1.08,0.29c-0.4,0-0.76-0.1-1.08-0.29
			c-0.31-0.2-0.56-0.48-0.73-0.84c-0.17-0.36-0.26-0.79-0.26-1.26v-0.28c0-0.49,0.08-0.91,0.26-1.29c0.17-0.37,0.42-0.66,0.73-0.85
			c0.32-0.2,0.67-0.3,1.08-0.3c0.41,0,0.77,0.1,1.08,0.29c0.32,0.19,0.56,0.47,0.73,0.84c0.17,0.36,0.26,0.79,0.26,1.28V121.09z
			 M187.45,120.83c0-0.55-0.1-0.97-0.31-1.27c-0.21-0.29-0.5-0.44-0.89-0.44c-0.37,0-0.67,0.15-0.88,0.44
			c-0.21,0.29-0.32,0.71-0.32,1.24v0.29c0,0.55,0.11,0.97,0.32,1.27c0.21,0.3,0.51,0.45,0.89,0.45c0.38,0,0.68-0.15,0.88-0.44
			c0.21-0.29,0.31-0.72,0.31-1.28V120.83z M191.77,122.17c0-0.22-0.08-0.39-0.23-0.51c-0.15-0.12-0.43-0.24-0.83-0.36
			c-0.4-0.12-0.72-0.26-0.96-0.4c-0.45-0.28-0.68-0.66-0.68-1.11c0-0.4,0.16-0.73,0.49-0.99c0.33-0.26,0.75-0.39,1.27-0.39
			c0.35,0,0.66,0.06,0.93,0.19c0.27,0.13,0.48,0.31,0.64,0.55c0.16,0.24,0.23,0.5,0.23,0.78h-0.86c0-0.26-0.08-0.46-0.25-0.61
			c-0.16-0.15-0.39-0.22-0.7-0.22c-0.28,0-0.5,0.06-0.66,0.18c-0.15,0.12-0.23,0.29-0.23,0.51c0,0.18,0.08,0.33,0.25,0.46
			c0.17,0.12,0.45,0.24,0.83,0.36c0.39,0.11,0.7,0.24,0.93,0.39c0.23,0.15,0.41,0.31,0.52,0.51c0.11,0.19,0.16,0.41,0.16,0.67
			c0,0.42-0.16,0.75-0.48,0.99c-0.32,0.24-0.75,0.36-1.29,0.36c-0.36,0-0.69-0.07-0.99-0.2c-0.3-0.13-0.54-0.32-0.7-0.55
			c-0.17-0.23-0.25-0.51-0.25-0.82h0.86c0,0.28,0.09,0.5,0.28,0.66c0.19,0.15,0.46,0.23,0.8,0.23c0.3,0,0.53-0.06,0.68-0.18
			C191.7,122.53,191.77,122.37,191.77,122.17z"/>
		<path class="st6" d="M216.44,121.53h-0.96v1.92h-0.86v-4.98h1.75c0.58,0,1.02,0.13,1.33,0.39c0.31,0.26,0.47,0.63,0.47,1.12
			c0,0.33-0.08,0.61-0.24,0.84c-0.16,0.22-0.38,0.4-0.67,0.52l1.12,2.08v0.04h-0.93L216.44,121.53z M215.47,120.84h0.89
			c0.29,0,0.52-0.07,0.68-0.22c0.16-0.15,0.25-0.35,0.25-0.6c0-0.27-0.08-0.47-0.23-0.62c-0.15-0.15-0.38-0.22-0.68-0.22h-0.91
			V120.84z M221.89,121.23h-2.04v1.53h2.39v0.69h-3.25v-4.98h3.23v0.7h-2.37v1.37h2.04V121.23z M224.69,122.36l1.26-3.89h0.95
			l-1.79,4.98h-0.84l-1.78-4.98h0.95L224.69,122.36z M228.38,123.45h-0.86v-4.98h0.86V123.45z M232.04,122.17
			c0-0.22-0.08-0.39-0.23-0.51c-0.15-0.12-0.43-0.24-0.83-0.36c-0.4-0.12-0.72-0.26-0.96-0.4c-0.45-0.28-0.68-0.66-0.68-1.11
			c0-0.4,0.16-0.73,0.49-0.99c0.33-0.26,0.75-0.39,1.28-0.39c0.35,0,0.65,0.06,0.93,0.19c0.27,0.13,0.48,0.31,0.64,0.55
			c0.15,0.24,0.23,0.5,0.23,0.78h-0.86c0-0.26-0.08-0.46-0.25-0.61c-0.16-0.15-0.39-0.22-0.7-0.22c-0.28,0-0.5,0.06-0.66,0.18
			c-0.15,0.12-0.23,0.29-0.23,0.51c0,0.18,0.08,0.33,0.25,0.46c0.17,0.12,0.45,0.24,0.83,0.36c0.39,0.11,0.7,0.24,0.93,0.39
			c0.23,0.15,0.41,0.31,0.52,0.51c0.11,0.19,0.16,0.41,0.16,0.67c0,0.42-0.16,0.75-0.48,0.99c-0.32,0.24-0.75,0.36-1.29,0.36
			c-0.36,0-0.69-0.07-1-0.2c-0.3-0.13-0.54-0.32-0.7-0.55c-0.17-0.23-0.25-0.51-0.25-0.82h0.86c0,0.28,0.09,0.5,0.28,0.66
			c0.19,0.15,0.46,0.23,0.8,0.23c0.3,0,0.53-0.06,0.68-0.18C231.97,122.53,232.04,122.37,232.04,122.17z M237.26,119.17h-1.55v4.28
			h-0.86v-4.28h-1.54v-0.7h3.95V119.17z M240.29,122.29h-1.93l-0.4,1.16h-0.9l1.88-4.98h0.78l1.88,4.98h-0.9L240.29,122.29z
			 M238.61,121.59h1.44l-0.72-2.06L238.61,121.59z M244.77,122.17c0-0.22-0.08-0.39-0.23-0.51c-0.15-0.12-0.43-0.24-0.83-0.36
			c-0.4-0.12-0.72-0.26-0.96-0.4c-0.45-0.28-0.68-0.66-0.68-1.11c0-0.4,0.16-0.73,0.49-0.99c0.33-0.26,0.75-0.39,1.27-0.39
			c0.35,0,0.66,0.06,0.93,0.19c0.27,0.13,0.48,0.31,0.64,0.55c0.15,0.24,0.23,0.5,0.23,0.78h-0.86c0-0.26-0.08-0.46-0.25-0.61
			c-0.16-0.15-0.39-0.22-0.7-0.22c-0.28,0-0.5,0.06-0.66,0.18c-0.15,0.12-0.23,0.29-0.23,0.51c0,0.18,0.09,0.33,0.25,0.46
			c0.17,0.12,0.45,0.24,0.83,0.36c0.39,0.11,0.7,0.24,0.93,0.39c0.23,0.15,0.41,0.31,0.52,0.51c0.11,0.19,0.16,0.41,0.16,0.67
			c0,0.42-0.16,0.75-0.48,0.99c-0.32,0.24-0.75,0.36-1.29,0.36c-0.36,0-0.69-0.07-0.99-0.2c-0.3-0.13-0.53-0.32-0.7-0.55
			c-0.17-0.23-0.25-0.51-0.25-0.82h0.86c0,0.28,0.09,0.5,0.28,0.66s0.45,0.23,0.8,0.23c0.3,0,0.53-0.06,0.68-0.18
			C244.7,122.53,244.77,122.37,244.77,122.17z"/>
		<path class="st7" d="M91,81.78c0-0.89,0.07-1.78,0.2-2.66l0.31-2.01c0.32-2.07,1.18-4.03,2.49-5.66c1.95-2.92,4.79-5.14,8.09-6.32
			l1.91-0.68c1.62,0.65,2.96,1.83,3.81,3.35l1.93,3.47c2.68,4.83,7.49,8.11,12.96,8.86l2.3,0.31h22.5H167h46.5l10.07-1.29
			c1.11-0.14,2.2-0.47,3.22-0.96c4.28-2.08,7.6-5.77,9.19-10.26c0.34-0.98,0.95-1.83,1.76-2.48l0.64-0.51
			c0.38-0.31,0.91-0.36,1.35-0.14l0.27,0.13c4.54,2.27,8.19,6.01,10.36,10.6l0.66,1.4v31.5H91V81.78z"/>
		<path class="st8" d="M237.5,84.12c0-0.64,0.52-1.17,1.17-1.17h2.09c0.65,0,1.17,0.52,1.17,1.17c0,0.64-0.52,1.17-1.17,1.17h-2.09
			C238.02,85.28,237.5,84.76,237.5,84.12z"/>
		<path class="st9" d="M242.67,83.53v1.18c0.2-0.1,0.33-0.33,0.33-0.59C243,83.86,242.87,83.63,242.67,83.53z"/>
		<path class="st6" d="M237.49,84.12c0-0.6,0.48-1.08,1.08-1.08h2.28c0.6,0,1.08,0.48,1.08,1.08c0,0.6-0.48,1.08-1.08,1.08h-2.28
			C237.97,85.2,237.49,84.71,237.49,84.12z"/>
		<path class="st10" d="M233.87,83.12c0.55,0,1.07,0.25,1.47,0.7c0.03,0.03,0.08,0.03,0.11,0l0.29-0.34
			c0.02-0.02,0.02-0.04,0.02-0.07c0-0.03-0.01-0.05-0.02-0.07c-1.04-1.19-2.68-1.19-3.72,0c-0.01,0.02-0.02,0.04-0.02,0.07
			c0,0.03,0.01,0.05,0.02,0.07l0.29,0.34c0.03,0.04,0.08,0.04,0.11,0C232.8,83.37,233.32,83.12,233.87,83.12z M233.87,84.24
			c0.3,0,0.59,0.13,0.81,0.37c0.03,0.03,0.08,0.03,0.11,0l0.28-0.34c0.02-0.02,0.02-0.04,0.02-0.07s-0.01-0.05-0.02-0.07
			c-0.68-0.75-1.73-0.75-2.41,0c-0.02,0.02-0.02,0.04-0.02,0.07s0.01,0.05,0.02,0.07l0.29,0.34c0.03,0.04,0.08,0.04,0.11,0
			C233.28,84.37,233.57,84.24,233.87,84.24z M234.44,84.99c0,0.03-0.01,0.05-0.02,0.07l-0.49,0.59c-0.02,0.02-0.04,0.03-0.05,0.03
			c-0.02,0-0.04-0.01-0.06-0.03l-0.49-0.59c-0.02-0.02-0.02-0.04-0.02-0.07c0-0.03,0.01-0.05,0.03-0.07c0.32-0.32,0.78-0.32,1.09,0
			C234.43,84.94,234.44,84.96,234.44,84.99z"/>
		<path class="st10" d="M230.5,82.55h-0.25c-0.14,0-0.25,0.13-0.25,0.29v2.55c0,0.16,0.11,0.29,0.25,0.29h0.25
			c0.14,0,0.25-0.13,0.25-0.29v-2.55C230.75,82.68,230.64,82.55,230.5,82.55z M229.1,83.23h0.25c0.14,0,0.25,0.13,0.25,0.29v1.86
			c0,0.16-0.11,0.29-0.25,0.29h-0.25c-0.14,0-0.25-0.13-0.25-0.29v-1.86C228.86,83.37,228.97,83.23,229.1,83.23z M228.2,83.92h-0.25
			c-0.14,0-0.25,0.13-0.25,0.29v1.18c0,0.16,0.11,0.29,0.25,0.29h0.25c0.14,0,0.25-0.13,0.25-0.29v-1.18
			C228.44,84.05,228.33,83.92,228.2,83.92z M227.05,84.51h-0.25c-0.14,0-0.25,0.13-0.25,0.29v0.59c0,0.16,0.11,0.29,0.25,0.29h0.25
			c0.14,0,0.25-0.13,0.25-0.29V84.8C227.29,84.64,227.18,84.51,227.05,84.51z"/>
		<path class="st6" d="M98.08,85.45c0.76,0,1.21-0.57,1.21-1.53c0-0.36-0.07-0.67-0.21-0.9c-0.2-0.37-0.54-0.56-0.98-0.56
			c-0.65,0-1.1,0.42-1.1,1c0,0.55,0.41,0.95,0.98,0.95c0.35,0,0.63-0.16,0.77-0.43h0.01c0,0,0.01,0,0.01,0c0,0,0.02,0,0.02,0
			c0,0.65-0.26,1.04-0.69,1.04c-0.26,0-0.45-0.13-0.52-0.35h-0.53C97.13,85.14,97.54,85.45,98.08,85.45z M98.1,84
			c-0.34,0-0.59-0.23-0.59-0.56c0-0.32,0.26-0.56,0.59-0.56c0.33,0,0.59,0.25,0.59,0.57C98.69,83.76,98.44,84,98.1,84z"/>
		<path class="st6" d="M100.16,85.42c0.2,0,0.33-0.13,0.33-0.31c0-0.18-0.13-0.31-0.33-0.31c-0.19,0-0.33,0.13-0.33,0.31
			C99.83,85.29,99.97,85.42,100.16,85.42z M100.16,83.93c0.2,0,0.33-0.13,0.33-0.31c0-0.18-0.13-0.31-0.33-0.31
			c-0.19,0-0.33,0.13-0.33,0.31C99.83,83.8,99.97,83.93,100.16,83.93z"/>
		<path class="st6" d="M102.42,85.38h0.51v-0.53h0.4v-0.43h-0.4v-1.89h-0.75c-0.53,0.76-0.94,1.4-1.21,1.87v0.46h1.45V85.38z
			 M101.46,84.4c0.35-0.59,0.65-1.06,0.94-1.46h0.03v1.49h-0.97V84.4z"/>
		<path class="st6" d="M104.46,85.38H105v-2.86h-0.53l-0.78,0.52v0.49l0.74-0.5h0.04V85.38z"/>
		<line class="st11" x1="212" y1="132.95" x2="249" y2="132.95"/>
		<line class="st12" x1="97" y1="97.95" x2="104" y2="97.95"/>
		<line class="st12" x1="97" y1="95.95" x2="104" y2="95.95"/>
		<line class="st12" x1="97" y1="99.95" x2="104" y2="99.95"/>
		<path class="st6" d="M114.25,99.52l1.08-3.34h0.81l-1.54,4.27h-0.72l-1.53-4.27h0.81L114.25,99.52z M119.13,98.54h-1.75v1.31h2.05
			v0.59h-2.79v-4.27h2.77v0.6h-2.03v1.18h1.75V98.54z M123.41,100.45h-0.74l-1.9-3.03v3.03h-0.74v-4.27h0.74l1.91,3.04v-3.04h0.73
			V100.45z M127.28,96.78h-1.33v3.67h-0.74v-3.67h-1.32v-0.6h3.38V96.78z M129.88,99.45h-1.65l-0.35,0.99h-0.77l1.61-4.27h0.67
			l1.61,4.27h-0.77L129.88,99.45z M128.44,98.86h1.24l-0.62-1.77L128.44,98.86z M133.72,99.35c0-0.19-0.07-0.33-0.2-0.43
			c-0.13-0.1-0.37-0.2-0.71-0.31c-0.34-0.1-0.62-0.22-0.82-0.35c-0.39-0.24-0.58-0.56-0.58-0.96c0-0.34,0.14-0.63,0.42-0.85
			c0.28-0.22,0.65-0.33,1.09-0.33c0.3,0,0.56,0.05,0.79,0.16c0.23,0.11,0.41,0.27,0.55,0.47c0.13,0.2,0.2,0.42,0.2,0.67h-0.74
			c0-0.22-0.07-0.4-0.21-0.52c-0.14-0.13-0.34-0.19-0.6-0.19c-0.24,0-0.43,0.05-0.57,0.16c-0.13,0.1-0.2,0.25-0.2,0.43
			c0,0.16,0.07,0.29,0.22,0.39c0.15,0.1,0.38,0.21,0.72,0.3c0.33,0.1,0.6,0.21,0.8,0.34c0.2,0.12,0.35,0.27,0.44,0.43
			c0.09,0.16,0.14,0.35,0.14,0.57c0,0.36-0.14,0.64-0.41,0.85c-0.27,0.21-0.64,0.31-1.11,0.31c-0.31,0-0.59-0.06-0.85-0.17
			c-0.26-0.12-0.46-0.27-0.6-0.47c-0.14-0.2-0.21-0.44-0.21-0.7h0.74c0,0.24,0.08,0.43,0.24,0.56c0.16,0.13,0.39,0.2,0.69,0.2
			c0.26,0,0.45-0.05,0.58-0.16C133.65,99.66,133.72,99.52,133.72,99.35z"/>
		<path class="st6" d="M224.4,102.95h1.61v0.49h-2.23v-3.55h0.62V102.95z M229.17,101.76c0,0.35-0.06,0.65-0.18,0.92
			c-0.12,0.26-0.29,0.46-0.52,0.61c-0.22,0.14-0.48,0.21-0.77,0.21c-0.29,0-0.55-0.07-0.77-0.21c-0.22-0.14-0.4-0.34-0.52-0.6
			c-0.12-0.26-0.18-0.56-0.19-0.9v-0.2c0-0.35,0.06-0.65,0.18-0.92c0.12-0.27,0.3-0.47,0.52-0.61c0.23-0.14,0.48-0.21,0.77-0.21
			s0.55,0.07,0.77,0.21c0.22,0.14,0.4,0.34,0.52,0.6c0.12,0.26,0.18,0.56,0.18,0.91V101.76z M228.55,101.58
			c0-0.39-0.08-0.7-0.22-0.91c-0.15-0.21-0.36-0.31-0.63-0.31c-0.27,0-0.48,0.1-0.63,0.31c-0.15,0.21-0.23,0.5-0.23,0.89v0.21
			c0,0.39,0.08,0.69,0.23,0.91c0.15,0.21,0.36,0.32,0.64,0.32c0.27,0,0.48-0.1,0.63-0.31c0.15-0.21,0.22-0.51,0.22-0.91V101.58z
			 M232.51,102.99c-0.13,0.17-0.31,0.29-0.53,0.38c-0.23,0.09-0.49,0.13-0.78,0.13c-0.3,0-0.56-0.07-0.79-0.2
			c-0.23-0.14-0.41-0.33-0.53-0.58c-0.12-0.25-0.19-0.55-0.19-0.88v-0.28c0-0.54,0.13-0.96,0.39-1.26c0.26-0.3,0.62-0.45,1.08-0.45
			c0.39,0,0.71,0.1,0.94,0.29c0.23,0.2,0.37,0.48,0.42,0.84h-0.61c-0.07-0.43-0.32-0.64-0.74-0.64c-0.28,0-0.49,0.1-0.63,0.3
			c-0.14,0.2-0.22,0.49-0.22,0.88v0.27c0,0.38,0.08,0.68,0.24,0.9c0.16,0.21,0.39,0.32,0.68,0.32c0.32,0,0.54-0.07,0.67-0.21v-0.7
			h-0.73v-0.47h1.35V102.99z M236.02,101.76c0,0.35-0.06,0.65-0.18,0.92c-0.12,0.26-0.29,0.46-0.52,0.61
			c-0.22,0.14-0.48,0.21-0.77,0.21c-0.29,0-0.54-0.07-0.77-0.21c-0.22-0.14-0.4-0.34-0.52-0.6c-0.12-0.26-0.18-0.56-0.18-0.9v-0.2
			c0-0.35,0.06-0.65,0.18-0.92c0.12-0.27,0.3-0.47,0.52-0.61c0.22-0.14,0.48-0.21,0.77-0.21c0.29,0,0.55,0.07,0.77,0.21
			c0.23,0.14,0.4,0.34,0.52,0.6c0.12,0.26,0.18,0.56,0.19,0.91V101.76z M235.4,101.58c0-0.39-0.08-0.7-0.22-0.91
			c-0.15-0.21-0.36-0.31-0.63-0.31c-0.27,0-0.48,0.1-0.63,0.31c-0.15,0.21-0.23,0.5-0.23,0.89v0.21c0,0.39,0.08,0.69,0.23,0.91
			c0.15,0.21,0.36,0.32,0.64,0.32c0.27,0,0.48-0.1,0.63-0.31c0.15-0.21,0.22-0.51,0.22-0.91V101.58z M239.24,99.89v2.38
			c0,0.38-0.12,0.68-0.36,0.9c-0.24,0.22-0.56,0.33-0.96,0.33c-0.41,0-0.73-0.11-0.97-0.32c-0.24-0.22-0.36-0.52-0.36-0.91v-2.37
			h0.61v2.38c0,0.24,0.06,0.42,0.18,0.54c0.12,0.13,0.3,0.19,0.53,0.19c0.48,0,0.71-0.25,0.71-0.75v-2.36H239.24z M242.47,100.39
			h-1.11v3.06h-0.61v-3.06h-1.1v-0.5h2.82V100.39z"/>
		<path class="st1" d="M99.62,66.58v-1.59l143.48-0.23v1.85c-0.55,0.03-1.09,0.1-1.62,0.21c-1.27,0.23-2.46,0.77-3.42,1.56
			s-1.67,1.8-2.05,2.93c-1.18,3.51-3.57,6.58-6.82,8.76c-3.25,2.18-7.18,3.35-11.22,3.34h-92.17c-4.13,0.04-8.16-1.15-11.47-3.4
			c-3.31-2.24-5.71-5.41-6.84-9.02C106.15,66.65,99.62,66.58,99.62,66.58z"/>
		<path class="st13" d="M245.75,217.2h-1.5v-1.5c0-0.07-0.03-0.13-0.07-0.18s-0.11-0.07-0.18-0.07s-0.13,0.03-0.18,0.07
			s-0.07,0.11-0.07,0.18v1.5h-1.5c-0.07,0-0.13,0.03-0.18,0.07s-0.07,0.11-0.07,0.18s0.03,0.13,0.07,0.18s0.11,0.07,0.18,0.07h1.5
			v1.5c0,0.07,0.03,0.13,0.07,0.18s0.11,0.07,0.18,0.07s0.13-0.03,0.18-0.07s0.07-0.11,0.07-0.18v-1.5h1.5
			c0.07,0,0.13-0.03,0.18-0.07s0.07-0.11,0.07-0.18s-0.03-0.13-0.07-0.18S245.81,217.2,245.75,217.2z"/>
		<path class="st13" d="M245.75,263.2h-1.5v-1.5c0-0.07-0.03-0.13-0.07-0.18s-0.11-0.07-0.18-0.07s-0.13,0.03-0.18,0.07
			s-0.07,0.11-0.07,0.18v1.5h-1.5c-0.07,0-0.13,0.03-0.18,0.07s-0.07,0.11-0.07,0.18c0,0.07,0.03,0.13,0.07,0.18
			s0.11,0.07,0.18,0.07h1.5v1.5c0,0.07,0.03,0.13,0.07,0.18s0.11,0.07,0.18,0.07s0.13-0.03,0.18-0.07s0.07-0.11,0.07-0.18v-1.5h1.5
			c0.07,0,0.13-0.03,0.18-0.07s0.07-0.11,0.07-0.18c0-0.07-0.03-0.13-0.07-0.18S245.81,263.2,245.75,263.2z"/>
		<path class="st13" d="M245.75,309.2h-1.5v-1.5c0-0.07-0.03-0.13-0.07-0.18s-0.11-0.07-0.18-0.07s-0.13,0.03-0.18,0.07
			s-0.07,0.11-0.07,0.18v1.5h-1.5c-0.07,0-0.13,0.03-0.18,0.07s-0.07,0.11-0.07,0.18s0.03,0.13,0.07,0.18s0.11,0.07,0.18,0.07h1.5
			v1.5c0,0.07,0.03,0.13,0.07,0.18s0.11,0.07,0.18,0.07s0.13-0.03,0.18-0.07s0.07-0.11,0.07-0.18v-1.5h1.5
			c0.07,0,0.13-0.03,0.18-0.07s0.07-0.11,0.07-0.18s-0.03-0.13-0.07-0.18S245.81,309.2,245.75,309.2z"/>
		<path class="st14" d="M143.03,151.19h-1.19v1.26h-0.38v-2.84h1.76v0.31h-1.39v0.97h1.19V151.19z M144.45,152.49
			c-0.29,0-0.52-0.09-0.7-0.28c-0.18-0.19-0.27-0.44-0.27-0.76v-0.07c0-0.21,0.04-0.4,0.12-0.56c0.08-0.16,0.19-0.29,0.34-0.39
			c0.14-0.09,0.3-0.14,0.47-0.14c0.27,0,0.49,0.09,0.64,0.27c0.15,0.18,0.23,0.44,0.23,0.78v0.15h-1.43
			c0.01,0.21,0.07,0.38,0.18,0.51c0.12,0.13,0.27,0.19,0.45,0.19c0.13,0,0.23-0.03,0.32-0.08c0.09-0.05,0.17-0.12,0.23-0.21
			l0.22,0.17C145.07,152.35,144.8,152.49,144.45,152.49z M144.4,150.59c-0.15,0-0.27,0.05-0.37,0.16c-0.1,0.11-0.16,0.25-0.18,0.45
			h1.06v-0.03c-0.01-0.18-0.06-0.33-0.15-0.43C144.68,150.64,144.56,150.59,144.4,150.59z M146.54,152.19
			c0.13,0,0.24-0.04,0.34-0.12c0.1-0.08,0.15-0.18,0.16-0.29h0.34c-0.01,0.12-0.05,0.24-0.12,0.35c-0.08,0.11-0.18,0.2-0.31,0.26
			c-0.13,0.07-0.26,0.1-0.41,0.1c-0.29,0-0.52-0.1-0.69-0.29c-0.17-0.19-0.25-0.46-0.25-0.79v-0.06c0-0.2,0.04-0.39,0.11-0.55
			c0.08-0.16,0.18-0.29,0.32-0.37c0.14-0.09,0.31-0.13,0.5-0.13c0.24,0,0.43,0.07,0.59,0.21c0.16,0.14,0.24,0.33,0.25,0.55h-0.34
			c-0.01-0.14-0.06-0.25-0.16-0.34c-0.09-0.09-0.21-0.13-0.34-0.13c-0.18,0-0.33,0.07-0.43,0.2c-0.1,0.13-0.15,0.32-0.15,0.57v0.07
			c0,0.24,0.05,0.43,0.15,0.56C146.21,152.13,146.36,152.19,146.54,152.19z M148.15,150.59c0.16-0.2,0.37-0.29,0.62-0.29
			c0.45,0,0.67,0.25,0.68,0.76v1.4h-0.36v-1.4c0-0.15-0.04-0.26-0.11-0.34c-0.07-0.07-0.17-0.11-0.32-0.11
			c-0.12,0-0.22,0.03-0.31,0.09c-0.09,0.06-0.16,0.15-0.21,0.25v1.51h-0.36v-3h0.36V150.59z M151.3,152.45
			c-0.02-0.04-0.04-0.12-0.05-0.22c-0.17,0.18-0.37,0.26-0.6,0.26c-0.21,0-0.38-0.06-0.51-0.18c-0.13-0.12-0.2-0.27-0.2-0.45
			c0-0.22,0.08-0.39,0.25-0.51c0.17-0.12,0.4-0.18,0.71-0.18h0.35V151c0-0.13-0.04-0.23-0.11-0.3c-0.08-0.08-0.19-0.11-0.33-0.11
			c-0.13,0-0.24,0.03-0.32,0.1c-0.09,0.07-0.13,0.14-0.13,0.24h-0.36c0-0.11,0.04-0.21,0.11-0.31c0.08-0.1,0.18-0.18,0.3-0.23
			c0.13-0.06,0.27-0.09,0.42-0.09c0.24,0,0.43,0.06,0.57,0.18c0.14,0.12,0.21,0.29,0.22,0.5v0.97c0,0.19,0.02,0.35,0.07,0.46v0.03
			H151.3z M150.7,152.17c0.11,0,0.22-0.03,0.32-0.09c0.1-0.06,0.18-0.13,0.22-0.23v-0.43h-0.28c-0.44,0-0.66,0.13-0.66,0.39
			c0,0.11,0.04,0.2,0.11,0.27C150.48,152.14,150.58,152.17,150.7,152.17z M152.15,152.26c0-0.06,0.02-0.12,0.05-0.16
			c0.04-0.04,0.09-0.06,0.17-0.06c0.07,0,0.13,0.02,0.17,0.06c0.04,0.04,0.06,0.09,0.06,0.16c0,0.06-0.02,0.11-0.06,0.15
			c-0.04,0.04-0.09,0.06-0.17,0.06c-0.07,0-0.13-0.02-0.17-0.06C152.17,152.37,152.15,152.32,152.15,152.26z M152.16,150.53
			c0-0.06,0.02-0.12,0.06-0.16c0.04-0.04,0.09-0.06,0.17-0.06s0.13,0.02,0.17,0.06c0.04,0.04,0.06,0.09,0.06,0.16
			c0,0.06-0.02,0.11-0.06,0.15c-0.04,0.04-0.09,0.06-0.17,0.06s-0.13-0.02-0.17-0.06C152.17,150.64,152.16,150.59,152.16,150.53z"/>
		<path class="st14" d="M106.07,221.13h-1.23v1.01h1.43v0.31h-1.81v-2.84h1.79v0.31h-1.41v0.91h1.23V221.13z M106.56,221.37
			c0-0.32,0.08-0.58,0.23-0.78c0.15-0.2,0.35-0.3,0.6-0.3c0.25,0,0.44,0.08,0.59,0.25v-1.1h0.36v3h-0.33l-0.02-0.23
			c-0.14,0.18-0.35,0.27-0.6,0.27c-0.24,0-0.45-0.1-0.6-0.3c-0.15-0.2-0.23-0.46-0.23-0.79V221.37z M106.92,221.41
			c0,0.24,0.05,0.43,0.15,0.56c0.1,0.14,0.24,0.2,0.41,0.2c0.23,0,0.4-0.1,0.5-0.31v-0.97c-0.11-0.2-0.27-0.3-0.5-0.3
			c-0.18,0-0.32,0.07-0.41,0.2C106.97,220.94,106.92,221.15,106.92,221.41z M109.3,222.45h-0.36v-2.11h0.36V222.45z M108.9,219.77
			c0-0.06,0.02-0.11,0.05-0.15c0.04-0.04,0.09-0.06,0.16-0.06c0.07,0,0.12,0.02,0.16,0.06c0.04,0.04,0.05,0.09,0.05,0.15
			c0,0.06-0.02,0.11-0.05,0.15c-0.04,0.04-0.09,0.06-0.16,0.06c-0.07,0-0.12-0.02-0.16-0.06
			C108.92,219.88,108.9,219.83,108.9,219.77z M110.72,222.19c0.13,0,0.24-0.04,0.34-0.12c0.1-0.08,0.15-0.18,0.16-0.29h0.34
			c-0.01,0.12-0.05,0.24-0.12,0.35c-0.08,0.11-0.18,0.2-0.31,0.26c-0.13,0.07-0.26,0.1-0.41,0.1c-0.29,0-0.52-0.1-0.69-0.29
			c-0.17-0.19-0.25-0.46-0.25-0.79v-0.06c0-0.2,0.04-0.39,0.11-0.55c0.08-0.16,0.18-0.29,0.33-0.37c0.14-0.09,0.31-0.13,0.5-0.13
			c0.24,0,0.43,0.07,0.59,0.21c0.16,0.14,0.24,0.33,0.25,0.55h-0.34c-0.01-0.14-0.06-0.25-0.16-0.34c-0.09-0.09-0.21-0.13-0.34-0.13
			c-0.18,0-0.33,0.07-0.43,0.2c-0.1,0.13-0.15,0.32-0.15,0.57v0.07c0,0.24,0.05,0.43,0.15,0.56
			C110.39,222.13,110.54,222.19,110.72,222.19z M112.36,222.45H112v-2.11h0.36V222.45z M111.97,219.77c0-0.06,0.02-0.11,0.05-0.15
			c0.04-0.04,0.09-0.06,0.16-0.06c0.07,0,0.12,0.02,0.16,0.06c0.04,0.04,0.05,0.09,0.05,0.15c0,0.06-0.02,0.11-0.05,0.15
			c-0.04,0.04-0.09,0.06-0.16,0.06c-0.07,0-0.12-0.02-0.16-0.06C111.99,219.88,111.97,219.83,111.97,219.77z M112.85,221.37
			c0-0.21,0.04-0.39,0.12-0.56c0.08-0.17,0.2-0.29,0.34-0.38c0.15-0.09,0.31-0.13,0.5-0.13c0.29,0,0.52,0.1,0.7,0.3
			c0.18,0.2,0.27,0.46,0.27,0.79v0.03c0,0.21-0.04,0.39-0.12,0.55c-0.08,0.16-0.19,0.29-0.34,0.38c-0.14,0.09-0.31,0.14-0.5,0.14
			c-0.29,0-0.52-0.1-0.7-0.3c-0.18-0.2-0.27-0.46-0.27-0.79V221.37z M113.21,221.41c0,0.23,0.05,0.42,0.16,0.56
			c0.11,0.14,0.26,0.21,0.44,0.21c0.18,0,0.33-0.07,0.44-0.21c0.11-0.14,0.16-0.35,0.16-0.61c0-0.23-0.05-0.42-0.17-0.56
			c-0.11-0.14-0.25-0.22-0.44-0.22c-0.18,0-0.32,0.07-0.43,0.21S113.21,221.15,113.21,221.41z M113.97,219.45h0.44l-0.52,0.57h-0.29
			L113.97,219.45z M115.56,220.33l0.01,0.26c0.16-0.2,0.37-0.3,0.63-0.3c0.45,0,0.67,0.25,0.68,0.76v1.4h-0.36v-1.4
			c0-0.15-0.04-0.26-0.1-0.34c-0.07-0.07-0.17-0.11-0.32-0.11c-0.12,0-0.22,0.03-0.31,0.09c-0.09,0.06-0.16,0.15-0.21,0.25v1.51
			h-0.36v-2.11H115.56z M117.42,222.26c0-0.06,0.02-0.12,0.05-0.16c0.04-0.04,0.09-0.06,0.17-0.06c0.07,0,0.13,0.02,0.17,0.06
			c0.04,0.04,0.06,0.09,0.06,0.16c0,0.06-0.02,0.11-0.06,0.15c-0.04,0.04-0.09,0.06-0.17,0.06c-0.08,0-0.13-0.02-0.17-0.06
			C117.44,222.37,117.42,222.32,117.42,222.26z M117.42,220.53c0-0.06,0.02-0.12,0.05-0.16c0.04-0.04,0.09-0.06,0.17-0.06
			c0.08,0,0.13,0.02,0.17,0.06c0.04,0.04,0.06,0.09,0.06,0.16c0,0.06-0.02,0.11-0.06,0.15c-0.04,0.04-0.09,0.06-0.17,0.06
			c-0.07,0-0.13-0.02-0.17-0.06C117.44,220.64,117.42,220.59,117.42,220.53z M119.88,220.85h0.27c0.17,0,0.3-0.05,0.4-0.13
			c0.1-0.09,0.15-0.21,0.15-0.35c0-0.33-0.17-0.5-0.5-0.5c-0.16,0-0.28,0.04-0.38,0.13c-0.09,0.09-0.14,0.21-0.14,0.35h-0.36
			c0-0.22,0.08-0.41,0.25-0.56c0.17-0.15,0.38-0.22,0.63-0.22c0.27,0,0.48,0.07,0.63,0.21s0.23,0.34,0.23,0.59
			c0,0.12-0.04,0.24-0.12,0.36c-0.08,0.12-0.19,0.2-0.33,0.26c0.16,0.05,0.28,0.13,0.36,0.25c0.09,0.11,0.13,0.26,0.13,0.42
			c0,0.26-0.08,0.46-0.25,0.61c-0.17,0.15-0.38,0.23-0.65,0.23c-0.27,0-0.48-0.07-0.65-0.22c-0.17-0.14-0.25-0.34-0.25-0.57h0.36
			c0,0.15,0.05,0.27,0.15,0.36c0.1,0.09,0.23,0.14,0.39,0.14c0.18,0,0.31-0.04,0.4-0.14c0.09-0.09,0.14-0.22,0.14-0.39
			c0-0.17-0.05-0.29-0.15-0.38c-0.1-0.09-0.25-0.13-0.44-0.14h-0.27V220.85z M122.79,222.45h-0.36v-2.41l-0.73,0.27v-0.33l1.04-0.39
			h0.06V222.45z M125.26,219.6v0.31h-0.07c-0.28,0.01-0.51,0.09-0.67,0.25c-0.17,0.16-0.26,0.39-0.29,0.68
			c0.15-0.17,0.35-0.26,0.61-0.26c0.25,0,0.44,0.09,0.59,0.26c0.15,0.18,0.22,0.4,0.22,0.68c0,0.29-0.08,0.53-0.24,0.7
			c-0.16,0.18-0.37,0.26-0.64,0.26c-0.27,0-0.49-0.1-0.66-0.31c-0.17-0.21-0.25-0.48-0.25-0.81v-0.14c0-0.52,0.11-0.92,0.33-1.2
			c0.22-0.28,0.56-0.42,1-0.43H125.26z M124.79,220.88c-0.12,0-0.24,0.04-0.34,0.11c-0.1,0.07-0.18,0.17-0.22,0.28v0.13
			c0,0.23,0.05,0.42,0.16,0.57c0.1,0.14,0.24,0.22,0.39,0.22c0.16,0,0.29-0.06,0.38-0.18c0.09-0.12,0.14-0.28,0.14-0.47
			c0-0.19-0.05-0.35-0.14-0.47C125.07,220.94,124.95,220.88,124.79,220.88z"/>
		<path class="st14" d="M106.07,268.13h-1.23v1.01h1.43v0.31h-1.81v-2.84h1.79v0.31h-1.41v0.91h1.23V268.13z M106.56,268.37
			c0-0.32,0.08-0.58,0.23-0.78c0.15-0.2,0.35-0.3,0.6-0.3c0.25,0,0.44,0.08,0.59,0.25v-1.1h0.36v3h-0.33l-0.02-0.23
			c-0.14,0.18-0.35,0.27-0.6,0.27c-0.24,0-0.45-0.1-0.6-0.3c-0.15-0.2-0.23-0.46-0.23-0.79V268.37z M106.92,268.41
			c0,0.24,0.05,0.43,0.15,0.56c0.1,0.14,0.24,0.2,0.41,0.2c0.23,0,0.4-0.1,0.5-0.31v-0.97c-0.11-0.2-0.27-0.3-0.5-0.3
			c-0.18,0-0.32,0.07-0.41,0.2C106.97,267.94,106.92,268.15,106.92,268.41z M109.3,269.45h-0.36v-2.11h0.36V269.45z M108.9,266.77
			c0-0.06,0.02-0.11,0.05-0.15c0.04-0.04,0.09-0.06,0.16-0.06c0.07,0,0.12,0.02,0.16,0.06c0.04,0.04,0.05,0.09,0.05,0.15
			c0,0.06-0.02,0.11-0.05,0.15c-0.04,0.04-0.09,0.06-0.16,0.06c-0.07,0-0.12-0.02-0.16-0.06
			C108.92,266.88,108.9,266.83,108.9,266.77z M110.72,269.19c0.13,0,0.24-0.04,0.34-0.12c0.1-0.08,0.15-0.18,0.16-0.29h0.34
			c-0.01,0.12-0.05,0.24-0.12,0.35c-0.08,0.11-0.18,0.2-0.31,0.26c-0.13,0.07-0.26,0.1-0.41,0.1c-0.29,0-0.52-0.1-0.69-0.29
			c-0.17-0.19-0.25-0.46-0.25-0.79v-0.06c0-0.2,0.04-0.39,0.11-0.55c0.08-0.16,0.18-0.29,0.33-0.37c0.14-0.09,0.31-0.13,0.5-0.13
			c0.24,0,0.43,0.07,0.59,0.21c0.16,0.14,0.24,0.33,0.25,0.55h-0.34c-0.01-0.14-0.06-0.25-0.16-0.34c-0.09-0.09-0.21-0.13-0.34-0.13
			c-0.18,0-0.33,0.07-0.43,0.2c-0.1,0.13-0.15,0.32-0.15,0.57v0.07c0,0.24,0.05,0.43,0.15,0.56
			C110.39,269.13,110.54,269.19,110.72,269.19z M112.36,269.45H112v-2.11h0.36V269.45z M111.97,266.77c0-0.06,0.02-0.11,0.05-0.15
			c0.04-0.04,0.09-0.06,0.16-0.06c0.07,0,0.12,0.02,0.16,0.06c0.04,0.04,0.05,0.09,0.05,0.15c0,0.06-0.02,0.11-0.05,0.15
			c-0.04,0.04-0.09,0.06-0.16,0.06c-0.07,0-0.12-0.02-0.16-0.06C111.99,266.88,111.97,266.83,111.97,266.77z M112.85,268.37
			c0-0.21,0.04-0.39,0.12-0.56c0.08-0.17,0.2-0.29,0.34-0.38c0.15-0.09,0.31-0.13,0.5-0.13c0.29,0,0.52,0.1,0.7,0.3
			c0.18,0.2,0.27,0.46,0.27,0.8v0.03c0,0.21-0.04,0.39-0.12,0.55c-0.08,0.16-0.19,0.29-0.34,0.38c-0.14,0.09-0.31,0.14-0.5,0.14
			c-0.29,0-0.52-0.1-0.7-0.3c-0.18-0.2-0.27-0.46-0.27-0.79V268.37z M113.21,268.41c0,0.23,0.05,0.42,0.16,0.56
			c0.11,0.14,0.26,0.21,0.44,0.21c0.18,0,0.33-0.07,0.44-0.21c0.11-0.14,0.16-0.35,0.16-0.61c0-0.23-0.05-0.42-0.17-0.56
			c-0.11-0.14-0.25-0.22-0.44-0.22c-0.18,0-0.32,0.07-0.43,0.21S113.21,268.15,113.21,268.41z M113.97,266.45h0.44l-0.52,0.57h-0.29
			L113.97,266.45z M115.56,267.33l0.01,0.27c0.16-0.2,0.37-0.3,0.63-0.3c0.45,0,0.67,0.25,0.68,0.76v1.4h-0.36v-1.4
			c0-0.15-0.04-0.27-0.1-0.34c-0.07-0.07-0.17-0.11-0.32-0.11c-0.12,0-0.22,0.03-0.31,0.09c-0.09,0.06-0.16,0.14-0.21,0.25v1.51
			h-0.36v-2.11H115.56z M117.42,269.26c0-0.06,0.02-0.11,0.05-0.16c0.04-0.04,0.09-0.06,0.17-0.06c0.07,0,0.13,0.02,0.17,0.06
			c0.04,0.04,0.06,0.09,0.06,0.16c0,0.06-0.02,0.11-0.06,0.15c-0.04,0.04-0.09,0.06-0.17,0.06c-0.08,0-0.13-0.02-0.17-0.06
			C117.44,269.37,117.42,269.32,117.42,269.26z M117.42,267.53c0-0.06,0.02-0.11,0.05-0.16c0.04-0.04,0.09-0.06,0.17-0.06
			c0.08,0,0.13,0.02,0.17,0.06c0.04,0.04,0.06,0.09,0.06,0.16c0,0.06-0.02,0.11-0.06,0.15c-0.04,0.04-0.09,0.06-0.17,0.06
			c-0.07,0-0.13-0.02-0.17-0.06C117.44,267.64,117.42,267.59,117.42,267.53z M120.88,268.49h0.39v0.29h-0.39v0.66h-0.36v-0.66h-1.3
			v-0.21l1.27-1.97h0.39V268.49z M119.63,268.49h0.89v-1.4l-0.04,0.08L119.63,268.49z M122.79,269.45h-0.36v-2.41l-0.73,0.27v-0.33
			l1.04-0.39h0.06V269.45z M125.57,267.35c0,0.14-0.04,0.27-0.11,0.38c-0.07,0.11-0.17,0.2-0.3,0.26c0.15,0.06,0.27,0.16,0.35,0.28
			c0.09,0.12,0.13,0.26,0.13,0.42c0,0.25-0.08,0.44-0.25,0.59s-0.38,0.22-0.65,0.22c-0.27,0-0.49-0.07-0.66-0.22
			c-0.16-0.15-0.25-0.34-0.25-0.59c0-0.15,0.04-0.29,0.12-0.42c0.09-0.12,0.2-0.22,0.35-0.28c-0.13-0.06-0.23-0.15-0.3-0.26
			c-0.07-0.11-0.11-0.24-0.11-0.38c0-0.24,0.08-0.43,0.23-0.57c0.15-0.14,0.36-0.21,0.61-0.21c0.25,0,0.45,0.07,0.61,0.21
			C125.49,266.92,125.57,267.11,125.57,267.35z M125.28,268.67c0-0.16-0.05-0.29-0.15-0.39c-0.1-0.1-0.23-0.15-0.4-0.15
			c-0.16,0-0.29,0.05-0.39,0.15c-0.1,0.1-0.15,0.23-0.15,0.39c0,0.16,0.05,0.29,0.14,0.38c0.1,0.09,0.23,0.14,0.4,0.14
			c0.17,0,0.3-0.05,0.4-0.14C125.23,268.96,125.28,268.83,125.28,268.67z M124.73,266.86c-0.14,0-0.26,0.04-0.35,0.13
			c-0.09,0.09-0.13,0.21-0.13,0.36c0,0.14,0.04,0.26,0.13,0.35c0.09,0.09,0.2,0.13,0.35,0.13c0.14,0,0.26-0.05,0.35-0.13
			c0.09-0.09,0.13-0.21,0.13-0.35c0-0.14-0.04-0.26-0.14-0.35C124.98,266.91,124.87,266.86,124.73,266.86z"/>
		<path class="st14" d="M106.07,312.13h-1.23v1.01h1.43v0.31h-1.81v-2.84h1.79v0.31h-1.41v0.91h1.23V312.13z M106.56,312.37
			c0-0.32,0.08-0.58,0.23-0.78c0.15-0.2,0.35-0.3,0.6-0.3c0.25,0,0.44,0.08,0.59,0.25v-1.1h0.36v3h-0.33l-0.02-0.23
			c-0.14,0.18-0.35,0.27-0.6,0.27c-0.24,0-0.45-0.1-0.6-0.3c-0.15-0.2-0.23-0.46-0.23-0.79V312.37z M106.92,312.41
			c0,0.24,0.05,0.43,0.15,0.56c0.1,0.14,0.24,0.2,0.41,0.2c0.23,0,0.4-0.1,0.5-0.31v-0.97c-0.11-0.2-0.27-0.3-0.5-0.3
			c-0.18,0-0.32,0.07-0.41,0.21C106.97,311.94,106.92,312.15,106.92,312.41z M109.3,313.45h-0.36v-2.11h0.36V313.45z M108.9,310.77
			c0-0.06,0.02-0.11,0.05-0.15c0.04-0.04,0.09-0.06,0.16-0.06c0.07,0,0.12,0.02,0.16,0.06c0.04,0.04,0.05,0.09,0.05,0.15
			c0,0.06-0.02,0.11-0.05,0.15c-0.04,0.04-0.09,0.06-0.16,0.06c-0.07,0-0.12-0.02-0.16-0.06
			C108.92,310.88,108.9,310.83,108.9,310.77z M110.72,313.19c0.13,0,0.24-0.04,0.34-0.12c0.1-0.08,0.15-0.18,0.16-0.29h0.34
			c-0.01,0.12-0.05,0.24-0.12,0.35c-0.08,0.11-0.18,0.2-0.31,0.26c-0.13,0.07-0.26,0.1-0.41,0.1c-0.29,0-0.52-0.1-0.69-0.29
			c-0.17-0.19-0.25-0.46-0.25-0.79v-0.06c0-0.21,0.04-0.39,0.11-0.55c0.08-0.16,0.18-0.29,0.33-0.37c0.14-0.09,0.31-0.13,0.5-0.13
			c0.24,0,0.43,0.07,0.59,0.21c0.16,0.14,0.24,0.33,0.25,0.55h-0.34c-0.01-0.14-0.06-0.25-0.16-0.34c-0.09-0.09-0.21-0.13-0.34-0.13
			c-0.18,0-0.33,0.07-0.43,0.2c-0.1,0.13-0.15,0.32-0.15,0.57v0.07c0,0.24,0.05,0.43,0.15,0.56
			C110.39,313.13,110.54,313.19,110.72,313.19z M112.36,313.45H112v-2.11h0.36V313.45z M111.97,310.77c0-0.06,0.02-0.11,0.05-0.15
			c0.04-0.04,0.09-0.06,0.16-0.06c0.07,0,0.12,0.02,0.16,0.06c0.04,0.04,0.05,0.09,0.05,0.15c0,0.06-0.02,0.11-0.05,0.15
			c-0.04,0.04-0.09,0.06-0.16,0.06c-0.07,0-0.12-0.02-0.16-0.06C111.99,310.88,111.97,310.83,111.97,310.77z M112.85,312.37
			c0-0.21,0.04-0.39,0.12-0.56c0.08-0.16,0.2-0.29,0.34-0.38c0.15-0.09,0.31-0.13,0.5-0.13c0.29,0,0.52,0.1,0.7,0.3
			c0.18,0.2,0.27,0.46,0.27,0.8v0.03c0,0.21-0.04,0.39-0.12,0.55c-0.08,0.16-0.19,0.29-0.34,0.38c-0.14,0.09-0.31,0.14-0.5,0.14
			c-0.29,0-0.52-0.1-0.7-0.3c-0.18-0.2-0.27-0.46-0.27-0.79V312.37z M113.21,312.41c0,0.23,0.05,0.42,0.16,0.56
			c0.11,0.14,0.26,0.21,0.44,0.21c0.18,0,0.33-0.07,0.44-0.21c0.11-0.14,0.16-0.35,0.16-0.6c0-0.23-0.05-0.42-0.17-0.56
			c-0.11-0.14-0.25-0.22-0.44-0.22c-0.18,0-0.32,0.07-0.43,0.21S113.21,312.15,113.21,312.41z M113.97,310.45h0.44l-0.52,0.57h-0.29
			L113.97,310.45z M115.56,311.33l0.01,0.27c0.16-0.2,0.37-0.3,0.63-0.3c0.45,0,0.67,0.25,0.68,0.76v1.4h-0.36v-1.4
			c0-0.15-0.04-0.26-0.1-0.34c-0.07-0.07-0.17-0.11-0.32-0.11c-0.12,0-0.22,0.03-0.31,0.09c-0.09,0.06-0.16,0.15-0.21,0.25v1.51
			h-0.36v-2.11H115.56z M117.42,313.26c0-0.06,0.02-0.11,0.05-0.16c0.04-0.04,0.09-0.06,0.17-0.06c0.07,0,0.13,0.02,0.17,0.06
			c0.04,0.04,0.06,0.09,0.06,0.16c0,0.06-0.02,0.11-0.06,0.15c-0.04,0.04-0.09,0.06-0.17,0.06c-0.08,0-0.13-0.02-0.17-0.06
			S117.42,313.32,117.42,313.26z M117.42,311.53c0-0.06,0.02-0.11,0.05-0.16c0.04-0.04,0.09-0.06,0.17-0.06
			c0.08,0,0.13,0.02,0.17,0.06c0.04,0.04,0.06,0.09,0.06,0.16c0,0.06-0.02,0.11-0.06,0.15c-0.04,0.04-0.09,0.06-0.17,0.06
			c-0.07,0-0.13-0.02-0.17-0.06C117.44,311.64,117.42,311.59,117.42,311.53z M119.88,311.85h0.27c0.17,0,0.3-0.05,0.4-0.13
			c0.1-0.09,0.15-0.21,0.15-0.35c0-0.33-0.17-0.5-0.5-0.5c-0.16,0-0.28,0.05-0.38,0.14c-0.09,0.09-0.14,0.21-0.14,0.35h-0.36
			c0-0.23,0.08-0.41,0.25-0.56c0.17-0.15,0.38-0.23,0.63-0.23c0.27,0,0.48,0.07,0.63,0.21s0.23,0.34,0.23,0.59
			c0,0.12-0.04,0.24-0.12,0.36c-0.08,0.12-0.19,0.2-0.33,0.26c0.16,0.05,0.28,0.13,0.36,0.25c0.09,0.12,0.13,0.26,0.13,0.42
			c0,0.26-0.08,0.46-0.25,0.61c-0.17,0.15-0.38,0.23-0.65,0.23c-0.27,0-0.48-0.07-0.65-0.22c-0.17-0.14-0.25-0.33-0.25-0.57h0.36
			c0,0.15,0.05,0.27,0.15,0.36c0.1,0.09,0.23,0.13,0.39,0.13c0.18,0,0.31-0.04,0.4-0.14c0.09-0.09,0.14-0.22,0.14-0.39
			c0-0.17-0.05-0.29-0.15-0.38c-0.1-0.09-0.25-0.13-0.44-0.14h-0.27V311.85z M121.77,312.02l0.14-1.42h1.46v0.33h-1.15l-0.09,0.78
			c0.14-0.08,0.3-0.12,0.47-0.12c0.26,0,0.46,0.09,0.62,0.26c0.15,0.17,0.23,0.4,0.23,0.69c0,0.29-0.08,0.52-0.24,0.69
			c-0.16,0.17-0.38,0.25-0.66,0.25c-0.25,0-0.46-0.07-0.62-0.21c-0.16-0.14-0.25-0.33-0.27-0.58h0.34c0.02,0.16,0.08,0.29,0.17,0.37
			c0.09,0.08,0.22,0.12,0.37,0.12c0.17,0,0.3-0.06,0.39-0.17c0.1-0.11,0.15-0.27,0.15-0.47c0-0.19-0.05-0.34-0.16-0.46
			c-0.1-0.12-0.24-0.17-0.41-0.17c-0.16,0-0.28,0.03-0.37,0.1l-0.09,0.08L121.77,312.02z M125.37,312.49h0.4v0.29h-0.4v0.66h-0.36
			v-0.66h-1.3v-0.21l1.27-1.97h0.39V312.49z M124.12,312.49h0.89v-1.4l-0.04,0.08L124.12,312.49z"/>
		<line class="st15" x1="140" y1="165.3" x2="212" y2="165.3"/>
		<line class="st16" x1="221" y1="222.3" x2="241" y2="222.3"/>
		<line class="st16" x1="221" y1="270.3" x2="241" y2="270.3"/>
		<line class="st16" x1="221" y1="314.3" x2="241" y2="314.3"/>
		<path d="M160.72,163.45h-3.12v-0.31l1.71-1.93c0.28-0.33,0.48-0.6,0.59-0.81c0.11-0.21,0.16-0.42,0.16-0.62
			c0-0.32-0.09-0.56-0.28-0.75c-0.18-0.18-0.44-0.28-0.76-0.28c-0.33,0-0.61,0.11-0.81,0.32c-0.21,0.21-0.31,0.49-0.31,0.83h-0.41
			c0-0.28,0.06-0.54,0.19-0.77c0.13-0.23,0.31-0.41,0.54-0.54c0.23-0.13,0.5-0.2,0.8-0.2c0.46,0,0.81,0.12,1.07,0.36
			c0.26,0.24,0.39,0.57,0.39,0.98c0,0.23-0.07,0.49-0.22,0.76c-0.14,0.27-0.4,0.62-0.76,1.03l-1.39,1.57h2.62V163.45z
			 M164.04,161.14c-0.15,0.21-0.33,0.38-0.54,0.5c-0.22,0.12-0.45,0.17-0.71,0.17c-0.28,0-0.53-0.07-0.75-0.22
			c-0.22-0.15-0.38-0.35-0.5-0.6c-0.12-0.26-0.18-0.54-0.18-0.84c0-0.33,0.06-0.63,0.19-0.9c0.13-0.27,0.3-0.48,0.53-0.62
			c0.23-0.15,0.49-0.23,0.79-0.23c0.5,0,0.89,0.18,1.16,0.53c0.28,0.35,0.42,0.85,0.42,1.49v0.37c0,0.9-0.19,1.57-0.57,2.02
			c-0.38,0.45-0.97,0.68-1.75,0.68h-0.08l0-0.36h0.14c0.6-0.01,1.05-0.18,1.36-0.51C163.86,162.3,164.02,161.8,164.04,161.14z
			 M162.84,161.47c0.27,0,0.52-0.08,0.73-0.24c0.22-0.16,0.37-0.38,0.46-0.64v-0.24c0-0.51-0.11-0.9-0.32-1.18
			c-0.21-0.28-0.49-0.42-0.85-0.42c-0.32,0-0.59,0.13-0.8,0.39c-0.21,0.26-0.31,0.59-0.31,0.99c0,0.38,0.1,0.7,0.3,0.95
			C162.26,161.34,162.52,161.47,162.84,161.47z M166.97,161.56c0-0.57,0.13-1.03,0.38-1.37c0.26-0.34,0.61-0.51,1.05-0.51
			c0.5,0,0.88,0.2,1.14,0.59v-2.07h0.41v5.25h-0.38l-0.02-0.49c-0.26,0.37-0.65,0.56-1.16,0.56c-0.43,0-0.77-0.17-1.03-0.51
			c-0.26-0.34-0.39-0.81-0.39-1.39V161.56z M167.38,161.64c0,0.47,0.09,0.85,0.28,1.12c0.19,0.27,0.46,0.41,0.8,0.41
			c0.5,0,0.86-0.22,1.07-0.67v-1.74c-0.21-0.48-0.57-0.72-1.07-0.72c-0.35,0-0.61,0.13-0.8,0.41
			C167.48,160.71,167.38,161.11,167.38,161.64z M172.46,163.52c-0.31,0-0.6-0.08-0.85-0.23c-0.25-0.15-0.45-0.37-0.59-0.65
			c-0.14-0.28-0.21-0.59-0.21-0.93v-0.15c0-0.36,0.07-0.68,0.21-0.96c0.14-0.28,0.33-0.51,0.58-0.67c0.25-0.16,0.51-0.25,0.8-0.25
			c0.45,0,0.8,0.15,1.07,0.46c0.26,0.3,0.4,0.72,0.4,1.25v0.23h-2.64v0.08c0,0.42,0.12,0.77,0.36,1.05
			c0.24,0.28,0.54,0.42,0.91,0.42c0.22,0,0.41-0.04,0.58-0.12c0.17-0.08,0.32-0.21,0.46-0.38l0.26,0.2
			C173.47,163.3,173.03,163.52,172.46,163.52z M172.38,160.03c-0.31,0-0.57,0.11-0.78,0.34c-0.21,0.23-0.34,0.53-0.38,0.91h2.22
			v-0.04c-0.01-0.36-0.11-0.65-0.3-0.87C172.94,160.14,172.69,160.03,172.38,160.03z M178.64,158.47h0.42v3.5
			c0,0.47-0.14,0.85-0.41,1.13c-0.27,0.28-0.64,0.42-1.09,0.42c-0.48,0-0.85-0.13-1.11-0.38c-0.26-0.25-0.39-0.61-0.39-1.06h0.42
			c0,0.36,0.09,0.63,0.28,0.81c0.19,0.18,0.46,0.27,0.8,0.27c0.32,0,0.57-0.1,0.77-0.32c0.2-0.21,0.3-0.49,0.31-0.85V158.47z
			 M182.58,162.98c-0.25,0.36-0.64,0.54-1.18,0.54c-0.39,0-0.69-0.11-0.9-0.34c-0.21-0.23-0.31-0.57-0.32-1.02v-2.41h0.41v2.35
			c0,0.7,0.29,1.06,0.86,1.06c0.59,0,0.97-0.24,1.12-0.74v-2.68h0.41v3.7h-0.4L182.58,162.98z M184.44,159.75l0.01,0.63
			c0.14-0.23,0.31-0.4,0.52-0.52c0.21-0.12,0.44-0.18,0.69-0.18c0.4,0,0.69,0.11,0.89,0.33c0.19,0.22,0.29,0.56,0.29,1.01v2.43
			h-0.41v-2.43c0-0.33-0.07-0.58-0.21-0.74c-0.14-0.16-0.36-0.24-0.66-0.24c-0.25,0-0.48,0.08-0.67,0.24
			c-0.19,0.16-0.34,0.37-0.43,0.64v2.53h-0.41v-3.7H184.44z M188.35,163.45h-0.41v-3.7h0.41V163.45z M187.87,158.68
			c0-0.08,0.03-0.14,0.08-0.19c0.05-0.06,0.12-0.08,0.21-0.08c0.09,0,0.15,0.03,0.21,0.08c0.05,0.05,0.08,0.12,0.08,0.19
			c0,0.08-0.03,0.14-0.08,0.2c-0.05,0.05-0.12,0.08-0.21,0.08c-0.09,0-0.16-0.03-0.21-0.08
			C187.9,158.82,187.87,158.76,187.87,158.68z M189.24,161.54c0-0.35,0.07-0.67,0.21-0.96c0.14-0.29,0.33-0.51,0.59-0.66
			c0.25-0.16,0.54-0.24,0.86-0.24c0.49,0,0.89,0.17,1.2,0.52c0.3,0.34,0.46,0.8,0.46,1.37v0.09c0,0.36-0.07,0.68-0.21,0.97
			c-0.14,0.29-0.33,0.51-0.58,0.66c-0.25,0.15-0.54,0.23-0.86,0.23c-0.49,0-0.89-0.17-1.2-0.52c-0.3-0.35-0.46-0.8-0.46-1.37V161.54
			z M189.65,161.66c0,0.44,0.11,0.81,0.34,1.09c0.23,0.28,0.53,0.42,0.9,0.42c0.37,0,0.67-0.14,0.9-0.42
			c0.23-0.28,0.34-0.66,0.34-1.12v-0.08c0-0.28-0.05-0.54-0.16-0.78c-0.1-0.23-0.25-0.42-0.44-0.54c-0.19-0.13-0.41-0.19-0.65-0.19
			c-0.36,0-0.66,0.14-0.89,0.43c-0.23,0.29-0.34,0.66-0.34,1.12V161.66z"/>
		<path d="M108.31,211.86c-0.15,0.21-0.38,0.37-0.69,0.49c-0.31,0.12-0.66,0.17-1.04,0.17c-0.39,0-0.74-0.09-1.04-0.28
			c-0.3-0.19-0.54-0.45-0.7-0.79c-0.17-0.34-0.25-0.73-0.25-1.18v-0.63c0-0.69,0.18-1.24,0.52-1.63c0.35-0.4,0.82-0.6,1.41-0.6
			c0.51,0,0.92,0.13,1.24,0.39c0.31,0.26,0.5,0.62,0.56,1.08h-0.42c-0.06-0.37-0.21-0.64-0.45-0.83c-0.23-0.19-0.54-0.28-0.92-0.28
			c-0.46,0-0.83,0.17-1.1,0.5c-0.27,0.33-0.41,0.8-0.41,1.4v0.59c0,0.38,0.06,0.71,0.19,1.01c0.13,0.29,0.32,0.51,0.55,0.67
			c0.24,0.16,0.52,0.24,0.83,0.24c0.36,0,0.67-0.06,0.93-0.17c0.17-0.08,0.29-0.16,0.38-0.26v-1.29h-1.34v-0.36h1.76V211.86z
			 M112.26,210.06h-2.33v2.03h2.68v0.35h-3.1v-4.98h3.08v0.36h-2.66v1.88h2.33V210.06z M117.2,212.45h-0.42l-2.86-4.26v4.26h-0.42
			v-4.98h0.42l2.86,4.26v-4.26h0.42V212.45z M121.74,207.83h-1.71v4.62h-0.42v-4.62h-1.7v-0.36h3.83V207.83z M125.29,210.06h-2.33
			v2.03h2.68v0.35h-3.1v-4.98h3.08v0.36h-2.66v1.88h2.33V210.06z"/>
		<path d="M108.4,259.45h-0.42v-2.39h-2.84v2.39h-0.42v-4.98h0.42v2.24h2.84v-2.24h0.42V259.45z M113.35,257.23
			c0,0.46-0.08,0.86-0.24,1.21c-0.16,0.35-0.38,0.61-0.68,0.8c-0.29,0.19-0.63,0.28-1.02,0.28c-0.58,0-1.05-0.21-1.41-0.62
			c-0.36-0.42-0.54-0.98-0.54-1.68v-0.51c0-0.45,0.08-0.85,0.24-1.2c0.16-0.35,0.39-0.62,0.68-0.81c0.29-0.19,0.63-0.28,1.01-0.28
			s0.72,0.09,1.01,0.28c0.29,0.19,0.52,0.45,0.68,0.78c0.16,0.34,0.24,0.73,0.25,1.17V257.23z M112.92,256.69
			c0-0.6-0.13-1.07-0.41-1.41c-0.27-0.34-0.64-0.51-1.11-0.51c-0.46,0-0.83,0.17-1.11,0.51c-0.27,0.34-0.41,0.81-0.41,1.42v0.52
			c0,0.59,0.14,1.06,0.41,1.4c0.27,0.34,0.65,0.52,1.11,0.52c0.48,0,0.85-0.17,1.11-0.51c0.27-0.34,0.4-0.82,0.4-1.42V256.69z
			 M114.83,259.09h2.46v0.35h-2.88v-4.98h0.42V259.09z M120.85,258.05h-2.26l-0.51,1.39h-0.44l1.88-4.98h0.4l1.88,4.98h-0.44
			L120.85,258.05z M118.72,257.69h2l-1-2.71L118.72,257.69z"/>
		<path d="M108.2,301.9c-0.06,0.52-0.24,0.92-0.56,1.2c-0.32,0.28-0.74,0.42-1.27,0.42c-0.37,0-0.7-0.09-0.98-0.28
			c-0.28-0.18-0.5-0.45-0.66-0.78c-0.16-0.34-0.23-0.73-0.24-1.16v-0.65c0-0.44,0.08-0.83,0.23-1.18c0.15-0.34,0.38-0.6,0.67-0.79
			c0.29-0.19,0.63-0.28,1.01-0.28c0.53,0,0.95,0.15,1.26,0.43c0.31,0.29,0.49,0.68,0.54,1.19h-0.42c-0.1-0.85-0.56-1.27-1.38-1.27
			c-0.45,0-0.81,0.17-1.08,0.51c-0.27,0.34-0.4,0.8-0.4,1.4v0.61c0,0.57,0.13,1.03,0.39,1.37c0.26,0.34,0.61,0.51,1.06,0.51
			c0.44,0,0.77-0.11,0.99-0.32c0.22-0.21,0.36-0.53,0.41-0.95H108.2z M111.91,302.05h-2.26l-0.51,1.39h-0.44l1.88-4.98h0.4
			l1.88,4.98h-0.44L111.91,302.05z M109.78,301.69h2l-1-2.71L109.78,301.69z M115.46,301.38h-1.45v2.07h-0.42v-4.98h1.62
			c0.53,0,0.95,0.13,1.24,0.39c0.3,0.26,0.45,0.62,0.45,1.08c0,0.32-0.09,0.6-0.28,0.84c-0.19,0.24-0.44,0.41-0.75,0.51l1.24,2.12
			v0.04h-0.45L115.46,301.38z M114.02,301.02h1.29c0.35,0,0.64-0.1,0.85-0.3c0.21-0.2,0.32-0.46,0.32-0.78
			c0-0.35-0.11-0.62-0.33-0.82c-0.22-0.19-0.54-0.29-0.94-0.29h-1.19V301.02z M120.73,302.05h-2.26l-0.51,1.39h-0.44l1.88-4.98h0.4
			l1.88,4.98h-0.44L120.73,302.05z M118.6,301.69h2l-1-2.71L118.6,301.69z M125.24,302.22c0-0.27-0.1-0.49-0.29-0.65
			c-0.19-0.16-0.55-0.32-1.06-0.46c-0.52-0.15-0.89-0.3-1.13-0.48c-0.34-0.24-0.51-0.56-0.51-0.95c0-0.38,0.16-0.69,0.47-0.93
			c0.32-0.24,0.72-0.36,1.2-0.36c0.33,0,0.63,0.06,0.89,0.19c0.26,0.13,0.46,0.31,0.61,0.53c0.14,0.23,0.21,0.48,0.21,0.76h-0.42
			c0-0.34-0.12-0.61-0.35-0.82c-0.23-0.21-0.55-0.31-0.94-0.31c-0.38,0-0.68,0.08-0.91,0.26c-0.23,0.17-0.34,0.39-0.34,0.66
			c0,0.25,0.1,0.46,0.3,0.62c0.2,0.16,0.53,0.3,0.97,0.42c0.45,0.12,0.78,0.25,1.01,0.38c0.23,0.13,0.4,0.29,0.52,0.47
			c0.12,0.18,0.17,0.4,0.17,0.65c0,0.39-0.16,0.71-0.47,0.94c-0.31,0.24-0.72,0.35-1.24,0.35c-0.35,0-0.67-0.06-0.97-0.19
			c-0.29-0.12-0.51-0.3-0.67-0.53c-0.15-0.23-0.22-0.48-0.22-0.78h0.42c0,0.35,0.13,0.63,0.39,0.83c0.26,0.2,0.61,0.3,1.05,0.3
			c0.39,0,0.7-0.09,0.93-0.26C125.12,302.73,125.24,302.51,125.24,302.22z"/>
		<path class="st13" d="M216.68,217.45h-4.38c-0.08,0-0.16,0.05-0.22,0.15c-0.06,0.09-0.09,0.22-0.09,0.35s0.03,0.26,0.09,0.35
			c0.06,0.09,0.14,0.15,0.22,0.15h4.38c0.08,0,0.16-0.05,0.22-0.15c0.06-0.09,0.09-0.22,0.09-0.35s-0.03-0.26-0.09-0.35
			C216.85,217.5,216.77,217.45,216.68,217.45z"/>
		<path class="st13" d="M216.68,263.45h-4.38c-0.08,0-0.16,0.05-0.22,0.15c-0.06,0.09-0.09,0.22-0.09,0.35s0.03,0.26,0.09,0.35
			c0.06,0.09,0.14,0.15,0.22,0.15h4.38c0.08,0,0.16-0.05,0.22-0.15c0.06-0.09,0.09-0.22,0.09-0.35s-0.03-0.26-0.09-0.35
			C216.85,263.5,216.77,263.45,216.68,263.45z"/>
		<path class="st17" d="M232.57,217.32c0,0.74-0.13,1.29-0.38,1.65c-0.25,0.36-0.65,0.54-1.19,0.54c-0.53,0-0.92-0.17-1.18-0.53
			c-0.26-0.35-0.39-0.88-0.4-1.58v-0.84c0-0.73,0.13-1.28,0.38-1.63c0.25-0.36,0.65-0.53,1.19-0.53c0.53,0,0.93,0.17,1.18,0.52
			c0.25,0.34,0.38,0.87,0.39,1.59V217.32z M231.93,216.46c0-0.54-0.08-0.93-0.23-1.17c-0.15-0.25-0.39-0.37-0.71-0.37
			c-0.32,0-0.56,0.12-0.71,0.36c-0.15,0.24-0.22,0.62-0.23,1.12v1.01c0,0.54,0.08,0.93,0.23,1.19c0.16,0.26,0.4,0.38,0.71,0.38
			c0.31,0,0.54-0.12,0.69-0.36c0.15-0.24,0.23-0.62,0.24-1.14V216.46z"/>
		<path class="st17" d="M232.57,265.32c0,0.74-0.13,1.29-0.38,1.65c-0.25,0.36-0.65,0.54-1.19,0.54c-0.53,0-0.92-0.17-1.18-0.53
			c-0.26-0.35-0.39-0.88-0.4-1.58v-0.84c0-0.73,0.13-1.28,0.38-1.63c0.25-0.36,0.65-0.53,1.19-0.53c0.53,0,0.93,0.17,1.18,0.52
			c0.25,0.34,0.38,0.87,0.39,1.59V265.32z M231.93,264.46c0-0.54-0.08-0.92-0.23-1.17c-0.15-0.25-0.39-0.37-0.71-0.37
			c-0.32,0-0.56,0.12-0.71,0.36c-0.15,0.24-0.22,0.62-0.23,1.12v1.01c0,0.54,0.08,0.93,0.23,1.19c0.16,0.26,0.4,0.38,0.71,0.38
			c0.31,0,0.54-0.12,0.69-0.36c0.15-0.24,0.23-0.62,0.24-1.14V264.46z"/>
		<path class="st17" d="M232.57,309.32c0,0.74-0.13,1.29-0.38,1.65c-0.25,0.36-0.65,0.54-1.19,0.54c-0.53,0-0.92-0.17-1.18-0.53
			c-0.26-0.35-0.39-0.88-0.4-1.58v-0.84c0-0.73,0.13-1.27,0.38-1.63c0.25-0.36,0.65-0.53,1.19-0.53c0.53,0,0.93,0.17,1.18,0.52
			c0.25,0.34,0.38,0.87,0.39,1.59V309.32z M231.93,308.46c0-0.54-0.08-0.92-0.23-1.17c-0.15-0.25-0.39-0.37-0.71-0.37
			c-0.32,0-0.56,0.12-0.71,0.36c-0.15,0.24-0.22,0.62-0.23,1.12v1.01c0,0.54,0.08,0.93,0.23,1.19c0.16,0.26,0.4,0.38,0.71,0.38
			c0.31,0,0.54-0.12,0.69-0.36c0.15-0.24,0.23-0.62,0.24-1.14V308.46z"/>
		<path class="st13" d="M216.68,309.45h-4.38c-0.08,0-0.16,0.05-0.22,0.15c-0.06,0.09-0.09,0.22-0.09,0.35s0.03,0.26,0.09,0.35
			c0.06,0.09,0.14,0.15,0.22,0.15h4.38c0.08,0,0.16-0.05,0.22-0.15c0.06-0.09,0.09-0.22,0.09-0.35s-0.03-0.26-0.09-0.35
			C216.85,309.5,216.77,309.45,216.68,309.45z"/>
		<circle class="st18" cx="231.5" cy="350.95" r="10.5"/>
		<path class="st6" d="M235.86,355.6l-1.85-1.84c0.72-0.9,1.07-2.04,0.97-3.18c-0.09-1.15-0.62-2.21-1.48-2.98
			c-0.86-0.77-1.98-1.18-3.12-1.15c-1.15,0.03-2.24,0.5-3.06,1.32c-0.81,0.81-1.28,1.91-1.32,3.06c-0.03,1.15,0.38,2.27,1.15,3.13
			c0.77,0.86,1.83,1.39,2.98,1.48c1.15,0.1,2.28-0.25,3.18-0.97l1.84,1.84c0.05,0.05,0.1,0.08,0.16,0.11
			c0.06,0.02,0.13,0.04,0.19,0.04s0.13-0.01,0.19-0.04c0.06-0.03,0.12-0.06,0.16-0.11c0.09-0.09,0.14-0.22,0.14-0.35
			C236,355.82,235.95,355.7,235.86,355.6z M230.5,354.46c-0.69,0-1.37-0.21-1.94-0.59c-0.58-0.39-1.02-0.93-1.29-1.57
			c-0.27-0.64-0.33-1.34-0.2-2.02c0.13-0.68,0.47-1.3,0.96-1.79c0.49-0.49,1.11-0.82,1.79-0.96c0.68-0.14,1.38-0.07,2.02,0.2
			c0.64,0.26,1.19,0.71,1.57,1.29c0.39,0.58,0.59,1.25,0.59,1.94c0,0.93-0.37,1.82-1.02,2.48
			C232.32,354.09,231.43,354.46,230.5,354.46z"/>
	</g>
</g>
</svg>
