<?xml version="1.0" encoding="utf-8"?>
<!-- Generator: Adobe Illustrator 24.3.0, SVG Export Plug-In . SVG Version: 6.00 Build 0)  -->
<svg version="1.1" id="Capa_1" xmlns="http://www.w3.org/2000/svg" xmlns:xlink="http://www.w3.org/1999/xlink" x="0px" y="0px"
	 viewBox="0 0 342.99 473.39" style="enable-background:new 0 0 342.99 473.39;" xml:space="preserve">
<style type="text/css">
	.st0{clip-path:url(#SVGID_2_);}
	.st1{fill:#3A3A3A;}
	.st2{fill:#FAFAFA;}
	.st3{fill:#3C4FA2;}
	.st4{opacity:0.35;fill:none;stroke:#000000;enable-background:new    ;}
	.st5{opacity:0.4;fill:#FFFFFF;enable-background:new    ;}
	.st6{fill:#FFFFFF;}
	.st7{fill-rule:evenodd;clip-rule:evenodd;fill:#FFFFFF;}
	.st8{opacity:0.2;fill:none;stroke:#000000;stroke-width:0.5;enable-background:new    ;}
	.st9{fill:#8D8D8D;}
</style>
<g>
	<defs>
		<rect id="SVGID_1_" x="0" y="18.56" width="343" height="478"/>
	</defs>
	<clipPath id="SVGID_2_">
		<use xlink:href="#SVGID_1_"  style="overflow:visible;"/>
	</clipPath>
	<g class="st0">
		<g>
			<path class="st1" d="M236.36,59.89H106.63c-15.01,0-27.17,11.05-27.17,24.67v284.33c0,13.62,12.16,24.67,27.17,24.67h129.73
				c15.01,0,27.17-11.05,27.17-24.67V84.56C263.53,70.93,251.37,59.89,236.36,59.89z"/>
		</g>
		<path class="st2" d="M231.61,70.59H110.3c-10.5,0-19.02,7.73-19.02,17.27v277.45c0,9.54,8.51,17.27,19.02,17.27h121.31
			c10.5,0,19.02-7.73,19.02-17.27V87.86C250.62,78.32,242.11,70.59,231.61,70.59z"/>
		<path class="st3" d="M91,88.9c0-0.89,0.07-1.78,0.2-2.66l0.31-2.01c0.32-2.07,1.18-4.03,2.49-5.66c1.95-2.92,4.79-5.14,8.09-6.32
			l1.91-0.68c1.62,0.65,2.96,1.83,3.81,3.35l1.93,3.47c2.68,4.83,7.49,8.11,12.96,8.86l2.3,0.31h22.5H167h46.5l10.07-1.29
			c1.11-0.14,2.21-0.47,3.22-0.96c4.28-2.08,7.61-5.77,9.19-10.26c0.34-0.98,0.95-1.83,1.76-2.48l0.64-0.51
			c0.38-0.31,0.91-0.36,1.35-0.14l0.27,0.13c4.54,2.27,8.19,6.01,10.35,10.6l0.66,1.4v31.5H91V88.9z"/>
		<path class="st4" d="M237.5,91.23c0-0.64,0.52-1.17,1.17-1.17h2.09c0.65,0,1.17,0.52,1.17,1.17c0,0.64-0.52,1.17-1.17,1.17h-2.09
			C238.02,92.4,237.5,91.88,237.5,91.23z"/>
		<path class="st5" d="M242.67,90.64v1.18c0.2-0.1,0.33-0.33,0.33-0.59C243,90.98,242.87,90.74,242.67,90.64z"/>
		<path class="st6" d="M237.49,91.23c0-0.6,0.48-1.08,1.08-1.08h2.28c0.6,0,1.08,0.48,1.08,1.08c0,0.6-0.48,1.08-1.08,1.08h-2.28
			C237.97,92.31,237.49,91.83,237.49,91.23z"/>
		<path class="st7" d="M233.87,90.23c0.55,0,1.07,0.25,1.47,0.7c0.03,0.03,0.08,0.03,0.11,0l0.28-0.34
			c0.01-0.02,0.02-0.04,0.02-0.07c0-0.03-0.01-0.05-0.02-0.07c-1.04-1.19-2.68-1.19-3.72,0c-0.02,0.02-0.02,0.04-0.02,0.07
			c0,0.03,0.01,0.05,0.02,0.07l0.29,0.34c0.03,0.04,0.08,0.04,0.11,0C232.8,90.49,233.32,90.23,233.87,90.23z M233.87,91.35
			c0.3,0,0.59,0.13,0.81,0.37c0.03,0.03,0.08,0.03,0.11,0l0.29-0.34c0.01-0.02,0.02-0.04,0.02-0.07s-0.01-0.05-0.02-0.07
			c-0.68-0.75-1.73-0.75-2.41,0c-0.01,0.02-0.02,0.04-0.02,0.07s0.01,0.05,0.02,0.07l0.29,0.34c0.03,0.04,0.08,0.04,0.11,0
			C233.28,91.48,233.57,91.35,233.87,91.35z M234.44,92.1c0,0.03-0.01,0.05-0.02,0.07l-0.49,0.59c-0.01,0.02-0.03,0.03-0.06,0.03
			c-0.02,0-0.04-0.01-0.05-0.03l-0.49-0.59c-0.02-0.02-0.02-0.04-0.02-0.07c0-0.03,0.01-0.05,0.03-0.07c0.32-0.32,0.78-0.32,1.09,0
			C234.43,92.05,234.44,92.08,234.44,92.1z"/>
		<path class="st7" d="M230.5,89.66h-0.25c-0.14,0-0.25,0.13-0.25,0.29v2.55c0,0.16,0.11,0.29,0.25,0.29h0.25
			c0.14,0,0.25-0.13,0.25-0.29v-2.55C230.75,89.79,230.64,89.66,230.5,89.66z M229.1,90.35h0.25c0.14,0,0.25,0.13,0.25,0.29v1.86
			c0,0.16-0.11,0.29-0.25,0.29h-0.25c-0.14,0-0.25-0.13-0.25-0.29v-1.86C228.86,90.48,228.97,90.35,229.1,90.35z M228.2,91.04h-0.25
			c-0.14,0-0.25,0.13-0.25,0.29v1.18c0,0.16,0.11,0.29,0.25,0.29h0.25c0.14,0,0.25-0.13,0.25-0.29v-1.18
			C228.44,91.17,228.33,91.04,228.2,91.04z M227.05,91.63h-0.25c-0.14,0-0.25,0.13-0.25,0.29v0.59c0,0.16,0.11,0.29,0.25,0.29h0.25
			c0.14,0,0.25-0.13,0.25-0.29v-0.59C227.29,91.76,227.18,91.63,227.05,91.63z"/>
		<path class="st6" d="M98.08,92.56c0.76,0,1.21-0.57,1.21-1.53c0-0.36-0.07-0.67-0.21-0.9c-0.2-0.37-0.54-0.56-0.98-0.56
			c-0.65,0-1.1,0.42-1.1,1c0,0.55,0.41,0.95,0.98,0.95c0.35,0,0.63-0.16,0.77-0.43h0.01c0,0,0.01,0,0.01,0c0,0,0.02,0,0.02,0
			c0,0.65-0.26,1.04-0.69,1.04c-0.26,0-0.45-0.13-0.52-0.35h-0.53C97.13,92.26,97.54,92.56,98.08,92.56z M98.1,91.11
			c-0.34,0-0.59-0.23-0.59-0.56c0-0.32,0.26-0.56,0.59-0.56c0.33,0,0.59,0.25,0.59,0.57C98.69,90.88,98.44,91.11,98.1,91.11z"/>
		<path class="st6" d="M100.16,92.54c0.2,0,0.33-0.13,0.33-0.31c0-0.18-0.13-0.31-0.33-0.31c-0.19,0-0.33,0.13-0.33,0.31
			C99.83,92.4,99.97,92.54,100.16,92.54z M100.16,91.05c0.2,0,0.33-0.13,0.33-0.31c0-0.18-0.13-0.31-0.33-0.31
			c-0.19,0-0.33,0.13-0.33,0.31C99.83,90.92,99.97,91.05,100.16,91.05z"/>
		<path class="st6" d="M102.42,92.49h0.51v-0.53h0.4v-0.43h-0.4v-1.89h-0.75c-0.53,0.76-0.94,1.4-1.21,1.87v0.46h1.45V92.49z
			 M101.46,91.51c0.35-0.59,0.65-1.06,0.94-1.46h0.03v1.49h-0.97V91.51z"/>
		<path class="st6" d="M104.46,92.49H105v-2.86h-0.53l-0.78,0.52v0.49l0.74-0.5h0.04V92.49z"/>
		<path class="st6" d="M224.17,109.31h1.76v0.25h-2.06v-3.55h0.3V109.31z M228.97,107.98c0,0.33-0.06,0.61-0.17,0.86
			c-0.11,0.25-0.27,0.44-0.48,0.57c-0.21,0.13-0.45,0.2-0.73,0.2c-0.41,0-0.75-0.15-1.01-0.44c-0.26-0.3-0.38-0.7-0.38-1.2v-0.37
			c0-0.32,0.06-0.61,0.17-0.86c0.12-0.25,0.28-0.44,0.49-0.58c0.21-0.14,0.45-0.2,0.73-0.2c0.27,0,0.51,0.07,0.72,0.2
			c0.21,0.13,0.37,0.32,0.49,0.56c0.11,0.24,0.17,0.52,0.18,0.84V107.98z M228.67,107.59c0-0.43-0.1-0.76-0.29-1.01
			s-0.46-0.36-0.8-0.36c-0.33,0-0.59,0.12-0.79,0.37c-0.2,0.24-0.29,0.58-0.29,1.02v0.37c0,0.42,0.1,0.76,0.29,1
			c0.19,0.25,0.46,0.37,0.8,0.37c0.34,0,0.61-0.12,0.8-0.36c0.19-0.24,0.29-0.58,0.29-1.02V107.59z M232.29,109.14
			c-0.1,0.15-0.27,0.26-0.49,0.35c-0.22,0.08-0.47,0.12-0.74,0.12c-0.28,0-0.53-0.07-0.74-0.2c-0.22-0.13-0.38-0.32-0.5-0.57
			c-0.12-0.24-0.18-0.52-0.18-0.84v-0.45c0-0.49,0.12-0.88,0.37-1.17c0.25-0.29,0.58-0.43,1-0.43c0.37,0,0.66,0.09,0.88,0.28
			c0.22,0.19,0.36,0.44,0.4,0.77h-0.3c-0.04-0.26-0.15-0.46-0.32-0.59c-0.17-0.14-0.39-0.2-0.66-0.2c-0.33,0-0.6,0.12-0.79,0.35
			s-0.29,0.57-0.29,1v0.42c0,0.27,0.04,0.51,0.14,0.72c0.09,0.21,0.22,0.37,0.4,0.48c0.17,0.11,0.37,0.17,0.59,0.17
			c0.26,0,0.48-0.04,0.67-0.12c0.12-0.05,0.21-0.12,0.27-0.19v-0.92h-0.95v-0.25h1.25V109.14z M233.51,109.56h-0.3v-3.55h0.3V109.56
			z M237.12,109.56h-0.3l-2.04-3.04v3.04h-0.3v-3.55h0.3l2.05,3.04v-3.04h0.3V109.56z"/>
		<path class="st1" d="M99.62,70.69V69.1l143.48-0.23v1.85c-0.55,0.03-1.09,0.1-1.62,0.21c-1.27,0.23-2.46,0.77-3.42,1.56
			s-1.67,1.8-2.05,2.93c-1.18,3.51-3.57,6.58-6.82,8.76c-3.25,2.18-7.18,3.35-11.22,3.34h-92.17c-4.13,0.04-8.16-1.15-11.47-3.4
			c-3.31-2.24-5.71-5.41-6.84-9.02C106.15,70.76,99.62,70.69,99.62,70.69z"/>
		<path d="M143.51,141.56h-1.23v-7.11h1.23V141.56z M146.01,136.28l0.03,0.61c0.39-0.47,0.9-0.71,1.54-0.71
			c1.1,0,1.66,0.63,1.68,1.89v3.49h-1.19v-3.42c0-0.34-0.07-0.58-0.22-0.74c-0.14-0.16-0.38-0.24-0.71-0.24
			c-0.48,0-0.84,0.22-1.07,0.65v3.76h-1.19v-5.28H146.01z M151.74,141.56h-1.19v-5.28h1.19V141.56z M150.48,134.91
			c0-0.18,0.06-0.33,0.17-0.45c0.12-0.12,0.28-0.18,0.5-0.18c0.22,0,0.38,0.06,0.5,0.18c0.12,0.12,0.18,0.27,0.18,0.45
			c0,0.18-0.06,0.33-0.18,0.45c-0.12,0.12-0.28,0.18-0.5,0.18c-0.21,0-0.38-0.06-0.5-0.18
			C150.54,135.24,150.48,135.09,150.48,134.91z M155.21,140.71c0.3,0,0.54-0.09,0.74-0.26c0.2-0.17,0.3-0.39,0.31-0.64h1.12
			c-0.01,0.33-0.12,0.64-0.31,0.92c-0.19,0.28-0.45,0.51-0.78,0.67s-0.68,0.25-1.06,0.25c-0.74,0-1.33-0.24-1.76-0.72
			c-0.43-0.48-0.65-1.14-0.65-1.98v-0.12c0-0.8,0.21-1.45,0.65-1.93c0.43-0.49,1.02-0.73,1.76-0.73c0.63,0,1.14,0.18,1.53,0.55
			c0.4,0.36,0.6,0.85,0.62,1.44h-1.12c-0.01-0.3-0.12-0.55-0.31-0.75c-0.19-0.2-0.44-0.29-0.74-0.29c-0.38,0-0.68,0.14-0.89,0.42
			c-0.21,0.28-0.31,0.7-0.32,1.26v0.19c0,0.57,0.1,1,0.31,1.28C154.52,140.57,154.82,140.71,155.21,140.71z M159.53,141.56h-1.19
			v-5.28h1.19V141.56z M158.27,134.91c0-0.18,0.06-0.33,0.17-0.45c0.12-0.12,0.28-0.18,0.5-0.18c0.21,0,0.38,0.06,0.5,0.18
			c0.12,0.12,0.18,0.27,0.18,0.45c0,0.18-0.06,0.33-0.18,0.45c-0.12,0.12-0.28,0.18-0.5,0.18c-0.22,0-0.38-0.06-0.5-0.18
			C158.33,135.24,158.27,135.09,158.27,134.91z M163.99,141.56c-0.05-0.1-0.1-0.26-0.14-0.49c-0.38,0.39-0.84,0.59-1.39,0.59
			c-0.53,0-0.96-0.15-1.3-0.45c-0.34-0.3-0.5-0.68-0.5-1.12c0-0.56,0.21-0.99,0.62-1.29c0.42-0.3,1.02-0.45,1.8-0.45h0.73v-0.35
			c0-0.27-0.08-0.49-0.23-0.65c-0.15-0.17-0.39-0.25-0.7-0.25c-0.27,0-0.49,0.07-0.66,0.21c-0.17,0.13-0.26,0.3-0.26,0.51h-1.19
			c0-0.29,0.1-0.56,0.29-0.81c0.19-0.25,0.45-0.45,0.78-0.6c0.33-0.14,0.7-0.21,1.11-0.21c0.62,0,1.11,0.16,1.48,0.47
			c0.37,0.31,0.56,0.74,0.57,1.31v2.38c0,0.48,0.07,0.86,0.2,1.14v0.08H163.99z M162.68,140.71c0.23,0,0.45-0.06,0.66-0.17
			c0.21-0.11,0.36-0.27,0.47-0.46v-1h-0.64c-0.44,0-0.77,0.08-0.99,0.23c-0.22,0.15-0.33,0.37-0.33,0.65c0,0.23,0.07,0.41,0.22,0.55
			C162.22,140.64,162.43,140.71,162.68,140.71z M172.56,139.73c0-0.31-0.11-0.55-0.33-0.72c-0.22-0.17-0.61-0.34-1.19-0.51
			c-0.57-0.17-1.03-0.36-1.37-0.58c-0.65-0.41-0.97-0.94-0.97-1.59c0-0.57,0.23-1.04,0.7-1.42c0.47-0.37,1.08-0.56,1.82-0.56
			c0.49,0,0.93,0.09,1.32,0.27c0.39,0.18,0.69,0.44,0.91,0.78c0.22,0.34,0.33,0.71,0.33,1.12h-1.23c0-0.37-0.12-0.66-0.35-0.87
			c-0.23-0.21-0.56-0.32-1-0.32c-0.4,0-0.72,0.09-0.94,0.26c-0.22,0.17-0.33,0.41-0.33,0.72c0,0.26,0.12,0.48,0.36,0.65
			c0.24,0.17,0.64,0.34,1.19,0.51c0.55,0.16,1,0.35,1.33,0.56c0.34,0.21,0.58,0.45,0.74,0.72c0.16,0.27,0.24,0.59,0.24,0.95
			c0,0.59-0.23,1.07-0.68,1.42c-0.45,0.35-1.07,0.52-1.85,0.52c-0.51,0-0.99-0.1-1.42-0.28c-0.43-0.19-0.76-0.46-1.01-0.79
			c-0.24-0.33-0.36-0.73-0.36-1.17h1.24c0,0.4,0.13,0.72,0.4,0.94c0.27,0.22,0.65,0.33,1.15,0.33c0.43,0,0.75-0.09,0.97-0.26
			C172.45,140.25,172.56,140.02,172.56,139.73z M177.09,141.66c-0.75,0-1.36-0.24-1.83-0.71c-0.47-0.48-0.7-1.11-0.7-1.9v-0.15
			c0-0.53,0.1-1,0.3-1.41c0.21-0.42,0.49-0.74,0.86-0.97c0.37-0.23,0.78-0.35,1.23-0.35c0.72,0,1.27,0.23,1.67,0.69
			c0.39,0.46,0.59,1.11,0.59,1.95v0.48h-3.45c0.04,0.44,0.18,0.78,0.43,1.04c0.26,0.25,0.58,0.38,0.97,0.38
			c0.54,0,0.99-0.22,1.33-0.66l0.64,0.61c-0.21,0.32-0.49,0.56-0.85,0.74C177.93,141.58,177.53,141.66,177.09,141.66z
			 M176.95,137.14c-0.32,0-0.59,0.11-0.79,0.34c-0.2,0.23-0.32,0.54-0.38,0.95h2.26v-0.09c-0.03-0.4-0.13-0.7-0.32-0.9
			C177.54,137.24,177.28,137.14,176.95,137.14z M183.1,140.13c0-0.21-0.09-0.37-0.26-0.48c-0.17-0.11-0.46-0.21-0.86-0.29
			c-0.4-0.08-0.74-0.19-1.01-0.32c-0.59-0.29-0.89-0.7-0.89-1.25c0-0.46,0.19-0.84,0.58-1.14c0.38-0.31,0.87-0.46,1.46-0.46
			c0.63,0,1.14,0.16,1.53,0.47c0.39,0.31,0.59,0.72,0.59,1.22h-1.19c0-0.23-0.09-0.42-0.25-0.57c-0.17-0.15-0.39-0.23-0.67-0.23
			c-0.26,0-0.47,0.06-0.64,0.18c-0.16,0.12-0.25,0.28-0.25,0.48c0,0.18,0.08,0.32,0.23,0.43s0.46,0.2,0.93,0.31
			c0.46,0.1,0.83,0.22,1.09,0.37c0.27,0.14,0.46,0.31,0.59,0.51c0.13,0.2,0.2,0.44,0.2,0.72c0,0.48-0.2,0.86-0.59,1.16
			c-0.39,0.29-0.91,0.44-1.55,0.44c-0.43,0-0.82-0.08-1.16-0.24c-0.34-0.16-0.6-0.37-0.79-0.64c-0.19-0.27-0.28-0.57-0.28-0.88h1.15
			c0.02,0.28,0.12,0.5,0.32,0.65c0.19,0.15,0.45,0.23,0.78,0.23c0.31,0,0.55-0.06,0.71-0.18
			C183.02,140.48,183.1,140.32,183.1,140.13z M186.56,141.56h-1.19v-5.28h1.19V141.56z M185.3,134.91c0-0.18,0.06-0.33,0.17-0.45
			c0.12-0.12,0.28-0.18,0.5-0.18c0.21,0,0.38,0.06,0.5,0.18c0.12,0.12,0.17,0.27,0.17,0.45c0,0.18-0.06,0.33-0.17,0.45
			c-0.12,0.12-0.28,0.18-0.5,0.18c-0.22,0-0.38-0.06-0.5-0.18C185.36,135.24,185.3,135.09,185.3,134.91z M187.64,138.87
			c0-0.52,0.1-0.98,0.31-1.4c0.21-0.42,0.49-0.74,0.86-0.96c0.37-0.22,0.8-0.34,1.28-0.34c0.71,0,1.29,0.23,1.73,0.69
			c0.45,0.46,0.69,1.07,0.72,1.83l0.01,0.28c0,0.52-0.1,0.99-0.3,1.4c-0.2,0.41-0.49,0.73-0.86,0.95c-0.37,0.22-0.8,0.34-1.29,0.34
			c-0.75,0-1.34-0.25-1.79-0.74c-0.45-0.5-0.67-1.16-0.67-1.99V138.87z M188.82,138.98c0,0.54,0.11,0.97,0.34,1.28
			c0.23,0.31,0.54,0.46,0.94,0.46c0.4,0,0.71-0.16,0.93-0.47c0.22-0.31,0.34-0.77,0.34-1.37c0-0.53-0.11-0.96-0.35-1.27
			c-0.23-0.31-0.54-0.47-0.93-0.47c-0.39,0-0.7,0.15-0.92,0.46C188.94,137.91,188.82,138.36,188.82,138.98z M190.42,134.06h1.35
			l-1.35,1.48h-0.95L190.42,134.06z M194.65,136.28l0.03,0.61c0.39-0.47,0.9-0.71,1.54-0.71c1.1,0,1.66,0.63,1.68,1.89v3.49h-1.19
			v-3.42c0-0.34-0.07-0.58-0.22-0.74c-0.14-0.16-0.38-0.24-0.71-0.24c-0.48,0-0.84,0.22-1.07,0.65v3.76h-1.19v-5.28H194.65z"/>
		<path d="M126.37,338.24c0,0.24-0.03,0.43-0.08,0.58c-0.04,0.14-0.12,0.28-0.23,0.42c-0.11,0.13-0.27,0.31-0.48,0.53
			c-0.21,0.22-0.33,0.44-0.35,0.67l-0.01,0.13c0,0.25,0.07,0.44,0.2,0.57c0.13,0.13,0.32,0.2,0.57,0.2c0.23,0,0.41-0.07,0.55-0.19
			c0.14-0.13,0.22-0.3,0.22-0.5h0.63c0,0.37-0.14,0.67-0.39,0.9c-0.25,0.23-0.59,0.35-1.01,0.35c-0.45,0-0.79-0.12-1.04-0.35
			c-0.24-0.23-0.37-0.55-0.37-0.95c0-0.39,0.18-0.79,0.55-1.19l0.37-0.39c0.15-0.18,0.22-0.43,0.22-0.77H126.37z M126.39,337.16
			c0,0.1-0.03,0.19-0.1,0.26c-0.06,0.07-0.15,0.11-0.28,0.11s-0.22-0.04-0.28-0.11c-0.06-0.07-0.1-0.16-0.1-0.26
			c0-0.1,0.03-0.18,0.1-0.25c0.06-0.07,0.16-0.1,0.28-0.1s0.22,0.03,0.28,0.1C126.36,336.97,126.39,337.06,126.39,337.16z
			 M132.07,340.56h-0.66l-2.51-3.83v3.83h-0.66v-4.98h0.66l2.51,3.85v-3.85h0.65V340.56z M132.97,338.68c0-0.36,0.07-0.69,0.21-0.98
			c0.14-0.29,0.34-0.51,0.6-0.67c0.25-0.16,0.55-0.24,0.87-0.24c0.5,0,0.91,0.17,1.22,0.52c0.31,0.35,0.47,0.81,0.47,1.39v0.04
			c0,0.36-0.07,0.68-0.21,0.97c-0.14,0.28-0.33,0.51-0.59,0.67c-0.26,0.16-0.55,0.24-0.88,0.24c-0.5,0-0.91-0.17-1.22-0.52
			c-0.31-0.35-0.46-0.81-0.46-1.38V338.68z M133.61,338.76c0,0.41,0.1,0.74,0.28,0.99c0.19,0.25,0.45,0.37,0.77,0.37
			c0.32,0,0.58-0.12,0.76-0.38c0.19-0.25,0.28-0.61,0.28-1.06c0-0.41-0.1-0.73-0.29-0.99c-0.19-0.25-0.45-0.38-0.76-0.38
			c-0.31,0-0.56,0.12-0.76,0.37C133.7,337.94,133.61,338.29,133.61,338.76z M139.73,335.97v0.9h0.69v0.49h-0.69v2.29
			c0,0.15,0.03,0.26,0.09,0.33c0.06,0.07,0.17,0.11,0.31,0.11c0.07,0,0.17-0.01,0.3-0.04v0.51c-0.17,0.05-0.33,0.07-0.49,0.07
			c-0.28,0-0.5-0.08-0.64-0.26c-0.14-0.17-0.21-0.41-0.21-0.73v-2.29h-0.67v-0.49h0.67v-0.9H139.73z M142.69,340.63
			c-0.5,0-0.91-0.16-1.22-0.49c-0.32-0.33-0.47-0.77-0.47-1.32v-0.12c0-0.37,0.07-0.69,0.21-0.98c0.14-0.29,0.34-0.52,0.59-0.68
			c0.25-0.16,0.53-0.25,0.82-0.25c0.48,0,0.85,0.16,1.12,0.48c0.27,0.32,0.4,0.77,0.4,1.36v0.26h-2.51
			c0.01,0.36,0.11,0.66,0.32,0.89c0.21,0.22,0.47,0.33,0.78,0.33c0.22,0,0.41-0.05,0.57-0.14c0.15-0.09,0.29-0.21,0.41-0.36
			l0.39,0.3C143.78,340.39,143.31,340.63,142.69,340.63z M142.62,337.32c-0.26,0-0.47,0.09-0.64,0.28
			c-0.17,0.18-0.28,0.45-0.32,0.78h1.85v-0.05c-0.02-0.32-0.1-0.57-0.26-0.75C143.09,337.41,142.88,337.32,142.62,337.32z
			 M145.47,336.87l0.02,0.46c0.28-0.36,0.65-0.53,1.11-0.53c0.78,0,1.18,0.44,1.18,1.32v2.44h-0.63v-2.45
			c0-0.27-0.06-0.46-0.18-0.59c-0.12-0.13-0.3-0.19-0.56-0.19c-0.21,0-0.38,0.06-0.54,0.16c-0.15,0.11-0.28,0.25-0.36,0.43v2.64
			h-0.63v-3.7H145.47z M150.27,340.63c-0.5,0-0.91-0.16-1.22-0.49c-0.32-0.33-0.47-0.77-0.47-1.32v-0.12c0-0.37,0.07-0.69,0.21-0.98
			c0.14-0.29,0.34-0.52,0.59-0.68c0.25-0.16,0.53-0.25,0.82-0.25c0.48,0,0.85,0.16,1.12,0.48c0.27,0.32,0.4,0.77,0.4,1.36v0.26
			h-2.51c0.01,0.36,0.12,0.66,0.32,0.89c0.21,0.22,0.46,0.33,0.78,0.33c0.22,0,0.41-0.05,0.57-0.14c0.15-0.09,0.29-0.21,0.41-0.36
			l0.39,0.3C151.35,340.39,150.89,340.63,150.27,340.63z M150.19,337.32c-0.25,0-0.47,0.09-0.64,0.28
			c-0.17,0.18-0.28,0.45-0.32,0.78h1.85v-0.05c-0.02-0.32-0.1-0.57-0.26-0.75C150.66,337.41,150.45,337.32,150.19,337.32z
			 M154.6,339.58c0-0.17-0.07-0.3-0.2-0.4c-0.13-0.1-0.35-0.18-0.67-0.25c-0.32-0.07-0.57-0.15-0.76-0.25
			c-0.19-0.1-0.33-0.21-0.42-0.34c-0.09-0.13-0.13-0.29-0.13-0.47c0-0.3,0.13-0.56,0.38-0.77c0.26-0.21,0.59-0.32,0.99-0.32
			c0.42,0,0.76,0.11,1.02,0.33c0.26,0.22,0.39,0.49,0.39,0.83h-0.64c0-0.17-0.07-0.32-0.22-0.45c-0.15-0.12-0.33-0.19-0.55-0.19
			c-0.23,0-0.41,0.05-0.54,0.15c-0.13,0.1-0.19,0.23-0.19,0.39c0,0.15,0.06,0.27,0.18,0.35c0.12,0.08,0.34,0.15,0.65,0.22
			c0.32,0.07,0.57,0.15,0.77,0.25s0.34,0.22,0.43,0.35c0.1,0.14,0.14,0.3,0.14,0.5c0,0.33-0.13,0.6-0.4,0.8
			c-0.26,0.2-0.61,0.3-1.03,0.3c-0.3,0-0.56-0.05-0.79-0.16c-0.23-0.11-0.41-0.25-0.54-0.44c-0.13-0.19-0.19-0.39-0.19-0.61h0.63
			c0.01,0.21,0.1,0.38,0.25,0.51c0.16,0.12,0.37,0.18,0.63,0.18c0.24,0,0.43-0.05,0.57-0.14
			C154.53,339.88,154.6,339.75,154.6,339.58z M159.27,340.12c0.23,0,0.42-0.07,0.59-0.21c0.17-0.14,0.26-0.31,0.28-0.51h0.6
			c-0.01,0.21-0.09,0.41-0.22,0.6c-0.14,0.19-0.32,0.35-0.54,0.46c-0.22,0.11-0.46,0.17-0.71,0.17c-0.5,0-0.9-0.17-1.2-0.5
			c-0.3-0.34-0.44-0.8-0.44-1.38v-0.11c0-0.36,0.07-0.68,0.2-0.96c0.13-0.28,0.32-0.5,0.57-0.65c0.25-0.15,0.54-0.23,0.88-0.23
			c0.41,0,0.76,0.12,1.03,0.37c0.27,0.25,0.42,0.57,0.44,0.97h-0.6c-0.02-0.24-0.11-0.43-0.27-0.59c-0.16-0.15-0.36-0.23-0.6-0.23
			c-0.32,0-0.57,0.12-0.75,0.35c-0.18,0.23-0.26,0.56-0.26,1v0.12c0,0.43,0.09,0.75,0.26,0.98
			C158.7,340,158.95,340.12,159.27,340.12z M163.74,340.2c-0.25,0.29-0.61,0.43-1.08,0.43c-0.39,0-0.7-0.11-0.9-0.34
			c-0.21-0.23-0.31-0.57-0.31-1.02v-2.41h0.63v2.39c0,0.56,0.23,0.84,0.68,0.84c0.48,0,0.8-0.18,0.96-0.54v-2.69h0.63v3.7h-0.6
			L163.74,340.2z M166.85,340.63c-0.5,0-0.91-0.16-1.22-0.49c-0.32-0.33-0.47-0.77-0.47-1.32v-0.12c0-0.37,0.07-0.69,0.21-0.98
			c0.14-0.29,0.34-0.52,0.59-0.68c0.25-0.16,0.53-0.25,0.82-0.25c0.48,0,0.85,0.16,1.12,0.48c0.27,0.32,0.4,0.77,0.4,1.36v0.26
			h-2.51c0.01,0.36,0.12,0.66,0.32,0.89c0.21,0.22,0.46,0.33,0.78,0.33c0.22,0,0.41-0.05,0.57-0.14c0.15-0.09,0.29-0.21,0.41-0.36
			l0.39,0.3C167.94,340.39,167.47,340.63,166.85,340.63z M166.77,337.32c-0.25,0-0.47,0.09-0.64,0.28
			c-0.17,0.18-0.28,0.45-0.32,0.78h1.85v-0.05c-0.02-0.32-0.1-0.57-0.26-0.75C167.25,337.41,167.04,337.32,166.77,337.32z
			 M169.63,336.87l0.02,0.46c0.28-0.36,0.65-0.53,1.11-0.53c0.78,0,1.18,0.44,1.18,1.32v2.44h-0.63v-2.45
			c0-0.27-0.06-0.46-0.18-0.59c-0.12-0.13-0.3-0.19-0.56-0.19c-0.21,0-0.38,0.06-0.54,0.16c-0.15,0.11-0.27,0.25-0.36,0.43v2.64
			h-0.63v-3.7H169.63z M173.75,335.97v0.9h0.69v0.49h-0.69v2.29c0,0.15,0.03,0.26,0.09,0.33c0.06,0.07,0.17,0.11,0.32,0.11
			c0.07,0,0.17-0.01,0.3-0.04v0.51c-0.17,0.05-0.33,0.07-0.49,0.07c-0.28,0-0.5-0.08-0.64-0.26c-0.14-0.17-0.21-0.41-0.21-0.73
			v-2.29h-0.67v-0.49h0.67v-0.9H173.75z M177.46,340.56c-0.04-0.07-0.07-0.2-0.09-0.39c-0.29,0.31-0.64,0.46-1.05,0.46
			c-0.36,0-0.66-0.1-0.9-0.31c-0.23-0.21-0.35-0.47-0.35-0.79c0-0.39,0.15-0.68,0.44-0.9c0.29-0.21,0.71-0.32,1.24-0.32h0.62v-0.29
			c0-0.22-0.07-0.4-0.2-0.53c-0.13-0.13-0.33-0.2-0.59-0.2c-0.23,0-0.41,0.06-0.57,0.17s-0.23,0.25-0.23,0.41h-0.64
			c0-0.18,0.06-0.36,0.19-0.53c0.13-0.17,0.31-0.31,0.53-0.41c0.23-0.1,0.47-0.15,0.74-0.15c0.43,0,0.76,0.11,1,0.32
			c0.24,0.21,0.37,0.5,0.38,0.88v1.7c0,0.34,0.04,0.61,0.13,0.81v0.05H177.46z M176.42,340.08c0.2,0,0.39-0.05,0.56-0.15
			c0.18-0.1,0.31-0.24,0.39-0.4v-0.76h-0.5c-0.77,0-1.16,0.23-1.16,0.68c0,0.2,0.07,0.35,0.2,0.47
			C176.04,340.03,176.21,340.08,176.42,340.08z M179.73,339.16c0.01-0.27,0.04-0.49,0.09-0.64c0.06-0.16,0.17-0.33,0.35-0.52
			l0.45-0.46c0.19-0.22,0.29-0.45,0.29-0.7c0-0.24-0.06-0.43-0.19-0.56c-0.12-0.14-0.31-0.2-0.55-0.2c-0.23,0-0.42,0.06-0.56,0.18
			c-0.14,0.12-0.21,0.29-0.21,0.5h-0.63c0-0.37,0.14-0.67,0.39-0.89c0.26-0.23,0.6-0.34,1.01-0.34c0.43,0,0.77,0.12,1,0.35
			c0.24,0.23,0.36,0.55,0.36,0.95c0,0.4-0.18,0.79-0.55,1.18l-0.37,0.37c-0.17,0.18-0.25,0.45-0.25,0.8H179.73z M179.7,340.25
			c0-0.1,0.03-0.19,0.09-0.26c0.06-0.07,0.16-0.11,0.28-0.11s0.22,0.04,0.28,0.11c0.06,0.07,0.1,0.15,0.1,0.26
			c0,0.1-0.03,0.19-0.1,0.26c-0.06,0.07-0.16,0.1-0.28,0.1s-0.22-0.03-0.28-0.1C179.73,340.43,179.7,340.35,179.7,340.25z
			 M185.9,338.65h-0.96v1.92h-0.86v-4.98h1.75c0.57,0,1.02,0.13,1.33,0.39c0.31,0.26,0.47,0.63,0.47,1.12
			c0,0.33-0.08,0.61-0.24,0.84c-0.16,0.22-0.38,0.4-0.67,0.52l1.12,2.07v0.04h-0.93L185.9,338.65z M184.93,337.95h0.89
			c0.29,0,0.52-0.07,0.68-0.22c0.16-0.15,0.25-0.35,0.25-0.61c0-0.27-0.08-0.47-0.23-0.62c-0.15-0.15-0.38-0.22-0.68-0.23h-0.91
			V337.95z M189.98,340.63c-0.53,0-0.95-0.16-1.28-0.49c-0.33-0.33-0.49-0.77-0.49-1.33v-0.1c0-0.37,0.07-0.7,0.21-0.99
			c0.14-0.29,0.34-0.52,0.6-0.68c0.26-0.16,0.54-0.24,0.86-0.24c0.5,0,0.89,0.16,1.16,0.48c0.28,0.32,0.41,0.78,0.41,1.36v0.33
			h-2.42c0.03,0.3,0.13,0.55,0.3,0.73c0.18,0.18,0.41,0.27,0.68,0.27c0.38,0,0.69-0.15,0.93-0.46l0.45,0.43
			c-0.15,0.22-0.35,0.39-0.6,0.52C190.57,340.57,190.29,340.63,189.98,340.63z M189.89,337.46c-0.23,0-0.41,0.08-0.55,0.24
			c-0.14,0.16-0.23,0.38-0.27,0.67h1.58v-0.06c-0.02-0.28-0.09-0.49-0.22-0.63C190.3,337.54,190.12,337.46,189.89,337.46z
			 M191.97,338.69c0-0.57,0.13-1.03,0.4-1.37c0.27-0.35,0.63-0.52,1.08-0.52c0.42,0,0.75,0.15,1,0.44l0.04-0.37h0.75v3.58
			c0,0.49-0.15,0.87-0.46,1.15c-0.3,0.28-0.71,0.42-1.22,0.42c-0.27,0-0.54-0.06-0.8-0.17c-0.26-0.11-0.45-0.26-0.59-0.44l0.39-0.5
			c0.26,0.3,0.57,0.45,0.94,0.45c0.28,0,0.49-0.07,0.65-0.23c0.16-0.15,0.24-0.37,0.24-0.66v-0.25c-0.24,0.27-0.56,0.4-0.96,0.4
			c-0.43,0-0.79-0.17-1.06-0.52C192.11,339.77,191.97,339.3,191.97,338.69z M192.8,338.76c0,0.37,0.08,0.66,0.23,0.88
			c0.15,0.21,0.36,0.32,0.63,0.32c0.34,0,0.58-0.14,0.75-0.43v-1.63c-0.16-0.28-0.4-0.42-0.74-0.42c-0.27,0-0.49,0.11-0.64,0.32
			C192.87,338.02,192.8,338.34,192.8,338.76z M196.97,340.56h-0.83v-3.7h0.83V340.56z M196.09,335.91c0-0.13,0.04-0.23,0.12-0.32
			c0.08-0.08,0.2-0.13,0.35-0.13c0.15,0,0.27,0.04,0.35,0.13c0.08,0.08,0.12,0.19,0.12,0.32c0,0.13-0.04,0.23-0.12,0.32
			c-0.08,0.08-0.2,0.12-0.35,0.12c-0.15,0-0.27-0.04-0.35-0.12C196.13,336.14,196.09,336.03,196.09,335.91z M199.95,339.56
			c0-0.15-0.06-0.26-0.18-0.34c-0.12-0.08-0.32-0.15-0.6-0.21c-0.28-0.06-0.52-0.14-0.71-0.23c-0.41-0.2-0.62-0.49-0.62-0.87
			c0-0.32,0.13-0.58,0.4-0.8c0.27-0.21,0.61-0.32,1.03-0.32c0.44,0,0.8,0.11,1.07,0.33c0.27,0.22,0.41,0.5,0.41,0.85h-0.83
			c0-0.16-0.06-0.29-0.18-0.4c-0.12-0.11-0.27-0.16-0.47-0.16c-0.18,0-0.33,0.04-0.45,0.13c-0.11,0.08-0.17,0.2-0.17,0.34
			c0,0.13,0.05,0.23,0.16,0.3c0.11,0.07,0.32,0.14,0.65,0.21c0.33,0.07,0.58,0.16,0.77,0.26c0.19,0.1,0.32,0.22,0.41,0.36
			c0.09,0.14,0.14,0.31,0.14,0.51c0,0.33-0.14,0.6-0.41,0.81c-0.28,0.21-0.64,0.31-1.08,0.31c-0.3,0-0.57-0.05-0.81-0.16
			c-0.24-0.11-0.42-0.26-0.55-0.45c-0.13-0.19-0.2-0.4-0.2-0.62h0.81c0.01,0.2,0.08,0.35,0.22,0.45c0.14,0.11,0.32,0.16,0.54,0.16
			c0.22,0,0.38-0.04,0.5-0.12C199.89,339.8,199.95,339.69,199.95,339.56z M202.54,335.97v0.9h0.65v0.61h-0.65v2.06
			c0,0.14,0.03,0.24,0.08,0.31c0.06,0.06,0.16,0.09,0.3,0.09c0.1,0,0.19-0.01,0.29-0.03v0.64c-0.19,0.05-0.37,0.08-0.55,0.08
			c-0.64,0-0.96-0.35-0.96-1.06v-2.1h-0.61v-0.61h0.61v-0.9H202.54z M205.76,337.63c-0.11-0.02-0.22-0.03-0.34-0.03
			c-0.38,0-0.64,0.15-0.77,0.44v2.53h-0.83v-3.7h0.79l0.02,0.41c0.2-0.32,0.48-0.48,0.83-0.48c0.12,0,0.22,0.02,0.29,0.05
			L205.76,337.63z M208.39,340.56c-0.04-0.07-0.07-0.19-0.1-0.35c-0.26,0.28-0.59,0.41-0.97,0.41c-0.37,0-0.67-0.11-0.91-0.32
			c-0.24-0.21-0.35-0.47-0.35-0.79c0-0.39,0.15-0.7,0.44-0.9c0.29-0.21,0.71-0.32,1.26-0.32h0.51v-0.24c0-0.19-0.05-0.34-0.16-0.46
			c-0.11-0.12-0.27-0.17-0.49-0.17c-0.19,0-0.34,0.05-0.46,0.14c-0.12,0.09-0.18,0.21-0.18,0.36h-0.83c0-0.2,0.07-0.39,0.2-0.57
			c0.13-0.18,0.32-0.32,0.55-0.42c0.23-0.1,0.49-0.15,0.78-0.15c0.43,0,0.78,0.11,1.03,0.33c0.26,0.22,0.39,0.52,0.4,0.92v1.67
			c0,0.33,0.05,0.6,0.14,0.8v0.06H208.39z M207.48,339.97c0.16,0,0.32-0.04,0.46-0.12c0.15-0.08,0.26-0.19,0.33-0.32v-0.7h-0.45
			c-0.31,0-0.54,0.05-0.69,0.16c-0.15,0.11-0.23,0.26-0.23,0.45c0,0.16,0.05,0.29,0.16,0.38
			C207.16,339.92,207.3,339.97,207.48,339.97z M211.01,335.97v0.9h0.65v0.61h-0.65v2.06c0,0.14,0.03,0.24,0.08,0.31
			c0.06,0.06,0.16,0.09,0.3,0.09c0.1,0,0.19-0.01,0.29-0.03v0.64c-0.19,0.05-0.37,0.08-0.55,0.08c-0.64,0-0.96-0.35-0.96-1.06v-2.1
			h-0.61v-0.61h0.61v-0.9H211.01z M213.93,340.63c-0.53,0-0.95-0.16-1.28-0.49c-0.33-0.33-0.49-0.77-0.49-1.33v-0.1
			c0-0.37,0.07-0.7,0.21-0.99c0.14-0.29,0.34-0.52,0.6-0.68c0.26-0.16,0.54-0.24,0.86-0.24c0.5,0,0.89,0.16,1.16,0.48
			c0.28,0.32,0.41,0.78,0.41,1.36v0.33H213c0.03,0.3,0.13,0.55,0.3,0.73c0.18,0.18,0.4,0.27,0.68,0.27c0.38,0,0.69-0.15,0.93-0.46
			l0.45,0.43c-0.15,0.22-0.35,0.39-0.6,0.52C214.52,340.57,214.24,340.63,213.93,340.63z M213.83,337.46
			c-0.23,0-0.41,0.08-0.55,0.24c-0.14,0.16-0.23,0.38-0.27,0.67h1.58v-0.06c-0.02-0.28-0.09-0.49-0.22-0.63
			C214.24,337.54,214.06,337.46,213.83,337.46z"/>
		<path class="st8" d="M113,202.56l99,1"/>
		<path class="st8" d="M113,252.56l99,1"/>
		<path class="st9" d="M118.55,191.01c-0.06,0.52-0.25,0.93-0.56,1.2c-0.32,0.28-0.74,0.42-1.27,0.42c-0.37,0-0.7-0.09-0.98-0.28
			c-0.28-0.19-0.5-0.45-0.66-0.78c-0.15-0.34-0.23-0.73-0.24-1.16v-0.65c0-0.44,0.08-0.83,0.23-1.18c0.15-0.34,0.38-0.6,0.67-0.79
			c0.29-0.19,0.63-0.28,1-0.28c0.53,0,0.95,0.15,1.26,0.43c0.31,0.29,0.49,0.68,0.54,1.19h-0.42c-0.11-0.85-0.56-1.27-1.38-1.27
			c-0.45,0-0.81,0.17-1.08,0.51c-0.27,0.34-0.4,0.8-0.4,1.4v0.61c0,0.57,0.13,1.03,0.39,1.37c0.26,0.34,0.61,0.51,1.06,0.51
			c0.44,0,0.77-0.1,1-0.32c0.22-0.21,0.36-0.53,0.41-0.95H118.55z M119.25,190.66c0-0.35,0.07-0.67,0.2-0.96
			c0.14-0.29,0.33-0.51,0.58-0.66c0.25-0.16,0.54-0.24,0.86-0.24c0.49,0,0.89,0.17,1.2,0.52c0.31,0.34,0.46,0.8,0.46,1.37v0.09
			c0,0.36-0.07,0.68-0.21,0.97c-0.14,0.29-0.33,0.51-0.58,0.66c-0.25,0.15-0.54,0.23-0.86,0.23c-0.49,0-0.89-0.17-1.2-0.52
			c-0.31-0.35-0.46-0.8-0.46-1.37V190.66z M119.66,190.77c0,0.44,0.11,0.81,0.34,1.09c0.23,0.28,0.53,0.42,0.9,0.42
			c0.37,0,0.67-0.14,0.9-0.42c0.23-0.28,0.35-0.66,0.35-1.12v-0.08c0-0.28-0.05-0.54-0.16-0.78c-0.11-0.23-0.25-0.42-0.44-0.54
			c-0.19-0.13-0.41-0.19-0.65-0.19c-0.36,0-0.66,0.14-0.89,0.43c-0.23,0.29-0.35,0.66-0.35,1.12V190.77z M125.11,189.21
			c-0.09-0.02-0.18-0.02-0.28-0.02c-0.25,0-0.47,0.07-0.65,0.22c-0.18,0.14-0.3,0.35-0.38,0.62v2.54h-0.41v-3.7h0.4l0.01,0.59
			c0.22-0.44,0.56-0.66,1.04-0.66c0.11,0,0.2,0.01,0.27,0.04L125.11,189.21z M127.47,189.21c-0.09-0.02-0.18-0.02-0.28-0.02
			c-0.25,0-0.47,0.07-0.65,0.22c-0.17,0.14-0.3,0.35-0.38,0.62v2.54h-0.41v-3.7h0.4l0.01,0.59c0.22-0.44,0.56-0.66,1.04-0.66
			c0.11,0,0.2,0.01,0.27,0.04L127.47,189.21z M129.48,192.63c-0.32,0-0.6-0.08-0.86-0.23c-0.25-0.15-0.45-0.37-0.59-0.65
			c-0.14-0.28-0.21-0.59-0.21-0.93v-0.15c0-0.36,0.07-0.68,0.21-0.96c0.14-0.28,0.33-0.51,0.58-0.67c0.25-0.16,0.51-0.25,0.8-0.25
			c0.45,0,0.8,0.15,1.07,0.46c0.26,0.3,0.4,0.72,0.4,1.25v0.23h-2.64v0.08c0,0.42,0.12,0.77,0.36,1.05
			c0.24,0.28,0.54,0.42,0.91,0.42c0.22,0,0.41-0.04,0.58-0.12c0.17-0.08,0.32-0.21,0.46-0.38l0.26,0.2
			C130.49,192.42,130.06,192.63,129.48,192.63z M129.41,189.15c-0.31,0-0.57,0.11-0.78,0.34c-0.21,0.23-0.34,0.53-0.38,0.91h2.22
			v-0.04c-0.01-0.36-0.11-0.65-0.3-0.87C129.97,189.26,129.72,189.15,129.41,189.15z M131.44,190.66c0-0.35,0.07-0.67,0.21-0.96
			c0.14-0.29,0.33-0.51,0.58-0.66c0.25-0.16,0.54-0.24,0.86-0.24c0.49,0,0.89,0.17,1.2,0.52c0.31,0.34,0.46,0.8,0.46,1.37v0.09
			c0,0.36-0.07,0.68-0.21,0.97c-0.14,0.29-0.33,0.51-0.58,0.66c-0.25,0.15-0.54,0.23-0.86,0.23c-0.49,0-0.89-0.17-1.2-0.52
			c-0.31-0.35-0.46-0.8-0.46-1.37V190.66z M131.85,190.77c0,0.44,0.11,0.81,0.34,1.09c0.23,0.28,0.53,0.42,0.9,0.42
			c0.37,0,0.67-0.14,0.9-0.42c0.23-0.28,0.35-0.66,0.35-1.12v-0.08c0-0.28-0.05-0.54-0.16-0.78c-0.11-0.23-0.25-0.42-0.44-0.54
			c-0.19-0.13-0.4-0.19-0.65-0.19c-0.36,0-0.66,0.14-0.89,0.43c-0.23,0.29-0.35,0.66-0.35,1.12V190.77z M138.73,192.63
			c-0.31,0-0.6-0.08-0.85-0.23c-0.25-0.15-0.45-0.37-0.59-0.65c-0.14-0.28-0.21-0.59-0.21-0.93v-0.15c0-0.36,0.07-0.68,0.2-0.96
			c0.14-0.28,0.33-0.51,0.58-0.67c0.25-0.16,0.51-0.25,0.8-0.25c0.45,0,0.8,0.15,1.07,0.46c0.26,0.3,0.4,0.72,0.4,1.25v0.23h-2.64
			v0.08c0,0.42,0.12,0.77,0.36,1.05c0.24,0.28,0.54,0.42,0.91,0.42c0.22,0,0.41-0.04,0.58-0.12c0.17-0.08,0.32-0.21,0.46-0.38
			l0.26,0.2C139.73,192.42,139.3,192.63,138.73,192.63z M138.65,189.15c-0.31,0-0.57,0.11-0.78,0.34c-0.21,0.23-0.34,0.53-0.38,0.91
			h2.22v-0.04c-0.01-0.36-0.11-0.65-0.3-0.87C139.21,189.26,138.96,189.15,138.65,189.15z M141.37,192.56h-0.41v-5.25h0.41V192.56z
			 M143.91,192.63c-0.31,0-0.6-0.08-0.85-0.23c-0.25-0.15-0.45-0.37-0.59-0.65c-0.14-0.28-0.21-0.59-0.21-0.93v-0.15
			c0-0.36,0.07-0.68,0.21-0.96c0.14-0.28,0.33-0.51,0.58-0.67c0.25-0.16,0.51-0.25,0.8-0.25c0.45,0,0.8,0.15,1.07,0.46
			c0.26,0.3,0.4,0.72,0.4,1.25v0.23h-2.64v0.08c0,0.42,0.12,0.77,0.36,1.05c0.24,0.28,0.54,0.42,0.91,0.42
			c0.22,0,0.41-0.04,0.58-0.12c0.17-0.08,0.32-0.21,0.46-0.38l0.26,0.2C144.92,192.42,144.49,192.63,143.91,192.63z M143.84,189.15
			c-0.31,0-0.57,0.11-0.78,0.34c-0.21,0.23-0.34,0.53-0.38,0.91h2.22v-0.04c-0.01-0.36-0.11-0.65-0.3-0.87
			C144.4,189.26,144.15,189.15,143.84,189.15z M147.47,192.29c0.29,0,0.52-0.08,0.71-0.24c0.19-0.16,0.3-0.37,0.31-0.63h0.39
			c-0.01,0.23-0.08,0.43-0.21,0.62c-0.13,0.18-0.3,0.33-0.52,0.43c-0.21,0.11-0.44,0.16-0.69,0.16c-0.49,0-0.87-0.17-1.16-0.51
			c-0.28-0.34-0.42-0.79-0.42-1.36v-0.12c0-0.36,0.06-0.69,0.19-0.97s0.31-0.5,0.55-0.65c0.24-0.15,0.52-0.23,0.84-0.23
			c0.41,0,0.74,0.12,1,0.36c0.26,0.24,0.4,0.56,0.42,0.95h-0.39c-0.02-0.29-0.12-0.52-0.31-0.7c-0.19-0.18-0.43-0.27-0.72-0.27
			c-0.37,0-0.66,0.13-0.86,0.4c-0.2,0.27-0.3,0.64-0.3,1.12v0.12c0,0.47,0.1,0.84,0.3,1.1
			C146.81,192.16,147.09,192.29,147.47,192.29z M150.34,187.92v0.95h0.76v0.33h-0.76v2.46c0,0.21,0.04,0.36,0.11,0.46
			c0.07,0.1,0.2,0.15,0.37,0.15c0.07,0,0.18-0.01,0.33-0.03l0.02,0.33c-0.11,0.04-0.25,0.06-0.44,0.06c-0.28,0-0.48-0.08-0.61-0.24
			c-0.13-0.16-0.19-0.4-0.19-0.72v-2.47h-0.68v-0.33h0.68v-0.95H150.34z M153.67,189.21c-0.09-0.02-0.18-0.02-0.28-0.02
			c-0.26,0-0.47,0.07-0.65,0.22c-0.18,0.14-0.3,0.35-0.38,0.62v2.54h-0.41v-3.7h0.4l0.01,0.59c0.22-0.44,0.56-0.66,1.04-0.66
			c0.11,0,0.2,0.01,0.27,0.04L153.67,189.21z M154.02,190.66c0-0.35,0.07-0.67,0.21-0.96c0.14-0.29,0.33-0.51,0.59-0.66
			c0.25-0.16,0.54-0.24,0.86-0.24c0.49,0,0.89,0.17,1.2,0.52c0.3,0.34,0.46,0.8,0.46,1.37v0.09c0,0.36-0.07,0.68-0.21,0.97
			c-0.14,0.29-0.33,0.51-0.58,0.66c-0.25,0.15-0.54,0.23-0.86,0.23c-0.49,0-0.89-0.17-1.2-0.52c-0.31-0.35-0.46-0.8-0.46-1.37
			V190.66z M154.43,190.77c0,0.44,0.11,0.81,0.34,1.09c0.23,0.28,0.53,0.42,0.9,0.42c0.37,0,0.67-0.14,0.9-0.42
			c0.23-0.28,0.35-0.66,0.35-1.12v-0.08c0-0.28-0.05-0.54-0.16-0.78c-0.1-0.23-0.25-0.42-0.44-0.54c-0.19-0.13-0.4-0.19-0.65-0.19
			c-0.37,0-0.66,0.14-0.89,0.43c-0.23,0.29-0.35,0.66-0.35,1.12V190.77z M156.08,187.31h0.49l-0.79,0.96h-0.36L156.08,187.31z
			 M158.56,188.87l0.01,0.63c0.14-0.23,0.31-0.4,0.52-0.52c0.21-0.12,0.44-0.18,0.69-0.18c0.4,0,0.69,0.11,0.88,0.33
			c0.19,0.22,0.29,0.56,0.29,1.01v2.43h-0.41v-2.43c0-0.33-0.07-0.58-0.21-0.74c-0.14-0.16-0.36-0.24-0.66-0.24
			c-0.25,0-0.48,0.08-0.67,0.24c-0.19,0.16-0.34,0.37-0.43,0.64v2.53h-0.41v-3.7H158.56z M162.48,192.56h-0.41v-3.7h0.41V192.56z
			 M162,187.8c0-0.08,0.02-0.14,0.07-0.19c0.05-0.06,0.12-0.08,0.21-0.08c0.09,0,0.15,0.03,0.21,0.08c0.05,0.05,0.08,0.12,0.08,0.19
			c0,0.08-0.03,0.14-0.08,0.2c-0.05,0.05-0.12,0.08-0.21,0.08c-0.09,0-0.15-0.03-0.21-0.08C162.02,187.94,162,187.87,162,187.8z
			 M164.96,192.29c0.29,0,0.52-0.08,0.71-0.24c0.19-0.16,0.3-0.37,0.32-0.63h0.39c-0.01,0.23-0.08,0.43-0.21,0.62
			c-0.13,0.18-0.3,0.33-0.52,0.43c-0.21,0.11-0.44,0.16-0.69,0.16c-0.49,0-0.87-0.17-1.15-0.51c-0.28-0.34-0.42-0.79-0.42-1.36
			v-0.12c0-0.36,0.06-0.69,0.19-0.97c0.13-0.28,0.31-0.5,0.55-0.65c0.24-0.15,0.52-0.23,0.84-0.23c0.41,0,0.74,0.12,1,0.36
			c0.26,0.24,0.41,0.56,0.42,0.95h-0.39c-0.02-0.29-0.12-0.52-0.32-0.7c-0.19-0.18-0.43-0.27-0.72-0.27c-0.37,0-0.66,0.13-0.86,0.4
			c-0.2,0.27-0.3,0.64-0.3,1.12v0.12c0,0.47,0.1,0.84,0.3,1.1C164.3,192.16,164.59,192.29,164.96,192.29z M166.98,190.66
			c0-0.35,0.07-0.67,0.21-0.96c0.14-0.29,0.33-0.51,0.58-0.66c0.25-0.16,0.54-0.24,0.86-0.24c0.49,0,0.89,0.17,1.2,0.52
			c0.31,0.34,0.46,0.8,0.46,1.37v0.09c0,0.36-0.07,0.68-0.21,0.97c-0.14,0.29-0.33,0.51-0.58,0.66c-0.25,0.15-0.54,0.23-0.86,0.23
			c-0.49,0-0.89-0.17-1.2-0.52c-0.31-0.35-0.46-0.8-0.46-1.37V190.66z M167.39,190.77c0,0.44,0.11,0.81,0.34,1.09
			c0.23,0.28,0.53,0.42,0.9,0.42c0.37,0,0.67-0.14,0.9-0.42c0.23-0.28,0.35-0.66,0.35-1.12v-0.08c0-0.28-0.05-0.54-0.16-0.78
			c-0.1-0.23-0.25-0.42-0.44-0.54c-0.19-0.13-0.4-0.19-0.65-0.19c-0.37,0-0.66,0.14-0.89,0.43c-0.23,0.29-0.35,0.66-0.35,1.12
			V190.77z"/>
		<path class="st9" d="M118.5,243.01c-0.06,0.52-0.25,0.93-0.56,1.2c-0.32,0.28-0.74,0.42-1.27,0.42c-0.37,0-0.7-0.09-0.98-0.28
			c-0.28-0.19-0.5-0.45-0.66-0.78c-0.15-0.34-0.23-0.73-0.24-1.16v-0.65c0-0.44,0.08-0.83,0.23-1.18c0.15-0.34,0.38-0.6,0.67-0.79
			c0.29-0.19,0.63-0.28,1-0.28c0.53,0,0.95,0.15,1.26,0.43c0.31,0.29,0.49,0.68,0.54,1.19h-0.42c-0.1-0.85-0.56-1.27-1.38-1.27
			c-0.45,0-0.81,0.17-1.08,0.51c-0.27,0.34-0.4,0.8-0.4,1.4v0.61c0,0.57,0.13,1.03,0.39,1.37c0.26,0.34,0.62,0.51,1.06,0.51
			c0.44,0,0.77-0.1,1-0.32c0.22-0.21,0.36-0.53,0.41-0.95H118.5z M119.2,242.66c0-0.35,0.07-0.67,0.21-0.96
			c0.14-0.29,0.33-0.51,0.58-0.66c0.25-0.16,0.54-0.24,0.86-0.24c0.49,0,0.89,0.17,1.2,0.52c0.31,0.34,0.46,0.8,0.46,1.37v0.09
			c0,0.36-0.07,0.68-0.21,0.97c-0.14,0.29-0.33,0.51-0.58,0.66s-0.54,0.23-0.86,0.23c-0.49,0-0.89-0.17-1.2-0.52
			c-0.31-0.35-0.46-0.8-0.46-1.37V242.66z M119.61,242.77c0,0.44,0.11,0.81,0.34,1.09c0.23,0.28,0.53,0.42,0.9,0.42
			c0.37,0,0.67-0.14,0.9-0.42c0.23-0.28,0.35-0.66,0.35-1.12v-0.08c0-0.28-0.05-0.54-0.16-0.78c-0.11-0.23-0.25-0.42-0.44-0.54
			c-0.19-0.13-0.41-0.19-0.65-0.19c-0.36,0-0.66,0.14-0.89,0.43c-0.23,0.29-0.35,0.66-0.35,1.12V242.77z M123.74,240.87l0.01,0.63
			c0.14-0.23,0.31-0.4,0.52-0.52c0.21-0.12,0.44-0.18,0.69-0.18c0.4,0,0.69,0.11,0.89,0.33c0.19,0.22,0.29,0.56,0.29,1.01v2.43
			h-0.41v-2.43c0-0.33-0.07-0.58-0.21-0.74c-0.14-0.16-0.36-0.24-0.66-0.24c-0.25,0-0.48,0.08-0.67,0.24
			c-0.19,0.16-0.34,0.37-0.43,0.64v2.53h-0.41v-3.7H123.74z M127.83,239.92v0.95h0.77v0.33h-0.77v2.46c0,0.21,0.04,0.36,0.11,0.46
			c0.08,0.1,0.2,0.15,0.37,0.15c0.07,0,0.18-0.01,0.33-0.03l0.02,0.33c-0.11,0.04-0.25,0.06-0.44,0.06c-0.28,0-0.49-0.08-0.61-0.24
			c-0.13-0.16-0.19-0.4-0.19-0.72v-2.47h-0.68v-0.33h0.68v-0.95H127.83z M131.15,241.21c-0.09-0.02-0.18-0.02-0.28-0.02
			c-0.26,0-0.47,0.07-0.65,0.22c-0.18,0.14-0.3,0.35-0.38,0.62v2.54h-0.41v-3.7h0.4l0.01,0.59c0.22-0.44,0.56-0.66,1.04-0.66
			c0.11,0,0.2,0.01,0.27,0.04L131.15,241.21z M134,244.56c-0.04-0.12-0.07-0.29-0.08-0.52c-0.14,0.19-0.33,0.33-0.55,0.43
			c-0.22,0.1-0.46,0.15-0.7,0.15c-0.36,0-0.64-0.1-0.87-0.3c-0.22-0.2-0.33-0.45-0.33-0.75c0-0.36,0.15-0.65,0.45-0.85
			c0.3-0.21,0.72-0.31,1.25-0.31h0.74v-0.42c0-0.26-0.08-0.47-0.25-0.62c-0.16-0.15-0.4-0.23-0.71-0.23c-0.29,0-0.52,0.07-0.71,0.22
			c-0.19,0.15-0.28,0.32-0.28,0.53l-0.41,0c0-0.29,0.14-0.55,0.41-0.76c0.27-0.22,0.61-0.32,1.01-0.32c0.41,0,0.74,0.1,0.97,0.31
			c0.24,0.21,0.36,0.49,0.37,0.86v1.75c0,0.36,0.04,0.62,0.11,0.8v0.04H134z M132.71,244.27c0.27,0,0.52-0.07,0.73-0.2
			c0.22-0.13,0.37-0.31,0.47-0.53v-0.81h-0.73c-0.41,0-0.73,0.08-0.96,0.23c-0.23,0.14-0.35,0.34-0.35,0.6
			c0,0.21,0.08,0.38,0.23,0.52C132.27,244.2,132.47,244.27,132.71,244.27z M137.63,243.62c0-0.2-0.08-0.37-0.25-0.49
			c-0.16-0.12-0.41-0.22-0.74-0.29c-0.33-0.07-0.58-0.15-0.76-0.24c-0.18-0.09-0.32-0.2-0.4-0.33c-0.09-0.13-0.13-0.29-0.13-0.47
			c0-0.29,0.12-0.53,0.37-0.72c0.24-0.19,0.56-0.29,0.94-0.29c0.41,0,0.74,0.1,0.99,0.31c0.25,0.2,0.38,0.47,0.38,0.8h-0.41
			c0-0.22-0.09-0.4-0.27-0.54c-0.18-0.14-0.41-0.21-0.68-0.21c-0.27,0-0.49,0.06-0.65,0.18c-0.16,0.12-0.24,0.27-0.24,0.46
			c0,0.18,0.07,0.33,0.2,0.43c0.14,0.1,0.38,0.19,0.74,0.28c0.36,0.08,0.63,0.17,0.81,0.27c0.18,0.1,0.31,0.21,0.4,0.35
			c0.09,0.13,0.13,0.3,0.13,0.49c0,0.31-0.13,0.56-0.38,0.75c-0.25,0.19-0.58,0.28-0.98,0.28c-0.43,0-0.78-0.1-1.05-0.31
			c-0.27-0.21-0.4-0.47-0.4-0.79h0.41c0.02,0.24,0.12,0.43,0.3,0.56c0.19,0.13,0.43,0.2,0.74,0.2c0.28,0,0.51-0.06,0.69-0.19
			C137.55,243.97,137.63,243.82,137.63,243.62z M140.4,244.63c-0.31,0-0.6-0.08-0.85-0.23c-0.25-0.15-0.45-0.37-0.59-0.65
			c-0.14-0.28-0.21-0.59-0.21-0.93v-0.15c0-0.36,0.07-0.68,0.21-0.96c0.14-0.28,0.33-0.51,0.58-0.67c0.25-0.16,0.51-0.25,0.8-0.25
			c0.45,0,0.8,0.15,1.07,0.46c0.26,0.3,0.4,0.72,0.4,1.25v0.23h-2.64v0.08c0,0.42,0.12,0.77,0.36,1.05
			c0.24,0.28,0.54,0.42,0.91,0.42c0.22,0,0.41-0.04,0.58-0.12c0.17-0.08,0.32-0.21,0.46-0.38l0.26,0.2
			C141.41,244.42,140.97,244.63,140.4,244.63z M140.32,241.15c-0.31,0-0.57,0.11-0.78,0.34c-0.21,0.23-0.34,0.53-0.38,0.91h2.22
			v-0.04c-0.01-0.36-0.11-0.65-0.3-0.87C140.88,241.26,140.63,241.15,140.32,241.15z M142.97,240.87l0.01,0.63
			c0.14-0.23,0.31-0.4,0.52-0.52c0.21-0.12,0.44-0.18,0.69-0.18c0.4,0,0.69,0.11,0.89,0.33c0.19,0.22,0.29,0.56,0.29,1.01v2.43
			h-0.41v-2.43c0-0.33-0.07-0.58-0.21-0.74c-0.14-0.16-0.36-0.24-0.66-0.24c-0.25,0-0.48,0.08-0.67,0.24
			c-0.19,0.16-0.34,0.37-0.43,0.64v2.53h-0.41v-3.7H142.97z M145.18,239.46c0,0.22-0.07,0.4-0.19,0.53c-0.13,0.13-0.29,0.2-0.47,0.2
			c-0.17,0-0.34-0.06-0.51-0.19c-0.16-0.12-0.31-0.19-0.44-0.19c-0.11,0-0.2,0.04-0.27,0.11c-0.07,0.07-0.11,0.17-0.11,0.3
			l-0.31-0.01c0-0.21,0.06-0.38,0.18-0.52c0.13-0.14,0.29-0.21,0.48-0.21c0.11,0,0.2,0.02,0.28,0.06c0.08,0.04,0.15,0.08,0.22,0.13
			c0.07,0.05,0.14,0.09,0.21,0.13c0.07,0.04,0.15,0.06,0.25,0.06c0.1,0,0.19-0.04,0.27-0.11c0.07-0.08,0.11-0.18,0.11-0.3
			L145.18,239.46z M148.77,244.56c-0.04-0.12-0.07-0.29-0.08-0.52c-0.14,0.19-0.33,0.33-0.55,0.43c-0.22,0.1-0.46,0.15-0.7,0.15
			c-0.36,0-0.64-0.1-0.87-0.3c-0.22-0.2-0.33-0.45-0.33-0.75c0-0.36,0.15-0.65,0.45-0.85c0.3-0.21,0.72-0.31,1.26-0.31h0.74v-0.42
			c0-0.26-0.08-0.47-0.25-0.62c-0.16-0.15-0.4-0.23-0.71-0.23c-0.28,0-0.52,0.07-0.71,0.22c-0.19,0.15-0.28,0.32-0.28,0.53l-0.41,0
			c0-0.29,0.14-0.55,0.41-0.76c0.27-0.22,0.61-0.32,1.01-0.32c0.41,0,0.74,0.1,0.97,0.31c0.24,0.21,0.36,0.49,0.37,0.86v1.75
			c0,0.36,0.04,0.62,0.11,0.8v0.04H148.77z M147.48,244.27c0.27,0,0.52-0.07,0.73-0.2c0.22-0.13,0.37-0.31,0.47-0.53v-0.81h-0.73
			c-0.41,0-0.73,0.08-0.96,0.23c-0.23,0.14-0.35,0.34-0.35,0.6c0,0.21,0.08,0.38,0.23,0.52
			C147.03,244.2,147.23,244.27,147.48,244.27z"/>
		<path class="st9" d="M157.56,264.89c0,0.2-0.03,0.35-0.07,0.44c-0.04,0.1-0.14,0.22-0.29,0.37c-0.15,0.15-0.25,0.25-0.29,0.3
			c-0.13,0.17-0.2,0.36-0.2,0.58c0,0.21,0.05,0.37,0.16,0.49c0.11,0.11,0.27,0.17,0.48,0.17c0.19,0,0.35-0.06,0.46-0.17
			c0.12-0.11,0.18-0.27,0.18-0.46h0.29c0,0.27-0.09,0.49-0.26,0.64c-0.17,0.16-0.4,0.24-0.67,0.24c-0.29,0-0.52-0.08-0.68-0.24
			c-0.16-0.16-0.25-0.38-0.25-0.67c0-0.18,0.04-0.35,0.13-0.52c0.09-0.17,0.24-0.36,0.48-0.58c0.14-0.12,0.21-0.26,0.22-0.44
			l0.01-0.17H157.56z M157.6,264.07c0,0.05-0.02,0.1-0.05,0.14c-0.04,0.04-0.08,0.06-0.15,0.06c-0.06,0-0.11-0.02-0.15-0.06
			c-0.04-0.04-0.05-0.09-0.05-0.14c0-0.05,0.02-0.1,0.05-0.14c0.04-0.04,0.09-0.06,0.15-0.06c0.06,0,0.11,0.02,0.15,0.06
			C157.58,263.97,157.6,264.02,157.6,264.07z M161.58,264.98c0,0.33-0.06,0.61-0.17,0.86c-0.11,0.25-0.27,0.44-0.48,0.57
			c-0.21,0.13-0.45,0.2-0.73,0.2c-0.41,0-0.75-0.15-1.01-0.44c-0.26-0.3-0.38-0.7-0.38-1.2v-0.37c0-0.32,0.06-0.61,0.17-0.86
			c0.12-0.25,0.28-0.44,0.49-0.58c0.21-0.14,0.45-0.2,0.73-0.2c0.27,0,0.51,0.07,0.72,0.2c0.21,0.13,0.37,0.32,0.49,0.56
			s0.17,0.52,0.18,0.84V264.98z M161.28,264.59c0-0.43-0.1-0.76-0.29-1.01c-0.19-0.24-0.46-0.36-0.8-0.36
			c-0.33,0-0.59,0.12-0.79,0.37c-0.2,0.24-0.29,0.58-0.29,1.02v0.37c0,0.42,0.1,0.76,0.29,1c0.19,0.25,0.46,0.37,0.8,0.37
			c0.34,0,0.61-0.12,0.8-0.36c0.19-0.24,0.29-0.58,0.29-1.02V264.59z M162.6,266.56h-0.29v-3.75h0.29V266.56z M164.22,266.16
			l0.8-2.24h0.3l-0.99,2.64h-0.24l-0.99-2.64h0.3L164.22,266.16z M166.13,266.56h-0.29v-2.64h0.29V266.56z M165.78,263.16
			c0-0.05,0.02-0.1,0.05-0.14c0.04-0.04,0.08-0.06,0.15-0.06s0.11,0.02,0.15,0.06c0.04,0.04,0.06,0.08,0.06,0.14
			c0,0.06-0.02,0.1-0.06,0.14c-0.04,0.04-0.09,0.06-0.15,0.06s-0.11-0.02-0.15-0.06C165.8,263.26,165.78,263.21,165.78,263.16z
			 M166.81,265.22c0-0.41,0.09-0.74,0.27-0.98c0.18-0.24,0.43-0.37,0.75-0.37c0.36,0,0.63,0.14,0.82,0.42v-1.48h0.29v3.75h-0.27
			l-0.01-0.35c-0.19,0.27-0.46,0.4-0.82,0.4c-0.31,0-0.55-0.12-0.74-0.37c-0.18-0.25-0.28-0.58-0.28-0.99V265.22z M167.1,265.27
			c0,0.34,0.07,0.6,0.2,0.8c0.13,0.19,0.33,0.29,0.57,0.29c0.36,0,0.62-0.16,0.77-0.48v-1.24c-0.15-0.34-0.4-0.52-0.76-0.52
			c-0.24,0-0.44,0.1-0.57,0.29C167.17,264.61,167.1,264.89,167.1,265.27z M171.37,266.56c-0.03-0.08-0.05-0.21-0.06-0.37
			c-0.1,0.13-0.23,0.24-0.39,0.31c-0.16,0.07-0.33,0.11-0.5,0.11c-0.25,0-0.46-0.07-0.62-0.21c-0.16-0.14-0.23-0.32-0.23-0.54
			c0-0.26,0.11-0.46,0.32-0.61c0.21-0.15,0.51-0.23,0.9-0.23h0.53v-0.3c0-0.19-0.06-0.34-0.17-0.44c-0.12-0.11-0.29-0.16-0.51-0.16
			c-0.2,0-0.37,0.05-0.51,0.16c-0.13,0.1-0.2,0.23-0.2,0.38l-0.29,0c0-0.21,0.1-0.39,0.29-0.54c0.2-0.15,0.44-0.23,0.72-0.23
			c0.29,0,0.53,0.07,0.7,0.22c0.17,0.15,0.26,0.35,0.26,0.62v1.25c0,0.26,0.03,0.45,0.08,0.57v0.03H171.37z M170.45,266.35
			c0.19,0,0.37-0.05,0.52-0.14c0.15-0.09,0.27-0.22,0.34-0.38v-0.58h-0.52c-0.29,0-0.52,0.06-0.68,0.16
			c-0.16,0.1-0.25,0.24-0.25,0.42c0,0.15,0.05,0.27,0.16,0.37C170.13,266.31,170.28,266.35,170.45,266.35z M173.96,265.89
			c0-0.14-0.06-0.26-0.18-0.35c-0.12-0.09-0.29-0.16-0.52-0.21c-0.24-0.05-0.42-0.11-0.55-0.17c-0.13-0.07-0.22-0.15-0.29-0.24
			c-0.06-0.09-0.09-0.21-0.09-0.34c0-0.21,0.09-0.38,0.26-0.52c0.17-0.14,0.4-0.2,0.67-0.2c0.29,0,0.53,0.07,0.71,0.22
			c0.18,0.14,0.27,0.33,0.27,0.57h-0.29c0-0.15-0.06-0.28-0.2-0.39c-0.13-0.1-0.29-0.15-0.49-0.15c-0.19,0-0.35,0.04-0.46,0.13
			c-0.12,0.08-0.17,0.2-0.17,0.33c0,0.13,0.05,0.23,0.14,0.31c0.1,0.07,0.27,0.14,0.53,0.2c0.26,0.06,0.45,0.12,0.58,0.19
			c0.13,0.07,0.22,0.15,0.29,0.25c0.06,0.1,0.09,0.21,0.09,0.35c0,0.22-0.09,0.4-0.27,0.54c-0.18,0.13-0.41,0.2-0.7,0.2
			c-0.31,0-0.56-0.07-0.75-0.22c-0.19-0.15-0.29-0.34-0.29-0.57h0.29c0.01,0.17,0.08,0.31,0.21,0.4c0.13,0.09,0.31,0.14,0.53,0.14
			c0.2,0,0.37-0.05,0.49-0.13C173.9,266.14,173.96,266.03,173.96,265.89z M175.37,263.25v0.68h0.55v0.24h-0.55v1.76
			c0,0.15,0.03,0.26,0.08,0.33c0.05,0.07,0.14,0.11,0.27,0.11c0.05,0,0.13-0.01,0.24-0.02l0.01,0.24c-0.08,0.03-0.18,0.04-0.31,0.04
			c-0.2,0-0.35-0.06-0.44-0.17c-0.09-0.12-0.14-0.29-0.14-0.52v-1.76h-0.49v-0.24h0.49v-0.68H175.37z M177.55,266.61
			c-0.23,0-0.43-0.06-0.61-0.17c-0.18-0.11-0.32-0.27-0.42-0.46c-0.1-0.2-0.15-0.42-0.15-0.67v-0.11c0-0.25,0.05-0.48,0.15-0.69
			c0.1-0.2,0.24-0.36,0.41-0.48c0.18-0.12,0.37-0.17,0.57-0.17c0.32,0,0.57,0.11,0.76,0.33c0.19,0.22,0.28,0.52,0.28,0.9v0.16h-1.88
			v0.06c0,0.3,0.09,0.55,0.26,0.75c0.17,0.2,0.39,0.3,0.65,0.3c0.16,0,0.29-0.03,0.41-0.09c0.12-0.06,0.23-0.15,0.33-0.27l0.18,0.14
			C178.27,266.46,177.95,266.61,177.55,266.61z M177.49,264.12c-0.22,0-0.4,0.08-0.56,0.24c-0.15,0.16-0.24,0.38-0.27,0.65h1.58
			v-0.03c-0.01-0.25-0.08-0.46-0.22-0.62C177.89,264.2,177.71,264.12,177.49,264.12z M180.65,266.56h-0.29v-3.75h0.29V266.56z
			 M183.11,266.56c-0.03-0.08-0.05-0.21-0.06-0.37c-0.1,0.13-0.23,0.24-0.39,0.31c-0.16,0.07-0.33,0.11-0.5,0.11
			c-0.25,0-0.46-0.07-0.62-0.21c-0.16-0.14-0.23-0.32-0.23-0.54c0-0.26,0.11-0.46,0.32-0.61c0.21-0.15,0.51-0.23,0.9-0.23h0.53v-0.3
			c0-0.19-0.06-0.34-0.18-0.44c-0.12-0.11-0.29-0.16-0.51-0.16c-0.2,0-0.37,0.05-0.5,0.16c-0.13,0.1-0.2,0.23-0.2,0.38l-0.29,0
			c0-0.21,0.1-0.39,0.29-0.54c0.2-0.15,0.44-0.23,0.72-0.23c0.29,0,0.53,0.07,0.69,0.22c0.17,0.15,0.26,0.35,0.26,0.62v1.25
			c0,0.26,0.03,0.45,0.08,0.57v0.03H183.11z M182.19,266.35c0.2,0,0.37-0.05,0.52-0.14c0.15-0.09,0.27-0.22,0.34-0.38v-0.58h-0.52
			c-0.29,0-0.52,0.06-0.68,0.16c-0.17,0.1-0.25,0.24-0.25,0.42c0,0.15,0.06,0.27,0.16,0.37
			C181.88,266.31,182.02,266.35,182.19,266.35z M186.32,266.37c0.2,0,0.37-0.06,0.51-0.17c0.14-0.11,0.21-0.26,0.23-0.45h0.28
			c-0.01,0.16-0.06,0.31-0.15,0.44c-0.09,0.13-0.22,0.24-0.37,0.31c-0.15,0.07-0.32,0.11-0.49,0.11c-0.35,0-0.62-0.12-0.83-0.36
			c-0.2-0.24-0.3-0.57-0.3-0.97v-0.09c0-0.26,0.04-0.49,0.14-0.69c0.09-0.2,0.22-0.35,0.39-0.46c0.17-0.11,0.37-0.16,0.6-0.16
			c0.29,0,0.53,0.09,0.72,0.26c0.19,0.17,0.29,0.4,0.3,0.68h-0.28c-0.01-0.21-0.09-0.37-0.23-0.5c-0.13-0.13-0.31-0.19-0.51-0.19
			c-0.26,0-0.47,0.1-0.62,0.29c-0.14,0.19-0.22,0.46-0.22,0.8v0.08c0,0.34,0.07,0.6,0.22,0.79
			C185.85,266.27,186.05,266.37,186.32,266.37z M187.76,265.2c0-0.25,0.05-0.48,0.15-0.69c0.1-0.2,0.24-0.36,0.42-0.47
			c0.18-0.11,0.38-0.17,0.61-0.17c0.35,0,0.64,0.12,0.85,0.37c0.22,0.24,0.33,0.57,0.33,0.98v0.06c0,0.26-0.05,0.49-0.15,0.69
			c-0.1,0.2-0.24,0.36-0.41,0.47c-0.18,0.11-0.38,0.17-0.61,0.17c-0.35,0-0.63-0.12-0.85-0.37c-0.22-0.25-0.33-0.57-0.33-0.98V265.2
			z M188.05,265.29c0,0.32,0.08,0.58,0.24,0.78c0.17,0.2,0.38,0.3,0.65,0.3c0.26,0,0.48-0.1,0.64-0.3c0.17-0.2,0.25-0.47,0.25-0.8
			v-0.06c0-0.2-0.04-0.39-0.11-0.55s-0.18-0.3-0.32-0.39c-0.13-0.09-0.29-0.14-0.46-0.14c-0.26,0-0.47,0.1-0.64,0.31
			c-0.17,0.2-0.25,0.47-0.25,0.8V265.29z M191,263.92l0.01,0.45c0.1-0.16,0.22-0.29,0.37-0.37c0.15-0.09,0.31-0.13,0.49-0.13
			c0.28,0,0.49,0.08,0.63,0.24c0.14,0.16,0.21,0.4,0.21,0.72v1.73h-0.29v-1.74c0-0.24-0.05-0.41-0.15-0.53
			c-0.1-0.12-0.25-0.17-0.47-0.17c-0.18,0-0.34,0.06-0.48,0.17c-0.14,0.11-0.24,0.27-0.31,0.46v1.81h-0.29v-2.64H191z
			 M193.93,263.25v0.68h0.55v0.24h-0.55v1.76c0,0.15,0.03,0.26,0.08,0.33c0.05,0.07,0.14,0.11,0.27,0.11c0.05,0,0.13-0.01,0.24-0.02
			l0.01,0.24c-0.08,0.03-0.18,0.04-0.31,0.04c-0.2,0-0.35-0.06-0.44-0.17c-0.09-0.12-0.14-0.29-0.14-0.52v-1.76h-0.49v-0.24h0.49
			v-0.68H193.93z M196.3,264.17c-0.06-0.01-0.13-0.02-0.2-0.02c-0.18,0-0.34,0.05-0.46,0.15c-0.13,0.1-0.22,0.25-0.27,0.44v1.81
			h-0.29v-2.64h0.29l0,0.42c0.15-0.31,0.4-0.47,0.75-0.47c0.08,0,0.14,0.01,0.19,0.03L196.3,264.17z M198.33,266.56
			c-0.03-0.08-0.05-0.21-0.06-0.37c-0.1,0.13-0.23,0.24-0.39,0.31c-0.16,0.07-0.33,0.11-0.5,0.11c-0.25,0-0.46-0.07-0.62-0.21
			c-0.16-0.14-0.23-0.32-0.23-0.54c0-0.26,0.11-0.46,0.32-0.61c0.21-0.15,0.51-0.23,0.9-0.23h0.53v-0.3c0-0.19-0.06-0.34-0.17-0.44
			c-0.12-0.11-0.29-0.16-0.51-0.16c-0.2,0-0.37,0.05-0.51,0.16c-0.13,0.1-0.2,0.23-0.2,0.38l-0.29,0c0-0.21,0.1-0.39,0.29-0.54
			c0.19-0.15,0.44-0.23,0.72-0.23c0.29,0,0.53,0.07,0.7,0.22c0.17,0.15,0.26,0.35,0.26,0.62v1.25c0,0.26,0.03,0.45,0.08,0.57v0.03
			H198.33z M197.41,266.35c0.2,0,0.37-0.05,0.52-0.14c0.15-0.09,0.27-0.22,0.34-0.38v-0.58h-0.52c-0.29,0-0.52,0.06-0.68,0.16
			c-0.16,0.1-0.25,0.24-0.25,0.42c0,0.15,0.05,0.27,0.16,0.37C197.1,266.31,197.24,266.35,197.41,266.35z M200.93,265.89
			c0-0.14-0.06-0.26-0.18-0.35c-0.12-0.09-0.29-0.16-0.53-0.21c-0.23-0.05-0.42-0.11-0.55-0.17c-0.13-0.07-0.23-0.15-0.29-0.24
			c-0.06-0.09-0.09-0.21-0.09-0.34c0-0.21,0.09-0.38,0.26-0.52c0.17-0.14,0.4-0.2,0.67-0.2c0.29,0,0.53,0.07,0.71,0.22
			c0.18,0.14,0.27,0.33,0.27,0.57h-0.29c0-0.15-0.07-0.28-0.2-0.39c-0.13-0.1-0.29-0.15-0.49-0.15c-0.19,0-0.35,0.04-0.46,0.13
			c-0.12,0.08-0.17,0.2-0.17,0.33c0,0.13,0.05,0.23,0.14,0.31c0.1,0.07,0.27,0.14,0.53,0.2c0.26,0.06,0.45,0.12,0.58,0.19
			c0.13,0.07,0.22,0.15,0.29,0.25s0.09,0.21,0.09,0.35c0,0.22-0.09,0.4-0.27,0.54c-0.18,0.13-0.41,0.2-0.7,0.2
			c-0.31,0-0.56-0.07-0.75-0.22c-0.19-0.15-0.29-0.34-0.29-0.57h0.29c0.01,0.17,0.08,0.31,0.22,0.4c0.13,0.09,0.31,0.14,0.53,0.14
			c0.2,0,0.37-0.05,0.49-0.13C200.86,266.14,200.93,266.03,200.93,265.89z M202.9,266.61c-0.22,0-0.43-0.06-0.61-0.17
			c-0.18-0.11-0.32-0.27-0.42-0.46c-0.1-0.2-0.15-0.42-0.15-0.67v-0.11c0-0.25,0.05-0.48,0.15-0.69c0.1-0.2,0.24-0.36,0.41-0.48
			c0.18-0.12,0.37-0.17,0.57-0.17c0.32,0,0.57,0.11,0.76,0.33c0.19,0.22,0.28,0.52,0.28,0.9v0.16h-1.88v0.06
			c0,0.3,0.09,0.55,0.26,0.75c0.17,0.2,0.39,0.3,0.65,0.3c0.16,0,0.29-0.03,0.41-0.09c0.12-0.06,0.23-0.15,0.33-0.27l0.18,0.14
			C203.62,266.46,203.31,266.61,202.9,266.61z M202.85,264.12c-0.22,0-0.41,0.08-0.56,0.24c-0.15,0.16-0.24,0.38-0.27,0.65h1.58
			v-0.03c-0.01-0.25-0.08-0.46-0.22-0.62C203.25,264.2,203.07,264.12,202.85,264.12z M204.74,263.92l0.01,0.45
			c0.1-0.16,0.22-0.29,0.37-0.37c0.15-0.09,0.31-0.13,0.49-0.13c0.28,0,0.49,0.08,0.63,0.24c0.14,0.16,0.21,0.4,0.21,0.72v1.73
			h-0.29v-1.74c0-0.24-0.05-0.41-0.15-0.53c-0.1-0.12-0.26-0.17-0.47-0.17c-0.18,0-0.34,0.06-0.48,0.17
			c-0.14,0.11-0.24,0.27-0.31,0.46v1.81h-0.29v-2.64H204.74z M206.32,262.92c0,0.16-0.05,0.28-0.14,0.38
			c-0.09,0.1-0.2,0.14-0.34,0.14c-0.12,0-0.24-0.05-0.36-0.13c-0.12-0.09-0.22-0.14-0.31-0.14c-0.08,0-0.14,0.03-0.19,0.08
			c-0.05,0.05-0.08,0.12-0.08,0.21l-0.22-0.01c0-0.15,0.04-0.27,0.13-0.37c0.09-0.1,0.2-0.15,0.34-0.15c0.08,0,0.15,0.01,0.2,0.04
			c0.06,0.03,0.11,0.06,0.16,0.09s0.1,0.07,0.15,0.09c0.05,0.03,0.11,0.04,0.17,0.04c0.08,0,0.14-0.03,0.19-0.08
			c0.05-0.05,0.08-0.13,0.08-0.22L206.32,262.92z M208.88,266.56c-0.03-0.08-0.05-0.21-0.06-0.37c-0.1,0.13-0.23,0.24-0.39,0.31
			c-0.16,0.07-0.33,0.11-0.5,0.11c-0.25,0-0.46-0.07-0.62-0.21c-0.16-0.14-0.23-0.32-0.23-0.54c0-0.26,0.11-0.46,0.32-0.61
			c0.22-0.15,0.51-0.23,0.9-0.23h0.53v-0.3c0-0.19-0.06-0.34-0.18-0.44c-0.11-0.11-0.28-0.16-0.51-0.16c-0.2,0-0.37,0.05-0.51,0.16
			c-0.13,0.1-0.2,0.23-0.2,0.38l-0.29,0c0-0.21,0.1-0.39,0.29-0.54c0.2-0.15,0.43-0.23,0.72-0.23c0.29,0,0.53,0.07,0.7,0.22
			c0.17,0.15,0.26,0.35,0.26,0.62v1.25c0,0.26,0.03,0.45,0.08,0.57v0.03H208.88z M207.96,266.35c0.2,0,0.37-0.05,0.52-0.14
			c0.15-0.09,0.27-0.22,0.34-0.38v-0.58h-0.52c-0.29,0-0.52,0.06-0.68,0.16c-0.16,0.1-0.25,0.24-0.25,0.42
			c0,0.15,0.05,0.27,0.16,0.37C207.64,266.31,207.79,266.35,207.96,266.35z M210.43,265.58c0-0.19,0.03-0.35,0.08-0.46
			s0.15-0.26,0.32-0.41c0.16-0.16,0.26-0.27,0.31-0.34c0.05-0.07,0.08-0.14,0.11-0.22c0.03-0.08,0.04-0.17,0.04-0.27
			c0-0.2-0.06-0.36-0.16-0.48c-0.11-0.12-0.26-0.17-0.45-0.17c-0.2,0-0.35,0.06-0.47,0.17c-0.12,0.11-0.18,0.26-0.18,0.45h-0.29
			c0-0.27,0.09-0.48,0.27-0.64c0.18-0.16,0.4-0.24,0.68-0.24c0.28,0,0.5,0.08,0.66,0.25c0.16,0.16,0.24,0.38,0.24,0.66
			c0,0.18-0.04,0.34-0.12,0.5c-0.08,0.15-0.23,0.33-0.45,0.54c-0.18,0.15-0.28,0.38-0.28,0.67H210.43z M210.39,266.39
			c0-0.05,0.02-0.1,0.05-0.14c0.04-0.04,0.09-0.06,0.15-0.06c0.06,0,0.11,0.02,0.15,0.06c0.04,0.04,0.06,0.08,0.06,0.14
			c0,0.05-0.02,0.1-0.06,0.14c-0.04,0.04-0.08,0.05-0.15,0.05c-0.06,0-0.11-0.02-0.15-0.05
			C210.41,266.49,210.39,266.45,210.39,266.39z"/>
		<path class="st3" d="M132,296.56h77c1.1,0,2,0.9,2,2v18c0,1.1-0.9,2-2,2h-77c-1.1,0-2-0.9-2-2v-18
			C130,297.46,130.89,296.56,132,296.56z"/>
		<path class="st6" d="M152.36,310.56h-0.84v-6.4h0.84V310.56z M158.42,310.56h-0.85l-3.22-4.93v4.93h-0.85v-6.4h0.85l3.23,4.95
			v-4.95h0.84V310.56z M164.23,309.73c-0.22,0.31-0.52,0.54-0.91,0.7c-0.39,0.15-0.84,0.23-1.35,0.23c-0.52,0-0.98-0.12-1.39-0.37
			c-0.4-0.25-0.72-0.6-0.94-1.05c-0.22-0.45-0.33-0.97-0.34-1.57v-0.56c0-0.96,0.22-1.71,0.67-2.24c0.45-0.53,1.08-0.79,1.9-0.79
			c0.67,0,1.21,0.17,1.61,0.51c0.41,0.34,0.66,0.82,0.75,1.45h-0.84c-0.16-0.85-0.66-1.27-1.51-1.27c-0.57,0-0.99,0.2-1.29,0.6
			c-0.29,0.39-0.44,0.97-0.44,1.72v0.52c0,0.72,0.16,1.29,0.49,1.71c0.33,0.42,0.77,0.63,1.33,0.63c0.32,0,0.59-0.04,0.83-0.11
			c0.24-0.07,0.43-0.19,0.59-0.35v-1.44h-1.48v-0.69h2.32V309.73z M167.58,307.98h-1.5v2.59h-0.85v-6.4h2.12
			c0.72,0,1.27,0.16,1.66,0.49c0.39,0.33,0.59,0.8,0.59,1.43c0,0.4-0.11,0.75-0.33,1.04c-0.21,0.3-0.51,0.52-0.9,0.66l1.5,2.72v0.05
			h-0.9L167.58,307.98z M166.08,307.29h1.3c0.42,0,0.75-0.11,1-0.33c0.25-0.22,0.37-0.51,0.37-0.87c0-0.39-0.12-0.7-0.36-0.91
			c-0.23-0.21-0.57-0.32-1.02-0.32h-1.29V307.29z M173.99,307.61h-2.77v2.27h3.22v0.69h-4.07v-6.4h4.02v0.69h-3.18v2.06h2.77V307.61
			z M176.96,307.71c-0.72-0.21-1.25-0.46-1.58-0.77c-0.33-0.3-0.49-0.68-0.49-1.12c0-0.5,0.2-0.92,0.6-1.25
			c0.4-0.33,0.93-0.5,1.57-0.5c0.44,0,0.83,0.08,1.17,0.26c0.35,0.17,0.61,0.4,0.8,0.7c0.19,0.3,0.28,0.62,0.28,0.98h-0.85
			c0-0.39-0.12-0.69-0.37-0.91c-0.25-0.22-0.59-0.33-1.04-0.33c-0.42,0-0.74,0.09-0.98,0.28c-0.23,0.18-0.35,0.44-0.35,0.76
			c0,0.26,0.11,0.48,0.33,0.66c0.22,0.18,0.6,0.34,1.13,0.49c0.53,0.15,0.95,0.32,1.25,0.5c0.3,0.18,0.52,0.39,0.67,0.63
			c0.15,0.24,0.22,0.52,0.22,0.85c0,0.52-0.2,0.93-0.61,1.25c-0.4,0.31-0.94,0.47-1.62,0.47c-0.44,0-0.85-0.08-1.23-0.25
			c-0.38-0.17-0.68-0.4-0.88-0.69c-0.2-0.29-0.31-0.62-0.31-1h0.85c0,0.39,0.14,0.69,0.43,0.92c0.29,0.22,0.67,0.33,1.15,0.33
			c0.44,0,0.79-0.09,1.02-0.27c0.24-0.18,0.36-0.43,0.36-0.74c0-0.31-0.11-0.55-0.33-0.73
			C177.94,308.05,177.54,307.88,176.96,307.71z M183.55,308.89h-2.68l-0.6,1.67h-0.87l2.44-6.4h0.74l2.45,6.4h-0.87L183.55,308.89z
			 M181.12,308.2h2.17l-1.09-2.99L181.12,308.2z M187.82,307.98h-1.5v2.59h-0.85v-6.4h2.12c0.72,0,1.27,0.16,1.66,0.49
			c0.39,0.33,0.59,0.8,0.59,1.43c0,0.4-0.11,0.75-0.33,1.04c-0.21,0.3-0.51,0.52-0.9,0.66l1.5,2.72v0.05h-0.9L187.82,307.98z
			 M186.32,307.29h1.3c0.42,0,0.75-0.11,1-0.33c0.25-0.22,0.37-0.51,0.37-0.87c0-0.39-0.12-0.7-0.36-0.91
			c-0.23-0.21-0.57-0.32-1.02-0.32h-1.29V307.29z"/>
	</g>
</g>
</svg>
