<?xml version="1.0" encoding="utf-8"?>
<!-- Generator: Adobe Illustrator 24.3.0, SVG Export Plug-In . SVG Version: 6.00 Build 0)  -->
<svg version="1.1" id="Capa_1" xmlns="http://www.w3.org/2000/svg" xmlns:xlink="http://www.w3.org/1999/xlink" x="0px" y="0px"
	 viewBox="0 0 201.26 124.72" style="enable-background:new 0 0 201.26 124.72;" xml:space="preserve">
<style type="text/css">
	.st0{fill:url(#SVGID_1_);}
	.st1{fill:url(#SVGID_2_);}
	.st2{opacity:0.8;}
	.st3{fill:url(#SVGID_3_);}
</style>
<g>
	
		<linearGradient id="SVGID_1_" gradientUnits="userSpaceOnUse" x1="227.9174" y1="2.9735" x2="336.7745" y2="-31.6735" gradientTransform="matrix(1 0 0 -1 -153.6378 57.8898)">
		<stop  offset="0" style="stop-color:#201B1B"/>
		<stop  offset="1" style="stop-color:#585858;stop-opacity:0"/>
	</linearGradient>
	<path class="st0" d="M149.65,114.85c-0.52,4.67-13.48,8.57-42.84,5.33c-29.37-3.24-49.55-6.78-49.04-11.45
		c0.51-4.67,58.85-89.11,88.39-89.85C205.68,17.41,144.79,104.25,149.65,114.85z"/>
	<path d="M138.64,3.36l50.91,29.81c5.72,3.35,5.69,8.72-0.07,12L77.37,108.99c-5.76,3.28-15.07,3.22-20.78-0.13L5.67,79.05
		c-5.72-3.35-5.69-8.72,0.07-12L117.85,3.23C123.61-0.04,132.92,0.01,138.64,3.36z"/>
	
		<linearGradient id="SVGID_2_" gradientUnits="userSpaceOnUse" x1="204.2524" y1="294.3065" x2="502.9494" y2="-253.9499" gradientTransform="matrix(0.8629 0.5053 0.8691 -0.4947 -272.2452 -7.1169)">
		<stop  offset="0" style="stop-color:#313030"/>
		<stop  offset="1" style="stop-color:#000000;stop-opacity:0"/>
	</linearGradient>
	<path class="st1" d="M144.68,6.9l50.91,29.81c5.72,3.35,5.69,8.72-0.07,12L82.24,113.19c-5.76,3.28-15.07,3.22-20.78-0.13
		L10.54,83.25c-5.72-3.35-5.69-8.72,0.07-12L123.89,6.77C129.65,3.49,138.96,3.55,144.68,6.9z"/>
	<g class="st2">
		
			<linearGradient id="SVGID_3_" gradientUnits="userSpaceOnUse" x1="248.8412" y1="153.8431" x2="310.9069" y2="159.9678" gradientTransform="matrix(0.8629 0.5053 0.8691 -0.4947 -279.1732 -7.1594)">
			<stop  offset="0" style="stop-color:#FFFFFF;stop-opacity:0.8"/>
			<stop  offset="1" style="stop-color:#EAEAEA"/>
		</linearGradient>
		<path class="st3" d="M137.75,6.86l45.74,26.78c5.72,3.35,5.69,8.72-0.07,12L78.25,105.49c-5.76,3.28-15.07,3.22-20.78-0.13
			L11.73,78.59c-5.72-3.35-5.69-8.72,0.07-12L116.96,6.73C122.72,3.45,132.03,3.51,137.75,6.86z"/>
	</g>
</g>
</svg>
