<?xml version="1.0" encoding="utf-8"?>
<!-- Generator: Adobe Illustrator 24.3.0, SVG Export Plug-In . SVG Version: 6.00 Build 0)  -->
<svg version="1.1" id="Capa_1" xmlns="http://www.w3.org/2000/svg" xmlns:xlink="http://www.w3.org/1999/xlink" x="0px" y="0px"
	 viewBox="0 0 1408.82 481.89" style="enable-background:new 0 0 1408.82 481.89;" xml:space="preserve">
<style type="text/css">
	.st0{clip-path:url(#SVGID_2_);}
	.st1{fill:#FFFFFF;}
	.st2{fill:#E4E4E4;}
	.st3{clip-path:url(#SVGID_4_);}
	.st4{clip-path:url(#SVGID_6_);}
</style>
<g>
	<defs>
		<rect id="SVGID_1_" x="2.41" y="1.94" width="343" height="478"/>
	</defs>
	<clipPath id="SVGID_2_">
		<use xlink:href="#SVGID_1_"  style="overflow:visible;"/>
	</clipPath>
	<g class="st0">
		<g>
			<path class="st1" d="M238.77,43.27H109.05c-15.01,0-27.17,11.05-27.17,24.67v284.33c0,13.62,12.16,24.67,27.17,24.67h129.73
				c15.01,0,27.17-11.05,27.17-24.67V67.94C265.94,54.31,253.78,43.27,238.77,43.27z"/>
		</g>
		<path class="st2" d="M234.02,53.97H112.71c-10.5,0-19.02,7.73-19.02,17.27v277.45c0,9.54,8.51,17.27,19.02,17.27h121.31
			c10.5,0,19.02-7.73,19.02-17.27V71.24C253.04,61.71,244.52,53.97,234.02,53.97z"/>
		<path class="st1" d="M102.03,54.07v-1.59l143.48-0.23v1.85c-0.55,0.03-1.09,0.1-1.62,0.21c-1.27,0.23-2.46,0.77-3.42,1.56
			s-1.67,1.8-2.05,2.93c-1.18,3.51-3.57,6.58-6.82,8.76c-3.25,2.18-7.18,3.35-11.22,3.34H128.2c-4.13,0.04-8.16-1.15-11.47-3.4
			c-3.31-2.24-5.71-5.41-6.84-9.02C108.56,54.14,102.03,54.07,102.03,54.07z"/>
	</g>
</g>
<g>
	<defs>
		<rect id="SVGID_3_" x="543.41" y="1.94" width="343" height="478"/>
	</defs>
	<clipPath id="SVGID_4_">
		<use xlink:href="#SVGID_3_"  style="overflow:visible;"/>
	</clipPath>
	<g class="st3">
		<g>
			<path class="st1" d="M779.77,43.27H650.05c-15.01,0-27.17,11.05-27.17,24.67v284.33c0,13.62,12.16,24.67,27.17,24.67h129.73
				c15.01,0,27.17-11.05,27.17-24.67V67.94C806.94,54.31,794.78,43.27,779.77,43.27z"/>
		</g>
		<path class="st2" d="M775.02,53.97h-121.3c-10.5,0-19.02,7.73-19.02,17.27v277.45c0,9.54,8.51,17.27,19.02,17.27h121.3
			c10.5,0,19.02-7.73,19.02-17.27V71.24C794.04,61.71,785.52,53.97,775.02,53.97z"/>
		<path class="st1" d="M643.03,54.07v-1.59l143.48-0.23v1.85c-0.55,0.03-1.09,0.1-1.62,0.21c-1.27,0.23-2.46,0.77-3.42,1.56
			s-1.67,1.8-2.05,2.93c-1.18,3.51-3.57,6.58-6.82,8.76c-3.25,2.18-7.18,3.35-11.22,3.34H669.2c-4.13,0.04-8.16-1.15-11.47-3.4
			c-3.31-2.24-5.71-5.41-6.84-9.02C649.56,54.14,643.03,54.07,643.03,54.07z"/>
	</g>
</g>
<g>
	<defs>
		<rect id="SVGID_5_" x="1063.41" y="1.94" width="343" height="478"/>
	</defs>
	<clipPath id="SVGID_6_">
		<use xlink:href="#SVGID_5_"  style="overflow:visible;"/>
	</clipPath>
	<g class="st4">
		<g>
			<path class="st1" d="M1299.77,43.27h-129.72c-15.01,0-27.17,11.05-27.17,24.67v284.33c0,13.62,12.16,24.67,27.17,24.67h129.72
				c15.01,0,27.17-11.05,27.17-24.67V67.94C1326.94,54.31,1314.78,43.27,1299.77,43.27z"/>
		</g>
		<path class="st2" d="M1295.02,53.97h-121.31c-10.5,0-19.01,7.73-19.01,17.27v277.45c0,9.54,8.51,17.27,19.01,17.27h121.31
			c10.5,0,19.02-7.73,19.02-17.27V71.24C1314.04,61.71,1305.52,53.97,1295.02,53.97z"/>
		<path class="st1" d="M1163.03,54.07v-1.59l143.48-0.23v1.85c-0.54,0.03-1.09,0.1-1.62,0.21c-1.28,0.23-2.46,0.77-3.42,1.56
			c-0.97,0.79-1.68,1.8-2.06,2.93c-1.17,3.51-3.56,6.58-6.81,8.76c-3.25,2.18-7.19,3.35-11.23,3.34h-92.17
			c-4.13,0.04-8.16-1.15-11.47-3.4c-3.31-2.24-5.71-5.41-6.84-9.02C1169.56,54.14,1163.03,54.07,1163.03,54.07z"/>
	</g>
</g>
</svg>
