<?xml version="1.0" encoding="utf-8"?>
<!-- Generator: Adobe Illustrator 24.3.0, SVG Export Plug-In . SVG Version: 6.00 Build 0)  -->
<svg version="1.1" id="Capa_1" xmlns="http://www.w3.org/2000/svg" xmlns:xlink="http://www.w3.org/1999/xlink" x="0px" y="0px"
	 viewBox="0 0 17.6 17" style="enable-background:new 0 0 17.6 17;" xml:space="preserve">
<style type="text/css">
	.st0{fill:#F6C694;}
</style>
<path class="st0" d="M6.1,16.4c-0.2,0-0.3,0-0.5-0.1c-0.1-0.1-0.3-0.2-0.4-0.3l-4.7-6C0.5,9.8,0.4,9.6,0.3,9.4
	C0.2,9.2,0.2,9,0.2,8.8c0-0.2,0-0.4,0.1-0.6C0.4,8,0.5,7.8,0.6,7.7C0.7,7.5,0.8,7.4,1,7.3c0.1-0.1,0.3-0.1,0.5-0.1
	c0.2,0,0.3,0,0.5,0.1C2,7.4,2.2,7.5,2.3,7.7l3.8,4.9l9-11.7c0.2-0.3,0.5-0.5,0.9-0.5c0.3,0,0.6,0.2,0.9,0.5c0.2,0.3,0.4,0.7,0.4,1.1
	c0,0.4-0.1,0.8-0.4,1.1L7,16c-0.1,0.1-0.2,0.3-0.4,0.3C6.4,16.4,6.3,16.4,6.1,16.4z"/>
</svg>
