<?xml version="1.0" encoding="utf-8"?>
<!-- Generator: Adobe Illustrator 24.3.0, SVG Export Plug-In . SVG Version: 6.00 Build 0)  -->
<svg version="1.1" id="Capa_1" xmlns="http://www.w3.org/2000/svg" xmlns:xlink="http://www.w3.org/1999/xlink" x="0px" y="0px"
	 viewBox="0 0 289.1 172.9" style="enable-background:new 0 0 289.1 172.9;" xml:space="preserve">
<style type="text/css">
	.st0{fill:#9FACD2;fill-opacity:0.45;}
	.st1{fill:#7979A8;}
	.st2{fill:#E4E4E4;fill-opacity:0.9;}
</style>
<path class="st0" d="M33.6,1.4h222c17.7,0,32,14.3,32,32v106c0,17.7-14.3,32-32,32h-222c-17.7,0-32-14.3-32-32v-106
	C1.6,15.7,15.9,1.4,33.6,1.4z"/>
<path class="st1" d="M111.6,25.4h66c6.1,0,11,4.9,11,11v34c0,6.1-4.9,11-11,11h-66c-6.1,0-11-4.9-11-11v-34
	C100.6,30.3,105.5,25.4,111.6,25.4z"/>
<path class="st2" d="M114.6,35.4h14c1.1,0,2,0.9,2,2v4c0,1.1-0.9,2-2,2h-14c-1.1,0-2-0.9-2-2v-4C112.6,36.3,113.5,35.4,114.6,35.4z"
	/>
<path class="st2" d="M114.6,57.4h61c1.1,0,2,0.9,2,2v4c0,1.1-0.9,2-2,2h-61c-1.1,0-2-0.9-2-2v-4C112.6,58.3,113.5,57.4,114.6,57.4z"
	/>
<path d="M84.1,142.4c-0.1,0-0.2,0-0.2-0.1c-0.1-0.1-0.1-0.1-0.1-0.2v-9.1c0-0.1,0-0.2,0.1-0.2c0.1-0.1,0.1-0.1,0.2-0.1h3.2
	c1.4,0,2.4,0.3,3.1,1c0.6,0.6,1,1.6,1,2.8c0,0.3,0,0.6,0,1.1s0,0.8,0,1.1c0,0.9-0.2,1.6-0.4,2.2c-0.3,0.6-0.7,1-1.2,1.2
	c-0.6,0.3-1.3,0.4-2.3,0.4H84.1z M87.3,141.2c0.6,0,1.2-0.1,1.5-0.3c0.4-0.2,0.7-0.5,0.8-0.8c0.2-0.4,0.3-0.9,0.3-1.6
	c0-0.6,0-0.9,0-1.1c0-0.1,0-0.5,0-1c0-0.9-0.2-1.6-0.7-2c-0.4-0.4-1.1-0.6-2.1-0.6h-2.1v7.4H87.3z M97.6,142.5c-1,0-1.7-0.3-2.3-0.9
	c-0.6-0.6-0.9-1.4-0.9-2.4l0-0.5l0-0.5c0.1-1,0.4-1.8,1-2.4c0.6-0.6,1.3-0.9,2.3-0.9c1,0,1.8,0.3,2.4,1c0.6,0.7,0.9,1.5,0.9,2.7v0.2
	c0,0.1,0,0.2-0.1,0.2c-0.1,0.1-0.1,0.1-0.2,0.1h-4.8v0.1c0,0.6,0.2,1.1,0.5,1.6c0.3,0.4,0.8,0.6,1.4,0.6c0.4,0,0.8-0.1,1.1-0.3
	c0.3-0.2,0.5-0.4,0.6-0.5c0.1-0.1,0.1-0.2,0.2-0.2c0,0,0.1,0,0.2,0h0.7c0.1,0,0.2,0,0.2,0.1s0.1,0.1,0.1,0.2c0,0.2-0.1,0.5-0.4,0.7
	c-0.3,0.3-0.6,0.5-1.1,0.8C98.8,142.4,98.2,142.5,97.6,142.5z M99.5,138.2L99.5,138.2c0-0.7-0.2-1.2-0.5-1.6
	c-0.3-0.4-0.8-0.6-1.4-0.6c-0.6,0-1.1,0.2-1.4,0.6c-0.3,0.4-0.5,0.9-0.5,1.6v0H99.5z M97.2,134c-0.1,0-0.2-0.1-0.2-0.2
	c0-0.1,0-0.1,0.1-0.2l1.1-1.3c0.1-0.1,0.2-0.2,0.2-0.2c0.1,0,0.2-0.1,0.3-0.1h1c0.1,0,0.1,0,0.2,0.1c0,0,0.1,0.1,0.1,0.2
	c0,0.1,0,0.1-0.1,0.2l-1.6,1.3c-0.1,0.1-0.1,0.1-0.2,0.1c-0.1,0-0.1,0-0.3,0H97.2z M107.6,142.5c-1,0-1.8-0.4-2.3-1.1v0.6
	c0,0.1,0,0.2-0.1,0.2c-0.1,0.1-0.1,0.1-0.2,0.1h-0.6c-0.1,0-0.2,0-0.2-0.1c-0.1-0.1-0.1-0.1-0.1-0.2v-9.3c0-0.1,0-0.2,0.1-0.2
	c0.1-0.1,0.1-0.1,0.2-0.1h0.7c0.1,0,0.2,0,0.2,0.1c0.1,0.1,0.1,0.1,0.1,0.2v3.2c0.6-0.7,1.3-1,2.3-1c1,0,1.7,0.3,2.2,1
	c0.5,0.6,0.8,1.4,0.8,2.4c0,0.1,0,0.2,0,0.4s0,0.3,0,0.4c0,1-0.3,1.8-0.8,2.4C109.3,142.2,108.6,142.5,107.6,142.5z M107.3,141.4
	c0.7,0,1.1-0.2,1.4-0.6c0.3-0.4,0.5-1,0.5-1.6c0-0.1,0-0.2,0-0.4c0-1.8-0.7-2.6-2-2.6c-0.6,0-1.1,0.2-1.4,0.6
	c-0.3,0.4-0.5,0.9-0.5,1.4l0,0.5l0,0.5c0,0.6,0.2,1.1,0.5,1.5C106.2,141.2,106.7,141.4,107.3,141.4z M114,133.7
	c-0.1,0-0.2,0-0.2-0.1c-0.1-0.1-0.1-0.1-0.1-0.2v-0.8c0-0.1,0-0.2,0.1-0.2c0.1-0.1,0.1-0.1,0.2-0.1h0.9c0.1,0,0.2,0,0.2,0.1
	c0.1,0.1,0.1,0.1,0.1,0.2v0.8c0,0.1,0,0.2-0.1,0.2c-0.1,0.1-0.1,0.1-0.2,0.1H114z M114.1,142.4c-0.1,0-0.2,0-0.2-0.1
	c-0.1-0.1-0.1-0.1-0.1-0.2v-6.6c0-0.1,0-0.2,0.1-0.2c0.1-0.1,0.1-0.1,0.2-0.1h0.7c0.1,0,0.2,0,0.2,0.1c0.1,0.1,0.1,0.1,0.1,0.2v6.6
	c0,0.1,0,0.2-0.1,0.2c-0.1,0.1-0.1,0.1-0.2,0.1H114.1z M121.5,142.4c-1.5,0-2.2-0.8-2.2-2.5v-3.7h-1.1c-0.1,0-0.2,0-0.2-0.1
	c-0.1-0.1-0.1-0.1-0.1-0.2v-0.5c0-0.1,0-0.2,0.1-0.2c0.1-0.1,0.1-0.1,0.2-0.1h1.1v-2.3c0-0.1,0-0.2,0.1-0.2c0.1-0.1,0.1-0.1,0.2-0.1
	h0.7c0.1,0,0.2,0,0.2,0.1c0.1,0.1,0.1,0.1,0.1,0.2v2.3h1.7c0.1,0,0.2,0,0.2,0.1c0.1,0.1,0.1,0.1,0.1,0.2v0.5c0,0.1,0,0.2-0.1,0.2
	c-0.1,0.1-0.1,0.1-0.2,0.1h-1.7v3.6c0,0.5,0.1,0.8,0.2,1.1c0.2,0.2,0.4,0.4,0.8,0.4h0.9c0.1,0,0.2,0,0.2,0.1
	c0.1,0.1,0.1,0.1,0.1,0.2v0.5c0,0.1,0,0.2-0.1,0.2c-0.1,0.1-0.1,0.1-0.2,0.1H121.5z M128.6,142.5c-1,0-1.8-0.3-2.4-0.9
	c-0.6-0.6-0.9-1.3-0.9-2.3l0-0.6l0-0.6c0-1,0.3-1.7,0.9-2.3c0.6-0.6,1.4-0.9,2.4-0.9c1,0,1.8,0.3,2.4,0.9c0.6,0.6,0.9,1.3,0.9,2.3
	c0,0.1,0,0.3,0,0.6s0,0.5,0,0.6c0,1-0.3,1.7-0.9,2.3C130.4,142.2,129.6,142.5,128.6,142.5z M128.6,141.4c0.6,0,1.1-0.2,1.4-0.6
	c0.3-0.4,0.5-0.9,0.6-1.6c0-0.1,0-0.3,0-0.5s0-0.4,0-0.5c0-0.7-0.2-1.2-0.6-1.6c-0.3-0.4-0.8-0.6-1.4-0.6s-1.1,0.2-1.4,0.6
	s-0.5,0.9-0.5,1.6l0,0.5l0,0.5c0,0.7,0.2,1.2,0.5,1.6S128,141.4,128.6,141.4z M139.6,143.5c-0.1,0-0.1,0-0.2-0.1s-0.1-0.1-0.1-0.2
	c0,0,0-0.1,0-0.2l4.8-11.5c0.1-0.2,0.2-0.3,0.4-0.3h0.5c0.1,0,0.1,0,0.2,0.1s0.1,0.1,0.1,0.2c0,0.1,0,0.1,0,0.2l-4.8,11.5
	c-0.1,0.2-0.2,0.3-0.4,0.3H139.6z M156.9,142.5c-1.3,0-2.2-0.3-2.9-1c-0.6-0.7-1-1.6-1-2.8c0-0.3,0-0.7,0-1.2c0-0.6,0-1,0-1.3
	c0-1.2,0.4-2.1,1.1-2.8c0.7-0.7,1.6-1,2.8-1c0.8,0,1.5,0.1,2.1,0.4c0.6,0.3,1,0.7,1.3,1.1c0.3,0.5,0.5,1,0.5,1.5v0
	c0,0.1,0,0.1-0.1,0.2c-0.1,0-0.1,0.1-0.2,0.1h-0.8c-0.2,0-0.3-0.1-0.4-0.3c-0.2-0.7-0.4-1.2-0.9-1.5c-0.4-0.3-1-0.4-1.7-0.4
	c-1.6,0-2.4,0.9-2.5,2.7c0,0.3,0,0.6,0,1.2s0,0.9,0,1.2c0.1,1.8,0.9,2.7,2.5,2.7c0.7,0,1.2-0.1,1.7-0.4c0.4-0.3,0.7-0.8,0.9-1.5
	c0-0.1,0.1-0.2,0.1-0.3c0.1,0,0.1-0.1,0.2-0.1h0.8c0.1,0,0.2,0,0.2,0.1c0.1,0,0.1,0.1,0.1,0.2c0,0.6-0.2,1.1-0.5,1.5
	c-0.3,0.5-0.7,0.9-1.3,1.2C158.4,142.4,157.7,142.5,156.9,142.5z M164.3,142.4c-0.1,0-0.2,0-0.2-0.1c-0.1-0.1-0.1-0.1-0.1-0.2v-6.6
	c0-0.1,0-0.2,0.1-0.2c0.1-0.1,0.1-0.1,0.2-0.1h0.6c0.1,0,0.2,0,0.2,0.1c0.1,0.1,0.1,0.1,0.1,0.2v0.6c0.4-0.6,1-1,2-1h0.5
	c0.1,0,0.2,0,0.2,0.1c0.1,0.1,0.1,0.1,0.1,0.2v0.6c0,0.1,0,0.2-0.1,0.2c-0.1,0.1-0.1,0.1-0.2,0.1h-0.8c-0.5,0-0.9,0.1-1.2,0.4
	c-0.3,0.3-0.4,0.7-0.4,1.2v4.1c0,0.1,0,0.2-0.1,0.2c-0.1,0.1-0.1,0.1-0.2,0.1H164.3z M173.5,142.5c-1,0-1.7-0.3-2.3-0.9
	c-0.6-0.6-0.9-1.4-0.9-2.4l0-0.5l0-0.5c0.1-1,0.4-1.8,1-2.4c0.6-0.6,1.3-0.9,2.3-0.9c1,0,1.8,0.3,2.4,1c0.6,0.7,0.9,1.5,0.9,2.7v0.2
	c0,0.1,0,0.2-0.1,0.2c-0.1,0.1-0.1,0.1-0.2,0.1h-4.8v0.1c0,0.6,0.2,1.1,0.5,1.6c0.3,0.4,0.8,0.6,1.4,0.6c0.4,0,0.8-0.1,1.1-0.3
	c0.3-0.2,0.5-0.4,0.6-0.5c0.1-0.1,0.1-0.2,0.2-0.2c0,0,0.1,0,0.2,0h0.7c0.1,0,0.2,0,0.2,0.1s0.1,0.1,0.1,0.2c0,0.2-0.1,0.5-0.4,0.7
	c-0.3,0.3-0.6,0.5-1.1,0.8C174.6,142.4,174.1,142.5,173.5,142.5z M175.4,138.2L175.4,138.2c0-0.7-0.2-1.2-0.5-1.6
	c-0.3-0.4-0.8-0.6-1.4-0.6s-1.1,0.2-1.4,0.6c-0.3,0.4-0.5,0.9-0.5,1.6v0H175.4z M173.1,134c-0.1,0-0.2-0.1-0.2-0.2
	c0-0.1,0-0.1,0.1-0.2l1-1.3c0.1-0.1,0.2-0.2,0.2-0.2c0.1,0,0.2-0.1,0.3-0.1h1c0.1,0,0.1,0,0.2,0.1c0,0,0.1,0.1,0.1,0.2
	c0,0.1,0,0.1-0.1,0.2l-1.6,1.3c-0.1,0.1-0.1,0.1-0.2,0.1c-0.1,0-0.1,0-0.3,0H173.1z M182.6,142.5c-1,0-1.7-0.3-2.2-1
	c-0.5-0.6-0.8-1.4-0.8-2.4l0-0.4l0-0.4c0-1,0.3-1.8,0.8-2.4c0.5-0.6,1.2-1,2.2-1c1,0,1.7,0.3,2.3,1v-3.2c0-0.1,0-0.2,0.1-0.2
	c0.1-0.1,0.1-0.1,0.2-0.1h0.7c0.1,0,0.2,0,0.2,0.1c0.1,0.1,0.1,0.1,0.1,0.2v9.3c0,0.1,0,0.2-0.1,0.2c-0.1,0.1-0.1,0.1-0.2,0.1h-0.6
	c-0.1,0-0.2,0-0.2-0.1c-0.1-0.1-0.1-0.1-0.1-0.2v-0.6C184.3,142.2,183.6,142.5,182.6,142.5z M182.9,141.4c0.6,0,1.1-0.2,1.4-0.6
	c0.3-0.4,0.5-0.9,0.5-1.5c0-0.1,0-0.3,0-0.5c0-0.3,0-0.4,0-0.5c0-0.6-0.2-1-0.5-1.4s-0.8-0.6-1.4-0.6c-0.7,0-1.1,0.2-1.5,0.6
	c-0.3,0.4-0.5,1-0.5,1.6l0,0.4C180.9,140.5,181.6,141.4,182.9,141.4z M189.9,133.7c-0.1,0-0.2,0-0.2-0.1c-0.1-0.1-0.1-0.1-0.1-0.2
	v-0.8c0-0.1,0-0.2,0.1-0.2c0.1-0.1,0.1-0.1,0.2-0.1h0.9c0.1,0,0.2,0,0.2,0.1c0.1,0.1,0.1,0.1,0.1,0.2v0.8c0,0.1,0,0.2-0.1,0.2
	c-0.1,0.1-0.1,0.1-0.2,0.1H189.9z M190,142.4c-0.1,0-0.2,0-0.2-0.1c-0.1-0.1-0.1-0.1-0.1-0.2v-6.6c0-0.1,0-0.2,0.1-0.2
	c0.1-0.1,0.1-0.1,0.2-0.1h0.7c0.1,0,0.2,0,0.2,0.1c0.1,0.1,0.1,0.1,0.1,0.2v6.6c0,0.1,0,0.2-0.1,0.2c-0.1,0.1-0.1,0.1-0.2,0.1H190z
	 M197.4,142.4c-1.5,0-2.2-0.8-2.2-2.5v-3.7h-1.1c-0.1,0-0.2,0-0.2-0.1c-0.1-0.1-0.1-0.1-0.1-0.2v-0.5c0-0.1,0-0.2,0.1-0.2
	c0.1-0.1,0.1-0.1,0.2-0.1h1.1v-2.3c0-0.1,0-0.2,0.1-0.2c0.1-0.1,0.1-0.1,0.2-0.1h0.7c0.1,0,0.2,0,0.2,0.1c0.1,0.1,0.1,0.1,0.1,0.2
	v2.3h1.7c0.1,0,0.2,0,0.2,0.1c0.1,0.1,0.1,0.1,0.1,0.2v0.5c0,0.1,0,0.2-0.1,0.2c-0.1,0.1-0.1,0.1-0.2,0.1h-1.7v3.6
	c0,0.5,0.1,0.8,0.2,1.1c0.2,0.2,0.4,0.4,0.8,0.4h0.9c0.1,0,0.2,0,0.2,0.1c0.1,0.1,0.1,0.1,0.1,0.2v0.5c0,0.1,0,0.2-0.1,0.2
	c-0.1,0.1-0.1,0.1-0.2,0.1H197.4z M204.5,142.5c-1,0-1.8-0.3-2.4-0.9c-0.6-0.6-0.9-1.3-0.9-2.3l0-0.6l0-0.6c0-1,0.3-1.7,0.9-2.3
	c0.6-0.6,1.4-0.9,2.4-0.9c1,0,1.8,0.3,2.4,0.9c0.6,0.6,0.9,1.3,0.9,2.3c0,0.1,0,0.3,0,0.6s0,0.5,0,0.6c0,1-0.3,1.7-0.9,2.3
	C206.3,142.2,205.5,142.5,204.5,142.5z M204.5,141.4c0.6,0,1.1-0.2,1.4-0.6c0.3-0.4,0.5-0.9,0.6-1.6c0-0.1,0-0.3,0-0.5s0-0.4,0-0.5
	c0-0.7-0.2-1.2-0.6-1.6c-0.3-0.4-0.8-0.6-1.4-0.6s-1.1,0.2-1.4,0.6c-0.3,0.4-0.5,0.9-0.5,1.6l0,0.5l0,0.5c0,0.7,0.2,1.2,0.5,1.6
	C203.4,141.2,203.9,141.4,204.5,141.4z"/>
</svg>
