<?xml version="1.0" encoding="utf-8"?>
<!-- Generator: Adobe Illustrator 24.3.0, SVG Export Plug-In . SVG Version: 6.00 Build 0)  -->
<svg version="1.1" id="Capa_1" xmlns="http://www.w3.org/2000/svg" xmlns:xlink="http://www.w3.org/1999/xlink" x="0px" y="0px"
	 viewBox="0 0 362.83 246.61" style="enable-background:new 0 0 362.83 246.61;" xml:space="preserve">
<style type="text/css">
	.st0{opacity:0.2;fill:url(#SVGID_1_);stroke:#000000;enable-background:new    ;}
	.st1{opacity:0.2;fill:url(#SVGID_2_);stroke:#000000;enable-background:new    ;}
	.st2{opacity:0.2;fill:url(#SVGID_3_);stroke:#000000;enable-background:new    ;}
	.st3{opacity:0.2;fill:url(#SVGID_4_);stroke:#000000;enable-background:new    ;}
	.st4{opacity:0.2;fill:url(#SVGID_5_);stroke:#000000;enable-background:new    ;}
	.st5{opacity:0.2;fill:url(#SVGID_6_);stroke:#000000;enable-background:new    ;}
	.st6{opacity:0.2;fill:url(#SVGID_7_);stroke:#000000;enable-background:new    ;}
	.st7{opacity:0.2;fill:url(#SVGID_8_);stroke:#000000;enable-background:new    ;}
	.st8{opacity:0.2;fill:url(#SVGID_9_);stroke:#000000;enable-background:new    ;}
	.st9{opacity:0.2;fill:url(#SVGID_10_);stroke:#000000;enable-background:new    ;}
	.st10{opacity:0.2;fill:url(#SVGID_11_);stroke:#000000;enable-background:new    ;}
	.st11{opacity:0.2;fill:url(#SVGID_12_);stroke:#000000;enable-background:new    ;}
	.st12{fill:none;stroke:#000000;stroke-linejoin:round;}
	.st13{opacity:0.6;fill:url(#SVGID_13_);enable-background:new    ;}
	.st14{fill:#C8B4B4;}
	.st15{fill:#CBACAC;}
</style>
<g>
	
		<linearGradient id="SVGID_1_" gradientUnits="userSpaceOnUse" x1="313.4099" y1="-248.0671" x2="604.0132" y2="-49.9492" gradientTransform="matrix(1 0 0 -1 -295.3701 3.6378)">
		<stop  offset="0" style="stop-color:#48499F"/>
		<stop  offset="1" style="stop-color:#F93D3D;stop-opacity:0.88"/>
	</linearGradient>
	<path class="st0" d="M113.98,76.16L113.98,76.16l52.05-27.18l0.01,0l0.01,0l16.28-9.24c0.7-0.39,1.52-0.73,2.45-0.99l1.17-0.33
		c1.26-0.36,2.23-0.9,2.8-1.56c1.89-2.2,8.24-2.26,11.17-0.11l3.78,2.78l0.01,0l0.01,0l7.51,5.18l0.01,0.01l0.01,0.01l21.18,13.06
		l0,0l40.93,25.57l0.01,0.01l44.16,29.1l0,0l24.92,16.14l0.01,0l13.16,8.33l3.79,2.79c3.62,2.66,2.33,6.06-2.85,7.52
		c-0.9,0.26-1.72,0.57-2.44,0.94l-61.91,31.97l-62.93,32.49l0,0l-43.03,22.68c-0.1,0.05-0.19,0.11-0.26,0.18
		c-0.24,0.22-0.88,0.23-1.23,0.01l-10.42-6.47l-0.01,0l-24.45-15.63l0,0L87.8,173.34l0,0l-45.16-28.67l0,0l-26.46-16.48
		c-0.2-0.13-0.38-0.27-0.51-0.41c-0.59-0.65-0.38-1.37,0.55-1.84L113.98,76.16z"/>
	
		<linearGradient id="SVGID_2_" gradientUnits="userSpaceOnUse" x1="305.0894" y1="-244.454" x2="595.6922" y2="-46.3358" gradientTransform="matrix(1 0 0 -1 -295.3701 3.6378)">
		<stop  offset="0" style="stop-color:#48499F"/>
		<stop  offset="1" style="stop-color:#F93D3D;stop-opacity:0.88"/>
	</linearGradient>
	<path class="st1" d="M105.66,72.55L105.66,72.55l52.05-27.18l0.01,0l0.01,0L174,36.12c0.7-0.39,1.52-0.73,2.44-0.99l1.17-0.33
		c1.26-0.36,2.23-0.9,2.8-1.56c1.9-2.2,8.24-2.26,11.17-0.11l3.78,2.78l0.01,0l0.01,0l7.51,5.18l0.01,0.01l0.01,0.01l21.18,13.06
		l0,0l40.93,25.57l0.01,0.01l44.16,29.1l0,0L334.12,125l0.01,0l13.16,8.33l3.79,2.79c3.62,2.66,2.33,6.06-2.85,7.52
		c-0.9,0.25-1.72,0.57-2.44,0.94l-61.91,31.97l-62.93,32.5l0,0l-43.03,22.68c-0.1,0.05-0.19,0.11-0.26,0.18
		c-0.24,0.22-0.88,0.23-1.23,0.01L166,225.45l-0.01,0l-24.45-15.63l0,0l-62.06-40.09l0,0l-45.16-28.67l0,0L7.85,124.57
		c-0.2-0.13-0.38-0.26-0.51-0.41c-0.59-0.65-0.38-1.37,0.54-1.84L105.66,72.55z"/>
	
		<linearGradient id="SVGID_3_" gradientUnits="userSpaceOnUse" x1="300.9578" y1="-247.2698" x2="591.561" y2="-49.1517" gradientTransform="matrix(1 0 0 -1 -295.3701 3.6378)">
		<stop  offset="0" style="stop-color:#48499F"/>
		<stop  offset="1" style="stop-color:#F93D3D;stop-opacity:0.88"/>
	</linearGradient>
	<path class="st2" d="M101.53,75.36L101.53,75.36l52.05-27.18l0.01,0l0.01,0l16.28-9.24c0.69-0.39,1.52-0.73,2.44-0.99l1.17-0.33
		c1.26-0.36,2.23-0.9,2.8-1.56c1.89-2.2,8.23-2.26,11.17-0.11l3.78,2.78l0.01,0l0.01,0l7.51,5.18l0.01,0.01l0.01,0.01l21.18,13.06
		l0,0l40.93,25.57l0.01,0.01l44.16,29.1l0,0l24.92,16.14l0.01,0l13.16,8.33l3.79,2.79c3.62,2.66,2.33,6.06-2.85,7.52
		c-0.9,0.26-1.72,0.57-2.44,0.94l-61.91,31.97l-62.93,32.49l0,0l-43.03,22.68c-0.1,0.05-0.19,0.11-0.26,0.18
		c-0.24,0.22-0.88,0.23-1.23,0.01l-10.42-6.47l-0.01,0l-24.45-15.63l0,0l-62.06-40.09l0,0l-45.16-28.67l0,0L3.71,127.39
		c-0.2-0.13-0.38-0.26-0.51-0.41c-0.59-0.65-0.38-1.37,0.54-1.84L101.53,75.36z"/>
	
		<linearGradient id="SVGID_4_" gradientUnits="userSpaceOnUse" x1="299.8683" y1="-249.2227" x2="590.472" y2="-51.1043" gradientTransform="matrix(1 0 0 -1 -295.3701 3.6378)">
		<stop  offset="0" style="stop-color:#48499F"/>
		<stop  offset="1" style="stop-color:#F93D3D;stop-opacity:0.88"/>
	</linearGradient>
	<path class="st3" d="M100.44,77.32L100.44,77.32l52.05-27.18l0.01,0l0.01,0l16.28-9.24c0.69-0.39,1.52-0.73,2.44-0.99l1.17-0.33
		c1.26-0.36,2.23-0.9,2.8-1.56c1.9-2.2,8.24-2.26,11.17-0.11l3.78,2.78l0.01,0l0.01,0l7.51,5.18l0.01,0.01l0.01,0.01l21.18,13.06
		l0,0l40.93,25.57l0.01,0.01l44.16,29.1l0,0l24.92,16.14l0,0l13.16,8.33l3.79,2.79c3.62,2.66,2.33,6.06-2.85,7.52
		c-0.9,0.25-1.72,0.57-2.44,0.94l-61.91,31.97l-62.93,32.5l0,0l-43.03,22.68c-0.1,0.05-0.19,0.11-0.26,0.18
		c-0.24,0.22-0.88,0.23-1.23,0.01l-10.42-6.47l-0.01,0l-24.45-15.63l0,0L74.26,174.5l0,0l-45.16-28.67l0,0L2.62,129.34
		c-0.2-0.13-0.38-0.26-0.51-0.41c-0.59-0.65-0.38-1.37,0.54-1.84L100.44,77.32z"/>
	
		<linearGradient id="SVGID_5_" gradientUnits="userSpaceOnUse" x1="312.6488" y1="-244.8481" x2="603.2522" y2="-46.7303" gradientTransform="matrix(1 0 0 -1 -295.3701 3.6378)">
		<stop  offset="0" style="stop-color:#48499F"/>
		<stop  offset="1" style="stop-color:#F93D3D;stop-opacity:0.88"/>
	</linearGradient>
	<path class="st4" d="M113.22,72.94L113.22,72.94l52.05-27.18l0.01,0l0.01,0l16.27-9.24c0.7-0.39,1.52-0.73,2.44-0.99l1.17-0.33
		c1.26-0.36,2.23-0.9,2.8-1.56c1.89-2.2,8.23-2.26,11.17-0.11l3.78,2.78l0.01,0l0.01,0l7.51,5.18l0.01,0.01l0.01,0.01l21.18,13.06
		l0,0l40.93,25.57l0.01,0.01l44.16,29.1l0,0l24.92,16.14l0,0l13.16,8.33l3.79,2.79c3.62,2.66,2.33,6.06-2.85,7.52
		c-0.9,0.26-1.72,0.57-2.44,0.94l-61.91,31.97l-62.93,32.5l0,0l-43.03,22.68c-0.1,0.05-0.19,0.11-0.26,0.18
		c-0.24,0.22-0.88,0.23-1.23,0.01l-10.42-6.47l-0.01,0l-24.45-15.63l0,0l-62.06-40.09l0,0l-45.16-28.67l0,0L15.4,124.97
		c-0.2-0.13-0.38-0.27-0.51-0.41c-0.59-0.65-0.38-1.37,0.54-1.84L113.22,72.94z"/>
	
		<linearGradient id="SVGID_6_" gradientUnits="userSpaceOnUse" x1="308.1691" y1="-236.8989" x2="598.7721" y2="-38.7809" gradientTransform="matrix(1 0 0 -1 -295.3701 3.6378)">
		<stop  offset="0" style="stop-color:#48499F"/>
		<stop  offset="1" style="stop-color:#F93D3D;stop-opacity:0.88"/>
	</linearGradient>
	<path class="st5" d="M108.74,64.99L108.74,64.99l52.05-27.18l0.01,0l0.01,0l16.28-9.24c0.7-0.39,1.52-0.73,2.45-0.99l1.17-0.33
		c1.26-0.36,2.23-0.9,2.8-1.56c1.9-2.2,8.24-2.26,11.17-0.11l3.78,2.78l0.01,0l0.01,0l7.51,5.18l0.01,0.01l0.01,0.01l21.18,13.06
		l0,0l40.93,25.57l0.01,0.01l44.16,29.1l0,0l24.92,16.14l0,0l13.16,8.33l3.79,2.79c3.62,2.66,2.33,6.06-2.85,7.52
		c-0.9,0.26-1.72,0.57-2.44,0.94L286.95,169l-62.93,32.49l0,0l-43.03,22.68c-0.1,0.05-0.19,0.11-0.26,0.18
		c-0.24,0.22-0.88,0.23-1.23,0.01l-10.42-6.47l-0.01,0l-24.45-15.63l0,0l-62.06-40.09l0,0L37.39,133.5l0,0l-26.47-16.48
		c-0.2-0.13-0.38-0.27-0.51-0.41c-0.59-0.65-0.38-1.37,0.54-1.84L108.74,64.99z"/>
	
		<linearGradient id="SVGID_7_" gradientUnits="userSpaceOnUse" x1="305.4903" y1="-231.9362" x2="596.0933" y2="-33.8184" gradientTransform="matrix(1 0 0 -1 -295.3701 3.6378)">
		<stop  offset="0" style="stop-color:#48499F"/>
		<stop  offset="1" style="stop-color:#F93D3D;stop-opacity:0.88"/>
	</linearGradient>
	<path class="st6" d="M106.06,60.03L106.06,60.03l52.05-27.18l0.01,0l0.01,0l16.28-9.24c0.69-0.39,1.52-0.73,2.44-0.99l1.17-0.33
		c1.26-0.36,2.23-0.9,2.8-1.56c1.9-2.2,8.24-2.26,11.17-0.11l3.78,2.78l0.01,0l0.01,0l7.51,5.18l0.01,0.01l0.01,0.01l21.18,13.06
		l0,0l40.93,25.57l0.01,0.01l44.16,29.1l0,0l24.92,16.14l0.01,0l13.16,8.33l3.79,2.79c3.62,2.66,2.33,6.06-2.85,7.52
		c-0.9,0.26-1.72,0.57-2.44,0.94l-61.91,31.97l-62.93,32.5l0,0l-43.03,22.68c-0.1,0.05-0.19,0.11-0.26,0.18
		c-0.24,0.22-0.88,0.23-1.23,0.01l-10.42-6.47l-0.01,0l-24.45-15.63l0,0l-62.06-40.09l0,0l-45.16-28.67l0,0L8.25,112.06
		c-0.2-0.13-0.38-0.27-0.51-0.41c-0.59-0.65-0.38-1.37,0.54-1.84L106.06,60.03z"/>
	
		<linearGradient id="SVGID_8_" gradientUnits="userSpaceOnUse" x1="308.8287" y1="-243.7068" x2="599.432" y2="-45.5888" gradientTransform="matrix(1 0 0 -1 -295.3701 3.6378)">
		<stop  offset="0" style="stop-color:#48499F"/>
		<stop  offset="1" style="stop-color:#F93D3D;stop-opacity:0.88"/>
	</linearGradient>
	<path class="st7" d="M109.4,71.8L109.4,71.8l52.05-27.18l0.01,0l0.01,0l16.28-9.24c0.69-0.39,1.52-0.73,2.44-0.99l1.17-0.33
		c1.26-0.36,2.23-0.9,2.8-1.56c1.89-2.2,8.23-2.26,11.17-0.11l3.78,2.78l0.01,0l0.01,0l7.51,5.18l0.01,0.01l0.01,0.01l21.18,13.06
		l0,0L268.76,79l0.01,0.01l44.16,29.1l0,0l24.92,16.14l0.01,0l13.16,8.33l3.79,2.79c3.62,2.66,2.33,6.06-2.85,7.52
		c-0.9,0.26-1.72,0.57-2.44,0.94l-61.91,31.97l-62.93,32.49l0,0l-43.03,22.68c-0.1,0.05-0.19,0.11-0.26,0.18
		c-0.24,0.22-0.88,0.23-1.23,0.01l-10.42-6.47l-0.01,0l-24.45-15.63l0,0l-62.06-40.09l0,0l-45.16-28.67l0,0l-26.46-16.48
		c-0.2-0.13-0.38-0.27-0.51-0.41c-0.59-0.65-0.38-1.37,0.54-1.84L109.4,71.8z"/>
	
		<linearGradient id="SVGID_9_" gradientUnits="userSpaceOnUse" x1="306.9737" y1="-256.0295" x2="604.3206" y2="-57.0115" gradientTransform="matrix(1 0 0 -1 -295.3701 3.6378)">
		<stop  offset="0" style="stop-color:#48499F"/>
		<stop  offset="1" style="stop-color:#F93D3D;stop-opacity:0.88"/>
	</linearGradient>
	<path class="st8" d="M111.77,83.49L111.77,83.49l52.95-27.55l0.01,0l0.01,0l16.57-9.36c0.71-0.4,1.55-0.74,2.49-1.01l1.2-0.34
		c1.26-0.36,2.24-0.9,2.82-1.56c1.96-2.23,8.42-2.28,11.39-0.09l3.67,2.71l0.01,0l0.01,0l7.49,5.19l0.01,0.01l0.01,0.01l21.17,13.07
		l0,0l40.89,25.58l0.01,0.01l44.1,29.13l0,0l24.89,16.15l0.01,0l13.14,8.34l3.67,2.71c3.68,2.72,2.37,6.17-2.91,7.67
		c-0.91,0.26-1.73,0.58-2.45,0.95l-62.98,32.41l-64.01,32.94l0,0l-43.77,22.99c-0.1,0.05-0.19,0.11-0.26,0.18
		c-0.25,0.22-0.91,0.23-1.27,0.01l-10.39-6.46l-0.01,0l-24.42-15.64l0,0L83.81,181.4l0,0l-45.11-28.69l-0.01,0l-26.44-16.49
		c-0.21-0.13-0.38-0.27-0.51-0.42c-0.58-0.65-0.37-1.37,0.56-1.83L111.77,83.49z"/>
	
		<linearGradient id="SVGID_10_" gradientUnits="userSpaceOnUse" x1="302.8113" y1="-226.9733" x2="593.4144" y2="-28.8557" gradientTransform="matrix(1 0 0 -1 -295.3701 3.6378)">
		<stop  offset="0" style="stop-color:#48499F"/>
		<stop  offset="1" style="stop-color:#F93D3D;stop-opacity:0.88"/>
	</linearGradient>
	<path class="st9" d="M103.38,55.07L103.38,55.07l52.05-27.18l0.01,0l0.01,0l16.28-9.24c0.69-0.39,1.52-0.73,2.44-0.99l1.17-0.33
		c1.26-0.36,2.23-0.9,2.8-1.56c1.9-2.2,8.24-2.26,11.17-0.11l3.78,2.78l0.01,0l0.01,0l7.51,5.18l0.01,0.01l0.01,0.01l21.18,13.06
		l0,0l40.93,25.57l0.01,0.01l44.16,29.1l0,0l24.92,16.14l0,0l13.16,8.33l3.79,2.79c3.62,2.66,2.33,6.06-2.85,7.52
		c-0.9,0.26-1.72,0.57-2.44,0.94l-61.91,31.97l-62.93,32.49l0,0l-43.03,22.68c-0.1,0.05-0.19,0.11-0.26,0.18
		c-0.24,0.22-0.88,0.23-1.23,0.01l-10.42-6.47l-0.01,0l-24.45-15.63l0,0L77.2,152.25l0,0l-45.16-28.67l-0.01,0L5.57,107.09
		c-0.2-0.13-0.38-0.27-0.51-0.41c-0.59-0.65-0.38-1.37,0.54-1.84L103.38,55.07z"/>
	
		<linearGradient id="SVGID_11_" gradientUnits="userSpaceOnUse" x1="302.1075" y1="-221.1318" x2="592.7111" y2="-23.0135" gradientTransform="matrix(1 0 0 -1 -295.3701 3.6378)">
		<stop  offset="0" style="stop-color:#48499F"/>
		<stop  offset="1" style="stop-color:#F93D3D;stop-opacity:0.88"/>
	</linearGradient>
	<path class="st10" d="M102.68,49.23L102.68,49.23l52.05-27.18l0.01,0l0.01,0l16.27-9.24c0.69-0.39,1.52-0.73,2.44-0.99l1.17-0.33
		c1.26-0.36,2.23-0.9,2.8-1.56c1.9-2.2,8.24-2.26,11.17-0.11l3.78,2.78l0.01,0l0.01,0l7.51,5.18l0.01,0.01l0.01,0.01l21.18,13.06
		l0,0l40.93,25.57l0.01,0.01l44.16,29.1l0,0l24.92,16.14l0.01,0l13.16,8.33l3.79,2.79c3.62,2.66,2.33,6.06-2.85,7.52
		c-0.9,0.26-1.72,0.57-2.44,0.94l-61.91,31.97l-62.93,32.49l0,0l-43.03,22.68c-0.1,0.05-0.19,0.11-0.26,0.18
		c-0.24,0.22-0.88,0.23-1.23,0.01l-10.42-6.47l-0.01,0l-24.45-15.63l0,0L76.5,146.41l0,0l-45.16-28.67l0,0L4.86,101.25
		c-0.2-0.13-0.38-0.26-0.51-0.41C3.76,100.19,3.98,99.47,4.9,99L102.68,49.23z"/>
	
		<linearGradient id="SVGID_12_" gradientUnits="userSpaceOnUse" x1="301.3605" y1="-216.2561" x2="591.9642" y2="-18.1385" gradientTransform="matrix(1 0 0 -1 -295.3701 3.6378)">
		<stop  offset="0" style="stop-color:#48499F"/>
		<stop  offset="1" style="stop-color:#F93D3D;stop-opacity:0.88"/>
	</linearGradient>
	<path class="st11" d="M101.93,44.35L101.93,44.35l52.05-27.18l0.01,0l0.01,0l16.28-9.24c0.69-0.39,1.52-0.73,2.44-0.99l1.17-0.33
		c1.26-0.36,2.23-0.9,2.8-1.56c1.9-2.2,8.24-2.26,11.17-0.11l3.78,2.78l0.01,0l0.01,0l7.51,5.18l0.01,0.01l0.01,0.01l21.18,13.06
		l0,0l40.93,25.57l0.01,0.01l44.16,29.1l0,0l24.92,16.14l0.01,0l13.16,8.33l3.79,2.79c3.62,2.66,2.33,6.06-2.85,7.52
		c-0.9,0.25-1.72,0.57-2.44,0.94l-61.91,31.97l-62.93,32.49l0,0l-43.03,22.68c-0.1,0.05-0.19,0.11-0.26,0.18
		c-0.24,0.22-0.88,0.22-1.23,0.01l-10.42-6.47l-0.01,0l-24.45-15.63l0,0l-62.06-40.09l0,0l-45.16-28.67l0,0L4.12,96.38
		c-0.2-0.13-0.38-0.27-0.51-0.41c-0.59-0.65-0.38-1.37,0.54-1.84L101.93,44.35z"/>
	<path class="st12" d="M1.81,132.34l179.32-92.99c3.92-2.03,10.12-1.75,13.84,0.63l163.8,104.72c3.72,2.38,3.56,5.95-0.36,7.99
		l-179.57,93.27"/>
	
		<linearGradient id="SVGID_13_" gradientUnits="userSpaceOnUse" x1="264.8379" y1="-239.3773" x2="614.5989" y2="-15.823" gradientTransform="matrix(1 0 0 -1 -295.3701 3.6378)">
		<stop  offset="0" style="stop-color:#48499F"/>
		<stop  offset="1" style="stop-color:#F93D3D;stop-opacity:0.88"/>
	</linearGradient>
	<path class="st13" d="M3.69,133.22c-1.3-0.06-2.35-0.63-2.32-1.26l1.98-43.8c0.03-0.64,0.54-1.24,1.44-1.67l5.26-2.53l13.85-7.38
		l53.78-27.1l64.09-33.64l25.7-13.05c0.95-0.48,2.16-0.82,3.52-0.99c2.49-0.3,5.24,0.01,7.41,0.85l1.11,0.43
		c0.89,0.34,1.69,0.74,2.36,1.19l6.27,4.16l52.07,32.89l103.85,66.62c5.06,3.25,3.66,7.66-3,9.47c-1.13,0.31-2.15,0.71-3.01,1.18
		l-44.38,24.25l-50.69,25.23l-58.96,30.87l-2.03,0.9c-0.68,0.3-1.16,0.69-1.41,1.13c-0.11,0.2-0.17,0.41-0.18,0.62l-0.28,6.17
		l-0.39,8.49l-0.79,17.48l-0.23,4.99l-0.2,4.44c0,0.04-0.01,0.07-0.02,0.11c-0.22,0.57-1.71,0.68-2.48,0.2l-25.31-16.02
		l-49.09-32.25l-35.56-21.63L5.51,133.73C5.07,133.44,4.4,133.25,3.69,133.22z"/>
	<path class="st12" d="M2.87,87.63l-1.01,44.34L178.8,245.09l2.01-44.29"/>
	<path class="st12" d="M180.8,200.79l163.35-84.7c3.92-2.03,4.08-5.61,0.36-7.99L181.04,3.59c-3.71-2.37-9.9-2.66-13.82-0.64
		L2.87,87.63"/>
	<g>
		<path class="st14" d="M185.19,24.02l123.43,78.91c2.33,1.49,2.23,3.72-0.23,4.99l-48.87,25.34c-2.45,1.27-6.32,1.1-8.65-0.39
			L127.44,53.97c-2.33-1.49-2.23-3.72,0.23-4.99l48.87-25.34C178.99,22.36,182.87,22.54,185.19,24.02z"/>
	</g>
	<g>
		<path d="M105.65,67.93l125.25,80.07c1.83,1.17,1.75,2.92-0.18,3.92l0,0c-1.92,1-4.96,0.86-6.79-0.31L98.69,71.55
			c-1.83-1.17-1.75-2.92,0.18-3.92l0,0C100.79,66.63,103.83,66.77,105.65,67.93z"/>
	</g>
	<g>
		<path d="M86.22,77.06l125.25,80.07c1.83,1.17,1.75,2.92-0.18,3.92l0,0c-1.92,1-4.96,0.86-6.79-0.31L79.26,80.68
			c-1.83-1.17-1.75-2.92,0.18-3.92l0,0C81.36,75.76,84.4,75.9,86.22,77.06z"/>
	</g>
	<g>
		<path d="M114.97,127.42l29.32,18.75c1.83,1.17,1.75,2.92-0.18,3.92l0,0c-1.92,1-4.96,0.86-6.79-0.31l-29.32-18.75
			c-1.83-1.17-1.75-2.92,0.18-3.92l0,0C110.11,126.11,113.15,126.25,114.97,127.42z"/>
	</g>
	<g>
		<path d="M101.58,135.82l29.32,18.75c1.83,1.17,1.75,2.92-0.18,3.92l0,0c-1.92,1-4.96,0.86-6.79-0.31l-29.32-18.75
			c-1.83-1.17-1.75-2.92,0.18-3.92l0,0C96.72,134.51,99.75,134.65,101.58,135.82z"/>
	</g>
	<g>
		<path d="M72.24,96.99l22.42,14.34c2.33,1.49,2.23,3.72-0.23,4.99l-13.46,6.98c-2.45,1.27-6.32,1.1-8.65-0.39L49.9,108.57
			c-2.33-1.49-2.23-3.72,0.23-4.99l13.46-6.98C66.04,95.33,69.91,95.5,72.24,96.99z"/>
	</g>
	<g>
		<path d="M166.51,159.32l22.42,14.34c2.33,1.49,2.23,3.72-0.23,4.99l-13.46,6.98c-2.45,1.27-6.32,1.1-8.65-0.39l-22.42-14.34
			c-2.33-1.49-2.23-3.72,0.23-4.99l13.46-6.98C160.31,157.65,164.19,157.83,166.51,159.32z"/>
	</g>
	<g>
		<path d="M74.06,164.81l70.02,44.76c1.08,0.69,1.91,2.29,1.86,3.58l0,0c-0.06,1.28-0.98,1.76-2.07,1.07l-70.02-44.76
			c-1.08-0.69-1.91-2.29-1.86-3.58l0,0C72.06,164.59,72.98,164.11,74.06,164.81z"/>
	</g>
	<g>
		<path class="st15" d="M17.51,110.53l21.28,13.61c3.26,2.08,5.76,6.9,5.58,10.76l-0.52,11.49c-0.17,3.86-2.96,5.3-6.21,3.22
			l-21.28-13.61c-3.26-2.08-5.76-6.9-5.58-10.76l0.52-11.49C11.47,109.89,14.25,108.45,17.51,110.53z"/>
	</g>
	<g>
		<path d="M77.6,152.95l70.02,44.76c1.08,0.69,1.91,2.29,1.86,3.58l0,0c-0.06,1.28-0.98,1.76-2.07,1.07l-70.02-44.76
			c-1.08-0.69-1.91-2.29-1.86-3.58l0,0C75.6,152.74,76.52,152.26,77.6,152.95z"/>
	</g>
</g>
</svg>
