<?xml version="1.0" encoding="utf-8"?>
<!-- Generator: Adobe Illustrator 24.3.0, SVG Export Plug-In . SVG Version: 6.00 Build 0)  -->
<svg version="1.1" id="Capa_1" xmlns="http://www.w3.org/2000/svg" xmlns:xlink="http://www.w3.org/1999/xlink" x="0px" y="0px"
	 viewBox="0 0 518.74 629.29" style="enable-background:new 0 0 518.74 629.29;" xml:space="preserve">
<style type="text/css">
	.st0{fill:url(#SVGID_1_);fill-opacity:0.49;}
	.st1{fill:url(#SVGID_2_);fill-opacity:0.42;}
	.st2{fill:url(#SVGID_3_);fill-opacity:0.4;}
	.st3{fill:url(#SVGID_4_);fill-opacity:0.43;}
	.st4{fill:url(#SVGID_5_);fill-opacity:0.38;}
	.st5{fill:#454E6B;fill-opacity:0.5;}
	.st6{fill:#DC509B;fill-opacity:0.3;}
	.st7{fill:url(#SVGID_6_);fill-opacity:0.38;}
	.st8{fill:#DC509B;fill-opacity:0.32;}
	.st9{fill:#454E6B;fill-opacity:0.58;}
	.st10{fill:url(#SVGID_7_);fill-opacity:0.3;}
	.st11{fill:url(#SVGID_8_);fill-opacity:0.3;}
	.st12{fill:url(#SVGID_9_);fill-opacity:0.29;}
</style>
<linearGradient id="SVGID_1_" gradientUnits="userSpaceOnUse" x1="256.8337" y1="208.5382" x2="498.0367" y2="696.2522" gradientTransform="matrix(1 0 0 -1 -46.6299 549.3543)">
	<stop  offset="0" style="stop-color:#17268A"/>
	<stop  offset="0.9766" style="stop-color:#DDE2EB;stop-opacity:0.2"/>
</linearGradient>
<path class="st0" d="M391.26,224.52c0-20.26-7.25-39.85-20.45-55.23L246.96,24.9L218.34,3.6l-16.58,1.46
	c-37.31,3.29-70.49,25.06-88.37,57.97l-7.57,42.72c-0.52,2.91-0.78,5.87-0.78,8.83v2.72c0,7.81-6.33,14.14-14.14,14.14
	c-3.2,0-6.3,1.08-8.8,3.07l-40.31,32.07C20.72,183.35,8.45,208.8,8.45,235.73L2.48,366.93v56.64c0,10.03,1.51,20.01,4.48,29.59
	l13.41,43.3c8.85,7.29,13.15,18.74,11.25,30.05l-5.29,31.62l-3.69,2.66c-9.17,6.61-15.75,16.22-18.59,27.17
	c-0.88,3.38,1.08,6.84,4.42,7.82l26.21,7.76l40.55,16.82l29.81-11.21l48.9-5.61l-11.93-45.42l-8.35-36.45
	c33.35-40.04,36.58-97.5,8.35-141.3l5.96-23.55l10.92,11c3.78,3.81,6.47,8.57,7.79,13.77l0.74,2.94
	c2.04,8.07,7.35,14.93,14.65,18.94l17.17,9.42l7.13,22.04c0.78,2.41,0.62,5.03-0.46,7.33l-14.32,30.52
	c-1.25,2.66-1.89,5.56-1.89,8.49v40.4l-9.54,36.45l-26.24,12.9l3.44,4.67c4.47,6.08,11.99,9.12,19.43,7.86l20.53-3.46
	c3.49-0.59,6.47,2.54,5.72,5.99l-3.8,17.45l33.39,23.55l31.01-6.73h46.51l21.47-5.61l17.29-20.75l-12.42-35.85
	c-3.07-8.85-1.82-18.63,3.36-26.43l37.4-56.26c9.18-13.81,14.62-29.76,15.79-46.3l1.79-16.82l0.6-6.17l0.03-0.31
	c0.77-7.98,0.58-16.04-0.57-23.97l-3.63-25.05c-17.47-8.21-28.62-25.78-28.62-45.08v-2.28c0-6.5,1.18-12.94,3.5-19.01L391.26,224.52
	z"/>
<linearGradient id="SVGID_2_" gradientUnits="userSpaceOnUse" x1="230.0586" y1="288.4444" x2="251.2436" y2="175.8024" gradientTransform="matrix(1 0 0 -1 -46.6299 549.3543)">
	<stop  offset="0" style="stop-color:#454E6B"/>
	<stop  offset="1" style="stop-color:#324499;stop-opacity:0.33"/>
</linearGradient>
<path class="st1" d="M246.96,252.88c0-7.9-8.74-12.68-15.39-8.42l-22.73,14.56c-10.74,6.87-24.65,6.21-34.68-1.65l-5.44-4.26
	c-8.8-6.9-19.66-10.64-30.84-10.64h-8.75c-2.76,0-5,2.24-5,5v42.14c0,5.12,1.31,10.15,3.81,14.62l19.41,34.76
	c1.18,2.11,3.09,3.73,5.37,4.54l40.31,14.39c2.16,0.77,4.43,1.16,6.73,1.16h26.89c12.28,0,23.32,7.48,27.87,18.89l6.78,17
	l-13.84-76.99c-0.32-1.75-0.47-3.53-0.47-5.31V252.88z"/>
<linearGradient id="SVGID_3_" gradientUnits="userSpaceOnUse" x1="46.3364" y1="203.9811" x2="68.7914" y2="268.7981" gradientTransform="matrix(1 0 0 -1 -46.6299 549.3543)">
	<stop  offset="0" style="stop-color:#324499;stop-opacity:0.63"/>
	<stop  offset="1" style="stop-color:#9FACD2;stop-opacity:0.44"/>
</linearGradient>
<path class="st2" d="M32.64,245.6c-0.22-2.81-1.04-5.55-2.4-8.02l-18.22-33.25l-8.35,157h5.68c17.51,0,31.29-14.93,29.91-32.38
	L32.64,245.6z"/>
<linearGradient id="SVGID_4_" gradientUnits="userSpaceOnUse" x1="496.5701" y1="171.865" x2="525.1531" y2="333.985" gradientTransform="matrix(1 0 0 -1 -46.6299 549.3543)">
	<stop  offset="0" style="stop-color:#182689"/>
	<stop  offset="1" style="stop-color:#182689;stop-opacity:0.2"/>
</linearGradient>
<path class="st3" d="M516.48,370.3L490,284.77c-3.17-10.23-11.54-17.99-21.98-20.37l-34.71-7.92l-50.39-10.09l-17.89,46.54
	l-2.39,10.09v12.9c0.39,8.07,2.96,15.89,7.43,22.62l2.11,3.17l7.16,7.85l5.17,3.79c0.13,0.09,0.26,0.18,0.4,0.25l6.35,3.26
	l2.39,17.38l2.38,16.26v11.77l-3.58,31.96l0.76,9.29c0.29,3.5,1.18,6.92,2.65,10.11l12.03,26.11c0.83,1.8,1.38,3.71,1.65,5.67
	l5.37,39.37c0.13,0.93,0.12,1.88-0.01,2.81l-5.21,35.28c-0.35,2.38-1.55,4.55-3.36,6.11l-21.1,18.19
	c-6.85,5.9-2.97,17.14,6.06,17.56l118.04,5.55l-5.31-38.95c-0.43-3.17-0.36-6.39,0.23-9.53l10.69-57.59
	c1.01-5.43,0.5-11.04-1.48-16.2l-14.74-38.5c-2.4-6.27-2.63-13.16-0.65-19.58L516.48,370.3z"/>
<linearGradient id="SVGID_5_" gradientUnits="userSpaceOnUse" x1="485.0182" y1="138.2592" x2="487.1282" y2="300.8672" gradientTransform="matrix(1 0 0 -1 -46.6299 549.3543)">
	<stop  offset="0" style="stop-color:#324499"/>
	<stop  offset="1" style="stop-color:#8E9CCA;stop-opacity:0"/>
</linearGradient>
<path class="st4" d="M505.75,331.05l-17.29-48.78l-3.23-7.1c-0.23-0.49-0.58-0.92-1.03-1.23l-6.89-4.75
	c-0.91-0.63-1.88-1.15-2.91-1.56l-10.98-4.43l-19.68-3.36L433,256.48l-50.09-10.65l-18.49,48.22l-1.19,9.53l-1.19,12.9l2.39,10.09
	l4.17,10.65l5.96,8.41l8.32,6.79c0.41,0.33,0.85,0.64,1.31,0.9l7.06,4.09l4.77,35.32v18.69c0,0.25-0.02,0.5-0.06,0.75l-2.93,19.25
	l11.33-21.87l4.79-21.62c0.77-3.47,0.6-7.08-0.49-10.46l-9.89-30.68c-0.25-0.76-0.67-1.46-1.24-2.02l-19.72-19.52
	c-1.33-1.31-2.07-3.1-2.07-4.97v-10.14c0-4.85,6.54-6.4,8.71-2.06c0.53,1.07,1.46,1.88,2.58,2.28l17.33,6.11l39.69-31.5
	c0.92-0.73,2.13,0.45,1.42,1.39l-14.72,19.37c-4.38,5.76,0.97,13.82,7.98,12.02c3.24-0.83,6.65-0.58,9.73,0.72l26.03,10.97
	c2.51,1.06,4.78,2.62,6.67,4.59l35.3,36.83L505.75,331.05z"/>
<path class="st5" d="M248.15,409.55l-28.03,5.05l-2.98,36.45l10.73,65.04l-4.77,12.34l-11.33,28.6l-10.14,24.11l10.14-9.53
	l32.8-52.15l-16.7-52.71V420.2L248.15,409.55z"/>
<path class="st6" d="M496.48,606.75c0-6.42-5.19-11.61-11.62-11.61h-5.69c-2.53,0-5.02-0.55-7.31-1.62l-1.61-0.75
	c-5.92-2.75-12.69-3.12-18.89-1.02l-10.01,3.38l-16.7-6.65c-7.39,0-14.7-2.2-20.87-6.24l-12.52,6.24c-5.64,4.65,0.29,13.4,6.69,9.87
	l5.83-3.22l5.96,5.05L496.48,606.75z"/>
<path class="st6" d="M316.73,577.2l-13.12,14.02l-5.96-12.34l-48.52,15.57c-1.28,0.41-2.67-0.08-3.41-1.2l-11.65-17.53
	c-0.87-1.31-2.84-1.15-3.49,0.28l-6.86,15.21v-15.7l-7.16-2.8l-7.15,23.55l7.15,8.97l15.5,10.09l17.89,1.12v-4.75
	c0-0.87,0.48-1.67,1.25-2.08c4.58-2.42,10.26-0.68,12.69,3.9l0.96,1.81l8.45,0.93c1.08,0.12,2.17-0.18,3.04-0.84l4.36-3.28
	c5.09-3.83,12.32-2.84,16.2,2.21c0.43,0.56,1.2,0.73,1.83,0.4l18-9.52h14.31l5.37-5.61v-8.41L316.73,577.2z"/>
<path class="st6" d="M136.65,562.06h-18.48l-2.98,6.17l-3.58-4.49l-14.91,8.97l-19.08,10.65v-14.58L43.63,580l-9.22-5.3
	c-0.94-0.54-2.09-0.53-3.02,0.02l-14.59,8.64l1.79,12.34h14.31l10.73,3.92c2.32-2.73,6.64-2.32,8.41,0.79l4.92,8.64
	c0.24,0.43,0.64,0.75,1.11,0.91l18.63,6.18c0.58,0.19,1.21,0.11,1.72-0.22l6.94-4.52l16.7-12.9l14.31-18.5h4.17v14.02h13.71h10.14
	L136.65,562.06z"/>
<linearGradient id="SVGID_6_" gradientUnits="userSpaceOnUse" x1="301.1087" y1="462.7455" x2="341.2697" y2="507.8277" gradientTransform="matrix(1 0 0 -1 -46.6299 549.3543)">
	<stop  offset="0" style="stop-color:#4A568F"/>
	<stop  offset="1" style="stop-color:#C0C7E1;stop-opacity:0"/>
</linearGradient>
<path class="st7" d="M248.75,26.03l-32.2-22.99l-41.14,7.29l-17.89,7.29h28.15c19.01,0,36.6,9.89,45.76,25.71l10.76,18.59l7.08,3.09
	c20.31,8.86,32.45,28.96,30.08,49.82l-2.73,23.93c-0.22,1.94,1.62,3.56,3.65,3.21l26.85-4.55c3.55-0.6,7.22-0.31,10.64,0.85
	l37.71,12.81l-42.93-49.9l-16.1-17.94l-16.1-21.31L248.75,26.03z"/>
<path class="st5" d="M261.87,123.03l1.79-5.61h-3.56c-1.66,0-3-1.34-3-3v-1.73c0-1.1,0.89-2,2-2h9.33v-5.61l-16.7,0.56l-1.79,22.43
	h7.16L261.87,123.03z"/>
<path class="st8" d="M214.76,93.31l-42.12,11.25c-4.07,1.09-8.35,1.3-12.54,0.63l-25.24-4.03l-11.33,9.53l39.8,10.31
	c0.88,0.23,1.8,0.22,2.66-0.03l58.91-17L214.76,93.31z"/>
<path class="st8" d="M230.26,119.66h-11.33l-10.14,10.65l-2.88,1.99c-5.05,3.5-11.81,3.38-16.8-0.31l-12.52-7.29h-10.73l-9.97,5
	c-5.04,2.53-10.94,2.79-16.23,0.73l-8.98-3.49l-9.23,1.12l3.09,8.15c0.88,2.33,2.6,4.26,4.82,5.41l8.48,4.38l-8.35,16.26v7.85
	l-2.6,5.3c-0.58,1.18-0.31,2.61,0.65,3.51l26.64,25.05c0.63,0.6,1.34,1.11,2.1,1.52l14.93,8.13c9.85,5.36,22.1,1.68,27.23-8.17
	l4.39-8.44l6.75-13.12c1.44-2.8,2.19-5.91,2.19-9.07v-4.72l-22.66-16.82v-5.05l29.81-2.24L230.26,119.66z"/>
<path class="st5" d="M178.39,140.41l-12.34-0.93c-1.48-0.11-2.81,0.87-3.15,2.31l-3.59,15.44l16.7-3.93l2.38-6.17V140.41z"/>
<path class="st5" d="M153.42,145.54c0.28-1.82-1.13-3.45-2.97-3.45h-6.65c-2.33,5.21,1.17,11.16,6.86,11.65l1.49,0.13L153.42,145.54
	z"/>
<path class="st9" d="M182.56,185.27l-36.97-5.13l0.6-1.28h15.5l26.83-7.05L182.56,185.27z"/>
<linearGradient id="SVGID_7_" gradientUnits="userSpaceOnUse" x1="202.9115" y1="15.6156" x2="173.8085" y2="188.3746" gradientTransform="matrix(1 0 0 -1 -46.6299 549.3543)">
	<stop  offset="0" style="stop-color:#1B2453;stop-opacity:0.97"/>
	<stop  offset="1" style="stop-color:#4A568F"/>
</linearGradient>
<path class="st10" d="M128.9,341.14l19.68,14.58l-7.15,25.79l10.14,16.26l6.17,17.9c0.65,1.89,1.11,3.85,1.38,5.83l2.59,19.44v15.78
	c0,2.18-0.24,4.36-0.71,6.49l-2.09,9.45c-0.12,0.53-0.28,1.06-0.48,1.57l-9.35,23.27c-0.32,0.8-0.74,1.55-1.26,2.24l-15.92,21.39
	l4.77-67.28L128.9,341.14z"/>
<linearGradient id="SVGID_8_" gradientUnits="userSpaceOnUse" x1="252.3775" y1="-55.1053" x2="223.2746" y2="117.6527" gradientTransform="matrix(1 0 0 -1 -46.6299 549.3543)">
	<stop  offset="0" style="stop-color:#1B2453;stop-opacity:0.97"/>
	<stop  offset="1" style="stop-color:#4A568F"/>
</linearGradient>
<path class="st11" d="M211.78,424.13l8.35-9.53l-2.98,35.33l4.17,28.04l1.79,8.97l2.39,15.14l2.16,13.21
	c0.15,0.9,0.05,1.82-0.29,2.66l-3.06,7.68l-5.37,12.9l-7.15,18.5l-4.17,10.09l-5.96,13.46l-3.58-1.68l-19.68,4.48l-9.34-1.32
	c-1.69-0.24-3.3-0.91-4.66-1.95l-10.45-7.95l27.43-15.14l9.54-37.57v-43.17l8.94-19.62l7.75-16.82L211.78,424.13z"/>
<linearGradient id="SVGID_9_" gradientUnits="userSpaceOnUse" x1="148.1466" y1="369.0805" x2="141.8116" y2="433.0826" gradientTransform="matrix(1 0 0 -1 -46.6299 549.3543)">
	<stop  offset="0" style="stop-color:#324499"/>
	<stop  offset="1" style="stop-color:#9FACD2;stop-opacity:0.54"/>
</linearGradient>
<path class="st12" d="M86.56,131.44c7.79,1.91,15.75-2.39,18.43-9.95l0.65-1.83l4.77,51.02l-4.77-10.65L86.56,131.44z"/>
</svg>
