<?xml version="1.0" encoding="utf-8"?>
<!-- Generator: Adobe Illustrator 24.3.0, SVG Export Plug-In . SVG Version: 6.00 Build 0)  -->
<svg version="1.1" id="Capa_1" xmlns="http://www.w3.org/2000/svg" xmlns:xlink="http://www.w3.org/1999/xlink" x="0px" y="0px"
	 viewBox="0 0 643.5 674.7" style="enable-background:new 0 0 643.5 674.7;" xml:space="preserve">
<style type="text/css">
	.st0{fill:url(#SVGID_1_);}
	.st1{fill:url(#SVGID_2_);}
	.st2{fill:url(#SVGID_3_);}
	.st3{fill:url(#SVGID_4_);}
	.st4{fill:url(#SVGID_5_);}
	.st5{fill:url(#SVGID_6_);}
	.st6{opacity:0.5;fill:url(#SVGID_7_);enable-background:new    ;}
	.st7{fill:#FFE249;fill-opacity:0.96;}
	.st8{fill:#686868;}
	.st9{fill:#C5428A;}
	.st10{fill:#FFFFFF;}
	.st11{fill:#FFFFFF;fill-opacity:0.62;}
	.st12{fill:#FFE249;fill-opacity:0.87;}
	.st13{opacity:0.2;fill:url(#SVGID_8_);stroke:#000000;enable-background:new    ;}
	.st14{opacity:0.2;fill:url(#SVGID_9_);stroke:#000000;enable-background:new    ;}
	.st15{opacity:0.2;fill:url(#SVGID_10_);stroke:#000000;enable-background:new    ;}
	.st16{opacity:0.2;fill:url(#SVGID_11_);stroke:#000000;enable-background:new    ;}
	.st17{opacity:0.2;fill:url(#SVGID_12_);stroke:#000000;enable-background:new    ;}
	.st18{opacity:0.2;fill:url(#SVGID_13_);stroke:#000000;enable-background:new    ;}
	.st19{opacity:0.2;fill:url(#SVGID_14_);stroke:#000000;enable-background:new    ;}
	.st20{opacity:0.2;fill:url(#SVGID_15_);stroke:#000000;enable-background:new    ;}
	.st21{opacity:0.2;fill:url(#SVGID_16_);stroke:#000000;enable-background:new    ;}
	.st22{opacity:0.2;fill:url(#SVGID_17_);stroke:#000000;enable-background:new    ;}
	.st23{opacity:0.2;fill:url(#SVGID_18_);stroke:#000000;enable-background:new    ;}
	.st24{opacity:0.2;fill:url(#SVGID_19_);stroke:#000000;enable-background:new    ;}
	.st25{fill:none;stroke:#000000;stroke-linejoin:round;}
	.st26{opacity:0.6;fill:url(#SVGID_20_);enable-background:new    ;}
	.st27{fill:none;stroke:#000000;stroke-linecap:round;stroke-linejoin:round;}
	.st28{fill:#C8B4B4;}
	.st29{fill:#868585;}
	.st30{fill:url(#SVGID_21_);}
	.st31{fill:url(#SVGID_22_);}
	.st32{opacity:0.8;}
	.st33{fill:url(#SVGID_23_);}
	.st34{fill:url(#SVGID_24_);}
	.st35{fill:url(#SVGID_25_);}
	.st36{fill:url(#SVGID_26_);}
	.st37{fill:url(#SVGID_27_);}
	.st38{fill:url(#SVGID_28_);}
	.st39{fill:url(#SVGID_29_);}
	.st40{fill:url(#SVGID_30_);}
	.st41{fill:url(#SVGID_31_);}
	.st42{fill:url(#SVGID_32_);}
	.st43{fill:url(#SVGID_33_);}
	.st44{fill:url(#SVGID_34_);}
	.st45{fill:url(#SVGID_35_);}
	.st46{fill:url(#SVGID_36_);}
	.st47{fill:url(#SVGID_37_);}
	.st48{fill:url(#SVGID_38_);}
	.st49{fill:url(#SVGID_39_);}
	.st50{fill:url(#SVGID_40_);}
	.st51{fill:url(#SVGID_41_);}
	.st52{fill:url(#SVGID_42_);}
	.st53{fill:url(#SVGID_43_);}
	.st54{fill:url(#SVGID_44_);}
	.st55{fill:url(#SVGID_45_);}
	.st56{fill:url(#SVGID_46_);}
	.st57{fill:url(#SVGID_47_);}
	.st58{fill:url(#SVGID_48_);}
</style>
<linearGradient id="SVGID_1_" gradientUnits="userSpaceOnUse" x1="306.5197" y1="227.9155" x2="227.0997" y2="-82.1125" gradientTransform="matrix(0.9178 0.3971 0.3971 -0.9178 -123.7788 533.9048)">
	<stop  offset="0" style="stop-color:#A53C2A;stop-opacity:0.9844"/>
	<stop  offset="1" style="stop-color:#FF6A51;stop-opacity:0"/>
</linearGradient>
<path class="st0" d="M256.2,373l3.7,1.6c4.1,1.8,5.9,6.5,4.2,10.5L153.2,641.2c-1.8,4.1-6.5,5.9-10.5,4.2l-3.7-1.6
	c-4.1-1.8-5.9-6.5-4.2-10.5l110.8-256.1C247.4,373.1,252.1,371.2,256.2,373z"/>
<linearGradient id="SVGID_2_" gradientUnits="userSpaceOnUse" x1="212.1761" y1="300.2505" x2="252.4111" y2="-31.5605" gradientTransform="matrix(0.9305 -0.3664 -0.3664 -0.9305 150.7289 747.0054)">
	<stop  offset="0" style="stop-color:#A53C2A"/>
	<stop  offset="1" style="stop-color:#FF6A51;stop-opacity:0"/>
</linearGradient>
<path class="st1" d="M248.1,375.2l3.7-1.5c4.1-1.6,8.8,0.4,10.4,4.5l102.2,259.6c1.6,4.1-0.4,8.8-4.5,10.4l-3.7,1.5
	c-4.1,1.6-8.8-0.4-10.4-4.5L243.6,385.6C242,381.5,244,376.8,248.1,375.2z"/>
<linearGradient id="SVGID_3_" gradientUnits="userSpaceOnUse" x1="191.367" y1="272.2491" x2="334.561" y2="-12.1269" gradientTransform="matrix(1 8.506737e-03 8.506737e-03 -1 -3.0602 671.5756)">
	<stop  offset="5.588380e-02" style="stop-color:#A53C2A"/>
	<stop  offset="1" style="stop-color:#FF6A51;stop-opacity:0"/>
</linearGradient>
<path class="st2" d="M251.2,377.9l4,0c4.4,0,8,3.6,7.9,8.1l-2.4,279c0,4.4-3.6,8-8.1,7.9l-4,0c-4.4,0-8-3.6-7.9-8.1l2.4-279
	C243.2,381.4,246.8,377.9,251.2,377.9z"/>
<linearGradient id="SVGID_4_" gradientUnits="userSpaceOnUse" x1="112.8298" y1="611.3648" x2="370.7048" y2="106.2978" gradientTransform="matrix(1 0 0 -1 8.410366e-06 673.8898)">
	<stop  offset="0" style="stop-color:#B9A434;stop-opacity:0.96"/>
	<stop  offset="0.654" style="stop-color:#B76F62;stop-opacity:0.9844"/>
	<stop  offset="1" style="stop-color:#8F2B62"/>
</linearGradient>
<ellipse class="st3" cx="244.2" cy="319.8" rx="241.5" ry="103"/>
<linearGradient id="SVGID_5_" gradientUnits="userSpaceOnUse" x1="112.8298" y1="630.3648" x2="370.7048" y2="125.2978" gradientTransform="matrix(1 0 0 -1 8.410366e-06 673.8898)">
	<stop  offset="0" style="stop-color:#FFE249;stop-opacity:0.96"/>
	<stop  offset="0.654" style="stop-color:#DC8071;stop-opacity:0.9844"/>
	<stop  offset="1" style="stop-color:#C5428A"/>
</linearGradient>
<ellipse class="st4" cx="244.2" cy="300.8" rx="241.5" ry="103"/>
<linearGradient id="SVGID_6_" gradientUnits="userSpaceOnUse" x1="87.7905" y1="610.313" x2="243.3501" y2="564.2939" gradientTransform="matrix(1 0 0 -1 8.410366e-06 673.8898)">
	<stop  offset="0" style="stop-color:#9FADF7"/>
	<stop  offset="1" style="stop-color:#514DF4;stop-opacity:0.7"/>
</linearGradient>
<path class="st5" d="M78.2,137.2c0-25.4,17.7-56.6,39.5-69.6l94.5-56.4c21.8-13,39.5-3,39.5,22.4v34c0,8.7-3.5,18.9-9.5,27.6
	l-9.5,13.8c0,0.1-0.1,0.1-0.1,0.2c0,0.2,0.2,0.1,0.3-0.1l2.7-17.5c0.2-1.2-0.6-1.8-1.5-1.1l-30.3,20.5l-86.3,50.9
	c-21.7,12.8-39.3,2.7-39.3-22.6V137.2z"/>
<linearGradient id="SVGID_7_" gradientUnits="userSpaceOnUse" x1="-7.646" y1="704.6847" x2="195.934" y2="619.5309" gradientTransform="matrix(0.8588 -0.5123 0 -1 78.3886 793.559)">
	<stop  offset="0" style="stop-color:#514DF4;stop-opacity:0.63"/>
	<stop  offset="1" style="stop-color:#6876C0;stop-opacity:0.57"/>
</linearGradient>
<path class="st6" d="M111.2,64.6l94.5-56.4c21.8-13,39.5-3,39.5,22.4v1.7c0,25.4-17.7,56.6-39.5,69.6l-94.5,56.4
	c-21.8,13-39.5,3-39.5-22.4v-1.7C71.7,108.8,89.4,77.6,111.2,64.6z"/>
<path class="st7" d="M93.9,92.6l40.4-24.1c1.4-0.8,2.5-0.2,2.5,1.4v0c0,1.6-1.1,3.6-2.5,4.4L93.9,98.4c-1.4,0.8-2.5,0.2-2.5-1.4v0
	C91.4,95.4,92.5,93.4,93.9,92.6z"/>
<path class="st8" d="M93.9,108.8l116.9-69.7c1.4-0.8,2.5-0.2,2.5,1.4v0c0,1.6-1.1,3.6-2.5,4.4L93.9,114.7c-1.4,0.8-2.5,0.2-2.5-1.4
	v0C91.4,111.6,92.5,109.7,93.9,108.8z"/>
<path class="st9" d="M93.9,144.7l79.1-47.2c1.4-0.8,2.5-0.2,2.5,1.4v0c0,1.6-1.1,3.6-2.5,4.4l-79.1,47.2c-1.4,0.8-2.5,0.2-2.5-1.4v0
	C91.4,147.5,92.5,145.5,93.9,144.7z"/>
<path class="st10" d="M93.9,126.7l81.6-48.7c1.4-0.8,2.5-0.2,2.5,1.4v0c0,1.6-1.1,3.6-2.5,4.4l-81.6,48.7c-1.4,0.8-2.5,0.2-2.5-1.4
	v0C91.4,129.5,92.5,127.6,93.9,126.7z"/>
<path class="st11" d="M197.3,83l40-23.9c1.4-0.8,2.5-0.2,2.5,1.4v0c0,1.6-1.1,3.6-2.5,4.4l-40,23.9c-1.4,0.8-2.5,0.2-2.5-1.4v0
	C194.8,85.8,195.9,83.8,197.3,83z"/>
<path class="st12" d="M208.1,91.1l18.4-11c1.4-0.8,2.5-0.2,2.5,1.4v0c0,1.6-1.1,3.6-2.5,4.4l-18.4,11c-1.4,0.8-2.5,0.2-2.5-1.4v0
	C205.6,93.9,206.7,91.9,208.1,91.1z"/>
<linearGradient id="SVGID_8_" gradientUnits="userSpaceOnUse" x1="94.9898" y1="290.348" x2="385.5931" y2="488.466" gradientTransform="matrix(1 0 0 -1 8.410366e-06 673.8898)">
	<stop  offset="0" style="stop-color:#AEAEAE;stop-opacity:0.49"/>
	<stop  offset="1" style="stop-color:#4D4D4D;stop-opacity:0.88"/>
</linearGradient>
<path class="st13" d="M190.9,208L190.9,208l52-27.2l0,0l0,0l16.3-9.2c0.7-0.4,1.5-0.7,2.4-1l1.2-0.3c1.3-0.4,2.2-0.9,2.8-1.6
	c1.9-2.2,8.2-2.3,11.2-0.1l3.8,2.8l0,0l0,0l7.5,5.2l0,0l0,0l21.2,13.1l0,0l40.9,25.6l0,0l44.2,29.1l0,0l24.9,16.1l0,0l13.2,8.3
	l3.8,2.8c3.6,2.7,2.3,6.1-2.9,7.5c-0.9,0.3-1.7,0.6-2.4,0.9l-61.9,32l-62.9,32.5l0,0l-43,22.7c-0.1,0.1-0.2,0.1-0.3,0.2
	c-0.2,0.2-0.9,0.2-1.2,0l-10.4-6.5l0,0l-24.4-15.6l0,0l-62.1-40.1l0,0l-45.2-28.7l0,0L93.1,260c-0.2-0.1-0.4-0.3-0.5-0.4
	c-0.6-0.6-0.4-1.4,0.5-1.8L190.9,208z"/>
<linearGradient id="SVGID_9_" gradientUnits="userSpaceOnUse" x1="86.6691" y1="293.9612" x2="377.2719" y2="492.0792" gradientTransform="matrix(1 0 0 -1 8.410366e-06 673.8898)">
	<stop  offset="0" style="stop-color:#AEAEAE;stop-opacity:0.49"/>
	<stop  offset="1" style="stop-color:#4D4D4D;stop-opacity:0.88"/>
</linearGradient>
<path class="st14" d="M182.6,204.4L182.6,204.4l52-27.2l0,0l0,0l16.3-9.2c0.7-0.4,1.5-0.7,2.4-1l1.2-0.3c1.3-0.4,2.2-0.9,2.8-1.6
	c1.9-2.2,8.2-2.3,11.2-0.1l3.8,2.8l0,0l0,0l7.5,5.2l0,0l0,0L301,186l0,0l40.9,25.6l0,0l44.2,29.1l0,0l24.9,16.1l0,0l13.2,8.3
	l3.8,2.8c3.6,2.7,2.3,6.1-2.9,7.5c-0.9,0.3-1.7,0.6-2.4,0.9l-61.9,32l-62.9,32.5l0,0l-43,22.7c-0.1,0.1-0.2,0.1-0.3,0.2
	c-0.2,0.2-0.9,0.2-1.2,0l-10.4-6.5l0,0l-24.4-15.6l0,0l-62.1-40.1l0,0l-45.2-28.7l0,0l-26.5-16.5c-0.2-0.1-0.4-0.3-0.5-0.4
	c-0.6-0.6-0.4-1.4,0.5-1.8L182.6,204.4z"/>
<linearGradient id="SVGID_10_" gradientUnits="userSpaceOnUse" x1="82.5375" y1="291.1454" x2="373.1407" y2="489.2634" gradientTransform="matrix(1 0 0 -1 8.410366e-06 673.8898)">
	<stop  offset="0" style="stop-color:#AEAEAE;stop-opacity:0.49"/>
	<stop  offset="1" style="stop-color:#4D4D4D;stop-opacity:0.88"/>
</linearGradient>
<path class="st15" d="M178.5,207.2L178.5,207.2l52-27.2l0,0l0,0l16.3-9.2c0.7-0.4,1.5-0.7,2.4-1l1.2-0.3c1.3-0.4,2.2-0.9,2.8-1.6
	c1.9-2.2,8.2-2.3,11.2-0.1l3.8,2.8l0,0l0,0l7.5,5.2l0,0l0,0l21.2,13.1l0,0l40.9,25.6l0,0l44.2,29.1l0,0l24.9,16.1l0,0l13.2,8.3
	l3.8,2.8c3.6,2.7,2.3,6.1-2.9,7.5c-0.9,0.3-1.7,0.6-2.4,0.9l-61.9,32l-62.9,32.5l0,0l-43,22.7c-0.1,0.1-0.2,0.1-0.3,0.2
	c-0.2,0.2-0.9,0.2-1.2,0l-10.4-6.5l0,0l-24.4-15.6l0,0l-62.1-40.1l0,0l-45.2-28.7l0,0l-26.5-16.5c-0.2-0.1-0.4-0.3-0.5-0.4
	c-0.6-0.6-0.4-1.4,0.5-1.8L178.5,207.2z"/>
<linearGradient id="SVGID_11_" gradientUnits="userSpaceOnUse" x1="81.4479" y1="289.1926" x2="372.0516" y2="487.3106" gradientTransform="matrix(1 0 0 -1 8.410366e-06 673.8898)">
	<stop  offset="0" style="stop-color:#AEAEAE;stop-opacity:0.49"/>
	<stop  offset="1" style="stop-color:#4D4D4D;stop-opacity:0.88"/>
</linearGradient>
<path class="st16" d="M177.4,209.2L177.4,209.2l52-27.2l0,0l0,0l16.3-9.2c0.7-0.4,1.5-0.7,2.4-1l1.2-0.3c1.3-0.4,2.2-0.9,2.8-1.6
	c1.9-2.2,8.2-2.3,11.2-0.1l3.8,2.8l0,0l0,0l7.5,5.2l0,0l0,0l21.2,13.1l0,0l40.9,25.6l0,0l44.2,29.1l0,0l24.9,16.1l0,0l13.2,8.3
	l3.8,2.8c3.6,2.7,2.3,6.1-2.9,7.5c-0.9,0.3-1.7,0.6-2.4,0.9l-61.9,32l-62.9,32.5l0,0l-43,22.7c-0.1,0.1-0.2,0.1-0.3,0.2
	c-0.2,0.2-0.9,0.2-1.2,0l-10.4-6.5l0,0l-24.4-15.6l0,0l-62.1-40.1l0,0L106,277.7l0,0l-26.5-16.5c-0.2-0.1-0.4-0.3-0.5-0.4
	c-0.6-0.6-0.4-1.4,0.5-1.8L177.4,209.2z"/>
<linearGradient id="SVGID_12_" gradientUnits="userSpaceOnUse" x1="94.2287" y1="293.567" x2="384.8321" y2="491.685" gradientTransform="matrix(1 0 0 -1 8.410366e-06 673.8898)">
	<stop  offset="0" style="stop-color:#AEAEAE;stop-opacity:0.49"/>
	<stop  offset="1" style="stop-color:#4D4D4D;stop-opacity:0.88"/>
</linearGradient>
<path class="st17" d="M190.2,204.8L190.2,204.8l52-27.2l0,0l0,0l16.3-9.2c0.7-0.4,1.5-0.7,2.4-1l1.2-0.3c1.3-0.4,2.2-0.9,2.8-1.6
	c1.9-2.2,8.2-2.3,11.2-0.1l3.8,2.8l0,0l0,0l7.5,5.2l0,0l0,0l21.2,13.1l0,0l40.9,25.6l0,0l44.2,29.1l0,0l24.9,16.1l0,0l13.2,8.3
	l3.8,2.8c3.6,2.7,2.3,6.1-2.9,7.5c-0.9,0.3-1.7,0.6-2.4,0.9l-61.9,32l-62.9,32.5l0,0l-43,22.7c-0.1,0.1-0.2,0.1-0.3,0.2
	c-0.2,0.2-0.9,0.2-1.2,0l-10.4-6.5l0,0l-24.4-15.6l0,0L164,302l0,0l-45.2-28.7l0,0l-26.5-16.5c-0.2-0.1-0.4-0.3-0.5-0.4
	c-0.6-0.6-0.4-1.4,0.5-1.8L190.2,204.8z"/>
<linearGradient id="SVGID_13_" gradientUnits="userSpaceOnUse" x1="89.7489" y1="301.5162" x2="380.3519" y2="499.6342" gradientTransform="matrix(1 0 0 -1 8.410366e-06 673.8898)">
	<stop  offset="0" style="stop-color:#AEAEAE;stop-opacity:0.49"/>
	<stop  offset="1" style="stop-color:#4D4D4D;stop-opacity:0.88"/>
</linearGradient>
<path class="st18" d="M185.7,196.8L185.7,196.8l52-27.2l0,0l0,0l16.3-9.2c0.7-0.4,1.5-0.7,2.4-1l1.2-0.3c1.3-0.4,2.2-0.9,2.8-1.6
	c1.9-2.2,8.2-2.3,11.2-0.1l3.8,2.8l0,0l0,0l7.5,5.2l0,0l0,0l21.2,13.1l0,0l40.9,25.6l0,0l44.2,29.1l0,0l24.9,16.1l0,0l13.2,8.3
	l3.8,2.8c3.6,2.7,2.3,6.1-2.9,7.5c-0.9,0.3-1.7,0.6-2.4,0.9l-61.9,32L301,333.3l0,0l-43,22.7c-0.1,0.1-0.2,0.1-0.3,0.2
	c-0.2,0.2-0.9,0.2-1.2,0l-10.4-6.5l0,0l-24.4-15.6l0,0L159.5,294l0,0l-45.2-28.7l0,0l-26.5-16.5c-0.2-0.1-0.4-0.3-0.5-0.4
	c-0.6-0.6-0.4-1.4,0.5-1.8L185.7,196.8z"/>
<linearGradient id="SVGID_14_" gradientUnits="userSpaceOnUse" x1="87.0702" y1="306.4789" x2="377.6732" y2="504.5969" gradientTransform="matrix(1 0 0 -1 8.410366e-06 673.8898)">
	<stop  offset="0" style="stop-color:#AEAEAE;stop-opacity:0.49"/>
	<stop  offset="1" style="stop-color:#4D4D4D;stop-opacity:0.88"/>
</linearGradient>
<path class="st19" d="M183,191.9L183,191.9l52-27.2l0,0l0,0l16.3-9.2c0.7-0.4,1.5-0.7,2.4-1l1.2-0.3c1.3-0.4,2.2-0.9,2.8-1.6
	c1.9-2.2,8.2-2.3,11.2-0.1l3.8,2.8l0,0l0,0l7.5,5.2l0,0l0,0l21.2,13.1l0,0l40.9,25.6l0,0l44.2,29.1l0,0l24.9,16.1l0,0l13.2,8.3
	l3.8,2.8c3.6,2.7,2.3,6.1-2.9,7.5c-0.9,0.3-1.7,0.6-2.4,0.9l-61.9,32l-62.9,32.5l0,0l-43,22.7c-0.1,0.1-0.2,0.1-0.3,0.2
	c-0.2,0.2-0.9,0.2-1.2,0l-10.4-6.5l0,0l-24.4-15.6l0,0l-62.1-40.1l0,0l-45.2-28.7l0,0l-26.5-16.5c-0.2-0.1-0.4-0.3-0.5-0.4
	c-0.6-0.6-0.4-1.4,0.5-1.8L183,191.9z"/>
<linearGradient id="SVGID_15_" gradientUnits="userSpaceOnUse" x1="90.4085" y1="294.7083" x2="381.0118" y2="492.8263" gradientTransform="matrix(1 0 0 -1 8.410366e-06 673.8898)">
	<stop  offset="0" style="stop-color:#AEAEAE;stop-opacity:0.49"/>
	<stop  offset="1" style="stop-color:#4D4D4D;stop-opacity:0.88"/>
</linearGradient>
<path class="st20" d="M186.3,203.6L186.3,203.6l52-27.2l0,0l0,0l16.3-9.2c0.7-0.4,1.5-0.7,2.4-1l1.2-0.3c1.3-0.4,2.2-0.9,2.8-1.6
	c1.9-2.2,8.2-2.3,11.2-0.1l3.8,2.8l0,0l0,0l7.5,5.2l0,0l0,0l21.2,13.1l0,0l40.9,25.6l0,0l44.2,29.1l0,0l24.9,16.1l0,0l13.2,8.3
	l3.8,2.8c3.6,2.7,2.3,6.1-2.9,7.5c-0.9,0.3-1.7,0.6-2.4,0.9l-61.9,32l-62.9,32.5l0,0l-43,22.7c-0.1,0.1-0.2,0.1-0.3,0.2
	c-0.2,0.2-0.9,0.2-1.2,0l-10.4-6.5l0,0l-24.4-15.6l0,0l-62.1-40.1l0,0L115,272.1l0,0l-26.5-16.5c-0.2-0.1-0.4-0.3-0.5-0.4
	c-0.6-0.6-0.4-1.4,0.5-1.8L186.3,203.6z"/>
<linearGradient id="SVGID_16_" gradientUnits="userSpaceOnUse" x1="88.5534" y1="282.3857" x2="385.9004" y2="481.4037" gradientTransform="matrix(1 0 0 -1 8.410366e-06 673.8898)">
	<stop  offset="0" style="stop-color:#AEAEAE;stop-opacity:0.49"/>
	<stop  offset="1" style="stop-color:#4D4D4D;stop-opacity:0.88"/>
</linearGradient>
<path class="st21" d="M188.7,215.3L188.7,215.3l52.9-27.5l0,0l0,0l16.6-9.4c0.7-0.4,1.5-0.7,2.5-1l1.2-0.3c1.3-0.4,2.2-0.9,2.8-1.6
	c2-2.2,8.4-2.3,11.4-0.1l3.7,2.7l0,0l0,0l7.5,5.2l0,0l0,0l21.2,13.1l0,0l40.9,25.6l0,0l44.1,29.1l0,0l24.9,16.2l0,0l13.1,8.3
	l3.7,2.7c3.7,2.7,2.4,6.2-2.9,7.7c-0.9,0.3-1.7,0.6-2.4,0.9l-63,32.4l-64,32.9l0,0l-43.8,23c-0.1,0.1-0.2,0.1-0.3,0.2
	c-0.2,0.2-0.9,0.2-1.3,0l-10.4-6.5l0,0l-24.4-15.6l0,0l-62-40.1l0,0l-45.1-28.7l0,0l-26.4-16.5c-0.2-0.1-0.4-0.3-0.5-0.4
	c-0.6-0.6-0.4-1.4,0.6-1.8L188.7,215.3z"/>
<linearGradient id="SVGID_17_" gradientUnits="userSpaceOnUse" x1="84.3912" y1="311.4417" x2="374.9943" y2="509.5597" gradientTransform="matrix(1 0 0 -1 8.410366e-06 673.8898)">
	<stop  offset="0" style="stop-color:#AEAEAE;stop-opacity:0.49"/>
	<stop  offset="1" style="stop-color:#4D4D4D;stop-opacity:0.88"/>
</linearGradient>
<path class="st22" d="M180.3,186.9L180.3,186.9l52-27.2l0,0l0,0l16.3-9.2c0.7-0.4,1.5-0.7,2.4-1l1.2-0.3c1.3-0.4,2.2-0.9,2.8-1.6
	c1.9-2.2,8.2-2.3,11.2-0.1l3.8,2.8l0,0l0,0l7.5,5.2l0,0l0,0l21.2,13.1l0,0l40.9,25.6l0,0l44.2,29.1l0,0l24.9,16.1l0,0l13.2,8.3
	l3.8,2.8c3.6,2.7,2.3,6.1-2.9,7.5c-0.9,0.3-1.7,0.6-2.4,0.9l-61.9,32l-62.9,32.5l0,0l-43,22.7c-0.1,0.1-0.2,0.1-0.3,0.2
	c-0.2,0.2-0.9,0.2-1.2,0l-10.4-6.5l0,0l-24.4-15.6l0,0l-62.1-40.1l0,0L109,255.4l0,0l-26.5-16.5c-0.2-0.1-0.4-0.3-0.5-0.4
	c-0.6-0.6-0.4-1.4,0.5-1.8L180.3,186.9z"/>
<linearGradient id="SVGID_18_" gradientUnits="userSpaceOnUse" x1="83.6872" y1="317.2834" x2="374.2907" y2="515.4014" gradientTransform="matrix(1 0 0 -1 8.410366e-06 673.8898)">
	<stop  offset="0" style="stop-color:#AEAEAE;stop-opacity:0.49"/>
	<stop  offset="1" style="stop-color:#4D4D4D;stop-opacity:0.88"/>
</linearGradient>
<path class="st23" d="M179.6,181.1L179.6,181.1l52-27.2l0,0l0,0l16.3-9.2c0.7-0.4,1.5-0.7,2.4-1l1.2-0.3c1.3-0.4,2.2-0.9,2.8-1.6
	c1.9-2.2,8.2-2.3,11.2-0.1l3.8,2.8l0,0l0,0l7.5,5.2l0,0l0,0l21.2,13.1l0,0l40.9,25.6l0,0l44.2,29.1l0,0l24.9,16.1l0,0l13.2,8.3
	l3.8,2.8c3.6,2.7,2.3,6.1-2.9,7.5c-0.9,0.3-1.7,0.6-2.4,0.9l-61.9,32l-62.9,32.5l0,0l-43,22.7c-0.1,0.1-0.2,0.1-0.3,0.2
	c-0.2,0.2-0.9,0.2-1.2,0L240,334l0,0l-24.4-15.6l0,0l-62.1-40.1l0,0l-45.2-28.7l0,0l-26.5-16.5c-0.2-0.1-0.4-0.3-0.5-0.4
	c-0.6-0.6-0.4-1.4,0.5-1.8L179.6,181.1z"/>
<linearGradient id="SVGID_19_" gradientUnits="userSpaceOnUse" x1="83.2427" y1="334.6903" x2="376.5487" y2="513.3033" gradientTransform="matrix(1 0 0 -1 8.410366e-06 673.8898)">
	<stop  offset="0" style="stop-color:#AEAEAE;stop-opacity:0.49"/>
	<stop  offset="1" style="stop-color:#4D4D4D;stop-opacity:0.88"/>
</linearGradient>
<path class="st24" d="M178.9,176.2L178.9,176.2l52-27.2l0,0l0,0l16.3-9.2c0.7-0.4,1.5-0.7,2.4-1l1.2-0.3c1.3-0.4,2.2-0.9,2.8-1.6
	c1.9-2.2,8.2-2.3,11.2-0.1l3.8,2.8l0,0l0,0l7.5,5.2l0,0l0,0l21.2,13.1l0,0l40.9,25.6l0,0l44.2,29.1l0,0l24.9,16.1l0,0l13.2,8.3
	l3.8,2.8c3.6,2.7,2.3,6.1-2.9,7.5c-0.9,0.3-1.7,0.6-2.4,0.9l-61.9,32l-62.9,32.5l0,0l-43,22.7c-0.1,0.1-0.2,0.1-0.3,0.2
	c-0.2,0.2-0.9,0.2-1.2,0l-10.4-6.5l0,0l-24.4-15.6l0,0l-62.1-40.1l0,0l-45.2-28.7l0,0l-26.5-16.5c-0.2-0.1-0.4-0.3-0.5-0.4
	c-0.6-0.6-0.4-1.4,0.5-1.8L178.9,176.2z"/>
<path class="st25" d="M78.8,264.2l179.3-93c3.9-2,10.1-1.8,13.8,0.6l163.8,104.7c3.7,2.4,3.6,6-0.4,8l-179.6,93.3"/>
<linearGradient id="SVGID_20_" gradientUnits="userSpaceOnUse" x1="147.1021" y1="358.2323" x2="382.5991" y2="544.4043" gradientTransform="matrix(1 0 0 -1 8.410366e-06 673.8898)">
	<stop  offset="0" style="stop-color:#AEAEAE;stop-opacity:0.83"/>
	<stop  offset="1" style="stop-color:#4D4D4D"/>
</linearGradient>
<path class="st26" d="M80.6,265.1c-1.3-0.1-2.4-0.6-2.3-1.3l2-43.8c0-0.6,0.5-1.2,1.4-1.7l5.3-2.5l13.8-7.4l53.8-27.1l64.1-33.6
	l25.7-13.1c0.9-0.5,2.2-0.8,3.5-1c2.5-0.3,5.2,0,7.4,0.8l1.1,0.4c0.9,0.3,1.7,0.7,2.4,1.2l6.3,4.2l52.1,32.9L421,239.8
	c5.1,3.2,3.7,7.7-3,9.5c-1.1,0.3-2.1,0.7-3,1.2l-44.4,24.3l-50.7,25.2l-59,30.9l-2,0.9c-0.7,0.3-1.2,0.7-1.4,1.1
	c-0.1,0.2-0.2,0.4-0.2,0.6l-0.3,6.2l-0.4,8.5l-0.8,17.5l-0.2,5l-0.2,4.4c0,0,0,0.1,0,0.1c-0.2,0.6-1.7,0.7-2.5,0.2l-25.3-16
	L178.6,327L143,305.4l-60.5-39.8C82,265.3,81.3,265.1,80.6,265.1z"/>
<path class="st27" d="M79.8,219.5l-1,44.3l176.9,113.1l2-44.3"/>
<path class="st25" d="M257.8,332.6l163.3-84.7c3.9-2,4.1-5.6,0.4-8L258,135.4c-3.7-2.4-9.9-2.7-13.8-0.6L79.8,219.5"/>
<g>
	<path class="st28" d="M262.1,155.9l123.4,78.9c2.3,1.5,2.2,3.7-0.2,5l-48.9,25.3c-2.5,1.3-6.3,1.1-8.7-0.4l-123.4-78.9
		c-2.3-1.5-2.2-3.7,0.2-5l48.9-25.3C255.9,154.2,259.8,154.4,262.1,155.9z"/>
</g>
<g>
	<path d="M182.6,199.8l125.2,80.1c1.8,1.2,1.7,2.9-0.2,3.9l0,0c-1.9,1-5,0.9-6.8-0.3l-125.2-80.1c-1.8-1.2-1.7-2.9,0.2-3.9l0,0
		C177.7,198.5,180.8,198.6,182.6,199.8z"/>
</g>
<g>
	<path d="M163.2,208.9L288.4,289c1.8,1.2,1.7,2.9-0.2,3.9l0,0c-1.9,1-5,0.9-6.8-0.3l-125.2-80.1c-1.8-1.2-1.7-2.9,0.2-3.9l0,0
		C158.3,207.6,161.3,207.7,163.2,208.9z"/>
</g>
<g>
	<path d="M191.9,259.3l29.3,18.7c1.8,1.2,1.7,2.9-0.2,3.9l0,0c-1.9,1-5,0.9-6.8-0.3L185,262.9c-1.8-1.2-1.7-2.9,0.2-3.9l0,0
		C187.1,257.9,190.1,258.1,191.9,259.3z"/>
</g>
<g>
	<path d="M178.5,267.7l29.3,18.7c1.8,1.2,1.7,2.9-0.2,3.9l0,0c-1.9,1-5,0.9-6.8-0.3l-29.3-18.7c-1.8-1.2-1.7-2.9,0.2-3.9l0,0
		C173.7,266.4,176.7,266.5,178.5,267.7z"/>
</g>
<g>
	<path d="M149.2,228.8l22.4,14.3c2.3,1.5,2.2,3.7-0.2,5l-13.5,7c-2.5,1.3-6.3,1.1-8.7-0.4l-22.4-14.3c-2.3-1.5-2.2-3.7,0.2-5l13.5-7
		C143,227.2,146.9,227.3,149.2,228.8z"/>
</g>
<g>
	<path d="M243.5,291.2l22.4,14.3c2.3,1.5,2.2,3.7-0.2,5l-13.5,7c-2.5,1.3-6.3,1.1-8.7-0.4l-22.4-14.3c-2.3-1.5-2.2-3.7,0.2-5l13.5-7
		C237.3,289.5,241.1,289.7,243.5,291.2z"/>
</g>
<g>
	<path d="M151,296.6l70,44.8c1.1,0.7,1.9,2.3,1.9,3.6l0,0c-0.1,1.3-1,1.8-2.1,1.1l-70-44.8c-1.1-0.7-1.9-2.3-1.9-3.6l0,0
		C149,296.4,149.9,296,151,296.6z"/>
</g>
<g>
	<path class="st29" d="M94.5,242.4l21.3,13.6c3.3,2.1,5.8,6.9,5.6,10.8l-0.5,11.5c-0.2,3.9-3,5.3-6.2,3.2l-21.3-13.6
		c-3.3-2.1-5.8-6.9-5.6-10.8l0.5-11.5C88.4,241.7,91.2,240.3,94.5,242.4z"/>
</g>
<g>
	<path d="M154.6,284.8l70,44.8c1.1,0.7,1.9,2.3,1.9,3.6l0,0c-0.1,1.3-1,1.8-2.1,1.1l-70-44.8c-1.1-0.7-1.9-2.3-1.9-3.6l0,0
		C152.5,284.6,153.5,284.1,154.6,284.8z"/>
</g>
<linearGradient id="SVGID_21_" gradientUnits="userSpaceOnUse" x1="137.9668" y1="386.1375" x2="246.8238" y2="351.4905" gradientTransform="matrix(1 0 0 -1 8.410366e-06 673.8898)">
	<stop  offset="0" style="stop-color:#201B1B"/>
	<stop  offset="1" style="stop-color:#585858;stop-opacity:0"/>
</linearGradient>
<path class="st30" d="M213.3,347.7c-0.5,4.7-13.5,8.6-42.8,5.3c-29.4-3.2-49.6-6.8-49-11.4c0.5-4.7,58.8-89.1,88.4-89.9
	C269.4,250.2,208.5,337.1,213.3,347.7z"/>
<path d="M202.3,236.2l50.9,29.8c5.7,3.3,5.7,8.7-0.1,12l-112.1,63.8c-5.8,3.3-15.1,3.2-20.8-0.1l-50.9-29.8c-5.7-3.3-5.7-8.7,0.1-12
	l112.1-63.8C187.3,232.8,196.6,232.8,202.3,236.2z"/>
<linearGradient id="SVGID_22_" gradientUnits="userSpaceOnUse" x1="37.4942" y1="742.3815" x2="336.1912" y2="194.1251" gradientTransform="matrix(0.8629 0.5053 0.8691 -0.4947 -454.063 531.6387)">
	<stop  offset="0" style="stop-color:#313030"/>
	<stop  offset="1" style="stop-color:#000000;stop-opacity:0"/>
</linearGradient>
<path class="st31" d="M208.4,239.7l50.9,29.8c5.7,3.3,5.7,8.7-0.1,12L145.9,346c-5.8,3.3-15.1,3.2-20.8-0.1l-50.9-29.8
	c-5.7-3.3-5.7-8.7,0.1-12l113.3-64.5C193.3,236.3,202.6,236.4,208.4,239.7z"/>
<g class="st32">
	
		<linearGradient id="SVGID_23_" gradientUnits="userSpaceOnUse" x1="82.083" y1="601.9182" x2="144.1487" y2="608.0428" gradientTransform="matrix(0.8629 0.5053 0.8691 -0.4947 -460.991 531.5957)">
		<stop  offset="0" style="stop-color:#FFFFFF;stop-opacity:0.8"/>
		<stop  offset="1" style="stop-color:#EAEAEA"/>
	</linearGradient>
	<path class="st33" d="M201.4,239.7l45.7,26.8c5.7,3.3,5.7,8.7-0.1,12l-105.2,59.9c-5.8,3.3-15.1,3.2-20.8-0.1l-45.7-26.8
		c-5.7-3.3-5.7-8.7,0.1-12l105.2-59.9C186.4,236.3,195.7,236.3,201.4,239.7z"/>
</g>
<linearGradient id="SVGID_24_" gradientUnits="userSpaceOnUse" x1="545.607" y1="377.6667" x2="545.607" y2="199.3137" gradientTransform="matrix(1 0 0 -1 8.410366e-06 673.8898)">
	<stop  offset="0" style="stop-color:#7B9A63"/>
	<stop  offset="1" style="stop-color:#7B9A63;stop-opacity:0"/>
</linearGradient>
<path class="st34" d="M529.8,295.5l13.3,59.7v33.4l18.3,93.1l-24.1,14.2l5.8-30.6l-5.8-23.4L529.8,295.5z"/>
<linearGradient id="SVGID_25_" gradientUnits="userSpaceOnUse" x1="482.3195" y1="368.4297" x2="482.3195" y2="190.0757" gradientTransform="matrix(1 0 0 -1 8.410366e-06 673.8898)">
	<stop  offset="0" style="stop-color:#7B9A63"/>
	<stop  offset="1" style="stop-color:#7B9A63;stop-opacity:0"/>
</linearGradient>
<path class="st35" d="M466.5,304.8l13.3,59.7v33.4l18.3,93.1L474,505.1l5.8-30.6l-5.8-23.4L466.5,304.8z"/>
<linearGradient id="SVGID_26_" gradientUnits="userSpaceOnUse" x1="450.676" y1="368.4297" x2="450.676" y2="190.0757" gradientTransform="matrix(1 0 0 -1 8.410366e-06 673.8898)">
	<stop  offset="0" style="stop-color:#7B9A63"/>
	<stop  offset="1" style="stop-color:#7B9A63;stop-opacity:0"/>
</linearGradient>
<path class="st36" d="M434.9,304.8l13.3,59.7v33.4l18.3,93.1l-24.1,14.2l5.8-30.6l-5.8-23.4L434.9,304.8z"/>
<linearGradient id="SVGID_27_" gradientUnits="userSpaceOnUse" x1="578.3282" y1="311.0088" x2="560.1472" y2="172.7248" gradientTransform="matrix(1 0 0 -1 8.410366e-06 673.8898)">
	<stop  offset="0" style="stop-color:#7B9A63"/>
	<stop  offset="1" style="stop-color:#7B9A63;stop-opacity:0"/>
</linearGradient>
<path class="st37" d="M575.6,362l1,47.2l-5.8,25.6l-0.5,73.4l-23.3,8.1l10.4-22.7l-0.9-18.6L575.6,362z"/>
<linearGradient id="SVGID_28_" gradientUnits="userSpaceOnUse" x1="540.4464" y1="293.6227" x2="538.2333" y2="154.6077" gradientTransform="matrix(1 0 0 -1 8.410366e-06 673.8898)">
	<stop  offset="0" style="stop-color:#7B9A63"/>
	<stop  offset="1" style="stop-color:#7B9A63;stop-opacity:0"/>
</linearGradient>
<path class="st38" d="M549.1,379.9l-8.9,46.4l0.6,26l-12,72.4l18.3,11.4l-4.9-23.9l3.9-18.2L549.1,379.9z"/>
<linearGradient id="SVGID_29_" gradientUnits="userSpaceOnUse" x1="470.1197" y1="246.9238" x2="492.2117" y2="180.1808" gradientTransform="matrix(1 0 0 -1 8.410366e-06 673.8898)">
	<stop  offset="0" style="stop-color:#7B9A63"/>
	<stop  offset="1" style="stop-color:#7B9A63;stop-opacity:0"/>
</linearGradient>
<path class="st39" d="M471.5,426.2l2,24.1l6.2,11.8l4.8,37.1l19-0.4l-9.6-9.5l-0.4-9.6L471.5,426.2z"/>
<linearGradient id="SVGID_30_" gradientUnits="userSpaceOnUse" x1="571.842" y1="376.2458" x2="571.842" y2="197.8917" gradientTransform="matrix(1 0 0 -1 8.410366e-06 673.8898)">
	<stop  offset="0" style="stop-color:#7B9A63"/>
	<stop  offset="1" style="stop-color:#7B9A63;stop-opacity:0"/>
</linearGradient>
<path class="st40" d="M560.2,274.9l4.6,20.6l5.4,11l13.3,172.3l-13.3,2.1v-10.3v-41.2l-5.4-62.5L560.2,274.9z"/>
<linearGradient id="SVGID_31_" gradientUnits="userSpaceOnUse" x1="508.555" y1="367.0088" x2="508.555" y2="188.6547" gradientTransform="matrix(1 0 0 -1 8.410366e-06 673.8898)">
	<stop  offset="0" style="stop-color:#7B9A63"/>
	<stop  offset="1" style="stop-color:#7B9A63;stop-opacity:0"/>
</linearGradient>
<path class="st41" d="M496.9,284.1l4.6,20.6l5.4,11l13.3,172.3l-13.3,2.1v-10.3v-41.2l-5.4-62.5L496.9,284.1z"/>
<linearGradient id="SVGID_32_" gradientUnits="userSpaceOnUse" x1="476.9115" y1="367.0088" x2="476.9115" y2="188.6547" gradientTransform="matrix(1 0 0 -1 8.410366e-06 673.8898)">
	<stop  offset="0" style="stop-color:#7B9A63"/>
	<stop  offset="1" style="stop-color:#7B9A63;stop-opacity:0"/>
</linearGradient>
<path class="st42" d="M465.3,284.1l4.6,20.6l5.4,11l13.3,172.3l-13.3,2.1v-10.3v-41.2l-5.4-62.5L465.3,284.1z"/>
<linearGradient id="SVGID_33_" gradientUnits="userSpaceOnUse" x1="603.0262" y1="306.6406" x2="584.8462" y2="168.3566" gradientTransform="matrix(1 0 0 -1 8.410366e-06 673.8898)">
	<stop  offset="0" style="stop-color:#7B9A63"/>
	<stop  offset="1" style="stop-color:#7B9A63;stop-opacity:0"/>
</linearGradient>
<path class="st43" d="M605.4,349.6l0.3,16.3l2.7,9l-18.6,133.5l-11.8,0.1l1.8-7.9l7.2-31.6l6.3-48.5L605.4,349.6z"/>
<linearGradient id="SVGID_34_" gradientUnits="userSpaceOnUse" x1="520.1596" y1="292.8382" x2="517.9477" y2="153.8222" gradientTransform="matrix(1 0 0 -1 8.410366e-06 673.8898)">
	<stop  offset="0" style="stop-color:#7B9A63"/>
	<stop  offset="1" style="stop-color:#7B9A63;stop-opacity:0"/>
</linearGradient>
<path class="st44" d="M526,363.4l-3,16l-3.8,8.5l-6.8,134.2l10,1.8l-0.2-8l-0.8-32.1l2.9-48.7L526,363.4z"/>
<linearGradient id="SVGID_35_" gradientUnits="userSpaceOnUse" x1="450.3905" y1="239.8034" x2="472.4825" y2="173.0605" gradientTransform="matrix(1 0 0 -1 8.410366e-06 673.8898)">
	<stop  offset="0" style="stop-color:#7B9A63"/>
	<stop  offset="1" style="stop-color:#7B9A63;stop-opacity:0"/>
</linearGradient>
<path class="st45" d="M447.1,425.7l0.7,8.3l-1.6,5.1l22.8,64l9.4-2.2l-1.9-3.6l-7.6-14.6l-7.9-23.4L447.1,425.7z"/>
<linearGradient id="SVGID_36_" gradientUnits="userSpaceOnUse" x1="562.5855" y1="312.2947" x2="562.5855" y2="133.9408" gradientTransform="matrix(1 0 0 -1 8.410366e-06 673.8898)">
	<stop  offset="0" style="stop-color:#7B9A63"/>
	<stop  offset="1" style="stop-color:#7B9A63;stop-opacity:0"/>
</linearGradient>
<path class="st46" d="M550.9,325.7l-4.2-62.9l16.7,102l15,136.1h-31.6l8.7-99.5L550.9,325.7z"/>
<linearGradient id="SVGID_37_" gradientUnits="userSpaceOnUse" x1="499.2985" y1="303.0568" x2="499.2985" y2="124.7027" gradientTransform="matrix(1 0 0 -1 8.410366e-06 673.8898)">
	<stop  offset="0" style="stop-color:#7B9A63"/>
	<stop  offset="1" style="stop-color:#7B9A63;stop-opacity:0"/>
</linearGradient>
<path class="st47" d="M487.6,334.9l-4.2-62.9l16.7,102l15,136.1h-31.6l8.7-99.5L487.6,334.9z"/>
<linearGradient id="SVGID_38_" gradientUnits="userSpaceOnUse" x1="467.6545" y1="303.0568" x2="467.6545" y2="124.7027" gradientTransform="matrix(1 0 0 -1 8.410366e-06 673.8898)">
	<stop  offset="0" style="stop-color:#7B9A63"/>
	<stop  offset="1" style="stop-color:#7B9A63;stop-opacity:0"/>
</linearGradient>
<path class="st48" d="M456,334.9l-4.2-62.9l16.7,102l15,136.1h-31.6l8.7-99.5L456,334.9z"/>
<linearGradient id="SVGID_39_" gradientUnits="userSpaceOnUse" x1="582.1738" y1="258.9413" x2="563.9938" y2="120.6572" gradientTransform="matrix(1 0 0 -1 8.410366e-06 673.8898)">
	<stop  offset="0" style="stop-color:#7B9A63"/>
	<stop  offset="1" style="stop-color:#7B9A63;stop-opacity:0"/>
</linearGradient>
<path class="st49" d="M588.5,387.5l7.4-48.6l-3.5,80l-10.9,105.9l-27.2-3.6l24.9-75.2L588.5,387.5z"/>
<linearGradient id="SVGID_40_" gradientUnits="userSpaceOnUse" x1="530.1091" y1="242.821" x2="527.8961" y2="103.805" gradientTransform="matrix(1 0 0 -1 8.410366e-06 673.8898)">
	<stop  offset="0" style="stop-color:#7B9A63"/>
	<stop  offset="1" style="stop-color:#7B9A63;stop-opacity:0"/>
</linearGradient>
<path class="st50" d="M533.9,403.2l2-49l-10.6,79.3l-8.7,106l23.7,0.4l-8.4-77.7L533.9,403.2z"/>
<linearGradient id="SVGID_41_" gradientUnits="userSpaceOnUse" x1="469.9818" y1="219.7344" x2="492.0738" y2="152.9924" gradientTransform="matrix(1 0 0 -1 8.410366e-06 673.8898)">
	<stop  offset="0" style="stop-color:#7B9A63"/>
	<stop  offset="1" style="stop-color:#7B9A63;stop-opacity:0"/>
</linearGradient>
<path class="st51" d="M462.8,441.6l-8.8-23.2l7.5,39.8l15,51.5l21.5-7.1l-24.3-33.3L462.8,441.6z"/>
<linearGradient id="SVGID_42_" gradientUnits="userSpaceOnUse" x1="588.076" y1="376.2458" x2="588.076" y2="197.8917" gradientTransform="matrix(1 0 0 -1 8.410366e-06 673.8898)">
	<stop  offset="0" style="stop-color:#7B9A63"/>
	<stop  offset="1" style="stop-color:#7B9A63;stop-opacity:0"/>
</linearGradient>
<path class="st52" d="M572.3,297.6l15-21.7l12.1-10.7l-9.6,21.3l-4.6,29.1l7.5,61.5V428l11.2,48l-26.2,2.1v-20.3v-67.5L572.3,297.6z
	"/>
<linearGradient id="SVGID_43_" gradientUnits="userSpaceOnUse" x1="524.7885" y1="367.0088" x2="524.7885" y2="188.6547" gradientTransform="matrix(1 0 0 -1 8.410366e-06 673.8898)">
	<stop  offset="0" style="stop-color:#7B9A63"/>
	<stop  offset="1" style="stop-color:#7B9A63;stop-opacity:0"/>
</linearGradient>
<path class="st53" d="M509,306.9l15-21.7l12.1-10.7l-9.6,21.3l-4.6,29.1l7.5,61.5v50.8l11.2,48l-26.2,2.1v-20.3v-67.5L509,306.9z"/>
<linearGradient id="SVGID_44_" gradientUnits="userSpaceOnUse" x1="493.145" y1="367.0088" x2="493.145" y2="188.6547" gradientTransform="matrix(1 0 0 -1 8.410366e-06 673.8898)">
	<stop  offset="0" style="stop-color:#7B9A63"/>
	<stop  offset="1" style="stop-color:#7B9A63;stop-opacity:0"/>
</linearGradient>
<path class="st54" d="M477.3,306.9l15-21.7l12.1-10.7l-9.6,21.3l-4.6,29.1l7.5,61.5v50.8l11.2,48l-26.2,2.1v-20.3v-67.5L477.3,306.9
	z"/>
<linearGradient id="SVGID_45_" gradientUnits="userSpaceOnUse" x1="620.3969" y1="304.3566" x2="602.2169" y2="166.0726" gradientTransform="matrix(1 0 0 -1 8.410366e-06 673.8898)">
	<stop  offset="0" style="stop-color:#7B9A63"/>
	<stop  offset="1" style="stop-color:#7B9A63;stop-opacity:0"/>
</linearGradient>
<path class="st55" d="M611.8,368.4l16.7-14.9l12.3-6.8l-12,15.2l-9,21.8l-4.3,47.9l-8.9,38.9l1.3,38l-23-1.3l3.5-15.5l11.8-51.7
	L611.8,368.4z"/>
<linearGradient id="SVGID_46_" gradientUnits="userSpaceOnUse" x1="507.5451" y1="293.0384" x2="505.3322" y2="154.0224" gradientTransform="matrix(1 0 0 -1 8.410366e-06 673.8898)">
	<stop  offset="0" style="stop-color:#7B9A63"/>
	<stop  offset="1" style="stop-color:#7B9A63;stop-opacity:0"/>
</linearGradient>
<path class="st56" d="M517.4,381l-11.6-17.1l-9.2-8.5l7.6,16.7l4,22.8l-4.5,47.8l0.9,39.6l-7.5,37.3l19.7,2l-0.4-15.8l-1.2-52.6
	L517.4,381z"/>
<linearGradient id="SVGID_47_" gradientUnits="userSpaceOnUse" x1="436.6308" y1="235.2493" x2="458.7228" y2="168.5063" gradientTransform="matrix(1 0 0 -1 8.410366e-06 673.8898)">
	<stop  offset="0" style="stop-color:#7B9A63"/>
	<stop  offset="1" style="stop-color:#7B9A63;stop-opacity:0"/>
</linearGradient>
<path class="st57" d="M443.1,436.5l-14.2-4.3l-10.2-1.1l10.4,5.4l8.5,9.3l6.3,23.4l9.4,18l1.2,19.5l18.2-5.1l-3.7-7.2l-12.5-23.9
	L443.1,436.5z"/>
<linearGradient id="SVGID_48_" gradientUnits="userSpaceOnUse" x1="532.283" y1="202.1557" x2="532.283" y2="1.0637" gradientTransform="matrix(1 0 0 -1 8.410366e-06 673.8898)">
	<stop  offset="0" style="stop-color:#A57AA0"/>
	<stop  offset="1" style="stop-color:#2F032A"/>
</linearGradient>
<path class="st58" d="M442.3,471.7h179.9l-34.1,201.1H476.5L442.3,471.7z"/>
</svg>
