<?xml version="1.0" encoding="utf-8"?>
<!-- Generator: Adobe Illustrator 24.3.0, SVG Export Plug-In . SVG Version: 6.00 Build 0)  -->
<svg version="1.1" id="Capa_1" xmlns="http://www.w3.org/2000/svg" xmlns:xlink="http://www.w3.org/1999/xlink" x="0px" y="0px"
	 viewBox="0 0 668.98 660.47" style="enable-background:new 0 0 668.98 660.47;" xml:space="preserve">
<style type="text/css">
	.st0{opacity:0.6;}
	.st1{fill:url(#SVGID_1_);}
	.st2{fill:url(#SVGID_2_);}
	.st3{fill:url(#SVGID_3_);}
	.st4{fill:url(#SVGID_4_);}
	.st5{fill:url(#SVGID_5_);}
	.st6{fill:url(#SVGID_6_);}
	.st7{fill:url(#SVGID_7_);}
	.st8{fill:url(#SVGID_8_);}
	.st9{fill:url(#SVGID_9_);}
	.st10{fill:url(#SVGID_10_);}
	.st11{fill:url(#SVGID_11_);}
	.st12{fill:url(#SVGID_12_);}
	.st13{fill:url(#SVGID_13_);}
	.st14{opacity:0.5;fill:url(#SVGID_14_);enable-background:new    ;}
	.st15{fill:#F6E248;fill-opacity:0.96;}
	.st16{fill:#686868;}
	.st17{fill:#C5428A;}
	.st18{fill:#FFFFFF;}
	.st19{fill:#FFFFFF;fill-opacity:0.62;}
	.st20{fill:#F6E248;fill-opacity:0.87;}
	.st21{fill:url(#SVGID_15_);}
	.st22{fill:url(#SVGID_16_);}
	.st23{fill:none;stroke:#000000;stroke-linecap:round;stroke-linejoin:round;}
	.st24{fill:#401782;stroke:#000000;stroke-linecap:round;stroke-linejoin:round;}
	.st25{fill:none;stroke:#401782;stroke-linecap:round;stroke-linejoin:round;}
	.st26{fill:#CAC5D7;stroke:#000000;stroke-linecap:round;stroke-linejoin:round;}
	.st27{fill:#6A65AA;}
	.st28{fill:#401782;}
</style>
<g class="st0">
	
		<linearGradient id="SVGID_1_" gradientUnits="userSpaceOnUse" x1="310.7334" y1="242.0833" x2="393.5114" y2="119.2373" gradientTransform="matrix(1 0 0 -1 -86.4567 694.126)">
		<stop  offset="0" style="stop-color:#F7DC24;stop-opacity:0.81"/>
		<stop  offset="0.474" style="stop-color:#DC509B;stop-opacity:0.76"/>
		<stop  offset="1" style="stop-color:#F93D3D;stop-opacity:0.88"/>
	</linearGradient>
	<ellipse class="st1" cx="263.61" cy="510.41" rx="45.5" ry="49"/>
</g>
<g class="st0">
	
		<linearGradient id="SVGID_2_" gradientUnits="userSpaceOnUse" x1="257.7334" y1="193.0833" x2="340.5114" y2="70.2373" gradientTransform="matrix(1 0 0 -1 -86.4567 694.126)">
		<stop  offset="0" style="stop-color:#F7DC24;stop-opacity:0.81"/>
		<stop  offset="0.474" style="stop-color:#DC509B;stop-opacity:0.76"/>
		<stop  offset="1" style="stop-color:#F93D3D;stop-opacity:0.88"/>
	</linearGradient>
	<ellipse class="st2" cx="210.61" cy="559.41" rx="45.5" ry="49"/>
</g>
<g class="st0">
	
		<linearGradient id="SVGID_3_" gradientUnits="userSpaceOnUse" x1="239.4408" y1="255.5262" x2="279.6908" y2="198.0422" gradientTransform="matrix(1 0 0 -1 -86.4567 694.126)">
		<stop  offset="0" style="stop-color:#F7DC24;stop-opacity:0.81"/>
		<stop  offset="0.474" style="stop-color:#DC509B;stop-opacity:0.76"/>
		<stop  offset="1" style="stop-color:#F93D3D;stop-opacity:0.88"/>
	</linearGradient>
	<ellipse class="st3" cx="172.11" cy="465.91" rx="21" ry="23.5"/>
</g>
<g class="st0">
	
		<linearGradient id="SVGID_4_" gradientUnits="userSpaceOnUse" x1="366.7333" y1="567.0834" x2="449.5114" y2="444.2373" gradientTransform="matrix(1 0 0 -1 -86.4567 694.126)">
		<stop  offset="0" style="stop-color:#F7DC24;stop-opacity:0.81"/>
		<stop  offset="0.474" style="stop-color:#DC509B;stop-opacity:0.76"/>
		<stop  offset="1" style="stop-color:#F93D3D;stop-opacity:0.88"/>
	</linearGradient>
	<ellipse class="st4" cx="319.61" cy="185.41" rx="45.5" ry="49"/>
</g>
<g class="st0">
	
		<linearGradient id="SVGID_5_" gradientUnits="userSpaceOnUse" x1="427.7534" y1="511.4608" x2="474.7114" y2="440.4348" gradientTransform="matrix(1 0 0 -1 -86.4567 694.126)">
		<stop  offset="0" style="stop-color:#F7DC24;stop-opacity:0.81"/>
		<stop  offset="0.474" style="stop-color:#DC509B;stop-opacity:0.76"/>
		<stop  offset="1" style="stop-color:#F93D3D;stop-opacity:0.88"/>
	</linearGradient>
	<ellipse class="st5" cx="363.61" cy="216.41" rx="26.5" ry="28"/>
</g>
<g class="st0">
	
		<linearGradient id="SVGID_6_" gradientUnits="userSpaceOnUse" x1="496.7333" y1="144.0833" x2="579.5114" y2="21.2373" gradientTransform="matrix(1 0 0 -1 -86.4567 694.126)">
		<stop  offset="0" style="stop-color:#F7DC24;stop-opacity:0.81"/>
		<stop  offset="0.474" style="stop-color:#DC509B;stop-opacity:0.76"/>
		<stop  offset="1" style="stop-color:#F93D3D;stop-opacity:0.88"/>
	</linearGradient>
	<ellipse class="st6" cx="449.61" cy="608.41" rx="45.5" ry="49"/>
</g>
<g class="st0">
	
		<linearGradient id="SVGID_7_" gradientUnits="userSpaceOnUse" x1="532.7333" y1="487.0833" x2="615.5114" y2="364.2373" gradientTransform="matrix(1 0 0 -1 -86.4567 694.126)">
		<stop  offset="0" style="stop-color:#F7DC24;stop-opacity:0.81"/>
		<stop  offset="0.474" style="stop-color:#DC509B;stop-opacity:0.76"/>
		<stop  offset="1" style="stop-color:#F93D3D;stop-opacity:0.88"/>
	</linearGradient>
	<ellipse class="st7" cx="485.61" cy="265.41" rx="45.5" ry="49"/>
</g>
<g class="st0">
	
		<linearGradient id="SVGID_8_" gradientUnits="userSpaceOnUse" x1="533.9988" y1="173.7026" x2="573.0739" y2="107.4296" gradientTransform="matrix(1 0 0 -1 -86.4567 694.126)">
		<stop  offset="0" style="stop-color:#F7DC24;stop-opacity:0.81"/>
		<stop  offset="0.474" style="stop-color:#DC509B;stop-opacity:0.76"/>
		<stop  offset="1" style="stop-color:#F93D3D;stop-opacity:0.88"/>
	</linearGradient>
	<ellipse class="st8" cx="466.11" cy="551.91" rx="26" ry="24.5"/>
</g>
<g class="st0">
	
		<linearGradient id="SVGID_9_" gradientUnits="userSpaceOnUse" x1="358.9407" y1="483.259" x2="626.4877" y2="56.98" gradientTransform="matrix(1 0 0 -1 -86.4567 694.126)">
		<stop  offset="0" style="stop-color:#000000;stop-opacity:0.81"/>
		<stop  offset="0.474" style="stop-color:#F9C5AD;stop-opacity:0.76"/>
		<stop  offset="1" style="stop-color:#35A65E;stop-opacity:0.88"/>
	</linearGradient>
	<ellipse class="st9" cx="399.61" cy="413.41" rx="162.5" ry="163"/>
</g>
<g class="st0">
	
		<linearGradient id="SVGID_10_" gradientUnits="userSpaceOnUse" x1="508.3118" y1="731.3539" x2="720.3578" y2="365.909" gradientTransform="matrix(1 0 0 -1 -86.4567 694.126)">
		<stop  offset="0" style="stop-color:#37A22B;stop-opacity:0.81"/>
		<stop  offset="0.474" style="stop-color:#B04EA4;stop-opacity:0.76"/>
		<stop  offset="1" style="stop-color:#383F9A;stop-opacity:0.88"/>
	</linearGradient>
	<ellipse class="st10" cx="522.61" cy="136.41" rx="144.5" ry="134"/>
</g>
<g class="st0">
	
		<linearGradient id="SVGID_11_" gradientUnits="userSpaceOnUse" x1="202.1884" y1="460.6796" x2="317.6824" y2="267.1266" gradientTransform="matrix(1 0 0 -1 -86.4567 694.126)">
		<stop  offset="0" style="stop-color:#37A22B;stop-opacity:0.81"/>
		<stop  offset="0.474" style="stop-color:#B04EA4;stop-opacity:0.76"/>
		<stop  offset="1" style="stop-color:#383F9A;stop-opacity:0.88"/>
	</linearGradient>
	<ellipse class="st11" cx="170.61" cy="325.41" rx="75.5" ry="72"/>
</g>
<g class="st0">
	
		<linearGradient id="SVGID_12_" gradientUnits="userSpaceOnUse" x1="185.9113" y1="434.1775" x2="205.177" y2="394.2645" gradientTransform="matrix(1 0 0 -1 -86.4567 694.126)">
		<stop  offset="0" style="stop-color:#37A22B;stop-opacity:0.81"/>
		<stop  offset="0.474" style="stop-color:#B04EA4;stop-opacity:0.76"/>
		<stop  offset="1" style="stop-color:#383F9A;stop-opacity:0.88"/>
	</linearGradient>
	<ellipse class="st12" cx="108.61" cy="278.91" rx="17.5" ry="13.5"/>
</g>
<linearGradient id="SVGID_13_" gradientUnits="userSpaceOnUse" x1="94.7347" y1="668.4929" x2="351.8127" y2="564.6208" gradientTransform="matrix(1 0 0 -1 -86.4567 694.126)">
	<stop  offset="0" style="stop-color:#F9C5AD;stop-opacity:0.76"/>
	<stop  offset="1" style="stop-color:#F9C5AD;stop-opacity:0.76"/>
</linearGradient>
<path class="st13" d="M11.36,57.55c0-25.4,16.16-45.37,36.1-44.6l176.55,6.84c19.94,0.77,36.1,21.99,36.1,47.4v54.97
	c0,12.64-5.17,24.16-13.64,30.4l-13.55,9.99c-0.06,0.04-0.09,0.12-0.09,0.21c0,0.29,0.33,0.35,0.38,0.07l3.7-19.96
	c0.32-1.7-0.75-3.36-2.13-3.32l-43.38,1.42l-144.12-6.47c-19.87-0.89-35.93-22.07-35.93-47.39V57.55z"/>
<linearGradient id="SVGID_14_" gradientUnits="userSpaceOnUse" x1="123.3881" y1="848.4688" x2="421.8631" y2="697.1741" gradientTransform="matrix(0.7848 0.0304 0 -1 -86.4567 833.095)">
	<stop  offset="0" style="stop-color:#F6E248;stop-opacity:0.87"/>
	<stop  offset="1" style="stop-color:#6675B5;stop-opacity:0.57"/>
</linearGradient>
<path class="st14" d="M38.21,3.78l176.55,6.83c19.94,0.77,36.1,21.99,36.1,47.4v29.32c0,25.41-16.16,45.37-36.1,44.6L38.21,125.1
	c-19.94-0.77-36.1-21.99-36.1-47.4V48.38C2.11,22.98,18.27,3.01,38.21,3.78z"/>
<path class="st15" d="M33.34,26.42l59.14,2.29c1.64,0.06,2.96,1.8,2.96,3.89l0,0c0,2.08-1.33,3.72-2.96,3.66l-59.14-2.29
	c-1.64-0.06-2.96-1.8-2.96-3.89l0,0C30.37,27.99,31.7,26.35,33.34,26.42z"/>
<path class="st16" d="M33.34,47.44l168.75,6.53c1.64,0.06,2.96,1.8,2.96,3.89l0,0c0,2.08-1.33,3.72-2.96,3.66L33.34,54.99
	c-1.64-0.06-2.96-1.8-2.96-3.89l0,0C30.37,49.02,31.7,47.38,33.34,47.44z"/>
<path class="st17" d="M33.34,93.81l114.7,4.44c1.64,0.06,2.96,1.8,2.96,3.89l0,0c0,2.08-1.33,3.72-2.96,3.66l-114.7-4.44
	c-1.64-0.06-2.96-1.8-2.96-3.89l0,0C30.37,95.39,31.7,93.75,33.34,93.81z"/>
<path class="st18" d="M33.34,70.63l118.2,4.58c1.64,0.06,2.96,1.8,2.96,3.89l0,0c0,2.08-1.33,3.72-2.96,3.66l-118.2-4.58
	c-1.64-0.06-2.96-1.8-2.96-3.89l0,0C30.37,72.2,31.7,70.57,33.34,70.63z"/>
<path class="st19" d="M181.49,99.55l58.64,2.27c1.64,0.06,2.96,1.8,2.96,3.89l0,0c0,2.08-1.33,3.72-2.96,3.66l-58.64-2.27
	c-1.64-0.06-2.96-1.8-2.96-3.89l0,0C178.53,101.12,179.85,99.49,181.49,99.55z"/>
<path class="st20" d="M197,119.02l27.61,1.07c1.64,0.06,2.96,1.8,2.96,3.89l0,0c0,2.08-1.33,3.72-2.96,3.66L197,126.57
	c-1.64-0.06-2.96-1.8-2.96-3.89l0,0C194.04,120.6,195.37,118.96,197,119.02z"/>
<g>
	<path d="M194.25,166.91l-29.35,50.04c-4.34,7.39-3.92,19.18,0.94,26.3l114.95,168.38c4.86,7.13,12.33,6.9,16.66-0.49l5.02-8.56
		c-4.6-12.91-11.61-25.33-18.36-37.17c-1.31-2.29-2.7-4.52-4.09-6.72c-0.01-0.01-0.01-0.01-0.03-0.03
		c-1.06-0.85-1.64-1.89-1.89-2.98c-4.39-6.86-8.64-13.55-10.94-21.12c-3.93-7.89-4.61-16.59-4.39-25.2
		c0.22-8.41,1.76-18.18,10.7-22.62c4.24-2.11,9.23-2.24,13.8-1.03c1.82,0.48,4.56,2.08,7.01,2.8l-83.35-122.09"/>
	
		<linearGradient id="SVGID_15_" gradientUnits="userSpaceOnUse" x1="257.9273" y1="646.3863" x2="483.5133" y2="-331.1456" gradientTransform="matrix(1 0 0 -1 -86.4567 694.126)">
		<stop  offset="0" style="stop-color:#313030"/>
		<stop  offset="1" style="stop-color:#000000"/>
	</linearGradient>
	<path class="st21" d="M190.46,173.39l-29.36,50.04c-4.34,7.41-3.92,19.18,0.95,26.3l116.11,170.09c4.87,7.13,12.33,6.9,16.67-0.49
		l8.46-14.42c-4.56-13.75-11.99-26.96-19.17-39.5c-1.31-2.29-2.7-4.52-4.09-6.72c-0.01-0.01-0.01-0.01-0.03-0.03
		c-1.06-0.85-1.64-1.89-1.89-2.98c-4.39-6.86-8.64-13.55-10.94-21.12c-3.93-7.89-4.62-16.59-4.39-25.2
		c0.22-8.41,1.76-18.18,10.7-22.62c3.15-1.57,6.73-2.04,10.23-1.68l-76.58-112.18"/>
	
		<linearGradient id="SVGID_16_" gradientUnits="userSpaceOnUse" x1="357.1327" y1="418.936" x2="306.5047" y2="388.687" gradientTransform="matrix(1 0 0 -1 -86.4567 694.126)">
		<stop  offset="0" style="stop-color:#FFFFFF"/>
		<stop  offset="1" style="stop-color:#EAEAEA"/>
	</linearGradient>
	<path class="st22" d="M196.1,174.77L170,219.25c-4.35,7.39-3.92,19.17,0.95,26.3l108.02,158.22c4.87,7.13,12.33,6.9,16.67-0.49
		l4.28-7.3c-4.43-10.55-10.2-20.76-15.8-30.56c-1.31-2.29-2.7-4.52-4.09-6.72c-0.01-0.01-0.01-0.01-0.03-0.03
		c-1.06-0.85-1.64-1.89-1.89-2.98c-4.39-6.86-8.64-13.55-10.94-21.12c-3.93-7.89-4.61-16.59-4.39-25.2
		c0.22-8.41,1.76-18.18,10.7-22.62c4.24-2.11,9.23-2.24,13.8-1.03c0.61,0.16,1.33,0.46,2.11,0.8l-76.63-112.25"/>
	<path class="st23" d="M287.17,424.77c1.61,0.83,3.49,1.19,5.13,1.84c1.38,0.54,3.81,0.1,5.23-0.32c1.2-0.35,3.07-0.84,3.96-1.54
		c1.31-1.05,2.72-1.77,3.28-3.25c0.15-0.43,0.71-1.05,0.75-1.43c0.05-0.52,0.53-1.11,0.46-1.59c-0.11-0.91,0.29-1.85,0.33-2.77
		c0.04-1.06-0.04-2.08-0.17-3.14c-0.14-1.2-0.22-2.35-0.81-3.47c-0.33-0.63-0.74-1.16-1.14-1.77c-0.42-0.64-0.38-1.39-0.71-2.04
		c-0.5-0.96-1.29-1.87-1.42-2.95c-0.13-1.06-0.47-2.1-0.6-3.19c-0.26-2.21-0.31-4.38-0.57-6.61c-0.11-0.91,0.43-1.9,0.32-2.86
		c-0.15-1.32-0.32-2.63-0.47-3.95c-0.17-1.43-0.9-2.73-1.58-4.04c-0.26-0.52-0.67-1.16-1.07-1.62c-0.44-0.51-1.21-1.39-1.33-1.96
		c-0.15-0.75-1.1-1.32-1.5-1.99c-0.28-0.47-0.4-1.13-0.46-1.65c-0.07-0.54-0.12-1.1-0.19-1.65c-0.07-0.61-0.56-1.03-0.64-1.65"/>
	<path class="st23" d="M295.48,414.83c0.56,0.51,0.4,1.55,0.49,2.19c0.08,0.66,0.15,1.55-0.31,2.14c-0.76,0.97-1.26,2.03-2.04,2.97
		c-0.53,0.65-0.94,1.25-1.4,1.93c-0.31,0.44-0.72,0.86-0.93,1.34c-0.17,0.37-0.63,0.46-0.78,0.77"/>
	<path class="st23" d="M294.48,415.57c-1.46,0.37-2.47,0.29-2.68,1.49c-0.15,0.87-0.57,1.95-1.1,2.73
		c-0.62,0.94-1.11,1.76-1.57,2.72c-0.42,0.86-0.53,1.72-0.96,2.56"/>
	<path class="st23" d="M297.55,412.45c0.47,0.53,0.35,1.3,0.81,1.81c0.35,0.37,0.29,1.25,0.32,1.7c0.03,0.44-1.31,0.97-1.83,1.16"/>
	<path class="st23" d="M306.23,418.67c0.28,1.91,1.1,3.71,1.33,5.63c0.33,2.75,0.65,5.49,0.99,8.23c0.22,1.82,0.18,3.82,0.89,5.57
		c0.54,1.34,1.1,2.84,1.39,4.23c0.32,1.47,1.38,2.73,1.85,4.17c0.42,1.24,1.07,2.42,1.43,3.68c0.78,2.66,1.49,5.32,3.11,7.76
		c1.28,1.9,2.14,3.99,3.5,5.88c1.11,1.54,2.25,3.08,3.39,4.62c1.54,2.09,2.99,4.23,4.6,6.28c1.63,2.05,3.52,4.22,4.74,6.43
		c1.29,2.37,2.9,4.62,4.17,6.99c0.71,1.33,2.02,2.73,3,3.98c0.97,1.22,1.64,2.73,2.77,3.86c1.39,1.38,2.35,3.13,4.13,4.29
		c1.47,0.96,2.5,2.29,4.04,3.25c0.64,0.41,1.02,0.95,1.74,1.28c0.57,0.27,1.21,0.82,1.56,1.24c0.45,0.52,1.29,0.99,1.93,1.37
		c0.7,0.42,1.29,0.97,1.92,1.44c0.5,0.37,0.9,0.58,1.32,0.99c0.35,0.33,0.65,0.95,1.13,1.16c0.14,0.06,0.68,0.75,0.83,0.9
		c0.43,0.47,0.78,0.94,1.31,1.35"/>
	<path class="st23" d="M361.84,512.09c1.28,1.84,2.53,3.52,4.17,5.15c0.86,0.86,1.4,1.81,2.24,2.65c0.93,0.93,1.88,1.61,3.07,2.33
		c0.97,0.58,1.89,1.3,2.65,2.04c0.65,0.63,1.52,1.06,2.17,1.68c1.83,1.74,3.82,3.44,5.78,5.1c2.5,2.1,4.64,4.38,6.96,6.58
		c1.46,1.38,2.63,2.95,4.14,4.29c1.61,1.43,3.21,2.87,4.68,4.41c2.17,2.24,4.6,4.24,6.6,6.58c2.29,2.71,4.27,5.57,6.38,8.37
		c1.21,1.59,2.31,3.16,3.85,4.6c1.47,1.35,2.5,2.92,4.03,4.23c1.93,1.63,2.71,4.04,4.3,5.86c1.31,1.48,1.9,3.18,2.72,4.84
		c0.29,0.59,0.36,1.27,0.67,1.87c0.29,0.6,0.81,1.09,0.92,1.76c0.18,1.06,0.68,2,0.81,3.09c0.08,0.66,0.53,2.58,0.44,1.94"/>
	<path class="st23" d="M372.64,384.9c0.9,0.15,1.93,0.66,2.14,1.43c0.17,0.62,0.72,1.14,0.86,1.76c0.26,1.15,2.15,1.95,2.77,2.99"/>
	<path class="st23" d="M295,290.22c-1.06-0.23-1.88-0.62-2.56-1.23"/>
	<path class="st23" d="M319.97,294.16c0.32,2.61-1.17,5.04-2.34,7.48c-0.14,0.29-0.32,0.81-0.36,1.1c-0.1,0.57-0.64,1.05-0.83,1.61
		c-0.28,0.79-0.86,1.33-1.11,2.13"/>
	<path class="st23" d="M319.82,294.67c-0.2,1.44-0.4,3.06-0.33,4.48c0.04,0.73,0.18,1.48,0.26,2.22c0.15,1.25-0.14,2.46,0,3.68
		c0.21,1.8-0.65,3.66-0.86,5.45c-0.11,0.92,0.56,2.94-0.46,3.57"/>
	<path class="st23" d="M322.65,320.23c1.14,0.71,1.82,1.62,2.9,2.34c0.6,0.4,1.53,1.4,2.29,1.58c0.85,0.19,1.64,0.99,2.32,1.42
		c1.19,0.76,2.15,1.53,3.45,2.2c1.2,0.62,2.46,1.24,3.63,1.94c0.79,0.47,1.99,1.57,2.99,1.75c0.99,0.16,1.99,0.72,3.03,0.98
		c1.01,0.24,2.15,0.44,3.21,0.42c0.82-0.01,1.57,0.14,2.42,0.09c1.15-0.06,2.42,0.25,3.53,0.14c1.03-0.1,2.32-0.08,3.21-0.52
		c0.95-0.47,2.04-0.91,2.99-1.42c0.86-0.47,1.82-1.16,2.89-1.42c1.22-0.29,1.99-1.25,3.23-1.48c0.74-0.14,1.85-1.01,2.33-1.47
		c0.79-0.73,1.81-1.24,2.74-1.84"/>
	<path class="st23" d="M362.23,325.36c-0.82,0.77-1.57,1.51-2.4,2.25c-0.67,0.61-0.97,1.35-1.64,1.98c-1.01,0.95-1.83,2.63-3.39,3.1
		"/>
	<path class="st23" d="M361.34,325.28c-1.46,0.35-2.71,1.05-4.18,1.24c-1.08,0.14-2.02,0.86-3.09,0.96
		c-0.97,0.1-1.79,0.51-2.85,0.61c-0.96,0.1-2.59,0.46-3.42,0c-2.1-1.15-4.99-1.33-7.35-2.23c-1.96-0.75-3.35-2.17-5.28-2.94
		c-0.83-0.33-1.49-0.98-2.18-1.43c-0.71-0.44-1.63-0.8-2.24-1.36c-0.64-0.57-1.5-0.8-2.13-1.37c-0.79-0.73-1.74-1.39-2.54-2.1
		c-1.38-1.2-1.65-2.76-2.61-4.1c-0.47-0.66-0.65-1.51-1.39-2c-0.78-0.52-1.04-1.27-1.64-1.81"/>
	<path class="st23" d="M354.61,333.03c-0.49,0.54-1.08,1.01-1.57,1.54c-0.22,0.24-0.7,0.28-0.92,0.52c-0.56,0.57-0.97,1.19-1.4,1.81
		c-1.06,1.53-0.5,3.11-0.3,4.8c0.25,2.04,0.61,3.58,1.79,5.42c0.99,1.54,2.33,2.91,3.45,4.41c1.07,1.44,2.45,2.6,3.53,4.01
		c0.68,0.89,0.45,2.77,0.57,3.81c0.15,1.24-0.64,2.68-0.85,3.95c-0.14,0.84-0.7,1.37-0.6,2.24c0.07,0.63,0.1,1.23,0.43,1.81"/>
	<path class="st23" d="M351.69,346.98c0.65,5.43-5.32,9.94-8.55,14.51"/>
	<path class="st23" d="M377.1,352.69c-0.83,0.48-1.61,1.05-2.45,1.52c-0.46,0.25-0.75,0.75-1.25,0.95
		c-1.64,0.67-3.02,1.65-4.59,2.38c-1.42,0.67-2.72,1.58-4,2.38c-0.58,0.35-0.58,0.8-1.17,1.13c-0.75,0.4-1.14,1.1-1.82,1.56
		c-0.9,0.62-2.13,1.2-2.9,1.94c-0.43,0.4-0.94,1.19-1.56,1.47c-0.92,0.42-2.2,3.44,0.1,2.37c1.35-0.63,2.6-1.48,3.73-2.33
		c1.2-0.89,2.45-1.91,3.54-2.87c1.6-1.41,3.36-3.03,5.35-4.12c1.99-1.09,4.36-1.65,6.35-2.72c1.29-0.7,2.81-2.55,1.54-3.57"/>
	<path class="st23" d="M358.51,372.98c2.17-0.21,4.32-0.43,6.49-0.65c0.45-0.05,1.89-0.01,2.17-0.3c0.6-0.66,0.95-1.19,0.83-2.05
		c-0.08-0.73-0.03-1.39-0.67-1.95c-0.5-0.43-1.22-0.49-1.64-0.94c-0.86-0.91-1.07-1.63-1.21-2.77"/>
	<path class="st23" d="M358.31,372.99c0.6,1.42,2.38,1.91,3.88,2.71c1.33,0.71,2.29,1.32,4.04,1.29c1.06-0.01,1.97,0.29,3.08,0.18
		c0.54-0.05,1.84-0.2,1.79,0.39c-0.07,0.8-1.53,0.96-1.93,1.6c-0.25,0.39-0.93,0.95-1.45,1.13"/>
	<path class="st23" d="M332.18,335.75c3.56,0.96,6.03,3.23,9.76,3.96c1.22,0.24,2.72,0.53,3.99,0.43c1.11-0.09,2.79-0.05,3.85,0.11"
		/>
	<path class="st23" d="M333.57,340.06c2.01,2.75,6.56,4.28,10.77,4.04c1.54-0.09,2.77,1.27,3.82,1.76c0.47,0.21,1.18,0.28,1.75,0.48
		c0.81,0.29,1.42,0.52,2.4,0.42"/>
	<path class="st23" d="M324.25,278.75c-2.93,0.29-5.68,0.24-8.58,0.52c-1.35,0.14-2.43,0.79-3.45,1.51c-0.97,0.7-2.5,1.18-3.68,1.67
		c-2.59,1.09-5.2,2.19-8.03,2.79c-1.08,0.23-2.07,1.06-3.13,1.28c-0.64,0.14-1.89,0.7-2.28,1.06"/>
	<path class="st23" d="M302.17,289.83c1.63-0.47,1.74-1.51,2.89-2.36c1.07-0.79,2.08-1.63,3.35-2.3c1.7-0.93,3.64-2.04,5.57-2.74
		c0.56-0.2,1.35-0.66,1.85-0.96c0.6-0.37,1.36-0.34,2.02-0.65c1.79-0.85,3.84-1.01,5.71-1.53c2.93-0.8,5.52,0.13,8.28,0.73
		c1.92,0.42,3.81,0.38,5.64,0.98c1.93,0.63,3.96,1.08,5.61,2.08c0.92,0.56,1.75,0.98,2.79,1.4c1,0.42,1.89,1.27,2.99,1.52
		c0.96,0.23,1.52,0.82,2.36,1.17c0.58,0.23,1.24,0.71,1.81,0.87c1.04,0.3,1.95,0.83,2.89,1.29c0.86,0.4,1.52,1.17,2.4,1.49
		c1.53,0.57,2.75,1.8,3.95,2.73c1.67,1.3,3.78,2.14,5.49,3.44c1.9,1.44,3.85,2.8,5.52,4.41c0.62,0.61,1.7,1.21,2.49,1.71
		c0.54,0.33,1,0.78,1.6,1.04c1.97,0.86,3.77,2.14,5.27,3.43c0.65,0.57,1.39,1.15,2.13,1.66c0.72,0.49,1.15,1.2,1.9,1.68
		c0.79,0.52,1.36,1.02,2.29,1.44c0.74,0.33,1.5,0.6,2.29,0.85c0.9,0.29,1.6,0.84,2.53,1.09c3.24,0.9,6.18,2.01,9.17,3.33
		c2.03,0.9,4,1.75,5.87,2.84c1.15,0.67,2.45,1.52,3.77,1.96c0.71,0.24,1.07,0.65,1.67,0.96c0.67,0.35,1.45,0.54,2.11,0.92
		c1.18,0.66,2.95,1.3,4.32,1.73c2.39,0.75,4.48,1.76,6.39,3.09c0.71,0.49,1.14,1.18,1.63,1.81c0.53,0.67,1.24,1.23,1.89,1.84
		c1.07,1.01,2,1.95,3.03,2.99c1.9,1.93,3,4.13,3.91,6.41c0.78,1.95,1.75,3.9,2.01,6.01c0.35,2.87,0.68,5.74,1.03,8.61
		c0.28,2.36,0.56,4.7,0.85,7.05c0.15,1.27,0.42,2.53,0.29,3.8c-0.12,1.19,0.33,2.84-0.24,3.94"/>
	<path class="st23" d="M439.62,346.81c0.45,2.9,2.71,5.51,5.45,7.36c1.64,1.1,2.24,3.48,3.22,4.95c1.32,1.98,1.43,3.89,2.18,6.04
		c4.49,12.85,2.88,26.74,7.67,39.54c0.82,2.19,2.68,4.06,3.5,6.25c1.03,2.76,1.54,5.6,2.63,8.34c0.93,2.37,0.83,5.14,1.13,7.61
		c0.36,3.08,0.74,6.15,1.1,9.22c0.46,3.79,0.9,7.57,1.36,11.36c0.88,7.34,1.95,14.79,4.16,21.94c3.15,10.15,10.17,19.43,18.36,27.59
		c1.9,1.89,3.22,4.22,4.73,6.32c1.45,2.03,2.73,4.04,3.82,6.19c1.45,2.81,3.99,5.85,6.06,8.43c2.03,2.51,4.73,4.62,6.82,7.08
		c0.94,1.1,2.08,2.12,2.92,3.25c0.86,1.16,2.34,1.68,3.36,2.72c1.65,1.66,4.36,3.29,5.05,5.41c0.56,1.7,2.86,3.89,4.05,5.38
		c1.56,1.96,2.71,4.13,4.56,5.95c1.46,1.43,3.07,2.38,4.59,3.75c1.56,1.42,3.35,2.66,5.07,4.01c2.38,1.87,4.95,4.08,7.67,5.62
		c3.4,1.93,5.02,4.61,7.42,7.18c1.17,1.25,1.83,2.47,2.53,3.86c0.68,1.35,2.2,2.51,2.99,3.84"/>
	<path class="st23" d="M562.11,576.64c-44.39,4.42-88.79,8.82-133.2,13.24"/>
	<path class="st23" d="M267.56,293.11c-0.38,0.47-1.42,1.47-1.49,2.05c-0.07,0.63-0.85,1.2-1.06,1.86c-0.52,1.67,0.1,3.52-0.13,5.2
		c-0.28,2.09-0.33,4.05-0.1,6.14c0.21,1.75,0.64,3.49,0.85,5.2c0.38,3.13,0.97,6.25,1.35,9.39c0.1,0.76,0.58,1.25,0.68,2.04
		c0.08,0.73,0.39,1.46,0.49,2.21c0.21,1.75,0.17,3.79,0.92,5.42c0.42,0.9,0.9,1.72,1.15,2.68c0.31,1.13,1.27,2.03,1.46,3.18
		c0.14,0.82,0.83,1.52,0.95,2.43c0.04,0.4,0.46,0.77,0.63,1.17c0.24,0.52,0.49,0.95,0.83,1.43c1.26,1.81,2.61,3.53,3.71,5.39
		c0.99,1.68,1.75,3.32,2.85,4.96c2.53,3.77,3.48,8.1,7.05,11.46c1.04,0.98,2.17,1.96,3.4,2.89c1.38,1.01,2.04,2.37,3.36,3.37"/>
	<path class="st23" d="M266.06,295.24c1.32-2.06,2.18-3.81,4.86-5c2.13-0.95,4.5-2.15,6.93-2.43c3.57-0.4,6.91-0.6,10.45-0.37
		c1.93,0.13,3.91,0.51,5.82,0.76c2.17,0.28,3.82,0.6,5.87,1.25c2.28,0.73,3.7,2.24,5.25,3.61c1.6,1.39,2.86,3.04,4.02,4.66
		c1.1,1.53,2.5,2.92,3.56,4.51c1.49,2.21,2.14,4.84,2.86,7.27c0.49,1.62,1.65,3.03,2.57,4.49c0.76,1.2,1.39,2.6,2.45,3.67
		c0.49,0.49,1.61,1.75,1.7,2.34c0.18,1.49,1.56,2.81,2.25,4.18c1.03,2.01,2.42,3.9,3.46,5.91c1.31,2.56,3.22,5.04,4.2,7.68
		c0.46,1.25,1.39,2.38,1.96,3.61c0.53,1.14,0.93,2.33,1.5,3.46c0.53,1.06,0.62,2.08,0.97,3.17c0.39,1.23,1.21,2.29,1.72,3.47
		c2.49,5.61,5.35,11.23,9.24,16.32c1.08,1.42,2.18,2.67,3.53,3.94c0.71,0.67,1.24,1.53,2.31,1.93c1.43,0.52,2.68,1.86,3.91,2.61
		c1.4,0.87,2.75,1.79,4.17,2.63c2.64,1.58,7.13,1.77,8.96,4.05c1.04,1.29,2.93,2.18,3.96,3.39"/>
	<path class="st24" d="M309.63,342.6c6.02-2.62,12.27-5.22,16.29-9.69c1.43-0.6,1.47,1.38,0.89,1.96c-0.88,0.87-1.65,1.68-2.67,2.42
		c-2.25,1.66-4.96,2.87-7.57,4.28c-1.65,0.89-3.29,1.66-5.14,2.29c-1.29,0.44-3.59,0.75-4.57,1.57c-0.63,0.52-1.75,1.08-2.59,1.4
		c-1.25,0.48-2.36,1.08-3.57,1.6c-2.39,1.01-4.75,1.66-7.33,2.22c-0.88,0.19-1.5,0.47-2.45,0.57l-3.54,0.35
		c-1.82,0.18-3.11-0.72-0.83-1.37c0.76-0.21,1.15-0.46,2-0.57c0.65-0.08,1.39-0.37,2-0.61c0.65-0.25,1.54-0.29,2.24-0.48
		c0.85-0.23,1.67-0.56,2.47-0.87c0.93-0.36,2.04-0.37,2.95-0.73c1.2-0.47,2.36-0.95,3.64-1.25
		C304.54,345.05,307.17,343.68,309.63,342.6z"/>
	<path class="st24" d="M318.47,327.23c1.64-0.16,3.18,0.15,4.81,0.01c-1.38,0.8-2.57,1.57-4.21,1.73l-2.24,0.23
		c-0.99,0.1-2.18,0.76-3.14,1.05c-1.06,0.33-2.21,0.58-3.22,0.94c-0.4,0.14-0.64,0.47-1.07,0.56c-0.5,0.1-0.96,0.11-1.45,0.28
		c-1.93,0.66-3.8,1.32-5.6,2.16c-1.81,0.85-4.34,1.81-5.52,3.17c-0.92,1.05-1.9,2.22-3.36,2.9c-4.13,1.91-8.1,3.93-11.62,6.32
		c-0.15,0.1-1.32,0.62-1.47,0.33c-0.18-0.35,0.18-0.95,0.32-1.29c0.35-0.89,2.38-2.19,3.35-2.46c0.83-0.23,2.15-1.14,2.85-1.58
		c0.71-0.46,1.5-0.87,2.2-1.33c0.6-0.39,1.44-0.98,1.88-1.44c0.45-0.48,1.38-0.76,1.93-1.19c3.96-3.06,8.46-5.76,12.98-8.34
		c2.11-1.2,4.95-1.27,7.42-1.51L318.47,327.23z"/>
	<path class="st25" d="M290.24,354.57c2.35-0.23,5.34-0.16,7.55-0.91c2.39-0.81,4.78-1.82,7.21-2.52c1.56-0.44,2.96-1.21,4.39-1.85
		c2.1-0.92,4.35-1.57,6.52-2.38c1.43-0.53,3.14-1.25,4.41-2.01c1.2-0.72,3.25-1.24,3.92-2.37c0.29-0.49,0.67-0.43,1.22-0.72
		c0.42-0.21,0.62-0.79,0.83-1.11c0.43-0.65,0.57-1.14,0.78-1.81"/>
	<path class="st26" d="M266.49,302.48c-0.38-8.56,5.96-10.51,7.62-11.33c0.99-0.1,13.61-3.33,20.14-1.76
		c0.99,0.75,2.03,1.43,2.99,2.18c0.99,0.77,2.49,1.94,2.88,3c0.24,0.65,0.97,1.21,1.38,1.82c0.26,0.39,0.86,0.92,0.97,1.34
		c0.83,3.08,3.35,5.58,2.18,8.95c-0.6,1.73-1.49,3.66-3.06,5.08c-0.53,0.48-1.42,0.73-1.99,1.23c-0.78,0.66-1.92,1.01-2.67,1.62
		c-0.95,0.77-2.1,1.19-3.13,1.89c-1,0.68-2.5,1.09-3.38,1.85c-1.83,1.61-4.42,1.73-7.02,1.68c-2.25-0.05-4.57,0.04-6.8-0.24
		c-2.31-0.29-3.63-2.52-4.35-4c-0.38-0.76-1.02-1.51-1.47-2.25c-0.53-0.85-0.75-1.8-1.29-2.62c-0.68-1.05-1.26-2.16-1.71-3.29
		c-0.24-0.61-0.74-1.32-0.89-1.91C266.61,304.66,266.61,303.53,266.49,302.48z"/>
	<path class="st27" d="M302.5,309.06c1.61-0.17-7.06,6.1-9.62,7.11c0.08,0.04-9.96,6.32-17.23,2.47c0.72-1.29,3.64-2.01,4.11-2.62
		c1.43-1.82,2.31-3.68,4.63-4.84c2.57-1.28,2.52-0.91,4.96-2.47C299.36,304.77,301.92,304.19,302.5,309.06z"/>
	<path class="st23" d="M292.85,316.19c2.52-0.98,11.26-7.28,9.65-7.13c-0.58-4.89-3.14-4.29-13.16-0.34
		c-2.43,1.56-2.38,1.19-4.96,2.47c-2.31,1.15-3.2,3-4.63,4.84c-0.47,0.61-3.39,1.33-4.12,2.62
		C283.13,322.61,293.55,315.84,292.85,316.19z"/>
	<path class="st28" d="M274.95,319.17c-0.01,0.08-0.05,0.14-0.1,0.19C274.86,319.31,274.88,319.26,274.95,319.17
		c0.58-2.28-11.63-17.15-6.92-20.17c1.53,1.77,8.23,4.44,9.3,6.41c0.47,0.86,1.38,1.52,2.07,2.28c0.46,0.49,1.17,1,1.75,1.47
		c0.56,0.44,1.18,1.7,1.53,2.24C283.6,312.47,275.94,317.98,274.95,319.17z"/>
	<path class="st23" d="M274.86,319.34c1.51-1.47-11.69-17.24-6.81-20.36c1.53,1.77,8.23,4.44,9.3,6.41
		c0.47,0.86,1.38,1.52,2.07,2.28c0.46,0.49,1.17,1,1.75,1.47c0.56,0.44,1.18,1.7,1.53,2.24
		C283.67,312.55,274.79,318.79,274.86,319.34z"/>
	<path class="st23" d="M214.56,314.23c-0.72,1.29-5.03,9.14-6.56,9.99c-0.78,0.44-1.35,1.01-2.2,1.36
		c-0.93,0.38-1.51,1.15-2.39,1.56c-1.38,0.62-2.54,1.65-3.84,2.39c-0.88,0.51-1.71,1.4-2.28,2.11c-0.53,0.66-1.47,1.1-2,1.77
		c-1.57,1.98-2.85,4.6-0.93,6.58c1.01,1.05,2.7,2.12,3.46,3.3c0.71,1.11,1.18,2.13,2.18,3.17c2.13,2.19,4.14,4.96,8.4,3.75
		c2.7-0.77,22.67-2.18,25.05-3.47"/>
	<path class="st23" d="M205.53,326.07c-0.43,0.57-0.88,1-1.11,1.62c-0.15,0.4,0.01,0.8-0.07,1.2c-0.12,0.6-0.26,1.32-0.5,1.9
		c-0.39,0.92-1.59,2.92-3.14,3.1c-0.61,0.08-1.45,0.91-1.78,1.25c-0.62,0.65-1.46,1.03-2.18,1.6c-0.78,0.62-1.31,1.09-1.4,1.95
		c-0.05,0.48-0.47,1.14-0.17,1.46"/>
	<path class="st23" d="M245.26,361.85c-1.26,0.61-15.65,9.56-17.12,9.83"/>
	<path class="st23" d="M209.43,324.11c0.39,1.15,0.94,2.01,0.99,3.24c0.05,1.42-1.13,2.37-2.1,3.49c-1.79,2.1-3.49,4.22-5.23,6.37
		c-1.33,1.66-1.51,3.75-2.14,5.6c-0.51,1.51-0.72,2.98-0.65,4.57"/>
	<path class="st23" d="M228.99,371.33c-1.72,1.05-2.06,2.05-2.86,3.53c-0.19,0.34-0.21,0.7-0.4,1.05c-0.24,0.44-0.28,1-0.57,1.42
		c-0.36,0.51-0.39,1.09-0.36,1.65c0.03,0.56-0.39,1.03-0.36,1.53c0.07,1.58-0.65,3.15-1.26,4.62c-0.62,1.49-2,2.8-2.93,4.22
		c-0.97,1.48-2.63,2.68-3.63,4.16c-1.01,1.51-3.11,2.51-3.67,4.29c-0.35,1.13-0.15,3.49,0.85,4.33c1.68,1.42,2.54,3.01,4.77,4.03
		c0.54,0.24,1.25,0.56,1.86,0.7c0.68,0.15,1.14,0.41,1.74,0.58c1.17,0.34,2.01,0.44,3.29,0.41c2.29-0.08,4.57-0.15,6.87-0.23
		c1.28-0.04,2.5-0.32,3.57-0.84c1.28-0.61,2.6-1.04,3.93-1.53c1.82-0.67,2.95-1.96,4.43-2.95c0.86-0.57,2.14-1.06,2.67-1.89
		c0.47-0.73,1.24-1.56,1.39-2.35c0.11-0.58,1.42-1.23,1.82-1.82c0.5-0.72,1.15-1.32,1.81-1.99c1.1-1.14,2.1-2.46,3.38-3.54
		c1.21-1.03,1.85-2.13,1.14-3.54"/>
	<path class="st23" d="M245.78,372.82c-0.43,1.1-0.72,2.09-0.99,3.19c-0.22,0.92-0.92,1.85-0.92,2.77c0,1.03-0.42,2.3-0.67,3.34
		c-0.29,1.22-1.15,2.32-1.72,3.46c-0.39,0.77-0.54,1.68-0.99,2.41c-0.33,0.54-0.95,0.94-1.43,1.42c-0.46,0.44-0.86,1.08-1.1,1.61
		c-0.21,0.44-0.74,0.85-0.81,1.33c-0.08,0.66-0.06,1.62-0.44,2.23c-0.4,0.63-1.04,1.32-1.59,1.9c-0.65,0.7-1.76,0.9-2.64,1.37
		c-0.93,0.49-1.7,1.1-2.84,1.34c-1.46,0.32-2.77,1.03-4.18,1.3c-1.79,0.35-4.49,1.14-5.8,2.19c-1.13,0.9-0.67,2.32-0.63,3.44"/>
	<path class="st23" d="M213.88,400.55c-0.01-1.73,0.67-2.89,2.74-3.72c1.15-0.47,2.57-0.91,3.84-1.13c1.96-0.33,4.48-1.73,5.52-3.06
		c0.42-0.53,1.54-3.15,0.51-3.63c-0.79-0.37-0.64-1.16-1.04-1.67c-0.32-0.4-0.47-1.46-1.01-1.63"/>
	<path class="st23" d="M216.83,393.9c1.54,0.16,3.18,0.19,4.54,0.8"/>
</g>
</svg>
