<?xml version="1.0" encoding="utf-8"?>
<!-- Generator: Adobe Illustrator 24.3.0, SVG Export Plug-In . SVG Version: 6.00 Build 0)  -->
<svg version="1.1" id="Capa_1" xmlns="http://www.w3.org/2000/svg" xmlns:xlink="http://www.w3.org/1999/xlink" x="0px" y="0px"
	 viewBox="0 0 442.2 731.34" style="enable-background:new 0 0 442.2 731.34;" xml:space="preserve">
<style type="text/css">
	.st0{fill:url(#SVGID_1_);}
	.st1{fill:url(#SVGID_2_);}
	.st2{fill:url(#SVGID_3_);}
	.st3{fill:#F6BDB7;}
	.st4{fill:#130C0C;}
	.st5{fill:#311643;}
	.st6{fill:#FFFFFF;}
	.st7{fill:#F1AEAB;}
	.st8{fill:#291616;}
	.st9{fill:#791112;fill-opacity:0.88;}
	.st10{fill:#F68319;}
	.st11{fill:#A53C2A;}
	.st12{fill:#DEDEDE;}
	.st13{fill:#AEAEAE;}
	.st14{fill:#D0D0D0;}
	.st15{fill:#C8640D;}
	.st16{fill:#202D51;}
	.st17{fill:#DC7515;}
	.st18{fill:#999DA9;}
	.st19{fill:#F4F4F4;}
</style>
<linearGradient id="SVGID_1_" gradientUnits="userSpaceOnUse" x1="371.0976" y1="699.8992" x2="371.0976" y2="394.8992" gradientTransform="matrix(1 0 0 -1 -84.8976 702.3307)">
	<stop  offset="0" style="stop-color:#F7DC24;stop-opacity:0.81"/>
	<stop  offset="1" style="stop-color:#F79C11;stop-opacity:0.17"/>
</linearGradient>
<ellipse class="st0" cx="286.2" cy="147.43" rx="153" ry="145"/>
<linearGradient id="SVGID_2_" gradientUnits="userSpaceOnUse" x1="431.1661" y1="217.1597" x2="342.1662" y2="83.1596" gradientTransform="matrix(1 0 0 -1 -84.8976 702.3307)">
	<stop  offset="0.028" style="stop-color:#A26080"/>
	<stop  offset="1" style="stop-color:#B04EA4;stop-opacity:0.12"/>
</linearGradient>
<ellipse class="st1" cx="273.7" cy="594.43" rx="103.5" ry="107"/>
<linearGradient id="SVGID_3_" gradientUnits="userSpaceOnUse" x1="44.3881" y1="434.1743" x2="251.2561" y2="334.7493" gradientTransform="matrix(1 0 0 -1 -84.8976 702.3307)">
	<stop  offset="0" style="stop-color:#31AAC2;stop-opacity:0.56"/>
	<stop  offset="1" style="stop-color:#9FD8B2;stop-opacity:0.1"/>
</linearGradient>
<ellipse class="st2" cx="79.7" cy="325.93" rx="76.5" ry="80.5"/>
<path class="st3" d="M233.58,244.63c-20.37,3.45-45.75-4.25-48.94-9.16c-7.38,11.42-11.12,11.06-11.12,11.06v8.57l-1.66-1.69
	c-0.51-1.18-1.33-2.35-2.55-2.35c-6.71,0-7.18,18.96,4.11,20.05c0.22,0.74,0.45,1.44,0.69,2.07v30.34h25.46v-11.93
	c1.71,0.48,3.35,0.75,4.86,0.75c10.04,0,27.15-15,29.09-38.93C233.63,248.89,233.58,244.63,233.58,244.63z"/>
<path class="st4" d="M202.67,212.15c-17.56,0-21.07,9.52-21.07,9.52c-7.49,0-18.97,13.92-12.06,29.38l0.04,0.04l3.95,4.01v-8.57
	c0,0,3.75,0.36,11.12-11.06c3.18,4.91,28.57,12.61,48.94,9.16c0,0,0.05,4.26-0.06,8.78c0,0,0,0.01,0,0.01
	C241.12,231.05,225.85,212.15,202.67,212.15z"/>
<path class="st5" d="M195.12,259.94c-0.78,0-1.41-0.64-1.41-1.43v-2.67c0-0.79,0.63-1.43,1.41-1.43c0.78,0,1.4,0.64,1.4,1.43v2.67
	C196.52,259.3,195.89,259.94,195.12,259.94z"/>
<path class="st5" d="M221.17,259.94c-0.78,0-1.4-0.64-1.4-1.43v-2.67c0-0.79,0.63-1.43,1.4-1.43c0.78,0,1.4,0.64,1.4,1.43v2.67
	C222.57,259.3,221.94,259.94,221.17,259.94z"/>
<path class="st5" d="M205.45,276.6c-2.51,0-4.21-0.96-5.25-1.83c-1.3-1.1-1.85-2.3-1.87-2.35c-0.15-0.33,0-0.72,0.32-0.87
	c0.32-0.15,0.7,0,0.85,0.33c0.07,0.16,1.85,3.96,7.03,3.35c0.35-0.04,0.67,0.22,0.71,0.58c0.04,0.36-0.21,0.68-0.57,0.72
	C206.25,276.58,205.84,276.6,205.45,276.6z"/>
<path class="st6" d="M221.17,243.25c-5.07,0-9.26,3.92-9.79,8.93c-2.76-1.32-5.19-0.6-6.47,0c-0.53-5.01-4.72-8.93-9.79-8.93
	c-5.43,0-9.84,4.49-9.84,10s4.42,10,9.84,10c5.3,0,9.64-4.29,9.83-9.63c0.81-0.47,3.43-1.68,6.38,0.01c0.2,5.34,4.53,9.63,9.83,9.63
	c5.43,0,9.84-4.49,9.84-10C231.01,247.74,226.6,243.25,221.17,243.25z M195.12,261.95c-4.72,0-8.56-3.9-8.56-8.7
	c0-4.79,3.84-8.69,8.56-8.69c4.72,0,8.56,3.9,8.56,8.69C203.68,258.05,199.84,261.95,195.12,261.95z M221.17,261.95
	c-4.72,0-8.56-3.9-8.56-8.7c0-4.79,3.84-8.69,8.56-8.69c4.72,0,8.56,3.9,8.56,8.69C229.72,258.05,225.89,261.95,221.17,261.95z"/>
<path class="st7" d="M199.57,303.52v-11.93c-5.76-1.61-12.31-5.55-17.24-9.3L199.57,303.52z"/>
<path class="st8" d="M260.43,688.92h-26.97l-45.35-202.63l-46.45,202.63H114.7l25.13-227.33l99.63,0L260.43,688.92z"/>
<path d="M235.61,699.94v19.37c0,2.26,1.8,4.09,4.02,4.09h54.05c0.51,0,0.93-0.42,0.93-0.95v-3.73c0-1.63-0.92-3.12-2.36-3.83
	l-30.48-14.95L235.61,699.94L235.61,699.94z"/>
<path d="M138.73,699.94v19.37c0,2.26-1.8,4.09-4.02,4.09H80.66c-0.52,0-0.93-0.42-0.93-0.95v-3.73c0-1.63,0.92-3.12,2.36-3.83
	l30.48-14.95L138.73,699.94L138.73,699.94z"/>
<path class="st3" d="M233.47,688.92l2.03,11.02h26.28l-1.34-11.02H233.47z"/>
<path class="st3" d="M114.7,688.92l-2.13,11.02h26.17l2.93-11.02H114.7z"/>
<path class="st9" d="M139.29,466.47l101.15,5.81l-0.99-10.68l-99.63,0"/>
<path class="st10" d="M169.7,333.43l4.66,7l-67.31,71.95c-1.8,1.93-4.38,2.94-7.01,2.75l-3.85-0.27c-7.7-0.55-9.84-10.86-2.99-14.43
	l29.5-21.5L169.7,333.43z"/>
<path class="st11" d="M232.86,363.62l6.6,97.97h-99.63l6.1-69.82l-1.35-37.26l-5.17,5.24l-22.99-17.96l12.35-20.46
	c3.06-5.06,7.47-9.13,12.73-11.72l28.34-13.98l1.04-0.51l3.24-1.6c0,0,14.79,9.86,25.42,0l5.68,2.18l1.15,0.44l30.03,11.5
	c4.7,1.8,8.53,5.39,10.67,10.02l12.74,27.53L232.86,363.62z"/>
<path class="st12" d="M205.2,295.72c-4.87,3.52-10.68,5.41-16.78,5.41c-6.42,0-12.53-2.1-17.55-5.99l-1.04,0.51
	c5.28,4.23,11.76,6.53,18.59,6.53c6.55,0,12.78-2.11,17.93-6.02L205.2,295.72z"/>
<path class="st12" d="M140.26,312.96c0,4.81-3.84,8.7-8.56,8.7c-0.99,0-1.94-0.17-2.83-0.49c2.73-4.46,6.53-8.15,11.03-10.71
	C140.14,311.26,140.26,312.1,140.26,312.96z"/>
<path class="st13" d="M193.3,433.64l-84.59,28.67c-1.39,0.47-2.84-0.49-3.24-2.14L90.3,397.07c-0.4-1.65,0.41-3.38,1.8-3.85
	l84.59-28.67c1.39-0.47,2.84,0.49,3.24,2.14l15.16,63.11C195.5,431.45,194.69,433.17,193.3,433.64z"/>
<path class="st14" d="M195.26,435.52l-86.21,27.79c-1.42,0.46-2.9-0.47-3.3-2.07L90.3,400.07c-0.4-1.6,0.42-3.27,1.84-3.73
	l86.21-27.79c1.42-0.46,2.9,0.47,3.3,2.07l15.45,61.18C197.5,433.4,196.68,435.07,195.26,435.52z"/>
<path class="st10" d="M206.06,442.76l-95.07,29.55c-1.56,0.49-3.19-0.5-3.64-2.2l-17.04-65.04c-0.45-1.7,0.46-3.48,2.02-3.96
	l95.07-29.55c1.57-0.49,3.19,0.5,3.64,2.2l17.04,65.04C208.53,440.5,207.63,442.28,206.06,442.76z"/>
<path class="st15" d="M182.94,371.89l11.93,5.39l-2.77,6.37c-1.54,3.55-5.7,5.13-9.21,3.49c-3.62-1.68-5.05-6.09-3.11-9.57
	L182.94,371.89z"/>
<path class="st10" d="M216.2,299.93l13,5l-34.91,75.82c-1.76,3.83-6.3,5.49-10.12,3.71c-3.84-1.79-5.48-6.37-3.65-10.18
	L216.2,299.93z"/>
<path class="st16" d="M218.49,361.26h-21.78c-0.72,0-1.31-0.6-1.31-1.33v-41.38c0-0.74,0.59-1.33,1.31-1.33h21.78
	c0.72,0,1.31,0.6,1.31,1.33v41.38C219.8,360.67,219.22,361.26,218.49,361.26z"/>
<path class="st3" d="M277.96,388.84l-18.16-43.62l-13.86,9.41l-19.47-17.33l-3.98-13.86c-0.06-0.44-0.4-0.79-0.83-0.85
	c-1.91-0.26-3.54,1.38-3.32,3.32l0.68,6.07l-7.22,0.97c-1.95,0.26-3.93,0.09-5.8-0.51l-6.72-2.15c-2.02-0.64-4.16,0.52-4.76,2.58
	l-2.59-0.61c-1.27-0.3-2.54,0.48-2.86,1.76l-0.02,0.07c-0.28,1.1,0.22,2.25,1.21,2.77c-0.53,2.1,0.7,4.25,2.76,4.82l0.06,0.02
	c-0.56,2.12,0.47,4.33,2.43,5.24l5.09,2.36c1.91,0.89,4.01,1.29,6.11,1.17l11.55-0.96l39.23,52.11l0.01,0.01
	c3.47,4.21,9.39,5.65,14.46,3.25C277.88,402.06,280.54,394.96,277.96,388.84z"/>
<path class="st12" d="M247.36,318.32c-0.93,0.36-1.93,0.57-2.99,0.57c-4.57,0-8.28-3.77-8.28-8.42c0-0.96,0.16-1.89,0.45-2.75
	c4.63,1.82,8.4,5.39,10.52,9.96L247.36,318.32z"/>
<path class="st7" d="M248.42,356.84l21.02,11.54l4.75,11.41L248.42,356.84z"/>
<path class="st17" d="M139.77,462.97l-29.76-52.7l6.3-1.83L139.77,462.97z"/>
<path class="st7" d="M266.03,403c4.51,0,8.17-3.72,8.17-8.3c0-4.58-3.66-8.3-8.17-8.3c-4.51,0-8.17,3.71-8.17,8.3
	C257.86,399.28,261.52,403,266.03,403z"/>
<path class="st7" d="M110.83,371.07c0,4.28-3.01,7.85-7,8.64l-1.46-3.45c-1.47-3.46-1.24-7.43,0.61-10.69l1.66-2.94
	C108.22,363.71,110.83,367.08,110.83,371.07z"/>
<path class="st3" d="M161.97,453.42l-10.13-4.6c-0.7-0.32-1.24-0.91-1.51-1.65l-1.47-4.11l5.12,1.28l1.63,3.56
	c0.55,1.2,1.94,1.74,3.13,1.21l-2.13-6.54c-0.4-1.04-1.17-1.89-2.15-2.39l-10.7-5.35l-18.46-60.84l14.1-14.26l-22.99-17.96
	l-13.44,23.77c-1.85,3.27-2.07,7.23-0.61,10.69l37.31,86.7l7.4,0.35c0.89,0.04,1.73-0.42,2.19-1.19l0.81-1.37l3.9,0.32
	c0.83,0.07,1.64-0.3,2.14-0.99l0.92-1.26l0.55,0.15c1.49,0.4,3.06-0.29,3.79-1.67l2.7,0.92
	C164.68,456.31,163.78,454.24,161.97,453.42z"/>
<path class="st13" d="M410.73,712.51l-0.02-3.43c0-1.06-1.04-1.91-2.32-1.91l-95.95,0.4c-4.84,0.02-8.75,3.29-8.74,7.3l0.03,5.84
	c0.02,4.01,3.95,7.25,8.8,7.23l95.95-0.4c1.28-0.01,2.31-0.87,2.31-1.93l-0.01-3.43c-0.01-1.06-1.05-1.91-2.32-1.91l-92.42,0.39
	c-1.95,0.01-3.53-1.29-3.54-2.91c-0.01-1.61,1.57-2.93,3.51-2.94l92.42-0.39C409.7,714.44,410.73,713.57,410.73,712.51z"/>
<path class="st14" d="M407.98,675.1l-0.11-3.41c-0.04-1.05-0.97-1.93-2.08-1.96l-83.58-2.12c-4.22-0.11-7.53,3.04-7.39,7.03
	l0.2,5.81c0.13,3.99,3.66,7.31,7.88,7.41l83.58,2.12c1.11,0.03,1.99-0.8,1.95-1.85l-0.12-3.41c-0.04-1.05-0.97-1.93-2.08-1.96
	l-80.51-2.04c-1.7-0.04-3.12-1.38-3.17-2.98c-0.05-1.6,1.28-2.87,2.97-2.83l80.51,2.04C407.15,676.99,408.02,676.16,407.98,675.1z"
	/>
<path class="st14" d="M403.52,701.48l-0.01-3.43c0-1.06-1.05-1.91-2.32-1.91l-82.24,0.35c-4.84,0.02-8.75,3.29-8.74,7.3l0.03,5.84
	c0.02,4.01,3.95,7.25,8.8,7.23l82.24-0.35c1.28-0.01,2.31-0.87,2.31-1.93l-0.02-3.43c0-1.06-1.04-1.91-2.32-1.91l-78.71,0.33
	c-1.95,0.01-3.53-1.29-3.54-2.91c-0.01-1.61,1.57-2.93,3.51-2.94l78.71-0.33C402.49,703.4,403.53,702.54,403.52,701.48z"/>
<path class="st18" d="M406.92,661.59l-0.01-3.43c0-1.06-1.04-1.91-2.32-1.91l-82.24,0.35c-4.84,0.02-8.75,3.29-8.74,7.3l0.02,5.84
	c0.02,4.01,3.96,7.25,8.8,7.23l82.24-0.35c1.28-0.01,2.31-0.87,2.31-1.93l-0.01-3.43c0-1.06-1.04-1.91-2.32-1.91l-78.71,0.33
	c-1.95,0.01-3.53-1.29-3.54-2.91c-0.01-1.61,1.57-2.93,3.51-2.94l78.71-0.33C405.89,663.51,406.92,662.65,406.92,661.59z"/>
<path class="st19" d="M400.48,703.41l0.02,5.84l-77.98,0.33c-1.95,0.01-3.53-1.29-3.54-2.91c-0.01-1.61,1.57-2.93,3.51-2.94
	L400.48,703.41L400.48,703.41z"/>
<path class="st19" d="M393.95,714.5l0.02,5.84l-77.98,0.33c-1.95,0.01-3.53-1.29-3.54-2.91c-0.01-1.61,1.57-2.93,3.51-2.94
	L393.95,714.5L393.95,714.5z"/>
<path class="st19" d="M393.42,676.64l0.2,5.81l-67.93-1.72c-1.7-0.04-3.11-1.38-3.17-2.98c-0.05-1.6,1.28-2.87,2.97-2.83
	L393.42,676.64z"/>
<path class="st19" d="M403.88,663.52l0.02,5.84l-77.98,0.33c-1.95,0.01-3.53-1.29-3.54-2.91c-0.01-1.61,1.57-2.93,3.51-2.94
	L403.88,663.52z"/>
<path class="st13" d="M405.54,690.22l-0.01-3.43c-0.01-1.06-1.05-1.91-2.32-1.91l-82.24,0.35c-4.84,0.02-8.75,3.29-8.74,7.3
	l0.02,5.84c0.02,4.01,3.96,7.25,8.8,7.23l82.24-0.35c1.28-0.01,2.31-0.87,2.31-1.93l-0.01-3.43c-0.01-1.06-1.05-1.91-2.32-1.91
	l-78.71,0.33c-1.95,0.01-3.53-1.29-3.54-2.91c-0.01-1.61,1.57-2.93,3.51-2.94l78.71-0.33C404.51,692.14,405.54,691.28,405.54,690.22
	z"/>
<path class="st19" d="M402.5,692.15l0.02,5.84l-77.98,0.33c-1.95,0.01-3.53-1.29-3.54-2.91c-0.01-1.61,1.57-2.93,3.51-2.94
	L402.5,692.15L402.5,692.15z"/>
</svg>
