<?xml version="1.0" encoding="utf-8"?>
<!-- Generator: Adobe Illustrator 24.3.0, SVG Export Plug-In . SVG Version: 6.00 Build 0)  -->
<svg version="1.1" id="Capa_1" xmlns="http://www.w3.org/2000/svg" xmlns:xlink="http://www.w3.org/1999/xlink" x="0px" y="0px"
	 viewBox="0 0 677.48 581.1" style="enable-background:new 0 0 677.48 581.1;" xml:space="preserve">
<style type="text/css">
	.st0{fill-rule:evenodd;clip-rule:evenodd;fill:#7B9A63;fill-opacity:0.85;}
	.st1{fill:none;stroke:#94794F;stroke-width:8;stroke-linecap:square;}
	.st2{fill-rule:evenodd;clip-rule:evenodd;fill:#E41352;}
	.st3{fill-rule:evenodd;clip-rule:evenodd;fill:#2F0506;}
	.st4{fill-rule:evenodd;clip-rule:evenodd;fill:#961E48;}
	.st5{fill-rule:evenodd;clip-rule:evenodd;fill:#F8F8F8;}
	.st6{fill:none;stroke:#961E48;stroke-width:7;}
	.st7{fill:none;stroke:#F8F8F8;stroke-width:3;}
	.st8{fill-rule:evenodd;clip-rule:evenodd;fill:#5A7C3F;}
	.st9{fill:none;stroke:#866532;stroke-width:8;stroke-linecap:square;}
	.st10{fill-rule:evenodd;clip-rule:evenodd;fill:#7B9A63;}
	.st11{fill-rule:evenodd;clip-rule:evenodd;fill:#A3A7CE;}
	.st12{fill-rule:evenodd;clip-rule:evenodd;fill:#6A6B73;}
	.st13{fill-rule:evenodd;clip-rule:evenodd;fill:#787DB5;}
	.st14{fill:none;stroke:#9597B9;stroke-width:15;stroke-linejoin:bevel;}
	.st15{fill:none;stroke:#000000;stroke-linecap:round;}
	.st16{fill:#D4AE73;}
	.st17{fill:#AF8E5B;}
	.st18{fill:#94794F;}
	.st19{fill:#A78653;}
	.st20{fill:none;stroke:#000000;}
	.st21{fill:#410818;}
</style>
<path class="st0" d="M159.91,231.68c0,60.57-35.22,87.75-78.5,87.75c-43.27,0-78.5-27.18-78.5-87.75
	c0-112.82,42.84-218.18,78.5-218.18C117.07,13.5,159.91,118.86,159.91,231.68z"/>
<path class="st1" d="M81.41,133.62V369.7"/>
<path class="st1" d="M82.84,279.68l29.15-32.73"/>
<path class="st1" d="M82.36,174.37l18.12-20.34"/>
<path class="st1" d="M80.46,231.88l-26.88-30.18"/>
<path class="st2" d="M411.39,545.74L411.39,545.74l-9.38-73.71h113.7l9.38,73.71H411.39z"/>
<path class="st3" d="M297.91,548.56c0,17.06-13.63,30.89-30.45,30.89s-30.45-13.83-30.45-30.89s13.63-30.89,30.45-30.89
	S297.91,531.51,297.91,548.56z"/>
<path class="st3" d="M534.81,548.56c0,17.06-13.63,30.89-30.45,30.89c-16.82,0-30.45-13.83-30.45-30.89s13.63-30.89,30.45-30.89
	C521.18,517.68,534.81,531.51,534.81,548.56z"/>
<path class="st4" d="M428.28,545.75H94.64c-20.24,0-37.33-15.24-39.92-35.6l-4.81-37.82l64.4-0.29l-0.01-0.03L96.82,351.5h262.24
	l42.62,119.6l0.34,0.93L428.28,545.75z"/>
<path class="st5" d="M428.28,545.75h-78.56l-7.38-20.7l-3.07-8.62l-15.82-44.39L280.5,351.5h78.55l42.62,119.6l0.34,0.93
	L428.28,545.75z"/>
<path class="st5" d="M297.75,472.01h-82.21L198.04,351.5h56.76l17.24,48.38l5.94,16.66l14.07,39.48l1.48,4.13L297.75,472.01z"/>
<path class="st4" d="M450.21,545.74h-130.5v-73.71h78.57c24.33,0,44.88,18.33,48,42.81L450.21,545.74z"/>
<path class="st4" d="M471.28,472.03v73.71h-21.07l-9.38-73.71H471.28z"/>
<path class="st2" d="M450.21,545.74L450.21,545.74l-9.38-73.71h78.55c20.1,0,37.07,15.14,39.64,35.36l4.88,38.36H450.21z"/>
<path class="st5" d="M112.6,546.38c0-20.54,17.22-37.19,38.46-37.19c21.24,0,38.46,16.65,38.46,37.19H112.6z"/>
<path class="st5" d="M349.5,546.38c0-20.54,17.22-37.19,38.46-37.19s38.46,16.65,38.46,37.19H349.5z"/>
<path class="st3" d="M418.41,548.56c0,17.06-13.63,30.89-30.45,30.89s-30.45-13.83-30.45-30.89s13.63-30.89,30.45-30.89
	S418.41,531.51,418.41,548.56z"/>
<path class="st5" d="M550.69,508.5c0,7.35-4.79,13.32-10.7,13.32c-5.91,0-10.7-5.96-10.7-13.32c0-7.35,4.79-13.32,10.7-13.32
	C545.9,495.19,550.69,501.15,550.69,508.5z"/>
<path class="st5" d="M483.12,508.5c0,7.35-4.79,13.32-10.7,13.32c-5.91,0-10.7-5.96-10.7-13.32c0-7.35,4.79-13.32,10.7-13.32
	C478.34,495.19,483.12,501.15,483.12,508.5z"/>
<path class="st3" d="M181.51,548.56c0,17.06-13.63,30.89-30.45,30.89s-30.45-13.83-30.45-30.89s13.63-30.89,30.45-30.89
	S181.51,531.51,181.51,548.56z"/>
<path class="st4" d="M496.64,514.26h22.26v-11.51h-22.26V514.26z"/>
<path class="st5" d="M229.67,472.01v0.01h-57.91L154.26,351.5h57.91L229.67,472.01z"/>
<path class="st5" d="M150.02,472.01H92.11l-40.45,0.03l47.4-120.53l33.46,0L150.02,472.01z"/>
<path class="st6" d="M402.01,472.03V476l-46.6-127"/>
<path class="st7" d="M52.53,492.88h309.54"/>
<path class="st6" d="M53.41,474.5l45.65-123h259.29"/>
<path class="st3" d="M303.89,465.66h-35.37c-9.15,0-16.57-7.53-16.57-16.81c0-9.28,7.42-16.81,16.57-16.81h35.37V465.66z"/>
<path class="st8" d="M407.34,283.97c-2.48-5.98-16.1-4.97-16.1-21.64c0-25.1,43-22.24,45.53-41.15
	c2.54-18.91-25.1-18.46-25.95-34.41c-0.86-15.95,20.15-48.87,52.03-48.87c25.14,0,4.32,25.4,24.6,36.76
	c20.29,11.36,43.45-3.19,54.92,14.67c15.79,24.6-24.59,54.15-20.61,73.01c3.98,18.86,27.66,14.4,28.39,35.12
	c0.73,20.72-33.67,24.37-30.43,42.14c2.04,11.2,23.81,7.46,24.95,29.55c0.97,18.7-73.82,41.84-129.99,3.79
	C358.5,334.87,416.82,306.79,407.34,283.97z"/>
<path class="st9" d="M469.25,238.67v183.79"/>
<path class="st9" d="M470.43,363.11l29.37-23.62"/>
<path class="st9" d="M470.82,295.84l14.93-12.01"/>
<path class="st9" d="M467.68,322.57l-23.42-18.83"/>
<path class="st9" d="M468.22,264.42l-11.38-9.15"/>
<path class="st10" d="M675.29,235.86c0,71.54-27.82,136.51-90.82,136.51s-90.82-64.97-90.82-136.51
	c0-83.92,47.6-167.36,90.82-167.36S675.29,151.95,675.29,235.86z"/>
<path class="st9" d="M584.48,220.44v203.72"/>
<path class="st9" d="M586.38,313.55l24.58-29.35"/>
<path class="st9" d="M580.85,273.7l-24.58-29.35"/>
<path class="st11" d="M616.05,436.83h8.34V52.57h-8.34V436.83z"/>
<path class="st12" d="M530.38,62.35l-65.98-22.66c-2.76-0.95-4.26-4.06-3.35-6.91l3.29-10.29c0.91-2.86,3.92-4.42,6.67-3.47
	l65.98,22.66c2.76,0.95,4.26,4.06,3.35,6.91l-3.29,10.29C536.14,61.74,533.13,63.3,530.38,62.35z"/>
<path class="st13" d="M604.23,579.29h31.96V451.94h-31.96V579.29z"/>
<path class="st13" d="M611.01,475.69h18.41v-43.58h-18.41V475.69z"/>
<path class="st13" d="M612.55,61.76h15.32V43.28h-15.32V61.76z"/>
<path class="st14" d="M508.01,31.91c0,0,112.21,25.7,112.21,88.16"/>
<path class="st13" d="M537.74,55.4l-72.34-24.84c-6.47-2.22-10.01-9.53-7.87-16.23l0.65-2.03c2.15-6.71,9.2-10.37,15.67-8.15
	l72.34,24.84c6.47,2.22,10.01,9.53,7.87,16.23l-0.65,2.03C551.27,53.96,544.22,57.62,537.74,55.4z"/>
<path class="st15" d="M207.66,347.76l-3.57-61.79c-0.1-1.68-1.49-2.99-3.17-2.99l0,0l-20-4"/>
<path class="st16" d="M222.91,284.5h-52.23V348h52.23V284.5z"/>
<path class="st17" d="M170.68,284.5h-28.77V348h28.77V284.5z"/>
<path class="st18" d="M170.68,295.27h-28.77v1.85h28.77V295.27z"/>
<path class="st19" d="M222.91,295.27h-52.23v1.85h52.23V295.27z"/>
<path class="st18" d="M206.41,306.14h-19.22c-0.36,0-0.66-0.36-0.66-0.8v-0.05c0-0.44,0.3-0.8,0.66-0.8h19.22
	c0.36,0,0.66,0.36,0.66,0.8v0.05C207.07,305.78,206.77,306.14,206.41,306.14z"/>
<path class="st15" d="M149.91,347.5l3.34-61.5c0.09-1.68,1.48-3,3.16-3l0,0l21.5-4"/>
<circle class="st20" cx="179.41" cy="279" r="1"/>
<path class="st20" d="M183.41,275.93c0.1,0.13,0.16,0.37,0.03,0.73c-0.12,0.36-0.4,0.76-0.83,1.1c-0.43,0.34-0.88,0.52-1.25,0.57
	c-0.38,0.04-0.6-0.06-0.7-0.19c-0.1-0.13-0.16-0.37-0.03-0.73c0.12-0.36,0.4-0.76,0.83-1.1c0.43-0.34,0.88-0.52,1.25-0.57
	C183.09,275.7,183.31,275.8,183.41,275.93z"/>
<path class="st20" d="M178.27,278.43c-0.03,0.05-0.18,0.17-0.62,0.13c-0.41-0.04-0.93-0.22-1.46-0.56
	c-0.53-0.33-0.91-0.73-1.12-1.08c-0.23-0.38-0.18-0.56-0.15-0.61c0.03-0.05,0.18-0.17,0.61-0.13c0.41,0.04,0.93,0.22,1.46,0.56
	c0.53,0.33,0.91,0.73,1.12,1.08C178.35,278.2,178.3,278.38,178.27,278.43z"/>
<path class="st15" d="M178.2,279.01L178.2,279.01c-0.42,1.36-1.45,2.44-2.79,2.92l-0.51,0.18"/>
<path class="st15" d="M180.45,278.21L180.45,278.21c0.43,1.35,1.46,2.43,2.8,2.91l0.51,0.18"/>
<path class="st21" d="M147.91,345.5h4v3h-4V345.5z"/>
</svg>
