<?xml version="1.0" encoding="utf-8"?>
<!-- Generator: Adobe Illustrator 24.3.0, SVG Export Plug-In . SVG Version: 6.00 Build 0)  -->
<svg version="1.1" id="Capa_1" xmlns="http://www.w3.org/2000/svg" xmlns:xlink="http://www.w3.org/1999/xlink" x="0px" y="0px"
	 viewBox="0 0 637.8 717.17" style="enable-background:new 0 0 637.8 717.17;" xml:space="preserve">
<style type="text/css">
	.st0{fill-rule:evenodd;clip-rule:evenodd;fill:#C6C6C7;}
	.st1{fill:none;stroke:#6A6B73;stroke-width:16;stroke-linecap:round;stroke-opacity:0.54;}
	.st2{fill:none;stroke:#6A6B73;stroke-width:14;stroke-opacity:0.7;}
	.st3{fill-rule:evenodd;clip-rule:evenodd;fill:#63834B;}
	.st4{fill:none;stroke:#715A37;stroke-width:8;stroke-linecap:square;stroke-opacity:0.82;}
	.st5{fill-rule:evenodd;clip-rule:evenodd;fill:#7B9A63;}
	.st6{fill:none;stroke:#856636;stroke-width:8;stroke-linecap:square;stroke-opacity:0.87;}
	.st7{fill-rule:evenodd;clip-rule:evenodd;fill:#D7DBE2;}
	.st8{fill-rule:evenodd;clip-rule:evenodd;fill:#A3A7CE;}
	.st9{fill-rule:evenodd;clip-rule:evenodd;fill:#6A6B73;}
	.st10{fill-rule:evenodd;clip-rule:evenodd;fill:#787DB5;}
	.st11{fill:none;stroke:#9597B9;stroke-width:15;stroke-linejoin:bevel;}
	.st12{fill:none;stroke:#959EC7;stroke-width:7;}
	.st13{fill-rule:evenodd;clip-rule:evenodd;fill:#7C82A0;}
	.st14{fill:none;stroke:#3C4FA2;stroke-width:16;}
	.st15{fill:none;stroke:#192982;stroke-width:14;}
	.st16{fill:none;stroke:#7C82A0;stroke-width:15;stroke-linejoin:bevel;}
	.st17{fill:none;stroke:#7C82A0;stroke-width:15;}
	.st18{fill-rule:evenodd;clip-rule:evenodd;fill:#3C4FA2;}
	.st19{fill:none;stroke:#3C4FA2;stroke-width:13;}
	.st20{fill:#F6BDB7;}
	.st21{fill:#5F2731;}
	.st22{fill:#311643;}
	.st23{fill:#F1AEAB;}
	.st24{fill:#100846;}
	.st25{fill:#186DAF;fill-opacity:0.67;}
	.st26{fill:#F68319;}
	.st27{fill:#186DAF;}
	.st28{fill:#13145A;}
	.st29{fill:#AEAEAE;}
	.st30{fill:#D0D0D0;}
	.st31{fill:#C8640D;}
	.st32{fill:#202D51;}
	.st33{fill:#DC7515;}
</style>
<path class="st0" d="M631.89,498.8l-9.69,145.45h-85.13l-9.69-145.45c-0.31-4.56,3.18-8.42,7.59-8.42h89.35
	C628.71,490.37,632.19,494.24,631.89,498.8z"/>
<path class="st1" d="M579.63,523.18v98.09"/>
<path class="st1" d="M609.83,523.18l-6.59,98.09"/>
<path class="st1" d="M549.43,523.18l6.59,98.09"/>
<path class="st0" d="M635.53,499.52H523.37v-6.17c0-5.58,4.36-10.1,9.75-10.1h92.66c5.38,0,9.75,4.52,9.75,10.1V499.52z"/>
<path class="st2" d="M527.35,503.09h104.56"/>
<path class="st0" d="M559,485.39h4.53v-10.42H559V485.39z"/>
<path class="st0" d="M594.13,484.42h4.53V474h-4.53V484.42z"/>
<path class="st0" d="M559,476.63h39.66v-5.77H559V476.63z"/>
<path class="st3" d="M406.32,345.99c-1.19-3.68-7.69-3.06-7.69-13.33c0-15.46,20.54-13.7,21.75-25.35
	c1.21-11.65-11.99-11.37-12.4-21.2c-0.41-9.83,9.63-30.1,24.86-30.1c12.01,0,2.06,15.64,11.75,22.64
	c9.69,6.99,20.76-1.97,26.24,9.03c7.55,15.15-11.75,33.35-9.85,44.97c1.9,11.62,13.22,8.87,13.56,21.63s-16.09,15.01-14.54,25.95
	c0.98,6.9,11.38,4.6,11.92,18.2c0.46,11.52-35.27,25.77-62.11,2.33C382.99,377.35,410.85,360.05,406.32,345.99z"/>
<path class="st4" d="M435.9,318.09v113.2"/>
<path class="st4" d="M436.47,394.74l14.03-14.55"/>
<path class="st4" d="M436.65,353.31l7.13-7.39"/>
<path class="st4" d="M435.15,369.77l-11.19-11.6"/>
<path class="st4" d="M435.41,333.96l-5.44-5.64"/>
<path class="st5" d="M422.28,343.95c0,34.34-13.7,65.53-44.72,65.53s-44.72-31.19-44.72-65.53c0-40.28,23.44-80.34,44.72-80.34
	C398.84,263.61,422.28,303.67,422.28,343.95z"/>
<path class="st6" d="M377.56,336.55v97.79"/>
<path class="st6" d="M378.5,381.24l12.1-14.09"/>
<path class="st6" d="M375.78,362.12l-12.1-14.09"/>
<path class="st7" d="M496.79,90.37H2.62c0,0,32.11-57.9,98.74-57.9c41.87,0,58.71,20.47,97.59,20.47
	c38.88,0,88.29-50.92,151.9-50.92C450.33,2.01,496.79,90.37,496.79,90.37z"/>
<path class="st8" d="M450.08,502.59h8.34V118.33h-8.34V502.59z"/>
<path class="st9" d="M364.41,128.11l-65.98-22.66c-2.76-0.95-4.26-4.06-3.35-6.91l3.29-10.29c0.91-2.86,3.92-4.42,6.67-3.47
	l65.98,22.66c2.76,0.95,4.26,4.06,3.35,6.91l-3.29,10.28C370.17,127.5,367.17,129.06,364.41,128.11z"/>
<path class="st10" d="M438.27,645.05h31.96V517.7h-31.96V645.05z"/>
<path class="st10" d="M445.04,541.45h18.41v-43.57h-18.41V541.45z"/>
<path class="st10" d="M446.59,127.52h15.32v-18.48h-15.32V127.52z"/>
<path class="st11" d="M342.04,97.68c0,0,112.21,25.7,112.21,88.16"/>
<path class="st10" d="M371.78,121.16l-72.34-24.84c-6.47-2.22-10.01-9.53-7.87-16.23l0.65-2.03c2.15-6.71,9.2-10.37,15.67-8.15
	l72.34,24.84c6.47,2.22,10.01,9.53,7.87,16.23l-0.65,2.03C385.31,119.72,378.25,123.39,371.78,121.16z"/>
<path class="st12" d="M518.6,478.6l-1.04,165.46"/>
<path class="st12" d="M434.02,560.8l168.1,1.06"/>
<path class="st12" d="M459.01,502.45L577.14,620.2"/>
<path class="st12" d="M458.27,619.45l119.6-116.25"/>
<path class="st12" d="M238.39,478.19l29.22,162.95"/>
<path class="st12" d="M170.22,574.02l165.55-28.72"/>
<path class="st12" d="M184.13,512.2l137.72,94.91"/>
<path class="st12" d="M204.79,627.43l96.4-135.53"/>
<path class="st13" d="M283.75,559.85c-0.1,16.61-13.87,30-30.75,29.89s-30.48-13.66-30.38-30.28c0.1-16.61,13.87-30,30.75-29.89
	C270.26,529.68,283.86,543.24,283.75,559.85z"/>
<path class="st14" d="M283.75,559.85c-0.1,16.61-13.87,30-30.75,29.89s-30.48-13.66-30.38-30.28c0.1-16.61,13.87-30,30.75-29.89
	C270.26,529.68,283.86,543.24,283.75,559.85z"/>
<path class="st13" d="M532.84,561.42c-0.05,8.03-6.7,14.49-14.86,14.44c-8.15-0.05-14.72-6.6-14.67-14.62
	c0.05-8.03,6.7-14.49,14.86-14.44C526.32,546.84,532.89,553.39,532.84,561.42z"/>
<path class="st14" d="M532.84,561.42c-0.05,8.03-6.7,14.49-14.86,14.44c-8.15-0.05-14.72-6.6-14.67-14.62
	c0.05-8.03,6.7-14.49,14.86-14.44C526.32,546.84,532.89,553.39,532.84,561.42z"/>
<path class="st15" d="M337.24,560.19c-0.29,45.69-38.15,82.49-84.57,82.2s-83.82-37.57-83.53-83.26
	c0.29-45.69,38.15-82.49,84.57-82.2C300.13,477.22,337.53,514.5,337.24,560.19z"/>
<path class="st15" d="M602.13,561.86c-0.29,45.69-38.15,82.49-84.57,82.2c-46.42-0.29-83.82-37.57-83.53-83.26
	c0.29-45.69,38.15-82.49,84.57-82.2C565.02,478.89,602.41,516.17,602.13,561.86z"/>
<path class="st16" d="M320.59,423.14l40.05,137.2 M360.64,560.34L490.7,450.68l-163.27-2.74l-74.25,111.72L360.64,560.34z"/>
<path class="st17" d="M424.85,400.29l50.94,0.32l42.28,161.73"/>
<path class="st18" d="M348.03,431.55l-48.77,4.81c-5.26,0.52-9.87-3.1-9.84-7.74l0.03-5.12c0.03-4.27,4.01-7.71,8.89-7.68
	l48.74,0.31c4.88,0.03,8.82,3.52,8.79,7.79C355.84,427.84,352.47,431.11,348.03,431.55z"/>
<path class="st19" d="M362.79,560.35l-0.23,36.51l-15.24-0.1l30.49,0.19"/>
<path class="st18" d="M454.88,408l-33.75-0.21l0.1-15.2l33.75,0.21L454.88,408z"/>
<path class="st18" d="M497.34,455.6l16.18,3.19l0.18-28.37l-16.22,2.99c-4.62,0.85-7.97,4.8-8,9.42l-0.02,3.23
	C489.43,450.7,492.73,454.69,497.34,455.6z"/>
<path class="st20" d="M176.99,235.49c-20.37,3.45-45.75-4.25-48.93-9.16c-7.38,11.42-11.12,11.06-11.12,11.06v8.57l-1.67-1.69
	c-0.51-1.18-1.33-2.35-2.55-2.35c-6.71,0-7.18,18.96,4.11,20.05c0.22,0.74,0.45,1.44,0.69,2.07v30.34h25.46v-11.93
	c1.71,0.48,3.35,0.75,4.86,0.75c10.04,0,27.15-15,29.09-38.93C177.04,239.75,176.99,235.49,176.99,235.49z"/>
<path class="st21" d="M146.09,203.01c-17.56,0-21.07,9.52-21.07,9.52c-7.49,0-18.97,13.92-12.06,29.38l0.04,0.04l3.94,4.01v-8.57
	c0,0,3.75,0.36,11.12-11.06c3.18,4.91,28.57,12.61,48.94,9.16c0,0,0.05,4.26-0.06,8.77c0,0.01,0,0.01,0,0.01
	C184.54,221.91,169.27,203.01,146.09,203.01z"/>
<path class="st22" d="M138.53,250.8c-0.78,0-1.4-0.64-1.4-1.43v-2.67c0-0.79,0.63-1.43,1.4-1.43c0.78,0,1.4,0.64,1.4,1.43v2.67
	C139.94,250.16,139.31,250.8,138.53,250.8z"/>
<path class="st22" d="M164.58,250.8c-0.78,0-1.4-0.64-1.4-1.43v-2.67c0-0.79,0.63-1.43,1.4-1.43c0.78,0,1.4,0.64,1.4,1.43v2.67
	C165.99,250.16,165.36,250.8,164.58,250.8z"/>
<path class="st22" d="M148.86,267.46c-2.51,0-4.21-0.96-5.25-1.83c-1.3-1.1-1.85-2.3-1.87-2.35c-0.15-0.33,0-0.72,0.32-0.86
	c0.32-0.15,0.7,0,0.85,0.33c0.07,0.16,1.85,3.96,7.03,3.35c0.35-0.04,0.67,0.21,0.71,0.58c0.04,0.36-0.21,0.68-0.57,0.72
	C149.66,267.44,149.25,267.46,148.86,267.46z"/>
<path class="st23" d="M142.98,294.38v-11.93c-5.76-1.61-12.31-5.55-17.24-9.3L142.98,294.38z"/>
<path class="st24" d="M203.85,679.78h-26.97l-45.35-202.63L85.08,679.78H58.12l25.13-227.33l99.63,0L203.85,679.78z"/>
<path d="M179.02,690.8v19.37c0,2.26,1.8,4.09,4.02,4.09h54.05c0.51,0,0.93-0.42,0.93-0.95v-3.73c0-1.63-0.92-3.12-2.36-3.82
	l-30.48-14.95L179.02,690.8L179.02,690.8z"/>
<path d="M82.15,690.8v19.37c0,2.26-1.8,4.09-4.02,4.09H24.07c-0.52,0-0.93-0.42-0.93-0.95v-3.73c0-1.63,0.92-3.12,2.36-3.82
	l30.48-14.95L82.15,690.8L82.15,690.8z"/>
<path class="st20" d="M176.88,679.78l2.03,11.02h26.28l-1.34-11.02H176.88z"/>
<path class="st20" d="M58.12,679.78l-2.13,11.02h26.17l2.93-11.02H58.12z"/>
<path class="st25" d="M82.7,457.33l101.15,5.81l-0.99-10.68l-99.63,0"/>
<path class="st26" d="M113.12,324.29l4.66,7l-67.31,71.95c-1.8,1.93-4.38,2.94-7.01,2.75l-3.85-0.27
	c-7.7-0.55-9.84-10.86-2.99-14.43l29.5-21.5L113.12,324.29z"/>
<path class="st27" d="M176.27,354.48l6.6,97.97H83.24l6.11-69.82L88,345.38l-5.17,5.24l-22.99-17.96l12.35-20.46
	c3.06-5.06,7.47-9.13,12.73-11.72l28.34-13.98l1.04-0.51l3.24-1.6c0,0,14.79,9.86,25.42,0l5.68,2.18l1.15,0.44l30.03,11.51
	c4.7,1.8,8.53,5.39,10.67,10.02l12.74,27.53L176.27,354.48z"/>
<path class="st28" d="M148.62,286.58c-4.87,3.51-10.68,5.41-16.78,5.41c-6.42,0-12.53-2.1-17.55-5.99l-1.04,0.51
	c5.28,4.23,11.76,6.53,18.59,6.53c6.55,0,12.78-2.11,17.93-6.02L148.62,286.58z"/>
<path class="st28" d="M83.68,303.82c0,4.81-3.83,8.7-8.56,8.7c-0.99,0-1.94-0.17-2.83-0.48c2.73-4.46,6.53-8.15,11.03-10.71
	C83.55,302.12,83.68,302.96,83.68,303.82z"/>
<path class="st29" d="M136.71,424.5l-84.59,28.67c-1.39,0.47-2.84-0.48-3.24-2.14l-15.16-63.11c-0.4-1.65,0.41-3.38,1.8-3.85
	l84.59-28.67c1.39-0.47,2.84,0.49,3.24,2.14l15.16,63.11C138.91,422.31,138.11,424.03,136.71,424.5z"/>
<path class="st30" d="M138.68,426.38l-86.21,27.79c-1.42,0.46-2.9-0.47-3.3-2.07l-15.45-61.17c-0.41-1.6,0.42-3.27,1.84-3.73
	l86.21-27.79c1.42-0.46,2.9,0.47,3.3,2.07l15.45,61.18C140.92,424.26,140.1,425.93,138.68,426.38z"/>
<path class="st26" d="M149.48,433.62l-95.07,29.55c-1.56,0.49-3.19-0.5-3.64-2.2l-17.04-65.04c-0.45-1.7,0.46-3.48,2.02-3.96
	l95.07-29.55c1.57-0.49,3.19,0.5,3.64,2.2l17.04,65.04C151.95,431.36,151.04,433.13,149.48,433.62z"/>
<path class="st31" d="M126.36,362.75l11.93,5.39l-2.77,6.37c-1.54,3.55-5.7,5.12-9.21,3.49c-3.62-1.68-5.05-6.08-3.11-9.57
	L126.36,362.75z"/>
<path class="st26" d="M159.62,290.79l13,5l-34.91,75.82c-1.76,3.83-6.3,5.49-10.12,3.71c-3.84-1.79-5.48-6.37-3.65-10.18
	L159.62,290.79z"/>
<path class="st32" d="M161.91,352.12h-21.78c-0.72,0-1.31-0.6-1.31-1.33v-41.38c0-0.74,0.59-1.33,1.31-1.33h21.78
	c0.72,0,1.31,0.6,1.31,1.33v41.38C163.22,351.53,162.63,352.12,161.91,352.12z"/>
<path class="st20" d="M221.37,379.69l-18.16-43.62l-13.86,9.41l-19.47-17.34l-3.98-13.86c-0.06-0.44-0.4-0.79-0.83-0.85
	c-1.91-0.26-3.54,1.38-3.33,3.32l0.68,6.07l-7.22,0.97c-1.95,0.26-3.93,0.09-5.8-0.51l-6.72-2.15c-2.02-0.65-4.16,0.52-4.76,2.58
	l-2.59-0.61c-1.27-0.3-2.54,0.48-2.86,1.76l-0.02,0.07c-0.28,1.1,0.22,2.25,1.21,2.77c-0.53,2.1,0.7,4.25,2.76,4.82l0.06,0.01
	c-0.56,2.12,0.47,4.33,2.43,5.24l5.09,2.36c1.91,0.89,4.01,1.29,6.11,1.17l11.55-0.95l39.23,52.11l0.01,0.01
	c3.47,4.21,9.39,5.65,14.46,3.24C221.29,392.92,223.96,385.82,221.37,379.69z"/>
<path class="st28" d="M190.77,309.18c-0.93,0.36-1.93,0.57-2.99,0.57c-4.57,0-8.28-3.77-8.28-8.42c0-0.96,0.16-1.89,0.45-2.75
	c4.63,1.82,8.4,5.39,10.52,9.96L190.77,309.18z"/>
<path class="st23" d="M191.83,347.7l21.02,11.54l4.75,11.42L191.83,347.7z"/>
<path class="st33" d="M83.19,453.82l-29.76-52.7l6.3-1.83L83.19,453.82z"/>
<path class="st23" d="M209.44,393.86c4.51,0,8.17-3.72,8.17-8.3c0-4.58-3.66-8.3-8.17-8.3c-4.51,0-8.17,3.71-8.17,8.3
	C201.27,390.14,204.93,393.86,209.44,393.86z"/>
<path class="st23" d="M54.24,361.93c0,4.28-3.01,7.86-7,8.64l-1.46-3.45c-1.47-3.46-1.24-7.42,0.61-10.69l1.66-2.94
	C51.63,354.57,54.24,357.94,54.24,361.93z"/>
<path class="st20" d="M105.39,444.28l-10.13-4.6c-0.7-0.32-1.25-0.91-1.51-1.65l-1.47-4.11l5.12,1.28l1.63,3.56
	c0.55,1.2,1.94,1.74,3.13,1.21l-2.13-6.54c-0.4-1.04-1.17-1.89-2.15-2.39l-10.7-5.35l-18.46-60.84l14.1-14.26l-22.99-17.96
	l-13.44,23.77c-1.85,3.27-2.07,7.23-0.61,10.69l37.31,86.7l7.4,0.35c0.89,0.04,1.73-0.42,2.19-1.19l0.81-1.37l3.9,0.32
	c0.83,0.07,1.64-0.3,2.14-0.99l0.92-1.26l0.55,0.15c1.49,0.4,3.06-0.29,3.79-1.68l2.71,0.92
	C108.1,447.17,107.19,445.1,105.39,444.28z"/>
</svg>
