<?xml version="1.0" encoding="utf-8"?>
<!-- Generator: Adobe Illustrator 24.3.0, SVG Export Plug-In . SVG Version: 6.00 Build 0)  -->
<svg version="1.1" id="Capa_1" xmlns="http://www.w3.org/2000/svg" xmlns:xlink="http://www.w3.org/1999/xlink" x="0px" y="0px"
	 viewBox="0 0 527.24 450.71" style="enable-background:new 0 0 527.24 450.71;" xml:space="preserve">
<style type="text/css">
	.st0{fill:#D4AE73;}
	.st1{fill:#AF8E5B;}
	.st2{fill:#94794F;}
	.st3{fill:#A78653;}
	.st4{fill:#AE6C0F;}
	.st5{fill:#73511D;}
	.st6{fill:#936A2A;}
	.st7{fill:#AEAEAE;}
	.st8{fill:#D5AE73;}
	.st9{fill:#7A7A7A;}
	.st10{fill:#D0D0D0;}
	.st11{fill:#999DA9;}
	.st12{fill:#F4F4F4;}
</style>
<path class="st0" d="M286.45,217.67H103.32v230.26h183.12V217.67z"/>
<path class="st1" d="M103.32,217.67H2.45v230.26h100.88V217.67z"/>
<path class="st2" d="M103.32,257.04H2.45v6.74h100.88V257.04z"/>
<path class="st1" d="M286.45,257.04H103.32v6.74h183.12V257.04z"/>
<path class="st2" d="M228.57,296.75h-67.39c-1.28,0-2.32-1.3-2.32-2.91v-0.17c0-1.61,1.04-2.91,2.32-2.91h67.39
	c1.28,0,2.32,1.31,2.32,2.91v0.17C230.89,295.45,229.86,296.75,228.57,296.75z"/>
<path class="st0" d="M491.45,2.67H380.54v137.26h110.91V2.67z"/>
<path class="st1" d="M380.54,2.67h-61.09v137.26h61.09V2.67z"/>
<path class="st2" d="M380.54,26.14h-61.09v4.02h61.09V26.14z"/>
<path class="st3" d="M491.45,26.14H380.54v4.02h110.91V26.14z"/>
<path class="st2" d="M456.4,49.81h-40.81c-0.77,0-1.4-0.78-1.4-1.74v-0.1c0-0.96,0.63-1.74,1.4-1.74h40.81c0.77,0,1.4,0.78,1.4,1.74
	v0.1C457.8,49.03,457.17,49.81,456.4,49.81z"/>
<path class="st4" d="M431.9,157.72l-9.26,61.66l-11.12,74.04l-7,46.55l-2.38,15.78l-6.99,46.56l-5.9,39.26h-13.99l12.91-85.81
	l6.98-46.56l2.38-15.79l6.99-46.55v-0.01l4.64-30.89l8.75-58.25H431.9z"/>
<path class="st4" d="M525.59,441.58h-13.99l-31.17-207.51l-11.48-76.35h13.99l12.03,80.03L525.59,441.58z"/>
<path class="st4" d="M340.08,157.72l-5.9,39.21l-23.85,158.83l-7,46.56l-5.9,39.26h-13.99l12.89-85.81l6.99-46.56l17.38-115.7
	l5.37-35.79H340.08z"/>
<path class="st4" d="M433.77,441.58h-13.99l-15.26-101.6l-6.99-46.55l-12.56-83.6l-7.83-52.1h13.99l8.39,55.8l5.01,33.35v0.01
	l7,46.55L433.77,441.58z"/>
<path class="st4" d="M492.4,157.71H310.9c-6.03,0-10.92-3.92-10.92-8.77v-0.51c0-4.84,4.89-8.77,10.92-8.77h181.5
	c6.03,0,10.92,3.93,10.92,8.77v0.51C503.32,153.79,498.43,157.71,492.4,157.71z"/>
<path class="st5" d="M404.88,157.71H310.9c-6.03,0-10.92-3.92-10.92-8.77v-0.51c0-4.84,4.89-8.77,10.92-8.77h93.98
	c6.03,0,10.92,3.93,10.92,8.77v0.51C415.8,153.79,410.9,157.71,404.88,157.71z"/>
<path class="st6" d="M340.08,157.72l-5.9,39.21l-13.46-3.42l5.37-35.79H340.08z"/>
<path class="st6" d="M399.52,213.52l-14.55-3.69l-7.83-52.1h13.99L399.52,213.52z"/>
<path class="st6" d="M431.9,157.72l-9.26,61.66l-13.48-3.41l8.75-58.25H431.9z"/>
<path class="st6" d="M494.98,237.75l-14.54-3.68l-11.48-76.35h13.99L494.98,237.75z"/>
<path class="st7" d="M457.3,270.42l-83.85-42.75l-35.26,76.36l83.85,42.75L457.3,270.42z"/>
<path class="st7" d="M368.85,238.74l-92.47,12.25l10.1,84.2l92.47-12.25L368.85,238.74z"/>
<path class="st8" d="M486.92,275.61H322.81v172.46h164.11V275.61z"/>
<path class="st1" d="M322.81,275.61h-90.4v172.46h90.4V275.61z"/>
<path class="st2" d="M232.41,275.61l-46.96,52.86h102l35.36-52.86H232.41z"/>
<path class="st1" d="M486.93,275.61l33.52,53.54H356.57l-33.76-53.8L486.93,275.61z"/>
<path class="st9" d="M357.63,240.48l-6.6,34.92l17.83-36.41L357.63,240.48z"/>
<path class="st7" d="M245.34,202.76l-0.02-3.25c-0.01-1-1.85-1.81-4.11-1.81l-169.85,0.38c-8.57,0.02-15.49,3.12-15.46,6.92
	l0.04,5.54c0.03,3.8,7,6.87,15.57,6.85l169.85-0.38c2.26-0.01,4.09-0.82,4.08-1.83l-0.03-3.25c-0.01-1.01-1.85-1.82-4.11-1.81
	l-163.61,0.36c-3.45,0.01-6.25-1.23-6.26-2.76c-0.01-1.53,2.77-2.78,6.22-2.78l163.61-0.36
	C243.52,204.58,245.35,203.76,245.34,202.76z"/>
<path class="st10" d="M232.34,155.65l-0.21-3.55c-0.07-1.1-1.8-2.01-3.87-2.04l-155.59-2.2c-7.85-0.11-14.01,3.17-13.76,7.32
	l0.36,6.05c0.25,4.15,6.82,7.61,14.67,7.72l155.59,2.2c2.07,0.03,3.7-0.84,3.63-1.93l-0.21-3.55c-0.07-1.1-1.8-2.01-3.88-2.04
	l-149.88-2.12c-3.16-0.04-5.8-1.43-5.9-3.11c-0.1-1.67,2.38-2.99,5.54-2.94l149.88,2.12C230.78,157.61,232.41,156.75,232.34,155.65z
	"/>
<path class="st10" d="M230.2,189.11l-0.03-2.85c-0.01-0.88-1.94-1.59-4.32-1.59l-153.09,0.3c-9.01,0.02-16.29,2.73-16.26,6.07
	l0.04,4.86c0.03,3.33,7.36,6.02,16.37,6l153.09-0.3c2.38,0,4.3-0.72,4.3-1.6l-0.03-2.85c-0.01-0.88-1.94-1.59-4.32-1.59
	l-146.52,0.29c-3.63,0.01-6.57-1.07-6.59-2.42c-0.01-1.34,2.92-2.43,6.54-2.44l146.52-0.29
	C228.29,190.71,230.21,189.99,230.2,189.11z"/>
<path class="st11" d="M233.2,138.11l-0.03-2.85c-0.01-0.88-1.94-1.59-4.32-1.59l-153.09,0.3c-9.01,0.02-16.29,2.73-16.26,6.07
	l0.04,4.86c0.03,3.33,7.36,6.02,16.37,6l153.09-0.3c2.38,0,4.3-0.72,4.29-1.6l-0.03-2.85c-0.01-0.88-1.94-1.59-4.32-1.59
	l-146.53,0.29c-3.63,0.01-6.57-1.07-6.58-2.42s2.92-2.43,6.54-2.44l146.53-0.29C231.28,139.71,233.21,138.99,233.2,138.11z"/>
<path class="st12" d="M224.54,190.72l0.04,4.86l-145.16,0.28c-3.63,0.01-6.57-1.07-6.59-2.42c-0.01-1.34,2.92-2.43,6.54-2.44
	L224.54,190.72L224.54,190.72z"/>
<path class="st12" d="M215.63,204.62l0.04,5.54l-138.04,0.32c-3.45,0.01-6.25-1.23-6.26-2.76c-0.01-1.53,2.77-2.78,6.22-2.79
	L215.63,204.62L215.63,204.62z"/>
<path class="st12" d="M228.29,157.58l0.36,6.05l-148.51-2.1c-3.71-0.05-6.8-1.45-6.9-3.12c-0.1-1.67,2.82-2.98,6.53-2.93
	L228.29,157.58z"/>
<path class="st12" d="M227.54,139.72l0.04,4.86l-145.16,0.28c-3.63,0.01-6.57-1.07-6.58-2.42s2.92-2.43,6.54-2.44L227.54,139.72z"/>
<path class="st7" d="M232.2,171.72l-0.03-3.24c-0.01-1-1.94-1.81-4.32-1.8l-153.09,0.34c-9.01,0.02-16.29,3.11-16.26,6.91l0.04,5.52
	c0.03,3.79,7.36,6.85,16.37,6.83L228,185.94c2.38-0.01,4.3-0.82,4.29-1.82l-0.03-3.24c-0.01-1-1.94-1.81-4.32-1.8L81.42,179.4
	c-3.63,0.01-6.57-1.22-6.59-2.75c-0.01-1.53,2.92-2.77,6.54-2.78l146.52-0.32C230.28,173.54,232.21,172.73,232.2,171.72z"/>
<path class="st12" d="M226.54,173.55l0.04,5.52L81.42,179.4c-3.63,0.01-6.57-1.22-6.58-2.75c-0.01-1.53,2.92-2.77,6.54-2.78
	L226.54,173.55L226.54,173.55z"/>
</svg>
