<?xml version="1.0" encoding="utf-8"?>
<!-- Generator: Adobe Illustrator 24.3.0, SVG Export Plug-In . SVG Version: 6.00 Build 0)  -->
<svg version="1.1" id="Capa_1" xmlns="http://www.w3.org/2000/svg" xmlns:xlink="http://www.w3.org/1999/xlink" x="0px" y="0px"
	 viewBox="0 0 609.45 680.31" style="enable-background:new 0 0 609.45 680.31;" xml:space="preserve">
<style type="text/css">
	.st0{fill:#3C4FA2;}
	.st1{fill:#E4E9EE;}
	.st2{fill:#192982;}
	.st3{fill:#8BACD1;}
	.st4{fill:#D4DCEA;}
	.st5{fill:#7479B8;}
</style>
<path class="st0" d="M441.89,364.26H23.8c-11.76,0-21.3-7.83-21.3-17.49V19.95c0-9.66,9.54-17.49,21.3-17.49h418.09
	c11.77,0,21.3,7.83,21.3,17.49v326.83C463.19,356.43,453.65,364.26,441.89,364.26z"/>
<path class="st1" d="M264.62,54.83H66.25c-3.53,0-6.39-2.35-6.39-5.25c0-2.9,2.86-5.25,6.39-5.25h198.37c3.53,0,6.39,2.35,6.39,5.25
	C271.01,52.48,268.15,54.83,264.62,54.83z"/>
<path class="st1" d="M200.85,81.02H66.25c-3.53,0-6.39-2.35-6.39-5.25c0-2.9,2.86-5.25,6.39-5.25h134.6c3.53,0,6.39,2.35,6.39,5.25
	C207.24,78.67,204.38,81.02,200.85,81.02z"/>
<path class="st2" d="M99.87,123.92H64.42c-2.52,0-4.57-1.68-4.57-3.75c0-2.07,2.04-3.75,4.57-3.75h35.45c2.52,0,4.57,1.68,4.57,3.75
	C104.44,122.24,102.39,123.92,99.87,123.92z"/>
<path class="st3" d="M115.3,244.43v93.56c0,2.07-2.04,3.75-4.57,3.75H92.29c-2.52,0-4.57-1.68-4.57-3.75v-93.56
	c0-2.07,2.04-3.75,4.57-3.75h18.45C113.26,240.68,115.3,242.36,115.3,244.43z"/>
<path class="st3" d="M165.44,206.84v131.15c0,2.07-2.04,3.75-4.57,3.75h-18.45c-2.52,0-4.57-1.68-4.57-3.75V206.84
	c0-2.07,2.04-3.75,4.57-3.75h18.45C163.39,203.09,165.44,204.77,165.44,206.84z"/>
<path class="st3" d="M225.81,244.43v93.56c0,2.07-2.04,3.75-4.57,3.75H202.8c-2.52,0-4.57-1.68-4.57-3.75v-93.56
	c0-2.07,2.04-3.75,4.57-3.75h18.45C223.77,240.68,225.81,242.36,225.81,244.43z"/>
<path class="st3" d="M275.95,206.84v131.15c0,2.07-2.04,3.75-4.57,3.75h-18.45c-2.52,0-4.57-1.68-4.57-3.75V206.84
	c0-2.07,2.04-3.75,4.57-3.75h18.45C273.9,203.09,275.95,204.77,275.95,206.84z"/>
<path class="st3" d="M336.32,271.83v66.16c0,2.07-2.04,3.75-4.57,3.75h-18.45c-2.52,0-4.57-1.68-4.57-3.75v-66.16
	c0-2.07,2.04-3.75,4.57-3.75h18.45C334.28,268.08,336.32,269.76,336.32,271.83z"/>
<path class="st3" d="M386.46,244.43v93.56c0,2.07-2.04,3.75-4.57,3.75h-18.45c-2.52,0-4.57-1.68-4.57-3.75v-93.56
	c0-2.07,2.04-3.75,4.57-3.75h18.45C384.41,240.68,386.46,242.36,386.46,244.43z"/>
<path class="st4" d="M115.3,278.98v59c0,2.07-2.04,3.75-4.57,3.75H92.29c-2.52,0-4.57-1.68-4.57-3.75v-59
	c0-2.07,2.04-3.75,4.57-3.75h18.45C113.26,275.24,115.3,276.91,115.3,278.98z"/>
<path class="st4" d="M165.44,254.25v83.74c0,2.07-2.04,3.75-4.57,3.75h-18.45c-2.52,0-4.57-1.68-4.57-3.75v-83.74
	c0-2.07,2.04-3.75,4.57-3.75h18.45C163.39,250.5,165.44,252.18,165.44,254.25z"/>
<path class="st4" d="M225.81,278.98v59c0,2.07-2.04,3.75-4.57,3.75H202.8c-2.52,0-4.57-1.68-4.57-3.75v-59
	c0-2.07,2.04-3.75,4.57-3.75h18.45C223.77,275.24,225.81,276.91,225.81,278.98z"/>
<path class="st4" d="M275.95,254.25v83.74c0,2.07-2.04,3.75-4.57,3.75h-18.45c-2.52,0-4.57-1.68-4.57-3.75v-83.74
	c0-2.07,2.04-3.75,4.57-3.75h18.45C273.9,250.5,275.95,252.18,275.95,254.25z"/>
<path class="st4" d="M336.32,297.01v40.97c0,2.07-2.04,3.75-4.57,3.75h-18.45c-2.52,0-4.57-1.68-4.57-3.75v-40.97
	c0-2.07,2.04-3.75,4.57-3.75h18.45C334.28,293.27,336.32,294.94,336.32,297.01z"/>
<path class="st4" d="M386.46,278.98v59c0,2.07-2.04,3.75-4.57,3.75h-18.45c-2.52,0-4.57-1.68-4.57-3.75v-59
	c0-2.07,2.04-3.75,4.57-3.75h18.45C384.41,275.24,386.46,276.91,386.46,278.98z"/>
<path class="st5" d="M587.07,678.2H186.1c-11.28,0-20.43-8.26-20.43-18.44V315.1c0-10.19,9.15-18.44,20.43-18.44h400.97
	c11.28,0,20.43,8.26,20.43,18.44v344.65C607.5,669.94,598.35,678.2,587.07,678.2z"/>
<path class="st4" d="M415.83,351.88H225.58c-3.39,0-6.13-2.48-6.13-5.54c0-3.06,2.74-5.54,6.13-5.54h190.25
	c3.39,0,6.13,2.48,6.13,5.54C421.96,349.4,419.22,351.88,415.83,351.88z"/>
<path class="st4" d="M354.67,379.5H225.58c-3.39,0-6.13-2.48-6.13-5.54s2.74-5.54,6.13-5.54h129.09c3.39,0,6.13,2.48,6.13,5.54
	S358.05,379.5,354.67,379.5z"/>
<path class="st2" d="M257.83,424.75h-34c-2.42,0-4.38-1.77-4.38-3.95c0-2.18,1.96-3.95,4.38-3.95h34c2.42,0,4.38,1.77,4.38,3.95
	C262.2,422.98,260.24,424.75,257.83,424.75z"/>
<path class="st4" d="M507.28,560.52H402.22c-2.42,0-4.38-1.77-4.38-3.95v-15.97c0-2.18,1.96-3.95,4.38-3.95h105.07
	c2.42,0,4.38,1.77,4.38,3.95v15.97C511.66,558.75,509.7,560.52,507.28,560.52z"/>
<path class="st4" d="M549.62,603.93H402.22c-2.42,0-4.38-1.77-4.38-3.95V584c0-2.18,1.96-3.95,4.38-3.95h147.41
	c2.42,0,4.38,1.77,4.38,3.95v15.97C554,602.16,552.04,603.93,549.62,603.93z"/>
<path class="st4" d="M284.89,629.7c0-4.07,3.66-7.37,8.17-7.37c-31.79,0-57.64-23.35-57.64-52.04s25.86-52.04,57.64-52.04
	c31.79,0,57.64,23.35,57.64,52.04c0-4.07,3.66-7.37,8.17-7.37c4.51,0,8.17,3.3,8.17,7.37c0-36.83-33.19-66.79-73.98-66.79
	s-73.98,29.96-73.98,66.79c0,36.83,33.19,66.79,73.98,66.79C288.54,637.07,284.89,633.77,284.89,629.7z"/>
<path class="st2" d="M358.86,562.91c-4.51,0-8.17,3.3-8.17,7.37c0,28.7-25.86,52.04-57.64,52.04c-4.51,0-8.17,3.3-8.17,7.37
	c0,4.07,3.65,7.38,8.17,7.38c40.79,0,73.98-29.96,73.98-66.79C367.03,566.21,363.37,562.91,358.86,562.91z"/>
</svg>
