<?xml version="1.0" encoding="utf-8"?>
<!-- Generator: Adobe Illustrator 24.3.0, SVG Export Plug-In . SVG Version: 6.00 Build 0)  -->
<svg version="1.1" id="Capa_1" xmlns="http://www.w3.org/2000/svg" xmlns:xlink="http://www.w3.org/1999/xlink" x="0px" y="0px"
	 viewBox="0 0 147.4 51.02" style="enable-background:new 0 0 147.4 51.02;" xml:space="preserve">
<style type="text/css">
	.st0{fill:#C5428A;}
	.st1{fill-rule:evenodd;clip-rule:evenodd;fill:#FFFFFF;}
	.st2{fill:#17248C;}
	.st3{fill:#2B94C2;}
</style>
<path class="st0" d="M49.98,1.7h-48v48h48V1.7z"/>
<path class="st1" d="M21.85,15.83c-0.77-0.04-1.54,0.08-2.26,0.36c-0.72,0.28-1.37,0.7-1.92,1.24c-0.55,0.54-0.97,1.2-1.25,1.92
	c-0.28,0.72-0.4,1.49-0.36,2.26c-0.05,1-0.31,8.6,0.46,10.59c0.25,0.66,0.64,1.26,1.15,1.76c0.5,0.5,1.1,0.89,1.76,1.14
	c0.77,0.29,1.59,0.44,2.41,0.46c8.86,0.4,12.14,0.18,13.53-3.36c0.29-0.77,0.45-1.59,0.46-2.41c0.4-8.88-0.07-10.81-1.61-12.35
	C33.01,16.21,31.57,15.38,21.85,15.83L21.85,15.83z M21.94,33.77c-0.63-0.01-1.26-0.12-1.85-0.34c-0.43-0.16-0.82-0.41-1.15-0.74
	c-0.33-0.32-0.58-0.71-0.74-1.14c-0.59-1.51-0.4-8.7-0.34-9.87c-0.04-1.1,0.35-2.17,1.09-2.98c1-0.99,2.28-1.48,11.03-1.08
	c1.1-0.04,2.17,0.35,2.99,1.08c1,0.99,1.49,2.29,1.09,11.01c-0.01,0.63-0.12,1.25-0.34,1.84C32.81,33.85,30.74,34.17,21.94,33.77
	L21.94,33.77z M30.07,20.39c0,0.24,0.07,0.47,0.2,0.66c0.13,0.2,0.32,0.35,0.54,0.44c0.22,0.09,0.46,0.12,0.69,0.07
	c0.23-0.05,0.45-0.16,0.61-0.33c0.17-0.17,0.28-0.38,0.33-0.61c0.05-0.23,0.02-0.47-0.07-0.69c-0.09-0.22-0.24-0.41-0.44-0.54
	c-0.2-0.13-0.43-0.2-0.66-0.2c-0.32,0-0.62,0.12-0.84,0.35C30.2,19.77,30.08,20.07,30.07,20.39z M20.85,25.69
	c0,1.01,0.3,2,0.86,2.84c0.56,0.84,1.36,1.5,2.29,1.89c0.93,0.39,1.96,0.49,2.95,0.29c0.99-0.2,1.9-0.68,2.62-1.4
	c0.72-0.71,1.2-1.62,1.4-2.62c0.2-0.99,0.1-2.02-0.29-2.95c-0.39-0.93-1.04-1.73-1.88-2.29c-0.84-0.56-1.83-0.86-2.84-0.86
	c-0.67,0-1.33,0.13-1.95,0.39c-0.62,0.26-1.18,0.63-1.66,1.1c-0.47,0.47-0.85,1.04-1.11,1.66C20.98,24.35,20.85,25.02,20.85,25.69z
	 M22.64,25.69c0-0.66,0.19-1.3,0.56-1.84c0.36-0.55,0.88-0.97,1.49-1.22s1.27-0.32,1.92-0.19c0.64,0.13,1.23,0.44,1.7,0.91
	c0.46,0.46,0.78,1.05,0.91,1.7c0.13,0.64,0.06,1.31-0.19,1.92c-0.25,0.61-0.68,1.12-1.22,1.49C27.25,28.8,26.61,29,25.96,29
	c-0.43,0-0.87-0.08-1.27-0.25c-0.4-0.17-0.77-0.41-1.08-0.72c-0.31-0.31-0.55-0.67-0.72-1.07C22.73,26.55,22.64,26.12,22.64,25.69z"
	/>
<path class="st2" d="M97.98,1.7h-48v48h48V1.7z"/>
<path class="st1" d="M75.8,35.7v-9h2.73l0.45-4H75.8v-1.95c0-1.03,0.03-2.05,1.47-2.05h1.46v-2.86c-0.83-0.11-1.68-0.16-2.52-0.14
	c-2.65,0-4.3,1.66-4.3,4.7v2.3h-2.93v4h2.92v9H75.8z"/>
<path class="st3" d="M145.98,1.7h-48v48h48V1.7z"/>
<path class="st1" d="M118.27,33.7c1.52,0.02,3.04-0.26,4.45-0.82c1.42-0.57,2.7-1.41,3.79-2.48c1.09-1.07,1.95-2.34,2.54-3.75
	c0.59-1.41,0.89-2.92,0.89-4.44c0-0.18,0-0.35-0.01-0.52c0.8-0.57,1.49-1.28,2.05-2.09c-0.75,0.33-1.54,0.54-2.36,0.64
	c0.85-0.5,1.49-1.3,1.8-2.23c-0.81,0.47-1.69,0.8-2.61,0.98c-0.75-0.78-1.78-1.24-2.87-1.27c-1.09-0.03-2.14,0.36-2.94,1.1
	c-0.52,0.48-0.91,1.09-1.12,1.77c-0.21,0.68-0.23,1.4-0.07,2.09c-1.63-0.08-3.22-0.49-4.67-1.22c-1.46-0.73-2.74-1.75-3.78-3
	c-0.53,0.89-0.69,1.95-0.45,2.95c0.24,1,0.85,1.88,1.72,2.44c-0.65-0.02-1.29-0.19-1.86-0.5v0.05c0.01,0.94,0.34,1.85,0.94,2.57
	c0.6,0.72,1.43,1.21,2.35,1.39c-0.6,0.16-1.24,0.19-1.85,0.07c0.27,0.81,0.78,1.51,1.47,2.01c0.69,0.5,1.51,0.78,2.36,0.79
	c-1.46,1.13-3.25,1.74-5.1,1.73c-0.33,0-0.65-0.02-0.98-0.06C113.86,33.08,116.04,33.71,118.27,33.7z"/>
</svg>
