<svg xmlns="http://www.w3.org/2000/svg" viewBox="0 0 323.33 323.33"><defs><style>.cls-1{fill:#3f50b5;}</style></defs><g id="Capa_2" data-name="Capa 2"><g id="trazos"><path class="cls-1" d="M276,47.35A161.67,161.67,0,0,0,47.35,276,161.67,161.67,0,0,0,276,47.35ZM115.33,300.41,84.1,108.94c6.1,4.14,14.1,7.75,23.75,10.68,43.6,13.23,104.71,12.11,145.16-1.55-15.74,25.89-47.66,88.61-55.56,182a109.22,109.22,0,0,1-22,9c-4.55.42-9.14.65-13.8.65a147.63,147.63,0,0,1-41.48-5.93C118.54,302.76,116.93,301.64,115.33,300.41Zm26.53-216.3c.18,2.23,1.61,6.32,9.13,8.6,9.27,2.81,22.36,2.14,29.79-1.51,7.13-3.52,7.85-8.15,7.65-10.59-.23-2.81-2.13-8-12.34-11.06-13.91-4.22-33.47-3.26-44.54,2.2-9.7,4.77-10.72,10.75-10.46,13.88.3,3.69,3,10.53,17.37,14.9,21.15,6.42,50.85,5,67.6-3.28,1-.47,1.86-1,2.71-1.45C207,107.93,206,114.5,205.52,118c-31.8,3.18-67,.8-94.86-7.65C96.55,106.08,86.42,100.27,82.12,94a10.07,10.07,0,0,1-2-7.7c1-5.22,6.71-10.67,16.17-15.33,23.32-11.49,66.63-13.45,96.56-4.37C206,70.57,211,75.77,211.25,79a3.69,3.69,0,0,1-.07.87c0,.12,0,.24-.05.36-.66,2.68-4,5.71-9.34,8.33-14.34,7.07-42.06,8.3-60.52,2.7-8.38-2.54-10.47-5.57-10.54-6.43s1.28-2.53,5.09-4.41a35.16,35.16,0,0,1,8.81-2.75A7.77,7.77,0,0,0,141.86,84.11Zm9.64-.83-3.05-6.19c8.21-1,17.64-.47,24.83,1.72a14.36,14.36,0,0,1,5.18,2.47,9.21,9.21,0,0,1-2,1.24c-5.23,2.58-15.84,3-22.7.93a7.07,7.07,0,0,1-2.7-1.25A1.85,1.85,0,0,1,151.5,83.28ZM207,302.61c9.79-120.73,62.05-191.29,62.57-192l12.25-16.24-18.24,9c-12.92,6.36-29.7,10.88-48.08,13.46.78-5.48,2.3-15.76,5.19-34.77a12.5,12.5,0,0,0,.21-1.42.06.06,0,0,0,0,0h0a13.59,13.59,0,0,0,0-2.37c-.72-8.76-9.67-16.18-25.21-20.89-31.94-9.69-78.43-7.47-103.65,5C79.58,68.42,72.18,76.11,70.62,84.53A18.87,18.87,0,0,0,72.19,96l33,202.48a148.28,148.28,0,0,1-91.6-136.85c0-81.64,66.41-148,148-148s148,66.41,148,148C309.71,227.51,266.5,283.44,207,302.61Z"/><path class="cls-1" d="M193.86,194.17l1.33-.86,19.57-52-8.92,2.2c-57.17,14-93-8.5-93.32-8.72l-9.33-6.1L114,190.38l2.64,1c1.49.54,26.45,9.4,49.73,9.4C176.54,200.73,186.42,199,193.86,194.17Z"/><path class="cls-1" d="M168.51,221.78c-1.53,0-3,.06-4.56.05-3-.18-6.07-.14-9.1-.5a170.52,170.52,0,0,1-18.24-2.49c-6.14-1.16-12.29-2.56-18.85-4.07a49,49,0,0,0,16.6,11.31,62.71,62.71,0,0,0,19.7,4.89c1.71.09,3.4.31,5.12.23s3.42-.1,5.13-.2,3.4-.45,5.08-.74c.84-.15,1.69-.25,2.52-.46l2.47-.7a45.52,45.52,0,0,0,17.83-9.4c-6.79.63-12.89,1.78-19.11,1.9A43.92,43.92,0,0,1,168.51,221.78Z"/><path class="cls-1" d="M134.36,250.41a63.26,63.26,0,0,0,19.7,4.89,48.6,48.6,0,0,0,5.12.22c1.71-.06,3.42-.1,5.13-.19s3.4-.45,5.08-.74c.84-.16,1.69-.25,2.52-.46l2.47-.71a45.52,45.52,0,0,0,17.83-9.4c-6.79.63-12.89,1.78-19.11,1.9a41.34,41.34,0,0,1-4.59.18c-1.53,0-3,.06-4.56.06-3-.19-6.07-.14-9.1-.5a175.77,175.77,0,0,1-18.24-2.49c-6.14-1.16-12.29-2.57-18.85-4.08A49.13,49.13,0,0,0,134.36,250.41Z"/><path class="cls-1" d="M169.85,275.58a27.45,27.45,0,0,0,3.6-1.51,34.17,34.17,0,0,0,3.47-1.87,70.78,70.78,0,0,0-7.58-1.34c-2.46-.41-4.87-.57-7.26-.92L148,268.46,133.87,267c-4.78-.48-9.58-1-14.86-1.31a35.63,35.63,0,0,0,13,8.65,55.06,55.06,0,0,0,30.41,3.23A46.53,46.53,0,0,0,169.85,275.58Z"/></g></g></svg>