<?xml version="1.0" encoding="utf-8"?>
<!-- Generator: Adobe Illustrator 24.3.0, SVG Export Plug-In . SVG Version: 6.00 Build 0)  -->
<svg version="1.1" id="Capa_1" xmlns="http://www.w3.org/2000/svg" xmlns:xlink="http://www.w3.org/1999/xlink" x="0px" y="0px"
	 viewBox="0 0 411.02 430.87" style="enable-background:new 0 0 411.02 430.87;" xml:space="preserve">
<style type="text/css">
	.st0{fill:url(#SVGID_1_);}
	.st1{fill:url(#SVGID_2_);}
	.st2{fill:none;stroke:#000000;stroke-linecap:round;stroke-linejoin:round;}
	.st3{fill:#401782;stroke:#000000;stroke-linecap:round;stroke-linejoin:round;}
	.st4{fill:none;stroke:#401782;stroke-linecap:round;stroke-linejoin:round;}
	.st5{fill:#CAC5D7;stroke:#000000;stroke-linecap:round;stroke-linejoin:round;}
	.st6{fill:#6A65AA;}
	.st7{fill:#401782;}
</style>
<g>
	<path d="M39.81,3.63L10.46,53.67c-4.34,7.39-3.92,19.18,0.95,26.3l114.95,168.38c4.86,7.13,12.33,6.9,16.67-0.49l5.02-8.56
		c-4.6-12.91-11.61-25.33-18.36-37.17c-1.31-2.29-2.7-4.52-4.09-6.72c-0.01-0.01-0.01-0.01-0.03-0.02
		c-1.06-0.85-1.64-1.89-1.89-2.98c-4.39-6.86-8.65-13.55-10.94-21.12c-3.93-7.89-4.61-16.59-4.39-25.19
		c0.22-8.41,1.76-18.18,10.7-22.62c4.24-2.11,9.23-2.24,13.8-1.03c1.82,0.48,4.56,2.08,7,2.8L56.49,3.14"/>
	
		<linearGradient id="SVGID_1_" gradientUnits="userSpaceOnUse" x1="117.515" y1="366.1027" x2="343.1013" y2="-611.4243" gradientTransform="matrix(1 0 0 -1 -100.4882 250.567)">
		<stop  offset="0" style="stop-color:#313030"/>
		<stop  offset="1" style="stop-color:#000000"/>
	</linearGradient>
	<path class="st0" d="M36.02,10.11L6.66,60.15c-4.34,7.41-3.92,19.18,0.95,26.3l116.11,170.09c4.86,7.13,12.33,6.9,16.67-0.49
		l8.46-14.42c-4.56-13.75-11.99-26.96-19.17-39.5c-1.31-2.29-2.7-4.52-4.09-6.72c-0.01-0.01-0.01-0.01-0.03-0.02
		c-1.06-0.85-1.64-1.89-1.89-2.98c-4.39-6.86-8.65-13.55-10.94-21.12c-3.93-7.89-4.61-16.59-4.39-25.19
		c0.22-8.41,1.76-18.18,10.7-22.62c3.15-1.57,6.73-2.04,10.23-1.68L52.7,9.59"/>
	
		<linearGradient id="SVGID_2_" gradientUnits="userSpaceOnUse" x1="216.7207" y1="138.6522" x2="166.0932" y2="108.4032" gradientTransform="matrix(1 0 0 -1 -100.4882 250.567)">
		<stop  offset="0" style="stop-color:#FFFFFF"/>
		<stop  offset="1" style="stop-color:#EAEAEA"/>
	</linearGradient>
	<path class="st1" d="M41.66,11.49l-26.1,44.48c-4.35,7.39-3.92,19.17,0.95,26.3l108.02,158.22c4.86,7.13,12.33,6.9,16.67-0.49
		l4.28-7.31c-4.43-10.55-10.2-20.76-15.8-30.56c-1.31-2.29-2.7-4.52-4.09-6.72c-0.01-0.01-0.01-0.01-0.03-0.03
		c-1.06-0.85-1.64-1.89-1.89-2.97c-4.39-6.86-8.65-13.55-10.94-21.12c-3.93-7.89-4.61-16.59-4.39-25.2
		c0.22-8.41,1.76-18.18,10.7-22.62c4.24-2.11,9.23-2.24,13.8-1.03c0.61,0.16,1.33,0.46,2.11,0.8L58.32,10.99"/>
	<path class="st2" d="M132.73,261.5c1.61,0.83,3.49,1.19,5.13,1.84c1.38,0.54,3.81,0.1,5.23-0.32c1.19-0.35,3.07-0.84,3.96-1.54
		c1.31-1.05,2.72-1.77,3.28-3.25c0.15-0.43,0.71-1.05,0.75-1.43c0.06-0.52,0.53-1.11,0.46-1.6c-0.11-0.91,0.29-1.85,0.33-2.77
		c0.04-1.06-0.04-2.08-0.17-3.14c-0.14-1.2-0.22-2.36-0.81-3.47c-0.33-0.63-0.74-1.16-1.14-1.77c-0.42-0.65-0.38-1.39-0.71-2.04
		c-0.5-0.96-1.29-1.87-1.42-2.95c-0.13-1.06-0.47-2.1-0.6-3.19c-0.26-2.21-0.31-4.38-0.57-6.61c-0.11-0.91,0.43-1.9,0.32-2.86
		c-0.15-1.32-0.32-2.63-0.47-3.95c-0.17-1.43-0.9-2.74-1.58-4.04c-0.26-0.52-0.67-1.17-1.07-1.62c-0.44-0.51-1.21-1.39-1.33-1.96
		c-0.15-0.75-1.1-1.32-1.5-1.99c-0.28-0.47-0.4-1.13-0.46-1.65c-0.07-0.54-0.12-1.1-0.19-1.65c-0.07-0.61-0.56-1.02-0.64-1.65"/>
	<path class="st2" d="M141.04,251.56c0.56,0.51,0.4,1.54,0.49,2.19c0.08,0.66,0.15,1.54-0.31,2.14c-0.76,0.98-1.26,2.03-2.04,2.98
		c-0.53,0.65-0.95,1.25-1.4,1.92c-0.31,0.44-0.72,0.86-0.93,1.34c-0.17,0.37-0.63,0.46-0.78,0.77"/>
	<path class="st2" d="M140.04,252.29c-1.46,0.37-2.47,0.29-2.68,1.49c-0.15,0.87-0.57,1.95-1.1,2.74c-0.62,0.94-1.11,1.76-1.57,2.72
		c-0.42,0.86-0.53,1.72-0.96,2.56"/>
	<path class="st2" d="M143.11,249.18c0.47,0.53,0.35,1.3,0.81,1.81c0.35,0.37,0.29,1.25,0.32,1.7c0.03,0.44-1.31,0.98-1.83,1.17"/>
	<path class="st2" d="M151.78,255.39c0.28,1.91,1.1,3.71,1.33,5.63c0.33,2.75,0.65,5.49,0.99,8.23c0.22,1.82,0.18,3.82,0.89,5.57
		c0.54,1.34,1.1,2.84,1.39,4.23c0.32,1.47,1.38,2.73,1.85,4.16c0.42,1.24,1.07,2.42,1.43,3.68c0.78,2.66,1.49,5.32,3.11,7.76
		c1.28,1.9,2.14,3.99,3.5,5.88c1.11,1.55,2.25,3.08,3.39,4.62c1.54,2.09,2.99,4.23,4.6,6.28c1.63,2.05,3.52,4.22,4.74,6.43
		c1.29,2.37,2.91,4.62,4.17,6.99c0.71,1.33,2.02,2.73,3,3.98c0.97,1.22,1.64,2.74,2.77,3.86c1.39,1.38,2.35,3.13,4.13,4.29
		c1.47,0.96,2.5,2.29,4.04,3.25c0.64,0.41,1.01,0.95,1.74,1.28c0.57,0.27,1.21,0.82,1.56,1.24c0.45,0.52,1.29,0.99,1.93,1.37
		c0.69,0.42,1.29,0.97,1.92,1.44c0.5,0.37,0.9,0.58,1.32,0.99c0.35,0.33,0.65,0.95,1.13,1.17c0.14,0.06,0.68,0.75,0.83,0.9
		c0.43,0.47,0.78,0.94,1.31,1.36"/>
	<path class="st2" d="M207.39,348.82c1.28,1.84,2.53,3.52,4.17,5.15c0.86,0.86,1.4,1.81,2.24,2.65c0.93,0.92,1.88,1.61,3.07,2.33
		c0.97,0.58,1.89,1.3,2.65,2.04c0.65,0.63,1.51,1.06,2.17,1.68c1.84,1.73,3.82,3.44,5.78,5.1c2.5,2.1,4.64,4.38,6.96,6.58
		c1.46,1.38,2.63,2.95,4.14,4.29c1.61,1.43,3.21,2.87,4.68,4.41c2.17,2.24,4.6,4.24,6.6,6.58c2.29,2.71,4.27,5.57,6.38,8.37
		c1.21,1.6,2.31,3.17,3.85,4.6c1.47,1.36,2.5,2.93,4.03,4.23c1.93,1.63,2.71,4.04,4.3,5.86c1.31,1.48,1.9,3.18,2.72,4.84
		c0.29,0.6,0.36,1.27,0.67,1.87c0.29,0.6,0.81,1.09,0.92,1.76c0.18,1.06,0.68,2,0.81,3.09c0.08,0.66,0.53,2.58,0.44,1.94"/>
	<path class="st2" d="M218.19,221.63c0.9,0.15,1.93,0.66,2.14,1.43c0.17,0.62,0.72,1.14,0.86,1.76c0.26,1.15,2.15,1.95,2.76,2.99"/>
	<path class="st2" d="M140.55,126.95c-1.06-0.23-1.88-0.62-2.56-1.23"/>
	<path class="st2" d="M165.53,130.89c0.32,2.61-1.17,5.04-2.33,7.48c-0.14,0.29-0.32,0.81-0.36,1.1c-0.1,0.57-0.64,1.05-0.83,1.61
		c-0.28,0.79-0.86,1.33-1.11,2.13"/>
	<path class="st2" d="M165.38,131.39c-0.19,1.44-0.4,3.06-0.33,4.48c0.04,0.74,0.18,1.48,0.26,2.22c0.15,1.25-0.14,2.46,0,3.68
		c0.21,1.8-0.65,3.66-0.86,5.45c-0.11,0.92,0.56,2.94-0.46,3.57"/>
	<path class="st2" d="M168.21,156.96c1.14,0.71,1.82,1.62,2.9,2.34c0.6,0.4,1.53,1.4,2.29,1.58c0.85,0.19,1.64,0.99,2.32,1.42
		c1.2,0.76,2.15,1.53,3.45,2.2c1.19,0.62,2.46,1.24,3.63,1.94c0.79,0.47,1.99,1.57,2.99,1.75c0.99,0.16,1.99,0.72,3.03,0.97
		c1.01,0.24,2.15,0.44,3.21,0.42c0.82-0.01,1.57,0.14,2.42,0.09c1.15-0.06,2.42,0.25,3.53,0.14c1.03-0.1,2.32-0.08,3.21-0.52
		c0.94-0.47,2.04-0.91,2.99-1.42c0.86-0.47,1.82-1.16,2.89-1.42c1.22-0.29,1.99-1.25,3.22-1.48c0.74-0.14,1.85-1.01,2.34-1.47
		c0.79-0.73,1.81-1.24,2.74-1.84"/>
	<path class="st2" d="M207.78,162.08c-0.82,0.77-1.57,1.51-2.4,2.25c-0.67,0.61-0.97,1.35-1.64,1.97c-1.01,0.95-1.83,2.63-3.39,3.1"
		/>
	<path class="st2" d="M206.89,162.01c-1.46,0.35-2.71,1.05-4.18,1.24c-1.08,0.14-2.02,0.86-3.09,0.96c-0.97,0.1-1.79,0.51-2.85,0.61
		c-0.96,0.1-2.58,0.46-3.42,0c-2.1-1.15-4.99-1.33-7.35-2.23c-1.96-0.75-3.35-2.16-5.28-2.94c-0.83-0.33-1.49-0.98-2.18-1.43
		c-0.71-0.44-1.63-0.8-2.24-1.35c-0.64-0.57-1.5-0.8-2.13-1.37c-0.79-0.74-1.74-1.39-2.54-2.1c-1.38-1.2-1.65-2.76-2.61-4.1
		c-0.47-0.66-0.65-1.51-1.39-2c-0.78-0.52-1.04-1.27-1.64-1.81"/>
	<path class="st2" d="M200.17,169.76c-0.49,0.54-1.08,1.01-1.57,1.54c-0.22,0.24-0.69,0.28-0.92,0.52c-0.56,0.57-0.97,1.19-1.4,1.81
		c-1.06,1.53-0.5,3.11-0.31,4.8c0.25,2.04,0.61,3.58,1.79,5.42c0.99,1.54,2.34,2.91,3.45,4.41c1.07,1.44,2.45,2.6,3.53,4.01
		c0.68,0.89,0.45,2.77,0.57,3.81c0.15,1.24-0.64,2.68-0.85,3.95c-0.14,0.84-0.69,1.37-0.6,2.24c0.07,0.63,0.1,1.23,0.43,1.81"/>
	<path class="st2" d="M197.25,183.71c0.65,5.43-5.32,9.94-8.55,14.51"/>
	<path class="st2" d="M222.65,189.42c-0.83,0.48-1.61,1.05-2.45,1.52c-0.46,0.25-0.75,0.75-1.25,0.95
		c-1.64,0.67-3.02,1.65-4.59,2.38c-1.42,0.67-2.72,1.58-4,2.38c-0.58,0.35-0.58,0.8-1.17,1.13c-0.75,0.4-1.14,1.1-1.82,1.56
		c-0.9,0.62-2.13,1.2-2.9,1.94c-0.43,0.4-0.95,1.19-1.56,1.47c-0.92,0.42-2.2,3.44,0.1,2.37c1.35-0.63,2.6-1.48,3.73-2.33
		c1.2-0.89,2.45-1.91,3.54-2.87c1.6-1.4,3.36-3.03,5.35-4.11c1.99-1.09,4.36-1.65,6.35-2.72c1.29-0.7,2.81-2.54,1.54-3.57"/>
	<path class="st2" d="M204.07,209.7c2.17-0.21,4.32-0.43,6.49-0.65c0.44-0.05,1.89-0.01,2.17-0.3c0.6-0.66,0.94-1.19,0.83-2.05
		c-0.08-0.74-0.03-1.39-0.67-1.95c-0.5-0.43-1.22-0.49-1.64-0.94c-0.86-0.91-1.07-1.63-1.21-2.77"/>
	<path class="st2" d="M203.86,209.71c0.6,1.42,2.38,1.91,3.88,2.71c1.34,0.71,2.29,1.32,4.04,1.29c1.06-0.01,1.97,0.29,3.09,0.18
		c0.54-0.05,1.83-0.2,1.79,0.39c-0.07,0.8-1.53,0.96-1.93,1.6c-0.25,0.39-0.93,0.95-1.44,1.13"/>
	<path class="st2" d="M177.73,172.48c3.56,0.96,6.03,3.23,9.76,3.96c1.22,0.24,2.72,0.53,3.99,0.43c1.11-0.09,2.79-0.05,3.85,0.11"
		/>
	<path class="st2" d="M179.12,176.78c2.01,2.75,6.56,4.28,10.77,4.04c1.54-0.09,2.77,1.27,3.82,1.76c0.47,0.22,1.18,0.28,1.75,0.48
		c0.81,0.29,1.42,0.52,2.4,0.42"/>
	<path class="st2" d="M169.81,115.48c-2.93,0.29-5.68,0.24-8.58,0.52c-1.35,0.14-2.43,0.78-3.45,1.51c-0.97,0.7-2.5,1.18-3.68,1.67
		c-2.59,1.09-5.2,2.19-8.03,2.79c-1.08,0.23-2.07,1.06-3.13,1.28c-0.64,0.14-1.89,0.7-2.28,1.06"/>
	<path class="st2" d="M147.72,126.56c1.63-0.47,1.74-1.51,2.89-2.35c1.07-0.79,2.09-1.63,3.35-2.31c1.69-0.92,3.64-2.04,5.57-2.73
		c0.56-0.2,1.35-0.66,1.85-0.96c0.6-0.37,1.36-0.34,2.01-0.64c1.79-0.85,3.84-1.01,5.71-1.53c2.93-0.8,5.52,0.13,8.28,0.73
		c1.92,0.42,3.81,0.38,5.64,0.97c1.93,0.63,3.96,1.08,5.62,2.08c0.92,0.56,1.75,0.97,2.79,1.41c1,0.42,1.89,1.27,2.99,1.52
		c0.96,0.23,1.51,0.82,2.36,1.17c0.58,0.23,1.24,0.71,1.81,0.87c1.04,0.3,1.95,0.84,2.89,1.29c0.86,0.4,1.51,1.16,2.4,1.49
		c1.53,0.57,2.75,1.8,3.95,2.74c1.67,1.3,3.78,2.14,5.49,3.44c1.9,1.44,3.85,2.8,5.52,4.41c0.62,0.61,1.69,1.22,2.49,1.71
		c0.54,0.33,1,0.79,1.6,1.04c1.97,0.86,3.77,2.14,5.27,3.43c0.65,0.57,1.39,1.15,2.13,1.66c0.72,0.49,1.15,1.2,1.9,1.68
		c0.79,0.52,1.36,1.03,2.29,1.44c0.74,0.33,1.5,0.6,2.29,0.85c0.9,0.29,1.6,0.84,2.53,1.09c3.24,0.9,6.18,2.01,9.17,3.33
		c2.03,0.9,4,1.75,5.87,2.84c1.15,0.67,2.45,1.52,3.77,1.96c0.71,0.24,1.07,0.65,1.67,0.96c0.67,0.36,1.45,0.54,2.11,0.93
		c1.18,0.66,2.95,1.3,4.32,1.73c2.39,0.75,4.48,1.76,6.39,3.09c0.71,0.49,1.14,1.18,1.63,1.81c0.53,0.67,1.24,1.23,1.89,1.84
		c1.07,1.01,2,1.95,3.03,2.99c1.9,1.92,3,4.13,3.91,6.41c0.78,1.95,1.75,3.9,2.01,6.01c0.35,2.87,0.68,5.74,1.03,8.61
		c0.28,2.35,0.56,4.7,0.85,7.05c0.15,1.27,0.42,2.53,0.29,3.8c-0.12,1.19,0.33,2.84-0.24,3.94"/>
	<path class="st2" d="M285.17,183.53c0.45,2.9,2.71,5.51,5.45,7.36c1.64,1.1,2.24,3.48,3.22,4.95c1.32,1.97,1.43,3.89,2.18,6.04
		c4.49,12.85,2.88,26.74,7.67,39.54c0.82,2.19,2.68,4.06,3.5,6.25c1.03,2.76,1.54,5.6,2.63,8.34c0.93,2.37,0.83,5.14,1.13,7.61
		c0.36,3.08,0.74,6.15,1.1,9.22c0.46,3.79,0.9,7.57,1.36,11.36c0.88,7.34,1.95,14.79,4.16,21.94c3.15,10.15,10.17,19.43,18.36,27.59
		c1.9,1.89,3.22,4.22,4.73,6.32c1.45,2.03,2.73,4.04,3.82,6.19c1.45,2.81,3.99,5.85,6.06,8.43c2.03,2.51,4.73,4.62,6.82,7.08
		c0.95,1.1,2.08,2.11,2.92,3.25c0.86,1.17,2.33,1.68,3.36,2.72c1.65,1.66,4.37,3.29,5.05,5.41c0.56,1.7,2.86,3.89,4.04,5.38
		c1.56,1.96,2.71,4.13,4.56,5.95c1.46,1.43,3.07,2.38,4.59,3.75c1.56,1.42,3.35,2.66,5.07,4.01c2.38,1.87,4.95,4.08,7.67,5.62
		c3.4,1.92,5.02,4.61,7.42,7.18c1.17,1.25,1.83,2.47,2.53,3.86c0.68,1.35,2.2,2.51,2.99,3.84"/>
	<path class="st2" d="M407.67,413.36c-44.39,4.42-88.79,8.82-133.2,13.24"/>
	<path class="st2" d="M113.12,129.84c-0.38,0.47-1.42,1.47-1.49,2.05c-0.07,0.63-0.85,1.2-1.06,1.86c-0.51,1.67,0.1,3.52-0.13,5.2
		c-0.28,2.09-0.33,4.05-0.1,6.14c0.21,1.75,0.64,3.5,0.85,5.2c0.38,3.13,0.97,6.25,1.35,9.39c0.1,0.76,0.58,1.25,0.68,2.04
		c0.08,0.73,0.39,1.46,0.49,2.21c0.21,1.75,0.17,3.79,0.92,5.42c0.42,0.9,0.9,1.72,1.15,2.68c0.31,1.13,1.26,2.03,1.46,3.18
		c0.14,0.82,0.83,1.52,0.94,2.43c0.04,0.4,0.46,0.77,0.63,1.16c0.24,0.52,0.49,0.95,0.83,1.43c1.26,1.81,2.61,3.53,3.71,5.39
		c0.99,1.68,1.75,3.32,2.85,4.96c2.53,3.77,3.47,8.1,7.05,11.46c1.04,0.98,2.17,1.96,3.4,2.89c1.38,1.01,2.04,2.37,3.36,3.37"/>
	<path class="st2" d="M111.61,131.96c1.32-2.06,2.18-3.81,4.87-5c2.13-0.95,4.5-2.15,6.93-2.43c3.57-0.4,6.91-0.6,10.45-0.37
		c1.93,0.13,3.91,0.51,5.82,0.76c2.17,0.28,3.82,0.59,5.87,1.25c2.28,0.73,3.7,2.24,5.25,3.61c1.6,1.39,2.86,3.04,4.02,4.66
		c1.1,1.53,2.5,2.93,3.56,4.51c1.49,2.22,2.14,4.84,2.86,7.27c0.49,1.62,1.65,3.03,2.57,4.5c0.76,1.2,1.39,2.6,2.45,3.67
		c0.49,0.49,1.61,1.75,1.7,2.34c0.18,1.49,1.56,2.81,2.25,4.18c1.03,2.01,2.42,3.9,3.46,5.91c1.31,2.56,3.22,5.04,4.2,7.69
		c0.46,1.25,1.39,2.38,1.96,3.61c0.53,1.14,0.93,2.33,1.5,3.46c0.53,1.06,0.62,2.08,0.97,3.17c0.39,1.23,1.21,2.29,1.72,3.47
		c2.49,5.61,5.35,11.23,9.24,16.32c1.08,1.42,2.18,2.67,3.53,3.94c0.71,0.67,1.24,1.53,2.31,1.92c1.43,0.52,2.68,1.86,3.91,2.61
		c1.4,0.87,2.75,1.79,4.17,2.63c2.64,1.58,7.13,1.77,8.96,4.05c1.04,1.29,2.93,2.18,3.96,3.39"/>
	<path class="st3" d="M155.19,179.33c6.02-2.62,12.27-5.22,16.29-9.69c1.43-0.6,1.47,1.38,0.89,1.96c-0.88,0.87-1.65,1.68-2.67,2.42
		c-2.25,1.66-4.96,2.87-7.58,4.28c-1.65,0.89-3.29,1.66-5.14,2.29c-1.29,0.44-3.59,0.75-4.57,1.57c-0.63,0.52-1.75,1.08-2.58,1.4
		c-1.25,0.48-2.36,1.08-3.57,1.6c-2.39,1.01-4.75,1.66-7.32,2.22c-0.88,0.19-1.5,0.47-2.45,0.57l-3.54,0.35
		c-1.82,0.18-3.11-0.72-0.83-1.37c0.76-0.21,1.15-0.46,2-0.57c0.65-0.08,1.39-0.37,2-0.61c0.65-0.25,1.54-0.29,2.24-0.48
		c0.85-0.23,1.67-0.56,2.47-0.87c0.93-0.35,2.04-0.37,2.95-0.74c1.19-0.47,2.36-0.95,3.64-1.25
		C150.1,181.77,152.73,180.4,155.19,179.33z"/>
	<path class="st3" d="M164.03,163.96c1.64-0.16,3.18,0.15,4.81,0.01c-1.38,0.8-2.57,1.57-4.21,1.73l-2.24,0.23
		c-0.99,0.1-2.18,0.76-3.14,1.05c-1.06,0.33-2.21,0.58-3.22,0.94c-0.4,0.14-0.64,0.47-1.07,0.56c-0.5,0.1-0.96,0.11-1.44,0.28
		c-1.93,0.66-3.79,1.32-5.6,2.17c-1.81,0.85-4.34,1.81-5.52,3.16c-0.92,1.05-1.9,2.21-3.36,2.9c-4.13,1.91-8.1,3.93-11.62,6.32
		c-0.15,0.1-1.32,0.62-1.47,0.33c-0.18-0.35,0.18-0.95,0.32-1.29c0.35-0.89,2.38-2.19,3.35-2.46c0.83-0.23,2.16-1.14,2.85-1.58
		c0.71-0.46,1.5-0.87,2.2-1.33c0.6-0.39,1.45-0.97,1.88-1.44c0.44-0.48,1.38-0.76,1.93-1.19c3.96-3.06,8.47-5.76,12.98-8.34
		c2.11-1.2,4.95-1.27,7.42-1.51L164.03,163.96z"/>
	<path class="st4" d="M135.8,191.29c2.35-0.23,5.34-0.17,7.55-0.91c2.39-0.81,4.78-1.82,7.21-2.52c1.56-0.44,2.96-1.22,4.39-1.85
		c2.1-0.92,4.35-1.57,6.52-2.38c1.43-0.53,3.14-1.25,4.41-2.01c1.2-0.72,3.25-1.24,3.92-2.37c0.29-0.49,0.67-0.43,1.22-0.72
		c0.42-0.22,0.62-0.79,0.83-1.11c0.43-0.65,0.57-1.14,0.78-1.81"/>
	<path class="st5" d="M112.05,139.2c-0.38-8.56,5.96-10.51,7.62-11.33c0.99-0.1,13.61-3.33,20.14-1.76
		c0.99,0.75,2.03,1.43,2.99,2.18c0.99,0.77,2.49,1.94,2.88,3c0.24,0.65,0.97,1.21,1.38,1.82c0.26,0.39,0.86,0.92,0.97,1.34
		c0.83,3.08,3.35,5.58,2.18,8.95c-0.6,1.73-1.49,3.66-3.06,5.08c-0.53,0.48-1.42,0.73-1.99,1.23c-0.78,0.66-1.92,1.01-2.67,1.62
		c-0.95,0.77-2.1,1.19-3.13,1.89c-1,0.68-2.5,1.09-3.38,1.85c-1.83,1.61-4.42,1.74-7.02,1.68c-2.25-0.05-4.57,0.04-6.8-0.24
		c-2.31-0.29-3.63-2.52-4.35-4c-0.38-0.76-1.01-1.51-1.47-2.25c-0.53-0.85-0.75-1.8-1.29-2.62c-0.68-1.05-1.27-2.16-1.71-3.29
		c-0.24-0.61-0.74-1.32-0.89-1.91C112.17,141.38,112.17,140.26,112.05,139.2z"/>
	<path class="st6" d="M148.06,145.79c1.61-0.17-7.06,6.1-9.62,7.12c0.08,0.04-9.97,6.32-17.24,2.47c0.72-1.29,3.64-2.01,4.11-2.62
		c1.43-1.82,2.31-3.68,4.63-4.84c2.57-1.28,2.52-0.91,4.96-2.47C144.92,141.5,147.47,140.91,148.06,145.79z"/>
	<path class="st2" d="M138.41,152.92c2.52-0.98,11.26-7.28,9.65-7.13c-0.58-4.89-3.14-4.29-13.16-0.34
		c-2.43,1.56-2.38,1.19-4.96,2.47c-2.31,1.15-3.2,3-4.63,4.84c-0.47,0.61-3.39,1.33-4.11,2.62
		C128.68,159.34,139.11,152.56,138.41,152.92z"/>
	<path class="st7" d="M120.51,155.89c-0.01,0.08-0.06,0.14-0.1,0.19C120.41,156.03,120.44,155.98,120.51,155.89
		c0.58-2.28-11.63-17.16-6.92-20.17c1.53,1.77,8.23,4.44,9.3,6.41c0.47,0.86,1.38,1.52,2.07,2.28c0.46,0.49,1.17,1,1.75,1.47
		c0.56,0.44,1.18,1.7,1.53,2.24C129.16,149.19,121.5,154.7,120.51,155.89z"/>
	<path class="st2" d="M120.41,156.07c1.51-1.47-11.69-17.24-6.81-20.36c1.53,1.77,8.23,4.44,9.3,6.41c0.47,0.86,1.38,1.52,2.07,2.28
		c0.46,0.49,1.17,1,1.75,1.47c0.56,0.44,1.18,1.7,1.53,2.24C129.22,149.27,120.34,155.51,120.41,156.07z"/>
	<path class="st2" d="M60.12,150.95c-0.72,1.29-5.03,9.14-6.56,9.99c-0.78,0.44-1.35,1.01-2.2,1.35c-0.93,0.38-1.51,1.15-2.39,1.56
		c-1.38,0.62-2.54,1.65-3.84,2.39c-0.88,0.51-1.71,1.41-2.28,2.11c-0.53,0.66-1.47,1.1-2,1.77c-1.57,1.98-2.85,4.6-0.93,6.58
		c1.01,1.05,2.7,2.12,3.46,3.31c0.71,1.11,1.18,2.13,2.18,3.16c2.13,2.19,4.14,4.96,8.4,3.75c2.7-0.77,22.67-2.18,25.05-3.47"/>
	<path class="st2" d="M51.08,162.79c-0.43,0.57-0.88,1-1.11,1.62c-0.15,0.4,0.01,0.8-0.07,1.2c-0.13,0.6-0.26,1.32-0.5,1.9
		c-0.39,0.92-1.58,2.93-3.14,3.1c-0.61,0.08-1.45,0.91-1.78,1.25c-0.63,0.65-1.46,1.03-2.18,1.6c-0.78,0.62-1.31,1.09-1.4,1.95
		c-0.06,0.48-0.47,1.14-0.17,1.46"/>
	<path class="st2" d="M90.82,198.57c-1.26,0.61-15.65,9.56-17.12,9.82"/>
	<path class="st2" d="M54.99,160.83c0.39,1.15,0.95,2.01,0.99,3.24c0.06,1.42-1.13,2.37-2.1,3.49c-1.79,2.1-3.49,4.22-5.23,6.37
		c-1.33,1.66-1.51,3.75-2.14,5.6c-0.51,1.51-0.72,2.98-0.65,4.57"/>
	<path class="st2" d="M74.55,208.05c-1.72,1.05-2.06,2.05-2.86,3.53c-0.19,0.34-0.21,0.7-0.4,1.05c-0.24,0.44-0.28,1-0.57,1.42
		c-0.36,0.51-0.39,1.09-0.36,1.65c0.03,0.56-0.39,1.03-0.36,1.53c0.07,1.58-0.65,3.15-1.26,4.62c-0.63,1.49-2,2.8-2.93,4.22
		c-0.97,1.48-2.63,2.68-3.63,4.16c-1.01,1.51-3.11,2.51-3.67,4.29c-0.35,1.13-0.15,3.49,0.85,4.33c1.68,1.42,2.54,3.01,4.77,4.03
		c0.54,0.24,1.25,0.56,1.86,0.7c0.68,0.15,1.14,0.4,1.74,0.58c1.17,0.34,2.02,0.44,3.29,0.4c2.29-0.08,4.57-0.15,6.87-0.23
		c1.28-0.04,2.5-0.32,3.57-0.84c1.28-0.61,2.6-1.04,3.93-1.53c1.82-0.67,2.95-1.96,4.43-2.95c0.86-0.57,2.14-1.06,2.67-1.89
		c0.47-0.73,1.24-1.56,1.39-2.35c0.11-0.58,1.42-1.23,1.82-1.82c0.5-0.72,1.15-1.32,1.81-1.99c1.1-1.14,2.1-2.46,3.38-3.54
		c1.21-1.02,1.85-2.13,1.14-3.54"/>
	<path class="st2" d="M91.34,209.55c-0.43,1.1-0.72,2.09-0.99,3.19c-0.22,0.92-0.92,1.85-0.92,2.77c0,1.03-0.42,2.31-0.67,3.34
		c-0.29,1.22-1.15,2.32-1.72,3.46c-0.39,0.77-0.54,1.68-0.99,2.41c-0.33,0.54-0.95,0.94-1.43,1.42c-0.46,0.44-0.86,1.08-1.1,1.61
		c-0.21,0.44-0.74,0.85-0.81,1.33c-0.08,0.66-0.06,1.62-0.44,2.23c-0.4,0.63-1.04,1.32-1.58,1.9c-0.65,0.7-1.77,0.9-2.64,1.37
		c-0.93,0.49-1.7,1.1-2.84,1.34c-1.46,0.32-2.77,1.03-4.18,1.3c-1.79,0.35-4.49,1.14-5.8,2.19c-1.13,0.9-0.67,2.32-0.63,3.44"/>
	<path class="st2" d="M59.44,237.28c-0.01-1.73,0.67-2.89,2.74-3.72c1.15-0.47,2.57-0.91,3.84-1.13c1.96-0.33,4.48-1.73,5.52-3.06
		c0.42-0.53,1.54-3.15,0.51-3.63c-0.79-0.37-0.64-1.16-1.04-1.67c-0.32-0.4-0.47-1.46-1.01-1.63"/>
	<path class="st2" d="M62.38,230.63c1.54,0.17,3.18,0.19,4.55,0.8"/>
</g>
</svg>
