<?xml version="1.0" encoding="utf-8"?>
<!-- Generator: Adobe Illustrator 24.3.0, SVG Export Plug-In . SVG Version: 6.00 Build 0)  -->
<svg version="1.1" id="Capa_1" xmlns="http://www.w3.org/2000/svg" xmlns:xlink="http://www.w3.org/1999/xlink" x="0px" y="0px"
	 viewBox="0 0 223.94 411.02" style="enable-background:new 0 0 223.94 411.02;" xml:space="preserve">
<style type="text/css">
	.st0{fill:url(#SVGID_1_);}
	.st1{fill:url(#SVGID_2_);}
	.st2{fill:url(#SVGID_3_);}
	.st3{fill:url(#SVGID_4_);}
	.st4{fill:url(#SVGID_5_);}
	.st5{fill:url(#SVGID_6_);}
	.st6{fill:url(#SVGID_7_);}
	.st7{fill:url(#SVGID_8_);}
	.st8{fill:url(#SVGID_9_);}
	.st9{fill:url(#SVGID_10_);}
	.st10{fill:url(#SVGID_11_);}
	.st11{fill:url(#SVGID_12_);}
	.st12{fill:url(#SVGID_13_);}
	.st13{fill:url(#SVGID_14_);}
	.st14{fill:url(#SVGID_15_);}
	.st15{fill:url(#SVGID_16_);}
	.st16{fill:url(#SVGID_17_);}
	.st17{fill:url(#SVGID_18_);}
	.st18{fill:url(#SVGID_19_);}
	.st19{fill:url(#SVGID_20_);}
	.st20{fill:url(#SVGID_21_);}
	.st21{fill:url(#SVGID_22_);}
	.st22{fill:url(#SVGID_23_);}
	.st23{fill:url(#SVGID_24_);}
	.st24{fill:url(#SVGID_25_);}
</style>
<g>
	
		<linearGradient id="SVGID_1_" gradientUnits="userSpaceOnUse" x1="424.5802" y1="159.0519" x2="424.5802" y2="-19.3012" gradientTransform="matrix(1 0 0 -1 -296.7874 192.9606)">
		<stop  offset="0" style="stop-color:#7B9A63"/>
		<stop  offset="1" style="stop-color:#7B9A63;stop-opacity:0"/>
	</linearGradient>
	<path class="st0" d="M111.97,33.2l13.32,59.69v33.4l18.32,93.08l-24.15,14.21l5.83-30.55l-5.83-23.45L111.97,33.2z"/>
	
		<linearGradient id="SVGID_2_" gradientUnits="userSpaceOnUse" x1="361.2929" y1="149.8145" x2="361.2929" y2="-28.5392" gradientTransform="matrix(1 0 0 -1 -296.7874 192.9606)">
		<stop  offset="0" style="stop-color:#7B9A63"/>
		<stop  offset="1" style="stop-color:#7B9A63;stop-opacity:0"/>
	</linearGradient>
	<path class="st1" d="M48.68,42.44l13.32,59.69v33.4l18.32,93.08l-24.15,14.21l5.83-30.55l-5.83-23.45L48.68,42.44z"/>
	
		<linearGradient id="SVGID_3_" gradientUnits="userSpaceOnUse" x1="329.6492" y1="149.8145" x2="329.6492" y2="-28.5392" gradientTransform="matrix(1 0 0 -1 -296.7874 192.9606)">
		<stop  offset="0" style="stop-color:#7B9A63"/>
		<stop  offset="1" style="stop-color:#7B9A63;stop-opacity:0"/>
	</linearGradient>
	<path class="st2" d="M17.04,42.44l13.32,59.69v33.4l18.32,93.08l-24.15,14.21l5.83-30.55l-5.83-23.45L17.04,42.44z"/>
	
		<linearGradient id="SVGID_4_" gradientUnits="userSpaceOnUse" x1="457.3014" y1="92.3935" x2="439.1204" y2="-45.8901" gradientTransform="matrix(1 0 0 -1 -296.7874 192.9606)">
		<stop  offset="0" style="stop-color:#7B9A63"/>
		<stop  offset="1" style="stop-color:#7B9A63;stop-opacity:0"/>
	</linearGradient>
	<path class="st3" d="M157.81,99.65l1.04,47.21l-5.84,25.57l-0.49,73.36l-23.27,8.15l10.36-22.74l-0.92-18.62L157.81,99.65z"/>
	
		<linearGradient id="SVGID_5_" gradientUnits="userSpaceOnUse" x1="419.4196" y1="75.0077" x2="417.2066" y2="-64.0073" gradientTransform="matrix(1 0 0 -1 -296.7874 192.9606)">
		<stop  offset="0" style="stop-color:#7B9A63"/>
		<stop  offset="1" style="stop-color:#7B9A63;stop-opacity:0"/>
	</linearGradient>
	<path class="st4" d="M131.33,117.54l-8.87,46.39l0.61,26.05l-11.99,72.38l18.33,11.37l-4.92-23.9l3.93-18.22L131.33,117.54z"/>
	
		<linearGradient id="SVGID_6_" gradientUnits="userSpaceOnUse" x1="349.0933" y1="28.3089" x2="371.1851" y2="-38.4341" gradientTransform="matrix(1 0 0 -1 -296.7874 192.9606)">
		<stop  offset="0" style="stop-color:#7B9A63"/>
		<stop  offset="1" style="stop-color:#7B9A63;stop-opacity:0"/>
	</linearGradient>
	<path class="st5" d="M53.72,163.89l1.99,24.12l6.17,11.82l4.78,37.07l19-0.39l-9.6-9.51l-0.38-9.61L53.72,163.89z"/>
	
		<linearGradient id="SVGID_7_" gradientUnits="userSpaceOnUse" x1="450.8152" y1="157.6308" x2="450.8152" y2="-20.7232" gradientTransform="matrix(1 0 0 -1 -296.7874 192.9606)">
		<stop  offset="0" style="stop-color:#7B9A63"/>
		<stop  offset="1" style="stop-color:#7B9A63;stop-opacity:0"/>
	</linearGradient>
	<path class="st6" d="M142.37,12.59l4.58,20.61l5.41,11.01l13.32,172.31l-13.32,2.13v-10.3v-41.21l-5.41-62.53L142.37,12.59z"/>
	
		<linearGradient id="SVGID_8_" gradientUnits="userSpaceOnUse" x1="387.5283" y1="148.3933" x2="387.5283" y2="-29.9602" gradientTransform="matrix(1 0 0 -1 -296.7874 192.9606)">
		<stop  offset="0" style="stop-color:#7B9A63"/>
		<stop  offset="1" style="stop-color:#7B9A63;stop-opacity:0"/>
	</linearGradient>
	<path class="st7" d="M79.08,21.83l4.58,20.61l5.41,11.01l13.32,172.31l-13.32,2.13v-10.3v-41.21l-5.41-62.53L79.08,21.83z"/>
	
		<linearGradient id="SVGID_9_" gradientUnits="userSpaceOnUse" x1="355.8845" y1="148.3933" x2="355.8845" y2="-29.9602" gradientTransform="matrix(1 0 0 -1 -296.7874 192.9606)">
		<stop  offset="0" style="stop-color:#7B9A63"/>
		<stop  offset="1" style="stop-color:#7B9A63;stop-opacity:0"/>
	</linearGradient>
	<path class="st8" d="M47.44,21.83l4.58,20.61l5.41,11.01l13.32,172.31l-13.32,2.13v-10.3v-41.21l-5.41-62.53L47.44,21.83z"/>
	
		<linearGradient id="SVGID_10_" gradientUnits="userSpaceOnUse" x1="481.9995" y1="88.0257" x2="463.8195" y2="-50.2583" gradientTransform="matrix(1 0 0 -1 -296.7874 192.9606)">
		<stop  offset="0" style="stop-color:#7B9A63"/>
		<stop  offset="1" style="stop-color:#7B9A63;stop-opacity:0"/>
	</linearGradient>
	<path class="st9" d="M187.58,87.31l0.34,16.3l2.74,9.05l-18.64,133.46l-11.84,0.12l1.8-7.89l7.2-31.56l6.27-48.5L187.58,87.31z"/>
	
		<linearGradient id="SVGID_11_" gradientUnits="userSpaceOnUse" x1="399.1326" y1="74.2233" x2="396.9206" y2="-64.7927" gradientTransform="matrix(1 0 0 -1 -296.7874 192.9606)">
		<stop  offset="0" style="stop-color:#7B9A63"/>
		<stop  offset="1" style="stop-color:#7B9A63;stop-opacity:0"/>
	</linearGradient>
	<path class="st10" d="M108.21,101.1l-3.05,16.02l-3.85,8.53l-6.8,134.23l10.01,1.82l-0.19-8.03l-0.76-32.14l2.9-48.71L108.21,101.1
		z"/>
	
		<linearGradient id="SVGID_12_" gradientUnits="userSpaceOnUse" x1="329.364" y1="21.1886" x2="351.456" y2="-45.5544" gradientTransform="matrix(1 0 0 -1 -296.7874 192.9606)">
		<stop  offset="0" style="stop-color:#7B9A63"/>
		<stop  offset="1" style="stop-color:#7B9A63;stop-opacity:0"/>
	</linearGradient>
	<path class="st11" d="M29.3,163.42l0.7,8.32l-1.64,5.11l22.8,64l9.43-2.24l-1.9-3.65l-7.61-14.59l-7.88-23.35L29.3,163.42z"/>
	
		<linearGradient id="SVGID_13_" gradientUnits="userSpaceOnUse" x1="441.5587" y1="93.6793" x2="441.5587" y2="-84.6742" gradientTransform="matrix(1 0 0 -1 -296.7874 192.9606)">
		<stop  offset="0" style="stop-color:#7B9A63"/>
		<stop  offset="1" style="stop-color:#7B9A63;stop-opacity:0"/>
	</linearGradient>
	<path class="st12" d="M133.11,63.4l-4.16-62.89l16.65,101.97l14.99,136.08h-31.64l8.74-99.48L133.11,63.4z"/>
	
		<linearGradient id="SVGID_14_" gradientUnits="userSpaceOnUse" x1="378.2716" y1="84.4418" x2="378.2716" y2="-93.9122" gradientTransform="matrix(1 0 0 -1 -296.7874 192.9606)">
		<stop  offset="0" style="stop-color:#7B9A63"/>
		<stop  offset="1" style="stop-color:#7B9A63;stop-opacity:0"/>
	</linearGradient>
	<path class="st13" d="M69.83,72.63L65.66,9.75l16.65,101.97l14.99,136.07H65.66l8.74-99.48L69.83,72.63z"/>
	
		<linearGradient id="SVGID_15_" gradientUnits="userSpaceOnUse" x1="346.628" y1="84.4418" x2="346.628" y2="-93.9122" gradientTransform="matrix(1 0 0 -1 -296.7874 192.9606)">
		<stop  offset="0" style="stop-color:#7B9A63"/>
		<stop  offset="1" style="stop-color:#7B9A63;stop-opacity:0"/>
	</linearGradient>
	<path class="st14" d="M38.18,72.63L34.02,9.75l16.65,101.97l14.99,136.07H34.02l8.74-99.48L38.18,72.63z"/>
	
		<linearGradient id="SVGID_16_" gradientUnits="userSpaceOnUse" x1="461.1471" y1="40.3264" x2="442.967" y2="-97.9576" gradientTransform="matrix(1 0 0 -1 -296.7874 192.9606)">
		<stop  offset="0" style="stop-color:#7B9A63"/>
		<stop  offset="1" style="stop-color:#7B9A63;stop-opacity:0"/>
	</linearGradient>
	<path class="st15" d="M170.73,125.17l7.4-48.63l-3.48,79.97l-10.87,105.9l-27.24-3.58l24.91-75.19L170.73,125.17z"/>
	
		<linearGradient id="SVGID_17_" gradientUnits="userSpaceOnUse" x1="409.0823" y1="24.2061" x2="406.8693" y2="-114.8099" gradientTransform="matrix(1 0 0 -1 -296.7874 192.9606)">
		<stop  offset="0" style="stop-color:#7B9A63"/>
		<stop  offset="1" style="stop-color:#7B9A63;stop-opacity:0"/>
	</linearGradient>
	<path class="st16" d="M116.07,140.84l1.96-49l-10.58,79.33l-8.71,105.95l23.67,0.38l-8.37-77.69L116.07,140.84z"/>
	
		<linearGradient id="SVGID_18_" gradientUnits="userSpaceOnUse" x1="348.9549" y1="1.1193" x2="371.0468" y2="-65.6227" gradientTransform="matrix(1 0 0 -1 -296.7874 192.9606)">
		<stop  offset="0" style="stop-color:#7B9A63"/>
		<stop  offset="1" style="stop-color:#7B9A63;stop-opacity:0"/>
	</linearGradient>
	<path class="st17" d="M44.96,179.33l-8.8-23.2l7.55,39.84l14.98,51.54l21.46-7.1l-24.31-33.26L44.96,179.33z"/>
	
		<linearGradient id="SVGID_19_" gradientUnits="userSpaceOnUse" x1="467.0492" y1="157.6308" x2="467.0492" y2="-20.7232" gradientTransform="matrix(1 0 0 -1 -296.7874 192.9606)">
		<stop  offset="0" style="stop-color:#7B9A63"/>
		<stop  offset="1" style="stop-color:#7B9A63;stop-opacity:0"/>
	</linearGradient>
	<path class="st18" d="M154.44,35.33l14.99-21.67L181.5,3l-9.58,21.32l-4.58,29.13l7.49,61.46v50.81l11.24,47.96l-26.23,2.13v-20.25
		v-67.5L154.44,35.33z"/>
	
		<linearGradient id="SVGID_20_" gradientUnits="userSpaceOnUse" x1="403.762" y1="148.3933" x2="403.762" y2="-29.9602" gradientTransform="matrix(1 0 0 -1 -296.7874 192.9606)">
		<stop  offset="0" style="stop-color:#7B9A63"/>
		<stop  offset="1" style="stop-color:#7B9A63;stop-opacity:0"/>
	</linearGradient>
	<path class="st19" d="M91.15,44.57l14.99-21.67l12.07-10.66l-9.58,21.32l-4.58,29.13l7.49,61.47v50.81l11.24,47.96l-26.23,2.13
		V204.8v-67.5L91.15,44.57z"/>
	
		<linearGradient id="SVGID_21_" gradientUnits="userSpaceOnUse" x1="372.1183" y1="148.3933" x2="372.1183" y2="-29.9602" gradientTransform="matrix(1 0 0 -1 -296.7874 192.9606)">
		<stop  offset="0" style="stop-color:#7B9A63"/>
		<stop  offset="1" style="stop-color:#7B9A63;stop-opacity:0"/>
	</linearGradient>
	<path class="st20" d="M59.51,44.57L74.5,22.89l12.07-10.66L77,33.55l-4.58,29.13l7.49,61.47v50.81l11.24,47.96l-26.23,2.13V204.8
		v-67.5L59.51,44.57z"/>
	
		<linearGradient id="SVGID_22_" gradientUnits="userSpaceOnUse" x1="499.3701" y1="85.7417" x2="481.1901" y2="-52.5423" gradientTransform="matrix(1 0 0 -1 -296.7874 192.9606)">
		<stop  offset="0" style="stop-color:#7B9A63"/>
		<stop  offset="1" style="stop-color:#7B9A63;stop-opacity:0"/>
	</linearGradient>
	<path class="st21" d="M194,106.09l16.69-14.9l12.26-6.8l-11.97,15.24l-9.03,21.79l-4.29,47.92l-8.88,38.9l1.3,38l-22.95-1.34
		l3.54-15.51l11.79-51.69L194,106.09z"/>
	
		<linearGradient id="SVGID_23_" gradientUnits="userSpaceOnUse" x1="386.5182" y1="74.4235" x2="384.3055" y2="-64.5925" gradientTransform="matrix(1 0 0 -1 -296.7874 192.9606)">
		<stop  offset="0" style="stop-color:#7B9A63"/>
		<stop  offset="1" style="stop-color:#7B9A63;stop-opacity:0"/>
	</linearGradient>
	<path class="st22" d="M99.6,118.69l-11.61-17.08l-9.23-8.46l7.56,16.74l3.96,22.78l-4.48,47.85l0.93,39.62l-7.53,37.27l19.66,1.98
		l-0.37-15.79l-1.24-52.65L99.6,118.69z"/>
	
		<linearGradient id="SVGID_24_" gradientUnits="userSpaceOnUse" x1="315.6042" y1="16.6344" x2="337.696" y2="-50.1086" gradientTransform="matrix(1 0 0 -1 -296.7874 192.9606)">
		<stop  offset="0" style="stop-color:#7B9A63"/>
		<stop  offset="1" style="stop-color:#7B9A63;stop-opacity:0"/>
	</linearGradient>
	<path class="st23" d="M25.32,174.18l-14.17-4.31L0.99,168.8l10.43,5.4l8.49,9.29l6.27,23.44l9.39,17.99l1.24,19.5l18.18-5.13
		l-3.74-7.17l-12.47-23.9L25.32,174.18z"/>
	
		<linearGradient id="SVGID_25_" gradientUnits="userSpaceOnUse" x1="411.2564" y1="-16.4592" x2="411.2564" y2="-217.5512" gradientTransform="matrix(1 0 0 -1 -296.7874 192.9606)">
		<stop  offset="0" style="stop-color:#A57AA0"/>
		<stop  offset="1" style="stop-color:#2F052A"/>
	</linearGradient>
	<path class="st24" d="M24.53,209.42H204.4l-34.14,201.09H58.68L24.53,209.42z"/>
</g>
</svg>
