<?xml version="1.0" encoding="utf-8"?>
<!-- Generator: Adobe Illustrator 24.3.0, SVG Export Plug-In . SVG Version: 6.00 Build 0)  -->
<svg version="1.1" id="Capa_1" xmlns="http://www.w3.org/2000/svg" xmlns:xlink="http://www.w3.org/1999/xlink" x="0px" y="0px"
	 viewBox="0 0 198.43 170.08" style="enable-background:new 0 0 198.43 170.08;" xml:space="preserve">
<style type="text/css">
	.st0{fill:url(#SVGID_1_);}
	.st1{opacity:0.5;fill:url(#SVGID_2_);enable-background:new    ;}
	.st2{fill:#F6E248;fill-opacity:0.96;}
	.st3{fill:#686868;}
	.st4{fill:#C5428A;}
	.st5{fill:#FFFFFF;}
	.st6{fill:#FFFFFF;fill-opacity:0.62;}
	.st7{fill:#F6E248;fill-opacity:0.87;}
</style>
<g>
	
		<linearGradient id="SVGID_1_" gradientUnits="userSpaceOnUse" x1="2.3829" y1="99.6783" x2="157.9425" y2="53.6593" gradientTransform="matrix(1 0 0 -1 24.9449 162.3622)">
		<stop  offset="0" style="stop-color:#9FACD2"/>
		<stop  offset="1" style="stop-color:#48499F;stop-opacity:0.7"/>
	</linearGradient>
	<path class="st0" d="M17.69,136.26c0-25.4,17.69-56.55,39.51-69.57l94.54-56.39c21.82-13.01,39.51-2.97,39.51,22.43V66.7
		c0,8.66-3.53,18.91-9.52,27.63l-9.46,13.77c-0.04,0.05-0.06,0.11-0.06,0.16c0,0.19,0.24,0.08,0.27-0.13l2.65-17.54
		c0.18-1.22-0.58-1.77-1.55-1.12l-30.28,20.46l-86.34,50.91c-21.73,12.81-39.27,2.73-39.27-22.57V136.26z"/>
	
		<linearGradient id="SVGID_2_" gradientUnits="userSpaceOnUse" x1="36.9554" y1="-5.5424" x2="240.5354" y2="-90.6962" gradientTransform="matrix(0.8588 -0.5123 0 -1 -20.3781 105.2882)">
		<stop  offset="0" style="stop-color:#48499F;stop-opacity:0.63"/>
		<stop  offset="1" style="stop-color:#6675B5;stop-opacity:0.57"/>
	</linearGradient>
	<path class="st1" d="M50.74,63.74l94.54-56.39c21.82-13.02,39.51-2.97,39.51,22.43v1.74c0,25.41-17.69,56.55-39.51,69.57
		l-94.54,56.39c-21.82,13.01-39.51,2.97-39.51-22.43v-1.74C11.24,107.9,28.93,76.76,50.74,63.74z"/>
	<path class="st2" d="M33.46,91.69l40.39-24.09c1.38-0.83,2.5-0.19,2.5,1.42v0c0,1.61-1.12,3.59-2.5,4.41L33.46,97.52
		c-1.38,0.83-2.5,0.19-2.5-1.42v0C30.96,94.48,32.08,92.51,33.46,91.69z"/>
	<path class="st3" d="M33.46,107.93l116.86-69.71c1.38-0.83,2.5-0.19,2.5,1.42v0c0,1.61-1.12,3.59-2.5,4.41L33.46,113.76
		c-1.38,0.83-2.5,0.19-2.5-1.42v0C30.96,110.73,32.08,108.76,33.46,107.93z"/>
	<path class="st4" d="M33.46,143.76l79.15-47.21c1.38-0.83,2.5-0.19,2.5,1.42v0c0,1.61-1.12,3.59-2.5,4.41l-79.15,47.21
		c-1.38,0.83-2.5,0.19-2.5-1.42l0,0C30.96,146.56,32.08,144.59,33.46,143.76z"/>
	<path class="st5" d="M33.46,125.85l81.59-48.67c1.38-0.83,2.5-0.19,2.5,1.42v0c0,1.61-1.12,3.59-2.5,4.41l-81.59,48.67
		c-1.38,0.83-2.5,0.19-2.5-1.42l0,0C30.96,128.65,32.08,126.67,33.46,125.85z"/>
	<path class="st6" d="M136.83,82.1l40.04-23.88c1.38-0.83,2.5-0.19,2.5,1.42v0c0,1.61-1.12,3.59-2.5,4.41l-40.04,23.88
		c-1.38,0.83-2.5,0.19-2.5-1.42v0C134.32,84.9,135.44,82.93,136.83,82.1z"/>
	<path class="st7" d="M147.65,90.23l18.39-10.97c1.38-0.83,2.5-0.19,2.5,1.42v0c0,1.61-1.12,3.59-2.5,4.41l-18.39,10.97
		c-1.38,0.83-2.5,0.19-2.5-1.42v0C145.15,93.03,146.27,91.05,147.65,90.23z"/>
</g>
</svg>
