<?xml version="1.0" encoding="utf-8"?>
<!-- Generator: Adobe Illustrator 24.3.0, SVG Export Plug-In . SVG Version: 6.00 Build 0)  -->
<svg version="1.1" id="Capa_1" xmlns="http://www.w3.org/2000/svg" xmlns:xlink="http://www.w3.org/1999/xlink" x="0px" y="0px"
	 viewBox="0 0 263.62 164.41" style="enable-background:new 0 0 263.62 164.41;" xml:space="preserve">
<style type="text/css">
	.st0{fill:url(#SVGID_1_);}
	.st1{opacity:0.5;fill:url(#SVGID_2_);enable-background:new    ;}
	.st2{fill:#F6E248;fill-opacity:0.96;}
	.st3{fill:#686868;}
	.st4{fill:#C5428A;}
	.st5{fill:#FFFFFF;}
	.st6{fill:#FFFFFF;fill-opacity:0.62;}
	.st7{fill:#F6E248;fill-opacity:0.87;}
</style>
<linearGradient id="SVGID_1_" gradientUnits="userSpaceOnUse" x1="273.4846" y1="-82.6993" x2="530.5627" y2="-186.5713" gradientTransform="matrix(1 0 0 -1 -264.189 -58.2047)">
	<stop  offset="0" style="stop-color:#F9C5AD;stop-opacity:0.76"/>
	<stop  offset="1" style="stop-color:#F9C5AD;stop-opacity:0.76"/>
</linearGradient>
<path class="st0" d="M12.37,56.41c0-25.41,16.16-45.37,36.1-44.6l176.55,6.84c19.94,0.77,36.1,21.99,36.1,47.4V121
	c0,12.64-5.17,24.16-13.64,30.4l-13.55,9.99c-0.06,0.04-0.09,0.12-0.09,0.21c0,0.29,0.33,0.35,0.38,0.07l3.7-19.96
	c0.32-1.7-0.75-3.36-2.13-3.32l-43.38,1.42L48.3,133.34c-19.87-0.89-35.93-22.07-35.93-47.39V56.41z"/>
<linearGradient id="SVGID_2_" gradientUnits="userSpaceOnUse" x1="350.8687" y1="104.1574" x2="649.3438" y2="-47.1373" gradientTransform="matrix(0.7848 0.0304 0 -1 -263.9738 80.7339)">
	<stop  offset="0" style="stop-color:#F6E248;stop-opacity:0.87"/>
	<stop  offset="1" style="stop-color:#6675B5;stop-opacity:0.57"/>
</linearGradient>
<path class="st1" d="M39.23,2.64l176.55,6.83c19.94,0.77,36.1,21.99,36.1,47.4v29.32c0,25.41-16.16,45.37-36.1,44.6l-176.55-6.83
	c-19.94-0.77-36.1-21.99-36.1-47.4V47.24C3.13,21.84,19.29,1.87,39.23,2.64z"/>
<path class="st2" d="M34.35,25.28l59.14,2.29c1.64,0.06,2.96,1.8,2.96,3.89l0,0c0,2.08-1.33,3.72-2.96,3.66l-59.14-2.29
	c-1.64-0.06-2.96-1.8-2.96-3.89l0,0C31.39,26.85,32.72,25.21,34.35,25.28z"/>
<path class="st3" d="M34.35,46.31l168.75,6.53c1.64,0.06,2.96,1.8,2.96,3.89l0,0c0,2.08-1.33,3.72-2.96,3.66L34.35,53.85
	c-1.64-0.06-2.96-1.8-2.96-3.89l0,0C31.39,47.88,32.72,46.24,34.35,46.31z"/>
<path class="st4" d="M34.35,92.68l114.7,4.44c1.64,0.06,2.96,1.8,2.96,3.89l0,0c0,2.08-1.33,3.72-2.96,3.66l-114.7-4.44
	c-1.64-0.06-2.96-1.8-2.96-3.89l0,0C31.39,94.25,32.72,92.61,34.35,92.68z"/>
<path class="st5" d="M34.35,69.49l118.2,4.58c1.64,0.06,2.96,1.8,2.96,3.89l0,0c0,2.08-1.33,3.72-2.96,3.66l-118.2-4.58
	c-1.64-0.06-2.96-1.8-2.96-3.89l0,0C31.39,71.07,32.72,69.43,34.35,69.49z"/>
<path class="st6" d="M182.51,98.41l58.64,2.27c1.64,0.06,2.96,1.8,2.96,3.89l0,0c0,2.08-1.33,3.72-2.96,3.66l-58.64-2.27
	c-1.64-0.06-2.96-1.8-2.96-3.89l0,0C179.54,99.99,180.87,98.35,182.51,98.41z"/>
<path class="st7" d="M198.02,117.88l27.61,1.07c1.64,0.06,2.96,1.8,2.96,3.89l0,0c0,2.08-1.33,3.72-2.96,3.66l-27.61-1.07
	c-1.64-0.06-2.96-1.8-2.96-3.89l0,0C195.06,119.46,196.39,117.82,198.02,117.88z"/>
</svg>
