<?xml version="1.0" encoding="utf-8"?>
<!-- Generator: Adobe Illustrator 24.3.0, SVG Export Plug-In . SVG Version: 6.00 Build 0)  -->
<svg version="1.1" id="Capa_1" xmlns="http://www.w3.org/2000/svg" xmlns:xlink="http://www.w3.org/1999/xlink" x="0px" y="0px"
	 viewBox="0 0 17.01 17.01" style="enable-background:new 0 0 17.01 17.01;" xml:space="preserve">
<style type="text/css">
	.st0{fill:#F68319;}
</style>
<path class="st0" d="M6.06,16.6c-0.16,0-0.31-0.04-0.45-0.12c-0.14-0.08-0.27-0.19-0.38-0.34l-4.54-5.99
	c-0.11-0.14-0.2-0.32-0.26-0.51c-0.06-0.19-0.09-0.39-0.09-0.6s0.03-0.41,0.09-0.6c0.06-0.19,0.15-0.36,0.26-0.51
	C0.79,7.8,0.92,7.68,1.07,7.61c0.14-0.08,0.3-0.12,0.45-0.12c0.16,0,0.31,0.04,0.45,0.12c0.14,0.08,0.27,0.2,0.38,0.34l3.7,4.89
	l8.81-11.62c0.22-0.29,0.52-0.45,0.84-0.45c0.31,0,0.61,0.16,0.83,0.46c0.22,0.29,0.35,0.69,0.35,1.1c0,0.41-0.12,0.81-0.34,1.1
	L6.9,16.14c-0.11,0.15-0.24,0.26-0.38,0.34C6.37,16.56,6.22,16.6,6.06,16.6z"/>
</svg>
