<?xml version="1.0" encoding="utf-8"?>
<!-- Generator: Adobe Illustrator 24.3.0, SVG Export Plug-In . SVG Version: 6.00 Build 0)  -->
<svg version="1.1" id="Capa_1" xmlns="http://www.w3.org/2000/svg" xmlns:xlink="http://www.w3.org/1999/xlink" x="0px" y="0px"
	 viewBox="0 0 2032.44 201.26" style="enable-background:new 0 0 2032.44 201.26;" xml:space="preserve">
<style type="text/css">
	.st0{fill:url(#SVGID_1_);}
	.st1{fill:url(#SVGID_2_);}
</style>
<linearGradient id="SVGID_1_" gradientUnits="userSpaceOnUse" x1="401.2759" y1="39.4205" x2="401.2759" y2="-156.5796" gradientTransform="matrix(1 0 0 -1 620.2205 -2.6299)">
	<stop  offset="0" style="stop-color:#4CBCD6"/>
	<stop  offset="1" style="stop-color:#4CBCD6;stop-opacity:0"/>
</linearGradient>
<path class="st0" d="M18.83,67.16c-28.53,51.72,6.75,115.49,65.72,118.8l249.43,14.01c23.42,1.31,46.91-0.31,69.93-4.83l424.04-83.3
	c18.04-3.54,36.59-3.74,54.71-0.58l491.59,85.8c18.6,3.25,37.52,4.27,56.36,3.04l276.11-17.95c34.08-2.22,67.49-10.5,98.65-24.47
	l16.62-7.45c29.49-13.22,62.27-17.23,94.08-11.52l49.79,8.95c35.64,6.4,68.39-20.99,68.39-57.2c0-31.09-23.69-57.06-54.65-59.91
	l-77.04-7.09c-23.23-2.14-46.63,1.13-68.38,9.54l-121.53,47c-44.9,17.37-93.4,23.36-141.19,17.45l-79.21-9.8L1313.81,45
	c-67.71-16.2-138.6-13.27-204.75,8.44c-36.46,11.97-75.57,13.3-112.76,3.84L790.24,4.85h-162H499.66c-22.2,0-44.32,2.67-65.88,7.95
	l-55.54,13.6l-41.6,10.19c-30.19,7.39-61.92,5.22-90.83-6.2l-19.73-7.8c-29.24-11.56-61.25-14.25-92.01-7.73L71.5,28.12
	C49.11,32.86,29.88,47.11,18.83,67.16z"/>
<linearGradient id="SVGID_2_" gradientUnits="userSpaceOnUse" x1="352.0173" y1="-35.4835" x2="352.0173" y2="-177.4836" gradientTransform="matrix(1 0 0 -1 620.2205 -2.6299)">
	<stop  offset="0" style="stop-color:#7DADD1"/>
	<stop  offset="1" style="stop-color:#7DADD1;stop-opacity:0"/>
</linearGradient>
<path class="st1" d="M8.64,146.17c5.91-49.8,50.25-85.95,100.22-81.71l122.38,10.39L443.3,37.74c18.53-3.24,37.42-3.8,56.11-1.66
	l224.83,25.77l126.5,14.5l117.52,13.47c5.97,0.68,12,0.69,17.97,0l98.27-11.23c21.73-2.48,43.71-2.06,65.33,1.27l27.21,4.18
	c29.27,4.5,57.58,13.86,83.77,27.68c21.14,11.16,45.14,15.7,68.89,13.05l133.55-14.93l77.37-12.46c26.86-4.33,54.29-3.72,80.93,1.78
	l8.23,1.7c47.7,9.86,97.01,8.86,144.27-2.9l165.2-41.12v72l-665.94,44.14c-18.66,1.24-37.4,0.61-55.93-1.88l-192.13-25.76h-276
	l-336,15.5h-198l-105,7l-105,7L8.64,146.17z"/>
</svg>
