<?xml version="1.0" encoding="utf-8"?>
<!-- Generator: Adobe Illustrator 24.3.0, SVG Export Plug-In . SVG Version: 6.00 Build 0)  -->
<svg version="1.1" id="Capa_1" xmlns="http://www.w3.org/2000/svg" xmlns:xlink="http://www.w3.org/1999/xlink" x="0px" y="0px"
	 viewBox="0 0 320.31 498.9" style="enable-background:new 0 0 320.31 498.9;" xml:space="preserve">
<style type="text/css">
	.st0{fill:url(#SVGID_1_);fill-opacity:0.67;}
	.st1{fill:url(#SVGID_2_);fill-opacity:0.6;}
	.st2{fill:url(#SVGID_3_);fill-opacity:0.58;}
	.st3{fill:url(#SVGID_4_);fill-opacity:0.56;}
	.st4{fill:url(#SVGID_5_);fill-opacity:0.56;}
	.st5{fill:url(#SVGID_6_);fill-opacity:0.56;}
	.st6{fill:url(#SVGID_7_);fill-opacity:0.56;}
	.st7{fill:url(#SVGID_8_);fill-opacity:0.57;}
	.st8{fill:#560B31;fill-opacity:0.7;}
	.st9{fill:url(#SVGID_9_);fill-opacity:0.49;}
	.st10{fill:url(#SVGID_10_);fill-opacity:0.5;}
</style>
<linearGradient id="SVGID_1_" gradientUnits="userSpaceOnUse" x1="346.9321" y1="286.5356" x2="326.9321" y2="201.5356" gradientTransform="matrix(1 0 0 -1 -145.8425 352.5512)">
	<stop  offset="0" style="stop-color:#F11380"/>
	<stop  offset="0.9999" style="stop-color:#F7A7CA;stop-opacity:0.2"/>
	<stop  offset="1" style="stop-color:#D7D6D6;stop-opacity:0"/>
	<stop  offset="1" style="stop-color:#F9C5AD;stop-opacity:0.76"/>
	<stop  offset="1" style="stop-color:#F298C0;stop-opacity:0.2"/>
</linearGradient>
<path class="st0" d="M115.13,68.55l11.37-8.71c7.91-6.06,17.44-9.61,27.38-10.21l23.62-1.43c17.76-1.08,35.49,2.61,51.35,10.67
	l6.27,3.19l16.98,12.92c3.99,3.04,7.5,6.65,10.41,10.73l16.13,22.58c2.94,4.11,4.79,8.89,5.38,13.91l3.6,30.35l1.24,4.95
	c1.17,4.68,3.01,9.16,5.46,13.31l2.8,4.74h-3.19c-0.54,0-1.07-0.09-1.58-0.26l-12.73-4.24l10.32,12.04
	c0.59,0.69,0.02,1.76-0.88,1.64l-4.65-0.58c-0.52-0.07-1.02-0.21-1.49-0.43l-6.79-3.17l-37.18,21.09
	c-19.33,10.96-41.75,15.17-63.74,11.97l-1.4-0.2c-27.82-4.05-52.65-19.62-68.41-42.91l-8.76-12.95l-13.5-22l-17.89-3.18
	c-1.06-0.19-1.11-1.69-0.07-1.95l8.55-2.14c0.6-0.15,1.17-0.41,1.67-0.77l7.74-5.46l-15.82-2.2c-0.62-0.09-0.74-0.93-0.16-1.18
	c6.15-2.67,11.27-7.27,14.59-13.1l6.43-11.31c3.27-5.75,7.65-10.79,12.89-14.84L115.13,68.55z"/>
<linearGradient id="SVGID_2_" gradientUnits="userSpaceOnUse" x1="399.0707" y1="99.4751" x2="324.0708" y2="67.4751" gradientTransform="matrix(1 0 0 -1 -145.8425 352.5512)">
	<stop  offset="0" style="stop-color:#F11380"/>
	<stop  offset="1" style="stop-color:#F298C0;stop-opacity:0.2"/>
</linearGradient>
<path class="st1" d="M134.63,198.55l17.81,9.37c0.79,0.42,1.63,0.72,2.51,0.92l20.96,4.62c4.79,1.06,9.7,1.4,14.59,1.02l12.13-0.93
	l17-3.5l7.94,19.99c3.69,9.29,8.75,17.97,15.01,25.76l29.55,36.75l18.5,25.5l6,11l5,8.5l-26.5-4L252.21,330
	c-4.04-0.63-8.14-0.68-12.2-0.17c-13.48,1.71-25.39,9.62-32.22,21.37l-7.17,12.35l-44-3l-24,3l2-38
	c-7.56-9.86-12.66-21.38-14.88-33.6l-0.17-0.93c-1.62-8.92-1.75-18.05-0.39-27.02l3.94-25.96L134.63,198.55z"/>
<linearGradient id="SVGID_3_" gradientUnits="userSpaceOnUse" x1="453.4846" y1="8.0042" x2="261.4846" y2="-110.9958" gradientTransform="matrix(1 0 0 -1 -145.8425 352.5512)">
	<stop  offset="0" style="stop-color:#F11380"/>
	<stop  offset="1" style="stop-color:#F298C0;stop-opacity:0.2"/>
</linearGradient>
<path class="st2" d="M58.22,399.67c11.1-12.22,25.05-21.5,40.61-27.02l17.87-6.33c8.91-3.16,18.22-5.04,27.66-5.58l11.77-0.68
	l43.62,3.47c0.22,0.02,0.43-0.12,0.5-0.34c7.11-22.77,29.84-36.89,53.4-33.18l47.98,7.55l1.06,1.73
	c37.79,61.72-3.81,141.46-76.06,145.77l-24.86,2.19c-6.08,0.54-12.2,0.52-18.27-0.06l-22.37-2.13l-35.02-5.7
	c-5.31-0.86-10.69-1.3-16.07-1.3H80.13l-23.75,2.71c-7.48,0.85-14.83,2.55-21.93,5.05L2.63,497.05l16.27-43.51
	c4.44-11.88,11.11-22.81,19.64-32.2L58.22,399.67z"/>
<linearGradient id="SVGID_4_" gradientUnits="userSpaceOnUse" x1="267.9183" y1="354.6025" x2="284.4183" y2="274.1025" gradientTransform="matrix(1 0 0 -1 -145.8425 352.5512)">
	<stop  offset="0" style="stop-color:#F11380"/>
	<stop  offset="1" style="stop-color:#C4C4C4;stop-opacity:0"/>
</linearGradient>
<path class="st3" d="M105.13,23.55l0.21-2.41c1.71-19.14,26-26.28,37.79-11.09l25.5,39l-17.7,1.84c-4.18,0.43-8.27,1.46-12.16,3.05
	c-3.41,1.4-6.64,3.21-9.6,5.41l-26.54,19.69L105.13,23.55z"/>
<linearGradient id="SVGID_5_" gradientUnits="userSpaceOnUse" x1="272.0386" y1="331.2945" x2="280.5386" y2="286.2945" gradientTransform="matrix(1 0 0 -1 -145.8425 352.5512)">
	<stop  offset="0" style="stop-color:#F298C0"/>
	<stop  offset="1" style="stop-color:#A26080;stop-opacity:0.92"/>
</linearGradient>
<path class="st4" d="M114.64,34.24l0.3-4c0.88-11.83,16.28-15.76,22.73-5.81l14.46,25.13l-13.54,5.02l-6.67,3.27l-17.27,11.21V34.24
	z"/>
<linearGradient id="SVGID_6_" gradientUnits="userSpaceOnUse" x1="459.6422" y1="323.5578" x2="395.6093" y2="248.7758" gradientTransform="matrix(1 0 0 -1 -145.8425 352.5512)">
	<stop  offset="0" style="stop-color:#F11380"/>
	<stop  offset="1" style="stop-color:#F11380;stop-opacity:0"/>
</linearGradient>
<path class="st5" d="M306.63,64.19c6.53-17.62-13.46-33.21-29-22.64l-40.9,22.64l5.37,3.61c8.63,5.8,16.24,12.98,22.53,21.25l19,30
	L306.63,64.19z"/>
<linearGradient id="SVGID_7_" gradientUnits="userSpaceOnUse" x1="440.185" y1="295.1373" x2="402.185" y2="261.1373" gradientTransform="matrix(1 0 0 -1 -145.8425 352.5512)">
	<stop  offset="0" style="stop-color:#F298C0"/>
	<stop  offset="1" style="stop-color:#A16080;stop-opacity:0.9"/>
</linearGradient>
<path class="st6" d="M290.38,70.11l0.36-0.96c4.19-11.28-8.86-21.1-18.54-13.96l-26.08,14.92l3.24,2.75
	c5.17,4.39,9.75,9.42,13.65,14.97l12.11,17.22L290.38,70.11z"/>
<linearGradient id="SVGID_8_" gradientUnits="userSpaceOnUse" x1="312.1339" y1="153.3028" x2="349.6339" y2="285.3028" gradientTransform="matrix(1 0 0 -1 -145.8425 352.5512)">
	<stop  offset="0" style="stop-color:#E2D4CE;stop-opacity:0.77"/>
	<stop  offset="1" style="stop-color:#F9C5AD;stop-opacity:0.76"/>
</linearGradient>
<path class="st7" d="M77.63,126.55l14,3.5l18-7.5c15.69-8.26,35.1-2.12,43.2,13.66l3.3,6.43c1.33,2.6,2.37,5.34,3.09,8.17l3.13,12.3
	c1.51,5.9,1.81,12.05,0.91,18.08c-0.07,0.49,0.25,0.94,0.73,1.03l16.85,3.19c0.46,0.09,0.92-0.16,1.1-0.59l0.76-1.76
	c1.28-2.99,2.85-5.85,4.69-8.54l10.24-14.96l2.68-2.68c13.14-13.14,33.51-15.72,49.52-6.28c2.19,1.29,4.11,2.98,5.68,4.98
	l12.13,15.48l15,3.5l-40.37,24.87c-14.51,8.94-31.07,14.02-48.1,14.76l-2.19,0.1c-11.8,0.51-23.59-1.1-34.82-4.77
	c-20.76-6.78-38.67-20.27-50.92-38.35l-12.61-18.61L77.63,126.55z"/>
<path class="st8" d="M159.11,188.32c-1.1-3.68,2.18-7.18,5.93-6.31l13.81,3.22c3.6,0.84,5.07,5.15,2.74,8.02l-6,7.38
	c-1.26,1.55-3.06,2.57-5.03,2.85l-0.2,0.03c-2.34,0.33-4.71-0.45-6.38-2.13c-0.88-0.88-1.53-1.96-1.89-3.16L159.11,188.32z"/>
<path class="st8" d="M102.63,132.05c5.88,2.62,12.38,3.54,18.76,2.67l1.24-0.17H129c1.4,0,2.79,0.27,4.09,0.79
	c3.56,1.42,6.45,4.13,8.1,7.58l1.85,3.87c0.72,1.51,1.33,3.06,1.82,4.66l2.09,6.78c0.24,0.78-0.78,1.31-1.28,0.67l-6.42-8.26
	c-1.08-1.38-2.34-2.61-3.75-3.65c-3.52-2.58-7.65-4.19-11.99-4.67l-0.95-0.11c-0.95-0.11-1.91-0.11-2.86-0.03l-7.79,0.71
	c-1.18,0.11-2.37,0.07-3.54-0.11c-3.09-0.48-5.99-1.81-8.37-3.85l-3.36-2.88l11,2.5L102.63,132.05z"/>
<path class="st8" d="M255.92,168.72c-6.6,0.06-13.1-1.67-18.79-5.01l-1.15-0.67l-6.09-2.57c-1.3-0.55-2.69-0.85-4.11-0.89
	c-3.95-0.11-7.8,1.27-10.78,3.86l-3.1,2.69c-1.29,1.12-2.49,2.34-3.6,3.64l-4.64,5.45c-0.52,0.61,0.19,1.5,0.9,1.11l9.36-5.08
	c1.59-0.86,3.3-1.5,5.07-1.9c4.32-0.97,8.81-0.81,13.04,0.46l1.05,0.32c0.94,0.28,1.85,0.65,2.71,1.11l6.98,3.69
	c1.17,0.62,2.42,1.1,3.7,1.43c3.02,0.77,6.19,0.7,9.18-0.21l4.41-1.35l-11.4-2.09L255.92,168.72z"/>
<linearGradient id="SVGID_9_" gradientUnits="userSpaceOnUse" x1="289.2815" y1="20.3543" x2="322.2815" y2="134.3543" gradientTransform="matrix(1 0 0 -1 -145.8425 352.5512)">
	<stop  offset="0" style="stop-color:#E2D4CE"/>
	<stop  offset="0.5319" style="stop-color:#F9C5AD"/>
	<stop  offset="1" style="stop-color:#E2D4CE;stop-opacity:0.7"/>
</linearGradient>
<path class="st9" d="M134.13,198.55c18.93,11.09,40.66,16.46,62.58,15.44l9.42-0.44l0.35,0.49c5.08,6.99,9.32,14.54,12.65,22.51
	l-15-8l0.47,0.88c4.94,9.27,7.53,19.61,7.53,30.12l-8-10.5v17l-0.44,3.84c-0.69,5.97-3.15,11.6-7.06,16.16l-4-20l-1.49,2.92
	c-7.98,15.67-14.17,32.19-18.43,49.25l-1.08,4.33l-3.5,32l-11.15-8.81c-6.81-5.38-12.24-12.3-15.85-20.19l-4-8.5l-1.5,10.5
	l-4.04-6.18c-9.11-13.91-13.96-30.18-13.96-46.8c0-2.34,0.19-4.68,0.58-6.99l5.42-32.53L134.13,198.55z"/>
<path class="st8" d="M136.63,313.05l9.5,29.5l7,18.5l-21,1.5L136.63,313.05z"/>
<path class="st8" d="M171.13,322.55l4.22,12.25c0.29,0.84,1.44,0.91,1.84,0.12l6.94-13.87l6.79,14.48c0.32,0.69,1.26,0.78,1.71,0.17
	l4-5.4l5-6.75v40.5l-34-3.5c0-12.64,1.15-25.25,3.44-37.69L171.13,322.55z"/>
<linearGradient id="SVGID_10_" gradientUnits="userSpaceOnUse" x1="262.7851" y1="-62.9794" x2="158.2851" y2="-153.9794" gradientTransform="matrix(1 0 0 -1 -145.8425 352.5512)">
	<stop  offset="0" style="stop-color:#E2D4CE"/>
	<stop  offset="0.5891" style="stop-color:#F9C5AD;stop-opacity:0.62"/>
	<stop  offset="1" style="stop-color:#E2D4CE;stop-opacity:0.88"/>
</linearGradient>
<path class="st10" d="M21.94,446.03c0.12-0.32,0.28-0.62,0.47-0.91l11.72-18.07c11.93-16.24,26.23-30.61,42.41-42.62l0.84-0.62
	l13.72-8.42c0.36-0.22,0.74-0.39,1.13-0.51l13.9-4.31l-36,38l34,4l-29,24l33.5,4l-27,20.5l40,17.5l-8.07-0.49
	c-38.11-2.31-76.24,4.19-111.43,18.99L21.94,446.03z"/>
</svg>
