<?xml version="1.0" encoding="utf-8"?>
<!-- Generator: Adobe Illustrator 24.3.0, SVG Export Plug-In . SVG Version: 6.00 Build 0)  -->
<svg version="1.1" id="Capa_1" xmlns="http://www.w3.org/2000/svg" xmlns:xlink="http://www.w3.org/1999/xlink" x="0px" y="0px"
	 viewBox="0 0 793.7 850.39" style="enable-background:new 0 0 793.7 850.39;" xml:space="preserve">
<style type="text/css">
	.st0{fill:url(#SVGID_1_);}
	.st1{fill:url(#SVGID_2_);}
	.st2{fill:url(#SVGID_3_);}
	.st3{fill:url(#SVGID_4_);}
	.st4{fill:url(#SVGID_5_);fill-opacity:0.67;}
	.st5{fill:url(#SVGID_6_);fill-opacity:0.6;}
	.st6{fill:url(#SVGID_7_);fill-opacity:0.58;}
	.st7{fill:url(#SVGID_8_);fill-opacity:0.56;}
	.st8{fill:url(#SVGID_9_);fill-opacity:0.56;}
	.st9{fill:url(#SVGID_10_);fill-opacity:0.56;}
	.st10{fill:url(#SVGID_11_);fill-opacity:0.56;}
	.st11{fill:url(#SVGID_12_);fill-opacity:0.57;}
	.st12{fill:#560B31;fill-opacity:0.7;}
	.st13{fill:url(#SVGID_13_);fill-opacity:0.49;}
	.st14{fill:url(#SVGID_14_);fill-opacity:0.5;}
</style>
<linearGradient id="SVGID_1_" gradientUnits="userSpaceOnUse" x1="123.0591" y1="936.8958" x2="47.0591" y2="682.8958" gradientTransform="matrix(-1 0 0 -1 278.3966 1019.9203)">
	<stop  offset="0" style="stop-color:#B04EA4;stop-opacity:0.76"/>
	<stop  offset="1" style="stop-color:#9FACD2;stop-opacity:0"/>
</linearGradient>
<ellipse class="st0" cx="180.18" cy="166.06" rx="177.18" ry="164.06"/>
<linearGradient id="SVGID_2_" gradientUnits="userSpaceOnUse" x1="-5.1599" y1="613.7916" x2="37.7579" y2="492.1146" gradientTransform="matrix(1 0 0 -1 99.2126 855.8583)">
	<stop  offset="0" style="stop-color:#DC509B;stop-opacity:0.76"/>
	<stop  offset="1" style="stop-color:#F7DDAA;stop-opacity:0"/>
</linearGradient>
<path class="st1" d="M56.15,310.44c0,33.1,27.76,59.94,62.01,59.94c34.25,0,62.01-26.83,62.01-59.94c0-33.1-27.76-59.94-62.01-59.94
	C83.92,250.5,56.15,277.34,56.15,310.44z"/>
<linearGradient id="SVGID_3_" gradientUnits="userSpaceOnUse" x1="43.8315" y1="742.1073" x2="106.5848" y2="871.0614" gradientTransform="matrix(-1 0 0 -1 622.0386 1642.9203)">
	<stop  offset="0.0423" style="stop-color:#2B94C2"/>
	<stop  offset="1" style="stop-color:#E6DCEA;stop-opacity:0"/>
	<stop  offset="1" style="stop-color:#F68B25;stop-opacity:0.94"/>
</linearGradient>
<ellipse class="st2" cx="523.83" cy="789.06" rx="62.01" ry="59.94"/>
<linearGradient id="SVGID_4_" gradientUnits="userSpaceOnUse" x1="-4.916" y1="758.8384" x2="131.691" y2="884.7034" gradientTransform="matrix(-1 0 0 -1 712.0296 1533.5463)">
	<stop  offset="0" style="stop-color:#48499F"/>
	<stop  offset="1" style="stop-color:#C0A67E;stop-opacity:0"/>
</linearGradient>
<ellipse class="st3" cx="613.82" cy="679.69" rx="177.18" ry="164.06"/>
<linearGradient id="SVGID_5_" gradientUnits="userSpaceOnUse" x1="301.7512" y1="558.3959" x2="281.7512" y2="473.3958" gradientTransform="matrix(1 0 0 -1 99.2126 855.8583)">
	<stop  offset="0" style="stop-color:#F11380"/>
	<stop  offset="0.9999" style="stop-color:#F7A7CA;stop-opacity:0.2"/>
	<stop  offset="1" style="stop-color:#D7D6D6;stop-opacity:0"/>
	<stop  offset="1" style="stop-color:#F9C5AD;stop-opacity:0.76"/>
	<stop  offset="1" style="stop-color:#F298C0;stop-opacity:0.2"/>
</linearGradient>
<path class="st4" d="M315,300l11.37-8.71c7.91-6.06,17.44-9.61,27.38-10.21l23.62-1.43c17.76-1.08,35.49,2.61,51.36,10.67l6.27,3.19
	l16.98,12.92c3.99,3.04,7.5,6.65,10.41,10.73l16.13,22.58c2.94,4.11,4.79,8.89,5.38,13.91l3.6,30.36l1.24,4.95
	c1.17,4.68,3.01,9.16,5.46,13.31L497,407h-3.19c-0.54,0-1.07-0.09-1.58-0.26l-12.73-4.24l10.32,12.04c0.59,0.69,0.02,1.76-0.88,1.64
	l-4.65-0.58c-0.52-0.07-1.02-0.21-1.49-0.43L476,412l-37.18,21.09c-19.33,10.96-41.75,15.17-63.74,11.97l-1.4-0.2
	c-27.82-4.05-52.65-19.62-68.41-42.91L296.5,389L283,367l-17.89-3.18c-1.06-0.19-1.11-1.69-0.07-1.95l8.55-2.14
	c0.6-0.15,1.17-0.41,1.67-0.77l7.74-5.46l-15.82-2.2c-0.62-0.09-0.74-0.93-0.16-1.18c6.15-2.67,11.27-7.27,14.59-13.1l6.43-11.31
	c3.27-5.75,7.65-10.79,12.89-14.84L315,300z"/>
<linearGradient id="SVGID_6_" gradientUnits="userSpaceOnUse" x1="353.8899" y1="371.3353" x2="278.8899" y2="339.3353" gradientTransform="matrix(1 0 0 -1 99.2126 855.8583)">
	<stop  offset="0" style="stop-color:#F11380"/>
	<stop  offset="1" style="stop-color:#F298C0;stop-opacity:0.2"/>
</linearGradient>
<path class="st5" d="M334.5,430l17.81,9.37c0.79,0.42,1.63,0.72,2.51,0.92l20.96,4.62c4.79,1.05,9.71,1.4,14.59,1.02L402.5,445
	l17-3.5l7.94,19.99c3.69,9.29,8.75,17.97,15.01,25.76L472,524l18.5,25.5l6,11l5,8.5l-26.5-4l-22.91-3.56
	c-4.04-0.63-8.14-0.68-12.2-0.17c-13.48,1.71-25.39,9.62-32.22,21.37L400.5,595l-44-3l-24,3l2-38c-7.56-9.86-12.66-21.38-14.88-33.6
	l-0.17-0.93c-1.62-8.92-1.76-18.05-0.39-27.02L323,469.5L334.5,430z"/>
<linearGradient id="SVGID_7_" gradientUnits="userSpaceOnUse" x1="408.3038" y1="279.8644" x2="216.3038" y2="160.8644" gradientTransform="matrix(1 0 0 -1 99.2126 855.8583)">
	<stop  offset="0" style="stop-color:#F11380"/>
	<stop  offset="1" style="stop-color:#F298C0;stop-opacity:0.2"/>
</linearGradient>
<path class="st6" d="M258.09,631.12c11.1-12.22,25.05-21.5,40.61-27.02l17.87-6.33c8.91-3.16,18.22-5.04,27.66-5.58L356,591.5
	l43.62,3.47c0.22,0.02,0.43-0.12,0.5-0.34c7.12-22.77,29.84-36.89,53.4-33.18L501.5,569l1.06,1.73
	c37.8,61.72-3.81,141.46-76.06,145.77l-24.86,2.19c-6.08,0.54-12.2,0.52-18.27-0.06L361,716.5l-35.02-5.7
	c-5.31-0.86-10.68-1.3-16.07-1.3H280l-23.75,2.71c-7.48,0.85-14.83,2.55-21.93,5.05L202.5,728.5l16.27-43.51
	c4.44-11.88,11.11-22.81,19.64-32.2L258.09,631.12z"/>
<linearGradient id="SVGID_8_" gradientUnits="userSpaceOnUse" x1="222.7375" y1="626.4628" x2="239.2375" y2="545.9628" gradientTransform="matrix(1 0 0 -1 99.2126 855.8583)">
	<stop  offset="0" style="stop-color:#F11380"/>
	<stop  offset="1" style="stop-color:#C4C4C4;stop-opacity:0"/>
</linearGradient>
<path class="st7" d="M305,255l0.21-2.41c1.71-19.14,26-26.27,37.79-11.09l25.5,39l-17.7,1.84c-4.18,0.43-8.27,1.46-12.16,3.05
	c-3.41,1.4-6.64,3.21-9.6,5.41L302.5,310.5L305,255z"/>
<linearGradient id="SVGID_9_" gradientUnits="userSpaceOnUse" x1="226.8578" y1="603.1548" x2="235.3578" y2="558.1548" gradientTransform="matrix(1 0 0 -1 99.2126 855.8583)">
	<stop  offset="0" style="stop-color:#F298C0"/>
	<stop  offset="1" style="stop-color:#A26080;stop-opacity:0.92"/>
</linearGradient>
<path class="st8" d="M314.51,265.68l0.3-4c0.88-11.83,16.28-15.76,22.73-5.81L352,281l-13.55,5.02l-6.67,3.27l-17.27,11.21V265.68z"
	/>
<linearGradient id="SVGID_10_" gradientUnits="userSpaceOnUse" x1="414.4613" y1="595.4181" x2="350.4283" y2="520.6361" gradientTransform="matrix(1 0 0 -1 99.2126 855.8583)">
	<stop  offset="0" style="stop-color:#F11380"/>
	<stop  offset="1" style="stop-color:#F11380;stop-opacity:0"/>
</linearGradient>
<path class="st9" d="M506.5,295.64c6.53-17.62-13.46-33.2-29-22.64l-40.9,22.64l5.37,3.61c8.63,5.8,16.24,12.98,22.53,21.26l19,30
	L506.5,295.64z"/>
<linearGradient id="SVGID_11_" gradientUnits="userSpaceOnUse" x1="395.0041" y1="566.9976" x2="357.0041" y2="532.9976" gradientTransform="matrix(1 0 0 -1 99.2126 855.8583)">
	<stop  offset="0" style="stop-color:#F298C0"/>
	<stop  offset="1" style="stop-color:#A16080;stop-opacity:0.9"/>
</linearGradient>
<path class="st10" d="M490.26,301.56l0.36-0.96c4.19-11.28-8.86-21.1-18.54-13.96L446,301.56l3.24,2.75
	c5.17,4.39,9.75,9.42,13.65,14.97L475,336.5L490.26,301.56z"/>
<linearGradient id="SVGID_12_" gradientUnits="userSpaceOnUse" x1="266.9531" y1="425.1631" x2="304.4531" y2="557.1631" gradientTransform="matrix(1 0 0 -1 99.2126 855.8583)">
	<stop  offset="0" style="stop-color:#E2D4CE;stop-opacity:0.77"/>
	<stop  offset="1" style="stop-color:#F9C5AD;stop-opacity:0.76"/>
</linearGradient>
<path class="st11" d="M277.5,358l14,3.5l18-7.5c15.69-8.26,35.11-2.12,43.2,13.66l3.3,6.43c1.33,2.6,2.37,5.34,3.09,8.17l3.14,12.3
	c1.51,5.91,1.81,12.05,0.91,18.08c-0.07,0.49,0.25,0.94,0.73,1.03l16.85,3.19c0.46,0.09,0.92-0.16,1.11-0.59l0.76-1.76
	c1.28-2.99,2.85-5.85,4.69-8.54L397.5,391l2.67-2.67c13.14-13.14,33.51-15.72,49.52-6.28c2.19,1.29,4.11,2.98,5.68,4.98l12.13,15.48
	l15,3.5l-40.37,24.87c-14.51,8.94-31.07,14.02-48.1,14.76l-2.19,0.1c-11.8,0.51-23.59-1.1-34.82-4.77
	c-20.76-6.78-38.67-20.27-50.92-38.35L293.5,384L277.5,358z"/>
<path class="st12" d="M358.98,419.77c-1.1-3.68,2.18-7.18,5.93-6.31l13.81,3.22c3.6,0.84,5.07,5.16,2.74,8.02l-6,7.38
	c-1.26,1.55-3.06,2.57-5.03,2.85l-0.2,0.03c-2.34,0.34-4.71-0.45-6.38-2.13c-0.88-0.88-1.53-1.96-1.89-3.16L358.98,419.77z"/>
<path class="st12" d="M302.5,363.5c5.88,2.61,12.38,3.54,18.76,2.67l1.24-0.17h6.38c1.4,0,2.79,0.27,4.09,0.79
	c3.56,1.42,6.45,4.13,8.1,7.58l1.85,3.87c0.72,1.5,1.33,3.06,1.82,4.66l2.09,6.78c0.24,0.78-0.78,1.31-1.28,0.67l-6.42-8.26
	c-1.08-1.38-2.34-2.61-3.75-3.65c-3.52-2.58-7.65-4.19-11.99-4.67l-0.95-0.11c-0.95-0.11-1.91-0.11-2.86-0.03l-7.79,0.71
	c-1.18,0.11-2.37,0.07-3.54-0.11c-3.09-0.48-5.99-1.81-8.37-3.85l-3.36-2.88l11,2.5L302.5,363.5z"/>
<path class="st12" d="M455.8,400.17c-6.6,0.06-13.1-1.67-18.79-5.01l-1.15-0.67l-6.09-2.57c-1.3-0.55-2.69-0.85-4.11-0.89
	c-3.95-0.11-7.8,1.27-10.78,3.86l-3.1,2.69c-1.29,1.12-2.49,2.34-3.6,3.64l-4.64,5.45c-0.52,0.61,0.19,1.5,0.9,1.11l9.36-5.08
	c1.59-0.86,3.3-1.5,5.07-1.9c4.32-0.97,8.81-0.81,13.04,0.46l1.05,0.32c0.94,0.28,1.85,0.65,2.71,1.11l6.98,3.69
	c1.17,0.62,2.42,1.1,3.7,1.43c3.02,0.77,6.19,0.7,9.18-0.21l4.41-1.34l-11.4-2.09L455.8,400.17z"/>
<linearGradient id="SVGID_13_" gradientUnits="userSpaceOnUse" x1="244.1006" y1="292.2146" x2="277.1006" y2="406.2146" gradientTransform="matrix(1 0 0 -1 99.2126 855.8583)">
	<stop  offset="0" style="stop-color:#E2D4CE"/>
	<stop  offset="0.5319" style="stop-color:#F9C5AD"/>
	<stop  offset="1" style="stop-color:#E2D4CE;stop-opacity:0.7"/>
</linearGradient>
<path class="st13" d="M334,430c18.93,11.09,40.67,16.46,62.58,15.44L406,445l0.35,0.49c5.08,6.99,9.32,14.54,12.65,22.51l-15-8
	l0.47,0.88c4.94,9.27,7.53,19.61,7.53,30.12l-8-10.5v17l-0.44,3.84c-0.69,5.97-3.15,11.6-7.06,16.16l-4-20l-1.49,2.92
	c-7.98,15.67-14.17,32.19-18.43,49.25L371.5,554l-3.5,32l-11.14-8.81c-6.81-5.38-12.24-12.3-15.86-20.19l-4-8.5l-1.5,10.5
	l-4.05-6.18c-9.1-13.91-13.95-30.18-13.95-46.8c0-2.34,0.19-4.68,0.58-6.99l5.42-32.53L334,430z"/>
<path class="st12" d="M336.5,544.5L346,574l7,18.5l-21,1.5L336.5,544.5z"/>
<path class="st12" d="M371,554l4.22,12.25c0.29,0.84,1.44,0.91,1.84,0.12L384,552.5l6.79,14.48c0.32,0.69,1.26,0.78,1.71,0.17l4-5.4
	l5-6.75v40.5l-34-3.5c0-12.64,1.15-25.25,3.44-37.69L371,554z"/>
<linearGradient id="SVGID_14_" gradientUnits="userSpaceOnUse" x1="217.6043" y1="208.8809" x2="113.1043" y2="117.8809" gradientTransform="matrix(1 0 0 -1 99.2126 855.8583)">
	<stop  offset="0" style="stop-color:#E2D4CE"/>
	<stop  offset="0.5891" style="stop-color:#F9C5AD;stop-opacity:0.62"/>
	<stop  offset="1" style="stop-color:#E2D4CE;stop-opacity:0.88"/>
</linearGradient>
<path class="st14" d="M221.81,677.48c0.12-0.32,0.28-0.62,0.47-0.91L234,658.5c11.93-16.24,26.23-30.61,42.41-42.62l0.84-0.62
	l13.71-8.42c0.36-0.22,0.74-0.39,1.13-0.51L306,602l-36,38l34,4l-29,24l33.5,4l-27,20.5l40,17.5l-8.07-0.49
	c-38.11-2.31-76.24,4.19-111.43,18.99L221.81,677.48z"/>
</svg>
