<?xml version="1.0" encoding="utf-8"?>
<!-- Generator: Adobe Illustrator 24.3.0, SVG Export Plug-In . SVG Version: 6.00 Build 0)  -->
<svg version="1.1" id="Capa_1" xmlns="http://www.w3.org/2000/svg" xmlns:xlink="http://www.w3.org/1999/xlink" x="0px" y="0px"
	 viewBox="0 0 121.9 87.9" style="enable-background:new 0 0 121.9 87.9;" xml:space="preserve">
<style type="text/css">
	.st0{fill:#969FD6;}
	.st1{fill:#7A79AB;}
	.st2{fill:none;stroke:#E4E4E4;stroke-linejoin:round;stroke-opacity:0.9;}
	.st3{fill:#E4E4E4;fill-opacity:0.9;}
</style>
<path class="st0" d="M33.9,1.5h55c17.7,0,32,14.3,32,32v21c0,17.7-14.3,32-32,32h-55c-17.7,0-32-14.3-32-32v-21
	C1.9,15.8,16.2,1.5,33.9,1.5z"/>
<path class="st1" d="M39.2,14.5h44c0.6,0,1,0.4,1,1V41c0,0.6-0.4,1-1,1h-44c-0.6,0-1-0.4-1-1V15.5C38.2,14.9,38.6,14.5,39.2,14.5z"
	/>
<path class="st2" d="M40.6,17.2h41.1c0.3,0,0.5,0.2,0.5,0.5v22.1c0,0.3-0.2,0.5-0.5,0.5H40.6c-0.3,0-0.5-0.2-0.5-0.5V17.7
	C40.1,17.4,40.3,17.2,40.6,17.2z"/>
<path class="st3" d="M61.4,33.4c-0.1,0-0.1,0-0.2-0.1c-0.1-0.1-0.1-0.1-0.1-0.2v-0.8c-0.5-0.1-1-0.2-1.4-0.4
	c-0.4-0.2-0.7-0.5-0.9-0.8c-0.2-0.3-0.3-0.6-0.3-1c0-0.1,0-0.1,0.1-0.2c0.1-0.1,0.1-0.1,0.2-0.1h1.4c0.1,0,0.2,0,0.2,0.1
	c0.1,0,0.1,0.1,0.2,0.1c0.1,0.2,0.2,0.3,0.5,0.5c0.2,0.1,0.5,0.2,0.9,0.2c0.4,0,0.7-0.1,1-0.2c0.2-0.1,0.3-0.3,0.3-0.5
	c0-0.2-0.1-0.3-0.2-0.4c-0.1-0.1-0.3-0.2-0.5-0.3c-0.2-0.1-0.6-0.2-1.1-0.3c-0.9-0.2-1.5-0.4-2-0.8c-0.4-0.4-0.6-0.9-0.6-1.5
	c0-0.6,0.2-1.1,0.6-1.5c0.4-0.4,1-0.7,1.7-0.8v-0.8c0-0.1,0-0.1,0.1-0.2c0.1-0.1,0.1-0.1,0.2-0.1h0.9c0.1,0,0.1,0,0.2,0.1
	c0.1,0.1,0.1,0.1,0.1,0.2v0.8c0.5,0.1,0.9,0.2,1.2,0.5c0.4,0.2,0.6,0.5,0.8,0.8c0.2,0.3,0.3,0.6,0.3,0.8c0,0.1,0,0.1-0.1,0.2
	c0,0-0.1,0.1-0.2,0.1h-1.5c-0.1,0-0.2,0-0.2,0c-0.1,0-0.1-0.1-0.1-0.1c0-0.2-0.2-0.3-0.4-0.4c-0.2-0.1-0.4-0.2-0.7-0.2
	c-0.3,0-0.6,0.1-0.8,0.2c-0.2,0.1-0.3,0.3-0.3,0.5c0,0.2,0,0.3,0.1,0.4c0.1,0.1,0.3,0.2,0.5,0.3c0.2,0.1,0.5,0.2,1,0.3
	c0.7,0.1,1.2,0.3,1.6,0.5c0.4,0.2,0.7,0.4,0.9,0.7c0.2,0.3,0.3,0.7,0.3,1.1c0,0.6-0.2,1.2-0.7,1.6c-0.5,0.4-1.1,0.7-1.9,0.8v0.8
	c0,0.1,0,0.1-0.1,0.2c-0.1,0.1-0.1,0.1-0.2,0.1H61.4z"/>
<path d="M26.4,60.5c-0.1,0-0.1,0-0.2-0.1c0-0.1-0.1-0.1-0.1-0.2V53c0-0.1,0-0.1,0.1-0.2c0.1-0.1,0.1-0.1,0.2-0.1h2.8
	c0.8,0,1.5,0.2,2,0.6c0.5,0.4,0.7,1,0.7,1.7s-0.2,1.3-0.7,1.7c-0.5,0.4-1.1,0.6-2,0.6h-1.9v2.8c0,0.1,0,0.1-0.1,0.2
	c-0.1,0-0.1,0.1-0.2,0.1H26.4z M29.1,56.5c0.5,0,0.9-0.1,1.2-0.4c0.3-0.2,0.4-0.6,0.4-1.1c0-0.5-0.1-0.8-0.4-1.1
	c-0.3-0.2-0.7-0.4-1.2-0.4h-1.9v2.8H29.1z M35.7,60.6c-0.4,0-0.7-0.1-1-0.2c-0.3-0.1-0.6-0.3-0.7-0.6c-0.2-0.3-0.3-0.5-0.3-0.8
	c0-0.5,0.2-0.9,0.6-1.2c0.4-0.3,0.9-0.5,1.6-0.6l1.6-0.2v-0.3c0-0.7-0.4-1.1-1.3-1.1c-0.3,0-0.6,0.1-0.8,0.2
	c-0.2,0.1-0.4,0.3-0.5,0.5c0,0.1-0.1,0.1-0.1,0.1c0,0-0.1,0-0.1,0h-0.5c-0.1,0-0.1,0-0.2-0.1c0-0.1-0.1-0.1-0.1-0.2
	c0-0.2,0.1-0.4,0.2-0.6c0.2-0.2,0.4-0.4,0.7-0.6c0.3-0.2,0.7-0.3,1.2-0.3c0.8,0,1.4,0.2,1.8,0.6c0.4,0.4,0.5,0.9,0.5,1.4v3.6
	c0,0.1,0,0.1-0.1,0.2c0,0-0.1,0.1-0.2,0.1h-0.5c-0.1,0-0.1,0-0.2-0.1c0-0.1-0.1-0.1-0.1-0.2v-0.5c-0.2,0.2-0.4,0.4-0.7,0.6
	S36.2,60.6,35.7,60.6z M35.9,59.7c0.5,0,0.9-0.2,1.2-0.5c0.3-0.3,0.5-0.8,0.5-1.4v-0.3l-1.3,0.2c-0.5,0.1-0.9,0.2-1.2,0.4
	c-0.3,0.2-0.4,0.4-0.4,0.6c0,0.3,0.1,0.5,0.4,0.7C35.3,59.7,35.6,59.7,35.9,59.7z M43.7,62.9c-0.6,0-1.1-0.1-1.5-0.3
	c-0.4-0.2-0.6-0.4-0.8-0.7c-0.2-0.3-0.2-0.5-0.3-0.7c0-0.1,0-0.1,0.1-0.2c0.1-0.1,0.1-0.1,0.2-0.1H42c0.1,0,0.1,0,0.2,0
	c0,0,0.1,0.1,0.1,0.2c0.1,0.2,0.2,0.4,0.4,0.6c0.2,0.2,0.5,0.3,0.9,0.3c0.5,0,0.9-0.1,1.2-0.4c0.3-0.2,0.4-0.6,0.4-1.2v-0.7
	c-0.2,0.2-0.4,0.4-0.7,0.6c-0.3,0.1-0.6,0.2-1,0.2c-0.8,0-1.4-0.2-1.7-0.7c-0.4-0.5-0.6-1.1-0.6-1.9l0-0.3l0-0.3
	c0-0.8,0.2-1.4,0.6-1.9c0.4-0.5,1-0.8,1.7-0.8s1.4,0.3,1.8,0.8V55c0-0.1,0-0.1,0.1-0.2c0.1-0.1,0.1-0.1,0.2-0.1H46
	c0.1,0,0.1,0,0.2,0.1c0.1,0.1,0.1,0.1,0.1,0.2v5.3C46.3,62,45.4,62.9,43.7,62.9z M43.6,59.6c0.5,0,0.9-0.2,1.1-0.5
	c0.3-0.3,0.4-0.7,0.4-1.2c0-0.1,0-0.2,0-0.4c0-0.2,0-0.3,0-0.4c0-0.5-0.2-0.8-0.4-1.2c-0.2-0.3-0.6-0.5-1.1-0.5
	c-0.5,0-0.9,0.2-1.1,0.5c-0.2,0.3-0.4,0.7-0.4,1.3l0,0.3l0,0.3c0,0.5,0.2,0.9,0.4,1.3C42.7,59.5,43.1,59.6,43.6,59.6z M51.4,60.6
	c-0.8,0-1.4-0.2-1.9-0.7c-0.4-0.5-0.7-1.1-0.7-1.8l0-0.5l0-0.5c0-0.7,0.3-1.3,0.7-1.8c0.4-0.5,1.1-0.7,1.9-0.7
	c0.8,0,1.4,0.2,1.9,0.7c0.4,0.5,0.7,1.1,0.7,1.8c0,0.1,0,0.2,0,0.5s0,0.4,0,0.5c0,0.8-0.3,1.4-0.7,1.8
	C52.8,60.3,52.2,60.6,51.4,60.6z M51.4,59.7c0.5,0,0.8-0.1,1.1-0.4c0.3-0.3,0.4-0.7,0.4-1.3c0-0.1,0-0.2,0-0.4s0-0.3,0-0.4
	c0-0.5-0.2-1-0.4-1.3c-0.3-0.3-0.6-0.4-1.1-0.4c-0.5,0-0.8,0.1-1.1,0.4s-0.4,0.7-0.4,1.3l0,0.4l0,0.4c0,0.6,0.2,1,0.4,1.3
	C50.6,59.6,50.9,59.7,51.4,59.7z M56.9,60.5c-0.1,0-0.1,0-0.2-0.1c0-0.1-0.1-0.1-0.1-0.2V53c0-0.1,0-0.1,0.1-0.2
	c0.1-0.1,0.1-0.1,0.2-0.1h4.5c0.1,0,0.1,0,0.2,0.1c0.1,0,0.1,0.1,0.1,0.2v0.4c0,0.1,0,0.1-0.1,0.2c0,0-0.1,0.1-0.2,0.1h-3.7v2.6h3.5
	c0.1,0,0.1,0,0.2,0.1c0.1,0,0.1,0.1,0.1,0.2V57c0,0.1,0,0.1-0.1,0.2c-0.1,0-0.1,0.1-0.2,0.1h-3.5v3c0,0.1,0,0.1-0.1,0.2
	c-0.1,0-0.1,0.1-0.2,0.1H56.9z M65.4,60.6c-0.4,0-0.7-0.1-1-0.2c-0.3-0.1-0.6-0.3-0.7-0.6c-0.2-0.3-0.3-0.5-0.3-0.8
	c0-0.5,0.2-0.9,0.6-1.2c0.4-0.3,0.9-0.5,1.6-0.6l1.6-0.2v-0.3c0-0.7-0.4-1.1-1.3-1.1c-0.3,0-0.6,0.1-0.8,0.2
	c-0.2,0.1-0.4,0.3-0.5,0.5c0,0.1-0.1,0.1-0.1,0.1c0,0-0.1,0-0.1,0H64c-0.1,0-0.1,0-0.2-0.1c0-0.1-0.1-0.1-0.1-0.2
	c0-0.2,0.1-0.4,0.2-0.6c0.2-0.2,0.4-0.4,0.7-0.6c0.3-0.2,0.7-0.3,1.2-0.3c0.8,0,1.4,0.2,1.8,0.6c0.4,0.4,0.5,0.9,0.5,1.4v3.6
	c0,0.1,0,0.1-0.1,0.2c0,0-0.1,0.1-0.2,0.1h-0.5c-0.1,0-0.1,0-0.2-0.1c0-0.1-0.1-0.1-0.1-0.2v-0.5c-0.2,0.2-0.4,0.4-0.7,0.6
	S65.8,60.6,65.4,60.6z M65.6,59.7c0.5,0,0.9-0.2,1.2-0.5c0.3-0.3,0.5-0.8,0.5-1.4v-0.3l-1.3,0.2c-0.5,0.1-0.9,0.2-1.2,0.4
	c-0.3,0.2-0.4,0.4-0.4,0.6c0,0.3,0.1,0.5,0.4,0.7C65,59.7,65.3,59.7,65.6,59.7z M65.5,53.9c-0.1,0-0.2-0.1-0.2-0.2
	c0-0.1,0-0.1,0.1-0.1l0.8-1c0.1-0.1,0.1-0.1,0.2-0.2c0.1,0,0.1,0,0.2,0h0.7c0.1,0,0.1,0,0.2,0.1c0,0,0.1,0.1,0.1,0.2
	c0,0.1,0,0.1-0.1,0.1l-1.3,1c-0.1,0.1-0.1,0.1-0.2,0.1c-0.1,0-0.1,0-0.2,0H65.5z M73.3,60.6c-0.8,0-1.4-0.2-1.8-0.7
	c-0.4-0.4-0.7-1.1-0.7-1.9l0-0.4l0-0.4c0-0.8,0.3-1.4,0.7-1.9c0.4-0.4,1.1-0.7,1.8-0.7c0.5,0,1,0.1,1.3,0.3s0.6,0.4,0.8,0.7
	c0.2,0.3,0.3,0.6,0.3,0.8c0,0.1,0,0.1-0.1,0.2c-0.1,0-0.1,0.1-0.2,0.1H75c-0.1,0-0.1,0-0.2,0c0,0-0.1-0.1-0.1-0.2
	c-0.1-0.4-0.3-0.6-0.5-0.7c-0.2-0.2-0.5-0.2-0.9-0.2c-0.5,0-0.8,0.1-1.1,0.4c-0.3,0.3-0.4,0.7-0.4,1.3l0,0.4l0,0.4
	c0,0.6,0.2,1,0.4,1.3c0.3,0.3,0.6,0.4,1.1,0.4c0.3,0,0.6-0.1,0.9-0.2c0.2-0.2,0.4-0.4,0.5-0.8c0-0.1,0.1-0.1,0.1-0.2
	c0,0,0.1-0.1,0.2-0.1h0.5c0.1,0,0.1,0,0.2,0.1c0.1,0,0.1,0.1,0.1,0.2c0,0.3-0.1,0.5-0.3,0.8c-0.2,0.3-0.4,0.5-0.8,0.7
	C74.3,60.5,73.8,60.6,73.3,60.6z M78.4,53.7c-0.1,0-0.1,0-0.2-0.1c0-0.1-0.1-0.1-0.1-0.2v-0.6c0-0.1,0-0.1,0.1-0.2
	c0.1-0.1,0.1-0.1,0.2-0.1h0.7c0.1,0,0.1,0,0.2,0.1c0.1,0.1,0.1,0.1,0.1,0.2v0.6c0,0.1,0,0.1-0.1,0.2c-0.1,0-0.1,0.1-0.2,0.1H78.4z
	 M78.5,60.5c-0.1,0-0.1,0-0.2-0.1c0-0.1-0.1-0.1-0.1-0.2V55c0-0.1,0-0.1,0.1-0.2c0.1-0.1,0.1-0.1,0.2-0.1H79c0.1,0,0.1,0,0.2,0.1
	c0.1,0,0.1,0.1,0.1,0.2v5.2c0,0.1,0,0.1-0.1,0.2c0,0-0.1,0.1-0.2,0.1H78.5z M82.3,60.5c-0.1,0-0.1,0-0.2-0.1c0-0.1-0.1-0.1-0.1-0.2
	v-7.3c0-0.1,0-0.1,0.1-0.2c0.1-0.1,0.1-0.1,0.2-0.1h0.5c0.1,0,0.1,0,0.2,0.1c0.1,0,0.1,0.1,0.1,0.2v7.3c0,0.1,0,0.1-0.1,0.2
	c0,0-0.1,0.1-0.2,0.1H82.3z M89.4,61.4c-0.1,0-0.1,0-0.2-0.1c0,0-0.1-0.1-0.1-0.2c0,0,0-0.1,0-0.1l3.8-9c0.1-0.1,0.2-0.2,0.3-0.2
	h0.4c0.1,0,0.1,0,0.2,0.1c0,0,0.1,0.1,0.1,0.2c0,0.1,0,0.1,0,0.1l-3.8,9c-0.1,0.1-0.2,0.2-0.3,0.2H89.4z M26.4,73.4
	c-0.1,0-0.1,0-0.2-0.1c0-0.1-0.1-0.1-0.1-0.2V66c0-0.1,0-0.1,0.1-0.2c0.1-0.1,0.1-0.1,0.2-0.1h2.7c0.8,0,1.5,0.2,2,0.6
	c0.5,0.4,0.7,1,0.7,1.7c0,0.6-0.1,1-0.4,1.4c-0.3,0.4-0.7,0.6-1.2,0.7l1.7,2.9c0,0,0,0.1,0,0.1c0,0.1,0,0.1-0.1,0.2
	c0,0-0.1,0.1-0.2,0.1h-0.5c-0.1,0-0.2,0-0.3-0.1c-0.1-0.1-0.1-0.1-0.2-0.2l-1.6-2.8h-1.9v2.8c0,0.1,0,0.1-0.1,0.2
	c-0.1,0-0.1,0.1-0.2,0.1H26.4z M29,69.4c1.1,0,1.6-0.5,1.6-1.4s-0.5-1.4-1.6-1.4h-1.8v2.8H29z M36,73.6c-0.4,0-0.7-0.1-1-0.2
	s-0.6-0.3-0.7-0.6c-0.2-0.3-0.3-0.5-0.3-0.8c0-0.5,0.2-0.9,0.6-1.2c0.4-0.3,0.9-0.5,1.6-0.6l1.6-0.2v-0.3c0-0.7-0.4-1.1-1.3-1.1
	c-0.3,0-0.6,0.1-0.8,0.2c-0.2,0.1-0.4,0.3-0.5,0.5c0,0.1-0.1,0.1-0.1,0.1c0,0-0.1,0-0.1,0h-0.5c-0.1,0-0.1,0-0.2-0.1
	c0-0.1-0.1-0.1-0.1-0.2c0-0.2,0.1-0.4,0.2-0.6c0.2-0.2,0.4-0.4,0.7-0.6c0.3-0.2,0.7-0.3,1.2-0.3c0.8,0,1.4,0.2,1.8,0.6
	c0.4,0.4,0.5,0.9,0.5,1.4v3.6c0,0.1,0,0.1-0.1,0.2c0,0-0.1,0.1-0.2,0.1h-0.5c-0.1,0-0.1,0-0.2-0.1c0-0.1-0.1-0.1-0.1-0.2v-0.5
	c-0.2,0.2-0.4,0.4-0.7,0.6C36.8,73.5,36.4,73.6,36,73.6z M36.2,72.7c0.5,0,0.9-0.2,1.2-0.5c0.3-0.3,0.5-0.8,0.5-1.4v-0.3l-1.3,0.2
	c-0.5,0.1-0.9,0.2-1.2,0.4c-0.3,0.2-0.4,0.4-0.4,0.6c0,0.3,0.1,0.5,0.4,0.7C35.6,72.7,35.9,72.7,36.2,72.7z M41.8,75.5
	c-0.1,0-0.1,0-0.2-0.1c0,0-0.1-0.1-0.1-0.2V68c0-0.1,0-0.1,0.1-0.2c0.1-0.1,0.1-0.1,0.2-0.1h0.5c0.1,0,0.1,0,0.2,0.1
	c0.1,0,0.1,0.1,0.1,0.2v0.5c0.4-0.6,1-0.8,1.8-0.8c0.8,0,1.3,0.2,1.7,0.7c0.4,0.5,0.6,1.1,0.6,1.9c0,0.1,0,0.2,0,0.4s0,0.3,0,0.4
	c0,0.8-0.2,1.4-0.6,1.9c-0.4,0.5-1,0.7-1.7,0.7c-0.8,0-1.4-0.3-1.8-0.8v2.6c0,0.1,0,0.1-0.1,0.2c0,0.1-0.1,0.1-0.2,0.1H41.8z
	 M44.2,72.7c0.5,0,0.9-0.2,1.1-0.5c0.2-0.3,0.4-0.7,0.4-1.3c0-0.1,0-0.2,0-0.3c0-1.4-0.5-2.1-1.5-2.1c-0.5,0-0.9,0.2-1.1,0.5
	c-0.2,0.3-0.4,0.7-0.4,1.2l0,0.4l0,0.4c0,0.4,0.2,0.8,0.4,1.1C43.3,72.5,43.7,72.7,44.2,72.7z M49.5,66.7c-0.1,0-0.1,0-0.2-0.1
	c0-0.1-0.1-0.1-0.1-0.2v-0.6c0-0.1,0-0.1,0.1-0.2c0.1-0.1,0.1-0.1,0.2-0.1h0.7c0.1,0,0.1,0,0.2,0.1c0.1,0.1,0.1,0.1,0.1,0.2v0.6
	c0,0.1,0,0.1-0.1,0.2c-0.1,0-0.1,0.1-0.2,0.1H49.5z M49.5,73.4c-0.1,0-0.1,0-0.2-0.1c0-0.1-0.1-0.1-0.1-0.2V68c0-0.1,0-0.1,0.1-0.2
	c0.1-0.1,0.1-0.1,0.2-0.1h0.5c0.1,0,0.1,0,0.2,0.1c0.1,0,0.1,0.1,0.1,0.2v5.2c0,0.1,0,0.1-0.1,0.2c0,0-0.1,0.1-0.2,0.1H49.5z
	 M53.4,75.5c-0.1,0-0.1,0-0.2-0.1c0,0-0.1-0.1-0.1-0.2V68c0-0.1,0-0.1,0.1-0.2c0.1-0.1,0.1-0.1,0.2-0.1h0.5c0.1,0,0.1,0,0.2,0.1
	c0.1,0,0.1,0.1,0.1,0.2v0.5c0.4-0.6,1-0.8,1.8-0.8c0.8,0,1.3,0.2,1.7,0.7c0.4,0.5,0.6,1.1,0.6,1.9c0,0.1,0,0.2,0,0.4s0,0.3,0,0.4
	c0,0.8-0.2,1.4-0.6,1.9c-0.4,0.5-1,0.7-1.7,0.7c-0.8,0-1.4-0.3-1.8-0.8v2.6c0,0.1,0,0.1-0.1,0.2c0,0.1-0.1,0.1-0.2,0.1H53.4z
	 M55.7,72.7c0.5,0,0.9-0.2,1.1-0.5c0.2-0.3,0.4-0.7,0.4-1.3c0-0.1,0-0.2,0-0.3c0-1.4-0.5-2.1-1.5-2.1c-0.5,0-0.9,0.2-1.1,0.5
	c-0.2,0.3-0.4,0.7-0.4,1.2l0,0.4l0,0.4c0,0.4,0.2,0.8,0.4,1.1C54.8,72.5,55.2,72.7,55.7,72.7z M62.4,73.6c-0.4,0-0.7-0.1-1-0.2
	s-0.6-0.3-0.7-0.6c-0.2-0.3-0.3-0.5-0.3-0.8c0-0.5,0.2-0.9,0.6-1.2c0.4-0.3,0.9-0.5,1.6-0.6l1.6-0.2v-0.3c0-0.7-0.4-1.1-1.3-1.1
	c-0.3,0-0.6,0.1-0.8,0.2c-0.2,0.1-0.4,0.3-0.5,0.5c0,0.1-0.1,0.1-0.1,0.1c0,0-0.1,0-0.1,0H61c-0.1,0-0.1,0-0.2-0.1
	c0-0.1-0.1-0.1-0.1-0.2c0-0.2,0.1-0.4,0.2-0.6c0.2-0.2,0.4-0.4,0.7-0.6c0.3-0.2,0.7-0.3,1.2-0.3c0.8,0,1.4,0.2,1.8,0.6
	c0.4,0.4,0.5,0.9,0.5,1.4v3.6c0,0.1,0,0.1-0.1,0.2c0,0-0.1,0.1-0.2,0.1h-0.5c-0.1,0-0.1,0-0.2-0.1c0-0.1-0.1-0.1-0.1-0.2v-0.5
	c-0.2,0.2-0.4,0.4-0.7,0.6C63.3,73.5,62.9,73.6,62.4,73.6z M62.6,72.7c0.5,0,0.9-0.2,1.2-0.5c0.3-0.3,0.5-0.8,0.5-1.4v-0.3L63,70.8
	c-0.5,0.1-0.9,0.2-1.2,0.4c-0.3,0.2-0.4,0.4-0.4,0.6c0,0.3,0.1,0.5,0.4,0.7C62,72.7,62.3,72.7,62.6,72.7z M70.4,75.9
	c-0.6,0-1.1-0.1-1.5-0.3c-0.4-0.2-0.6-0.4-0.8-0.7s-0.2-0.5-0.3-0.7c0-0.1,0-0.1,0.1-0.2c0.1-0.1,0.1-0.1,0.2-0.1h0.5
	c0.1,0,0.1,0,0.2,0c0,0,0.1,0.1,0.1,0.2c0.1,0.2,0.2,0.4,0.4,0.6c0.2,0.2,0.5,0.3,0.9,0.3c0.5,0,0.9-0.1,1.2-0.4
	c0.3-0.2,0.4-0.6,0.4-1.2v-0.7c-0.2,0.2-0.4,0.4-0.7,0.6c-0.3,0.1-0.6,0.2-1,0.2c-0.8,0-1.4-0.2-1.7-0.7c-0.4-0.5-0.6-1.1-0.6-1.9
	l0-0.3l0-0.3c0-0.8,0.2-1.4,0.6-1.9c0.4-0.5,1-0.8,1.7-0.8c0.8,0,1.4,0.3,1.8,0.8V68c0-0.1,0-0.1,0.1-0.2c0.1-0.1,0.1-0.1,0.2-0.1
	h0.5c0.1,0,0.1,0,0.2,0.1S73,67.9,73,68v5.3C73,75,72.1,75.9,70.4,75.9z M70.4,72.6c0.5,0,0.9-0.2,1.1-0.5s0.4-0.7,0.4-1.2
	c0-0.1,0-0.2,0-0.4c0-0.2,0-0.3,0-0.4c0-0.5-0.2-0.8-0.4-1.2c-0.2-0.3-0.6-0.5-1.1-0.5c-0.5,0-0.9,0.2-1.1,0.5
	c-0.2,0.3-0.4,0.7-0.4,1.3l0,0.3l0,0.3c0,0.5,0.2,0.9,0.4,1.3C69.5,72.5,69.8,72.6,70.4,72.6z M78.1,73.6c-0.8,0-1.4-0.2-1.9-0.7
	c-0.4-0.5-0.7-1.1-0.7-1.8l0-0.5l0-0.5c0-0.7,0.3-1.3,0.7-1.8c0.4-0.5,1.1-0.7,1.9-0.7s1.4,0.2,1.9,0.7c0.4,0.5,0.7,1.1,0.7,1.8
	c0,0.1,0,0.2,0,0.5c0,0.2,0,0.4,0,0.5c0,0.8-0.3,1.4-0.7,1.8C79.5,73.3,78.9,73.6,78.1,73.6z M78.1,72.7c0.5,0,0.8-0.1,1.1-0.4
	c0.3-0.3,0.4-0.7,0.4-1.3c0-0.1,0-0.2,0-0.4c0-0.2,0-0.3,0-0.4c0-0.6-0.2-1-0.4-1.3c-0.3-0.3-0.6-0.4-1.1-0.4s-0.8,0.1-1.1,0.4
	s-0.4,0.7-0.4,1.3l0,0.4l0,0.4c0,0.6,0.2,1,0.4,1.3C77.3,72.6,77.6,72.7,78.1,72.7z"/>
</svg>
