<?xml version="1.0" encoding="utf-8"?>
<!-- Generator: Adobe Illustrator 24.3.0, SVG Export Plug-In . SVG Version: 6.00 Build 0)  -->
<svg version="1.1" id="Capa_1" xmlns="http://www.w3.org/2000/svg" xmlns:xlink="http://www.w3.org/1999/xlink" x="0px" y="0px"
	 viewBox="0 0 121.9 87.9" style="enable-background:new 0 0 121.9 87.9;" xml:space="preserve">
<style type="text/css">
	.st0{fill:#9FACD2;fill-opacity:0.45;}
	.st1{fill:#7979A8;}
	.st2{fill:none;stroke:#E4E4E4;stroke-linejoin:round;stroke-opacity:0.9;}
	.st3{fill:#E4E4E4;fill-opacity:0.9;}
</style>
<path class="st0" d="M33.3,1.1h55c17.7,0,32,14.3,32,32v21c0,17.7-14.3,32-32,32h-55c-17.7,0-32-14.3-32-32v-21
	C1.3,15.4,15.7,1.1,33.3,1.1z"/>
<path class="st1" d="M39.3,12.1h44c0.6,0,1,0.4,1,1v25.5c0,0.6-0.4,1-1,1h-44c-0.6,0-1-0.4-1-1V13.1C38.3,12.6,38.8,12.1,39.3,12.1z
	"/>
<path class="st2" d="M40.7,14.9h41.1c0.3,0,0.5,0.2,0.5,0.5v22.1c0,0.3-0.2,0.5-0.5,0.5H40.7c-0.3,0-0.5-0.2-0.5-0.5V15.4
	C40.2,15.1,40.5,14.9,40.7,14.9z"/>
<path class="st3" d="M61.5,31.1c-0.1,0-0.1,0-0.2-0.1c-0.1-0.1-0.1-0.1-0.1-0.2V30c-0.5-0.1-1-0.2-1.4-0.4c-0.4-0.2-0.7-0.5-0.9-0.8
	c-0.2-0.3-0.3-0.6-0.3-1c0-0.1,0-0.1,0.1-0.2c0.1-0.1,0.1-0.1,0.2-0.1h1.4c0.1,0,0.2,0,0.2,0.1c0.1,0,0.1,0.1,0.2,0.1
	c0.1,0.2,0.2,0.3,0.5,0.5c0.2,0.1,0.5,0.2,0.9,0.2c0.4,0,0.7-0.1,1-0.2c0.2-0.1,0.3-0.3,0.3-0.5c0-0.2-0.1-0.3-0.2-0.4
	c-0.1-0.1-0.3-0.2-0.5-0.3c-0.2-0.1-0.6-0.2-1.1-0.3c-0.9-0.2-1.5-0.4-2-0.8c-0.4-0.4-0.6-0.9-0.6-1.5c0-0.6,0.2-1.1,0.6-1.5
	c0.4-0.4,1-0.7,1.7-0.8v-0.8c0-0.1,0-0.1,0.1-0.2c0.1-0.1,0.1-0.1,0.2-0.1h0.9c0.1,0,0.1,0,0.2,0.1c0.1,0.1,0.1,0.1,0.1,0.2v0.8
	c0.5,0.1,0.9,0.2,1.2,0.5c0.4,0.2,0.6,0.5,0.8,0.8c0.2,0.3,0.3,0.6,0.3,0.8c0,0.1,0,0.1-0.1,0.2c0,0-0.1,0.1-0.2,0.1h-1.5
	c-0.1,0-0.2,0-0.2,0c-0.1,0-0.1-0.1-0.1-0.1c0-0.2-0.2-0.3-0.4-0.4c-0.2-0.1-0.4-0.2-0.7-0.2c-0.3,0-0.6,0.1-0.8,0.2
	c-0.2,0.1-0.3,0.3-0.3,0.5c0,0.2,0,0.3,0.1,0.4c0.1,0.1,0.3,0.2,0.5,0.3c0.2,0.1,0.5,0.2,1,0.3c0.7,0.1,1.2,0.3,1.6,0.5
	c0.4,0.2,0.7,0.4,0.9,0.7c0.2,0.3,0.3,0.7,0.3,1.1c0,0.6-0.2,1.2-0.7,1.6c-0.5,0.4-1.1,0.7-1.9,0.8v0.8c0,0.1,0,0.1-0.1,0.2
	c-0.1,0.1-0.1,0.1-0.2,0.1H61.5z"/>
<path d="M26.5,60.1c-0.1,0-0.1,0-0.2-0.1c0-0.1-0.1-0.1-0.1-0.2v-7.2c0-0.1,0-0.1,0.1-0.2c0.1-0.1,0.1-0.1,0.2-0.1h2.8
	c0.8,0,1.5,0.2,2,0.6c0.5,0.4,0.7,1,0.7,1.7s-0.2,1.3-0.7,1.7c-0.5,0.4-1.1,0.6-2,0.6h-1.9v2.8c0,0.1,0,0.1-0.1,0.2
	c-0.1,0-0.1,0.1-0.2,0.1H26.5z M29.3,56.2c0.5,0,0.9-0.1,1.2-0.4c0.3-0.2,0.4-0.6,0.4-1.1c0-0.5-0.1-0.8-0.4-1.1
	c-0.3-0.2-0.7-0.4-1.2-0.4h-1.9v2.8H29.3z M35.8,60.2c-0.4,0-0.7-0.1-1-0.2c-0.3-0.1-0.6-0.3-0.7-0.6c-0.2-0.3-0.3-0.5-0.3-0.8
	c0-0.5,0.2-0.9,0.6-1.2c0.4-0.3,0.9-0.5,1.6-0.6l1.6-0.2v-0.3c0-0.7-0.4-1.1-1.3-1.1c-0.3,0-0.6,0.1-0.8,0.2
	c-0.2,0.1-0.4,0.3-0.5,0.5c0,0.1-0.1,0.1-0.1,0.1c0,0-0.1,0-0.1,0h-0.5c-0.1,0-0.1,0-0.2-0.1c0-0.1-0.1-0.1-0.1-0.2
	c0-0.2,0.1-0.4,0.2-0.6c0.2-0.2,0.4-0.4,0.7-0.6c0.3-0.2,0.7-0.3,1.2-0.3c0.8,0,1.4,0.2,1.8,0.6c0.4,0.4,0.5,0.9,0.5,1.4v3.6
	c0,0.1,0,0.1-0.1,0.2c0,0-0.1,0.1-0.2,0.1H38c-0.1,0-0.1,0-0.2-0.1c0-0.1-0.1-0.1-0.1-0.2v-0.5c-0.2,0.2-0.4,0.4-0.7,0.6
	S36.3,60.2,35.8,60.2z M36.1,59.4c0.5,0,0.9-0.2,1.2-0.5c0.3-0.3,0.5-0.8,0.5-1.4v-0.3l-1.3,0.2c-0.5,0.1-0.9,0.2-1.2,0.4
	c-0.3,0.2-0.4,0.4-0.4,0.6c0,0.3,0.1,0.5,0.4,0.7C35.5,59.3,35.7,59.4,36.1,59.4z M43.8,62.5c-0.6,0-1.1-0.1-1.5-0.3
	c-0.4-0.2-0.6-0.4-0.8-0.7c-0.2-0.3-0.2-0.5-0.3-0.7c0-0.1,0-0.1,0.1-0.2c0.1-0.1,0.1-0.1,0.2-0.1h0.5c0.1,0,0.1,0,0.2,0
	c0,0,0.1,0.1,0.1,0.2c0.1,0.2,0.2,0.4,0.4,0.6c0.2,0.2,0.5,0.3,0.9,0.3c0.5,0,0.9-0.1,1.2-0.4c0.3-0.2,0.4-0.6,0.4-1.2v-0.7
	c-0.2,0.2-0.4,0.4-0.7,0.6c-0.3,0.1-0.6,0.2-1,0.2c-0.8,0-1.4-0.2-1.7-0.7c-0.4-0.5-0.6-1.1-0.6-1.9l0-0.3l0-0.3
	c0-0.8,0.2-1.4,0.6-1.9c0.4-0.5,1-0.8,1.7-0.8s1.4,0.3,1.8,0.8v-0.5c0-0.1,0-0.1,0.1-0.2c0.1-0.1,0.1-0.1,0.2-0.1h0.5
	c0.1,0,0.1,0,0.2,0.1c0.1,0.1,0.1,0.1,0.1,0.2V60C46.4,61.7,45.5,62.5,43.8,62.5z M43.8,59.3c0.5,0,0.9-0.2,1.1-0.5
	c0.3-0.3,0.4-0.7,0.4-1.2c0-0.1,0-0.2,0-0.4c0-0.2,0-0.3,0-0.4c0-0.5-0.2-0.8-0.4-1.2c-0.2-0.3-0.6-0.5-1.1-0.5
	c-0.5,0-0.9,0.2-1.1,0.5c-0.2,0.3-0.4,0.7-0.4,1.3l0,0.3l0,0.3c0,0.5,0.2,0.9,0.4,1.3C42.9,59.1,43.3,59.3,43.8,59.3z M51.5,60.2
	c-0.8,0-1.4-0.2-1.9-0.7c-0.4-0.5-0.7-1.1-0.7-1.8l0-0.5l0-0.5c0-0.7,0.3-1.3,0.7-1.8c0.4-0.5,1.1-0.7,1.9-0.7
	c0.8,0,1.4,0.2,1.9,0.7c0.4,0.5,0.7,1.1,0.7,1.8c0,0.1,0,0.2,0,0.5s0,0.4,0,0.5c0,0.8-0.3,1.4-0.7,1.8C53,60,52.3,60.2,51.5,60.2z
	 M51.5,59.4c0.5,0,0.8-0.1,1.1-0.4c0.3-0.3,0.4-0.7,0.4-1.3c0-0.1,0-0.2,0-0.4s0-0.3,0-0.4c0-0.5-0.2-1-0.4-1.3
	c-0.3-0.3-0.6-0.4-1.1-0.4c-0.5,0-0.8,0.1-1.1,0.4S50,56.3,50,56.8l0,0.4l0,0.4c0,0.6,0.2,1,0.4,1.3C50.7,59.2,51.1,59.4,51.5,59.4z
	 M57.1,60.1c-0.1,0-0.1,0-0.2-0.1c0-0.1-0.1-0.1-0.1-0.2v-7.2c0-0.1,0-0.1,0.1-0.2c0.1-0.1,0.1-0.1,0.2-0.1h4.5c0.1,0,0.1,0,0.2,0.1
	c0.1,0,0.1,0.1,0.1,0.2v0.4c0,0.1,0,0.1-0.1,0.2c0,0-0.1,0.1-0.2,0.1h-3.7v2.6h3.5c0.1,0,0.1,0,0.2,0.1c0.1,0,0.1,0.1,0.1,0.2v0.4
	c0,0.1,0,0.1-0.1,0.2c-0.1,0-0.1,0.1-0.2,0.1h-3.5v3c0,0.1,0,0.1-0.1,0.2c-0.1,0-0.1,0.1-0.2,0.1H57.1z M65.5,60.2
	c-0.4,0-0.7-0.1-1-0.2c-0.3-0.1-0.6-0.3-0.7-0.6c-0.2-0.3-0.3-0.5-0.3-0.8c0-0.5,0.2-0.9,0.6-1.2c0.4-0.3,0.9-0.5,1.6-0.6l1.6-0.2
	v-0.3c0-0.7-0.4-1.1-1.3-1.1c-0.3,0-0.6,0.1-0.8,0.2c-0.2,0.1-0.4,0.3-0.5,0.5c0,0.1-0.1,0.1-0.1,0.1c0,0-0.1,0-0.1,0h-0.5
	c-0.1,0-0.1,0-0.2-0.1c0-0.1-0.1-0.1-0.1-0.2c0-0.2,0.1-0.4,0.2-0.6c0.2-0.2,0.4-0.4,0.7-0.6c0.3-0.2,0.7-0.3,1.2-0.3
	c0.8,0,1.4,0.2,1.8,0.6c0.4,0.4,0.5,0.9,0.5,1.4v3.6c0,0.1,0,0.1-0.1,0.2c0,0-0.1,0.1-0.2,0.1h-0.5c-0.1,0-0.1,0-0.2-0.1
	c0-0.1-0.1-0.1-0.1-0.2v-0.5c-0.2,0.2-0.4,0.4-0.7,0.6S66,60.2,65.5,60.2z M65.7,59.4c0.5,0,0.9-0.2,1.2-0.5
	c0.3-0.3,0.5-0.8,0.5-1.4v-0.3l-1.3,0.2c-0.5,0.1-0.9,0.2-1.2,0.4c-0.3,0.2-0.4,0.4-0.4,0.6c0,0.3,0.1,0.5,0.4,0.7
	C65.1,59.3,65.4,59.4,65.7,59.4z M65.6,53.6c-0.1,0-0.2-0.1-0.2-0.2c0-0.1,0-0.1,0.1-0.1l0.8-1c0.1-0.1,0.1-0.1,0.2-0.2
	c0.1,0,0.1,0,0.2,0h0.7c0.1,0,0.1,0,0.2,0.1c0,0,0.1,0.1,0.1,0.2c0,0.1,0,0.1-0.1,0.1l-1.3,1c-0.1,0.1-0.1,0.1-0.2,0.1
	c-0.1,0-0.1,0-0.2,0H65.6z M73.5,60.2c-0.8,0-1.4-0.2-1.8-0.7c-0.4-0.4-0.7-1.1-0.7-1.9l0-0.4l0-0.4c0-0.8,0.3-1.4,0.7-1.9
	c0.4-0.4,1.1-0.7,1.8-0.7c0.5,0,1,0.1,1.3,0.3s0.6,0.4,0.8,0.7c0.2,0.3,0.3,0.6,0.3,0.8c0,0.1,0,0.1-0.1,0.2c-0.1,0-0.1,0.1-0.2,0.1
	h-0.5c-0.1,0-0.1,0-0.2,0c0,0-0.1-0.1-0.1-0.2c-0.1-0.4-0.3-0.6-0.5-0.7c-0.2-0.2-0.5-0.2-0.9-0.2c-0.5,0-0.8,0.1-1.1,0.4
	c-0.3,0.3-0.4,0.7-0.4,1.3l0,0.4l0,0.4c0,0.6,0.2,1,0.4,1.3c0.3,0.3,0.6,0.4,1.1,0.4c0.3,0,0.6-0.1,0.9-0.2c0.2-0.2,0.4-0.4,0.5-0.8
	c0-0.1,0.1-0.1,0.1-0.2c0,0,0.1-0.1,0.2-0.1h0.5c0.1,0,0.1,0,0.2,0.1c0.1,0,0.1,0.1,0.1,0.2c0,0.3-0.1,0.5-0.3,0.8
	c-0.2,0.3-0.4,0.5-0.8,0.7C74.4,60.1,74,60.2,73.5,60.2z M78.5,53.3c-0.1,0-0.1,0-0.2-0.1c0-0.1-0.1-0.1-0.1-0.2v-0.6
	c0-0.1,0-0.1,0.1-0.2c0.1-0.1,0.1-0.1,0.2-0.1h0.7c0.1,0,0.1,0,0.2,0.1c0.1,0.1,0.1,0.1,0.1,0.2v0.6c0,0.1,0,0.1-0.1,0.2
	c-0.1,0-0.1,0.1-0.2,0.1H78.5z M78.6,60.1c-0.1,0-0.1,0-0.2-0.1c0-0.1-0.1-0.1-0.1-0.2v-5.2c0-0.1,0-0.1,0.1-0.2
	c0.1-0.1,0.1-0.1,0.2-0.1h0.5c0.1,0,0.1,0,0.2,0.1c0.1,0,0.1,0.1,0.1,0.2v5.2c0,0.1,0,0.1-0.1,0.2c0,0-0.1,0.1-0.2,0.1H78.6z
	 M82.5,60.1c-0.1,0-0.1,0-0.2-0.1c0-0.1-0.1-0.1-0.1-0.2v-7.3c0-0.1,0-0.1,0.1-0.2c0.1-0.1,0.1-0.1,0.2-0.1H83c0.1,0,0.1,0,0.2,0.1
	c0.1,0,0.1,0.1,0.1,0.2v7.3c0,0.1,0,0.1-0.1,0.2c0,0-0.1,0.1-0.2,0.1H82.5z M89.6,61c-0.1,0-0.1,0-0.2-0.1c0,0-0.1-0.1-0.1-0.2
	c0,0,0-0.1,0-0.1l3.8-9c0.1-0.1,0.2-0.2,0.3-0.2h0.4c0.1,0,0.1,0,0.2,0.1c0,0,0.1,0.1,0.1,0.2c0,0.1,0,0.1,0,0.1l-3.8,9
	C90.2,61,90.1,61,90,61H89.6z M26.5,73.1c-0.1,0-0.1,0-0.2-0.1c0-0.1-0.1-0.1-0.1-0.2v-7.2c0-0.1,0-0.1,0.1-0.2
	c0.1-0.1,0.1-0.1,0.2-0.1h2.7c0.8,0,1.5,0.2,2,0.6c0.5,0.4,0.7,1,0.7,1.7c0,0.6-0.1,1-0.4,1.4c-0.3,0.4-0.7,0.6-1.2,0.7l1.7,2.9
	c0,0,0,0.1,0,0.1c0,0.1,0,0.1-0.1,0.2c0,0-0.1,0.1-0.2,0.1h-0.5c-0.1,0-0.2,0-0.3-0.1c-0.1-0.1-0.1-0.1-0.2-0.2L29.3,70h-1.9v2.8
	c0,0.1,0,0.1-0.1,0.2c-0.1,0-0.1,0.1-0.2,0.1H26.5z M29.2,69.1c1.1,0,1.6-0.5,1.6-1.4s-0.5-1.4-1.6-1.4h-1.8v2.8H29.2z M36.1,73.2
	c-0.4,0-0.7-0.1-1-0.2s-0.6-0.3-0.7-0.6c-0.2-0.3-0.3-0.5-0.3-0.8c0-0.5,0.2-0.9,0.6-1.2c0.4-0.3,0.9-0.5,1.6-0.6l1.6-0.2v-0.3
	c0-0.7-0.4-1.1-1.3-1.1c-0.3,0-0.6,0.1-0.8,0.2c-0.2,0.1-0.4,0.3-0.5,0.5c0,0.1-0.1,0.1-0.1,0.1c0,0-0.1,0-0.1,0h-0.5
	c-0.1,0-0.1,0-0.2-0.1c0-0.1-0.1-0.1-0.1-0.2c0-0.2,0.1-0.4,0.2-0.6c0.2-0.2,0.4-0.4,0.7-0.6c0.3-0.2,0.7-0.3,1.2-0.3
	c0.8,0,1.4,0.2,1.8,0.6c0.4,0.4,0.5,0.9,0.5,1.4v3.6c0,0.1,0,0.1-0.1,0.2c0,0-0.1,0.1-0.2,0.1h-0.5c-0.1,0-0.1,0-0.2-0.1
	c0-0.1-0.1-0.1-0.1-0.2v-0.5c-0.2,0.2-0.4,0.4-0.7,0.6C37,73.1,36.6,73.2,36.1,73.2z M36.3,72.4c0.5,0,0.9-0.2,1.2-0.5
	c0.3-0.3,0.5-0.8,0.5-1.4v-0.3l-1.3,0.2c-0.5,0.1-0.9,0.2-1.2,0.4c-0.3,0.2-0.4,0.4-0.4,0.6c0,0.3,0.1,0.5,0.4,0.7
	C35.7,72.3,36,72.4,36.3,72.4z M42,75.2c-0.1,0-0.1,0-0.2-0.1c0,0-0.1-0.1-0.1-0.2v-7.3c0-0.1,0-0.1,0.1-0.2
	c0.1-0.1,0.1-0.1,0.2-0.1h0.5c0.1,0,0.1,0,0.2,0.1c0.1,0,0.1,0.1,0.1,0.2v0.5c0.4-0.6,1-0.8,1.8-0.8c0.8,0,1.3,0.2,1.7,0.7
	c0.4,0.5,0.6,1.1,0.6,1.9c0,0.1,0,0.2,0,0.4s0,0.3,0,0.4c0,0.8-0.2,1.4-0.6,1.9c-0.4,0.5-1,0.7-1.7,0.7c-0.8,0-1.4-0.3-1.8-0.8v2.6
	c0,0.1,0,0.1-0.1,0.2c0,0.1-0.1,0.1-0.2,0.1H42z M44.3,72.3c0.5,0,0.9-0.2,1.1-0.5c0.2-0.3,0.4-0.7,0.4-1.3c0-0.1,0-0.2,0-0.3
	c0-1.4-0.5-2.1-1.5-2.1c-0.5,0-0.9,0.2-1.1,0.5c-0.2,0.3-0.4,0.7-0.4,1.2l0,0.4l0,0.4c0,0.4,0.2,0.8,0.4,1.1S43.8,72.3,44.3,72.3z
	 M49.6,66.3c-0.1,0-0.1,0-0.2-0.1c0-0.1-0.1-0.1-0.1-0.2v-0.6c0-0.1,0-0.1,0.1-0.2c0.1-0.1,0.1-0.1,0.2-0.1h0.7c0.1,0,0.1,0,0.2,0.1
	c0.1,0.1,0.1,0.1,0.1,0.2v0.6c0,0.1,0,0.1-0.1,0.2c-0.1,0-0.1,0.1-0.2,0.1H49.6z M49.7,73.1c-0.1,0-0.1,0-0.2-0.1
	c0-0.1-0.1-0.1-0.1-0.2v-5.2c0-0.1,0-0.1,0.1-0.2c0.1-0.1,0.1-0.1,0.2-0.1h0.5c0.1,0,0.1,0,0.2,0.1c0.1,0,0.1,0.1,0.1,0.2v5.2
	c0,0.1,0,0.1-0.1,0.2c0,0-0.1,0.1-0.2,0.1H49.7z M53.5,75.2c-0.1,0-0.1,0-0.2-0.1c0,0-0.1-0.1-0.1-0.2v-7.3c0-0.1,0-0.1,0.1-0.2
	c0.1-0.1,0.1-0.1,0.2-0.1H54c0.1,0,0.1,0,0.2,0.1c0.1,0,0.1,0.1,0.1,0.2v0.5c0.4-0.6,1-0.8,1.8-0.8c0.8,0,1.3,0.2,1.7,0.7
	c0.4,0.5,0.6,1.1,0.6,1.9c0,0.1,0,0.2,0,0.4s0,0.3,0,0.4c0,0.8-0.2,1.4-0.6,1.9c-0.4,0.5-1,0.7-1.7,0.7c-0.8,0-1.4-0.3-1.8-0.8v2.6
	c0,0.1,0,0.1-0.1,0.2c0,0.1-0.1,0.1-0.2,0.1H53.5z M55.9,72.3c0.5,0,0.9-0.2,1.1-0.5c0.2-0.3,0.4-0.7,0.4-1.3c0-0.1,0-0.2,0-0.3
	c0-1.4-0.5-2.1-1.5-2.1c-0.5,0-0.9,0.2-1.1,0.5c-0.2,0.3-0.4,0.7-0.4,1.2l0,0.4l0,0.4c0,0.4,0.2,0.8,0.4,1.1S55.4,72.3,55.9,72.3z
	 M62.6,73.2c-0.4,0-0.7-0.1-1-0.2s-0.6-0.3-0.7-0.6c-0.2-0.3-0.3-0.5-0.3-0.8c0-0.5,0.2-0.9,0.6-1.2c0.4-0.3,0.9-0.5,1.6-0.6
	l1.6-0.2v-0.3c0-0.7-0.4-1.1-1.3-1.1c-0.3,0-0.6,0.1-0.8,0.2c-0.2,0.1-0.4,0.3-0.5,0.5c0,0.1-0.1,0.1-0.1,0.1c0,0-0.1,0-0.1,0h-0.5
	c-0.1,0-0.1,0-0.2-0.1c0-0.1-0.1-0.1-0.1-0.2c0-0.2,0.1-0.4,0.2-0.6c0.2-0.2,0.4-0.4,0.7-0.6c0.3-0.2,0.7-0.3,1.2-0.3
	c0.8,0,1.4,0.2,1.8,0.6c0.4,0.4,0.5,0.9,0.5,1.4v3.6c0,0.1,0,0.1-0.1,0.2c0,0-0.1,0.1-0.2,0.1h-0.5c-0.1,0-0.1,0-0.2-0.1
	c0-0.1-0.1-0.1-0.1-0.2v-0.5c-0.2,0.2-0.4,0.4-0.7,0.6C63.4,73.1,63,73.2,62.6,73.2z M62.8,72.4c0.5,0,0.9-0.2,1.2-0.5
	c0.3-0.3,0.5-0.8,0.5-1.4v-0.3l-1.3,0.2c-0.5,0.1-0.9,0.2-1.2,0.4c-0.3,0.2-0.4,0.4-0.4,0.6c0,0.3,0.1,0.5,0.4,0.7
	C62.2,72.3,62.5,72.4,62.8,72.4z M70.5,75.5c-0.6,0-1.1-0.1-1.5-0.3c-0.4-0.2-0.6-0.4-0.8-0.7s-0.2-0.5-0.3-0.7c0-0.1,0-0.1,0.1-0.2
	c0.1-0.1,0.1-0.1,0.2-0.1h0.5c0.1,0,0.1,0,0.2,0c0,0,0.1,0.1,0.1,0.2c0.1,0.2,0.2,0.4,0.4,0.6c0.2,0.2,0.5,0.3,0.9,0.3
	c0.5,0,0.9-0.1,1.2-0.4c0.3-0.2,0.4-0.6,0.4-1.2v-0.7c-0.2,0.2-0.4,0.4-0.7,0.6c-0.3,0.1-0.6,0.2-1,0.2c-0.8,0-1.4-0.2-1.7-0.7
	c-0.4-0.5-0.6-1.1-0.6-1.9l0-0.3l0-0.3c0-0.8,0.2-1.4,0.6-1.9c0.4-0.5,1-0.8,1.7-0.8c0.8,0,1.4,0.3,1.8,0.8v-0.5
	c0-0.1,0-0.1,0.1-0.2c0.1-0.1,0.1-0.1,0.2-0.1h0.5c0.1,0,0.1,0,0.2,0.1s0.1,0.1,0.1,0.2V73C73.1,74.7,72.3,75.5,70.5,75.5z
	 M70.5,72.3c0.5,0,0.9-0.2,1.1-0.5s0.4-0.7,0.4-1.2c0-0.1,0-0.2,0-0.4c0-0.2,0-0.3,0-0.4c0-0.5-0.2-0.8-0.4-1.2
	c-0.2-0.3-0.6-0.5-1.1-0.5c-0.5,0-0.9,0.2-1.1,0.5C69.1,69,69,69.4,69,69.9l0,0.3l0,0.3c0,0.5,0.2,0.9,0.4,1.3
	C69.6,72.1,70,72.3,70.5,72.3z M78.3,73.2c-0.8,0-1.4-0.2-1.9-0.7c-0.4-0.5-0.7-1.1-0.7-1.8l0-0.5l0-0.5c0-0.7,0.3-1.3,0.7-1.8
	c0.4-0.5,1.1-0.7,1.9-0.7s1.4,0.2,1.9,0.7c0.4,0.5,0.7,1.1,0.7,1.8c0,0.1,0,0.2,0,0.5s0,0.4,0,0.5c0,0.8-0.3,1.4-0.7,1.8
	C79.7,73,79.1,73.2,78.3,73.2z M78.3,72.4c0.5,0,0.8-0.1,1.1-0.4c0.3-0.3,0.4-0.7,0.4-1.3c0-0.1,0-0.2,0-0.4s0-0.3,0-0.4
	c0-0.6-0.2-1-0.4-1.3c-0.3-0.3-0.6-0.4-1.1-0.4s-0.8,0.1-1.1,0.4c-0.3,0.3-0.4,0.7-0.4,1.3l0,0.4l0,0.4c0,0.6,0.2,1,0.4,1.3
	C77.4,72.2,77.8,72.4,78.3,72.4z"/>
</svg>
