<?xml version="1.0" encoding="utf-8"?>
<!-- Generator: Adobe Illustrator 24.3.0, SVG Export Plug-In . SVG Version: 6.00 Build 0)  -->
<svg version="1.1" id="Capa_1" xmlns="http://www.w3.org/2000/svg" xmlns:xlink="http://www.w3.org/1999/xlink" x="0px" y="0px"
	 viewBox="0 0 18.4 19.8" style="enable-background:new 0 0 18.4 19.8;" xml:space="preserve">
<style type="text/css">
	.st0{fill:#F68319;}
</style>
<path class="st0" d="M6.6,18.6c-0.2,0-0.3,0-0.5-0.1c-0.1-0.1-0.3-0.2-0.4-0.4l-4.7-6.9C1,11,0.9,10.8,0.8,10.6
	c-0.1-0.2-0.1-0.5-0.1-0.7c0-0.2,0-0.5,0.1-0.7C0.9,9,1,8.8,1.1,8.6c0.1-0.2,0.2-0.3,0.4-0.4c0.1-0.1,0.3-0.1,0.5-0.1
	c0.2,0,0.3,0,0.5,0.1c0.1,0.1,0.3,0.2,0.4,0.4l3.8,5.6l9-13.4c0.2-0.3,0.5-0.5,0.9-0.5c0.3,0,0.6,0.2,0.9,0.5
	c0.2,0.3,0.4,0.8,0.4,1.3s-0.1,0.9-0.4,1.3L7.5,18.1c-0.1,0.2-0.2,0.3-0.4,0.4C6.9,18.5,6.8,18.6,6.6,18.6z"/>
</svg>
