<?xml version="1.0" encoding="utf-8"?>
<!-- Generator: Adobe Illustrator 24.3.0, SVG Export Plug-In . SVG Version: 6.00 Build 0)  -->
<svg version="1.1" id="Capa_1" xmlns="http://www.w3.org/2000/svg" xmlns:xlink="http://www.w3.org/1999/xlink" x="0px" y="0px"
	 viewBox="0 0 121.9 87.9" style="enable-background:new 0 0 121.9 87.9;" xml:space="preserve">
<style type="text/css">
	.st0{fill:#9FACD2;fill-opacity:0.45;}
	.st1{fill:#7979A8;}
	.st2{fill:#E4E4E4;fill-opacity:0.9;}
</style>
<path class="st0" d="M33.3,1.1h55c17.7,0,32,14.3,32,32v21c0,17.7-14.3,32-32,32h-55c-17.7,0-32-14.3-32-32v-21
	C1.3,15.4,15.7,1.1,33.3,1.1z"/>
<path class="st1" d="M53.5,13.1h14.6c6.1,0,11,4.9,11,11v6c0,6.1-4.9,11-11,11H53.5c-6.1,0-11-4.9-11-11v-6
	C42.5,18,47.4,13.1,53.5,13.1z"/>
<path class="st2" d="M49.5,18.1H53c1.1,0,2,0.9,2,2l0,0c0,1.1-0.9,2-2,2h-3.5c-1.1,0-2-0.9-2-2l0,0C47.5,19,48.4,18.1,49.5,18.1z"/>
<path class="st2" d="M49.5,29.1h23c1.1,0,2,0.9,2,2l0,0c0,1.1-0.9,2-2,2h-23c-1.1,0-2-0.9-2-2l0,0C47.5,30,48.4,29.1,49.5,29.1z"/>
<path d="M12.5,66.1c-0.1,0-0.1,0-0.2-0.1c0-0.1-0.1-0.1-0.1-0.2v-7.2c0-0.1,0-0.1,0.1-0.2c0.1-0.1,0.1-0.1,0.2-0.1H15
	c1.1,0,1.9,0.2,2.4,0.7c0.5,0.5,0.7,1.2,0.8,2.2c0,0.2,0,0.5,0,0.9s0,0.6,0,0.9c0,0.7-0.1,1.3-0.4,1.7c-0.2,0.4-0.5,0.8-1,1
	s-1,0.3-1.8,0.3H12.5z M15,65.2c0.5,0,0.9-0.1,1.2-0.2c0.3-0.1,0.5-0.4,0.6-0.7c0.1-0.3,0.2-0.7,0.2-1.2c0-0.4,0-0.7,0-0.8
	c0-0.1,0-0.4,0-0.8c0-0.7-0.2-1.3-0.5-1.6c-0.3-0.3-0.9-0.5-1.6-0.5h-1.6v5.8H15z M23.2,66.2c-0.8,0-1.4-0.2-1.8-0.7
	c-0.4-0.5-0.7-1.1-0.7-1.9l0-0.4l0-0.4c0.1-0.8,0.3-1.4,0.7-1.9c0.5-0.5,1.1-0.7,1.8-0.7c0.8,0,1.4,0.3,1.9,0.8
	c0.4,0.5,0.7,1.2,0.7,2.1v0.2c0,0.1,0,0.1-0.1,0.2c0,0-0.1,0.1-0.2,0.1h-3.8v0.1c0,0.5,0.2,0.9,0.4,1.2c0.3,0.3,0.6,0.5,1.1,0.5
	c0.3,0,0.6-0.1,0.8-0.2c0.2-0.1,0.4-0.3,0.5-0.4c0.1-0.1,0.1-0.1,0.1-0.2c0,0,0.1,0,0.2,0h0.5c0.1,0,0.1,0,0.2,0.1
	c0,0,0.1,0.1,0.1,0.2c0,0.2-0.1,0.4-0.3,0.6c-0.2,0.2-0.5,0.4-0.8,0.6C24.1,66.1,23.6,66.2,23.2,66.2z M24.7,62.8L24.7,62.8
	c0-0.5-0.1-0.9-0.4-1.3c-0.3-0.3-0.6-0.5-1.1-0.5s-0.8,0.2-1.1,0.5c-0.3,0.3-0.4,0.7-0.4,1.2v0H24.7z M22.9,59.6
	c-0.1,0-0.2-0.1-0.2-0.2c0-0.1,0-0.1,0.1-0.1l0.8-1c0.1-0.1,0.1-0.1,0.2-0.2c0.1,0,0.1,0,0.2,0h0.7c0.1,0,0.1,0,0.2,0.1
	c0,0,0.1,0.1,0.1,0.2c0,0.1,0,0.1-0.1,0.1l-1.3,1c-0.1,0.1-0.1,0.1-0.2,0.1c-0.1,0-0.1,0-0.2,0H22.9z M31,66.2
	c-0.8,0-1.4-0.3-1.8-0.8v0.5c0,0.1,0,0.1-0.1,0.2c0,0-0.1,0.1-0.2,0.1h-0.5c-0.1,0-0.1,0-0.2-0.1c0-0.1-0.1-0.1-0.1-0.2v-7.3
	c0-0.1,0-0.1,0.1-0.2c0.1-0.1,0.1-0.1,0.2-0.1H29c0.1,0,0.1,0,0.2,0.1c0,0,0.1,0.1,0.1,0.2v2.5c0.4-0.5,1-0.8,1.8-0.8
	c0.8,0,1.3,0.3,1.7,0.8c0.4,0.5,0.6,1.1,0.6,1.9c0,0.1,0,0.2,0,0.3c0,0.1,0,0.2,0,0.3c0,0.8-0.2,1.4-0.6,1.9
	C32.4,66,31.8,66.2,31,66.2z M30.8,65.3c0.5,0,0.9-0.2,1.1-0.5c0.2-0.3,0.4-0.7,0.4-1.3c0-0.1,0-0.2,0-0.3c0-1.4-0.5-2.1-1.5-2.1
	c-0.5,0-0.9,0.2-1.1,0.5c-0.3,0.3-0.4,0.7-0.4,1.1l0,0.4l0,0.4c0,0.5,0.2,0.9,0.4,1.2C29.9,65.2,30.3,65.3,30.8,65.3z M36.1,59.3
	c-0.1,0-0.1,0-0.2-0.1c0-0.1-0.1-0.1-0.1-0.2v-0.6c0-0.1,0-0.1,0.1-0.2c0.1-0.1,0.1-0.1,0.2-0.1h0.7c0.1,0,0.1,0,0.2,0.1
	c0.1,0.1,0.1,0.1,0.1,0.2v0.6c0,0.1,0,0.1-0.1,0.2c-0.1,0-0.1,0.1-0.2,0.1H36.1z M36.1,66.1c-0.1,0-0.1,0-0.2-0.1
	c0-0.1-0.1-0.1-0.1-0.2v-5.2c0-0.1,0-0.1,0.1-0.2c0.1-0.1,0.1-0.1,0.2-0.1h0.5c0.1,0,0.1,0,0.2,0.1c0.1,0,0.1,0.1,0.1,0.2v5.2
	c0,0.1,0,0.1-0.1,0.2c0,0-0.1,0.1-0.2,0.1H36.1z M41.9,66.1c-1.2,0-1.7-0.6-1.7-1.9v-2.9h-0.9c-0.1,0-0.1,0-0.2-0.1
	c0-0.1-0.1-0.1-0.1-0.2v-0.4c0-0.1,0-0.1,0.1-0.2c0.1-0.1,0.1-0.1,0.2-0.1h0.9v-1.8c0-0.1,0-0.1,0.1-0.2c0.1-0.1,0.1-0.1,0.2-0.1H41
	c0.1,0,0.1,0,0.2,0.1c0.1,0,0.1,0.1,0.1,0.2v1.8h1.4c0.1,0,0.1,0,0.2,0.1c0.1,0,0.1,0.1,0.1,0.2V61c0,0.1,0,0.1-0.1,0.2
	c0,0-0.1,0.1-0.2,0.1h-1.4v2.8c0,0.4,0.1,0.6,0.2,0.8c0.1,0.2,0.3,0.3,0.6,0.3h0.7c0.1,0,0.1,0,0.2,0.1c0.1,0,0.1,0.1,0.1,0.2v0.4
	c0,0.1,0,0.1-0.1,0.2c0,0-0.1,0.1-0.2,0.1H41.9z M47.5,66.2c-0.8,0-1.4-0.2-1.9-0.7c-0.4-0.5-0.7-1.1-0.7-1.8l0-0.5l0-0.5
	c0-0.7,0.3-1.3,0.7-1.8c0.4-0.5,1.1-0.7,1.9-0.7c0.8,0,1.4,0.2,1.9,0.7c0.4,0.5,0.7,1.1,0.7,1.8c0,0.1,0,0.2,0,0.5s0,0.4,0,0.5
	c0,0.8-0.3,1.4-0.7,1.8C48.9,66,48.3,66.2,47.5,66.2z M47.5,65.4c0.5,0,0.8-0.1,1.1-0.4c0.3-0.3,0.4-0.7,0.4-1.3c0-0.1,0-0.2,0-0.4
	s0-0.3,0-0.4c0-0.5-0.2-1-0.4-1.3c-0.3-0.3-0.6-0.4-1.1-0.4c-0.5,0-0.8,0.1-1.1,0.4S46,62.3,46,62.8l0,0.4l0,0.4
	c0,0.6,0.2,1,0.4,1.3C46.7,65.2,47,65.4,47.5,65.4z M56.2,67c-0.1,0-0.1,0-0.2-0.1c0,0-0.1-0.1-0.1-0.2c0,0,0-0.1,0-0.1l3.8-9
	c0.1-0.1,0.2-0.2,0.3-0.2h0.4c0.1,0,0.1,0,0.2,0.1c0,0,0.1,0.1,0.1,0.2c0,0.1,0,0.1,0,0.1l-3.8,9C56.8,67,56.7,67,56.6,67H56.2z
	 M69.7,66.2c-1,0-1.7-0.3-2.2-0.8c-0.5-0.5-0.8-1.3-0.8-2.2c0-0.2,0-0.5,0-1c0-0.5,0-0.8,0-1c0-0.9,0.3-1.7,0.8-2.2
	c0.5-0.5,1.3-0.8,2.2-0.8c0.7,0,1.2,0.1,1.7,0.4c0.5,0.2,0.8,0.5,1,0.9c0.2,0.4,0.4,0.8,0.4,1.2v0c0,0.1,0,0.1-0.1,0.2
	c0,0-0.1,0.1-0.2,0.1H72c-0.1,0-0.2-0.1-0.3-0.3c-0.1-0.5-0.3-0.9-0.7-1.2c-0.3-0.2-0.8-0.3-1.3-0.3c-1.3,0-1.9,0.7-2,2.1
	c0,0.2,0,0.5,0,0.9s0,0.7,0,0.9c0,1.4,0.7,2.1,2,2.1c0.5,0,1-0.1,1.3-0.3c0.3-0.2,0.6-0.6,0.7-1.2c0-0.1,0.1-0.2,0.1-0.2
	c0,0,0.1-0.1,0.2-0.1h0.6c0.1,0,0.1,0,0.2,0.1c0.1,0,0.1,0.1,0.1,0.2c0,0.4-0.2,0.8-0.4,1.2c-0.2,0.4-0.6,0.7-1,0.9
	C70.9,66.1,70.4,66.2,69.7,66.2z M75.5,66.1c-0.1,0-0.1,0-0.2-0.1c0-0.1-0.1-0.1-0.1-0.2v-5.2c0-0.1,0-0.1,0.1-0.2
	c0.1-0.1,0.1-0.1,0.2-0.1H76c0.1,0,0.1,0,0.2,0.1s0.1,0.1,0.1,0.2v0.5c0.3-0.5,0.8-0.7,1.5-0.7h0.4c0.1,0,0.1,0,0.2,0.1
	c0.1,0,0.1,0.1,0.1,0.2v0.5c0,0.1,0,0.1-0.1,0.2c0,0-0.1,0.1-0.2,0.1h-0.7c-0.4,0-0.7,0.1-0.9,0.4c-0.2,0.2-0.3,0.5-0.3,0.9v3.2
	c0,0.1,0,0.1-0.1,0.2c-0.1,0-0.1,0.1-0.2,0.1H75.5z M82.8,66.2c-0.8,0-1.4-0.2-1.8-0.7c-0.4-0.5-0.7-1.1-0.7-1.9l0-0.4l0-0.4
	c0.1-0.8,0.3-1.4,0.7-1.9c0.5-0.5,1.1-0.7,1.8-0.7c0.8,0,1.4,0.3,1.9,0.8c0.4,0.5,0.7,1.2,0.7,2.1v0.2c0,0.1,0,0.1-0.1,0.2
	c0,0-0.1,0.1-0.2,0.1h-3.8v0.1c0,0.5,0.2,0.9,0.4,1.2c0.3,0.3,0.6,0.5,1.1,0.5c0.3,0,0.6-0.1,0.8-0.2c0.2-0.1,0.4-0.3,0.5-0.4
	c0.1-0.1,0.1-0.1,0.1-0.2c0,0,0.1,0,0.2,0H85c0.1,0,0.1,0,0.2,0.1c0,0,0.1,0.1,0.1,0.2c0,0.2-0.1,0.4-0.3,0.6
	c-0.2,0.2-0.5,0.4-0.8,0.6C83.7,66.1,83.3,66.2,82.8,66.2z M84.3,62.8L84.3,62.8c0-0.5-0.1-0.9-0.4-1.3c-0.3-0.3-0.6-0.5-1.1-0.5
	s-0.8,0.2-1.1,0.5c-0.3,0.3-0.4,0.7-0.4,1.2v0H84.3z M82.5,59.6c-0.1,0-0.2-0.1-0.2-0.2c0-0.1,0-0.1,0.1-0.1l0.8-1
	c0.1-0.1,0.1-0.1,0.2-0.2c0.1,0,0.1,0,0.2,0h0.7c0.1,0,0.1,0,0.2,0.1c0,0,0.1,0.1,0.1,0.2c0,0.1,0,0.1-0.1,0.1l-1.3,1
	c-0.1,0.1-0.1,0.1-0.2,0.1c-0.1,0-0.1,0-0.2,0H82.5z M89.9,66.2c-0.8,0-1.3-0.2-1.7-0.7c-0.4-0.5-0.6-1.1-0.6-1.9l0-0.3l0-0.3
	c0-0.8,0.2-1.4,0.6-1.9c0.4-0.5,1-0.8,1.7-0.8c0.8,0,1.3,0.3,1.8,0.8v-2.5c0-0.1,0-0.1,0.1-0.2c0.1-0.1,0.1-0.1,0.2-0.1h0.5
	c0.1,0,0.1,0,0.2,0.1c0.1,0,0.1,0.1,0.1,0.2v7.3c0,0.1,0,0.1-0.1,0.2c0,0-0.1,0.1-0.2,0.1H92c-0.1,0-0.1,0-0.2-0.1
	c0-0.1-0.1-0.1-0.1-0.2v-0.5C91.3,65.9,90.7,66.2,89.9,66.2z M90.1,65.3c0.5,0,0.9-0.2,1.1-0.5c0.3-0.3,0.4-0.7,0.4-1.2
	c0-0.1,0-0.2,0-0.4c0-0.2,0-0.3,0-0.4c0-0.4-0.2-0.8-0.4-1.1c-0.3-0.3-0.6-0.5-1.1-0.5c-0.5,0-0.9,0.2-1.1,0.5
	c-0.2,0.3-0.4,0.7-0.4,1.3l0,0.3C88.6,64.6,89.1,65.3,90.1,65.3z M95.7,59.3c-0.1,0-0.1,0-0.2-0.1c0-0.1-0.1-0.1-0.1-0.2v-0.6
	c0-0.1,0-0.1,0.1-0.2c0.1-0.1,0.1-0.1,0.2-0.1h0.7c0.1,0,0.1,0,0.2,0.1c0.1,0.1,0.1,0.1,0.1,0.2v0.6c0,0.1,0,0.1-0.1,0.2
	c-0.1,0-0.1,0.1-0.2,0.1H95.7z M95.8,66.1c-0.1,0-0.1,0-0.2-0.1c0-0.1-0.1-0.1-0.1-0.2v-5.2c0-0.1,0-0.1,0.1-0.2
	c0.1-0.1,0.1-0.1,0.2-0.1h0.5c0.1,0,0.1,0,0.2,0.1c0.1,0,0.1,0.1,0.1,0.2v5.2c0,0.1,0,0.1-0.1,0.2c0,0-0.1,0.1-0.2,0.1H95.8z
	 M101.6,66.1c-1.2,0-1.7-0.6-1.7-1.9v-2.9H99c-0.1,0-0.1,0-0.2-0.1c0-0.1-0.1-0.1-0.1-0.2v-0.4c0-0.1,0-0.1,0.1-0.2
	c0.1-0.1,0.1-0.1,0.2-0.1h0.9v-1.8c0-0.1,0-0.1,0.1-0.2c0.1-0.1,0.1-0.1,0.2-0.1h0.5c0.1,0,0.1,0,0.2,0.1c0.1,0,0.1,0.1,0.1,0.2v1.8
	h1.4c0.1,0,0.1,0,0.2,0.1c0.1,0,0.1,0.1,0.1,0.2V61c0,0.1,0,0.1-0.1,0.2c0,0-0.1,0.1-0.2,0.1h-1.4v2.8c0,0.4,0.1,0.6,0.2,0.8
	c0.1,0.2,0.3,0.3,0.6,0.3h0.7c0.1,0,0.1,0,0.2,0.1c0.1,0,0.1,0.1,0.1,0.2v0.4c0,0.1,0,0.1-0.1,0.2c0,0-0.1,0.1-0.2,0.1H101.6z
	 M107.1,66.2c-0.8,0-1.4-0.2-1.9-0.7c-0.4-0.5-0.7-1.1-0.7-1.8l0-0.5l0-0.5c0-0.7,0.3-1.3,0.7-1.8c0.4-0.5,1.1-0.7,1.9-0.7
	c0.8,0,1.4,0.2,1.9,0.7c0.4,0.5,0.7,1.1,0.7,1.8c0,0.1,0,0.2,0,0.5s0,0.4,0,0.5c0,0.8-0.3,1.4-0.7,1.8
	C108.6,66,107.9,66.2,107.1,66.2z M107.1,65.4c0.5,0,0.8-0.1,1.1-0.4c0.3-0.3,0.4-0.7,0.4-1.3c0-0.1,0-0.2,0-0.4s0-0.3,0-0.4
	c0-0.5-0.2-1-0.4-1.3c-0.3-0.3-0.6-0.4-1.1-0.4c-0.5,0-0.8,0.1-1.1,0.4c-0.3,0.3-0.4,0.7-0.4,1.3l0,0.4l0,0.4c0,0.6,0.2,1,0.4,1.3
	C106.3,65.2,106.7,65.4,107.1,65.4z"/>
</svg>
