<?xml version="1.0" encoding="utf-8"?>
<!-- Generator: Adobe Illustrator 24.3.0, SVG Export Plug-In . SVG Version: 6.00 Build 0)  -->
<svg version="1.1" id="Capa_1" xmlns="http://www.w3.org/2000/svg" xmlns:xlink="http://www.w3.org/1999/xlink" x="0px" y="0px"
	 viewBox="0 0 121.9 87.9" style="enable-background:new 0 0 121.9 87.9;" xml:space="preserve">
<style type="text/css">
	.st0{fill:#969FD6;}
	.st1{fill:#7A79AB;}
	.st2{fill:#E4E4E4;fill-opacity:0.9;}
</style>
<path class="st0" d="M33.5,1.5h55c17.7,0,32,14.3,32,32v21c0,17.7-14.3,32-32,32h-55c-17.7,0-32-14.3-32-32v-21
	C1.5,15.8,15.8,1.5,33.5,1.5z"/>
<path class="st1" d="M53.6,13.5h14.6c6.1,0,11,4.9,11,11v6c0,6.1-4.9,11-11,11H53.6c-6.1,0-11-4.9-11-11v-6
	C42.6,18.4,47.6,13.5,53.6,13.5z"/>
<path class="st2" d="M49.6,18.5h3.5c1.1,0,2,0.9,2,2l0,0c0,1.1-0.9,2-2,2h-3.5c-1.1,0-2-0.9-2-2l0,0C47.6,19.3,48.5,18.5,49.6,18.5z
	"/>
<path class="st2" d="M49.6,29.5h23c1.1,0,2,0.9,2,2l0,0c0,1.1-0.9,2-2,2h-23c-1.1,0-2-0.9-2-2l0,0C47.6,30.3,48.5,29.5,49.6,29.5z"
	/>
<path d="M12.7,66.4c-0.1,0-0.1,0-0.2-0.1c0-0.1-0.1-0.1-0.1-0.2V59c0-0.1,0-0.1,0.1-0.2c0.1-0.1,0.1-0.1,0.2-0.1h2.5
	c1.1,0,1.9,0.2,2.4,0.7c0.5,0.5,0.7,1.2,0.8,2.2c0,0.2,0,0.5,0,0.9s0,0.6,0,0.9c0,0.7-0.1,1.3-0.4,1.7c-0.2,0.4-0.5,0.8-1,1
	c-0.4,0.2-1,0.3-1.8,0.3H12.7z M15.2,65.5c0.5,0,0.9-0.1,1.2-0.2c0.3-0.1,0.5-0.4,0.6-0.7c0.1-0.3,0.2-0.7,0.2-1.2
	c0-0.4,0-0.7,0-0.8c0-0.1,0-0.4,0-0.8c0-0.7-0.2-1.3-0.5-1.6c-0.3-0.3-0.9-0.5-1.6-0.5h-1.6v5.8H15.2z M23.3,66.6
	c-0.8,0-1.4-0.2-1.8-0.7c-0.4-0.5-0.7-1.1-0.7-1.9l0-0.4l0-0.4c0.1-0.8,0.3-1.4,0.7-1.9c0.5-0.5,1.1-0.7,1.8-0.7
	c0.8,0,1.4,0.3,1.9,0.8c0.4,0.5,0.7,1.2,0.7,2.1v0.2c0,0.1,0,0.1-0.1,0.2c0,0-0.1,0.1-0.2,0.1h-3.8V64c0,0.5,0.2,0.9,0.4,1.2
	c0.3,0.3,0.6,0.5,1.1,0.5c0.3,0,0.6-0.1,0.8-0.2c0.2-0.1,0.4-0.3,0.5-0.4c0.1-0.1,0.1-0.1,0.1-0.2c0,0,0.1,0,0.2,0h0.5
	c0.1,0,0.1,0,0.2,0.1c0,0,0.1,0.1,0.1,0.2c0,0.2-0.1,0.4-0.3,0.6c-0.2,0.2-0.5,0.4-0.8,0.6C24.2,66.5,23.8,66.6,23.3,66.6z
	 M24.8,63.2L24.8,63.2c0-0.5-0.1-0.9-0.4-1.3c-0.3-0.3-0.6-0.5-1.1-0.5s-0.8,0.2-1.1,0.5c-0.3,0.3-0.4,0.7-0.4,1.2v0H24.8z M23,59.9
	c-0.1,0-0.2-0.1-0.2-0.2c0-0.1,0-0.1,0.1-0.1l0.8-1c0.1-0.1,0.1-0.1,0.2-0.2c0.1,0,0.1,0,0.2,0h0.7c0.1,0,0.1,0,0.2,0.1
	c0,0,0.1,0.1,0.1,0.2c0,0.1,0,0.1-0.1,0.1l-1.3,1c-0.1,0.1-0.1,0.1-0.2,0.1c-0.1,0-0.1,0-0.2,0H23z M31.1,66.6
	c-0.8,0-1.4-0.3-1.8-0.8v0.5c0,0.1,0,0.1-0.1,0.2c0,0-0.1,0.1-0.2,0.1h-0.5c-0.1,0-0.1,0-0.2-0.1c0-0.1-0.1-0.1-0.1-0.2v-7.3
	c0-0.1,0-0.1,0.1-0.2c0.1-0.1,0.1-0.1,0.2-0.1h0.5c0.1,0,0.1,0,0.2,0.1c0,0,0.1,0.1,0.1,0.2v2.5c0.4-0.5,1-0.8,1.8-0.8
	c0.8,0,1.3,0.3,1.7,0.8c0.4,0.5,0.6,1.1,0.6,1.9c0,0.1,0,0.2,0,0.3c0,0.1,0,0.2,0,0.3c0,0.8-0.2,1.4-0.6,1.9
	C32.5,66.3,31.9,66.6,31.1,66.6z M30.9,65.7c0.5,0,0.9-0.2,1.1-0.5c0.2-0.3,0.4-0.7,0.4-1.3c0-0.1,0-0.2,0-0.3
	c0-1.4-0.5-2.1-1.5-2.1c-0.5,0-0.9,0.2-1.1,0.5c-0.3,0.3-0.4,0.7-0.4,1.1l0,0.4l0,0.4c0,0.5,0.2,0.9,0.4,1.2
	C30,65.5,30.4,65.7,30.9,65.7z M36.2,59.7c-0.1,0-0.1,0-0.2-0.1c0-0.1-0.1-0.1-0.1-0.2v-0.6c0-0.1,0-0.1,0.1-0.2
	c0.1-0.1,0.1-0.1,0.2-0.1h0.7c0.1,0,0.1,0,0.2,0.1c0.1,0.1,0.1,0.1,0.1,0.2v0.6c0,0.1,0,0.1-0.1,0.2c-0.1,0-0.1,0.1-0.2,0.1H36.2z
	 M36.3,66.4c-0.1,0-0.1,0-0.2-0.1c0-0.1-0.1-0.1-0.1-0.2V61c0-0.1,0-0.1,0.1-0.2c0.1-0.1,0.1-0.1,0.2-0.1h0.5c0.1,0,0.1,0,0.2,0.1
	c0.1,0,0.1,0.1,0.1,0.2v5.2c0,0.1,0,0.1-0.1,0.2c0,0-0.1,0.1-0.2,0.1H36.3z M42.1,66.4c-1.2,0-1.7-0.6-1.7-1.9v-2.9h-0.9
	c-0.1,0-0.1,0-0.2-0.1c0-0.1-0.1-0.1-0.1-0.2V61c0-0.1,0-0.1,0.1-0.2c0.1-0.1,0.1-0.1,0.2-0.1h0.9v-1.8c0-0.1,0-0.1,0.1-0.2
	c0.1-0.1,0.1-0.1,0.2-0.1h0.5c0.1,0,0.1,0,0.2,0.1c0.1,0,0.1,0.1,0.1,0.2v1.8h1.4c0.1,0,0.1,0,0.2,0.1c0.1,0,0.1,0.1,0.1,0.2v0.4
	c0,0.1,0,0.1-0.1,0.2c0,0-0.1,0.1-0.2,0.1h-1.4v2.8c0,0.4,0.1,0.6,0.2,0.8c0.1,0.2,0.3,0.3,0.6,0.3h0.7c0.1,0,0.1,0,0.2,0.1
	c0.1,0,0.1,0.1,0.1,0.2v0.4c0,0.1,0,0.1-0.1,0.2c0,0-0.1,0.1-0.2,0.1H42.1z M47.6,66.6c-0.8,0-1.4-0.2-1.9-0.7
	c-0.4-0.5-0.7-1.1-0.7-1.8l0-0.5l0-0.5c0-0.7,0.3-1.3,0.7-1.8c0.4-0.5,1.1-0.7,1.9-0.7c0.8,0,1.4,0.2,1.9,0.7
	c0.4,0.5,0.7,1.1,0.7,1.8c0,0.1,0,0.2,0,0.5s0,0.4,0,0.5c0,0.8-0.3,1.4-0.7,1.8C49.1,66.3,48.4,66.6,47.6,66.6z M47.6,65.7
	c0.5,0,0.8-0.1,1.1-0.4c0.3-0.3,0.4-0.7,0.4-1.3c0-0.1,0-0.2,0-0.4s0-0.3,0-0.4c0-0.5-0.2-1-0.4-1.3c-0.3-0.3-0.6-0.4-1.1-0.4
	c-0.5,0-0.8,0.1-1.1,0.4s-0.4,0.7-0.4,1.3l0,0.4l0,0.4c0,0.6,0.2,1,0.4,1.3S47.2,65.7,47.6,65.7z M56.3,67.4c-0.1,0-0.1,0-0.2-0.1
	c0,0-0.1-0.1-0.1-0.2c0,0,0-0.1,0-0.1l3.8-9c0.1-0.1,0.2-0.2,0.3-0.2h0.4c0.1,0,0.1,0,0.2,0.1c0,0,0.1,0.1,0.1,0.2
	c0,0.1,0,0.1,0,0.1l-3.8,9c-0.1,0.1-0.2,0.2-0.3,0.2H56.3z M69.8,66.6c-1,0-1.7-0.3-2.2-0.8c-0.5-0.5-0.8-1.3-0.8-2.2
	c0-0.2,0-0.5,0-1c0-0.5,0-0.8,0-1c0-0.9,0.3-1.7,0.8-2.2c0.5-0.5,1.3-0.8,2.2-0.8c0.7,0,1.2,0.1,1.7,0.4c0.5,0.2,0.8,0.5,1,0.9
	c0.2,0.4,0.4,0.8,0.4,1.2v0c0,0.1,0,0.1-0.1,0.2c0,0-0.1,0.1-0.2,0.1h-0.6c-0.1,0-0.2-0.1-0.3-0.3c-0.1-0.5-0.3-0.9-0.7-1.2
	c-0.3-0.2-0.8-0.3-1.3-0.3c-1.3,0-1.9,0.7-2,2.1c0,0.2,0,0.5,0,0.9s0,0.7,0,0.9c0,1.4,0.7,2.1,2,2.1c0.5,0,1-0.1,1.3-0.3
	c0.3-0.2,0.6-0.6,0.7-1.2c0-0.1,0.1-0.2,0.1-0.2c0,0,0.1-0.1,0.2-0.1h0.6c0.1,0,0.1,0,0.2,0.1c0.1,0,0.1,0.1,0.1,0.2
	c0,0.4-0.2,0.8-0.4,1.2c-0.2,0.4-0.6,0.7-1,0.9C71,66.4,70.5,66.6,69.8,66.6z M75.7,66.4c-0.1,0-0.1,0-0.2-0.1
	c0-0.1-0.1-0.1-0.1-0.2V61c0-0.1,0-0.1,0.1-0.2c0.1-0.1,0.1-0.1,0.2-0.1h0.5c0.1,0,0.1,0,0.2,0.1s0.1,0.1,0.1,0.2v0.5
	c0.3-0.5,0.8-0.7,1.5-0.7h0.4c0.1,0,0.1,0,0.2,0.1c0.1,0,0.1,0.1,0.1,0.2v0.5c0,0.1,0,0.1-0.1,0.2c0,0-0.1,0.1-0.2,0.1h-0.7
	c-0.4,0-0.7,0.1-0.9,0.4c-0.2,0.2-0.3,0.5-0.3,0.9v3.2c0,0.1,0,0.1-0.1,0.2c-0.1,0-0.1,0.1-0.2,0.1H75.7z M82.9,66.6
	c-0.8,0-1.4-0.2-1.8-0.7c-0.4-0.5-0.7-1.1-0.7-1.9l0-0.4l0-0.4c0.1-0.8,0.3-1.4,0.7-1.9c0.5-0.5,1.1-0.7,1.8-0.7
	c0.8,0,1.4,0.3,1.9,0.8c0.4,0.5,0.7,1.2,0.7,2.1v0.2c0,0.1,0,0.1-0.1,0.2c0,0-0.1,0.1-0.2,0.1h-3.8V64c0,0.5,0.2,0.9,0.4,1.2
	c0.3,0.3,0.6,0.5,1.1,0.5c0.3,0,0.6-0.1,0.8-0.2c0.2-0.1,0.4-0.3,0.5-0.4c0.1-0.1,0.1-0.1,0.1-0.2c0,0,0.1,0,0.2,0h0.5
	c0.1,0,0.1,0,0.2,0.1c0,0,0.1,0.1,0.1,0.2c0,0.2-0.1,0.4-0.3,0.6c-0.2,0.2-0.5,0.4-0.8,0.6C83.8,66.5,83.4,66.6,82.9,66.6z
	 M84.4,63.2L84.4,63.2c0-0.5-0.1-0.9-0.4-1.3c-0.3-0.3-0.6-0.5-1.1-0.5c-0.5,0-0.8,0.2-1.1,0.5c-0.3,0.3-0.4,0.7-0.4,1.2v0H84.4z
	 M82.6,59.9c-0.1,0-0.2-0.1-0.2-0.2c0-0.1,0-0.1,0.1-0.1l0.8-1c0.1-0.1,0.1-0.1,0.2-0.2c0.1,0,0.1,0,0.2,0h0.7c0.1,0,0.1,0,0.2,0.1
	c0,0,0.1,0.1,0.1,0.2c0,0.1,0,0.1-0.1,0.1l-1.3,1c-0.1,0.1-0.1,0.1-0.2,0.1c-0.1,0-0.1,0-0.2,0H82.6z M90,66.6
	c-0.8,0-1.3-0.2-1.7-0.7c-0.4-0.5-0.6-1.1-0.6-1.9l0-0.3l0-0.3c0-0.8,0.2-1.4,0.6-1.9c0.4-0.5,1-0.8,1.7-0.8c0.8,0,1.3,0.3,1.8,0.8
	v-2.5c0-0.1,0-0.1,0.1-0.2c0.1-0.1,0.1-0.1,0.2-0.1h0.5c0.1,0,0.1,0,0.2,0.1c0.1,0,0.1,0.1,0.1,0.2v7.3c0,0.1,0,0.1-0.1,0.2
	c0,0-0.1,0.1-0.2,0.1h-0.5c-0.1,0-0.1,0-0.2-0.1c0-0.1-0.1-0.1-0.1-0.2v-0.5C91.4,66.3,90.8,66.6,90,66.6z M90.3,65.7
	c0.5,0,0.9-0.2,1.1-0.5c0.3-0.3,0.4-0.7,0.4-1.2c0-0.1,0-0.2,0-0.4c0-0.2,0-0.3,0-0.4c0-0.4-0.2-0.8-0.4-1.1
	c-0.3-0.3-0.6-0.5-1.1-0.5c-0.5,0-0.9,0.2-1.1,0.5c-0.2,0.3-0.4,0.7-0.4,1.3l0,0.3C88.7,65,89.2,65.7,90.3,65.7z M95.8,59.7
	c-0.1,0-0.1,0-0.2-0.1c0-0.1-0.1-0.1-0.1-0.2v-0.6c0-0.1,0-0.1,0.1-0.2c0.1-0.1,0.1-0.1,0.2-0.1h0.7c0.1,0,0.1,0,0.2,0.1
	c0.1,0.1,0.1,0.1,0.1,0.2v0.6c0,0.1,0,0.1-0.1,0.2c-0.1,0-0.1,0.1-0.2,0.1H95.8z M95.9,66.4c-0.1,0-0.1,0-0.2-0.1
	c0-0.1-0.1-0.1-0.1-0.2V61c0-0.1,0-0.1,0.1-0.2c0.1-0.1,0.1-0.1,0.2-0.1h0.5c0.1,0,0.1,0,0.2,0.1c0.1,0,0.1,0.1,0.1,0.2v5.2
	c0,0.1,0,0.1-0.1,0.2c0,0-0.1,0.1-0.2,0.1H95.9z M101.7,66.4c-1.2,0-1.7-0.6-1.7-1.9v-2.9h-0.9c-0.1,0-0.1,0-0.2-0.1
	c0-0.1-0.1-0.1-0.1-0.2V61c0-0.1,0-0.1,0.1-0.2c0.1-0.1,0.1-0.1,0.2-0.1h0.9v-1.8c0-0.1,0-0.1,0.1-0.2c0.1-0.1,0.1-0.1,0.2-0.1h0.5
	c0.1,0,0.1,0,0.2,0.1c0.1,0,0.1,0.1,0.1,0.2v1.8h1.4c0.1,0,0.1,0,0.2,0.1c0.1,0,0.1,0.1,0.1,0.2v0.4c0,0.1,0,0.1-0.1,0.2
	c0,0-0.1,0.1-0.2,0.1H101v2.8c0,0.4,0.1,0.6,0.2,0.8c0.1,0.2,0.3,0.3,0.6,0.3h0.7c0.1,0,0.1,0,0.2,0.1c0.1,0,0.1,0.1,0.1,0.2v0.4
	c0,0.1,0,0.1-0.1,0.2c0,0-0.1,0.1-0.2,0.1H101.7z M107.2,66.6c-0.8,0-1.4-0.2-1.9-0.7c-0.4-0.5-0.7-1.1-0.7-1.8l0-0.5l0-0.5
	c0-0.7,0.3-1.3,0.7-1.8c0.4-0.5,1.1-0.7,1.9-0.7c0.8,0,1.4,0.2,1.9,0.7c0.4,0.5,0.7,1.1,0.7,1.8c0,0.1,0,0.2,0,0.5s0,0.4,0,0.5
	c0,0.8-0.3,1.4-0.7,1.8C108.7,66.3,108.1,66.6,107.2,66.6z M107.2,65.7c0.5,0,0.8-0.1,1.1-0.4c0.3-0.3,0.4-0.7,0.4-1.3
	c0-0.1,0-0.2,0-0.4s0-0.3,0-0.4c0-0.5-0.2-1-0.4-1.3c-0.3-0.3-0.6-0.4-1.1-0.4c-0.5,0-0.8,0.1-1.1,0.4c-0.3,0.3-0.4,0.7-0.4,1.3
	l0,0.4l0,0.4c0,0.6,0.2,1,0.4,1.3C106.4,65.6,106.8,65.7,107.2,65.7z"/>
</svg>
