<?xml version="1.0" encoding="utf-8"?>
<!-- Generator: Adobe Illustrator 24.3.0, SVG Export Plug-In . SVG Version: 6.00 Build 0)  -->
<svg version="1.1" id="Capa_1" xmlns="http://www.w3.org/2000/svg" xmlns:xlink="http://www.w3.org/1999/xlink" x="0px" y="0px"
	 viewBox="0 0 343 382.7" style="enable-background:new 0 0 343 382.7;" xml:space="preserve">
<style type="text/css">
	.st0{opacity:0.3;}
	.st1{fill-rule:evenodd;clip-rule:evenodd;fill:#C6C6C7;}
	.st2{fill:none;stroke:#6A6B73;stroke-width:16;stroke-linecap:round;stroke-opacity:0.54;}
	.st3{fill:none;stroke:#6A6B73;stroke-width:14;stroke-opacity:0.7;}
	.st4{fill-rule:evenodd;clip-rule:evenodd;fill:#63834B;}
	.st5{fill:none;stroke:#715A37;stroke-width:8;stroke-linecap:square;stroke-opacity:0.82;}
	.st6{fill-rule:evenodd;clip-rule:evenodd;fill:#7B9A63;}
	.st7{fill:none;stroke:#856636;stroke-width:8;stroke-linecap:square;stroke-opacity:0.87;}
	.st8{fill-rule:evenodd;clip-rule:evenodd;fill:#D7DBE2;}
	.st9{fill-rule:evenodd;clip-rule:evenodd;fill:#A3A7CE;}
	.st10{fill-rule:evenodd;clip-rule:evenodd;fill:#6A6B73;}
	.st11{fill-rule:evenodd;clip-rule:evenodd;fill:#787DB5;}
	.st12{fill:none;stroke:#9597B9;stroke-width:15;stroke-linejoin:bevel;}
	.st13{fill:none;stroke:#959EC7;stroke-width:7;}
	.st14{fill-rule:evenodd;clip-rule:evenodd;fill:#7C82A0;}
	.st15{fill:none;stroke:#3C4FA2;stroke-width:16;}
	.st16{fill:none;stroke:#192982;stroke-width:14;}
	.st17{fill:none;stroke:#7C82A0;stroke-width:15;stroke-linejoin:bevel;}
	.st18{fill:none;stroke:#7C82A0;stroke-width:15;}
	.st19{fill-rule:evenodd;clip-rule:evenodd;fill:#3C4FA2;}
	.st20{fill:none;stroke:#3C4FA2;stroke-width:13;}
	.st21{fill:#F6BDB7;}
	.st22{fill:#5F2731;}
	.st23{fill:#311643;}
	.st24{fill:#F1AEAB;}
	.st25{fill:#100846;}
	.st26{fill:#186DAF;fill-opacity:0.67;}
	.st27{fill:#F68319;}
	.st28{fill:#186DAF;}
	.st29{fill:#13145A;}
	.st30{fill:#AEAEAE;}
	.st31{fill:#D0D0D0;}
	.st32{fill:#C8640D;}
	.st33{fill:#202D51;}
	.st34{fill:#DC7515;}
</style>
<g class="st0">
	<path class="st1" d="M339.9,266l-5.2,77.2h-45.7l-5.2-77.2c-0.2-2.4,1.7-4.5,4.1-4.5h48C338.2,261.5,340,263.5,339.9,266z"/>
	<path class="st2" d="M311.8,278.9V331"/>
	<path class="st2" d="M328,278.9l-3.5,52.1"/>
	<path class="st2" d="M295.6,278.9l3.5,52.1"/>
	<path class="st1" d="M341.8,266.3h-60.3v-3.3c0-3,2.3-5.4,5.2-5.4h49.8c2.9,0,5.2,2.4,5.2,5.4V266.3z"/>
	<path class="st3" d="M283.7,268.2h56.2"/>
	<path class="st1" d="M300.7,258.8h2.4v-5.5h-2.4V258.8z"/>
	<path class="st1" d="M319.6,258.3h2.4v-5.5h-2.4V258.3z"/>
	<path class="st1" d="M300.7,254.2H322v-3.1h-21.3V254.2z"/>
	<path class="st4" d="M218.7,184.9c-0.6-2-4.1-1.6-4.1-7.1c0-8.2,11-7.3,11.7-13.5c0.7-6.2-6.4-6-6.7-11.2c-0.2-5.2,5.2-16,13.4-16
		c6.5,0,1.1,8.3,6.3,12c5.2,3.7,11.2-1,14.1,4.8c4.1,8-6.3,17.7-5.3,23.9c1,6.2,7.1,4.7,7.3,11.5s-8.6,8-7.8,13.8
		c0.5,3.7,6.1,2.4,6.4,9.7c0.2,6.1-18.9,13.7-33.4,1.2C206.2,201.5,221.1,192.3,218.7,184.9z"/>
	<path class="st5" d="M234.6,170.1v60.1"/>
	<path class="st5" d="M234.9,210.7l7.5-7.7"/>
	<path class="st5" d="M235,188.7l3.8-3.9"/>
	<path class="st5" d="M234.2,197.5l-6-6.2"/>
	<path class="st5" d="M234.3,178.5l-2.9-3"/>
	<path class="st6" d="M227.3,183.8c0,18.2-7.4,34.8-24,34.8c-16.7,0-24-16.6-24-34.8c0-21.4,12.6-42.6,24-42.6
		C214.7,141.1,227.3,162.4,227.3,183.8z"/>
	<path class="st7" d="M203.2,179.9v51.9"/>
	<path class="st7" d="M203.7,203.6l6.5-7.5"/>
	<path class="st7" d="M202.3,193.4l-6.5-7.5"/>
	<path class="st8" d="M267.3,49.2H1.8c0,0,17.3-30.7,53-30.7c22.5,0,31.5,10.9,52.4,10.9c20.9,0,47.4-27,81.6-27
		C242.3,2.3,267.3,49.2,267.3,49.2z"/>
	<path class="st9" d="M242.2,268h4.5V64h-4.5V268z"/>
	<path class="st10" d="M196.2,69.2l-35.4-12c-1.5-0.5-2.3-2.2-1.8-3.7l1.8-5.5c0.5-1.5,2.1-2.3,3.6-1.8l35.4,12
		c1.5,0.5,2.3,2.2,1.8,3.7l-1.8,5.5C199.3,68.9,197.7,69.7,196.2,69.2z"/>
	<path class="st11" d="M235.8,343.6H253V276h-17.2V343.6z"/>
	<path class="st11" d="M239.5,288.6h9.9v-23.1h-9.9V288.6z"/>
	<path class="st11" d="M240.3,68.9h8.2v-9.8h-8.2V68.9z"/>
	<path class="st12" d="M184.2,53.1c0,0,60.3,13.6,60.3,46.8"/>
	<path class="st11" d="M200.1,65.5l-38.9-13.2c-3.5-1.2-5.4-5.1-4.2-8.6l0.3-1.1c1.2-3.6,4.9-5.5,8.4-4.3l38.9,13.2
		c3.5,1.2,5.4,5.1,4.2,8.6l-0.3,1.1C207.4,64.8,203.6,66.7,200.1,65.5z"/>
	<path class="st13" d="M279,255.2l-0.6,87.8"/>
	<path class="st13" d="M233.6,298.9l90.3,0.6"/>
	<path class="st13" d="M247,267.9l63.5,62.5"/>
	<path class="st13" d="M246.6,330l64.3-61.7"/>
	<path class="st13" d="M128.5,255l15.7,86.5"/>
	<path class="st13" d="M91.9,305.9l88.9-15.2"/>
	<path class="st13" d="M99.3,273.1l74,50.4"/>
	<path class="st13" d="M110.4,334.2l51.8-71.9"/>
	<path class="st14" d="M152.8,298.4c-0.1,8.8-7.5,15.9-16.5,15.9c-9.1-0.1-16.4-7.2-16.3-16.1c0.1-8.8,7.5-15.9,16.5-15.9
		C145.6,282.4,152.9,289.5,152.8,298.4z"/>
	<path class="st15" d="M152.8,298.4c-0.1,8.8-7.5,15.9-16.5,15.9c-9.1-0.1-16.4-7.2-16.3-16.1c0.1-8.8,7.5-15.9,16.5-15.9
		C145.6,282.4,152.9,289.5,152.8,298.4z"/>
	<path class="st14" d="M286.7,299.2c0,4.3-3.6,7.7-8,7.7c-4.4,0-7.9-3.5-7.9-7.8c0-4.3,3.6-7.7,8-7.7
		C283.2,291.5,286.7,294.9,286.7,299.2z"/>
	<path class="st15" d="M286.7,299.2c0,4.3-3.6,7.7-8,7.7c-4.4,0-7.9-3.5-7.9-7.8c0-4.3,3.6-7.7,8-7.7
		C283.2,291.5,286.7,294.9,286.7,299.2z"/>
	<path class="st16" d="M181.6,298.5c-0.2,24.2-20.5,43.8-45.4,43.6s-45-19.9-44.9-44.2c0.2-24.2,20.5-43.8,45.4-43.6
		S181.7,274.3,181.6,298.5z"/>
	<path class="st16" d="M323.9,299.4c-0.2,24.2-20.5,43.8-45.4,43.6c-24.9-0.2-45-19.9-44.9-44.2c0.2-24.2,20.5-43.8,45.4-43.6
		S324,275.2,323.9,299.4z"/>
	<path class="st17" d="M172.6,225.8l21.5,72.8 M194.1,298.6l69.9-58.2l-87.7-1.5l-39.9,59.3L194.1,298.6z"/>
	<path class="st18" d="M228.6,213.7l27.4,0.2l22.7,85.8"/>
	<path class="st19" d="M187.4,230.3l-26.2,2.6c-2.8,0.3-5.3-1.6-5.3-4.1l0-2.7c0-2.3,2.2-4.1,4.8-4.1l26.2,0.2
		c2.6,0,4.7,1.9,4.7,4.1C191.6,228.3,189.8,230,187.4,230.3z"/>
	<path class="st20" d="M195.3,298.6l-0.1,19.4L187,318l16.4,0.1"/>
	<path class="st19" d="M244.8,217.8l-18.1-0.1l0.1-8.1l18.1,0.1L244.8,217.8z"/>
	<path class="st19" d="M267.6,243l8.7,1.7l0.1-15.1l-8.7,1.6c-2.5,0.5-4.3,2.5-4.3,5l0,1.7C263.3,240.4,265.1,242.6,267.6,243z"/>
	<path class="st21" d="M95.5,126.2c-10.9,1.8-24.6-2.3-26.3-4.9c-4,6.1-6,5.9-6,5.9v4.5l-0.9-0.9c-0.3-0.6-0.7-1.2-1.4-1.2
		c-3.6,0-3.9,10.1,2.2,10.6c0.1,0.4,0.2,0.8,0.4,1.1v16.1h13.7v-6.3c0.9,0.3,1.8,0.4,2.6,0.4c5.4,0,14.6-8,15.6-20.7
		C95.5,128.5,95.5,126.2,95.5,126.2z"/>
	<path class="st22" d="M78.9,109c-9.4,0-11.3,5.1-11.3,5.1c-4,0-10.2,7.4-6.5,15.6l0,0l2.1,2.1v-4.5c0,0,2,0.2,6-5.9
		c1.7,2.6,15.3,6.7,26.3,4.9c0,0,0,2.3,0,4.7c0,0,0,0,0,0C99.5,119,91.3,109,78.9,109z"/>
	<path class="st23" d="M74.8,134.3c-0.4,0-0.8-0.3-0.8-0.8v-1.4c0-0.4,0.3-0.8,0.8-0.8c0.4,0,0.8,0.3,0.8,0.8v1.4
		C75.6,134,75.2,134.3,74.8,134.3z"/>
	<path class="st23" d="M88.8,134.3c-0.4,0-0.8-0.3-0.8-0.8v-1.4c0-0.4,0.3-0.8,0.8-0.8c0.4,0,0.8,0.3,0.8,0.8v1.4
		C89.6,134,89.2,134.3,88.8,134.3z"/>
	<path class="st23" d="M80.4,143.2c-1.3,0-2.3-0.5-2.8-1c-0.7-0.6-1-1.2-1-1.2c-0.1-0.2,0-0.4,0.2-0.5c0.2-0.1,0.4,0,0.5,0.2
		c0,0.1,1,2.1,3.8,1.8c0.2,0,0.4,0.1,0.4,0.3c0,0.2-0.1,0.4-0.3,0.4C80.8,143.2,80.6,143.2,80.4,143.2z"/>
	<path class="st24" d="M77.2,157.5v-6.3c-3.1-0.9-6.6-2.9-9.3-4.9L77.2,157.5z"/>
	<path class="st25" d="M109.9,362H95.4L71.1,254.5L46.1,362H31.6l13.5-120.6l53.5,0L109.9,362z"/>
	<path d="M96.6,367.9v10.3c0,1.2,1,2.2,2.2,2.2h29c0.3,0,0.5-0.2,0.5-0.5v-2c0-0.9-0.5-1.7-1.3-2l-16.4-7.9L96.6,367.9L96.6,367.9z"
		/>
	<path d="M44.5,367.9v10.3c0,1.2-1,2.2-2.2,2.2h-29c-0.3,0-0.5-0.2-0.5-0.5v-2c0-0.9,0.5-1.7,1.3-2l16.4-7.9L44.5,367.9L44.5,367.9z
		"/>
	<path class="st21" d="M95.4,362l1.1,5.8h14.1l-0.7-5.8H95.4z"/>
	<path class="st21" d="M31.6,362l-1.1,5.8h14.1l1.6-5.8H31.6z"/>
	<path class="st26" d="M44.8,244l54.3,3.1l-0.5-5.7l-53.5,0"/>
	<path class="st27" d="M61.2,173.3l2.5,3.7l-36.2,38.2c-1,1-2.4,1.6-3.8,1.5l-2.1-0.1c-4.1-0.3-5.2-5.8-1.6-7.7l15.8-11.4
		L61.2,173.3z"/>
	<path class="st28" d="M95.1,189.4l3.5,52H45.1l3.3-37.1l-0.7-19.8l-2.8,2.8l-12.4-9.5l6.6-10.9c1.6-2.7,4-4.8,6.8-6.2l15.2-7.4
		l0.6-0.3l1.7-0.8c0,0,7.9,5.2,13.7,0l3.1,1.2l0.6,0.2l16.1,6.1c2.5,1,4.6,2.9,5.7,5.3l6.8,14.6L95.1,189.4z"/>
	<path class="st29" d="M80.2,153.3c-2.6,1.9-5.7,2.9-9,2.9c-3.5,0-6.7-1.1-9.4-3.2l-0.6,0.3c2.8,2.2,6.3,3.5,10,3.5
		c3.5,0,6.9-1.1,9.6-3.2L80.2,153.3z"/>
	<path class="st29" d="M45.4,162.5c0,2.6-2.1,4.6-4.6,4.6c-0.5,0-1-0.1-1.5-0.3c1.5-2.4,3.5-4.3,5.9-5.7
		C45.3,161.6,45.4,162,45.4,162.5z"/>
	<path class="st30" d="M73.9,226.5l-45.4,15.2c-0.7,0.2-1.5-0.3-1.7-1.1l-8.1-33.5c-0.2-0.9,0.2-1.8,1-2l45.4-15.2
		c0.7-0.2,1.5,0.3,1.7,1.1l8.1,33.5C75,225.4,74.6,226.3,73.9,226.5z"/>
	<path class="st31" d="M74.9,227.5l-46.3,14.7c-0.8,0.2-1.6-0.2-1.8-1.1l-8.3-32.5c-0.2-0.9,0.2-1.7,1-2L65.8,192
		c0.8-0.2,1.6,0.2,1.8,1.1l8.3,32.5C76.1,226.4,75.7,227.3,74.9,227.5z"/>
	<path class="st27" d="M80.7,231.4l-51.1,15.7c-0.8,0.3-1.7-0.3-2-1.2l-9.2-34.5c-0.2-0.9,0.2-1.8,1.1-2.1l51.1-15.7
		c0.8-0.3,1.7,0.3,2,1.2l9.2,34.5C82,230.2,81.6,231.1,80.7,231.4z"/>
	<path class="st32" d="M68.3,193.8l6.4,2.9l-1.5,3.4c-0.8,1.9-3.1,2.7-5,1.9c-1.9-0.9-2.7-3.2-1.7-5.1L68.3,193.8z"/>
	<path class="st27" d="M86.2,155.6l7,2.7l-18.7,40.2c-1,2-3.4,2.9-5.4,2c-2.1-0.9-2.9-3.4-1.9-5.4L86.2,155.6z"/>
	<path class="st33" d="M87.4,188.1H75.7c-0.4,0-0.7-0.3-0.7-0.7v-22c0-0.4,0.3-0.7,0.7-0.7h11.7c0.4,0,0.7,0.3,0.7,0.7v22
		C88.1,187.8,87.8,188.1,87.4,188.1z"/>
	<path class="st21" d="M119.3,202.8l-9.8-23.1l-7.4,5l-10.5-9.2l-2.1-7.4c0-0.2-0.2-0.4-0.4-0.4c-1-0.1-1.9,0.7-1.8,1.8l0.4,3.2
		l-3.9,0.5c-1,0.1-2.1,0-3.1-0.3l-3.6-1.1c-1.1-0.3-2.2,0.3-2.6,1.4l-1.4-0.3c-0.7-0.2-1.4,0.3-1.5,0.9l0,0
		c-0.2,0.6,0.1,1.2,0.7,1.5c-0.3,1.1,0.4,2.3,1.5,2.6l0,0c-0.3,1.1,0.3,2.3,1.3,2.8l2.7,1.3c1,0.5,2.2,0.7,3.3,0.6l6.2-0.5
		l21.1,27.7l0,0c1.9,2.2,5,3,7.8,1.7C119.3,209.8,120.7,206,119.3,202.8z"/>
	<path class="st29" d="M102.9,165.3c-0.5,0.2-1,0.3-1.6,0.3c-2.5,0-4.4-2-4.4-4.5c0-0.5,0.1-1,0.2-1.5c2.5,1,4.5,2.9,5.7,5.3
		L102.9,165.3z"/>
	<path class="st24" d="M103.5,185.8l11.3,6.1l2.6,6.1L103.5,185.8z"/>
	<path class="st34" d="M45.1,242.1l-16-28l3.4-1L45.1,242.1z"/>
	<path class="st24" d="M112.9,210.3c2.4,0,4.4-2,4.4-4.4c0-2.4-2-4.4-4.4-4.4c-2.4,0-4.4,2-4.4,4.4
		C108.5,208.3,110.5,210.3,112.9,210.3z"/>
	<path class="st24" d="M29.5,193.3c0,2.3-1.6,4.2-3.8,4.6l-0.8-1.8c-0.8-1.8-0.7-3.9,0.3-5.7l0.9-1.6
		C28.1,189.4,29.5,191.2,29.5,193.3z"/>
	<path class="st21" d="M57,237l-5.4-2.4c-0.4-0.2-0.7-0.5-0.8-0.9l-0.8-2.2l2.8,0.7l0.9,1.9c0.3,0.6,1,0.9,1.7,0.6l-1.1-3.5
		c-0.2-0.6-0.6-1-1.2-1.3l-5.7-2.8l-9.9-32.3l7.6-7.6l-12.4-9.5l-7.2,12.6c-1,1.7-1.1,3.8-0.3,5.7l20,46l4,0.2
		c0.5,0,0.9-0.2,1.2-0.6l0.4-0.7l2.1,0.2c0.4,0,0.9-0.2,1.2-0.5l0.5-0.7l0.3,0.1c0.8,0.2,1.6-0.2,2-0.9l1.5,0.5
		C58.5,238.6,58,237.5,57,237z"/>
</g>
</svg>
