<?xml version="1.0" encoding="utf-8"?>
<!-- Generator: Adobe Illustrator 24.3.0, SVG Export Plug-In . SVG Version: 6.00 Build 0)  -->
<svg version="1.1" id="Capa_1" xmlns="http://www.w3.org/2000/svg" xmlns:xlink="http://www.w3.org/1999/xlink" x="0px" y="0px"
	 viewBox="0 0 121.9 87.9" style="enable-background:new 0 0 121.9 87.9;" xml:space="preserve">
<style type="text/css">
	.st0{fill:#9FACD2;fill-opacity:0.45;}
	.st1{fill:#7979A8;}
	.st2{fill:#E4E4E4;fill-opacity:0.9;}
</style>
<path class="st0" d="M33.3,1.1h55c17.7,0,32,14.3,32,32v21c0,17.7-14.3,32-32,32h-55c-17.7,0-32-14.3-32-32v-21
	C1.3,15.4,15.7,1.1,33.3,1.1z"/>
<path d="M17.2,58.5c-0.1,0-0.1,0-0.2-0.1c0-0.1-0.1-0.1-0.1-0.2v-6.5h-2.1c-0.1,0-0.1,0-0.2-0.1c0-0.1-0.1-0.1-0.1-0.2v-0.5
	c0-0.1,0-0.1,0.1-0.2c0.1-0.1,0.1-0.1,0.2-0.1h5.3c0.1,0,0.1,0,0.2,0.1c0.1,0,0.1,0.1,0.1,0.2v0.5c0,0.1,0,0.1-0.1,0.2
	c-0.1,0-0.1,0.1-0.2,0.1h-2.1v6.5c0,0.1,0,0.1-0.1,0.2c-0.1,0-0.1,0.1-0.2,0.1H17.2z M22,58.5c-0.1,0-0.1,0-0.2-0.1
	c0-0.1-0.1-0.1-0.1-0.2V53c0-0.1,0-0.1,0.1-0.2c0.1-0.1,0.1-0.1,0.2-0.1h0.5c0.1,0,0.1,0,0.2,0.1c0.1,0.1,0.1,0.1,0.1,0.2v0.5
	c0.3-0.5,0.8-0.7,1.5-0.7h0.4c0.1,0,0.1,0,0.2,0.1C25,52.9,25,53,25,53v0.5c0,0.1,0,0.1-0.1,0.2c0,0-0.1,0.1-0.2,0.1h-0.7
	c-0.4,0-0.7,0.1-0.9,0.4c-0.2,0.2-0.3,0.5-0.3,0.9v3.2c0,0.1,0,0.1-0.1,0.2c-0.1,0-0.1,0.1-0.2,0.1H22z M28.6,58.6
	c-0.4,0-0.7-0.1-1-0.2c-0.3-0.1-0.6-0.3-0.7-0.6c-0.2-0.3-0.3-0.5-0.3-0.8c0-0.5,0.2-0.9,0.6-1.2c0.4-0.3,0.9-0.5,1.6-0.6l1.6-0.2
	v-0.3c0-0.7-0.4-1.1-1.3-1.1c-0.3,0-0.6,0.1-0.8,0.2c-0.2,0.1-0.4,0.3-0.5,0.5c0,0.1-0.1,0.1-0.1,0.1c0,0-0.1,0-0.1,0h-0.5
	c-0.1,0-0.1,0-0.2-0.1c0-0.1-0.1-0.1-0.1-0.2c0-0.2,0.1-0.4,0.2-0.6c0.2-0.2,0.4-0.4,0.7-0.6c0.3-0.2,0.7-0.3,1.2-0.3
	c0.8,0,1.4,0.2,1.8,0.6c0.4,0.4,0.5,0.9,0.5,1.4v3.6c0,0.1,0,0.1-0.1,0.2c0,0-0.1,0.1-0.2,0.1h-0.5c-0.1,0-0.1,0-0.2-0.1
	c0-0.1-0.1-0.1-0.1-0.2v-0.5c-0.2,0.2-0.4,0.4-0.7,0.6C29.5,58.5,29.1,58.6,28.6,58.6z M28.9,57.8c0.5,0,0.9-0.2,1.2-0.5
	c0.3-0.3,0.5-0.8,0.5-1.4v-0.3l-1.3,0.2c-0.5,0.1-0.9,0.2-1.2,0.4c-0.3,0.2-0.4,0.4-0.4,0.6c0,0.3,0.1,0.5,0.4,0.7
	C28.2,57.7,28.5,57.8,28.9,57.8z M34.5,58.5c-0.1,0-0.1,0-0.2-0.1c0-0.1-0.1-0.1-0.1-0.2V53c0-0.1,0-0.1,0.1-0.2
	c0.1-0.1,0.1-0.1,0.2-0.1H35c0.1,0,0.1,0,0.2,0.1c0.1,0,0.1,0.1,0.1,0.2v0.5c0.2-0.3,0.5-0.5,0.7-0.6c0.3-0.1,0.7-0.2,1.1-0.2
	c0.7,0,1.3,0.2,1.6,0.7c0.4,0.4,0.6,1,0.6,1.8v3.1c0,0.1,0,0.1-0.1,0.2c0,0-0.1,0.1-0.2,0.1h-0.6c-0.1,0-0.1,0-0.2-0.1
	c0-0.1-0.1-0.1-0.1-0.2v-3c0-0.5-0.1-0.9-0.4-1.2c-0.2-0.3-0.6-0.4-1.1-0.4c-0.5,0-0.8,0.1-1.1,0.4c-0.3,0.3-0.4,0.7-0.4,1.2v3
	c0,0.1,0,0.1-0.1,0.2c0,0-0.1,0.1-0.2,0.1H34.5z M44.1,58.6c-0.5,0-0.9-0.1-1.3-0.2c-0.3-0.2-0.6-0.4-0.8-0.6
	c-0.2-0.2-0.3-0.4-0.3-0.5c0-0.1,0-0.1,0.1-0.2c0.1,0,0.1-0.1,0.2-0.1h0.5c0.1,0,0.1,0,0.2,0.1c0.2,0.2,0.4,0.4,0.6,0.5
	c0.2,0.1,0.5,0.2,0.8,0.2c0.4,0,0.7-0.1,0.9-0.2c0.2-0.2,0.4-0.4,0.4-0.6c0-0.2-0.1-0.3-0.2-0.4c-0.1-0.1-0.3-0.2-0.5-0.3
	c-0.2-0.1-0.6-0.2-1.1-0.3c-0.6-0.1-1.1-0.3-1.4-0.6c-0.3-0.3-0.4-0.6-0.4-1c0-0.3,0.1-0.5,0.2-0.8c0.2-0.3,0.4-0.5,0.7-0.6
	c0.3-0.2,0.7-0.2,1.2-0.2c0.5,0,0.9,0.1,1.2,0.2c0.3,0.2,0.6,0.3,0.7,0.6c0.2,0.2,0.3,0.4,0.3,0.5c0,0.1,0,0.1-0.1,0.2
	c0,0-0.1,0.1-0.2,0.1h-0.5c-0.1,0-0.2,0-0.2-0.1c-0.1-0.1-0.2-0.2-0.3-0.3c-0.1-0.1-0.2-0.2-0.4-0.2c-0.2-0.1-0.4-0.1-0.6-0.1
	c-0.4,0-0.6,0.1-0.8,0.2c-0.2,0.1-0.3,0.3-0.3,0.6c0,0.2,0,0.3,0.1,0.4c0.1,0.1,0.2,0.2,0.5,0.3c0.2,0.1,0.6,0.2,1,0.3
	c0.7,0.1,1.2,0.4,1.5,0.6c0.3,0.3,0.4,0.6,0.4,1c0,0.3-0.1,0.6-0.3,0.9c-0.2,0.3-0.5,0.5-0.8,0.6C45,58.5,44.5,58.6,44.1,58.6z
	 M49.7,58.5c-0.1,0-0.1,0-0.2-0.1c0-0.1-0.1-0.1-0.1-0.2v-4.6h-0.9c-0.1,0-0.1,0-0.2-0.1c0-0.1-0.1-0.1-0.1-0.2V53
	c0-0.1,0-0.1,0.1-0.2c0.1-0.1,0.1-0.1,0.2-0.1h0.9v-0.5c0-1.2,0.6-1.9,1.9-1.9H52c0.1,0,0.1,0,0.2,0.1c0.1,0,0.1,0.1,0.1,0.2V51
	c0,0.1,0,0.1-0.1,0.2c0,0-0.1,0.1-0.2,0.1h-0.6c-0.3,0-0.6,0.1-0.7,0.3c-0.1,0.2-0.2,0.4-0.2,0.8v0.5h1.4c0.1,0,0.1,0,0.2,0.1
	c0.1,0,0.1,0.1,0.1,0.2v0.4c0,0.1,0,0.1-0.1,0.2c0,0-0.1,0.1-0.2,0.1h-1.4v4.6c0,0.1,0,0.1-0.1,0.2c0,0-0.1,0.1-0.2,0.1H49.7z
	 M56.4,58.6c-0.8,0-1.4-0.2-1.8-0.7c-0.4-0.5-0.7-1.1-0.7-1.9l0-0.4l0-0.4c0.1-0.8,0.3-1.4,0.7-1.9c0.5-0.5,1.1-0.7,1.8-0.7
	c0.8,0,1.4,0.3,1.9,0.8c0.4,0.5,0.7,1.2,0.7,2.1v0.2c0,0.1,0,0.1-0.1,0.2c0,0-0.1,0.1-0.2,0.1h-3.8v0.1c0,0.5,0.2,0.9,0.4,1.2
	c0.3,0.3,0.6,0.5,1.1,0.5c0.3,0,0.6-0.1,0.8-0.2c0.2-0.1,0.4-0.3,0.5-0.4c0.1-0.1,0.1-0.1,0.1-0.2c0,0,0.1,0,0.2,0h0.5
	c0.1,0,0.1,0,0.2,0.1c0,0,0.1,0.1,0.1,0.2c0,0.2-0.1,0.4-0.3,0.6c-0.2,0.2-0.5,0.4-0.8,0.6C57.3,58.5,56.9,58.6,56.4,58.6z
	 M57.9,55.2L57.9,55.2c0-0.5-0.1-0.9-0.4-1.3c-0.3-0.3-0.6-0.5-1.1-0.5c-0.5,0-0.8,0.2-1.1,0.5c-0.3,0.3-0.4,0.7-0.4,1.2v0H57.9z
	 M61.7,58.5c-0.1,0-0.1,0-0.2-0.1c0-0.1-0.1-0.1-0.1-0.2V53c0-0.1,0-0.1,0.1-0.2c0.1-0.1,0.1-0.1,0.2-0.1h0.5c0.1,0,0.1,0,0.2,0.1
	c0.1,0.1,0.1,0.1,0.1,0.2v0.5c0.3-0.5,0.8-0.7,1.5-0.7h0.4c0.1,0,0.1,0,0.2,0.1c0.1,0,0.1,0.1,0.1,0.2v0.5c0,0.1,0,0.1-0.1,0.2
	c0,0-0.1,0.1-0.2,0.1h-0.7c-0.4,0-0.7,0.1-0.9,0.4c-0.2,0.2-0.3,0.5-0.3,0.9v3.2c0,0.1,0,0.1-0.1,0.2c-0.1,0-0.1,0.1-0.2,0.1H61.7z
	 M68.9,58.6c-0.8,0-1.4-0.2-1.8-0.7c-0.4-0.5-0.7-1.1-0.7-1.9l0-0.4l0-0.4c0.1-0.8,0.3-1.4,0.7-1.9c0.5-0.5,1.1-0.7,1.8-0.7
	c0.8,0,1.4,0.3,1.9,0.8c0.4,0.5,0.7,1.2,0.7,2.1v0.2c0,0.1,0,0.1-0.1,0.2c0,0-0.1,0.1-0.2,0.1h-3.8v0.1c0,0.5,0.2,0.9,0.4,1.2
	c0.3,0.3,0.6,0.5,1.1,0.5c0.3,0,0.6-0.1,0.8-0.2c0.2-0.1,0.4-0.3,0.5-0.4c0.1-0.1,0.1-0.1,0.1-0.2c0,0,0.1,0,0.2,0h0.5
	c0.1,0,0.1,0,0.2,0.1c0,0,0.1,0.1,0.1,0.2c0,0.2-0.1,0.4-0.3,0.6c-0.2,0.2-0.5,0.4-0.8,0.6C69.8,58.5,69.4,58.6,68.9,58.6z
	 M70.4,55.2L70.4,55.2c0-0.5-0.1-0.9-0.4-1.3c-0.3-0.3-0.6-0.5-1.1-0.5c-0.5,0-0.8,0.2-1.1,0.5c-0.3,0.3-0.4,0.7-0.4,1.2v0H70.4z
	 M74.2,58.5c-0.1,0-0.1,0-0.2-0.1c0-0.1-0.1-0.1-0.1-0.2V53c0-0.1,0-0.1,0.1-0.2c0.1-0.1,0.1-0.1,0.2-0.1h0.5c0.1,0,0.1,0,0.2,0.1
	C75,52.9,75,53,75,53v0.5c0.2-0.3,0.5-0.5,0.7-0.6c0.3-0.1,0.7-0.2,1.1-0.2c0.7,0,1.3,0.2,1.6,0.7c0.4,0.4,0.6,1,0.6,1.8v3.1
	c0,0.1,0,0.1-0.1,0.2c0,0-0.1,0.1-0.2,0.1h-0.5c-0.1,0-0.1,0-0.2-0.1c0-0.1-0.1-0.1-0.1-0.2v-3c0-0.5-0.1-0.9-0.4-1.2
	c-0.2-0.3-0.6-0.4-1.1-0.4c-0.5,0-0.8,0.1-1.1,0.4c-0.3,0.3-0.4,0.7-0.4,1.2v3c0,0.1,0,0.1-0.1,0.2c0,0-0.1,0.1-0.2,0.1H74.2z
	 M84.1,58.6c-0.8,0-1.4-0.2-1.8-0.7c-0.4-0.4-0.7-1.1-0.7-1.9l0-0.4l0-0.4c0-0.8,0.3-1.4,0.7-1.9c0.4-0.4,1.1-0.7,1.8-0.7
	c0.5,0,1,0.1,1.3,0.3c0.4,0.2,0.6,0.4,0.8,0.7c0.2,0.3,0.3,0.6,0.3,0.8c0,0.1,0,0.1-0.1,0.2c-0.1,0-0.1,0.1-0.2,0.1h-0.5
	c-0.1,0-0.1,0-0.2,0c0,0-0.1-0.1-0.1-0.2c-0.1-0.4-0.3-0.6-0.5-0.7c-0.2-0.2-0.5-0.2-0.9-0.2c-0.5,0-0.8,0.1-1.1,0.4
	c-0.3,0.3-0.4,0.7-0.4,1.3l0,0.4l0,0.4c0,0.6,0.2,1,0.4,1.3c0.3,0.3,0.6,0.4,1.1,0.4c0.3,0,0.6-0.1,0.9-0.2c0.2-0.2,0.4-0.4,0.5-0.8
	c0-0.1,0.1-0.1,0.1-0.2c0,0,0.1-0.1,0.2-0.1h0.5c0.1,0,0.1,0,0.2,0.1c0.1,0,0.1,0.1,0.1,0.2c0,0.3-0.1,0.5-0.3,0.8
	c-0.2,0.3-0.4,0.5-0.8,0.7C85.1,58.5,84.6,58.6,84.1,58.6z M89.2,51.7c-0.1,0-0.1,0-0.2-0.1c0-0.1-0.1-0.1-0.1-0.2v-0.6
	c0-0.1,0-0.1,0.1-0.2c0.1-0.1,0.1-0.1,0.2-0.1h0.7c0.1,0,0.1,0,0.2,0.1c0.1,0.1,0.1,0.1,0.1,0.2v0.6c0,0.1,0,0.1-0.1,0.2
	c-0.1,0-0.1,0.1-0.2,0.1H89.2z M89.3,58.5c-0.1,0-0.1,0-0.2-0.1c0-0.1-0.1-0.1-0.1-0.2V53c0-0.1,0-0.1,0.1-0.2
	c0.1-0.1,0.1-0.1,0.2-0.1h0.5c0.1,0,0.1,0,0.2,0.1C90,52.9,90,53,90,53v5.2c0,0.1,0,0.1-0.1,0.2c0,0-0.1,0.1-0.2,0.1H89.3z
	 M94.4,58.6c-0.4,0-0.7-0.1-1-0.2c-0.3-0.1-0.6-0.3-0.7-0.6c-0.2-0.3-0.3-0.5-0.3-0.8c0-0.5,0.2-0.9,0.6-1.2
	c0.4-0.3,0.9-0.5,1.6-0.6l1.6-0.2v-0.3c0-0.7-0.4-1.1-1.3-1.1c-0.3,0-0.6,0.1-0.8,0.2c-0.2,0.1-0.4,0.3-0.5,0.5
	c0,0.1-0.1,0.1-0.1,0.1c0,0-0.1,0-0.1,0H93c-0.1,0-0.1,0-0.2-0.1c0-0.1-0.1-0.1-0.1-0.2c0-0.2,0.1-0.4,0.2-0.6
	c0.2-0.2,0.4-0.4,0.7-0.6c0.3-0.2,0.7-0.3,1.2-0.3c0.8,0,1.4,0.2,1.8,0.6c0.4,0.4,0.5,0.9,0.5,1.4v3.6c0,0.1,0,0.1-0.1,0.2
	c0,0-0.1,0.1-0.2,0.1h-0.5c-0.1,0-0.1,0-0.2-0.1c0-0.1-0.1-0.1-0.1-0.2v-0.5c-0.2,0.2-0.4,0.4-0.7,0.6
	C95.3,58.5,94.9,58.6,94.4,58.6z M94.7,57.8c0.5,0,0.9-0.2,1.2-0.5c0.3-0.3,0.5-0.8,0.5-1.4v-0.3L95,55.8c-0.5,0.1-0.9,0.2-1.2,0.4
	c-0.3,0.2-0.4,0.4-0.4,0.6c0,0.3,0.1,0.5,0.4,0.7C94,57.7,94.3,57.8,94.7,57.8z M103.6,59.4c-0.1,0-0.1,0-0.2-0.1
	c0,0-0.1-0.1-0.1-0.2c0,0,0-0.1,0-0.1l3.8-9c0.1-0.1,0.2-0.2,0.3-0.2h0.4c0.1,0,0.1,0,0.2,0.1s0.1,0.1,0.1,0.2c0,0.1,0,0.1,0,0.1
	l-3.8,9c-0.1,0.1-0.2,0.2-0.3,0.2H103.6z M15.5,71.5c-0.1,0-0.1,0-0.2-0.1c0-0.1-0.1-0.1-0.1-0.2v-7.2c0-0.1,0-0.1,0.1-0.2
	c0.1-0.1,0.1-0.1,0.2-0.1H18c1.1,0,1.9,0.2,2.4,0.7c0.5,0.5,0.7,1.2,0.8,2.2c0,0.2,0,0.5,0,0.9c0,0.4,0,0.6,0,0.9
	c0,0.7-0.1,1.3-0.4,1.7c-0.2,0.4-0.5,0.8-1,1c-0.4,0.2-1,0.3-1.8,0.3H15.5z M18,70.6c0.5,0,0.9-0.1,1.2-0.2c0.3-0.1,0.5-0.4,0.6-0.7
	c0.1-0.3,0.2-0.7,0.2-1.2c0-0.4,0-0.7,0-0.8c0-0.1,0-0.4,0-0.8c0-0.7-0.2-1.3-0.5-1.6c-0.3-0.3-0.9-0.5-1.6-0.5h-1.6v5.8H18z
	 M26.2,71.6c-0.8,0-1.4-0.2-1.8-0.7c-0.4-0.5-0.7-1.1-0.7-1.9l0-0.4l0-0.4c0.1-0.8,0.3-1.4,0.7-1.9c0.5-0.5,1.1-0.7,1.8-0.7
	c0.8,0,1.4,0.3,1.9,0.8c0.4,0.5,0.7,1.2,0.7,2.1v0.2c0,0.1,0,0.1-0.1,0.2c0,0-0.1,0.1-0.2,0.1h-3.8v0.1c0,0.5,0.2,0.9,0.4,1.2
	c0.3,0.3,0.6,0.5,1.1,0.5c0.3,0,0.6-0.1,0.8-0.2c0.2-0.1,0.4-0.3,0.5-0.4c0.1-0.1,0.1-0.1,0.1-0.2c0,0,0.1,0,0.2,0h0.5
	c0.1,0,0.1,0,0.2,0.1c0,0,0.1,0.1,0.1,0.2c0,0.2-0.1,0.4-0.3,0.6c-0.2,0.2-0.5,0.4-0.8,0.6C27.1,71.5,26.6,71.6,26.2,71.6z
	 M27.7,68.2L27.7,68.2c0-0.5-0.1-0.9-0.4-1.3c-0.3-0.3-0.6-0.5-1.1-0.5s-0.8,0.2-1.1,0.5c-0.3,0.3-0.4,0.7-0.4,1.2v0H27.7z
	 M31.5,73.6c-0.1,0-0.1,0-0.2-0.1c0,0-0.1-0.1-0.1-0.2V66c0-0.1,0-0.1,0.1-0.2c0.1-0.1,0.1-0.1,0.2-0.1H32c0.1,0,0.1,0,0.2,0.1
	c0.1,0,0.1,0.1,0.1,0.2v0.5c0.4-0.6,1-0.8,1.8-0.8c0.8,0,1.3,0.2,1.7,0.7c0.4,0.5,0.6,1.1,0.6,1.9c0,0.1,0,0.2,0,0.4
	c0,0.2,0,0.3,0,0.4c0,0.8-0.2,1.4-0.6,1.9c-0.4,0.5-1,0.7-1.7,0.7c-0.8,0-1.4-0.3-1.8-0.8v2.6c0,0.1,0,0.1-0.1,0.2
	c0,0.1-0.1,0.1-0.2,0.1H31.5z M33.8,70.7c0.5,0,0.9-0.2,1.1-0.5c0.2-0.3,0.4-0.7,0.4-1.3c0-0.1,0-0.2,0-0.3c0-1.4-0.5-2.1-1.5-2.1
	c-0.5,0-0.9,0.2-1.1,0.5c-0.2,0.3-0.4,0.7-0.4,1.2l0,0.4l0,0.4c0,0.4,0.2,0.8,0.4,1.1C32.9,70.6,33.3,70.7,33.8,70.7z M41.2,71.6
	c-0.8,0-1.4-0.2-1.9-0.7c-0.4-0.5-0.7-1.1-0.7-1.8l0-0.5l0-0.5c0-0.7,0.3-1.3,0.7-1.8c0.4-0.5,1.1-0.7,1.9-0.7
	c0.8,0,1.4,0.2,1.9,0.7c0.4,0.5,0.7,1.1,0.7,1.8c0,0.1,0,0.2,0,0.5c0,0.2,0,0.4,0,0.5c0,0.8-0.3,1.4-0.7,1.8
	C42.7,71.4,42.1,71.6,41.2,71.6z M41.2,70.8c0.5,0,0.8-0.1,1.1-0.4c0.3-0.3,0.4-0.7,0.4-1.3c0-0.1,0-0.2,0-0.4c0-0.2,0-0.3,0-0.4
	c0-0.6-0.2-1-0.4-1.3c-0.3-0.3-0.6-0.4-1.1-0.4c-0.5,0-0.8,0.1-1.1,0.4c-0.3,0.3-0.4,0.7-0.4,1.3l0,0.4l0,0.4c0,0.6,0.2,1,0.4,1.3
	C40.4,70.6,40.8,70.8,41.2,70.8z M40.9,64.9c-0.1,0-0.2-0.1-0.2-0.2c0-0.1,0-0.1,0.1-0.1l0.8-1c0.1-0.1,0.1-0.1,0.2-0.2
	c0.1,0,0.1,0,0.2,0h0.7c0.1,0,0.1,0,0.2,0.1c0,0,0.1,0.1,0.1,0.2c0,0.1,0,0.1-0.1,0.1l-1.3,1c-0.1,0.1-0.1,0.1-0.2,0.1
	c-0.1,0-0.1,0-0.2,0H40.9z M48.4,71.6c-0.5,0-0.9-0.1-1.3-0.2c-0.3-0.2-0.6-0.4-0.8-0.6c-0.2-0.2-0.3-0.4-0.3-0.5
	c0-0.1,0-0.1,0.1-0.2c0.1,0,0.1-0.1,0.2-0.1h0.5c0.1,0,0.1,0,0.2,0.1c0.2,0.2,0.4,0.4,0.6,0.5c0.2,0.1,0.5,0.2,0.8,0.2
	c0.4,0,0.7-0.1,0.9-0.2c0.2-0.2,0.4-0.4,0.4-0.6c0-0.2-0.1-0.3-0.2-0.4c-0.1-0.1-0.3-0.2-0.5-0.3c-0.2-0.1-0.6-0.2-1.1-0.3
	c-0.6-0.1-1.1-0.3-1.4-0.6c-0.3-0.3-0.4-0.6-0.4-1c0-0.3,0.1-0.5,0.2-0.8c0.2-0.3,0.4-0.5,0.7-0.6c0.3-0.2,0.7-0.2,1.2-0.2
	c0.5,0,0.9,0.1,1.2,0.2c0.3,0.2,0.6,0.3,0.7,0.5c0.2,0.2,0.3,0.4,0.3,0.5c0,0.1,0,0.1-0.1,0.2c0,0-0.1,0.1-0.2,0.1h-0.5
	c-0.1,0-0.2,0-0.2-0.1c-0.1-0.1-0.2-0.2-0.3-0.3c-0.1-0.1-0.2-0.2-0.4-0.2c-0.2-0.1-0.4-0.1-0.6-0.1c-0.4,0-0.6,0.1-0.8,0.2
	c-0.2,0.1-0.3,0.3-0.3,0.6c0,0.2,0,0.3,0.1,0.4c0.1,0.1,0.2,0.2,0.5,0.3c0.2,0.1,0.6,0.2,1,0.3c0.7,0.1,1.2,0.4,1.5,0.6
	c0.3,0.3,0.4,0.6,0.4,1c0,0.3-0.1,0.6-0.3,0.9c-0.2,0.3-0.5,0.5-0.8,0.6C49.3,71.5,48.8,71.6,48.4,71.6z M53.3,64.7
	c-0.1,0-0.1,0-0.2-0.1c0-0.1-0.1-0.1-0.1-0.2v-0.6c0-0.1,0-0.1,0.1-0.2c0.1-0.1,0.1-0.1,0.2-0.1H54c0.1,0,0.1,0,0.2,0.1
	c0.1,0.1,0.1,0.1,0.1,0.2v0.6c0,0.1,0,0.1-0.1,0.2c-0.1,0-0.1,0.1-0.2,0.1H53.3z M53.4,71.5c-0.1,0-0.1,0-0.2-0.1
	c0-0.1-0.1-0.1-0.1-0.2V66c0-0.1,0-0.1,0.1-0.2c0.1-0.1,0.1-0.1,0.2-0.1h0.5c0.1,0,0.1,0,0.2,0.1c0.1,0,0.1,0.1,0.1,0.2v5.2
	c0,0.1,0,0.1-0.1,0.2c0,0-0.1,0.1-0.2,0.1H53.4z M59.2,71.5c-1.2,0-1.7-0.6-1.7-1.9v-2.9h-0.9c-0.1,0-0.1,0-0.2-0.1
	c0-0.1-0.1-0.1-0.1-0.2V66c0-0.1,0-0.1,0.1-0.2c0.1-0.1,0.1-0.1,0.2-0.1h0.9v-1.8c0-0.1,0-0.1,0.1-0.2c0.1-0.1,0.1-0.1,0.2-0.1h0.5
	c0.1,0,0.1,0,0.2,0.1c0.1,0,0.1,0.1,0.1,0.2v1.8h1.4c0.1,0,0.1,0,0.2,0.1c0.1,0,0.1,0.1,0.1,0.2v0.4c0,0.1,0,0.1-0.1,0.2
	c0,0-0.1,0.1-0.2,0.1h-1.4v2.8c0,0.4,0.1,0.6,0.2,0.8c0.1,0.2,0.3,0.3,0.6,0.3h0.7c0.1,0,0.1,0,0.2,0.1c0.1,0,0.1,0.1,0.1,0.2v0.4
	c0,0.1,0,0.1-0.1,0.2c0,0-0.1,0.1-0.2,0.1H59.2z M64.8,71.6c-0.8,0-1.4-0.2-1.9-0.7c-0.4-0.5-0.7-1.1-0.7-1.8l0-0.5l0-0.5
	c0-0.7,0.3-1.3,0.7-1.8c0.4-0.5,1.1-0.7,1.9-0.7c0.8,0,1.4,0.2,1.9,0.7c0.4,0.5,0.7,1.1,0.7,1.8c0,0.1,0,0.2,0,0.5
	c0,0.2,0,0.4,0,0.5c0,0.8-0.3,1.4-0.7,1.8C66.2,71.4,65.6,71.6,64.8,71.6z M64.8,70.8c0.5,0,0.8-0.1,1.1-0.4
	c0.3-0.3,0.4-0.7,0.4-1.3c0-0.1,0-0.2,0-0.4c0-0.2,0-0.3,0-0.4c0-0.6-0.2-1-0.4-1.3c-0.3-0.3-0.6-0.4-1.1-0.4s-0.8,0.1-1.1,0.4
	c-0.3,0.3-0.4,0.7-0.4,1.3l0,0.4l0,0.4c0,0.6,0.2,1,0.4,1.3C63.9,70.6,64.3,70.8,64.8,70.8z"/>
<ellipse class="st1" cx="59.8" cy="27.5" rx="17.5" ry="15.4"/>
<path class="st2" d="M59.2,37.5c0.6,0.6,1.5,0.6,2.1,0l9.5-9.5c0.6-0.6,0.6-1.5,0-2.1c-0.6-0.6-1.5-0.6-2.1,0l-8.5,8.5l-8.5-8.5
	c-0.6-0.6-1.5-0.6-2.1,0c-0.6,0.6-0.6,1.5,0,2.1L59.2,37.5z M58.8,18.6v17.8h3V18.6H58.8z"/>
</svg>
