<?xml version="1.0" encoding="utf-8"?>
<!-- Generator: Adobe Illustrator 24.3.0, SVG Export Plug-In . SVG Version: 6.00 Build 0)  -->
<svg version="1.1" id="Capa_1" xmlns="http://www.w3.org/2000/svg" xmlns:xlink="http://www.w3.org/1999/xlink" x="0px" y="0px"
	 viewBox="0 0 121.9 87.9" style="enable-background:new 0 0 121.9 87.9;" xml:space="preserve">
<style type="text/css">
	.st0{fill:#969FD6;}
	.st1{fill:#7A79AB;}
	.st2{fill:#E4E4E4;fill-opacity:0.9;}
</style>
<path class="st0" d="M34,1.5h55c17.7,0,32,14.3,32,32v21c0,17.7-14.3,32-32,32H34c-17.7,0-32-14.3-32-32v-21C2,15.8,16.3,1.5,34,1.5
	z"/>
<path d="M17.9,58.8c-0.1,0-0.1,0-0.2-0.1c0-0.1-0.1-0.1-0.1-0.2v-6.5h-2.1c-0.1,0-0.1,0-0.2-0.1c0-0.1-0.1-0.1-0.1-0.2v-0.5
	c0-0.1,0-0.1,0.1-0.2c0.1-0.1,0.1-0.1,0.2-0.1h5.3c0.1,0,0.1,0,0.2,0.1c0.1,0,0.1,0.1,0.1,0.2v0.5c0,0.1,0,0.1-0.1,0.2
	c-0.1,0-0.1,0.1-0.2,0.1h-2.1v6.5c0,0.1,0,0.1-0.1,0.2c-0.1,0-0.1,0.1-0.2,0.1H17.9z M22.7,58.8c-0.1,0-0.1,0-0.2-0.1
	c0-0.1-0.1-0.1-0.1-0.2v-5.2c0-0.1,0-0.1,0.1-0.2c0.1-0.1,0.1-0.1,0.2-0.1h0.5c0.1,0,0.1,0,0.2,0.1c0.1,0.1,0.1,0.1,0.1,0.2v0.5
	c0.3-0.5,0.8-0.7,1.5-0.7h0.4c0.1,0,0.1,0,0.2,0.1c0.1,0,0.1,0.1,0.1,0.2v0.5c0,0.1,0,0.1-0.1,0.2c0,0-0.1,0.1-0.2,0.1h-0.7
	c-0.4,0-0.7,0.1-0.9,0.4c-0.2,0.2-0.3,0.5-0.3,0.9v3.2c0,0.1,0,0.1-0.1,0.2c-0.1,0-0.1,0.1-0.2,0.1H22.7z M29.3,58.9
	c-0.4,0-0.7-0.1-1-0.2c-0.3-0.1-0.6-0.3-0.7-0.6c-0.2-0.3-0.3-0.5-0.3-0.8c0-0.5,0.2-0.9,0.6-1.2c0.4-0.3,0.9-0.5,1.6-0.6l1.6-0.2
	v-0.3c0-0.7-0.4-1.1-1.3-1.1c-0.3,0-0.6,0.1-0.8,0.2c-0.2,0.1-0.4,0.3-0.5,0.5c0,0.1-0.1,0.1-0.1,0.1c0,0-0.1,0-0.1,0h-0.5
	c-0.1,0-0.1,0-0.2-0.1c0-0.1-0.1-0.1-0.1-0.2c0-0.2,0.1-0.4,0.2-0.6c0.2-0.2,0.4-0.4,0.7-0.6c0.3-0.2,0.7-0.3,1.2-0.3
	c0.8,0,1.4,0.2,1.8,0.6c0.4,0.4,0.5,0.9,0.5,1.4v3.6c0,0.1,0,0.1-0.1,0.2c0,0-0.1,0.1-0.2,0.1h-0.5c-0.1,0-0.1,0-0.2-0.1
	c0-0.1-0.1-0.1-0.1-0.2v-0.5c-0.2,0.2-0.4,0.4-0.7,0.6C30.1,58.9,29.8,58.9,29.3,58.9z M29.5,58.1c0.5,0,0.9-0.2,1.2-0.5
	c0.3-0.3,0.5-0.8,0.5-1.4V56l-1.3,0.2c-0.5,0.1-0.9,0.2-1.2,0.4c-0.3,0.2-0.4,0.4-0.4,0.6c0,0.3,0.1,0.5,0.4,0.7
	C28.9,58,29.2,58.1,29.5,58.1z M35.2,58.8c-0.1,0-0.1,0-0.2-0.1c0-0.1-0.1-0.1-0.1-0.2v-5.2c0-0.1,0-0.1,0.1-0.2
	c0.1-0.1,0.1-0.1,0.2-0.1h0.5c0.1,0,0.1,0,0.2,0.1c0.1,0,0.1,0.1,0.1,0.2v0.5c0.2-0.3,0.5-0.5,0.7-0.6c0.3-0.1,0.7-0.2,1.1-0.2
	c0.7,0,1.3,0.2,1.6,0.7c0.4,0.4,0.6,1,0.6,1.8v3.1c0,0.1,0,0.1-0.1,0.2c0,0-0.1,0.1-0.2,0.1h-0.6c-0.1,0-0.1,0-0.2-0.1
	c0-0.1-0.1-0.1-0.1-0.2v-3c0-0.5-0.1-0.9-0.4-1.2c-0.2-0.3-0.6-0.4-1.1-0.4c-0.5,0-0.8,0.1-1.1,0.4C36.1,54.6,36,55,36,55.5v3
	c0,0.1,0,0.1-0.1,0.2c0,0-0.1,0.1-0.2,0.1H35.2z M44.7,58.9c-0.5,0-0.9-0.1-1.3-0.2c-0.3-0.2-0.6-0.4-0.8-0.6
	c-0.2-0.2-0.3-0.4-0.3-0.5c0-0.1,0-0.1,0.1-0.2c0.1,0,0.1-0.1,0.2-0.1h0.5c0.1,0,0.1,0,0.2,0.1c0.2,0.2,0.4,0.4,0.6,0.5
	c0.2,0.1,0.5,0.2,0.8,0.2c0.4,0,0.7-0.1,0.9-0.2c0.2-0.2,0.4-0.4,0.4-0.6c0-0.2-0.1-0.3-0.2-0.4c-0.1-0.1-0.3-0.2-0.5-0.3
	c-0.2-0.1-0.6-0.2-1.1-0.3c-0.6-0.1-1.1-0.3-1.4-0.6c-0.3-0.3-0.4-0.6-0.4-1c0-0.3,0.1-0.5,0.2-0.8c0.2-0.3,0.4-0.5,0.7-0.6
	c0.3-0.2,0.7-0.2,1.2-0.2c0.5,0,0.9,0.1,1.2,0.2c0.3,0.2,0.6,0.3,0.7,0.6c0.2,0.2,0.3,0.4,0.3,0.5c0,0.1,0,0.1-0.1,0.2
	c0,0-0.1,0.1-0.2,0.1h-0.5c-0.1,0-0.2,0-0.2-0.1c-0.1-0.1-0.2-0.2-0.3-0.3c-0.1-0.1-0.2-0.2-0.4-0.2c-0.2-0.1-0.4-0.1-0.6-0.1
	c-0.4,0-0.6,0.1-0.8,0.2c-0.2,0.1-0.3,0.3-0.3,0.6c0,0.2,0,0.3,0.1,0.4c0.1,0.1,0.2,0.2,0.5,0.3c0.2,0.1,0.6,0.2,1,0.3
	c0.7,0.1,1.2,0.4,1.5,0.6c0.3,0.3,0.4,0.6,0.4,1c0,0.3-0.1,0.6-0.3,0.9c-0.2,0.3-0.5,0.5-0.8,0.6C45.6,58.9,45.2,58.9,44.7,58.9z
	 M50.3,58.8c-0.1,0-0.1,0-0.2-0.1c0-0.1-0.1-0.1-0.1-0.2V54h-0.9c-0.1,0-0.1,0-0.2-0.1c0-0.1-0.1-0.1-0.1-0.2v-0.4
	c0-0.1,0-0.1,0.1-0.2c0.1-0.1,0.1-0.1,0.2-0.1h0.9v-0.5c0-1.2,0.6-1.9,1.9-1.9h0.7c0.1,0,0.1,0,0.2,0.1c0.1,0,0.1,0.1,0.1,0.2v0.4
	c0,0.1,0,0.1-0.1,0.2c0,0-0.1,0.1-0.2,0.1H52c-0.3,0-0.6,0.1-0.7,0.3c-0.1,0.2-0.2,0.4-0.2,0.8v0.5h1.4c0.1,0,0.1,0,0.2,0.1
	c0.1,0,0.1,0.1,0.1,0.2v0.4c0,0.1,0,0.1-0.1,0.2c0,0-0.1,0.1-0.2,0.1h-1.4v4.6c0,0.1,0,0.1-0.1,0.2c0,0-0.1,0.1-0.2,0.1H50.3z
	 M57.1,58.9c-0.8,0-1.4-0.2-1.8-0.7c-0.4-0.5-0.7-1.1-0.7-1.9l0-0.4l0-0.4c0.1-0.8,0.3-1.4,0.7-1.9c0.5-0.5,1.1-0.7,1.8-0.7
	c0.8,0,1.4,0.3,1.9,0.8c0.4,0.5,0.7,1.2,0.7,2.1v0.2c0,0.1,0,0.1-0.1,0.2c0,0-0.1,0.1-0.2,0.1h-3.8v0.1c0,0.5,0.2,0.9,0.4,1.2
	c0.3,0.3,0.6,0.5,1.1,0.5c0.3,0,0.6-0.1,0.8-0.2c0.2-0.1,0.4-0.3,0.5-0.4c0.1-0.1,0.1-0.1,0.1-0.2c0,0,0.1,0,0.2,0h0.5
	c0.1,0,0.1,0,0.2,0.1c0,0,0.1,0.1,0.1,0.2c0,0.2-0.1,0.4-0.3,0.6c-0.2,0.2-0.5,0.4-0.8,0.6C57.9,58.9,57.5,58.9,57.1,58.9z
	 M58.6,55.6L58.6,55.6c0-0.5-0.1-0.9-0.4-1.3c-0.3-0.3-0.6-0.5-1.1-0.5c-0.5,0-0.8,0.2-1.1,0.5c-0.3,0.3-0.4,0.7-0.4,1.2v0H58.6z
	 M62.3,58.8c-0.1,0-0.1,0-0.2-0.1c0-0.1-0.1-0.1-0.1-0.2v-5.2c0-0.1,0-0.1,0.1-0.2c0.1-0.1,0.1-0.1,0.2-0.1h0.5c0.1,0,0.1,0,0.2,0.1
	c0.1,0.1,0.1,0.1,0.1,0.2v0.5c0.3-0.5,0.8-0.7,1.5-0.7h0.4c0.1,0,0.1,0,0.2,0.1c0.1,0,0.1,0.1,0.1,0.2v0.5c0,0.1,0,0.1-0.1,0.2
	c0,0-0.1,0.1-0.2,0.1h-0.7c-0.4,0-0.7,0.1-0.9,0.4c-0.2,0.2-0.3,0.5-0.3,0.9v3.2c0,0.1,0,0.1-0.1,0.2c-0.1,0-0.1,0.1-0.2,0.1H62.3z
	 M69.6,58.9c-0.8,0-1.4-0.2-1.8-0.7c-0.4-0.5-0.7-1.1-0.7-1.9l0-0.4l0-0.4c0.1-0.8,0.3-1.4,0.7-1.9c0.5-0.5,1.1-0.7,1.8-0.7
	c0.8,0,1.4,0.3,1.9,0.8c0.4,0.5,0.7,1.2,0.7,2.1v0.2c0,0.1,0,0.1-0.1,0.2c0,0-0.1,0.1-0.2,0.1h-3.8v0.1c0,0.5,0.2,0.9,0.4,1.2
	c0.3,0.3,0.6,0.5,1.1,0.5c0.3,0,0.6-0.1,0.8-0.2c0.2-0.1,0.4-0.3,0.5-0.4c0.1-0.1,0.1-0.1,0.1-0.2c0,0,0.1,0,0.2,0h0.5
	c0.1,0,0.1,0,0.2,0.1c0,0,0.1,0.1,0.1,0.2c0,0.2-0.1,0.4-0.3,0.6c-0.2,0.2-0.5,0.4-0.8,0.6C70.5,58.9,70.1,58.9,69.6,58.9z
	 M71.1,55.6L71.1,55.6c0-0.5-0.1-0.9-0.4-1.3c-0.3-0.3-0.6-0.5-1.1-0.5c-0.5,0-0.8,0.2-1.1,0.5c-0.3,0.3-0.4,0.7-0.4,1.2v0H71.1z
	 M74.9,58.8c-0.1,0-0.1,0-0.2-0.1c0-0.1-0.1-0.1-0.1-0.2v-5.2c0-0.1,0-0.1,0.1-0.2c0.1-0.1,0.1-0.1,0.2-0.1h0.5c0.1,0,0.1,0,0.2,0.1
	c0.1,0,0.1,0.1,0.1,0.2v0.5c0.2-0.3,0.5-0.5,0.7-0.6c0.3-0.1,0.7-0.2,1.1-0.2c0.7,0,1.3,0.2,1.6,0.7c0.4,0.4,0.6,1,0.6,1.8v3.1
	c0,0.1,0,0.1-0.1,0.2c0,0-0.1,0.1-0.2,0.1h-0.5c-0.1,0-0.1,0-0.2-0.1c0-0.1-0.1-0.1-0.1-0.2v-3c0-0.5-0.1-0.9-0.4-1.2
	c-0.2-0.3-0.6-0.4-1.1-0.4c-0.5,0-0.8,0.1-1.1,0.4c-0.3,0.3-0.4,0.7-0.4,1.2v3c0,0.1,0,0.1-0.1,0.2c0,0-0.1,0.1-0.2,0.1H74.9z
	 M84.7,58.9c-0.8,0-1.4-0.2-1.8-0.7c-0.4-0.4-0.7-1.1-0.7-1.9l0-0.4l0-0.4c0-0.8,0.3-1.4,0.7-1.9c0.4-0.4,1.1-0.7,1.8-0.7
	c0.5,0,1,0.1,1.3,0.3c0.4,0.2,0.6,0.4,0.8,0.7c0.2,0.3,0.3,0.6,0.3,0.8c0,0.1,0,0.1-0.1,0.2c-0.1,0-0.1,0.1-0.2,0.1h-0.5
	c-0.1,0-0.1,0-0.2,0c0,0-0.1-0.1-0.1-0.2c-0.1-0.4-0.3-0.6-0.5-0.7c-0.2-0.2-0.5-0.2-0.9-0.2c-0.5,0-0.8,0.1-1.1,0.4
	c-0.3,0.3-0.4,0.7-0.4,1.3l0,0.4l0,0.4c0,0.6,0.2,1,0.4,1.3c0.3,0.3,0.6,0.4,1.1,0.4c0.3,0,0.6-0.1,0.9-0.2c0.2-0.2,0.4-0.4,0.5-0.8
	c0-0.1,0.1-0.1,0.1-0.2c0,0,0.1-0.1,0.2-0.1h0.5c0.1,0,0.1,0,0.2,0.1c0.1,0,0.1,0.1,0.1,0.2c0,0.3-0.1,0.5-0.3,0.8
	c-0.2,0.3-0.4,0.5-0.8,0.7C85.7,58.8,85.3,58.9,84.7,58.9z M89.8,52c-0.1,0-0.1,0-0.2-0.1c0-0.1-0.1-0.1-0.1-0.2v-0.6
	c0-0.1,0-0.1,0.1-0.2c0.1-0.1,0.1-0.1,0.2-0.1h0.7c0.1,0,0.1,0,0.2,0.1c0.1,0.1,0.1,0.1,0.1,0.2v0.6c0,0.1,0,0.1-0.1,0.2
	c-0.1,0-0.1,0.1-0.2,0.1H89.8z M89.9,58.8c-0.1,0-0.1,0-0.2-0.1c0-0.1-0.1-0.1-0.1-0.2v-5.2c0-0.1,0-0.1,0.1-0.2
	c0.1-0.1,0.1-0.1,0.2-0.1h0.5c0.1,0,0.1,0,0.2,0.1c0.1,0,0.1,0.1,0.1,0.2v5.2c0,0.1,0,0.1-0.1,0.2c0,0-0.1,0.1-0.2,0.1H89.9z
	 M95.1,58.9c-0.4,0-0.7-0.1-1-0.2c-0.3-0.1-0.6-0.3-0.7-0.6c-0.2-0.3-0.3-0.5-0.3-0.8c0-0.5,0.2-0.9,0.6-1.2
	c0.4-0.3,0.9-0.5,1.6-0.6l1.6-0.2v-0.3c0-0.7-0.4-1.1-1.3-1.1c-0.3,0-0.6,0.1-0.8,0.2c-0.2,0.1-0.4,0.3-0.5,0.5
	c0,0.1-0.1,0.1-0.1,0.1c0,0-0.1,0-0.1,0h-0.5c-0.1,0-0.1,0-0.2-0.1c0-0.1-0.1-0.1-0.1-0.2c0-0.2,0.1-0.4,0.2-0.6
	c0.2-0.2,0.4-0.4,0.7-0.6c0.3-0.2,0.7-0.3,1.2-0.3c0.8,0,1.4,0.2,1.8,0.6C97.8,54,98,54.4,98,55v3.6c0,0.1,0,0.1-0.1,0.2
	c0,0-0.1,0.1-0.2,0.1h-0.5c-0.1,0-0.1,0-0.2-0.1c0-0.1-0.1-0.1-0.1-0.2v-0.5c-0.2,0.2-0.4,0.4-0.7,0.6
	C95.9,58.9,95.6,58.9,95.1,58.9z M95.3,58.1c0.5,0,0.9-0.2,1.2-0.5c0.3-0.3,0.5-0.8,0.5-1.4V56l-1.3,0.2c-0.5,0.1-0.9,0.2-1.2,0.4
	c-0.3,0.2-0.4,0.4-0.4,0.6c0,0.3,0.1,0.5,0.4,0.7C94.7,58,95,58.1,95.3,58.1z M104.2,59.8c-0.1,0-0.1,0-0.2-0.1c0,0-0.1-0.1-0.1-0.2
	c0,0,0-0.1,0-0.1l3.8-9c0.1-0.1,0.2-0.2,0.3-0.2h0.4c0.1,0,0.1,0,0.2,0.1s0.1,0.1,0.1,0.2c0,0.1,0,0.1,0,0.1l-3.8,9
	c-0.1,0.1-0.2,0.2-0.3,0.2H104.2z M16.2,71.8c-0.1,0-0.1,0-0.2-0.1c0-0.1-0.1-0.1-0.1-0.2v-7.2c0-0.1,0-0.1,0.1-0.2
	c0.1-0.1,0.1-0.1,0.2-0.1h2.5c1.1,0,1.9,0.2,2.4,0.7c0.5,0.5,0.7,1.2,0.8,2.2c0,0.2,0,0.5,0,0.9c0,0.4,0,0.6,0,0.9
	c0,0.7-0.1,1.3-0.4,1.7c-0.2,0.4-0.5,0.8-1,1c-0.4,0.2-1,0.3-1.8,0.3H16.2z M18.7,70.9c0.5,0,0.9-0.1,1.2-0.2
	c0.3-0.1,0.5-0.4,0.6-0.7c0.1-0.3,0.2-0.7,0.2-1.2c0-0.4,0-0.7,0-0.8c0-0.1,0-0.4,0-0.8c0-0.7-0.2-1.3-0.5-1.6
	c-0.3-0.3-0.9-0.5-1.6-0.5H17v5.8H18.7z M26.8,71.9c-0.8,0-1.4-0.2-1.8-0.7c-0.4-0.5-0.7-1.1-0.7-1.9l0-0.4l0-0.4
	c0.1-0.8,0.3-1.4,0.7-1.9c0.5-0.5,1.1-0.7,1.8-0.7c0.8,0,1.4,0.3,1.9,0.8c0.4,0.5,0.7,1.2,0.7,2.1v0.2c0,0.1,0,0.1-0.1,0.2
	c0,0-0.1,0.1-0.2,0.1h-3.8v0.1c0,0.5,0.2,0.9,0.4,1.2c0.3,0.3,0.6,0.5,1.1,0.5c0.3,0,0.6-0.1,0.8-0.2c0.2-0.1,0.4-0.3,0.5-0.4
	c0.1-0.1,0.1-0.1,0.1-0.2c0,0,0.1,0,0.2,0H29c0.1,0,0.1,0,0.2,0.1c0,0,0.1,0.1,0.1,0.2c0,0.2-0.1,0.4-0.3,0.6
	c-0.2,0.2-0.5,0.4-0.8,0.6C27.7,71.9,27.3,71.9,26.8,71.9z M28.3,68.6L28.3,68.6c0-0.5-0.1-0.9-0.4-1.3c-0.3-0.3-0.6-0.5-1.1-0.5
	S26,67,25.7,67.3c-0.3,0.3-0.4,0.7-0.4,1.2v0H28.3z M32.1,73.9c-0.1,0-0.1,0-0.2-0.1c0,0-0.1-0.1-0.1-0.2v-7.3c0-0.1,0-0.1,0.1-0.2
	c0.1-0.1,0.1-0.1,0.2-0.1h0.5c0.1,0,0.1,0,0.2,0.1c0.1,0,0.1,0.1,0.1,0.2v0.5c0.4-0.6,1-0.8,1.8-0.8c0.8,0,1.3,0.2,1.7,0.7
	c0.4,0.5,0.6,1.1,0.6,1.9c0,0.1,0,0.2,0,0.4c0,0.2,0,0.3,0,0.4c0,0.8-0.2,1.4-0.6,1.9c-0.4,0.5-1,0.7-1.7,0.7
	c-0.8,0-1.4-0.3-1.8-0.8v2.6c0,0.1,0,0.1-0.1,0.2c0,0.1-0.1,0.1-0.2,0.1H32.1z M34.4,71.1c0.5,0,0.9-0.2,1.1-0.5
	c0.2-0.3,0.4-0.7,0.4-1.3c0-0.1,0-0.2,0-0.3c0-1.4-0.5-2.1-1.5-2.1c-0.5,0-0.9,0.2-1.1,0.5c-0.2,0.3-0.4,0.7-0.4,1.2l0,0.4l0,0.4
	c0,0.4,0.2,0.8,0.4,1.1C33.6,70.9,34,71.1,34.4,71.1z M41.9,71.9c-0.8,0-1.4-0.2-1.9-0.7c-0.4-0.5-0.7-1.1-0.7-1.8l0-0.5l0-0.5
	c0-0.7,0.3-1.3,0.7-1.8c0.4-0.5,1.1-0.7,1.9-0.7c0.8,0,1.4,0.2,1.9,0.7c0.4,0.5,0.7,1.1,0.7,1.8c0,0.1,0,0.2,0,0.5
	c0,0.2,0,0.4,0,0.5c0,0.8-0.3,1.4-0.7,1.8C43.3,71.7,42.7,71.9,41.9,71.9z M41.9,71.1c0.5,0,0.8-0.1,1.1-0.4
	c0.3-0.3,0.4-0.7,0.4-1.3c0-0.1,0-0.2,0-0.4c0-0.2,0-0.3,0-0.4c0-0.6-0.2-1-0.4-1.3c-0.3-0.3-0.6-0.4-1.1-0.4
	c-0.5,0-0.8,0.1-1.1,0.4c-0.3,0.3-0.4,0.7-0.4,1.3l0,0.4l0,0.4c0,0.6,0.2,1,0.4,1.3C41.1,70.9,41.4,71.1,41.9,71.1z M41.6,65.3
	c-0.1,0-0.2-0.1-0.2-0.2c0-0.1,0-0.1,0.1-0.1l0.8-1c0.1-0.1,0.1-0.1,0.2-0.2c0.1,0,0.1,0,0.2,0h0.7c0.1,0,0.1,0,0.2,0.1
	c0,0,0.1,0.1,0.1,0.2c0,0.1,0,0.1-0.1,0.1l-1.3,1c-0.1,0.1-0.1,0.1-0.2,0.1c-0.1,0-0.1,0-0.2,0H41.6z M49,71.9
	c-0.5,0-0.9-0.1-1.3-0.2c-0.3-0.2-0.6-0.4-0.8-0.6c-0.2-0.2-0.3-0.4-0.3-0.5c0-0.1,0-0.1,0.1-0.2c0.1,0,0.1-0.1,0.2-0.1h0.5
	c0.1,0,0.1,0,0.2,0.1c0.2,0.2,0.4,0.4,0.6,0.5c0.2,0.1,0.5,0.2,0.8,0.2c0.4,0,0.7-0.1,0.9-0.2c0.2-0.2,0.4-0.4,0.4-0.6
	c0-0.2-0.1-0.3-0.2-0.4c-0.1-0.1-0.3-0.2-0.5-0.3c-0.2-0.1-0.6-0.2-1.1-0.3c-0.6-0.1-1.1-0.3-1.4-0.6c-0.3-0.3-0.4-0.6-0.4-1
	c0-0.3,0.1-0.5,0.2-0.8c0.2-0.3,0.4-0.5,0.7-0.6c0.3-0.2,0.7-0.2,1.2-0.2c0.5,0,0.9,0.1,1.2,0.2c0.3,0.2,0.6,0.3,0.7,0.5
	c0.2,0.2,0.3,0.4,0.3,0.5c0,0.1,0,0.1-0.1,0.2c0,0-0.1,0.1-0.2,0.1h-0.5c-0.1,0-0.2,0-0.2-0.1c-0.1-0.1-0.2-0.2-0.3-0.3
	c-0.1-0.1-0.2-0.2-0.4-0.2c-0.2-0.1-0.4-0.1-0.6-0.1c-0.4,0-0.6,0.1-0.8,0.2c-0.2,0.1-0.3,0.3-0.3,0.6c0,0.2,0,0.3,0.1,0.4
	c0.1,0.1,0.2,0.2,0.5,0.3c0.2,0.1,0.6,0.2,1,0.3c0.7,0.1,1.2,0.4,1.5,0.6c0.3,0.3,0.4,0.6,0.4,1c0,0.3-0.1,0.6-0.3,0.9
	c-0.2,0.3-0.5,0.5-0.8,0.6C49.9,71.9,49.5,71.9,49,71.9z M54,65c-0.1,0-0.1,0-0.2-0.1c0-0.1-0.1-0.1-0.1-0.2v-0.6
	c0-0.1,0-0.1,0.1-0.2c0.1-0.1,0.1-0.1,0.2-0.1h0.7c0.1,0,0.1,0,0.2,0.1c0.1,0.1,0.1,0.1,0.1,0.2v0.6c0,0.1,0,0.1-0.1,0.2
	c-0.1,0-0.1,0.1-0.2,0.1H54z M54,71.8c-0.1,0-0.1,0-0.2-0.1c0-0.1-0.1-0.1-0.1-0.2v-5.2c0-0.1,0-0.1,0.1-0.2
	c0.1-0.1,0.1-0.1,0.2-0.1h0.5c0.1,0,0.1,0,0.2,0.1c0.1,0,0.1,0.1,0.1,0.2v5.2c0,0.1,0,0.1-0.1,0.2c0,0-0.1,0.1-0.2,0.1H54z
	 M59.8,71.8c-1.2,0-1.7-0.6-1.7-1.9V67h-0.9c-0.1,0-0.1,0-0.2-0.1c0-0.1-0.1-0.1-0.1-0.2v-0.4c0-0.1,0-0.1,0.1-0.2
	c0.1-0.1,0.1-0.1,0.2-0.1h0.9v-1.8c0-0.1,0-0.1,0.1-0.2c0.1-0.1,0.1-0.1,0.2-0.1h0.5c0.1,0,0.1,0,0.2,0.1c0.1,0,0.1,0.1,0.1,0.2v1.8
	h1.4c0.1,0,0.1,0,0.2,0.1c0.1,0,0.1,0.1,0.1,0.2v0.4c0,0.1,0,0.1-0.1,0.2c0,0-0.1,0.1-0.2,0.1h-1.4v2.8c0,0.4,0.1,0.6,0.2,0.8
	c0.1,0.2,0.3,0.3,0.6,0.3h0.7c0.1,0,0.1,0,0.2,0.1c0.1,0,0.1,0.1,0.1,0.2v0.4c0,0.1,0,0.1-0.1,0.2c0,0-0.1,0.1-0.2,0.1H59.8z
	 M65.4,71.9c-0.8,0-1.4-0.2-1.9-0.7c-0.4-0.5-0.7-1.1-0.7-1.8l0-0.5l0-0.5c0-0.7,0.3-1.3,0.7-1.8c0.4-0.5,1.1-0.7,1.9-0.7
	c0.8,0,1.4,0.2,1.9,0.7c0.4,0.5,0.7,1.1,0.7,1.8c0,0.1,0,0.2,0,0.5c0,0.2,0,0.4,0,0.5c0,0.8-0.3,1.4-0.7,1.8
	C66.8,71.7,66.2,71.9,65.4,71.9z M65.4,71.1c0.5,0,0.8-0.1,1.1-0.4c0.3-0.3,0.4-0.7,0.4-1.3c0-0.1,0-0.2,0-0.4c0-0.2,0-0.3,0-0.4
	c0-0.6-0.2-1-0.4-1.3c-0.3-0.3-0.6-0.4-1.1-0.4c-0.5,0-0.8,0.1-1.1,0.4c-0.3,0.3-0.4,0.7-0.4,1.3l0,0.4l0,0.4c0,0.6,0.2,1,0.4,1.3
	C64.6,70.9,64.9,71.1,65.4,71.1z"/>
<ellipse class="st1" cx="60.5" cy="27.8" rx="17.5" ry="15.4"/>
<path class="st2" d="M59.9,37.9c0.6,0.6,1.5,0.6,2.1,0l9.5-9.5c0.6-0.6,0.6-1.5,0-2.1c-0.6-0.6-1.5-0.6-2.1,0L61,34.7l-8.5-8.5
	c-0.6-0.6-1.5-0.6-2.1,0c-0.6,0.6-0.6,1.5,0,2.1L59.9,37.9z M59.5,19v17.8h3V19H59.5z"/>
</svg>
