<?xml version="1.0" encoding="utf-8"?>
<!-- Generator: Adobe Illustrator 24.3.0, SVG Export Plug-In . SVG Version: 6.00 Build 0)  -->
<svg version="1.1" id="Capa_1" xmlns="http://www.w3.org/2000/svg" xmlns:xlink="http://www.w3.org/1999/xlink" x="0px" y="0px"
	 viewBox="0 0 357.2 300.5" style="enable-background:new 0 0 357.2 300.5;" xml:space="preserve">
<style type="text/css">
	.st0{opacity:0.3;}
	.st1{fill-rule:evenodd;clip-rule:evenodd;fill:#7B9A63;fill-opacity:0.85;}
	.st2{fill:none;stroke:#95794F;stroke-width:8;stroke-linecap:square;}
	.st3{fill-rule:evenodd;clip-rule:evenodd;fill:#E60051;}
	.st4{fill-rule:evenodd;clip-rule:evenodd;fill:#2F0000;}
	.st5{fill-rule:evenodd;clip-rule:evenodd;fill:#961E48;}
	.st6{fill-rule:evenodd;clip-rule:evenodd;fill:#F8F8F8;}
	.st7{fill:none;stroke:#961E48;stroke-width:7;}
	.st8{fill:none;stroke:#F8F8F8;stroke-width:3;}
	.st9{fill-rule:evenodd;clip-rule:evenodd;fill:#5A7C3F;}
	.st10{fill:none;stroke:#866532;stroke-width:8;stroke-linecap:square;}
	.st11{fill-rule:evenodd;clip-rule:evenodd;fill:#7B9A63;}
	.st12{fill-rule:evenodd;clip-rule:evenodd;fill:#A4A7D8;}
	.st13{fill-rule:evenodd;clip-rule:evenodd;fill:#6A6B73;}
	.st14{fill-rule:evenodd;clip-rule:evenodd;fill:#797DBD;}
	.st15{fill:none;stroke:#9597B9;stroke-width:15;stroke-linejoin:bevel;}
	.st16{fill:none;stroke:#000000;stroke-linecap:round;}
	.st17{fill:#D4AE73;}
	.st18{fill:#AF8E5B;}
	.st19{fill:#95794F;}
	.st20{fill:#A78653;}
	.st21{fill:#FFFFFF;filter:url(#Adobe_OpacityMaskFilter);}
	.st22{mask:url(#path-52-inside-1_1_);}
	.st23{fill:#FFFFFF;filter:url(#Adobe_OpacityMaskFilter_1_);}
	.st24{mask:url(#path-54-inside-2_1_);}
	.st25{fill:#FFFFFF;filter:url(#Adobe_OpacityMaskFilter_2_);}
	.st26{mask:url(#path-56-inside-3_1_);}
	.st27{fill:#410218;}
</style>
<g class="st0">
	<path class="st1" d="M85.6,121.2c0,31.2-18.5,45.3-41.3,45.3c-22.8,0-41.3-14-41.3-45.3C3,63,25.5,8.7,44.3,8.7
		C63.1,8.7,85.6,63,85.6,121.2z"/>
	<path class="st2" d="M44.3,70.6v121.7"/>
	<path class="st2" d="M45.1,146l15.3-16.9"/>
	<path class="st2" d="M44.8,91.7l9.5-10.5"/>
	<path class="st2" d="M43.8,121.3l-14.2-15.6"/>
	<path class="st3" d="M218,283.2L218,283.2l-4.9-38H273l4.9,38H218z"/>
	<path class="st4" d="M158.3,284.6c0,8.8-7.2,15.9-16,15.9c-8.9,0-16-7.1-16-15.9c0-8.8,7.2-15.9,16-15.9
		C151.1,268.7,158.3,275.8,158.3,284.6z"/>
	<path class="st4" d="M283,284.6c0,8.8-7.2,15.9-16,15.9s-16-7.1-16-15.9c0-8.8,7.2-15.9,16-15.9S283,275.8,283,284.6z"/>
	<path class="st5" d="M226.9,283.2H51.3c-10.7,0-19.7-7.9-21-18.4l-2.5-19.5l33.9-0.2l0,0L52.4,183h138.1l22.4,61.7l0.2,0.5
		L226.9,283.2z"/>
	<path class="st6" d="M226.9,283.2h-41.4l-3.9-10.7l-1.6-4.4l-8.3-22.9L149.1,183h41.4l22.4,61.7l0.2,0.5L226.9,283.2z"/>
	<path class="st6" d="M158.2,245.1h-43.3l-9.2-62.1h29.9l9.1,24.9l3.1,8.6l7.4,20.4l0.8,2.1L158.2,245.1z"/>
	<path class="st5" d="M238.5,283.2h-68.7v-38h41.4c12.8,0,23.6,9.4,25.3,22.1L238.5,283.2z"/>
	<path class="st5" d="M249.6,245.2v38h-11.1l-4.9-38H249.6z"/>
	<path class="st3" d="M238.5,283.2L238.5,283.2l-4.9-38h41.4c10.6,0,19.5,7.8,20.9,18.2l2.6,19.8H238.5z"/>
	<path class="st6" d="M60.7,283.5c0-10.6,9.1-19.2,20.2-19.2c11.2,0,20.2,8.6,20.2,19.2H60.7z"/>
	<path class="st6" d="M185.4,283.5c0-10.6,9.1-19.2,20.2-19.2c11.2,0,20.2,8.6,20.2,19.2H185.4z"/>
	<path class="st4" d="M221.7,284.6c0,8.8-7.2,15.9-16,15.9c-8.9,0-16-7.1-16-15.9c0-8.8,7.2-15.9,16-15.9
		C214.5,268.7,221.7,275.8,221.7,284.6z"/>
	<path class="st6" d="M291.4,264c0,3.8-2.5,6.9-5.6,6.9c-3.1,0-5.6-3.1-5.6-6.9c0-3.8,2.5-6.9,5.6-6.9
		C288.8,257.1,291.4,260.2,291.4,264z"/>
	<path class="st6" d="M255.8,264c0,3.8-2.5,6.9-5.6,6.9c-3.1,0-5.6-3.1-5.6-6.9c0-3.8,2.5-6.9,5.6-6.9
		C253.3,257.1,255.8,260.2,255.8,264z"/>
	<path class="st4" d="M97,284.6c0,8.8-7.2,15.9-16,15.9c-8.9,0-16-7.1-16-15.9c0-8.8,7.2-15.9,16-15.9C89.8,268.7,97,275.8,97,284.6
		z"/>
	<path class="st5" d="M262.9,266.9h11.7V261h-11.7V266.9z"/>
	<path class="st6" d="M122.4,245.1L122.4,245.1l-30.5,0L82.7,183h30.5L122.4,245.1z"/>
	<path class="st6" d="M80.4,245.1H49.9l-21.3,0l25-62.2h17.6L80.4,245.1z"/>
	<path class="st7" d="M213.1,245.2v2l-24.5-65.5"/>
	<path class="st8" d="M29.1,255.9h163"/>
	<path class="st7" d="M29.6,246.4l24-63.4h136.5"/>
	<path class="st4" d="M161.4,241.9h-18.6c-4.8,0-8.7-3.9-8.7-8.7s3.9-8.7,8.7-8.7h18.6V241.9z"/>
	<path class="st9" d="M215.9,148.2c-1.3-3.1-8.5-2.6-8.5-11.2c0-12.9,22.6-11.5,24-21.2c1.3-9.8-13.2-9.5-13.7-17.7
		c-0.4-8.2,10.6-25.2,27.4-25.2c13.2,0,2.3,13.1,13,19c10.7,5.9,22.9-1.6,28.9,7.6c8.3,12.7-12.9,27.9-10.9,37.6
		c2.1,9.7,14.6,7.4,14.9,18.1c0.4,10.7-17.7,12.6-16,21.7c1.1,5.8,12.5,3.8,13.1,15.2c0.5,9.6-38.9,21.6-68.4,2
		C190.2,174.4,220.9,159.9,215.9,148.2z"/>
	<path class="st10" d="M248.5,124.8v94.8"/>
	<path class="st10" d="M249.1,189l15.5-12.2"/>
	<path class="st10" d="M249.3,154.3l7.9-6.2"/>
	<path class="st10" d="M247.7,168.1l-12.3-9.7"/>
	<path class="st10" d="M247.9,138.1l-6-4.7"/>
	<path class="st11" d="M357,123.4c0,36.9-14.6,70.4-47.8,70.4c-33.2,0-47.8-33.5-47.8-70.4c0-43.3,25.1-86.3,47.8-86.3
		C331.9,37.1,357,80.1,357,123.4z"/>
	<path class="st10" d="M309.2,115.4v105.1"/>
	<path class="st10" d="M310.2,163.4l12.9-15.1"/>
	<path class="st10" d="M307.2,142.9l-12.9-15.1"/>
	<path class="st12" d="M325.8,227h4.4V28.9h-4.4V227z"/>
	<path class="st13" d="M280.7,33.9l-34.7-11.7c-1.5-0.5-2.2-2.1-1.8-3.6l1.7-5.3c0.5-1.5,2.1-2.3,3.5-1.8l34.7,11.7
		c1.5,0.5,2.2,2.1,1.8,3.6l-1.7,5.3C283.7,33.6,282.1,34.4,280.7,33.9z"/>
	<path class="st14" d="M319.6,300.5h16.8v-65.7h-16.8V300.5z"/>
	<path class="st14" d="M323.1,247h9.7v-22.5h-9.7V247z"/>
	<path class="st14" d="M323.9,33.6h8.1v-9.5h-8.1V33.6z"/>
	<path class="st15" d="M268.9,18.2c0,0,59.1,13.3,59.1,45.5"/>
	<path class="st14" d="M284.6,30.3l-38.1-12.8c-3.4-1.1-5.3-4.9-4.1-8.4l0.3-1c1.1-3.5,4.8-5.3,8.3-4.2L289,16.7
		c3.4,1.1,5.3,4.9,4.1,8.4l-0.3,1C291.7,29.6,288,31.5,284.6,30.3z"/>
	<path class="st16" d="M110.8,181.1l-1.9-31.8c-0.1-0.9-0.8-1.6-1.7-1.6l0,0l-10.5-2.1"/>
	<path class="st17" d="M118.8,148.5H91.3v32.7h27.5V148.5z"/>
	<path class="st18" d="M91.3,148.5H76.2v32.7h15.1V148.5z"/>
	<path class="st19" d="M91.3,154H76.2v1h15.1V154z"/>
	<path class="st20" d="M118.8,154H91.3v1h27.5V154z"/>
	<path class="st19" d="M110.1,159.6H100c-0.2,0-0.3-0.2-0.3-0.4v0c0-0.2,0.2-0.4,0.3-0.4h10.1c0.2,0,0.3,0.2,0.3,0.4v0
		C110.5,159.4,110.3,159.6,110.1,159.6z"/>
	<path class="st16" d="M80.4,180.9l1.8-31.7c0-0.9,0.8-1.6,1.7-1.6l0,0l11.3-2.1"/>
	<defs>
		<filter id="Adobe_OpacityMaskFilter" filterUnits="userSpaceOnUse" x="94.1" y="143.8" width="3.6" height="3.5">
			<feColorMatrix  type="matrix" values="1 0 0 0 0  0 1 0 0 0  0 0 1 0 0  0 0 0 1 0"/>
		</filter>
	</defs>
	<mask maskUnits="userSpaceOnUse" x="94.1" y="143.8" width="3.6" height="3.5" id="path-52-inside-1_1_">
		<ellipse class="st21" cx="95.9" cy="145.6" rx="0.8" ry="0.8"/>
	</mask>
	<path class="st22" d="M95.7,145.6c0-0.1,0.1-0.2,0.2-0.2v2c1,0,1.8-0.8,1.8-1.8H95.7z M95.9,145.4c0.1,0,0.2,0.1,0.2,0.2h-2
		c0,1,0.8,1.8,1.8,1.8V145.4z M96.1,145.6c0,0.1-0.1,0.2-0.2,0.2v-2c-1,0-1.8,0.8-1.8,1.8H96.1z M95.9,145.8c-0.1,0-0.2-0.1-0.2-0.2
		h2c0-1-0.8-1.8-1.8-1.8V145.8z"/>
	<defs>
		<filter id="Adobe_OpacityMaskFilter_1_" filterUnits="userSpaceOnUse" x="95.2" y="142.7" width="4.1" height="3.8">
			<feColorMatrix  type="matrix" values="1 0 0 0 0  0 1 0 0 0  0 0 1 0 0  0 0 0 1 0"/>
		</filter>
	</defs>
	<mask maskUnits="userSpaceOnUse" x="95.2" y="142.7" width="4.1" height="3.8" id="path-54-inside-2_1_">
		
			<ellipse transform="matrix(0.7957 -0.6057 0.6057 0.7957 -67.7066 88.4548)" class="st23" cx="97.3" cy="144.6" rx="1.2" ry="0.7"/>
	</mask>
	<path class="st24" d="M97.4,144.5c-0.1-0.1-0.1-0.2-0.1-0.3c0-0.1,0-0.1,0-0.1c0,0-0.1,0.1-0.2,0.2l1.3,1.5
		c0.4-0.3,0.7-0.7,0.8-1.1c0.2-0.4,0.2-1-0.2-1.6L97.4,144.5z M97.1,144.4c-0.1,0.1-0.2,0.1-0.3,0.1c0,0,0,0,0.1,0
		c0.1,0,0.2,0.1,0.2,0.2l-1.6,1.2c0.4,0.5,1.1,0.6,1.5,0.6c0.5-0.1,0.9-0.3,1.3-0.6L97.1,144.4z M97.1,144.7
		c0.1,0.1,0.1,0.2,0.1,0.3c0,0.1,0,0.1,0,0.1c0,0,0.1-0.1,0.2-0.2l-1.3-1.6c-0.4,0.3-0.7,0.7-0.8,1.1c-0.1,0.4-0.2,1,0.2,1.6
		L97.1,144.7z M97.4,144.8c0.1-0.1,0.2-0.1,0.3-0.1c0,0,0,0-0.1,0c-0.1,0-0.2-0.1-0.2-0.2l1.6-1.2c-0.4-0.5-1.1-0.6-1.5-0.6
		c-0.5,0.1-0.9,0.3-1.3,0.6L97.4,144.8z"/>
	<defs>
		<filter id="Adobe_OpacityMaskFilter_2_" filterUnits="userSpaceOnUse" x="92.2" y="142.9" width="4.3" height="3.7">
			<feColorMatrix  type="matrix" values="1 0 0 0 0  0 1 0 0 0  0 0 1 0 0  0 0 0 1 0"/>
		</filter>
	</defs>
	<mask maskUnits="userSpaceOnUse" x="92.2" y="142.9" width="4.3" height="3.7" id="path-56-inside-3_1_">
		
			<ellipse transform="matrix(0.5231 -0.8523 0.8523 0.5231 -78.3618 149.505)" class="st25" cx="94.4" cy="144.8" rx="0.6" ry="1.3"/>
	</mask>
	<path class="st26" d="M94.7,144.9c0.1-0.2,0.3-0.2,0.3-0.3c0.1,0,0.1,0,0.1,0c-0.1,0-0.2-0.1-0.4-0.2l-1.1,1.7
		c0.4,0.3,0.9,0.4,1.3,0.5c0.4,0,1.1,0,1.5-0.6L94.7,144.9z M94.6,144.5c-0.2-0.1-0.3-0.3-0.4-0.3c0,0,0,0,0,0.1
		c0,0.1,0,0.2-0.1,0.4l-1.7-1.1c-0.4,0.6-0.1,1.3,0.1,1.6c0.2,0.4,0.6,0.7,1,1L94.6,144.5z M94.2,144.6c-0.1,0.2-0.3,0.2-0.3,0.3
		c-0.1,0-0.1,0-0.1,0c0.1,0,0.2,0.1,0.4,0.2l1.1-1.7c-0.4-0.3-0.9-0.4-1.3-0.5c-0.4,0-1.1,0-1.5,0.6L94.2,144.6z M94.2,145.1
		c0.2,0.1,0.3,0.3,0.4,0.3c0,0,0,0,0-0.1c0-0.1,0-0.2,0.1-0.4l1.7,1.1c0.4-0.6,0.1-1.3-0.1-1.6c-0.2-0.4-0.6-0.7-1-1L94.2,145.1z"/>
	<path class="st16" d="M95.3,145.6L95.3,145.6c-0.2,0.7-0.8,1.3-1.5,1.5l-0.3,0.1"/>
	<path class="st16" d="M96.4,145.2L96.4,145.2c0.2,0.7,0.8,1.3,1.5,1.5l0.3,0.1"/>
	<path class="st27" d="M79.3,179.9h2.1v1.5h-2.1V179.9z"/>
</g>
</svg>
