<?xml version="1.0" encoding="utf-8"?>
<!-- Generator: Adobe Illustrator 24.3.0, SVG Export Plug-In . SVG Version: 6.00 Build 0)  -->
<svg version="1.1" id="Capa_1" xmlns="http://www.w3.org/2000/svg" xmlns:xlink="http://www.w3.org/1999/xlink" x="0px" y="0px"
	 viewBox="0 0 357.2 388.3" style="enable-background:new 0 0 357.2 388.3;" xml:space="preserve">
<style type="text/css">
	.st0{opacity:0.35;}
	.st1{fill:url(#SVGID_1_);}
	.st2{fill:url(#SVGID_2_);}
	.st3{fill:url(#SVGID_3_);}
	.st4{fill:url(#SVGID_4_);}
	.st5{fill:url(#SVGID_5_);fill-opacity:0.67;}
	.st6{fill:url(#SVGID_6_);fill-opacity:0.6;}
	.st7{fill:url(#SVGID_7_);fill-opacity:0.58;}
	.st8{fill:url(#SVGID_8_);fill-opacity:0.56;}
	.st9{fill:url(#SVGID_9_);fill-opacity:0.56;}
	.st10{fill:url(#SVGID_10_);fill-opacity:0.56;}
	.st11{fill:url(#SVGID_11_);fill-opacity:0.56;}
	.st12{fill:url(#SVGID_12_);fill-opacity:0.57;}
	.st13{fill:#560B31;fill-opacity:0.7;}
	.st14{fill:url(#SVGID_13_);fill-opacity:0.49;}
	.st15{fill:url(#SVGID_14_);fill-opacity:0.5;}
</style>
<g class="st0">
	
		<linearGradient id="SVGID_1_" gradientUnits="userSpaceOnUse" x1="-116.1413" y1="223.4864" x2="-151.0243" y2="108.6154" gradientTransform="matrix(-1 0 0 -1 -46.2694 262.207)">
		<stop  offset="0" style="stop-color:#B04EA4;stop-opacity:0.76"/>
		<stop  offset="1" style="stop-color:#9FACD2;stop-opacity:0"/>
	</linearGradient>
	<ellipse class="st1" cx="81.3" cy="76.3" rx="79.1" ry="74.4"/>
	
		<linearGradient id="SVGID_2_" gradientUnits="userSpaceOnUse" x1="169.9317" y1="76.9932" x2="189.6138" y2="22.0112" gradientTransform="matrix(1 0 0 -1 -127.4173 187.8268)">
		<stop  offset="0" style="stop-color:#DC509B;stop-opacity:0.76"/>
		<stop  offset="1" style="stop-color:#F7DDAA;stop-opacity:0"/>
	</linearGradient>
	<path class="st2" d="M25.9,141.7c0,15,12.4,27.2,27.7,27.2c15.3,0,27.7-12.2,27.7-27.2c0-15-12.4-27.2-27.7-27.2
		C38.3,114.6,25.9,126.7,25.9,141.7z"/>
	
		<linearGradient id="SVGID_3_" gradientUnits="userSpaceOnUse" x1="-152.4243" y1="135.5595" x2="-123.715" y2="193.6882" gradientTransform="matrix(-1 0 0 -1 107.2357 544.6538)">
		<stop  offset="4.229890e-02" style="stop-color:#2B94C2"/>
		<stop  offset="1" style="stop-color:#E6DCEA;stop-opacity:0"/>
		<stop  offset="1" style="stop-color:#F68B25;stop-opacity:0.94"/>
	</linearGradient>
	<ellipse class="st3" cx="234.8" cy="358.7" rx="27.7" ry="27.2"/>
	
		<linearGradient id="SVGID_4_" gradientUnits="userSpaceOnUse" x1="-174.2384" y1="143.5441" x2="-112.3875" y2="199.6938" gradientTransform="matrix(-1 0 0 -1 147.4347 495.0668)">
		<stop  offset="0" style="stop-color:#48499F"/>
		<stop  offset="1" style="stop-color:#C0A67E;stop-opacity:0"/>
	</linearGradient>
	<ellipse class="st4" cx="275" cy="309.1" rx="79.1" ry="74.4"/>
	
		<linearGradient id="SVGID_5_" gradientUnits="userSpaceOnUse" x1="307.554" y1="51.925" x2="298.366" y2="13.449" gradientTransform="matrix(1 0 0 -1 -127.4173 187.8268)">
		<stop  offset="0" style="stop-color:#F11380"/>
		<stop  offset="0.9999" style="stop-color:#F7A7CA;stop-opacity:0.2"/>
		<stop  offset="1" style="stop-color:#D7D6D6;stop-opacity:0"/>
		<stop  offset="1" style="stop-color:#F9C5AD;stop-opacity:0.76"/>
		<stop  offset="1" style="stop-color:#F298C0;stop-opacity:0.2"/>
	</linearGradient>
	<path class="st5" d="M141.5,137l2.1-1.6c5.5-4.2,12.1-6.7,19-7.2l3.6-0.2c10-0.6,20,1.5,28.9,6.1l4.3,3.3c4,3.1,7.4,6.7,10.3,10.8
		l2.4,3.5c2.9,4.1,4.7,8.8,5.3,13.8l1.1,9.7c0.9,3.6,2.3,7.1,4.2,10.3l0.1,0.1h-1c-0.5,0-1.1-0.1-1.6-0.3l-5.3-1.8l3.7,4.4
		c0.6,0.7,0,1.8-0.9,1.6l-0.2,0c-0.5-0.1-1-0.2-1.5-0.4l-2.6-1.2l-16.4,9.4c-8.8,5.1-19,7-29.1,5.5c-12.6-1.9-23.8-9-30.9-19.6
		l-3.9-5.8l-6-10l-5.5-1c-1.1-0.2-1.1-1.7-0.1-2l0.9-0.2c0.6-0.2,1.2-0.4,1.7-0.8l3-2.2l-7.1-1c-0.3,0-0.3-0.4-0.1-0.5
		c2.8-1.2,5-3.3,6.5-5.9l2.3-4.2c1.8-3.3,4.3-6.1,7.2-8.4L141.5,137z"/>
	
		<linearGradient id="SVGID_6_" gradientUnits="userSpaceOnUse" x1="330.6773" y1="-32.9935" x2="297.0233" y2="-47.1415" gradientTransform="matrix(1 0 0 -1 -127.4173 187.8268)">
		<stop  offset="0" style="stop-color:#F11380"/>
		<stop  offset="1" style="stop-color:#F298C0;stop-opacity:0.2"/>
	</linearGradient>
	<path class="st6" d="M150.2,195.9l7.3,3.9c0.8,0.4,1.6,0.7,2.5,0.9l4.5,1c4.9,1.1,9.8,1.4,14.8,1.1l1.2-0.1l7.6-1.6l0.6,1.5
		c3.6,9.2,8.6,17.9,14.7,25.7l8.1,10.3l8.3,11.6l2.7,5l2.2,3.9l-11.8-1.8l-10.2-1.6c-1.8-0.3-3.7-0.3-5.5-0.1
		c-6,0.8-11.3,4.3-14.3,9.6l-3.3,5.7l-19.7-1.4l-10.7,1.4l0.9-17.2c-3.4-4.5-5.7-9.7-6.6-15.2l-0.1-0.5c-0.7-4-0.8-8.2-0.2-12.2
		l1.8-11.8L150.2,195.9z"/>
	
		<linearGradient id="SVGID_7_" gradientUnits="userSpaceOnUse" x1="355.5887" y1="-75.402" x2="269.1217" y2="-128.205" gradientTransform="matrix(1 0 0 -1 -127.4173 187.8268)">
		<stop  offset="0" style="stop-color:#F11380"/>
		<stop  offset="1" style="stop-color:#F298C0;stop-opacity:0.2"/>
	</linearGradient>
	<path class="st7" d="M112.5,291.1c7.3-8.1,16.5-14.3,26.7-18c5.9-2.1,12.1-3.4,18.4-3.8l2.1-0.1l19.5,1.6c0.1,0,0.2-0.1,0.2-0.2
		c3.2-10.3,13.4-16.7,24.1-15l21.2,3.4l0.9,1.4c16.8,27.8-2,63.5-34.4,65.4l-5.9,0.5c-6.2,0.6-12.4,0.5-18.5-0.1l-4.8-0.5l-11.1-1.8
		c-5.4-0.9-10.8-1.3-16.3-1.3h-8.8l-4.2,0.5c-7.6,0.9-15,2.6-22.2,5.2l-8.2,2.9l5.3-14.5c3.3-8.8,8.2-17,14.4-24L112.5,291.1z"/>
	
		<linearGradient id="SVGID_8_" gradientUnits="userSpaceOnUse" x1="271.846" y1="82.8045" x2="279.429" y2="46.3525" gradientTransform="matrix(1 0 0 -1 -127.4173 187.8268)">
		<stop  offset="0" style="stop-color:#F11380"/>
		<stop  offset="1" style="stop-color:#C4C4C4;stop-opacity:0"/>
	</linearGradient>
	<path class="st8" d="M137,116.6l0.1-1.2c0.8-8.6,11.6-11.7,16.9-4.9l11.4,17.7l-7.9,0.8c-1.9,0.2-3.7,0.7-5.4,1.4
		c-1.5,0.6-3,1.5-4.3,2.4l-11.9,8.9L137,116.6z"/>
	
		<linearGradient id="SVGID_9_" gradientUnits="userSpaceOnUse" x1="273.7677" y1="72.2551" x2="277.6747" y2="51.8751" gradientTransform="matrix(1 0 0 -1 -127.4173 187.8268)">
		<stop  offset="0" style="stop-color:#F298C0"/>
		<stop  offset="1" style="stop-color:#A26080;stop-opacity:0.92"/>
	</linearGradient>
	<path class="st9" d="M141.3,121.4l0.1-1.9c0.4-5.3,7.3-7,10.1-2.6l6.5,11.4l-6,2.3l-3,1.5l-7.7,5.1V121.4z"/>
	
		<linearGradient id="SVGID_10_" gradientUnits="userSpaceOnUse" x1="358.0731" y1="68.4095" x2="328.9801" y2="34.9315" gradientTransform="matrix(1 0 0 -1 -127.4173 187.8268)">
		<stop  offset="0" style="stop-color:#F11380"/>
		<stop  offset="1" style="stop-color:#F11380;stop-opacity:0"/>
	</linearGradient>
	<path class="st10" d="M227,135c2.9-7.9-6-15-13-10.3L195.8,135l2.4,1.6c3.9,2.6,7.3,5.9,10.1,9.6l8.5,13.6L227,135z"/>
	
		<linearGradient id="SVGID_11_" gradientUnits="userSpaceOnUse" x1="349.1701" y1="55.6556" x2="331.9721" y2="40.4947" gradientTransform="matrix(1 0 0 -1 -127.4173 187.8268)">
		<stop  offset="0" style="stop-color:#F298C0"/>
		<stop  offset="1" style="stop-color:#A16080;stop-opacity:0.9"/>
	</linearGradient>
	<path class="st11" d="M219.8,137.7l0.2-0.5c1.9-5.1-4-9.5-8.3-6.3l-11.6,6.8l1.4,1.2c2.3,2,4.4,4.3,6.1,6.8l5.4,7.8L219.8,137.7z"
		/>
	
		<linearGradient id="SVGID_12_" gradientUnits="userSpaceOnUse" x1="291.6002" y1="-8.3722" x2="308.8161" y2="51.3378" gradientTransform="matrix(1 0 0 -1 -127.4173 187.8268)">
		<stop  offset="0" style="stop-color:#E2D4CE;stop-opacity:0.77"/>
		<stop  offset="1" style="stop-color:#F9C5AD;stop-opacity:0.76"/>
	</linearGradient>
	<path class="st12" d="M124.7,163.3l6.3,1.6l8-3.4c7-3.7,15.7-1,19.2,6.1l1.5,3.1c0.6,1.2,1,2.4,1.4,3.6l1.4,5.6
		c0.7,2.7,0.8,5.5,0.4,8.2c0,0.2,0.1,0.4,0.3,0.5l7.4,1.4c0.3,0.1,0.6-0.1,0.7-0.4c0.8-1.8,1.7-3.5,2.8-5.2l4.2-6.2l1.2-1.2
		c5.8-5.9,15-7.1,22.1-2.8c1,0.6,1.8,1.3,2.5,2.2l5.4,7l6.7,1.6l-17.7,11c-6.7,4.2-14.4,6.6-22.4,6.9l-0.4,0
		c-5.3,0.2-10.6-0.5-15.7-2.2c-9.2-3.1-17.2-9.1-22.6-17.2l-5.7-8.6L124.7,163.3z"/>
	<path class="st13" d="M162.1,194.4c-0.9-3.1,1.8-6,4.9-5.2l0.4,0.1c2.8,0.7,4,4,2.2,6.3l-1.1,1.3c-0.6,0.7-1.3,1.1-2.2,1.3l-0.1,0
		c-1.1,0.2-2.1-0.2-2.9-1c-0.4-0.4-0.7-0.9-0.8-1.4L162.1,194.4z"/>
	<path class="st13" d="M135.9,165.8c2.6,1.2,5.5,1.6,8.4,1.2l0.5-0.1h2.8c0.6,0,1.3,0.1,1.8,0.4c1.6,0.6,2.9,1.9,3.6,3.4l0.8,1.8
		c0.3,0.7,0.6,1.4,0.8,2.1l0.9,3.1c0.1,0.4-0.4,0.6-0.6,0.3l-2.9-3.7c-0.5-0.6-1-1.2-1.7-1.6c-1.6-1.2-3.4-1.9-5.4-2.1l-0.4,0
		c-0.4,0-0.9-0.1-1.3,0l-3.5,0.3c-0.5,0-1.1,0-1.6,0c-1.4-0.2-2.7-0.8-3.7-1.7l-1.5-1.3l4.9,1.1L135.9,165.8z"/>
	<path class="st13" d="M204.4,182.4c-2.9,0-5.9-0.8-8.4-2.3l-0.5-0.3l-2.7-1.2c-0.6-0.2-1.2-0.4-1.8-0.4c-1.8,0-3.5,0.6-4.8,1.7
		l-1.4,1.2c-0.6,0.5-1.1,1.1-1.6,1.6l-2.1,2.5c-0.2,0.3,0.1,0.7,0.4,0.5l4.2-2.3c0.7-0.4,1.5-0.7,2.2-0.9c1.9-0.4,3.9-0.4,5.8,0.2
		l0.5,0.1c0.4,0.1,0.8,0.3,1.2,0.5l3.1,1.7c0.5,0.3,1.1,0.5,1.7,0.6c1.3,0.3,2.8,0.3,4.1-0.1l2-0.6l-5.1-0.9L204.4,182.4z"/>
	
		<linearGradient id="SVGID_13_" gradientUnits="userSpaceOnUse" x1="281.153" y1="-68.5759" x2="296.3019" y2="-17.0119" gradientTransform="matrix(1 0 0 -1 -127.4173 187.8268)">
		<stop  offset="0" style="stop-color:#E2D4CE"/>
		<stop  offset="0.5319" style="stop-color:#F9C5AD"/>
		<stop  offset="1" style="stop-color:#E2D4CE;stop-opacity:0.7"/>
	</linearGradient>
	<path class="st14" d="M150,195.9c8.4,5,18.2,7.5,28,7l4.2-0.2l0.1,0.2c2.3,3.2,4.2,6.6,5.7,10.2l-6.7-3.6l0.2,0.4
		c2.2,4.2,3.4,8.9,3.4,13.7l-3.6-4.8v7.7l-0.2,1.8c-0.3,2.7-1.4,5.2-3.1,7.3l-1.8-9.1c-4,8-7.1,16.4-9.2,25.1l-0.1,0.5l-1.6,14.5
		l-4.9-4c-3.1-2.5-5.5-5.6-7.1-9.2l-1.8-3.9l-0.7,4.8l-1.8-2.8c-4.1-6.3-6.3-13.7-6.3-21.3c0-1.1,0.1-2.1,0.3-3.2l2.4-14.8
		L150,195.9z"/>
	<path class="st13" d="M151.1,247.8l4.2,13.4l3.1,8.4l-9.4,0.7L151.1,247.8z"/>
	<path class="st13" d="M166.5,252.2l1.5,4.3c0.3,0.8,1.5,0.9,1.8,0.1l2.5-5.1l2.6,5.7c0.3,0.7,1.3,0.8,1.7,0.2l1.2-1.7l2.2-3.1V271
		l-15.2-1.6c0-5.7,0.5-11.4,1.5-17.1L166.5,252.2z"/>
	
		<linearGradient id="SVGID_14_" gradientUnits="userSpaceOnUse" x1="269.8613" y1="-106.6328" x2="222.5864" y2="-147.1958" gradientTransform="matrix(1 0 0 -1 -127.4173 187.8268)">
		<stop  offset="0" style="stop-color:#E2D4CE"/>
		<stop  offset="0.5891" style="stop-color:#F9C5AD;stop-opacity:0.62"/>
		<stop  offset="1" style="stop-color:#E2D4CE;stop-opacity:0.88"/>
	</linearGradient>
	<path class="st15" d="M99.8,308.4c0.1-0.3,0.3-0.6,0.5-0.9l5.1-8c5.3-7.4,11.7-13.9,19-19.4l0.3-0.2l5.8-3.6
		c0.4-0.2,0.7-0.4,1.1-0.5l5.9-1.8l-16.1,17.2l15.2,1.8l-13,10.9l15,1.8l-12.1,9.3l17.9,7.9l-3.5-0.2c-17.1-1-34.1,1.9-49.8,8.6
		L99.8,308.4z"/>
</g>
</svg>
