<?xml version="1.0" encoding="utf-8"?>
<!-- Generator: Adobe Illustrator 24.3.0, SVG Export Plug-In . SVG Version: 6.00 Build 0)  -->
<svg version="1.1" id="Capa_1" xmlns="http://www.w3.org/2000/svg" xmlns:xlink="http://www.w3.org/1999/xlink" x="0px" y="0px"
	 viewBox="0 0 345.8 411" style="enable-background:new 0 0 345.8 411;" xml:space="preserve">
<style type="text/css">
	.st0{opacity:0.35;}
	.st1{fill:url(#SVGID_1_);}
	.st2{fill:url(#SVGID_2_);}
	.st3{fill:url(#SVGID_3_);}
	.st4{fill:url(#SVGID_4_);}
	.st5{fill:url(#SVGID_5_);fill-opacity:0.49;}
	.st6{fill:url(#SVGID_6_);fill-opacity:0.42;}
	.st7{fill:url(#SVGID_7_);fill-opacity:0.4;}
	.st8{fill:url(#SVGID_8_);fill-opacity:0.43;}
	.st9{fill:url(#SVGID_9_);fill-opacity:0.38;}
	.st10{fill:#454E6B;fill-opacity:0.5;}
	.st11{fill:#DC509B;fill-opacity:0.3;}
	.st12{fill:url(#SVGID_10_);fill-opacity:0.38;}
	.st13{fill:#DC509B;fill-opacity:0.32;}
	.st14{fill:#454E6B;fill-opacity:0.58;}
	.st15{fill:url(#SVGID_11_);fill-opacity:0.3;}
	.st16{fill:url(#SVGID_12_);fill-opacity:0.3;}
	.st17{fill:url(#SVGID_13_);fill-opacity:0.29;}
</style>
<g class="st0">
	
		<linearGradient id="SVGID_1_" gradientUnits="userSpaceOnUse" x1="400.074" y1="220.0963" x2="400.074" y2="62.4259" gradientTransform="matrix(1 0 0 -1 -133.0866 222.4882)">
		<stop  offset="0" style="stop-color:#F6E248;stop-opacity:0.87"/>
		<stop  offset="1" style="stop-color:#F93D3D;stop-opacity:0"/>
	</linearGradient>
	<ellipse class="st1" cx="267" cy="81.2" rx="76.7" ry="78.8"/>
	
		<linearGradient id="SVGID_2_" gradientUnits="userSpaceOnUse" x1="439.4544" y1="103.914" x2="417.1304" y2="46.915" gradientTransform="matrix(1 0 0 -1 -133.0866 222.4882)">
		<stop  offset="0" style="stop-color:#F79C11;stop-opacity:0.87"/>
		<stop  offset="1" style="stop-color:#F7DDAA;stop-opacity:0"/>
	</linearGradient>
	<path class="st2" d="M320.7,150.6c0,15.9-12,28.8-26.8,28.8c-14.8,0-26.8-12.9-26.8-28.8c0-15.9,12-28.8,26.8-28.8
		C308.6,121.8,320.7,134.7,320.7,150.6z"/>
	
		<linearGradient id="SVGID_3_" gradientUnits="userSpaceOnUse" x1="235.7341" y1="-201.8615" x2="256.5741" y2="-143.5235" gradientTransform="matrix(1 0 0 -1 -133.0866 222.4882)">
		<stop  offset="0" style="stop-color:#A17EBB"/>
		<stop  offset="1" style="stop-color:#E6DCEA;stop-opacity:0"/>
	</linearGradient>
	<ellipse class="st3" cx="118.3" cy="380.6" rx="26.8" ry="28.8"/>
	
		<linearGradient id="SVGID_4_" gradientUnits="userSpaceOnUse" x1="156.8862" y1="-151.6285" x2="221.618" y2="-97.9165" gradientTransform="matrix(1 0 0 -1 -133.0866 222.4882)">
		<stop  offset="0" style="stop-color:#68BFAA;stop-opacity:0.88"/>
		<stop  offset="1" style="stop-color:#C3E0D7;stop-opacity:0"/>
	</linearGradient>
	<ellipse class="st4" cx="79.3" cy="328" rx="76.7" ry="78.8"/>
	
		<linearGradient id="SVGID_5_" gradientUnits="userSpaceOnUse" x1="304.259" y1="-27.6414" x2="408.175" y2="174.0305" gradientTransform="matrix(1 0 0 -1 -133.0866 222.4882)">
		<stop  offset="0" style="stop-color:#17268A"/>
		<stop  offset="0.9766" style="stop-color:#DDE2EB;stop-opacity:0.2"/>
	</linearGradient>
	<path class="st5" d="M243.5,200.8c0-8.5-3-16.8-8.4-23.4l-49.8-60.5l-11.6-9l-5.9,0.5c-15.5,1.4-29.2,10.6-36.4,24.4l-3.1,18
		c-0.2,1.2-0.3,2.4-0.3,3.6v1.5c0,3.1-2.5,5.7-5.7,5.7c-1.3,0-2.6,0.5-3.6,1.3l-15.9,13.2c-8.7,7.2-13.8,18-13.8,29.4l-2.4,55.2
		v15.6c0,9.6,1.4,19.2,4.1,28.5l3.1,10.3c3.6,3.1,5.3,7.8,4.6,12.5l-2.2,13.5l-1.3,1c-3.8,2.9-6.5,6.9-7.7,11.5
		c-0.4,1.4,0.5,2.9,1.9,3.3l10.5,3.2l16.4,7.1l12-4.7l19.7-2.4l-4.8-19.1l-3.4-15.3c13.6-17,15-40.6,3.6-59.1l-0.2-0.3l2.4-9.9
		l4,4.2c1.8,1.9,3,4.1,3.6,6.6c0.9,3.9,3.5,7.2,6.9,9.2l6.1,3.5l2.2,7.2c0.7,2.3,0.6,4.8-0.4,7.1l-3.9,8.7c-1.2,2.6-1.8,5.4-1.8,8.2
		v14.6l-3.8,15.3l-10.6,5.4c2.6,3.7,7.2,5.6,11.7,4.8l2.8-0.5c2.8-0.5,5.3,2,4.7,4.9l-0.9,4.5l13.5,9.9l12.5-2.8h18.8l8.7-2.4l7-8.7
		l-3.1-9.4c-2.4-7.3-1.4-15.3,2.7-21.8l11.8-18.5c3.8-5.9,6-12.6,6.4-19.6l0.7-7.1l0.2-2.6c0.3-3.4,0.2-6.9-0.2-10.3l-1.4-10.4
		c-7.1-3.5-11.6-10.6-11.6-18.5v-1.5c0-2.7,0.5-5.4,1.4-7.9L243.5,200.8z"/>
	
		<linearGradient id="SVGID_6_" gradientUnits="userSpaceOnUse" x1="292.4521" y1="6.2898" x2="301.7051" y2="-40.9332" gradientTransform="matrix(1 0 0 -1 -133.0866 222.4882)">
		<stop  offset="0" style="stop-color:#454E6B"/>
		<stop  offset="1" style="stop-color:#324499;stop-opacity:0.33"/>
	</linearGradient>
	<path class="st6" d="M185.3,217.5c0-5.3-5.9-8.5-10.3-5.5l-3.7,2.5c-5.1,3.4-11.8,3.1-16.6-0.8c-4.2-3.4-9.4-5.3-14.7-5.3h-1.5
		c-1.5,0-2.7,1.2-2.7,2.7V224c0,4.9,1.2,9.8,3.6,14.2l4.8,8.9c1.1,2.1,3,3.8,5.3,4.6l12.6,4.7c1.9,0.7,3.9,1.1,5.9,1.1h1.3
		c9.7,0,18.5,6,21.9,15.1l-5.3-30.9c-0.3-1.7-0.4-3.4-0.4-5.1V217.5z"/>
	
		<linearGradient id="SVGID_7_" gradientUnits="userSpaceOnUse" x1="217.5115" y1="-28.7926" x2="227.259" y2="-1.7866" gradientTransform="matrix(1 0 0 -1 -133.0866 222.4882)">
		<stop  offset="0" style="stop-color:#324499;stop-opacity:0.63"/>
		<stop  offset="1" style="stop-color:#9FACD2;stop-opacity:0.44"/>
	</linearGradient>
	<path class="st7" d="M98.9,212c-0.2-2.7-1-5.4-2.2-7.8l-6.3-11.9l-3.4,66c8.3,0,14.9-7.1,14.2-15.4L98.9,212z"/>
	
		<linearGradient id="SVGID_8_" gradientUnits="userSpaceOnUse" x1="400.7248" y1="-42.762" x2="413.2138" y2="25.227" gradientTransform="matrix(1 0 0 -1 -133.0866 222.4882)">
		<stop  offset="0" style="stop-color:#182689"/>
		<stop  offset="1" style="stop-color:#182689;stop-opacity:0.2"/>
	</linearGradient>
	<path class="st8" d="M294,262.1l-7.8-26.3c-3.1-10.3-11.4-18.2-21.8-20.6l-3.9-0.9l-20.3-4.2l-7.2,19.6l-1,4.2v5.4
		c0.2,3.4,1.2,6.7,3,9.6l0.8,1.3l2.9,3.3l2,1.5c0.1,0.1,0.3,0.2,0.4,0.3l2.4,1.3l1,7.3l1,6.8v5L244,289l0.1,1
		c0.3,3.4,1.1,6.7,2.5,9.8l3,6.8c0.8,1.7,1.3,3.6,1.5,5.5l1.9,14.2c0.1,0.9,0.1,1.8,0,2.7l-1.8,12.6c-0.3,1.9-1.2,3.7-2.7,5
		c-5.5,5-2.3,14.2,5.2,14.5l37.5,1.8l-1.8-13.8c-0.4-3-0.3-6.1,0.2-9.2l3.1-17.2c0.9-5.2,0.5-10.6-1.4-15.6l-2.4-6.6
		c-2.2-6.1-2.4-12.7-0.6-18.9L294,262.1z"/>
	
		<linearGradient id="SVGID_9_" gradientUnits="userSpaceOnUse" x1="395.5673" y1="-56.8052" x2="396.4913" y2="11.5628" gradientTransform="matrix(1 0 0 -1 -133.0866 222.4882)">
		<stop  offset="0" style="stop-color:#324499"/>
		<stop  offset="1" style="stop-color:#8E9CCA;stop-opacity:0"/>
	</linearGradient>
	<path class="st9" d="M289.7,245.6l-7-20.5l-1.1-2.5c-0.2-0.5-0.6-0.9-1-1.2l-1.6-1.1c-0.9-0.7-1.9-1.2-2.9-1.6l-3.5-1.5l-7.9-1.4
		l-4.3-1.4l-20.2-4.5l-7.5,20.3l-0.5,4l-0.5,5.4l1,4.2l1.7,4.5l2.4,3.5l3,2.5c0.4,0.3,0.8,0.7,1.3,0.9l2.4,1.5l1.9,14.9v7.7
		c0,0.2,0,0.5-0.1,0.7l-1.2,7.9l4.6-9.2l1.3-6.2c0.7-3.3,0.6-6.8-0.5-10.1l-2.9-9.4c-0.2-0.8-0.6-1.4-1.2-2l-7.5-7.7
		c-0.5-0.5-0.8-1.2-0.8-2v-4.4c0-2,2.7-2.6,3.5-0.8c0.2,0.4,0.6,0.8,1,0.9l7,2.6l14.7-12.2c0.6-0.5,1.3,0.3,0.9,0.8l-5.2,7.1
		c-1.7,2.4,0.5,5.6,3.3,4.8c1.4-0.4,2.8-0.3,4.1,0.3l8.1,3.6c2.5,1.1,4.8,2.7,6.7,4.8l12.6,13.7L289.7,245.6z"/>
	<path class="st10" d="M185.7,278.6l-11.3,2.1l-1.2,15.3l4.3,27.3l-1.9,5.2l-4.6,12l-4.1,10.1l4.1-4l13.2-21.9l-6.7-22.2v-19.6
		L185.7,278.6z"/>
	<path class="st11" d="M286,361.6c0-2.7-2.2-4.9-4.9-4.9H279c-1,0-2.1-0.2-3-0.7l-0.6-0.3c-2.4-1.2-5.1-1.3-7.6-0.4l-4,1.4l-6.7-2.8
		c-3,0-5.9-0.9-8.3-2.6l-0.1-0.1l-5.1,2.6c-2.3,2,0.2,5.6,2.9,4.1l2.2-1.3l2.4,2.1L286,361.6z"/>
	<path class="st11" d="M213.4,349.1l-5.3,5.9l-2.4-5.2l-18.2,6.1c-1.3,0.4-2.7-0.1-3.5-1.2l-2.7-4.3c-0.9-1.4-2.9-1.2-3.5,0.3
		l-1.9,4.3v-6.6l-2.9-1.2l-2.9,9.9l2.9,3.8l6.3,4.2l7.2,0.5v-2c0-0.3,0.2-0.7,0.5-0.8c1.8-1,4.2-0.3,5.1,1.6l0.4,0.8l3.4,0.4
		c0.4,0.1,0.9-0.1,1.2-0.3l1.7-1.3c2.1-1.6,5-1.2,6.6,0.9c0.2,0.2,0.5,0.3,0.7,0.2l7.3-4h5.8l2.2-2.4V355L213.4,349.1z"/>
	<path class="st11" d="M140.7,342.8h-7.5l-1.2,2.6l-1.4-1.9l-6,3.8l-7.7,4.5v-6.1l-13.7,4.7l-2.8-1.7c-1-0.6-2.2-0.6-3.1,0l-4.9,3.1
		l0.7,5.2h5.8l4.3,1.6c0.9-1.1,2.7-1,3.4,0.3l2,3.6c0.1,0.2,0.3,0.4,0.5,0.4l6.9,2.4c0.6,0.2,1.3,0.1,1.8-0.2l2.3-1.6l6.7-5.4
		l5.8-7.8h1.7v5.9h5.5h4.1L140.7,342.8z"/>
	
		<linearGradient id="SVGID_10_" gradientUnits="userSpaceOnUse" x1="321.3431" y1="79.6599" x2="338.2951" y2="97.9239" gradientTransform="matrix(1 0 0 -1 -133.0866 222.4882)">
		<stop  offset="0" style="stop-color:#4A568F"/>
		<stop  offset="1" style="stop-color:#C0C7E1;stop-opacity:0"/>
	</linearGradient>
	<path class="st12" d="M186,117.4l-13-9.7l-16.6,3.1l-7.2,3.1h2.2c13.3,0,25.6,7.2,31.9,18.6c9.9,4.5,15.8,14.7,14.7,25.3l-0.6,5.9
		c-0.1,1.3,1.1,2.4,2.4,2.2l6.7-1.2c3.5-0.6,7.1-0.3,10.4,0.9l12.2,4.3l-17.3-21l-6.5-7.5l-6.5-9L186,117.4z"/>
	<path class="st10" d="M191.3,158.2l0.7-2.4H191c-0.9,0-1.7-0.8-1.7-1.7c0-0.6,0.5-1.1,1.1-1.1h3.4v-2.4l-6.7,0.2l-0.7,9.4h2.9
		L191.3,158.2z"/>
	<path class="st13" d="M172.3,145.7l-13.1,3.6c-4.2,1.2-8.7,1.4-13,0.7l-6.2-1l-4.6,4l15.2,4.1c0.9,0.2,1.9,0.2,2.7,0l22.9-6.9
		L172.3,145.7z"/>
	<path class="st13" d="M178.5,156.8H174l-4.1,4.5l-1.1,0.8c-2,1.5-4.8,1.4-6.8-0.1l-5.1-3.1h-4.3l-0.6,0.3
		c-4.2,2.2-9.2,2.4-13.6,0.6l-3.7,0.5l0.5,1.4c0.8,2.3,2.5,4.2,4.7,5.4l1.4,0.8l-3.4,6.8v3.3l-0.5,1.1c-0.5,1.2-0.3,2.5,0.6,3.4
		l9.6,9.4c0.4,0.4,0.9,0.8,1.5,1.1l2.1,1.2c5.9,3.3,13.3,1.1,16.3-5l1.8-3.7c1.2-2.4,1.8-5,1.8-7.6l-9.1-7.1v-2.1l12-0.9
		L178.5,156.8z"/>
	<path class="st10" d="M157.6,165.5l-3.4-0.3c-1.5-0.1-2.8,0.9-3.2,2.3l-1.1,5l6.7-1.6l1-2.6V165.5z"/>
	<path class="st10" d="M147.2,169.6c0.3-1.8-1.1-3.4-3-3.4h-0.6c-0.9,2.2,0.5,4.7,2.9,4.9l0.4,0L147.2,169.6z"/>
	<path class="st14" d="M159.3,184.3l-14.9-2.2l0.2-0.5h6.3l10.8-3L159.3,184.3z"/>
	
		<linearGradient id="SVGID_11_" gradientUnits="userSpaceOnUse" x1="282.2909" y1="-108.2782" x2="269.5719" y2="-35.8122" gradientTransform="matrix(1 0 0 -1 -133.0866 222.4882)">
		<stop  offset="0" style="stop-color:#1B2453;stop-opacity:0.97"/>
		<stop  offset="1" style="stop-color:#4A568F"/>
	</linearGradient>
	<path class="st15" d="M137.6,249.9l7.9,6.1l-2.9,10.8l4.1,6.8l2,6c0.6,1.8,1,3.7,1.3,5.6l0.8,6.6v4.9c0,2.1-0.2,4.2-0.7,6.2
		l-0.4,1.8c-0.1,0.5-0.3,1-0.5,1.5l-3.3,8.7c-0.3,0.8-0.7,1.5-1.2,2.2l-6,8.4l1.9-28.3L137.6,249.9z"/>
	
		<linearGradient id="SVGID_12_" gradientUnits="userSpaceOnUse" x1="302.3416" y1="-137.9968" x2="289.6226" y2="-65.5308" gradientTransform="matrix(1 0 0 -1 -133.0866 222.4882)">
		<stop  offset="0" style="stop-color:#1B2453;stop-opacity:0.97"/>
		<stop  offset="1" style="stop-color:#4A568F"/>
	</linearGradient>
	<path class="st16" d="M171.1,284.8l3.4-4l-1.2,14.9l1.7,11.8l0.7,3.8l1,6.4l0.8,4.8c0.1,0.9,0,1.7-0.3,2.6l-1,2.5l-2.2,5.4
		l-2.9,7.8l-1.7,4.2l-2.4,5.7l-1.4-0.7l-7.9,1.9l-2.2-0.3c-1.7-0.3-3.4-1-4.8-2.1l-2.9-2.3l11.1-6.4l3.8-15.8v-18.2l3.6-8.3l3.1-7.1
		L171.1,284.8z"/>
	
		<linearGradient id="SVGID_13_" gradientUnits="userSpaceOnUse" x1="259.838" y1="40.2632" x2="257.065" y2="67.1502" gradientTransform="matrix(1 0 0 -1 -133.0866 222.4882)">
		<stop  offset="0" style="stop-color:#324499"/>
		<stop  offset="1" style="stop-color:#9FACD2;stop-opacity:0.54"/>
	</linearGradient>
	<path class="st17" d="M120.5,161.7c3.1,0.8,6.3-0.9,7.4-4l0.3-1l1.9,21.5l-1.9-4.5L120.5,161.7z"/>
</g>
</svg>
