<?xml version="1.0" encoding="utf-8"?>
<!-- Generator: Adobe Illustrator 24.3.0, SVG Export Plug-In . SVG Version: 6.00 Build 0)  -->
<svg version="1.1" id="Capa_1" xmlns="http://www.w3.org/2000/svg" xmlns:xlink="http://www.w3.org/1999/xlink" x="0px" y="0px"
	 viewBox="0 0 192.8 175.7" style="enable-background:new 0 0 192.8 175.7;" xml:space="preserve">
<style type="text/css">
	.st0{opacity:0.6;}
	.st1{fill:url(#SVGID_1_);}
	.st2{fill:url(#SVGID_2_);}
	.st3{fill:url(#SVGID_3_);}
	.st4{fill:url(#SVGID_4_);}
	.st5{fill:url(#SVGID_5_);}
	.st6{fill:url(#SVGID_6_);}
	.st7{fill:url(#SVGID_7_);}
	.st8{fill:url(#SVGID_8_);}
	.st9{fill:url(#SVGID_9_);}
	.st10{fill:url(#SVGID_10_);}
	.st11{fill:url(#SVGID_11_);}
	.st12{fill:url(#SVGID_12_);}
	.st13{fill:url(#SVGID_13_);}
	.st14{opacity:0.5;fill:url(#SVGID_14_);enable-background:new    ;}
	.st15{fill:#F6E248;fill-opacity:0.96;}
	.st16{fill:#686868;}
	.st17{fill:#C5428A;}
	.st18{fill:#FFFFFF;}
	.st19{fill:#FFFFFF;fill-opacity:0.62;}
	.st20{fill:#F6E248;fill-opacity:0.87;}
	.st21{fill:url(#SVGID_15_);}
	.st22{fill:url(#SVGID_16_);}
	.st23{fill:none;stroke:#000000;stroke-linecap:round;stroke-linejoin:round;}
	.st24{fill:#401782;stroke:#000000;stroke-linecap:round;stroke-linejoin:round;}
	.st25{fill:none;stroke:#401782;stroke-linecap:round;stroke-linejoin:round;}
	.st26{fill:#CAC5D7;stroke:#000000;stroke-linecap:round;stroke-linejoin:round;}
	.st27{fill:#6A65AA;}
	.st28{fill:#401782;}
</style>
<g class="st0">
	
		<linearGradient id="SVGID_1_" gradientUnits="userSpaceOnUse" x1="365.966" y1="-159.7504" x2="386.9667" y2="-193.5374" gradientTransform="matrix(1 4.222393e-03 4.222393e-03 -1 -299.6472 -42.1886)">
		<stop  offset="0" style="stop-color:#F7DC24;stop-opacity:0.81"/>
		<stop  offset="0.474" style="stop-color:#DC509B;stop-opacity:0.76"/>
		<stop  offset="1" style="stop-color:#F93D3D;stop-opacity:0.88"/>
	</linearGradient>
	<path class="st1" d="M75.6,122.4c7.1,0,12.9,5.8,12.9,12.9c0,7.1-5.8,12.8-13,12.8s-12.9-5.8-12.9-12.9
		C62.6,128.1,68.5,122.3,75.6,122.4z"/>
</g>
<g class="st0">
	
		<linearGradient id="SVGID_2_" gradientUnits="userSpaceOnUse" x1="350.8445" y1="-172.5356" x2="371.8452" y2="-206.3226" gradientTransform="matrix(1 4.222393e-03 4.222393e-03 -1 -299.5933 -42.1247)">
		<stop  offset="0" style="stop-color:#F7DC24;stop-opacity:0.81"/>
		<stop  offset="0.474" style="stop-color:#DC509B;stop-opacity:0.76"/>
		<stop  offset="1" style="stop-color:#F93D3D;stop-opacity:0.88"/>
	</linearGradient>
	<path class="st2" d="M60.5,135.1c7.1,0,12.9,5.8,12.9,12.9c0,7.1-5.8,12.8-13,12.8c-7.1,0-12.9-5.8-12.9-12.9
		S53.3,135.1,60.5,135.1z"/>
</g>
<g class="st0">
	
		<linearGradient id="SVGID_3_" gradientUnits="userSpaceOnUse" x1="345.1174" y1="-156.4937" x2="355.3555" y2="-172.3457" gradientTransform="matrix(1 4.222393e-03 4.222393e-03 -1 -299.6971 -42.0791)">
		<stop  offset="0" style="stop-color:#F7DC24;stop-opacity:0.81"/>
		<stop  offset="0.474" style="stop-color:#DC509B;stop-opacity:0.76"/>
		<stop  offset="1" style="stop-color:#F93D3D;stop-opacity:0.88"/>
	</linearGradient>
	<path class="st3" d="M49.6,117.3c3.3,0,6,2.8,5.9,6.2s-2.7,6.2-6,6.1c-3.3,0-6-2.8-5.9-6.2S46.3,117.2,49.6,117.3z"/>
</g>
<g class="st0">
	
		<linearGradient id="SVGID_4_" gradientUnits="userSpaceOnUse" x1="382.2452" y1="-74.5949" x2="403.2459" y2="-108.3816" gradientTransform="matrix(1 4.222393e-03 4.222393e-03 -1 -300.0066 -42.2581)">
		<stop  offset="0" style="stop-color:#F7DC24;stop-opacity:0.81"/>
		<stop  offset="0.474" style="stop-color:#DC509B;stop-opacity:0.76"/>
		<stop  offset="1" style="stop-color:#F93D3D;stop-opacity:0.88"/>
	</linearGradient>
	<path class="st4" d="M91.9,37.2c7.1,0,12.9,5.8,12.9,12.9c0,7.1-5.8,12.8-13,12.8c-7.1,0-12.9-5.8-12.9-12.9
		C78.9,42.9,84.7,37.2,91.9,37.2z"/>
</g>
<g class="st0">
	
		<linearGradient id="SVGID_5_" gradientUnits="userSpaceOnUse" x1="399.0447" y1="-89.5602" x2="410.943" y2="-109.0706" gradientTransform="matrix(1 4.222393e-03 4.222393e-03 -1 -299.9719 -42.3107)">
		<stop  offset="0" style="stop-color:#F7DC24;stop-opacity:0.81"/>
		<stop  offset="0.474" style="stop-color:#DC509B;stop-opacity:0.76"/>
		<stop  offset="1" style="stop-color:#F93D3D;stop-opacity:0.88"/>
	</linearGradient>
	<path class="st5" d="M104.3,50.9c4.2,0,7.5,3.3,7.5,7.4s-3.4,7.3-7.6,7.3c-4.2,0-7.5-3.3-7.5-7.4C96.8,54.1,100.2,50.9,104.3,50.9z
		"/>
</g>
<g class="st0">
	
		<linearGradient id="SVGID_6_" gradientUnits="userSpaceOnUse" x1="418.7328" y1="-185.6716" x2="439.7338" y2="-219.4586" gradientTransform="matrix(1 4.222393e-03 4.222393e-03 -1 -299.5372 -42.4112)">
		<stop  offset="0" style="stop-color:#F7DC24;stop-opacity:0.81"/>
		<stop  offset="0.474" style="stop-color:#DC509B;stop-opacity:0.76"/>
		<stop  offset="1" style="stop-color:#F93D3D;stop-opacity:0.88"/>
	</linearGradient>
	<path class="st6" d="M128.4,148.3c7.1,0,12.9,5.8,12.9,12.9c0,7.1-5.8,12.8-13,12.8c-7.1,0-12.9-5.8-12.9-12.9
		S121.2,148.2,128.4,148.3z"/>
</g>
<g class="st0">
	
		<linearGradient id="SVGID_7_" gradientUnits="userSpaceOnUse" x1="429.3465" y1="-95.7724" x2="450.3475" y2="-129.5588" gradientTransform="matrix(1 4.222393e-03 4.222393e-03 -1 -299.9167 -42.4568)">
		<stop  offset="0" style="stop-color:#F7DC24;stop-opacity:0.81"/>
		<stop  offset="0.474" style="stop-color:#DC509B;stop-opacity:0.76"/>
		<stop  offset="1" style="stop-color:#F93D3D;stop-opacity:0.88"/>
	</linearGradient>
	<path class="st7" d="M139,58.4c7.1,0,12.9,5.8,12.9,12.9c0,7.1-5.8,12.8-13,12.8c-7.1,0-12.9-5.8-12.9-12.9
		C126,64.1,131.8,58.3,139,58.4z"/>
</g>
<g class="st0">
	
		<linearGradient id="SVGID_8_" gradientUnits="userSpaceOnUse" x1="428.7949" y1="-178.3422" x2="438.6239" y2="-196.4162" gradientTransform="matrix(1 4.222393e-03 4.222393e-03 -1 -299.5997 -42.4314)">
		<stop  offset="0" style="stop-color:#F7DC24;stop-opacity:0.81"/>
		<stop  offset="0.474" style="stop-color:#DC509B;stop-opacity:0.76"/>
		<stop  offset="1" style="stop-color:#F93D3D;stop-opacity:0.88"/>
	</linearGradient>
	<path class="st8" d="M133.1,139.9c4.1,0,7.4,2.9,7.4,6.5s-3.3,6.4-7.4,6.4c-4.1,0-7.4-2.9-7.4-6.5S129,139.9,133.1,139.9z"/>
</g>
<g class="st0">
	
		<linearGradient id="SVGID_9_" gradientUnits="userSpaceOnUse" x1="382.6107" y1="-95.082" x2="450.1735" y2="-211.7823" gradientTransform="matrix(1 4.222393e-03 4.222393e-03 -1 -299.7535 -42.3526)">
		<stop  offset="0" style="stop-color:#000000;stop-opacity:0.81"/>
		<stop  offset="0.474" style="stop-color:#F9C5AD;stop-opacity:0.76"/>
		<stop  offset="1" style="stop-color:#35A65E;stop-opacity:0.88"/>
	</linearGradient>
	<path class="st9" d="M114.5,67.2c25.5,0.1,46.1,19.3,46,42.9c-0.1,23.6-20.9,42.7-46.4,42.5s-46.1-19.3-46-42.9
		C68.2,86.1,89,67.1,114.5,67.2z"/>
</g>
<g class="st0">
	
		<linearGradient id="SVGID_10_" gradientUnits="userSpaceOnUse" x1="424.6646" y1="-30.7332" x2="477.9566" y2="-130.3032" gradientTransform="matrix(1 4.222393e-03 4.222393e-03 -1 -300.0593 -42.5022)">
		<stop  offset="0" style="stop-color:#37A22B;stop-opacity:0.81"/>
		<stop  offset="0.474" style="stop-color:#B04EA4;stop-opacity:0.76"/>
		<stop  offset="1" style="stop-color:#383F9A;stop-opacity:0.88"/>
	</linearGradient>
	<path class="st10" d="M149.7,2.3c22.7,0.1,41,15.9,40.9,35.3s-18.5,35.1-41.2,35c-22.7-0.1-41-15.9-40.9-35.3S127.1,2.2,149.7,2.3z
		"/>
</g>
<g class="st0">
	
		<linearGradient id="SVGID_11_" gradientUnits="userSpaceOnUse" x1="335.8968" y1="-102.0824" x2="364.9714" y2="-154.9059" gradientTransform="matrix(1 4.222393e-03 4.222393e-03 -1 -299.8527 -42.0783)">
		<stop  offset="0" style="stop-color:#37A22B;stop-opacity:0.81"/>
		<stop  offset="0.474" style="stop-color:#B04EA4;stop-opacity:0.76"/>
		<stop  offset="1" style="stop-color:#383F9A;stop-opacity:0.88"/>
	</linearGradient>
	<path class="st11" d="M49.4,67.7c11.9,0.1,21.4,8.5,21.4,19s-9.7,18.8-21.5,18.8s-21.4-8.5-21.4-19C27.9,76.1,37.5,67.6,49.4,67.7z
		"/>
</g>
<g class="st0">
	
		<linearGradient id="SVGID_12_" gradientUnits="userSpaceOnUse" x1="329.8596" y1="-109.7958" x2="334.6549" y2="-120.5658" gradientTransform="matrix(1 4.222393e-03 4.222393e-03 -1 -299.9047 -42.0042)">
		<stop  offset="0" style="stop-color:#37A22B;stop-opacity:0.81"/>
		<stop  offset="0.474" style="stop-color:#B04EA4;stop-opacity:0.76"/>
		<stop  offset="1" style="stop-color:#383F9A;stop-opacity:0.88"/>
	</linearGradient>
	<path class="st12" d="M31.8,70.8c2.7,0,5,1.6,5,3.6s-2.2,3.5-5,3.5c-2.7,0-5-1.6-5-3.6C26.8,72.3,29,70.8,31.8,70.8z"/>
</g>
<linearGradient id="SVGID_13_" gradientUnits="userSpaceOnUse" x1="303.7863" y1="-48.1574" x2="374.9814" y2="-79.7019" gradientTransform="matrix(1 0 0 -1 -299.622 -41.874)">
	<stop  offset="0" style="stop-color:#F9C5AD;stop-opacity:0.76"/>
	<stop  offset="1" style="stop-color:#F9C5AD;stop-opacity:0.76"/>
</linearGradient>
<path class="st13" d="M4.3,20c0-8.8,5.8-15.7,13-15.4l41.5,1.7c9,0.4,16.3,9.7,16.2,20.8l0,6.1c0,3.4-1.5,6.5-3.9,8.2l-3.9,2.6
	c0,0,0,0,0,0.1c0,0.1,0.1,0.1,0.1,0l1.1-5.2c0.1-0.5-0.2-0.9-0.6-0.9l-12.3,0.3l-38.3-1.8C10,36.2,4.3,28.8,4.3,20z"/>
<linearGradient id="SVGID_14_" gradientUnits="userSpaceOnUse" x1="376.5767" y1="10.5766" x2="457.1667" y2="-32.4075" gradientTransform="matrix(0.8085 3.316180e-02 4.222390e-03 -1 -299.6398 -5.5139)">
	<stop  offset="0" style="stop-color:#F6E248;stop-opacity:0.87"/>
	<stop  offset="1" style="stop-color:#6675B5;stop-opacity:0.57"/>
</linearGradient>
<path class="st14" d="M14.6,2.2l45,1.8c7.1,0.3,12.8,7.6,12.8,16.4l0,0c0,8.8-5.8,15.7-12.9,15.4l-45-1.8
	C7.4,33.7,1.7,26.4,1.7,17.6l0,0C1.7,8.8,7.5,1.9,14.6,2.2z"/>
<path class="st15" d="M10.6,8l16.9,0.7c0.4,0,0.8,0.5,0.8,1l0,0c0,0.5-0.4,1-0.8,1L10.6,10c-0.4,0-0.8-0.5-0.8-1l0,0
	C9.8,8.4,10.1,8,10.6,8z"/>
<path class="st16" d="M10.6,13.5l48,1.9c0.4,0,0.8,0.5,0.8,1l0,0c0,0.5-0.4,1-0.8,1l-48-1.9c-0.4,0-0.8-0.5-0.8-1l0,0
	C9.8,13.9,10.1,13.5,10.6,13.5z"/>
<path class="st17" d="M10.5,25.7L43.2,27c0.4,0,0.8,0.5,0.8,1l0,0c0,0.5-0.4,1-0.8,1l-32.7-1.3c-0.4,0-0.8-0.5-0.8-1l0,0
	C9.7,26.1,10.1,25.7,10.5,25.7z"/>
<path class="st18" d="M10.5,19.6l33.7,1.3c0.4,0,0.8,0.5,0.8,1l0,0c0,0.5-0.4,1-0.8,1l-33.7-1.3c-0.4,0-0.8-0.5-0.8-1l0,0
	C9.7,20,10.1,19.6,10.5,19.6z"/>
<path class="st19" d="M52.6,27.4L69.4,28c0.4,0,0.8,0.5,0.8,1l0,0c0,0.5-0.4,1-0.8,1l-16.8-0.7c-0.4,0-0.8-0.5-0.8-1l0,0
	C51.8,27.8,52.2,27.3,52.6,27.4z"/>
<path class="st20" d="M57,32.5l7.9,0.3c0.4,0,0.8,0.5,0.8,1l0,0c0,0.5-0.4,1-0.8,1L57,34.5c-0.4,0-0.8-0.5-0.8-1l0,0
	C56.2,32.9,56.6,32.5,57,32.5z"/>
<g>
	<path d="M56.2,45l-8.4,13.1c-1.2,1.9-1.1,5,0.2,6.9l32.5,44.3c1.4,1.9,3.5,1.8,4.7-0.1l1.4-2.2c-1.3-3.4-3.3-6.7-5.2-9.8
		c-0.4-0.6-0.8-1.2-1.2-1.8c0,0,0,0,0,0c-0.3-0.2-0.5-0.5-0.5-0.8c-1.2-1.8-2.4-3.6-3.1-5.6c-1.1-2.1-1.3-4.4-1.2-6.6
		c0.1-2.2,0.5-4.8,3.1-5.9c1.2-0.5,2.6-0.6,3.9-0.3c0.5,0.1,1.3,0.5,2,0.7L61,44.9"/>
	
		<linearGradient id="SVGID_15_" gradientUnits="userSpaceOnUse" x1="351.5129" y1="-55.2207" x2="405.4021" y2="-313.7312" gradientTransform="matrix(1 0 0 -1 -299.622 -41.874)">
		<stop  offset="0" style="stop-color:#313030"/>
		<stop  offset="1" style="stop-color:#000000"/>
	</linearGradient>
	<path class="st21" d="M55.1,46.7l-8.4,13.1c-1.2,1.9-1.1,5,0.2,6.9l32.8,44.7c1.4,1.9,3.5,1.8,4.7-0.1l2.4-3.8
		c-1.3-3.6-3.4-7.1-5.4-10.4c-0.4-0.6-0.8-1.2-1.2-1.8c0,0,0,0,0,0c-0.3-0.2-0.5-0.5-0.5-0.8c-1.2-1.8-2.4-3.6-3.1-5.6
		c-1.1-2.1-1.3-4.4-1.2-6.6c0.1-2.2,0.5-4.8,3.1-5.9c0.9-0.4,1.9-0.5,2.9-0.4L59.9,46.6"/>
	
		<linearGradient id="SVGID_16_" gradientUnits="userSpaceOnUse" x1="377.1097" y1="-114.884" x2="363.3141" y2="-123.737" gradientTransform="matrix(1 0 0 -1 -299.622 -41.874)">
		<stop  offset="0" style="stop-color:#FFFFFF"/>
		<stop  offset="1" style="stop-color:#EAEAEA"/>
	</linearGradient>
	<path class="st22" d="M56.7,47.1l-7.5,11.6c-1.2,1.9-1.1,5,0.2,6.9L80,107.3c1.4,1.9,3.5,1.8,4.7-0.1l1.2-1.9
		c-1.2-2.8-2.9-5.5-4.5-8c-0.4-0.6-0.8-1.2-1.2-1.8c0,0,0,0,0,0c-0.3-0.2-0.5-0.5-0.5-0.8c-1.2-1.8-2.4-3.6-3.1-5.6
		c-1.1-2.1-1.3-4.4-1.2-6.6c0.1-2.2,0.5-4.8,3.1-5.9c1.2-0.5,2.6-0.6,3.9-0.3c0.2,0,0.4,0.1,0.6,0.2L61.5,47"/>
	<path class="st23" d="M82.3,112.8c0.5,0.2,1,0.3,1.5,0.5c0.4,0.1,1.1,0,1.5-0.1c0.3-0.1,0.9-0.2,1.1-0.4c0.4-0.3,0.8-0.5,0.9-0.8
		c0-0.1,0.2-0.3,0.2-0.4c0-0.1,0.2-0.3,0.1-0.4c0-0.2,0.1-0.5,0.1-0.7c0-0.3,0-0.5,0-0.8c0-0.3-0.1-0.6-0.2-0.9
		c-0.1-0.2-0.2-0.3-0.3-0.5c-0.1-0.2-0.1-0.4-0.2-0.5c-0.1-0.3-0.4-0.5-0.4-0.8c0-0.3-0.1-0.6-0.2-0.8c-0.1-0.6-0.1-1.1-0.2-1.7
		c0-0.2,0.1-0.5,0.1-0.8c0-0.3-0.1-0.7-0.1-1c0-0.4-0.3-0.7-0.4-1.1c-0.1-0.1-0.2-0.3-0.3-0.4c-0.1-0.1-0.3-0.4-0.4-0.5
		c0-0.2-0.3-0.3-0.4-0.5c-0.1-0.1-0.1-0.3-0.1-0.4c0-0.1,0-0.3-0.1-0.4c0-0.2-0.2-0.3-0.2-0.4"/>
	<path class="st23" d="M84.7,110.2c0.2,0.1,0.1,0.4,0.1,0.6c0,0.2,0,0.4-0.1,0.6c-0.2,0.3-0.4,0.5-0.6,0.8c-0.2,0.2-0.3,0.3-0.4,0.5
		c-0.1,0.1-0.2,0.2-0.3,0.4c0,0.1-0.2,0.1-0.2,0.2"/>
	<path class="st23" d="M84.4,110.4c-0.4,0.1-0.7,0.1-0.8,0.4c0,0.2-0.2,0.5-0.3,0.7c-0.2,0.2-0.3,0.5-0.4,0.7
		c-0.1,0.2-0.2,0.5-0.3,0.7"/>
	<path class="st23" d="M85.3,109.6c0.1,0.1,0.1,0.3,0.2,0.5c0.1,0.1,0.1,0.3,0.1,0.4s-0.4,0.3-0.5,0.3"/>
	<path class="st23" d="M87.8,111.2c0.1,0.5,0.3,1,0.4,1.5c0.1,0.7,0.2,1.4,0.3,2.2c0.1,0.5,0,1,0.2,1.5c0.2,0.4,0.3,0.7,0.4,1.1
		c0.1,0.4,0.4,0.7,0.5,1.1c0.1,0.3,0.3,0.6,0.4,1c0.2,0.7,0.4,1.4,0.9,2c0.4,0.5,0.6,1,1,1.5c0.3,0.4,0.6,0.8,1,1.2
		c0.4,0.5,0.8,1.1,1.3,1.7c0.5,0.5,1,1.1,1.3,1.7c0.4,0.6,0.8,1.2,1.2,1.8c0.2,0.3,0.6,0.7,0.8,1c0.3,0.3,0.5,0.7,0.8,1
		c0.4,0.4,0.7,0.8,1.2,1.1c0.4,0.3,0.7,0.6,1.1,0.9c0.2,0.1,0.3,0.3,0.5,0.3c0.2,0.1,0.3,0.2,0.4,0.3c0.1,0.1,0.4,0.3,0.5,0.4
		c0.2,0.1,0.4,0.3,0.5,0.4c0.1,0.1,0.3,0.2,0.4,0.3c0.1,0.1,0.2,0.2,0.3,0.3c0,0,0.2,0.2,0.2,0.2c0.1,0.1,0.2,0.2,0.4,0.4"/>
	<path class="st23" d="M103.5,135.8c0.4,0.5,0.7,0.9,1.2,1.4c0.2,0.2,0.4,0.5,0.6,0.7c0.3,0.2,0.5,0.4,0.9,0.6
		c0.3,0.2,0.5,0.3,0.8,0.5c0.2,0.2,0.4,0.3,0.6,0.4c0.5,0.5,1.1,0.9,1.6,1.3c0.7,0.6,1.3,1.2,2,1.7c0.4,0.4,0.7,0.8,1.2,1.1
		c0.5,0.4,0.9,0.8,1.3,1.2c0.6,0.6,1.3,1.1,1.9,1.7c0.6,0.7,1.2,1.5,1.8,2.2c0.3,0.4,0.7,0.8,1.1,1.2c0.4,0.4,0.7,0.8,1.1,1.1
		c0.5,0.4,0.8,1.1,1.2,1.5c0.4,0.4,0.5,0.8,0.8,1.3c0.1,0.2,0.1,0.3,0.2,0.5c0.1,0.2,0.2,0.3,0.3,0.5c0.1,0.3,0.2,0.5,0.2,0.8
		c0,0.2,0.1,0.7,0.1,0.5"/>
	<path class="st23" d="M106.7,102.4c0.3,0,0.5,0.2,0.6,0.4c0,0.2,0.2,0.3,0.2,0.5c0.1,0.3,0.6,0.5,0.8,0.8"/>
	<path class="st23" d="M84.7,77.5c-0.3-0.1-0.5-0.2-0.7-0.3"/>
	<path class="st23" d="M91.8,78.6c0.1,0.7-0.3,1.3-0.7,2c0,0.1-0.1,0.2-0.1,0.3c0,0.1-0.2,0.3-0.2,0.4c-0.1,0.2-0.2,0.3-0.3,0.6"/>
	<path class="st23" d="M91.8,78.7c-0.1,0.4-0.1,0.8-0.1,1.2c0,0.2,0,0.4,0.1,0.6c0,0.3,0,0.6,0,1c0.1,0.5-0.2,1-0.3,1.4
		c0,0.2,0.2,0.8-0.1,0.9"/>
	<path class="st23" d="M92.5,85.4c0.3,0.2,0.5,0.4,0.8,0.6c0.2,0.1,0.4,0.4,0.7,0.4c0.2,0.1,0.5,0.3,0.7,0.4c0.3,0.2,0.6,0.4,1,0.6
		c0.3,0.2,0.7,0.3,1,0.5c0.2,0.1,0.6,0.4,0.8,0.5c0.3,0,0.6,0.2,0.9,0.3c0.3,0.1,0.6,0.1,0.9,0.1c0.2,0,0.4,0,0.7,0
		c0.3,0,0.7,0.1,1,0c0.3,0,0.7,0,0.9-0.1c0.3-0.1,0.6-0.2,0.9-0.4c0.2-0.1,0.5-0.3,0.8-0.4c0.3-0.1,0.6-0.3,0.9-0.4
		c0.2,0,0.5-0.3,0.7-0.4c0.2-0.2,0.5-0.3,0.8-0.5"/>
	<path class="st23" d="M103.8,86.8c-0.2,0.2-0.4,0.4-0.7,0.6c-0.2,0.2-0.3,0.4-0.5,0.5c-0.3,0.2-0.5,0.7-1,0.8"/>
	<path class="st23" d="M103.5,86.8c-0.4,0.1-0.8,0.3-1.2,0.3c-0.3,0-0.6,0.2-0.9,0.2c-0.3,0-0.5,0.1-0.8,0.2c-0.3,0-0.7,0.1-1,0
		c-0.6-0.3-1.4-0.4-2.1-0.6c-0.6-0.2-0.9-0.6-1.5-0.8c-0.2-0.1-0.4-0.3-0.6-0.4c-0.2-0.1-0.5-0.2-0.6-0.4c-0.2-0.2-0.4-0.2-0.6-0.4
		c-0.2-0.2-0.5-0.4-0.7-0.6c-0.4-0.3-0.5-0.7-0.7-1.1c-0.1-0.2-0.2-0.4-0.4-0.5c-0.2-0.1-0.3-0.3-0.5-0.5"/>
	<path class="st23" d="M101.6,88.8c-0.1,0.1-0.3,0.3-0.4,0.4c-0.1,0.1-0.2,0.1-0.3,0.1c-0.2,0.1-0.3,0.3-0.4,0.5
		c-0.3,0.4-0.1,0.8-0.1,1.3c0.1,0.5,0.2,0.9,0.5,1.4c0.3,0.4,0.7,0.8,1,1.2c0.3,0.4,0.7,0.7,1,1.1c0.2,0.2,0.1,0.7,0.2,1
		c0,0.3-0.2,0.7-0.2,1c0,0.2-0.2,0.4-0.2,0.6c0,0.2,0,0.3,0.1,0.5"/>
	<path class="st23" d="M100.8,92.5c0.2,1.4-1.5,2.6-2.4,3.8"/>
	<path class="st23" d="M108,94c-0.2,0.1-0.5,0.3-0.7,0.4c-0.1,0.1-0.2,0.2-0.4,0.2c-0.5,0.2-0.9,0.4-1.3,0.6
		c-0.4,0.2-0.8,0.4-1.1,0.6c-0.2,0.1-0.2,0.2-0.3,0.3c-0.2,0.1-0.3,0.3-0.5,0.4c-0.3,0.2-0.6,0.3-0.8,0.5c-0.1,0.1-0.3,0.3-0.4,0.4
		c-0.3,0.1-0.6,0.9,0,0.6c0.4-0.2,0.7-0.4,1.1-0.6c0.3-0.2,0.7-0.5,1-0.7c0.5-0.4,1-0.8,1.5-1.1c0.6-0.3,1.2-0.4,1.8-0.7
		c0.4-0.2,0.8-0.7,0.4-0.9"/>
	<path class="st23" d="M102.7,99.3c0.6-0.1,1.2-0.1,1.8-0.2c0.1,0,0.5,0,0.6-0.1c0.2-0.2,0.3-0.3,0.2-0.5c0-0.2,0-0.4-0.2-0.5
		c-0.1-0.1-0.3-0.1-0.5-0.2c-0.2-0.2-0.3-0.4-0.3-0.7"/>
	<path class="st23" d="M102.6,99.3c0.2,0.4,0.7,0.5,1.1,0.7c0.4,0.2,0.7,0.3,1.1,0.3c0.3,0,0.6,0.1,0.9,0.1c0.2,0,0.5-0.1,0.5,0.1
		c0,0.2-0.4,0.3-0.6,0.4c-0.1,0.1-0.3,0.2-0.4,0.3"/>
	<path class="st23" d="M95.2,89.5c1,0.3,1.7,0.9,2.8,1.1c0.3,0.1,0.8,0.1,1.1,0.1c0.3,0,0.8,0,1.1,0"/>
	<path class="st23" d="M95.6,90.6c0.6,0.7,1.9,1.1,3.1,1.1c0.4,0,0.8,0.3,1.1,0.5c0.1,0.1,0.3,0.1,0.5,0.1c0.2,0.1,0.4,0.1,0.7,0.1"
		/>
	<path class="st23" d="M93,74.5c-0.8,0.1-1.6,0.1-2.4,0.1c-0.4,0-0.7,0.2-1,0.4c-0.3,0.2-0.7,0.3-1,0.4c-0.7,0.3-1.5,0.6-2.3,0.7
		c-0.3,0.1-0.6,0.3-0.9,0.3c-0.2,0-0.5,0.2-0.6,0.3"/>
	<path class="st23" d="M86.8,77.4c0.5-0.1,0.5-0.4,0.8-0.6c0.3-0.2,0.6-0.4,1-0.6c0.5-0.2,1-0.5,1.6-0.7c0.2-0.1,0.4-0.2,0.5-0.2
		c0.2-0.1,0.4-0.1,0.6-0.2c0.5-0.2,1.1-0.3,1.6-0.4c0.8-0.2,1.6,0,2.4,0.2c0.5,0.1,1.1,0.1,1.6,0.3c0.5,0.2,1.1,0.3,1.6,0.6
		c0.3,0.1,0.5,0.3,0.8,0.4c0.3,0.1,0.5,0.3,0.8,0.4c0.3,0.1,0.4,0.2,0.7,0.3c0.2,0.1,0.4,0.2,0.5,0.2c0.3,0.1,0.6,0.2,0.8,0.3
		c0.2,0.1,0.4,0.3,0.7,0.4c0.4,0.2,0.8,0.5,1.1,0.7c0.5,0.3,1.1,0.6,1.6,0.9c0.5,0.4,1.1,0.7,1.6,1.2c0.2,0.2,0.5,0.3,0.7,0.5
		c0.2,0.1,0.3,0.2,0.5,0.3c0.6,0.2,1.1,0.6,1.5,0.9c0.2,0.2,0.4,0.3,0.6,0.4c0.2,0.1,0.3,0.3,0.5,0.4c0.2,0.1,0.4,0.3,0.7,0.4
		c0.2,0.1,0.4,0.2,0.7,0.2c0.3,0.1,0.5,0.2,0.7,0.3c0.9,0.2,1.8,0.5,2.6,0.9c0.6,0.2,1.1,0.5,1.7,0.8c0.3,0.2,0.7,0.4,1.1,0.5
		c0.2,0.1,0.3,0.2,0.5,0.3c0.2,0.1,0.4,0.1,0.6,0.2c0.3,0.2,0.8,0.3,1.2,0.5c0.7,0.2,1.3,0.5,1.8,0.8c0.2,0.1,0.3,0.3,0.5,0.5
		c0.2,0.2,0.3,0.3,0.5,0.5c0.3,0.3,0.6,0.5,0.9,0.8c0.5,0.5,0.8,1.1,1.1,1.7c0.2,0.5,0.5,1,0.6,1.6c0.1,0.8,0.2,1.5,0.3,2.3
		c0.1,0.6,0.2,1.2,0.2,1.9c0,0.3,0.1,0.7,0.1,1c0,0.3,0.1,0.7-0.1,1"/>
	<path class="st23" d="M125.8,92.5c0.1,0.8,0.8,1.4,1.5,1.9c0.5,0.3,0.6,0.9,0.9,1.3c0.4,0.5,0.4,1,0.6,1.6c1.3,3.4,0.8,7,2.1,10.4
		c0.2,0.6,0.8,1.1,1,1.6c0.3,0.7,0.4,1.5,0.7,2.2c0.3,0.6,0.2,1.3,0.3,2c0.1,0.8,0.2,1.6,0.3,2.4c0.1,1,0.2,2,0.4,3
		c0.2,1.9,0.5,3.9,1.2,5.8c0.9,2.7,2.9,5.1,5.2,7.3c0.5,0.5,0.9,1.1,1.3,1.7c0.4,0.5,0.8,1.1,1.1,1.6c0.4,0.7,1.1,1.5,1.7,2.2
		c0.6,0.7,1.3,1.2,1.9,1.9c0.3,0.3,0.6,0.6,0.8,0.9c0.2,0.3,0.7,0.4,1,0.7c0.5,0.4,1.2,0.9,1.4,1.4c0.2,0.4,0.8,1,1.1,1.4
		c0.4,0.5,0.8,1.1,1.3,1.6c0.4,0.4,0.9,0.6,1.3,1c0.4,0.4,0.9,0.7,1.4,1.1c0.7,0.5,1.4,1.1,2.2,1.5c1,0.5,1.4,1.2,2.1,1.9
		c0.3,0.3,0.5,0.6,0.7,1c0.2,0.4,0.6,0.7,0.8,1"/>
	<path class="st23" d="M160.3,152.9c-12.6,1.1-25.2,2.2-37.9,3.3"/>
	<path class="st23" d="M76.9,78.2c-0.1,0.1-0.4,0.4-0.4,0.5c0,0.2-0.2,0.3-0.3,0.5c-0.1,0.4,0,0.9,0,1.4c-0.1,0.5-0.1,1.1,0,1.6
		c0.1,0.5,0.2,0.9,0.2,1.4c0.1,0.8,0.3,1.6,0.4,2.5c0,0.2,0.2,0.3,0.2,0.5c0,0.2,0.1,0.4,0.1,0.6c0.1,0.5,0,1,0.3,1.4
		c0.1,0.2,0.3,0.5,0.3,0.7c0.1,0.3,0.4,0.5,0.4,0.8c0,0.2,0.2,0.4,0.3,0.6c0,0.1,0.1,0.2,0.2,0.3c0.1,0.1,0.1,0.2,0.2,0.4
		c0.4,0.5,0.7,0.9,1,1.4c0.3,0.4,0.5,0.9,0.8,1.3c0.7,1,1,2.1,2,3c0.3,0.3,0.6,0.5,1,0.8c0.4,0.3,0.6,0.6,1,0.9"/>
	<path class="st23" d="M76.5,78.8c0.4-0.5,0.6-1,1.4-1.3c0.6-0.2,1.3-0.6,2-0.6c1-0.1,2-0.1,3-0.1c0.5,0,1.1,0.1,1.7,0.2
		c0.6,0.1,1.1,0.2,1.7,0.3c0.6,0.2,1,0.6,1.5,1c0.5,0.4,0.8,0.8,1.1,1.2c0.3,0.4,0.7,0.8,1,1.2c0.4,0.6,0.6,1.3,0.8,1.9
		c0.1,0.4,0.5,0.8,0.7,1.2c0.2,0.3,0.4,0.7,0.7,1c0.1,0.1,0.5,0.5,0.5,0.6c0,0.4,0.4,0.7,0.6,1.1c0.3,0.5,0.7,1,1,1.6
		c0.4,0.7,0.9,1.3,1.2,2c0.1,0.3,0.4,0.6,0.6,0.9c0.1,0.3,0.3,0.6,0.4,0.9c0.1,0.3,0.2,0.5,0.3,0.8c0.1,0.3,0.3,0.6,0.5,0.9
		c0.7,1.5,1.5,3,2.6,4.3c0.3,0.4,0.6,0.7,1,1c0.2,0.2,0.3,0.4,0.7,0.5c0.4,0.1,0.8,0.5,1.1,0.7c0.4,0.2,0.8,0.5,1.2,0.7
		c0.7,0.4,2,0.5,2.5,1.1c0.3,0.3,0.8,0.6,1.1,0.9"/>
	<path class="st24" d="M88.8,91.3c1.7-0.7,3.5-1.4,4.6-2.5c0.4-0.2,0.4,0.4,0.3,0.5c-0.2,0.2-0.5,0.4-0.8,0.6
		c-0.6,0.4-1.4,0.7-2.2,1.1c-0.5,0.2-0.9,0.4-1.5,0.6c-0.4,0.1-1,0.2-1.3,0.4c-0.2,0.1-0.5,0.3-0.7,0.4c-0.4,0.1-0.7,0.3-1,0.4
		c-0.7,0.3-1.4,0.4-2.1,0.6c-0.2,0-0.4,0.1-0.7,0.1l-1,0.1c-0.5,0-0.9-0.2-0.2-0.4c0.2-0.1,0.3-0.1,0.6-0.1c0.2,0,0.4-0.1,0.6-0.2
		c0.2-0.1,0.4-0.1,0.6-0.1c0.2-0.1,0.5-0.1,0.7-0.2c0.3-0.1,0.6-0.1,0.8-0.2c0.3-0.1,0.7-0.2,1-0.3C87.4,91.9,88.1,91.5,88.8,91.3z"
		/>
	<path class="st24" d="M91.4,87.2c0.5,0,0.9,0,1.4,0c-0.4,0.2-0.7,0.4-1.2,0.5l-0.6,0.1c-0.3,0-0.6,0.2-0.9,0.3
		c-0.3,0.1-0.6,0.2-0.9,0.2c-0.1,0-0.2,0.1-0.3,0.1c-0.1,0-0.3,0-0.4,0.1c-0.5,0.2-1.1,0.3-1.6,0.6c-0.5,0.2-1.2,0.5-1.6,0.8
		c-0.3,0.3-0.5,0.6-1,0.8c-1.2,0.5-2.3,1-3.3,1.6c0,0-0.4,0.2-0.4,0.1c-0.1-0.1,0.1-0.2,0.1-0.3c0.1-0.2,0.7-0.6,1-0.6
		c0.2-0.1,0.6-0.3,0.8-0.4c0.2-0.1,0.4-0.2,0.6-0.3c0.2-0.1,0.4-0.3,0.5-0.4c0.1-0.1,0.4-0.2,0.6-0.3c1.1-0.8,2.4-1.5,3.7-2.2
		c0.6-0.3,1.4-0.3,2.1-0.4L91.4,87.2z"/>
	<path class="st25" d="M83.3,94.4c0.7-0.1,1.5,0,2.1-0.2c0.7-0.2,1.4-0.5,2.1-0.7c0.4-0.1,0.8-0.3,1.3-0.5c0.6-0.2,1.2-0.4,1.9-0.6
		c0.4-0.1,0.9-0.3,1.3-0.5c0.3-0.2,0.9-0.3,1.1-0.6c0.1-0.1,0.2-0.1,0.3-0.2c0.1-0.1,0.2-0.2,0.2-0.3c0.1-0.2,0.2-0.3,0.2-0.5"/>
	<path class="st26" d="M76.6,80.7c-0.1-2.2,1.7-2.7,2.2-3c0.3,0,3.9-0.9,5.7-0.4c0.3,0.2,0.6,0.4,0.8,0.6c0.3,0.2,0.7,0.5,0.8,0.8
		c0.1,0.2,0.3,0.3,0.4,0.5c0.1,0.1,0.2,0.2,0.3,0.4c0.2,0.8,0.9,1.5,0.6,2.3c-0.2,0.5-0.4,1-0.9,1.3c-0.2,0.1-0.4,0.2-0.6,0.3
		c-0.2,0.2-0.5,0.3-0.8,0.4c-0.3,0.2-0.6,0.3-0.9,0.5c-0.3,0.2-0.7,0.3-1,0.5c-0.5,0.4-1.3,0.4-2,0.4c-0.6,0-1.3,0-1.9-0.1
		c-0.7-0.1-1-0.7-1.2-1.1c-0.1-0.2-0.3-0.4-0.4-0.6c-0.1-0.2-0.2-0.5-0.4-0.7c-0.2-0.3-0.4-0.6-0.5-0.9c-0.1-0.2-0.2-0.3-0.3-0.5
		C76.6,81.3,76.6,81,76.6,80.7z"/>
	<path class="st27" d="M86.8,82.5c0.5,0-2,1.6-2.7,1.9c0,0-2.8,1.6-4.9,0.6c0.2-0.3,1-0.5,1.2-0.7c0.4-0.5,0.7-1,1.3-1.3
		c0.7-0.3,0.7-0.2,1.4-0.6C85.9,81.3,86.7,81.2,86.8,82.5z"/>
	<path class="st23" d="M84.1,84.3c0.7-0.3,3.2-1.9,2.8-1.9c-0.2-1.3-0.9-1.1-3.7-0.1c-0.7,0.4-0.7,0.3-1.4,0.6
		c-0.7,0.3-0.9,0.8-1.3,1.3c-0.1,0.2-1,0.3-1.2,0.7C81.3,86,84.3,84.2,84.1,84.3z"/>
	<path class="st28" d="M79,85.1C79,85.1,79,85.1,79,85.1C79,85.1,79,85.1,79,85.1c0.2-0.6-3.3-4.5-1.9-5.3c0.4,0.5,2.3,1.2,2.6,1.7
		c0.1,0.2,0.4,0.4,0.6,0.6c0.1,0.1,0.3,0.3,0.5,0.4c0.2,0.1,0.3,0.4,0.4,0.6C81.5,83.3,79.3,84.8,79,85.1z"/>
	<path class="st23" d="M79,85.1c0.4-0.4-3.3-4.5-1.9-5.3c0.4,0.5,2.3,1.2,2.6,1.7c0.1,0.2,0.4,0.4,0.6,0.6c0.1,0.1,0.3,0.3,0.5,0.4
		c0.2,0.1,0.3,0.4,0.4,0.6C81.5,83.3,78.9,85,79,85.1z"/>
	<path class="st23" d="M61.8,83.7c-0.2,0.3-1.4,2.4-1.9,2.6c-0.2,0.1-0.4,0.3-0.6,0.4c-0.3,0.1-0.4,0.3-0.7,0.4
		c-0.4,0.2-0.7,0.4-1.1,0.6c-0.2,0.1-0.5,0.4-0.7,0.6c-0.2,0.2-0.4,0.3-0.6,0.5c-0.4,0.5-0.8,1.2-0.3,1.7c0.3,0.3,0.8,0.6,1,0.9
		c0.2,0.3,0.3,0.6,0.6,0.8c0.6,0.6,1.2,1.3,2.4,1c0.8-0.2,6.4-0.5,7.1-0.9"/>
	<path class="st23" d="M59.2,86.8c-0.1,0.1-0.3,0.3-0.3,0.4c0,0.1,0,0.2,0,0.3c0,0.2-0.1,0.3-0.1,0.5c-0.1,0.2-0.5,0.8-0.9,0.8
		c-0.2,0-0.4,0.2-0.5,0.3c-0.2,0.2-0.4,0.3-0.6,0.4c-0.2,0.2-0.4,0.3-0.4,0.5c0,0.1-0.1,0.3,0,0.4"/>
	<path class="st23" d="M70.5,96.2c-0.4,0.2-4.5,2.5-4.9,2.6"/>
	<path class="st23" d="M60.4,86.3c0.1,0.3,0.3,0.5,0.3,0.9c0,0.4-0.3,0.6-0.6,0.9c-0.5,0.5-1,1.1-1.5,1.7c-0.4,0.4-0.4,1-0.6,1.5
		c-0.1,0.4-0.2,0.8-0.2,1.2"/>
	<path class="st23" d="M65.9,98.7c-0.5,0.3-0.6,0.5-0.8,0.9c-0.1,0.1-0.1,0.2-0.1,0.3c-0.1,0.1-0.1,0.3-0.2,0.4
		c-0.1,0.1-0.1,0.3-0.1,0.4c0,0.1-0.1,0.3-0.1,0.4c0,0.4-0.2,0.8-0.4,1.2c-0.2,0.4-0.6,0.7-0.8,1.1c-0.3,0.4-0.7,0.7-1,1.1
		c-0.3,0.4-0.9,0.7-1,1.1c-0.1,0.3,0,0.9,0.2,1.1c0.5,0.4,0.7,0.8,1.4,1.1c0.2,0.1,0.4,0.1,0.5,0.2c0.2,0,0.3,0.1,0.5,0.2
		c0.3,0.1,0.6,0.1,0.9,0.1c0.7,0,1.3,0,2-0.1c0.4,0,0.7-0.1,1-0.2c0.4-0.2,0.7-0.3,1.1-0.4c0.5-0.2,0.8-0.5,1.3-0.8
		c0.2-0.1,0.6-0.3,0.8-0.5c0.1-0.2,0.4-0.4,0.4-0.6c0-0.2,0.4-0.3,0.5-0.5c0.1-0.2,0.3-0.3,0.5-0.5c0.3-0.3,0.6-0.6,1-0.9
		c0.3-0.3,0.5-0.6,0.3-0.9"/>
	<path class="st23" d="M70.6,99.1c-0.1,0.3-0.2,0.5-0.3,0.8c-0.1,0.2-0.3,0.5-0.3,0.7c0,0.3-0.1,0.6-0.2,0.9
		c-0.1,0.3-0.3,0.6-0.5,0.9c-0.1,0.2-0.2,0.4-0.3,0.6c-0.1,0.1-0.3,0.2-0.4,0.4c-0.1,0.1-0.2,0.3-0.3,0.4c-0.1,0.1-0.2,0.2-0.2,0.3
		c0,0.2,0,0.4-0.1,0.6c-0.1,0.2-0.3,0.3-0.5,0.5c-0.2,0.2-0.5,0.2-0.8,0.4c-0.3,0.1-0.5,0.3-0.8,0.3c-0.4,0.1-0.8,0.3-1.2,0.3
		c-0.5,0.1-1.3,0.3-1.7,0.6c-0.3,0.2-0.2,0.6-0.2,0.9"/>
	<path class="st23" d="M61.5,106.3c0-0.5,0.2-0.8,0.8-1c0.3-0.1,0.7-0.2,1.1-0.3c0.6-0.1,1.3-0.4,1.6-0.8c0.1-0.1,0.4-0.8,0.2-1
		c-0.2-0.1-0.2-0.3-0.3-0.4c-0.1-0.1-0.1-0.4-0.3-0.4"/>
	<path class="st23" d="M62.4,104.6c0.4,0,0.9,0.1,1.3,0.2"/>
</g>
</svg>
