<?xml version="1.0" encoding="utf-8"?>
<!-- Generator: Adobe Illustrator 24.3.0, SVG Export Plug-In . SVG Version: 6.00 Build 0)  -->
<svg version="1.1" id="Capa_1" xmlns="http://www.w3.org/2000/svg" xmlns:xlink="http://www.w3.org/1999/xlink" x="0px" y="0px"
	 viewBox="0 0 277.8 484.7" style="enable-background:new 0 0 277.8 484.7;" xml:space="preserve">
<style type="text/css">
	.st0{opacity:0.3;}
	.st1{fill:url(#SVGID_1_);}
	.st2{fill:url(#SVGID_2_);}
	.st3{fill:url(#SVGID_3_);}
	.st4{fill:#F6BDB7;}
	.st5{fill:#130C0C;}
	.st6{fill:#311643;}
	.st7{fill:#FFFFFF;}
	.st8{fill:#F1AEAB;}
	.st9{fill:#291616;}
	.st10{fill:#791112;fill-opacity:0.88;}
	.st11{fill:#F68319;}
	.st12{fill:#A53C2A;}
	.st13{fill:#DEDEDE;}
	.st14{fill:#AEAEAE;}
	.st15{fill:#D0D0D0;}
	.st16{fill:#C8640D;}
	.st17{fill:#202D51;}
	.st18{fill:#DC7515;}
	.st19{fill:#999DA9;}
	.st20{fill:#F4F4F4;}
</style>
<g class="st0">
	
		<linearGradient id="SVGID_1_" gradientUnits="userSpaceOnUse" x1="346.6107" y1="330.5153" x2="346.6107" y2="127.8973" gradientTransform="matrix(1 0 0 -1 -167.1024 331.6378)">
		<stop  offset="0" style="stop-color:#F7DC24;stop-opacity:0.81"/>
		<stop  offset="1" style="stop-color:#F79C11;stop-opacity:0.17"/>
	</linearGradient>
	<ellipse class="st1" cx="179.5" cy="97.4" rx="96.2" ry="96.3"/>
	
		<linearGradient id="SVGID_2_" gradientUnits="userSpaceOnUse" x1="387.9474" y1="7.3028" x2="327.6164" y2="-78.6272" gradientTransform="matrix(1 0 0 -1 -167.1024 331.6378)">
		<stop  offset="2.803740e-02" style="stop-color:#A26080"/>
		<stop  offset="1" style="stop-color:#B04EA4;stop-opacity:0.12"/>
	</linearGradient>
	<ellipse class="st2" cx="171.7" cy="394.4" rx="65" ry="71.1"/>
	
		<linearGradient id="SVGID_3_" gradientUnits="userSpaceOnUse" x1="139.7729" y1="150.6454" x2="272.3929" y2="90.3484" gradientTransform="matrix(1 0 0 -1 -167.1024 331.6378)">
		<stop  offset="0" style="stop-color:#31AAC2;stop-opacity:0.56"/>
		<stop  offset="1" style="stop-color:#9FD8B2;stop-opacity:0.1"/>
	</linearGradient>
	<ellipse class="st3" cx="49.7" cy="216" rx="48.1" ry="53.5"/>
	<path class="st4" d="M146.4,162c-12.8,2.3-28.8-2.8-30.8-6.1c-4.6,7.6-7,7.4-7,7.4v5.7l-1-1.1c-0.3-0.8-0.8-1.6-1.6-1.6
		c-4.2,0-4.5,12.6,2.6,13.3c0.1,0.5,0.3,1,0.4,1.4v20.2h16v-7.9c1.1,0.3,2.1,0.5,3.1,0.5c6.3,0,17.1-10,18.3-25.9
		C146.5,164.9,146.4,162,146.4,162z"/>
	<path class="st5" d="M127,140.4c-11,0-13.2,6.3-13.2,6.3c-4.7,0-11.9,9.2-7.6,19.5l0,0l2.5,2.7v-5.7c0,0,2.4,0.2,7-7.3
		c2,3.3,18,8.4,30.8,6.1c0,0,0,2.8,0,5.8c0,0,0,0,0,0C151.2,153,141.6,140.4,127,140.4z"/>
	<path class="st6" d="M122.3,172.2c-0.5,0-0.9-0.4-0.9-0.9v-1.8c0-0.5,0.4-0.9,0.9-0.9s0.9,0.4,0.9,0.9v1.8
		C123.2,171.8,122.8,172.2,122.3,172.2z"/>
	<path class="st6" d="M138.6,172.2c-0.5,0-0.9-0.4-0.9-0.9v-1.8c0-0.5,0.4-0.9,0.9-0.9c0.5,0,0.9,0.4,0.9,0.9v1.8
		C139.5,171.8,139.1,172.2,138.6,172.2z"/>
	<path class="st6" d="M128.8,183.3c-1.6,0-2.6-0.6-3.3-1.2c-0.8-0.7-1.2-1.5-1.2-1.6c-0.1-0.2,0-0.5,0.2-0.6c0.2-0.1,0.4,0,0.5,0.2
		c0,0.1,1.2,2.6,4.4,2.2c0.2,0,0.4,0.1,0.4,0.4c0,0.2-0.1,0.5-0.4,0.5C129.3,183.2,129,183.3,128.8,183.3z"/>
	<path class="st7" d="M138.6,161.1c-3.2,0-5.8,2.6-6.2,5.9c-1.7-0.9-3.3-0.4-4.1,0c-0.3-3.3-3-5.9-6.1-5.9c-3.4,0-6.2,3-6.2,6.6
		c0,3.7,2.8,6.6,6.2,6.6c3.3,0,6.1-2.8,6.2-6.4c0.5-0.3,2.2-1.1,4,0c0.1,3.5,2.8,6.4,6.2,6.4c3.4,0,6.2-3,6.2-6.6
		C144.8,164.1,142.1,161.1,138.6,161.1z M122.3,173.5c-3,0-5.4-2.6-5.4-5.8c0-3.2,2.4-5.8,5.4-5.8c3,0,5.4,2.6,5.4,5.8
		C127.6,170.9,125.2,173.5,122.3,173.5z M138.6,173.5c-3,0-5.4-2.6-5.4-5.8c0-3.2,2.4-5.8,5.4-5.8c3,0,5.4,2.6,5.4,5.8
		C144,170.9,141.6,173.5,138.6,173.5z"/>
	<path class="st8" d="M125.1,201.1v-7.9c-3.6-1.1-7.7-3.7-10.8-6.2L125.1,201.1z"/>
	<path class="st9" d="M163.3,457.2h-16.9l-28.5-134.6L88.7,457.2H71.7l15.8-151l62.6,0L163.3,457.2z"/>
	<path d="M147.7,464.5v12.9c0,1.5,1.1,2.7,2.5,2.7h34c0.3,0,0.6-0.3,0.6-0.6V477c0-1.1-0.6-2.1-1.5-2.5l-19.2-9.9L147.7,464.5
		L147.7,464.5z"/>
	<path d="M86.8,464.5v12.9c0,1.5-1.1,2.7-2.5,2.7h-34c-0.3,0-0.6-0.3-0.6-0.6V477c0-1.1,0.6-2.1,1.5-2.5l19.2-9.9L86.8,464.5
		L86.8,464.5z"/>
	<path class="st4" d="M146.4,457.2l1.3,7.3h16.5l-0.8-7.3H146.4z"/>
	<path class="st4" d="M71.7,457.2l-1.3,7.3h16.4l1.8-7.3H71.7z"/>
	<path class="st10" d="M87.2,309.4l63.6,3.9l-0.6-7.1l-62.6,0"/>
	<path class="st11" d="M106.3,221l2.9,4.6l-42.3,47.8c-1.1,1.3-2.7,1.9-4.4,1.8l-2.1-0.2c-5-0.4-6.5-7.2-2.2-9.6l18.5-14.3
		L106.3,221z"/>
	<path class="st12" d="M146,241.1l4.1,65.1H87.5l3.8-46.4L90.5,235l-3.2,3.5l-14.4-11.9l7.8-13.6c1.9-3.4,4.7-6.1,8-7.8l17.8-9.3
		l0.7-0.3l2-1.1c0,0,9.3,6.6,16,0l3.6,1.4l0.7,0.3l18.9,7.6c3,1.2,5.4,3.6,6.7,6.7l8,18.3L146,241.1z"/>
	<path class="st13" d="M128.6,196c-3.1,2.3-6.7,3.6-10.5,3.6c-4,0-7.9-1.4-11-4l-0.7,0.3c3.3,2.8,7.4,4.3,11.7,4.3
		c4.1,0,8-1.4,11.3-4L128.6,196z"/>
	<path class="st13" d="M87.8,207.4c0,3.2-2.4,5.8-5.4,5.8c-0.6,0-1.2-0.1-1.8-0.3c1.7-3,4.1-5.4,6.9-7.1
		C87.7,206.3,87.8,206.8,87.8,207.4z"/>
	<path class="st14" d="M121.1,287.6l-53.2,19c-0.9,0.3-1.8-0.3-2-1.4l-9.5-41.9c-0.2-1.1,0.3-2.2,1.1-2.6l53.2-19
		c0.9-0.3,1.8,0.3,2,1.4l9.5,41.9C122.5,286.1,122,287.3,121.1,287.6z"/>
	<path class="st15" d="M122.4,288.8l-54.2,18.5c-0.9,0.3-1.8-0.3-2.1-1.4l-9.7-40.6c-0.3-1.1,0.3-2.2,1.2-2.5l54.2-18.5
		c0.9-0.3,1.8,0.3,2.1,1.4l9.7,40.6C123.8,287.4,123.3,288.5,122.4,288.8z"/>
	<path class="st11" d="M129.1,293.6l-59.7,19.6c-1,0.3-2-0.3-2.3-1.5l-10.7-43.2c-0.3-1.1,0.3-2.3,1.3-2.6l59.7-19.6
		c1-0.3,2,0.3,2.3,1.5l10.7,43.2C130.7,292.1,130.1,293.3,129.1,293.6z"/>
	<path class="st16" d="M114.6,246.6l7.5,3.6l-1.8,4.4c-0.9,2.3-3.5,3.3-5.7,2.2c-2.3-1.1-3.2-4-2-6.2L114.6,246.6z"/>
	<path class="st11" d="M135.5,198.8l8.2,3.3l-22,50.5c-1.1,2.5-3.9,3.5-6.3,2.3c-2.4-1.2-3.5-4.2-2.4-6.6L135.5,198.8z"/>
	<path class="st17" d="M137,239.5h-13.7c-0.5,0-0.8-0.4-0.8-0.9v-27.5c0-0.5,0.4-0.9,0.8-0.9H137c0.5,0,0.8,0.4,0.8,0.9v27.5
		C137.8,239.1,137.4,239.5,137,239.5z"/>
	<path class="st4" d="M174.3,257.8l-11.4-29l-8.7,6.3L142,223.6l-2.5-9.2c0-0.3-0.2-0.5-0.5-0.6c-1.2-0.2-2.2,0.9-2.1,2.2l0.4,4
		l-4.5,0.6c-1.2,0.2-2.5,0.1-3.6-0.3l-4.2-1.4c-1.3-0.4-2.6,0.3-3,1.7l-1.6-0.4c-0.8-0.2-1.6,0.3-1.8,1.2l0,0
		c-0.2,0.7,0.1,1.5,0.8,1.8c-0.3,1.4,0.4,2.8,1.7,3.2l0,0c-0.3,1.4,0.3,2.9,1.5,3.5l3.2,1.6c1.2,0.6,2.5,0.9,3.8,0.8l7.3-0.6
		l24.7,34.6l0,0c2.2,2.8,5.9,3.8,9.1,2.2C174.3,266.6,176,261.9,174.3,257.8z"/>
	<path class="st13" d="M155.1,211c-0.6,0.2-1.2,0.4-1.9,0.4c-2.9,0-5.2-2.5-5.2-5.6c0-0.6,0.1-1.3,0.3-1.8c2.9,1.2,5.3,3.6,6.6,6.6
		L155.1,211z"/>
	<path class="st8" d="M155.8,236.6l13.2,7.7l3,7.6L155.8,236.6z"/>
	<path class="st18" d="M87.5,307.1l-18.7-35l4-1.2L87.5,307.1z"/>
	<path class="st8" d="M166.8,267.2c2.8,0,5.1-2.5,5.1-5.5c0-3-2.3-5.5-5.1-5.5c-2.8,0-5.1,2.5-5.1,5.5
		C161.7,264.8,164,267.2,166.8,267.2z"/>
	<path class="st8" d="M69.3,246c0,2.8-1.9,5.2-4.4,5.7l-0.9-2.3c-0.9-2.3-0.8-4.9,0.4-7.1l1-2C67.7,241.1,69.3,243.4,69.3,246z"/>
	<path class="st4" d="M101.4,300.7l-6.4-3.1c-0.4-0.2-0.8-0.6-0.9-1.1l-0.9-2.7l3.2,0.8l1,2.4c0.3,0.8,1.2,1.2,2,0.8l-1.3-4.3
		c-0.3-0.7-0.7-1.3-1.4-1.6l-6.7-3.6L78.4,248l8.9-9.5l-14.4-11.9l-8.4,15.8c-1.2,2.2-1.3,4.8-0.4,7.1l23.4,57.6l4.7,0.2
		c0.6,0,1.1-0.3,1.4-0.8l0.5-0.9l2.4,0.2c0.5,0,1-0.2,1.3-0.7l0.6-0.8l0.3,0.1c0.9,0.3,1.9-0.2,2.4-1.1l1.7,0.6
		C103.1,302.6,102.6,301.3,101.4,300.7z"/>
	<path class="st14" d="M257.8,472.8l0-2.3c0-0.7-0.7-1.3-1.5-1.3l-60.3,0.3c-3,0-5.5,2.2-5.5,4.8l0,3.9c0,2.7,2.5,4.8,5.5,4.8
		l60.3-0.3c0.8,0,1.5-0.6,1.4-1.3l0-2.3c0-0.7-0.7-1.3-1.5-1.3l-58.1,0.3c-1.2,0-2.2-0.9-2.2-1.9s1-1.9,2.2-2l58.1-0.3
		C257.1,474.1,257.8,473.5,257.8,472.8z"/>
	<path class="st15" d="M256,448l-0.1-2.3c0-0.7-0.6-1.3-1.3-1.3l-52.5-1.4c-2.6-0.1-4.7,2-4.6,4.7l0.1,3.9c0.1,2.6,2.3,4.9,5,4.9
		l52.5,1.4c0.7,0,1.2-0.5,1.2-1.2l-0.1-2.3c0-0.7-0.6-1.3-1.3-1.3l-50.6-1.4c-1.1,0-2-0.9-2-2c0-1.1,0.8-1.9,1.9-1.9l50.6,1.4
		C255.5,449.2,256.1,448.7,256,448z"/>
	<path class="st15" d="M253.2,465.5l0-2.3c0-0.7-0.7-1.3-1.5-1.3l-51.7,0.2c-3,0-5.5,2.2-5.5,4.9l0,3.9c0,2.7,2.5,4.8,5.5,4.8
		l51.7-0.2c0.8,0,1.5-0.6,1.5-1.3l0-2.3c0-0.7-0.7-1.3-1.5-1.3l-49.5,0.2c-1.2,0-2.2-0.9-2.2-1.9c0-1.1,1-1.9,2.2-2l49.5-0.2
		C252.6,466.8,253.2,466.2,253.2,465.5z"/>
	<path class="st19" d="M255.4,439l0-2.3c0-0.7-0.7-1.3-1.5-1.3l-51.7,0.2c-3,0-5.5,2.2-5.5,4.8l0,3.9c0,2.7,2.5,4.8,5.5,4.8L254,449
		c0.8,0,1.5-0.6,1.4-1.3l0-2.3c0-0.7-0.7-1.3-1.5-1.3l-49.5,0.2c-1.2,0-2.2-0.9-2.2-1.9c0-1.1,1-1.9,2.2-2l49.5-0.2
		C254.7,440.3,255.4,439.7,255.4,439z"/>
	<path class="st20" d="M251.3,466.8l0,3.9l-49,0.2c-1.2,0-2.2-0.9-2.2-1.9s1-1.9,2.2-2L251.3,466.8L251.3,466.8z"/>
	<path class="st20" d="M247.2,474.2l0,3.9l-49,0.2c-1.2,0-2.2-0.9-2.2-1.9c0-1.1,1-1.9,2.2-2L247.2,474.2L247.2,474.2z"/>
	<path class="st20" d="M246.9,449l0.1,3.9l-42.7-1.1c-1.1,0-2-0.9-2-2c0-1.1,0.8-1.9,1.9-1.9L246.9,449z"/>
	<path class="st20" d="M253.5,440.3l0,3.9l-49,0.2c-1.2,0-2.2-0.9-2.2-1.9c0-1.1,1-1.9,2.2-2L253.5,440.3z"/>
	<path class="st14" d="M254.5,458l0-2.3c0-0.7-0.7-1.3-1.5-1.3l-51.7,0.2c-3,0-5.5,2.2-5.5,4.9l0,3.9c0,2.7,2.5,4.8,5.5,4.8
		l51.7-0.2c0.8,0,1.5-0.6,1.4-1.3l0-2.3c0-0.7-0.7-1.3-1.5-1.3l-49.5,0.2c-1.2,0-2.2-0.9-2.2-1.9c0-1.1,1-1.9,2.2-2l49.5-0.2
		C253.9,459.3,254.5,458.7,254.5,458z"/>
	<path class="st20" d="M252.6,459.3l0,3.9l-49,0.2c-1.2,0-2.2-0.9-2.2-1.9c0-1.1,1-1.9,2.2-1.9L252.6,459.3L252.6,459.3z"/>
</g>
</svg>
