<?xml version="1.0" encoding="utf-8"?>
<!-- Generator: Adobe Illustrator 24.3.0, SVG Export Plug-In . SVG Version: 6.00 Build 0)  -->
<svg version="1.1" id="Capa_1" xmlns="http://www.w3.org/2000/svg" xmlns:xlink="http://www.w3.org/1999/xlink" x="0px" y="0px"
	 viewBox="0 0 266.5 249.4" style="enable-background:new 0 0 266.5 249.4;" xml:space="preserve">
<style type="text/css">
	.st0{opacity:0.3;}
	.st1{fill:url(#SVGID_1_);}
	.st2{fill:url(#SVGID_2_);}
	.st3{fill:url(#SVGID_3_);}
	.st4{fill:url(#SVGID_4_);}
	.st5{fill:url(#SVGID_5_);}
	.st6{fill:url(#SVGID_6_);}
	.st7{opacity:0.5;fill:url(#SVGID_7_);enable-background:new    ;}
	.st8{fill:#F6E248;fill-opacity:0.96;}
	.st9{fill:#686868;}
	.st10{fill:#C5428A;}
	.st11{fill:#FFFFFF;}
	.st12{fill:#FFFFFF;fill-opacity:0.62;}
	.st13{fill:#F6E248;fill-opacity:0.87;}
	.st14{opacity:0.2;fill:url(#SVGID_8_);stroke:#000000;enable-background:new    ;}
	.st15{opacity:0.2;fill:url(#SVGID_9_);stroke:#000000;enable-background:new    ;}
	.st16{opacity:0.2;fill:url(#SVGID_10_);stroke:#000000;enable-background:new    ;}
	.st17{opacity:0.2;fill:url(#SVGID_11_);stroke:#000000;enable-background:new    ;}
	.st18{opacity:0.2;fill:url(#SVGID_12_);stroke:#000000;enable-background:new    ;}
	.st19{opacity:0.2;fill:url(#SVGID_13_);stroke:#000000;enable-background:new    ;}
	.st20{opacity:0.2;fill:url(#SVGID_14_);stroke:#000000;enable-background:new    ;}
	.st21{opacity:0.2;fill:url(#SVGID_15_);stroke:#000000;enable-background:new    ;}
	.st22{opacity:0.2;}
	.st23{fill:url(#SVGID_16_);}
	.st24{fill:#FFFFFF;filter:url(#Adobe_OpacityMaskFilter);}
	.st25{mask:url(#path-22-inside-1_1_);}
	.st26{opacity:0.2;fill:url(#SVGID_17_);stroke:#000000;enable-background:new    ;}
	.st27{opacity:0.2;fill:url(#SVGID_18_);stroke:#000000;enable-background:new    ;}
	.st28{opacity:0.2;fill:url(#SVGID_19_);stroke:#000000;enable-background:new    ;}
	.st29{fill:none;stroke:#000000;stroke-linejoin:round;}
	.st30{opacity:0.6;fill:url(#SVGID_20_);enable-background:new    ;}
	.st31{fill:none;stroke:#000000;stroke-linecap:round;stroke-linejoin:round;}
	.st32{fill:#C8B4B4;}
	.st33{fill:#868585;}
	.st34{fill:url(#SVGID_21_);}
	.st35{fill:url(#SVGID_22_);}
	.st36{opacity:0.8;}
	.st37{fill:url(#SVGID_23_);}
	.st38{fill:url(#SVGID_24_);}
	.st39{fill:url(#SVGID_25_);}
	.st40{fill:url(#SVGID_26_);}
	.st41{fill:url(#SVGID_27_);}
	.st42{fill:url(#SVGID_28_);}
	.st43{fill:url(#SVGID_29_);}
	.st44{fill:url(#SVGID_30_);}
	.st45{fill:url(#SVGID_31_);}
	.st46{fill:url(#SVGID_32_);}
	.st47{fill:url(#SVGID_33_);}
	.st48{fill:url(#SVGID_34_);}
	.st49{fill:url(#SVGID_35_);}
	.st50{fill:url(#SVGID_36_);}
	.st51{fill:url(#SVGID_37_);}
	.st52{fill:url(#SVGID_38_);}
	.st53{fill:url(#SVGID_39_);}
	.st54{fill:url(#SVGID_40_);}
	.st55{fill:url(#SVGID_41_);}
	.st56{fill:url(#SVGID_42_);}
	.st57{fill:url(#SVGID_43_);}
	.st58{fill:url(#SVGID_44_);}
	.st59{fill:url(#SVGID_45_);}
	.st60{fill:url(#SVGID_46_);}
	.st61{fill:url(#SVGID_47_);}
	.st62{fill:url(#SVGID_48_);}
</style>
<g class="st0">
	
		<linearGradient id="SVGID_1_" gradientUnits="userSpaceOnUse" x1="326.6826" y1="154.8329" x2="299.18" y2="38.6027" gradientTransform="matrix(0.9332 0.3595 0.4371 -0.8994 -268.9349 185.7544)">
		<stop  offset="0" style="stop-color:#A53C2A;stop-opacity:0.9844"/>
		<stop  offset="1" style="stop-color:#FA6A51;stop-opacity:0"/>
	</linearGradient>
	<path class="st1" d="M108.6,138.1L108.6,138.1c2.1,0.8,3,3.1,2,5.1l-44.4,91.3c-1,2-3.4,3-5.5,2.2h0c-2.1-0.8-3-3.1-2-5.1
		l44.4-91.3C104,138.3,106.5,137.3,108.6,138.1z"/>
	
		<linearGradient id="SVGID_2_" gradientUnits="userSpaceOnUse" x1="169.6868" y1="-7.7381" x2="183.4094" y2="-130.9249" gradientTransform="matrix(0.9437 -0.3308 -0.4045 -0.9146 -61.871 192.5714)">
		<stop  offset="0" style="stop-color:#A53C2A"/>
		<stop  offset="1" style="stop-color:#FA6A51;stop-opacity:0"/>
	</linearGradient>
	<path class="st2" d="M105.3,138.4L105.3,138.4c2.1-0.7,4.5,0.3,5.4,2.4l40.9,92.6c0.9,2-0.1,4.3-2.2,5l0,0
		c-2.1,0.7-4.5-0.3-5.4-2.4l-40.9-92.6C102.2,141.3,103.2,139.1,105.3,138.4z"/>
	
		<linearGradient id="SVGID_3_" gradientUnits="userSpaceOnUse" x1="249.1384" y1="69.6415" x2="297.5854" y2="-38.4272" gradientTransform="matrix(1 7.573420e-03 9.555040e-03 -1 -164.3514 213.8031)">
		<stop  offset="5.588380e-02" style="stop-color:#A53C2A"/>
		<stop  offset="1" style="stop-color:#FA6A51;stop-opacity:0"/>
	</linearGradient>
	<path class="st3" d="M106.6,139.6L106.6,139.6c2.3,0,4.1,1.9,4.1,4.1l-0.9,99.2c0,2.3-1.9,4.1-4.1,4.1l0,0c-2.3,0-4.1-1.9-4.1-4.1
		l0.9-99.2C102.5,141.4,104.4,139.6,106.6,139.6z"/>
	
		<linearGradient id="SVGID_4_" gradientUnits="userSpaceOnUse" x1="321.217" y1="48.6983" x2="408.5477" y2="-143.4252" gradientTransform="matrix(1 0 0 -1 -262.7717 69.2756)">
		<stop  offset="0" style="stop-color:#B9A433;stop-opacity:0.96"/>
		<stop  offset="0.654" style="stop-color:#B76F62;stop-opacity:0.9844"/>
		<stop  offset="1" style="stop-color:#8F2B62"/>
	</linearGradient>
	<ellipse class="st4" cx="102.9" cy="118.5" rx="98.8" ry="37.5"/>
	
		<linearGradient id="SVGID_5_" gradientUnits="userSpaceOnUse" x1="321.2168" y1="55.6156" x2="408.5475" y2="-136.5074" gradientTransform="matrix(1 0 0 -1 -262.7717 69.2756)">
		<stop  offset="0" style="stop-color:#F6E248;stop-opacity:0.96"/>
		<stop  offset="0.654" style="stop-color:#DC8071;stop-opacity:0.9844"/>
		<stop  offset="1" style="stop-color:#C5428A"/>
	</linearGradient>
	<ellipse class="st5" cx="102.9" cy="111.5" rx="98.8" ry="37.5"/>
	
		<linearGradient id="SVGID_6_" gradientUnits="userSpaceOnUse" x1="302.003" y1="44.901" x2="364.3067" y2="24.198" gradientTransform="matrix(1 0 0 -1 -262.7717 69.2756)">
		<stop  offset="0" style="stop-color:#9FACD2"/>
		<stop  offset="1" style="stop-color:#48499F;stop-opacity:0.7"/>
	</linearGradient>
	<path class="st6" d="M35,52.3c0-9.4,6.8-20.7,15.1-25.1L86.3,8C97.2,2.2,106,7.5,106,19.8v6.5c0,3.3-1.5,7.2-3.9,10.4l-3.9,5
		c0,0,0,0,0,0.1c0,0.1,0.1,0,0.1,0l1.1-6.3c0.1-0.5-0.2-0.7-0.6-0.5l-12.4,7.4L50.1,61.4C41.7,65.8,35,61.7,35,52.3z"/>
	
		<linearGradient id="SVGID_7_" gradientUnits="userSpaceOnUse" x1="300.6533" y1="-65.4635" x2="379.3476" y2="-101.4163" gradientTransform="matrix(0.8832 -0.469 0 -1 -232.1003 108.3681)">
		<stop  offset="0" style="stop-color:#48499F;stop-opacity:0.63"/>
		<stop  offset="1" style="stop-color:#6675B5;stop-opacity:0.57"/>
	</linearGradient>
	<path class="st7" d="M47.5,26.1L88.3,4.4c8.3-4.4,15.1-0.4,15.1,9.1l0,0c0,9.4-6.7,20.6-15.1,25.1L47.5,60.2
		c-8.3,4.4-15.1,0.4-15.1-9.1l0,0C32.4,41.8,39.1,30.5,47.5,26.1z"/>
	<path class="st8" d="M41.4,35.8l16.7-8.9c0.5-0.3,0.9,0,0.9,0.6l0,0c0,0.6-0.4,1.3-0.9,1.6l-16.7,8.9c-0.5,0.3-0.9,0-0.9-0.6l0,0
		C40.5,36.7,40.9,36,41.4,35.8z"/>
	<path class="st9" d="M41.4,41.7l48-25.5c0.5-0.3,0.9,0,0.9,0.6l0,0c0,0.6-0.4,1.3-0.9,1.6l-48,25.5c-0.5,0.3-0.9,0-0.9-0.6l0,0
		C40.5,42.7,40.9,42,41.4,41.7z"/>
	<path class="st10" d="M41.4,54.7l32.5-17.3c0.5-0.3,0.9,0,0.9,0.6l0,0c0,0.6-0.4,1.3-0.9,1.6L41.4,56.8c-0.5,0.3-0.9,0-0.9-0.6l0,0
		C40.5,55.7,40.9,55,41.4,54.7z"/>
	<path class="st11" d="M41.4,48.2l33.5-17.8c0.5-0.3,0.9,0,0.9,0.6l0,0c0,0.6-0.4,1.3-0.9,1.6L41.4,50.3c-0.5,0.3-0.9,0-0.9-0.6l0,0
		C40.5,49.2,40.9,48.5,41.4,48.2z"/>
	<path class="st12" d="M83.7,32.3l16.5-8.8c0.5-0.3,0.9,0,0.9,0.6l0,0c0,0.6-0.4,1.3-0.9,1.6l-16.5,8.8c-0.5,0.3-0.9,0-0.9-0.6l0,0
		C82.7,33.2,83.1,32.5,83.7,32.3z"/>
	<path class="st13" d="M88.1,35.2l7.7-4.1c0.5-0.3,0.9,0,0.9,0.6l0,0c0,0.6-0.4,1.3-0.9,1.6l-7.7,4.1c-0.5,0.3-0.9,0-0.9-0.6l0,0
		C87.2,36.2,87.6,35.5,88.1,35.2z"/>
	
		<linearGradient id="SVGID_8_" gradientUnits="userSpaceOnUse" x1="310.1534" y1="-79.5136" x2="419.8842" y2="4.5147" gradientTransform="matrix(1 0 0 -1 -262.7717 69.2756)">
		<stop  offset="0" style="stop-color:#AEAEAE;stop-opacity:0.49"/>
		<stop  offset="1" style="stop-color:#4D4D4D;stop-opacity:0.88"/>
	</linearGradient>
	<path class="st14" d="M81.4,77.9L81.4,77.9L41.5,96c-0.3,0.1-0.3,0.3-0.2,0.5c0,0,0.1,0.1,0.2,0.1l10.8,6l0,0l0,0L70.7,113l0,0
		l25.4,14.6l0,0l10,5.7l0,0l4.2,2.3c0,0,0.1,0,0.1-0.1 M81.4,77.9l29.4,57.9 M81.4,77.9l21.3-9.9l0,0l0,0l6.7-3.4
		c0.3-0.1,0.6-0.2,0.9-0.3l0.5-0.1c0.6-0.1,1-0.4,1.3-0.6c0.7-0.7,2.9-0.7,3.9,0l1.5,1l0,0l0,0l3.1,1.9l0,0l0,0l8.7,4.8 M81.4,77.9
		l47.8-6.7 M110.4,135.6l0.5,0.2 M110.4,135.6L110.4,135.6l0.5,0.2 M110.4,135.6l17.6-8.3l0,0l25.7-11.8l25.3-11.6
		c0.3-0.1,0.7-0.3,1.1-0.4c1.9-0.5,2.4-1.6,1.1-2.5l-1.5-1 M110.9,135.8l17.6-8.3l25.7-11.8l25.3-11.6c0.3-0.1,0.6-0.2,0.9-0.3
		c2.2-0.6,2.8-1.9,1.2-2.9l-1.5-1 M179.7,100L179.7,100l0.5-0.1 M179.7,100L179.7,100l0.5-0.1 M179.7,100l-5.4-3l0,0l-10.2-5.9l0,0
		L146,80.5 M180.2,99.8l-5.4-3l-10.2-5.9l-18.1-10.6 M146,80.5L146,80.5l0.5-0.2 M146,80.5L146,80.5l0.5-0.2 M146,80.5l-16.7-9.3
		l0.5-0.2 M146.5,80.3L129.8,71 M129.8,71l-0.5,0.2 M129.8,71l-8.7-4.8l8.2,4.9"/>
	
		<linearGradient id="SVGID_9_" gradientUnits="userSpaceOnUse" x1="306.7503" y1="-78.1986" x2="416.4813" y2="5.8302" gradientTransform="matrix(1 0 0 -1 -262.7717 69.2756)">
		<stop  offset="0" style="stop-color:#AEAEAE;stop-opacity:0.49"/>
		<stop  offset="1" style="stop-color:#4D4D4D;stop-opacity:0.88"/>
	</linearGradient>
	<path class="st15" d="M78,76.5L78,76.5l-40,18.1c-0.3,0.1-0.3,0.3-0.2,0.5c0,0,0.1,0.1,0.2,0.1l10.8,6l0,0l0,0l18.5,10.4l0,0
		l25.4,14.6l0,0l10,5.7l0,0l4.2,2.3c0,0,0.1,0,0.1-0.1 M78,76.5l29.4,57.9 M78,76.5l21.3-9.9l0,0l0,0l6.7-3.4
		c0.3-0.1,0.6-0.2,0.9-0.3l0.5-0.1c0.6-0.1,1-0.4,1.3-0.6c0.7-0.7,2.9-0.7,3.9,0l1.5,1l0,0l0,0l3.1,1.9l0,0l0,0l8.7,4.8 M78,76.5
		l47.8-6.7 M107,134.3l0.5,0.2 M107,134.3L107,134.3l0.5,0.2 M107,134.3l17.6-8.3l0,0l25.7-11.8l25.3-11.6c0.3-0.1,0.7-0.3,1.1-0.4
		c1.9-0.5,2.4-1.6,1.1-2.5l-1.5-1 M107.5,134.5l17.6-8.3l25.7-11.8l25.3-11.6c0.3-0.1,0.6-0.2,0.9-0.3c2.2-0.6,2.8-1.9,1.2-2.9
		l-1.5-1 M176.2,98.6L176.2,98.6l0.5-0.2 M176.2,98.6L176.2,98.6l0.5-0.2 M176.2,98.6l-5.4-3l0,0l-10.2-5.9l0,0l-18.1-10.6
		 M176.8,98.5l-5.4-3l-10.2-5.9L143.1,79 M142.6,79.1L142.6,79.1l0.5-0.2 M142.6,79.1L142.6,79.1l0.5-0.2 M142.6,79.1l-16.7-9.3
		l0.5-0.2 M143.1,79l-16.7-9.3 M126.4,69.7l-0.5,0.2 M126.4,69.7l-8.7-4.8l8.2,4.9"/>
	
		<linearGradient id="SVGID_10_" gradientUnits="userSpaceOnUse" x1="305.0611" y1="-79.2235" x2="414.7922" y2="4.8051" gradientTransform="matrix(1 0 0 -1 -262.7717 69.2756)">
		<stop  offset="0" style="stop-color:#AEAEAE;stop-opacity:0.49"/>
		<stop  offset="1" style="stop-color:#4D4D4D;stop-opacity:0.88"/>
	</linearGradient>
	<path class="st16" d="M76.4,77.6L76.4,77.6l-40,18.1c-0.3,0.1-0.3,0.3-0.2,0.5c0,0,0.1,0.1,0.2,0.1l10.8,6l0,0l0,0l18.5,10.4l0,0
		L91,127.3l0,0l10,5.7l0,0l4.2,2.3c0,0,0.1,0,0.1-0.1 M76.4,77.6l29.4,57.9 M76.4,77.6l21.3-9.9l0,0l0,0l6.7-3.4
		c0.3-0.1,0.6-0.2,0.9-0.3l0.5-0.1c0.6-0.1,1-0.4,1.3-0.6c0.7-0.7,2.9-0.7,3.9,0l1.5,1l0,0l0,0l3.1,1.9l0,0l0,0l8.7,4.8 M76.4,77.6
		l47.8-6.7 M105.3,135.3l0.5,0.2 M105.3,135.3L105.3,135.3l0.5,0.2 M105.3,135.3l17.6-8.3l0,0l25.7-11.8l25.3-11.6
		c0.3-0.1,0.7-0.3,1.1-0.4c1.9-0.5,2.4-1.6,1.1-2.5l-1.5-1 M105.8,135.5l17.6-8.3l25.7-11.8l25.3-11.6c0.3-0.1,0.6-0.2,0.9-0.3
		c2.2-0.6,2.8-1.9,1.2-2.9l-1.5-1 M174.6,99.7L174.6,99.7l0.5-0.1 M174.6,99.7L174.6,99.7l0.5-0.1 M174.6,99.7l-5.4-3l0,0L159,90.8
		l0,0l-18.1-10.6 M175.1,99.5l-5.4-3l-10.2-5.9L141.4,80 M140.9,80.2L140.9,80.2l0.5-0.2 M140.9,80.2L140.9,80.2l0.5-0.2
		 M140.9,80.2l-16.7-9.3l0.5-0.2 M141.4,80l-16.7-9.3 M124.7,70.7l-0.5,0.2 M124.7,70.7l-8.7-4.8l8.2,4.9"/>
	
		<linearGradient id="SVGID_11_" gradientUnits="userSpaceOnUse" x1="304.6151" y1="-79.9346" x2="414.3462" y2="4.0941" gradientTransform="matrix(1 0 0 -1 -262.7717 69.2756)">
		<stop  offset="0" style="stop-color:#AEAEAE;stop-opacity:0.49"/>
		<stop  offset="1" style="stop-color:#4D4D4D;stop-opacity:0.88"/>
	</linearGradient>
	<path class="st17" d="M75.9,78.3L75.9,78.3l-40,18.1c-0.3,0.1-0.3,0.3-0.2,0.5c0,0,0.1,0.1,0.2,0.1l10.8,6l0,0l0,0l18.5,10.4l0,0
		L90.6,128l0,0l10,5.7l0,0l4.2,2.3c0,0,0.1,0,0.1-0.1 M75.9,78.3l29.4,57.9 M75.9,78.3l21.3-9.9l0,0l0,0l6.7-3.4
		c0.3-0.1,0.6-0.2,0.9-0.3l0.5-0.1c0.6-0.1,1-0.4,1.3-0.6c0.7-0.7,2.9-0.7,3.9,0l1.5,1l0,0l0,0l3.1,1.9l0,0l0,0l8.7,4.8 M75.9,78.3
		l47.8-6.7 M104.9,136l0.5,0.2 M104.9,136L104.9,136l0.5,0.2 M104.9,136l17.6-8.3l0,0l25.7-11.8l25.3-11.6c0.3-0.1,0.7-0.3,1.1-0.4
		c1.9-0.5,2.4-1.6,1.1-2.5l-1.5-1 M105.4,136.2l17.6-8.3l25.7-11.8l25.3-11.6c0.3-0.1,0.6-0.2,0.9-0.3c2.2-0.6,2.8-1.9,1.2-2.9
		l-1.5-1 M174.1,100.4L174.1,100.4l0.5-0.1 M174.1,100.4L174.1,100.4l0.5-0.1 M174.1,100.4l-5.4-3l0,0l-10.2-5.9l0,0l-18.1-10.6
		 M174.6,100.2l-5.4-3L159,91.3L141,80.7 M140.5,80.9L140.5,80.9l0.5-0.2 M140.5,80.9L140.5,80.9l0.5-0.2 M140.5,80.9l-16.7-9.3
		l0.5-0.2 M141,80.7l-16.7-9.3 M124.2,71.4l-0.5,0.2 M124.2,71.4l-8.7-4.8l8.2,4.9"/>
	
		<linearGradient id="SVGID_12_" gradientUnits="userSpaceOnUse" x1="309.8419" y1="-78.3417" x2="419.5724" y2="5.6865" gradientTransform="matrix(1 0 0 -1 -262.7717 69.2756)">
		<stop  offset="0" style="stop-color:#AEAEAE;stop-opacity:0.49"/>
		<stop  offset="1" style="stop-color:#4D4D4D;stop-opacity:0.88"/>
	</linearGradient>
	<path class="st18" d="M81.1,76.7L81.1,76.7l-40,18.1c-0.3,0.1-0.3,0.3-0.2,0.5c0,0,0.1,0.1,0.2,0.1l10.8,6l0,0h0l18.5,10.4l0,0
		l25.4,14.6l0,0l10,5.7l0,0l4.2,2.3c0,0,0.1,0,0.1-0.1 M81.1,76.7l29.4,57.9 M81.1,76.7l21.3-9.9l0,0l0,0l6.7-3.4
		c0.3-0.1,0.6-0.2,0.9-0.3l0.5-0.1c0.6-0.1,1-0.4,1.3-0.6c0.7-0.7,2.9-0.7,3.9,0l1.5,1l0,0l0,0l3.1,1.9l0,0l0,0L129,70 M81.1,76.7
		L129,70 M110.1,134.4l0.5,0.2 M110.1,134.4L110.1,134.4l0.5,0.2 M110.1,134.4l17.6-8.3l0,0l25.7-11.8l25.3-11.6
		c0.3-0.1,0.7-0.3,1.1-0.4c1.9-0.5,2.4-1.6,1.1-2.5l-1.5-1 M110.6,134.6l17.6-8.3l25.7-11.8l25.3-11.6c0.3-0.1,0.6-0.2,0.9-0.3
		c2.2-0.6,2.8-1.9,1.2-2.9l-1.5-1 M179.3,98.8L179.3,98.8l0.5-0.1 M179.3,98.8L179.3,98.8l0.5-0.1 M179.3,98.8l-5.4-3l0,0l-10.2-5.9
		l0,0l-18.1-10.6 M179.9,98.6l-5.4-3l-10.2-5.9l-18.1-10.6 M145.7,79.3L145.7,79.3l0.5-0.2 M145.7,79.3L145.7,79.3l0.5-0.2
		 M145.7,79.3L129,70l0.5-0.2 M146.2,79.1l-16.7-9.3 M129.5,69.8L129,70 M129.5,69.8l-8.7-4.8L129,70"/>
	
		<linearGradient id="SVGID_13_" gradientUnits="userSpaceOnUse" x1="308.0101" y1="-75.4476" x2="417.7412" y2="8.5806" gradientTransform="matrix(1 0 0 -1 -262.7717 69.2756)">
		<stop  offset="0" style="stop-color:#AEAEAE;stop-opacity:0.49"/>
		<stop  offset="1" style="stop-color:#4D4D4D;stop-opacity:0.88"/>
	</linearGradient>
	<path class="st19" d="M79.3,73.8L79.3,73.8l-40,18.1C39,92,39,92.2,39.1,92.4c0,0,0.1,0.1,0.2,0.1l10.8,6l0,0h0L68.6,109l0,0
		L94,123.6l0,0l10,5.7l0,0l4.2,2.3c0,0,0.1,0,0.1-0.1 M79.3,73.8l29.4,57.9 M79.3,73.8l21.3-9.9l0,0l0,0l6.7-3.4
		c0.3-0.1,0.6-0.2,0.9-0.3l0.5-0.1c0.6-0.1,1-0.4,1.3-0.6c0.7-0.7,2.9-0.7,3.9,0l1.5,1l0,0l0,0l3.1,1.9l0,0l0,0l8.7,4.8 M79.3,73.8
		l47.8-6.7 M108.3,131.5l0.5,0.2 M108.3,131.5L108.3,131.5l0.5,0.2 M108.3,131.5l17.6-8.3l0,0l25.7-11.8l25.3-11.6
		c0.3-0.1,0.7-0.3,1.1-0.4c1.9-0.5,2.4-1.6,1.1-2.5l-1.5-1 M108.7,131.7l17.6-8.3l25.7-11.8l25.3-11.6c0.3-0.1,0.6-0.2,0.9-0.3
		c2.2-0.6,2.8-1.9,1.2-2.9l-1.5-1 M177.5,95.9L177.5,95.9l0.5-0.1 M177.5,95.9L177.5,95.9l0.5-0.1 M177.5,95.9l-5.4-3l0,0L161.9,87
		l0,0l-18.1-10.6 M178,95.7l-5.4-3l-10.2-5.9l-18.1-10.6 M143.9,76.4L143.9,76.4l0.5-0.2 M143.9,76.4L143.9,76.4l0.5-0.2
		 M143.9,76.4l-16.7-9.3l0.5-0.2 M144.4,76.2l-16.7-9.3 M127.6,66.9l-0.5,0.2 M127.6,66.9l-8.7-4.8l8.2,4.9"/>
	
		<linearGradient id="SVGID_14_" gradientUnits="userSpaceOnUse" x1="306.9141" y1="-73.6406" x2="416.6452" y2="10.3875" gradientTransform="matrix(1 0 0 -1 -262.7717 69.2756)">
		<stop  offset="0" style="stop-color:#AEAEAE;stop-opacity:0.49"/>
		<stop  offset="1" style="stop-color:#4D4D4D;stop-opacity:0.88"/>
	</linearGradient>
	<path class="st20" d="M78.2,72L78.2,72l-40,18.1c-0.3,0.1-0.3,0.3-0.2,0.5c0,0,0.1,0.1,0.2,0.1l10.8,6l0,0l0,0l18.5,10.4l0,0
		l25.4,14.6l0,0l10,5.7l0,0l4.2,2.3c0,0,0.1,0,0.1-0.1 M78.2,72l29.4,57.9 M78.2,72l21.3-9.9l0,0l0,0l6.7-3.4
		c0.3-0.1,0.6-0.2,0.9-0.3l0.5-0.1c0.6-0.1,1-0.4,1.3-0.6c0.7-0.7,2.9-0.7,3.9,0l1.5,1l0,0l0,0l3.1,1.9l0,0l0,0l8.7,4.8 M78.2,72
		l47.8-6.7 M107.2,129.7l0.5,0.2 M107.2,129.7L107.2,129.7l0.5,0.2 M107.2,129.7l17.6-8.3l0,0l25.7-11.8L175.8,98
		c0.3-0.1,0.7-0.3,1.1-0.4c1.9-0.5,2.4-1.6,1.1-2.5l-1.5-1 M107.7,129.9l17.6-8.3l25.7-11.8l25.3-11.6c0.3-0.1,0.6-0.2,0.9-0.3
		c2.2-0.6,2.8-1.9,1.2-2.9l-1.5-1 M176.4,94.1L176.4,94.1l0.5-0.1 M176.4,94.1L176.4,94.1l0.5-0.1 M176.4,94.1l-5.4-3l0,0l-10.2-5.9
		l0,0l-18.1-10.6 M176.9,93.9l-5.4-3L161.3,85l-18.1-10.6 M142.8,74.6L142.8,74.6l0.5-0.2 M142.8,74.6L142.8,74.6l0.5-0.2
		 M142.8,74.6L126,65.3l0.5-0.2 M143.3,74.4l-16.7-9.3 M126.5,65.1l-0.5,0.2 M126.5,65.1l-8.7-4.8l8.2,4.9"/>
	
		<linearGradient id="SVGID_15_" gradientUnits="userSpaceOnUse" x1="308.2796" y1="-77.9266" x2="418.0103" y2="6.1021" gradientTransform="matrix(1 0 0 -1 -262.7717 69.2756)">
		<stop  offset="0" style="stop-color:#AEAEAE;stop-opacity:0.49"/>
		<stop  offset="1" style="stop-color:#4D4D4D;stop-opacity:0.88"/>
	</linearGradient>
	<path class="st21" d="M79.6,76.3L79.6,76.3l-40,18.1c-0.3,0.1-0.3,0.3-0.2,0.5c0,0,0.1,0.1,0.2,0.1l10.8,6l0,0l0,0l18.5,10.4l0,0
		L94.2,126l0,0l10,5.7l0,0l4.2,2.3c0,0,0.1,0,0.1-0.1 M79.6,76.3l29.4,57.9 M79.6,76.3l21.3-9.9l0,0l0,0l6.7-3.4
		c0.3-0.1,0.6-0.2,0.9-0.3l0.5-0.1c0.6-0.1,1-0.4,1.3-0.6c0.7-0.7,2.9-0.7,3.9,0l1.5,1l0,0l0,0l3.1,1.9l0,0l0,0l8.7,4.8 M79.6,76.3
		l47.8-6.7 M108.5,134l0.5,0.2 M108.5,134L108.5,134l0.5,0.2 M108.5,134l17.6-8.3l0,0l25.7-11.8l25.3-11.6c0.3-0.1,0.7-0.3,1.1-0.4
		c1.9-0.5,2.4-1.6,1.1-2.5l-1.5-1 M109,134.2l17.6-8.3l25.7-11.8l25.3-11.6c0.3-0.1,0.6-0.2,0.9-0.3c2.2-0.6,2.8-1.9,1.2-2.9l-1.5-1
		 M177.8,98.4L177.8,98.4l0.5-0.2 M177.8,98.4L177.8,98.4l0.5-0.2 M177.8,98.4l-5.4-3l0,0l-10.2-5.9l0,0l-18.1-10.6 M178.3,98.2
		l-5.4-3l-10.2-5.9l-18.1-10.6 M144.1,78.9L144.1,78.9l0.5-0.2 M144.1,78.9L144.1,78.9l0.5-0.2 M144.1,78.9l-16.7-9.3l0.5-0.2
		 M144.6,78.7l-16.7-9.3 M127.9,69.4l-0.5,0.2 M127.9,69.4l-8.7-4.8l8.2,4.9"/>
	<g class="st22">
		
			<linearGradient id="SVGID_16_" gradientUnits="userSpaceOnUse" x1="307.3739" y1="-82.3499" x2="419.8663" y2="2.2223" gradientTransform="matrix(1 0 0 -1 -262.7717 69.2756)">
			<stop  offset="0" style="stop-color:#AEAEAE;stop-opacity:0.49"/>
			<stop  offset="1" style="stop-color:#4D4D4D;stop-opacity:0.88"/>
		</linearGradient>
		<path class="st23" d="M39.1,99.5c-0.3-0.3-0.2-0.6,0.3-0.8l40.7-18.4l21.7-10l6.8-3.4c0.3-0.2,0.7-0.3,1.1-0.4l0.5-0.1
			c0.5-0.1,0.8-0.3,1.1-0.5c0.9-0.9,3.8-0.9,5.1,0l1.5,1l3.1,1.9l8.7,4.8l16.7,9.3l18,10.6l10.2,5.9l5.4,3l1.5,1c1.6,1,1,2.4-1.2,3
			c-0.4,0.1-0.7,0.2-0.9,0.3l-25.8,11.8l-26.2,12l-17.9,8.4c0,0-0.1,0-0.1,0c-0.2,0.1-0.7,0.2-0.9,0l-4.3-2.4l-10-5.7l-25.3-14.6
			l-18.4-10.4l-10.8-6C39.2,99.6,39.2,99.6,39.1,99.5z"/>
		<defs>
			<filter id="Adobe_OpacityMaskFilter" filterUnits="userSpaceOnUse" x="37.6" y="64.6" width="145.8" height="74.8">
				<feColorMatrix  type="matrix" values="1 0 0 0 0  0 1 0 0 0  0 0 1 0 0  0 0 0 1 0"/>
			</filter>
		</defs>
		<mask maskUnits="userSpaceOnUse" x="37.6" y="64.6" width="145.8" height="74.8" id="path-22-inside-1_1_">
			<path class="st24" d="M39.1,99.5c-0.3-0.3-0.2-0.6,0.3-0.8l40.7-18.4l21.7-10l6.8-3.4c0.3-0.2,0.7-0.3,1.1-0.4l0.5-0.1
				c0.5-0.1,0.8-0.3,1.1-0.5c0.9-0.9,3.8-0.9,5.1,0l1.5,1l3.1,1.9l8.7,4.8l16.7,9.3l18,10.6l10.2,5.9l5.4,3l1.5,1c1.6,1,1,2.4-1.2,3
				c-0.4,0.1-0.7,0.2-0.9,0.3l-25.8,11.8l-26.2,12l-17.9,8.4c0,0-0.1,0-0.1,0c-0.2,0.1-0.7,0.2-0.9,0l-4.3-2.4l-10-5.7l-25.3-14.6
				l-18.4-10.4l-10.8-6C39.2,99.6,39.2,99.6,39.1,99.5z"/>
		</mask>
		<path class="st25" d="M68.6,116.1l1-0.3l0,0L68.6,116.1z M94,130.7l-1,0.3l0,0L94,130.7z M50.2,105.7l1-0.3l0,0L50.2,105.7z
			 M103.9,136.4l-1,0.3l0,0l0,0L103.9,136.4z M80.1,80.3l1,0.4l0,0L80.1,80.3z M101.7,70.3l1,0.4l0,0l0,0L101.7,70.3z M146.2,82.8
			l1-0.3l0,0l0,0L146.2,82.8z M129.4,73.4l1-0.3l0,0L129.4,73.4z M120.8,68.7l-1,0.3l0,0l0,0L120.8,68.7z M153.3,118.4l1,0.4
			L153.3,118.4z M164.2,93.4l-1,0.3l0,0L164.2,93.4z M174.4,99.3l-1,0.3l0,0L174.4,99.3z M179.8,102.3l1.1-0.3l0,0l0,0L179.8,102.3z
			 M127.1,130.4l-1-0.4l0,0L127.1,130.4z M117.7,66.8l-1.1,0.3l0,0l0,0L117.7,66.8z M109.2,138.7l1,0.4L109.2,138.7z M179.1,106.6
			l1,0.4L179.1,106.6z M108.2,138.8l-1,0.3L108.2,138.8z M39.3,99.7l1-0.3L39.3,99.7z M181.3,103.3l1.1-0.3L181.3,103.3z M110,66.4
			l-0.7-0.5L110,66.4z M116.2,65.8l-1.1,0.3L116.2,65.8z M108.5,66.9l1,0.4L108.5,66.9z M109.5,66.5l0.7,0.5L109.5,66.5z M39.4,98.7
			l-1-0.4L39.4,98.7z M95,130.4l-25.3-14.6l-2,0.6L93,131L95,130.4z M69.6,115.8l-18.4-10.4l-2,0.6l18.4,10.4L69.6,115.8z
			 M51.1,105.3l-10.8-6l-2,0.6l10.8,6L51.1,105.3z M109.2,138.5l-4.3-2.4l-2,0.6l4.3,2.4L109.2,138.5z M104.9,136.1l-10-5.7l-2,0.6
			l10,5.7L104.9,136.1z M40.3,99.1L81,80.7l-1.9-0.8L38.4,98.3L40.3,99.1z M81,80.7l21.7-10l-2-0.8l-21.7,10L81,80.7z M102.7,70.7
			l6.8-3.4l-2-0.8l-6.8,3.4L102.7,70.7z M128.4,73.8l16.7,9.3l2-0.6l-16.7-9.3L128.4,73.8z M119.8,69l8.7,4.8l2-0.6l-8.7-4.8
			L119.8,69z M178.1,106.1l-25.8,11.8l2,0.8L180,107L178.1,106.1z M145.1,83.1l18,10.6l2-0.6l-18-10.6L145.1,83.1z M163.2,93.7
			l10.2,5.9l2-0.6l-10.2-5.9L163.2,93.7z M173.4,99.6l5.4,3l2-0.6l-5.4-3L173.4,99.6z M178.7,102.6l1.5,1l2.1-0.6l-1.5-1
			L178.7,102.6z M152.3,117.9l-26.2,12l2,0.8l26.2-12L152.3,117.9z M126.1,129.9l-17.9,8.4l2,0.8l17.9-8.4L126.1,129.9z M115.2,66.1
			l1.5,1l2.1-0.6l-1.5-1L115.2,66.1z M116.7,67.1l3.1,1.9l2.1-0.6l-3.1-1.9L116.7,67.1z M110.3,67l0.5-0.1l-1.5-1l-0.5,0.1L110.3,67
			z M108.2,138.3c-0.1,0-0.2,0.1-0.2,0.1l2.3,0.6c0,0-0.1,0-0.1,0.1L108.2,138.3z M179.3,105.7c-0.4,0.1-0.8,0.2-1.2,0.4l2,0.8
			c0.2-0.1,0.4-0.2,0.7-0.2L179.3,105.7z M107.2,139.1c0.9,0.5,2.5,0.5,3.1,0l-2.3-0.6c0.2-0.2,0.9-0.2,1.2,0L107.2,139.1z
			 M40.3,99.3C40.3,99.3,40.3,99.3,40.3,99.3l-2.4,0.3c0.1,0.1,0.3,0.2,0.4,0.3L40.3,99.3z M180.7,106.7c2.9-0.7,3.6-2.4,1.6-3.7
			l-2.1,0.6c1.2,0.8,0.8,1.8-0.9,2.2L180.7,106.7z M110.8,66.9c0.7-0.2,1.2-0.4,1.5-0.8l-2.4-0.5c-0.1,0.1-0.3,0.2-0.6,0.3
			L110.8,66.9z M117.3,65.5c-1.9-1.3-6.1-1.2-7.4,0l2.4,0.5c0.5-0.5,2.1-0.5,2.9,0L117.3,65.5z M109.5,67.3c0.2-0.1,0.5-0.2,0.8-0.3
			l-1.5-1c-0.5,0.1-1,0.3-1.4,0.5L109.5,67.3z M40.3,99.3c-0.1-0.1,0-0.1,0.1-0.2l-1.9-0.8c-0.8,0.4-1,0.9-0.5,1.4L40.3,99.3z"/>
	</g>
	
		<linearGradient id="SVGID_17_" gradientUnits="userSpaceOnUse" x1="305.8189" y1="-71.8339" x2="415.5494" y2="12.1941" gradientTransform="matrix(1 0 0 -1 -262.7717 69.2756)">
		<stop  offset="0" style="stop-color:#AEAEAE;stop-opacity:0.49"/>
		<stop  offset="1" style="stop-color:#4D4D4D;stop-opacity:0.88"/>
	</linearGradient>
	<path class="st26" d="M77.1,70.2L77.1,70.2l-40,18.1c-0.3,0.1-0.3,0.3-0.2,0.5c0,0,0.1,0.1,0.2,0.1l10.8,6l0,0l0,0l18.5,10.4l0,0
		l25.4,14.6l0,0l10,5.7l0,0l4.2,2.3c0,0,0.1,0,0.1-0.1 M77.1,70.2l29.4,57.9 M77.1,70.2l21.3-9.9l0,0l0,0l6.7-3.4
		c0.3-0.1,0.6-0.2,0.9-0.3l0.5-0.1c0.6-0.1,1-0.4,1.3-0.6c0.7-0.7,2.9-0.7,3.9,0l1.5,1l0,0l0,0l3.1,1.9l0,0l0,0l8.7,4.8 M77.1,70.2
		l47.8-6.7 M106.1,127.9l0.5,0.2 M106.1,127.9L106.1,127.9l0.5,0.2 M106.1,127.9l17.6-8.3l0,0l25.7-11.8l25.3-11.6
		c0.3-0.1,0.7-0.3,1.1-0.4c1.9-0.5,2.4-1.6,1.1-2.5l-1.5-1 M106.6,128.1l17.6-8.3l25.7-11.8l25.3-11.6c0.3-0.1,0.6-0.2,0.9-0.3
		c2.2-0.6,2.8-1.9,1.2-2.9l-1.5-1 M175.3,92.3L175.3,92.3l0.5-0.1 M175.3,92.3L175.3,92.3l0.5-0.1 M175.3,92.3l-5.4-3l0,0l-10.2-5.9
		l0,0l-18.1-10.6 M175.8,92.1l-5.4-3l-10.2-5.9l-18.1-10.6 M141.7,72.8L141.7,72.8l0.5-0.2 M141.7,72.8L141.7,72.8l0.5-0.2
		 M141.7,72.8L125,63.5l0.5-0.2 M142.2,72.6l-16.7-9.3 M125.4,63.3l-0.5,0.2 M125.4,63.3l-8.7-4.8l8.2,4.9"/>
	
		<linearGradient id="SVGID_18_" gradientUnits="userSpaceOnUse" x1="305.5312" y1="-69.7075" x2="415.2622" y2="14.3212" gradientTransform="matrix(1 0 0 -1 -262.7717 69.2756)">
		<stop  offset="0" style="stop-color:#AEAEAE;stop-opacity:0.49"/>
		<stop  offset="1" style="stop-color:#4D4D4D;stop-opacity:0.88"/>
	</linearGradient>
	<path class="st27" d="M76.8,68.1L76.8,68.1l-40,18.1c-0.3,0.1-0.3,0.3-0.2,0.5c0,0,0.1,0.1,0.2,0.1l10.8,6l0,0l0,0l18.5,10.4l0,0
		l25.4,14.6l0,0l10,5.7l0,0l4.2,2.3c0,0,0.1,0,0.1-0.1 M76.8,68.1l29.4,57.9 M76.8,68.1l21.3-9.9l0,0l0,0l6.7-3.4
		c0.3-0.1,0.6-0.2,0.9-0.3l0.5-0.1c0.6-0.1,1-0.4,1.3-0.6c0.7-0.7,2.9-0.7,3.9,0l1.5,1l0,0l0,0l3.1,1.9l0,0l0,0l8.7,4.8 M76.8,68.1
		l47.8-6.7 M105.8,125.8l0.5,0.2 M105.8,125.8L105.8,125.8l0.5,0.2 M105.8,125.8l17.6-8.3l0,0l25.7-11.8L174.4,94
		c0.3-0.1,0.7-0.3,1.1-0.4c1.9-0.5,2.4-1.6,1.1-2.5l-1.5-1 M106.3,126l17.6-8.3l25.7-11.8l25.3-11.6c0.3-0.1,0.6-0.2,0.9-0.3
		c2.2-0.6,2.8-1.9,1.2-2.9l-1.5-1 M175,90.2L175,90.2l0.5-0.1 M175,90.2L175,90.2l0.5-0.1 M175,90.2l-5.4-3l0,0l-10.2-5.9l0,0
		l-18.1-10.6 M175.5,90l-5.4-3L160,81.1l-18.1-10.6 M141.4,70.6L141.4,70.6l0.5-0.2 M141.4,70.6L141.4,70.6l0.5-0.2 M141.4,70.6
		l-16.7-9.3l0.5-0.2 M141.9,70.5l-16.7-9.3 M125.2,61.2l-0.5,0.2 M125.2,61.2l-8.7-4.8l8.2,4.9"/>
	
		<linearGradient id="SVGID_19_" gradientUnits="userSpaceOnUse" x1="304.5894" y1="-63.1126" x2="416.6072" y2="13.5091" gradientTransform="matrix(1 0 0 -1 -262.7717 69.2756)">
		<stop  offset="0" style="stop-color:#AEAEAE;stop-opacity:0.49"/>
		<stop  offset="1" style="stop-color:#4D4D4D;stop-opacity:0.88"/>
	</linearGradient>
	<path class="st28" d="M76.5,66.3L76.5,66.3l-40,18.1c-0.3,0.1-0.3,0.3-0.2,0.5c0,0,0.1,0.1,0.2,0.1l10.8,6l0,0l0,0l18.5,10.4l0,0
		L91.2,116l0,0l10,5.7l0,0l4.2,2.3c0,0,0.1,0,0.1-0.1 M76.5,66.3l29.4,57.9 M76.5,66.3l21.3-9.9l0,0l0,0l6.7-3.4
		c0.3-0.1,0.6-0.2,0.9-0.3l0.5-0.1c0.6-0.1,1-0.4,1.3-0.6c0.7-0.7,2.9-0.7,3.9,0l1.5,1l0,0l0,0l3.1,1.9l0,0l0,0l8.7,4.8 M76.5,66.3
		l47.8-6.7 M105.5,124l0.5,0.2 M105.5,124L105.5,124l0.5,0.2 M105.5,124l17.6-8.3l0,0l25.7-11.8l25.3-11.6c0.3-0.1,0.7-0.3,1.1-0.4
		c1.9-0.5,2.4-1.6,1.1-2.5l-1.5-1 M106,124.2l17.6-8.3l25.7-11.8l25.3-11.6c0.3-0.1,0.6-0.2,0.9-0.3c2.2-0.6,2.8-1.9,1.2-2.9l-1.5-1
		 M174.7,88.4L174.7,88.4l0.5-0.1 M174.7,88.4L174.7,88.4l0.5-0.1 M174.7,88.4l-5.4-3l0,0l-10.2-5.9l0,0l-18.1-10.6 M175.2,88.2
		l-5.4-3l-10.2-5.9l-18.1-10.6 M141.1,68.9L141.1,68.9l0.5-0.2 M141.1,68.9L141.1,68.9l0.5-0.2 M141.1,68.9l-16.7-9.3l0.5-0.2
		 M141.6,68.7l-16.7-9.3 M124.9,59.4l-0.5,0.2 M124.9,59.4l-8.7-4.8l8.2,4.9"/>
	<path class="st29" d="M35.3,98.2l68.9-31.8c4-1.9,10.4-1.6,14.2,0.6l58.7,33.4c3.8,2.2,3.7,5.4-0.4,7.3l-69.1,31.9"/>
	
		<linearGradient id="SVGID_20_" gradientUnits="userSpaceOnUse" x1="329.9092" y1="-52.0644" x2="417.4091" y2="25.6335" gradientTransform="matrix(1 0 0 -1 -262.7717 69.2756)">
		<stop  offset="0" style="stop-color:#AEAEAE;stop-opacity:0.83"/>
		<stop  offset="1" style="stop-color:#4D4D4D"/>
	</linearGradient>
	<path class="st30" d="M36,98.5c-0.5,0-1-0.2-1-0.5l0.8-15.9c0-0.2,0.2-0.5,0.6-0.6l2.2-0.9l5.7-2.7l22-9.9l26.2-12.2L103,51
		c0.4-0.2,0.9-0.3,1.4-0.4c1-0.1,2.1,0,3,0.3l0.4,0.2c0.4,0.1,0.7,0.3,1,0.4l2.6,1.5l21.3,12l42.5,24.2c2.1,1.2,1.5,2.8-1.2,3.5
		c-0.5,0.1-0.9,0.3-1.2,0.4l-18.1,8.8l-20.7,9.2l-24.1,11.2l-0.8,0.3c-0.3,0.1-0.5,0.3-0.6,0.4c0,0.1-0.1,0.1-0.1,0.2l-0.1,2.2
		l-0.2,3.1l-0.3,6.4l-0.1,1.8l-0.1,1.6c0,0,0,0,0,0c-0.1,0.2-0.7,0.2-1,0.1l-10.4-5.8l-20.1-11.7l-14.5-7.9L36.8,98.7
		C36.6,98.6,36.3,98.5,36,98.5z"/>
	<path class="st31" d="M35.7,81.9l-0.4,16.1l72.4,41.2l0.8-16.1"/>
	<path class="st29" d="M108.5,123.1l62.4-28.8c4-1.9,4.2-5.1,0.4-7.3l-58.5-33.3c-3.8-2.2-10.2-2.4-14.2-0.6L35.7,81.9"/>
	<g>
		<path class="st32" d="M112.9,60.2L158.1,86c2.4,1.4,2.3,3.4-0.2,4.6l-14.5,6.7c-2.5,1.2-6.5,1-8.9-0.4L89.3,71.1
			c-2.4-1.4-2.3-3.4,0.2-4.6l14.5-6.7C106.5,58.7,110.5,58.9,112.9,60.2z"/>
	</g>
	<g>
		<path d="M77.7,74.7l51.2,29.2c0.7,0.4,0.7,1.1-0.1,1.4l0,0c-0.8,0.4-2,0.3-2.8-0.1L74.9,76.1c-0.7-0.4-0.7-1.1,0.1-1.4l0,0
			C75.8,74.3,77,74.3,77.7,74.7z"/>
	</g>
	<g>
		<path d="M69.8,78.1l51.2,29.2c0.7,0.4,0.7,1.1-0.1,1.4l0,0c-0.8,0.4-2,0.3-2.8-0.1L66.9,79.4C66.2,79,66.2,78.3,67,78l0,0
			C67.8,77.6,69.1,77.6,69.8,78.1z"/>
	</g>
	<g>
		<path d="M81.6,96.4l12,6.8c0.7,0.4,0.7,1.1-0.1,1.4l0,0c-0.8,0.4-2,0.3-2.8-0.1l-12-6.8c-0.7-0.4-0.7-1.1,0.1-1.4l0,0
			C79.6,95.9,80.8,96,81.6,96.4z"/>
	</g>
	<g>
		<path d="M76.1,99.5l12,6.8c0.7,0.4,0.7,1.1-0.1,1.4l0,0c-0.8,0.4-2,0.3-2.8-0.1l-12-6.8c-0.7-0.4-0.7-1.1,0.1-1.4l0,0
			C74.1,99,75.3,99,76.1,99.5z"/>
	</g>
	<g>
		<path d="M66.7,86.8l4,2.3c2.4,1.4,2.3,3.4-0.2,4.6l0,0c-2.5,1.2-6.5,1-8.9-0.4l-4-2.3c-2.4-1.4-2.3-3.4,0.2-4.6l0,0
			C60.3,85.3,64.3,85.4,66.7,86.8z"/>
	</g>
	<g>
		<path d="M105.2,109.5l4,2.3c2.4,1.4,2.3,3.4-0.2,4.6l0,0c-2.5,1.2-6.5,1-8.9-0.4l-4-2.3c-2.4-1.4-2.3-3.4,0.2-4.6l0,0
			C98.9,108,102.8,108.1,105.2,109.5z"/>
	</g>
	<g>
		<path d="M64.8,110l28.8,16.4c0.4,0.2,0.7,0.8,0.7,1.3l0,0c0,0.5-0.4,0.7-0.8,0.4l-28.8-16.4c-0.4-0.2-0.7-0.8-0.7-1.3l0,0
			C64,109.9,64.4,109.7,64.8,110z"/>
	</g>
	<g>
		<path class="st33" d="M43.3,91.2l5.5,3.1c2.2,1.3,3.9,4.4,3.8,6.9v0c-0.1,2.6-2,3.6-4.3,2.4l-5.5-3.1c-2.2-1.3-3.9-4.4-3.8-6.9
			l0,0C39.2,91,41.1,89.9,43.3,91.2z"/>
	</g>
	<g>
		<path d="M66.2,105.7L95,122c0.4,0.2,0.7,0.8,0.7,1.3l0,0c0,0.5-0.4,0.7-0.8,0.4l-28.8-16.4c-0.4-0.2-0.7-0.8-0.7-1.3l0,0
			C65.5,105.6,65.8,105.4,66.2,105.7z"/>
	</g>
	
		<linearGradient id="SVGID_21_" gradientUnits="userSpaceOnUse" x1="322.6201" y1="-36.4991" x2="366.0907" y2="-52.0391" gradientTransform="matrix(1 0 0 -1 -262.7717 69.2756)">
		<stop  offset="0" style="stop-color:#201B1B"/>
		<stop  offset="1" style="stop-color:#585858;stop-opacity:0"/>
	</linearGradient>
	<path class="st34" d="M90.3,128.6c-0.2,1.7-5.5,3.1-17.5,1.9c-12-1.2-20.3-2.5-20.1-4.2c0.2-1.7,24.1-32.4,36.1-32.7
		C113.2,93.1,88.3,124.7,90.3,128.6z"/>
	<path d="M92.2,91.3l8,4.2c5.9,3.1,5.8,8-0.1,11l-33,16.7c-5.9,3-15.5,2.9-21.3-0.1l-8-4.2c-5.9-3.1-5.8-8,0.1-11l33-16.7
		C76.8,88.2,86.3,88.3,92.2,91.3z"/>
	
		<linearGradient id="SVGID_22_" gradientUnits="userSpaceOnUse" x1="325.4518" y1="234.5702" x2="444.5384" y2="16.2423" gradientTransform="matrix(0.8867 0.4623 0.892 -0.452 -403.4478 24.339)">
		<stop  offset="0" style="stop-color:#313030"/>
		<stop  offset="1" style="stop-color:#000000;stop-opacity:0"/>
	</linearGradient>
	<path class="st35" d="M94.7,92.6l8,4.2c5.9,3.1,5.8,8-0.1,11l-33.4,17c-5.9,3-15.5,2.9-21.3-0.1l-8-4.2c-5.9-3.1-5.8-8,0.1-11
		l33.4-17C79.3,89.5,88.8,89.6,94.7,92.6z"/>
	<g class="st36">
		
			<linearGradient id="SVGID_23_" gradientUnits="userSpaceOnUse" x1="343.252" y1="178.6377" x2="367.9531" y2="181.0724" gradientTransform="matrix(0.8867 0.4623 0.892 -0.452 -406.2808 24.3236)">
			<stop  offset="0" style="stop-color:#FFFFFF;stop-opacity:0.8"/>
			<stop  offset="1" style="stop-color:#EAEAEA"/>
		</linearGradient>
		<path class="st37" d="M91.9,92.6l5.9,3.1c5.9,3.1,5.8,8-0.1,11l-30.1,15.3c-5.9,3-15.5,2.9-21.3-0.1l-5.9-3.1
			c-5.9-3.1-5.8-8,0.1-11l30.1-15.3C76.4,89.5,86,89.6,91.9,92.6z"/>
	</g>
	
		<linearGradient id="SVGID_24_" gradientUnits="userSpaceOnUse" x1="488.9662" y1="-40.5838" x2="488.9662" y2="-105.5188" gradientTransform="matrix(1 0 0 -1 -262.7717 69.2756)">
		<stop  offset="0" style="stop-color:#7B9A63"/>
		<stop  offset="1" style="stop-color:#7B9A63;stop-opacity:0"/>
	</linearGradient>
	<path class="st38" d="M219.7,109.6l5.4,21.7v12.2l7.5,33.9l-9.9,5.2l2.4-11.1l-2.4-8.5L219.7,109.6z"/>
	
		<linearGradient id="SVGID_25_" gradientUnits="userSpaceOnUse" x1="463.0851" y1="-43.9468" x2="463.0851" y2="-108.8818" gradientTransform="matrix(1 0 0 -1 -262.7717 69.2756)">
		<stop  offset="0" style="stop-color:#7B9A63"/>
		<stop  offset="1" style="stop-color:#7B9A63;stop-opacity:0"/>
	</linearGradient>
	<path class="st39" d="M193.8,113l5.4,21.7v12.2l7.5,33.9l-9.9,5.2l2.4-11.1l-2.4-8.5L193.8,113z"/>
	
		<linearGradient id="SVGID_26_" gradientUnits="userSpaceOnUse" x1="450.1451" y1="-43.9468" x2="450.1451" y2="-108.8818" gradientTransform="matrix(1 0 0 -1 -262.7717 69.2756)">
		<stop  offset="0" style="stop-color:#7B9A63"/>
		<stop  offset="1" style="stop-color:#7B9A63;stop-opacity:0"/>
	</linearGradient>
	<path class="st40" d="M180.9,113l5.4,21.7v12.2l7.5,33.9l-9.9,5.2l2.4-11.1l-2.4-8.5L180.9,113z"/>
	
		<linearGradient id="SVGID_27_" gradientUnits="userSpaceOnUse" x1="500.7044" y1="-64.6599" x2="494.7914" y2="-115.1839" gradientTransform="matrix(1 0 0 -1 -262.7717 69.2756)">
		<stop  offset="0" style="stop-color:#7B9A63"/>
		<stop  offset="1" style="stop-color:#7B9A63;stop-opacity:0"/>
	</linearGradient>
	<path class="st41" d="M238.5,133.8l0.4,17.2l-2.4,9.3l-0.2,26.7l-9.5,3l4.2-8.3l-0.4-6.8L238.5,133.8z"/>
	
		<linearGradient id="SVGID_28_" gradientUnits="userSpaceOnUse" x1="486.6548" y1="-71.1793" x2="485.9369" y2="-121.7953" gradientTransform="matrix(1 0 0 -1 -262.7717 69.2756)">
		<stop  offset="0" style="stop-color:#7B9A63"/>
		<stop  offset="1" style="stop-color:#7B9A63;stop-opacity:0"/>
	</linearGradient>
	<path class="st42" d="M227.6,140.3l-3.6,16.9l0.3,9.5l-4.9,26.4l7.5,4.1l-2-8.7l1.6-6.6L227.6,140.3z"/>
	
		<linearGradient id="SVGID_29_" gradientUnits="userSpaceOnUse" x1="459.958" y1="-87.6361" x2="467.268" y2="-112.4431" gradientTransform="matrix(1 0 0 -1 -262.7717 69.2756)">
		<stop  offset="0" style="stop-color:#7B9A63"/>
		<stop  offset="1" style="stop-color:#7B9A63;stop-opacity:0"/>
	</linearGradient>
	<path class="st43" d="M195.9,157.2l0.8,8.8l2.5,4.3l2,13.5l7.8-0.1l-3.9-3.5l-0.2-3.5L195.9,157.2z"/>
	
		<linearGradient id="SVGID_30_" gradientUnits="userSpaceOnUse" x1="499.6952" y1="-41.1008" x2="499.6952" y2="-106.0358" gradientTransform="matrix(1 0 0 -1 -262.7717 69.2756)">
		<stop  offset="0" style="stop-color:#7B9A63"/>
		<stop  offset="1" style="stop-color:#7B9A63;stop-opacity:0"/>
	</linearGradient>
	<path class="st44" d="M232.2,102.1l1.9,7.5l2.2,4l5.4,62.7l-5.4,0.8v-3.8v-15l-2.2-22.8L232.2,102.1z"/>
	
		<linearGradient id="SVGID_31_" gradientUnits="userSpaceOnUse" x1="473.8141" y1="-44.4648" x2="473.8141" y2="-109.3988" gradientTransform="matrix(1 0 0 -1 -262.7717 69.2756)">
		<stop  offset="0" style="stop-color:#7B9A63"/>
		<stop  offset="1" style="stop-color:#7B9A63;stop-opacity:0"/>
	</linearGradient>
	<path class="st45" d="M206.3,105.5l1.9,7.5l2.2,4l5.4,62.7l-5.4,0.8v-3.8v-15l-2.2-22.8L206.3,105.5z"/>
	
		<linearGradient id="SVGID_32_" gradientUnits="userSpaceOnUse" x1="460.8741" y1="-44.4648" x2="460.8741" y2="-109.3988" gradientTransform="matrix(1 0 0 -1 -262.7717 69.2756)">
		<stop  offset="0" style="stop-color:#7B9A63"/>
		<stop  offset="1" style="stop-color:#7B9A63;stop-opacity:0"/>
	</linearGradient>
	<path class="st46" d="M193.3,105.5l1.9,7.5l2.2,4l5.4,62.7l-5.4,0.8v-3.8v-15l-2.2-22.8L193.3,105.5z"/>
	
		<linearGradient id="SVGID_33_" gradientUnits="userSpaceOnUse" x1="511.6288" y1="-66.347" x2="505.7148" y2="-116.871" gradientTransform="matrix(1 0 0 -1 -262.7717 69.2756)">
		<stop  offset="0" style="stop-color:#7B9A63"/>
		<stop  offset="1" style="stop-color:#7B9A63;stop-opacity:0"/>
	</linearGradient>
	<path class="st47" d="M250.6,129.3l0.1,5.9l1.1,3.3l-7.6,48.6l-4.8,0l0.7-2.9l2.9-11.5l2.6-17.7L250.6,129.3z"/>
	
		<linearGradient id="SVGID_34_" gradientUnits="userSpaceOnUse" x1="478.4762" y1="-71.4668" x2="477.7592" y2="-122.0828" gradientTransform="matrix(1 0 0 -1 -262.7717 69.2756)">
		<stop  offset="0" style="stop-color:#7B9A63"/>
		<stop  offset="1" style="stop-color:#7B9A63;stop-opacity:0"/>
	</linearGradient>
	<path class="st48" d="M218.2,134.3l-1.2,5.8l-1.6,3.1l-2.8,48.9l4.1,0.7l-0.1-2.9l-0.3-11.7l1.2-17.7L218.2,134.3z"/>
	
		<linearGradient id="SVGID_35_" gradientUnits="userSpaceOnUse" x1="450.9572" y1="-90.5029" x2="458.2672" y2="-115.3109" gradientTransform="matrix(1 0 0 -1 -262.7717 69.2756)">
		<stop  offset="0" style="stop-color:#7B9A63"/>
		<stop  offset="1" style="stop-color:#7B9A63;stop-opacity:0"/>
	</linearGradient>
	<path class="st49" d="M185.9,157l0.3,3l-0.7,1.9l9.3,23.3l3.9-0.8l-0.8-1.3l-3.1-5.3l-3.2-8.5L185.9,157z"/>
	
		<linearGradient id="SVGID_36_" gradientUnits="userSpaceOnUse" x1="495.9096" y1="-64.3848" x2="495.9096" y2="-129.3188" gradientTransform="matrix(1 0 0 -1 -262.7717 69.2756)">
		<stop  offset="0" style="stop-color:#7B9A63"/>
		<stop  offset="1" style="stop-color:#7B9A63;stop-opacity:0"/>
	</linearGradient>
	<path class="st50" d="M228.4,120.6l-1.7-22.9l6.8,37.1l6.1,49.5h-12.9l3.6-36.2L228.4,120.6z"/>
	
		<linearGradient id="SVGID_37_" gradientUnits="userSpaceOnUse" x1="470.0291" y1="-67.7478" x2="470.0291" y2="-132.6818" gradientTransform="matrix(1 0 0 -1 -262.7717 69.2756)">
		<stop  offset="0" style="stop-color:#7B9A63"/>
		<stop  offset="1" style="stop-color:#7B9A63;stop-opacity:0"/>
	</linearGradient>
	<path class="st51" d="M202.5,124l-1.7-22.9l6.8,37.1l6.1,49.5h-12.9l3.6-36.2L202.5,124z"/>
	
		<linearGradient id="SVGID_38_" gradientUnits="userSpaceOnUse" x1="457.0882" y1="-67.7478" x2="457.0882" y2="-132.6818" gradientTransform="matrix(1 0 0 -1 -262.7717 69.2756)">
		<stop  offset="0" style="stop-color:#7B9A63"/>
		<stop  offset="1" style="stop-color:#7B9A63;stop-opacity:0"/>
	</linearGradient>
	<path class="st52" d="M189.5,124l-1.7-22.9l6.8,37.1l6.1,49.5h-12.9l3.6-36.2L189.5,124z"/>
	
		<linearGradient id="SVGID_39_" gradientUnits="userSpaceOnUse" x1="502.7327" y1="-83.6706" x2="496.8187" y2="-134.1946" gradientTransform="matrix(1 0 0 -1 -262.7717 69.2756)">
		<stop  offset="0" style="stop-color:#7B9A63"/>
		<stop  offset="1" style="stop-color:#7B9A63;stop-opacity:0"/>
	</linearGradient>
	<path class="st53" d="M243.8,143.1l3-17.7l-1.4,29.1l-4.4,38.6l-11.1-1.3l10.2-27.4L243.8,143.1z"/>
	
		<linearGradient id="SVGID_40_" gradientUnits="userSpaceOnUse" x1="482.4828" y1="-89.676" x2="481.7648" y2="-140.291" gradientTransform="matrix(1 0 0 -1 -262.7717 69.2756)">
		<stop  offset="0" style="stop-color:#7B9A63"/>
		<stop  offset="1" style="stop-color:#7B9A63;stop-opacity:0"/>
	</linearGradient>
	<path class="st54" d="M221.4,148.8l0.8-17.8l-4.3,28.9l-3.6,38.6l9.7,0.1l-3.4-28.3L221.4,148.8z"/>
	
		<linearGradient id="SVGID_41_" gradientUnits="userSpaceOnUse" x1="459.1122" y1="-97.7675" x2="466.4232" y2="-122.5755" gradientTransform="matrix(1 0 0 -1 -262.7717 69.2756)">
		<stop  offset="0" style="stop-color:#7B9A63"/>
		<stop  offset="1" style="stop-color:#7B9A63;stop-opacity:0"/>
	</linearGradient>
	<path class="st55" d="M192.3,162.8l-3.6-8.4l3.1,14.5l6.1,18.8l8.8-2.6l-9.9-12.1L192.3,162.8z"/>
	
		<linearGradient id="SVGID_42_" gradientUnits="userSpaceOnUse" x1="506.3341" y1="-41.1008" x2="506.3341" y2="-106.0358" gradientTransform="matrix(1 0 0 -1 -262.7717 69.2756)">
		<stop  offset="0" style="stop-color:#7B9A63"/>
		<stop  offset="1" style="stop-color:#7B9A63;stop-opacity:0"/>
	</linearGradient>
	<path class="st56" d="M237.1,110.4l6.1-7.9l4.9-3.9l-3.9,7.8l-1.9,10.6l3.1,22.4v18.5l4.6,17.5l-10.7,0.8v-7.4v-24.6L237.1,110.4z"
		/>
	
		<linearGradient id="SVGID_43_" gradientUnits="userSpaceOnUse" x1="480.4532" y1="-44.4638" x2="480.4532" y2="-109.3988" gradientTransform="matrix(1 0 0 -1 -262.7717 69.2756)">
		<stop  offset="0" style="stop-color:#7B9A63"/>
		<stop  offset="1" style="stop-color:#7B9A63;stop-opacity:0"/>
	</linearGradient>
	<path class="st57" d="M211.2,113.7l6.1-7.9l4.9-3.9l-3.9,7.8l-1.9,10.6l3.1,22.4v18.5l4.6,17.5l-10.7,0.8v-7.4v-24.6L211.2,113.7z"
		/>
	
		<linearGradient id="SVGID_44_" gradientUnits="userSpaceOnUse" x1="467.5126" y1="-44.4638" x2="467.5126" y2="-109.3988" gradientTransform="matrix(1 0 0 -1 -262.7717 69.2756)">
		<stop  offset="0" style="stop-color:#7B9A63"/>
		<stop  offset="1" style="stop-color:#7B9A63;stop-opacity:0"/>
	</linearGradient>
	<path class="st58" d="M198.3,113.7l6.1-7.9l4.9-3.9l-3.9,7.8l-1.9,10.6l3.1,22.4v18.5l4.6,17.5l-10.7,0.8v-7.4v-24.6L198.3,113.7z"
		/>
	
		<linearGradient id="SVGID_45_" gradientUnits="userSpaceOnUse" x1="518.921" y1="-67.2009" x2="513.007" y2="-117.7249" gradientTransform="matrix(1 0 0 -1 -262.7717 69.2756)">
		<stop  offset="0" style="stop-color:#7B9A63"/>
		<stop  offset="1" style="stop-color:#7B9A63;stop-opacity:0"/>
	</linearGradient>
	<path class="st59" d="M253.3,136.1l6.8-5.4l5-2.5l-4.9,5.5l-3.7,7.9l-1.8,17.4l-3.6,14.2l0.5,13.8l-9.4-0.5l1.4-5.6l4.8-18.8
		L253.3,136.1z"/>
	
		<linearGradient id="SVGID_46_" gradientUnits="userSpaceOnUse" x1="473.3235" y1="-71.3941" x2="472.6064" y2="-122.0091" gradientTransform="matrix(1 0 0 -1 -262.7717 69.2756)">
		<stop  offset="0" style="stop-color:#7B9A63"/>
		<stop  offset="1" style="stop-color:#7B9A63;stop-opacity:0"/>
	</linearGradient>
	<path class="st60" d="M214.7,140.7l-4.7-6.2l-3.8-3.1l3.1,6.1l1.6,8.3l-1.8,17.4l0.4,14.4l-3.1,13.6l8,0.7l-0.2-5.8l-0.5-19.2
		L214.7,140.7z"/>
	
		<linearGradient id="SVGID_47_" gradientUnits="userSpaceOnUse" x1="445.1165" y1="-92.2243" x2="452.4276" y2="-117.0313" gradientTransform="matrix(1 0 0 -1 -262.7717 69.2756)">
		<stop  offset="0" style="stop-color:#7B9A63"/>
		<stop  offset="1" style="stop-color:#7B9A63;stop-opacity:0"/>
	</linearGradient>
	<path class="st61" d="M184.3,160.9l-5.8-1.6l-4.2-0.4l4.3,2l3.5,3.4l2.6,8.5l3.8,6.5l0.5,7.1l7.4-1.9l-1.5-2.6l-5.1-8.7
		L184.3,160.9z"/>
	
		<linearGradient id="SVGID_48_" gradientUnits="userSpaceOnUse" x1="483.5182" y1="-104.4838" x2="483.5182" y2="-177.6968" gradientTransform="matrix(1 0 0 -1 -262.7717 69.2756)">
		<stop  offset="0" style="stop-color:#A57AA0"/>
		<stop  offset="1" style="stop-color:#2F052A"/>
	</linearGradient>
	<path class="st62" d="M184,173.8h73.6l-14,73.2h-45.6L184,173.8z"/>
</g>
</svg>
