<?xml version="1.0" encoding="utf-8"?>
<!-- Generator: Adobe Illustrator 24.3.0, SVG Export Plug-In . SVG Version: 6.00 Build 0)  -->
<svg version="1.1" id="Capa_1" xmlns="http://www.w3.org/2000/svg" xmlns:xlink="http://www.w3.org/1999/xlink" x="0px" y="0px"
	 viewBox="0 0 345.8 326" style="enable-background:new 0 0 345.8 326;" xml:space="preserve">
<style type="text/css">
	.st0{opacity:0.3;}
	.st1{fill:#D4AE73;}
	.st2{fill:#AF8E5B;}
	.st3{fill:#94794F;}
	.st4{fill:#A78653;}
	.st5{fill:#AE6C0F;}
	.st6{fill:#73511D;}
	.st7{fill:#936A2A;}
	.st8{fill:#AEAEAE;}
	.st9{fill:#D5AE73;}
	.st10{fill:#7A7A7A;}
	.st11{fill:#D0D0D0;}
	.st12{fill:#999DA9;}
	.st13{fill:#F4F4F4;}
</style>
<g class="st0">
	<path class="st1" d="M187.8,157.4H67.8v167h120.1V157.4z"/>
	<path class="st2" d="M67.8,157.4H1.6v167h66.1V157.4z"/>
	<path class="st3" d="M67.8,185.9H1.6v4.9h66.1V185.9z"/>
	<path class="st2" d="M187.8,185.9H67.8v4.9h120.1V185.9z"/>
	<path class="st3" d="M149.9,214.7h-44.2c-0.8,0-1.5-0.9-1.5-2.1v-0.1c0-1.2,0.7-2.1,1.5-2.1h44.2c0.8,0,1.5,0.9,1.5,2.1v0.1
		C151.4,213.8,150.7,214.7,149.9,214.7z"/>
	<path class="st1" d="M322.3,1.5h-72.7V101h72.7V1.5z"/>
	<path class="st2" d="M249.5,1.5h-40.1V101h40.1V1.5z"/>
	<path class="st3" d="M249.5,18.5h-40.1v2.9h40.1V18.5z"/>
	<path class="st4" d="M322.3,18.5h-72.7v2.9h72.7V18.5z"/>
	<path class="st3" d="M299.3,35.7h-26.8c-0.5,0-0.9-0.6-0.9-1.3v-0.1c0-0.7,0.4-1.3,0.9-1.3h26.8c0.5,0,0.9,0.6,0.9,1.3v0.1
		C300.2,35.1,299.8,35.7,299.3,35.7z"/>
	<path class="st5" d="M283.2,113.9l-6.1,44.7l-7.3,53.7l-4.6,33.8l-1.6,11.4l-4.6,33.8l-3.9,28.5h-9.2l8.5-62.2l4.6-33.8l1.6-11.4
		l4.6-33.8v0l3-22.4l5.7-42.2H283.2z"/>
	<path class="st5" d="M344.6,319.8h-9.2L315,169.3l-7.5-55.4h9.2l7.9,58L344.6,319.8z"/>
	<path class="st5" d="M223,113.9l-3.9,28.4l-15.6,115.2l-4.6,33.8l-3.9,28.5h-9.2l8.5-62.2l4.6-33.8l11.4-83.9l3.5-26H223z"/>
	<path class="st5" d="M284.4,319.8h-9.2l-10-73.7l-4.6-33.8l-8.2-60.6l-5.1-37.8h9.2l5.5,40.5l3.3,24.2v0l4.6,33.8L284.4,319.8z"/>
	<path class="st5" d="M322.9,113.9h-119c-4,0-7.2-2.8-7.2-6.4v-0.4c0-3.5,3.2-6.4,7.2-6.4h119c4,0,7.2,2.8,7.2,6.4v0.4
		C330,111.1,326.8,113.9,322.9,113.9z"/>
	<path class="st6" d="M265.5,113.9h-61.6c-4,0-7.2-2.8-7.2-6.4v-0.4c0-3.5,3.2-6.4,7.2-6.4h61.6c4,0,7.2,2.8,7.2,6.4v0.4
		C272.7,111.1,269.4,113.9,265.5,113.9z"/>
	<path class="st7" d="M223,113.9l-3.9,28.4l-8.8-2.5l3.5-26H223z"/>
	<path class="st7" d="M262,154.4l-9.5-2.7l-5.1-37.8h9.2L262,154.4z"/>
	<path class="st7" d="M283.2,113.9l-6.1,44.7l-8.8-2.5l5.7-42.2H283.2z"/>
	<path class="st7" d="M324.6,171.9l-9.5-2.7l-7.5-55.4h9.2L324.6,171.9z"/>
	<path class="st8" d="M299.9,195.6l-55-31L221.8,220l55,31L299.9,195.6z"/>
	<path class="st8" d="M241.9,172.7l-60.6,8.9l6.6,61.1l60.6-8.9L241.9,172.7z"/>
	<path class="st9" d="M319.3,199.4H211.7v125.1h107.6V199.4z"/>
	<path class="st2" d="M211.7,199.4h-59.3v125.1h59.3V199.4z"/>
	<path class="st3" d="M152.4,199.4l-30.8,38.3h66.9l23.2-38.3H152.4z"/>
	<path class="st2" d="M319.3,199.4l22,38.8H233.8l-22.1-39L319.3,199.4z"/>
	<path class="st10" d="M234.5,173.9l-4.3,25.3l11.7-26.4L234.5,173.9z"/>
	<path class="st8" d="M160.9,146.6l0-2.4c0-0.7-1.2-1.3-2.7-1.3l-111.4,0.3c-5.6,0-10.2,2.3-10.1,5l0,4c0,2.8,4.6,5,10.2,5
		l111.4-0.3c1.5,0,2.7-0.6,2.7-1.3l0-2.4c0-0.7-1.2-1.3-2.7-1.3L51,152.2c-2.3,0-4.1-0.9-4.1-2c0-1.1,1.8-2,4.1-2l107.3-0.3
		C159.7,147.9,160.9,147.3,160.9,146.6z"/>
	<path class="st11" d="M152.4,112.4l-0.1-2.6c0-0.8-1.2-1.5-2.5-1.5l-102-1.6c-5.1-0.1-9.2,2.3-9,5.3l0.2,4.4c0.2,3,4.5,5.5,9.6,5.6
		l102,1.6c1.4,0,2.4-0.6,2.4-1.4l-0.1-2.6c0-0.8-1.2-1.5-2.5-1.5L52,116.7c-2.1,0-3.8-1-3.9-2.3c-0.1-1.2,1.6-2.2,3.6-2.1l98.3,1.5
		C151.3,113.8,152.4,113.2,152.4,112.4z"/>
	<path class="st11" d="M151,136.7l0-2.1c0-0.6-1.3-1.2-2.8-1.2l-100.4,0.2c-5.9,0-10.7,2-10.7,4.4l0,3.5c0,2.4,4.8,4.4,10.7,4.4
		l100.4-0.2c1.6,0,2.8-0.5,2.8-1.2l0-2.1c0-0.6-1.3-1.2-2.8-1.2l-96.1,0.2c-2.4,0-4.3-0.8-4.3-1.8c0-1,1.9-1.8,4.3-1.8l96.1-0.2
		C149.7,137.8,151,137.3,151,136.7z"/>
	<path class="st12" d="M152.9,99.6l0-2.1c0-0.6-1.3-1.2-2.8-1.1L49.7,96.7c-5.9,0-10.7,2-10.7,4.4l0,3.5c0,2.4,4.8,4.4,10.7,4.4
		l100.4-0.3c1.6,0,2.8-0.5,2.8-1.2l0-2.1c0-0.6-1.3-1.2-2.8-1.1l-96.1,0.2c-2.4,0-4.3-0.8-4.3-1.8c0-1,1.9-1.8,4.3-1.8l96.1-0.2
		C151.7,100.8,152.9,100.3,152.9,99.6z"/>
	<path class="st13" d="M147.3,137.8l0,3.5l-95.2,0.2c-2.4,0-4.3-0.8-4.3-1.8c0-1,1.9-1.8,4.3-1.8L147.3,137.8L147.3,137.8z"/>
	<path class="st13" d="M141.4,147.9l0,4l-90.5,0.2c-2.3,0-4.1-0.9-4.1-2c0-1.1,1.8-2,4.1-2L141.4,147.9L141.4,147.9z"/>
	<path class="st13" d="M149.7,113.8l0.2,4.4l-97.4-1.5c-2.4,0-4.5-1.1-4.5-2.3s1.9-2.2,4.3-2.1L149.7,113.8z"/>
	<path class="st13" d="M149.2,100.9l0,3.5l-95.2,0.2c-2.4,0-4.3-0.8-4.3-1.8c0-1,1.9-1.8,4.3-1.8L149.2,100.9z"/>
	<path class="st8" d="M152.3,124.1l0-2.4c0-0.7-1.3-1.3-2.8-1.3l-100.4,0.2c-5.9,0-10.7,2.3-10.7,5l0,4c0,2.8,4.8,5,10.7,5
		l100.4-0.2c1.6,0,2.8-0.6,2.8-1.3l0-2.3c0-0.7-1.3-1.3-2.8-1.3l-96.1,0.2c-2.4,0-4.3-0.9-4.3-2c0-1.1,1.9-2,4.3-2l96.1-0.2
		C151,125.4,152.3,124.8,152.3,124.1z"/>
	<path class="st13" d="M148.6,125.4l0,4l-95.2,0.2c-2.4,0-4.3-0.9-4.3-2c0-1.1,1.9-2,4.3-2L148.6,125.4L148.6,125.4z"/>
</g>
</svg>
