<?xml version="1.0" encoding="utf-8"?>
<!-- Generator: Adobe Illustrator 24.3.0, SVG Export Plug-In . SVG Version: 6.00 Build 0)  -->
<svg version="1.1" id="Capa_1" xmlns="http://www.w3.org/2000/svg" xmlns:xlink="http://www.w3.org/1999/xlink" x="0px" y="0px"
	 viewBox="0 0 42.5 42.5" style="enable-background:new 0 0 42.5 42.5;" xml:space="preserve">
<style type="text/css">
	.st0{clip-path:url(#SVGID_2_);}
	.st1{fill:#FFFFFF;}
</style>
<g>
	<defs>
		<rect id="SVGID_1_" x="1.5" y="1.7" width="39" height="40"/>
	</defs>
	<clipPath id="SVGID_2_">
		<use xlink:href="#SVGID_1_"  style="overflow:visible;"/>
	</clipPath>
	<g class="st0">
		<path class="st1" d="M34.8,7.6C31.1,3.8,26.1,1.7,21,1.7c-5.2,0-10.1,2.1-13.8,5.9c-3.7,3.8-5.7,8.8-5.7,14.1
			c0,5.3,2.1,10.4,5.7,14.1c3.7,3.8,8.6,5.9,13.8,5.9s10.1-2.1,13.8-5.9c3.7-3.8,5.7-8.8,5.7-14.1S38.4,11.3,34.8,7.6z M15.4,38.9
			l-3.8-23.7c0.7,0.5,1.7,1,2.9,1.3c5.3,1.6,12.6,1.5,17.5-0.2c-1.9,3.2-5.7,11-6.7,22.5c-0.8,0.5-1.7,0.8-2.7,1.1
			C22.1,40,21.5,40,21,40c-1.7,0-3.4-0.2-5-0.7C15.8,39.2,15.6,39,15.4,38.9z M18.6,12.1c0,0.3,0.2,0.8,1.1,1.1
			c1.1,0.3,2.7,0.3,3.6-0.2c0.9-0.4,0.9-1,0.9-1.3c0-0.3-0.3-1-1.5-1.4c-1.7-0.5-4-0.4-5.4,0.3c-1.2,0.6-1.3,1.3-1.3,1.7
			c0,0.5,0.4,1.3,2.1,1.8c2.6,0.8,6.1,0.6,8.2-0.4c0.1-0.1,0.2-0.1,0.3-0.2c-0.2,1.5-0.3,2.3-0.4,2.7c-3.8,0.4-8.1,0.1-11.4-0.9
			c-1.7-0.5-2.9-1.2-3.4-2c-0.1-0.1-0.2-0.3-0.2-0.5c0-0.2,0-0.3,0-0.5c0.1-0.6,0.8-1.3,2-1.9c2.8-1.4,8-1.7,11.6-0.5
			c1.6,0.5,2.2,1.1,2.2,1.5c0,0,0,0.1,0,0.1c0,0,0,0,0,0c-0.1,0.3-0.5,0.7-1.1,1c-1.7,0.9-5.1,1-7.3,0.3c-1-0.3-1.3-0.7-1.3-0.8
			c0-0.1,0.2-0.3,0.6-0.5c0.3-0.2,0.7-0.3,1.1-0.3c-0.1,0.1-0.2,0.2-0.3,0.4C18.6,11.8,18.6,12,18.6,12.1z M19.7,12l-0.4-0.8
			c1-0.1,2.1-0.1,3,0.2c0.2,0.1,0.4,0.2,0.6,0.3c-0.1,0.1-0.2,0.1-0.2,0.2c-0.6,0.3-1.9,0.4-2.7,0.1c-0.1,0-0.2-0.1-0.3-0.2
			C19.7,11.9,19.7,12,19.7,12z M26.4,39.2c1.2-14.9,7.5-23.7,7.5-23.8l1.5-2l-2.2,1.1c-1.6,0.8-3.6,1.3-5.8,1.7
			c0.1-0.7,0.3-1.9,0.6-4.3c0-0.1,0-0.1,0-0.2c0-0.1,0-0.2,0-0.3c-0.1-1.1-1.2-2-3-2.6c-3.9-1.2-9.5-0.9-12.5,0.6
			c-1.5,0.7-2.4,1.7-2.6,2.7c-0.1,0.5,0,1,0.2,1.4l4,25c-3.3-1.4-6.1-3.7-8-6.7c-2-3-3-6.6-3-10.2c0-10.1,8-18.3,17.9-18.3
			c9.8,0,17.9,8.2,17.9,18.3C38.8,29.9,33.6,36.8,26.4,39.2z"/>
		<path class="st1" d="M24.8,25.8l0.2-0.1l2.4-6.4l-1.1,0.3c-6.9,1.7-11.2-1.1-11.3-1.1l-1.1-0.8l1.3,7.6l0.3,0.1
			c0.2,0.1,3.2,1.2,6,1.2C22.8,26.6,23.9,26.4,24.8,25.8z"/>
		<path class="st1" d="M21.8,29.2c-0.2,0-0.4,0-0.6,0c-0.4,0-0.7,0-1.1-0.1c-0.7-0.1-1.5-0.2-2.2-0.3c-0.7-0.1-1.5-0.3-2.3-0.5
			c0.6,0.6,1.2,1.1,2,1.4c0.8,0.3,1.6,0.5,2.4,0.6c0.2,0,0.4,0,0.6,0c0.2,0,0.4,0,0.6,0c0.2,0,0.4-0.1,0.6-0.1c0.1,0,0.2,0,0.3-0.1
			l0.3-0.1c0.8-0.2,1.5-0.6,2.2-1.2c-0.8,0.1-1.6,0.2-2.3,0.2C22.2,29.2,22,29.2,21.8,29.2z"/>
		<path class="st1" d="M17.7,32.7c0.8,0.3,1.6,0.5,2.4,0.6c0.2,0,0.4,0,0.6,0c0.2,0,0.4,0,0.6,0c0.2,0,0.4-0.1,0.6-0.1
			c0.1,0,0.2,0,0.3-0.1l0.3-0.1c0.8-0.2,1.5-0.6,2.2-1.2c-0.8,0.1-1.6,0.2-2.3,0.2c-0.2,0-0.4,0-0.6,0c-0.2,0-0.4,0-0.6,0
			c-0.4,0-0.7,0-1.1-0.1c-0.7-0.1-1.5-0.2-2.2-0.3c-0.7-0.1-1.5-0.3-2.3-0.5C16.2,31.9,16.9,32.4,17.7,32.7z"/>
		<path class="st1" d="M21.9,35.8c0.1-0.1,0.3-0.1,0.4-0.2c0.1-0.1,0.3-0.1,0.4-0.2c-0.3-0.1-0.6-0.1-0.9-0.2
			c-0.3-0.1-0.6-0.1-0.9-0.1l-1.7-0.2l-1.7-0.2c-0.6-0.1-1.2-0.1-1.8-0.2c0.4,0.5,1,0.8,1.6,1.1c1.2,0.5,2.4,0.6,3.7,0.4
			C21.4,36,21.7,35.9,21.9,35.8z"/>
	</g>
</g>
</svg>
