<?xml version="1.0" encoding="utf-8"?>
<!-- Generator: Adobe Illustrator 24.3.0, SVG Export Plug-In . SVG Version: 6.00 Build 0)  -->
<svg version="1.1" id="Capa_1" xmlns="http://www.w3.org/2000/svg" xmlns:xlink="http://www.w3.org/1999/xlink" x="0px" y="0px"
	 viewBox="0 0 334.5 323.1" style="enable-background:new 0 0 334.5 323.1;" xml:space="preserve">
<style type="text/css">
	.st0{opacity:0.3;}
	.st1{fill:#3C4FA2;}
	.st2{fill:#E4E9EE;}
	.st3{fill:#192982;}
	.st4{fill:#8BACD1;}
	.st5{fill:#D4DCEA;}
	.st6{fill:#7479B8;}
</style>
<g class="st0">
	<path class="st1" d="M241.5,173.1H14.2c-6.4,0-11.6-3.7-11.6-8.3V10c0-4.6,5.2-8.3,11.6-8.3h227.4c6.4,0,11.6,3.7,11.6,8.3v154.8
		C253.1,169.4,247.9,173.1,241.5,173.1z"/>
	<path class="st2" d="M145.1,26.5H37.3c-1.9,0-3.5-1.1-3.5-2.5c0-1.4,1.6-2.5,3.5-2.5h107.9c1.9,0,3.5,1.1,3.5,2.5
		C148.6,25.4,147.1,26.5,145.1,26.5z"/>
	<path class="st2" d="M110.5,38.9H37.3c-1.9,0-3.5-1.1-3.5-2.5c0-1.4,1.6-2.5,3.5-2.5h73.2c1.9,0,3.5,1.1,3.5,2.5
		C113.9,37.8,112.4,38.9,110.5,38.9z"/>
	<path class="st3" d="M55.6,59.3H36.3c-1.4,0-2.5-0.8-2.5-1.8s1.1-1.8,2.5-1.8h19.3c1.4,0,2.5,0.8,2.5,1.8
		C58,58.5,56.9,59.3,55.6,59.3z"/>
	<path class="st4" d="M63.9,116.3v44.3c0,1-1.1,1.8-2.5,1.8h-10c-1.4,0-2.5-0.8-2.5-1.8v-44.3c0-1,1.1-1.8,2.5-1.8h10
		C62.8,114.6,63.9,115.4,63.9,116.3z"/>
	<path class="st4" d="M91.2,98.5v62.1c0,1-1.1,1.8-2.5,1.8h-10c-1.4,0-2.5-0.8-2.5-1.8V98.5c0-1,1.1-1.8,2.5-1.8h10
		C90.1,96.8,91.2,97.6,91.2,98.5z"/>
	<path class="st4" d="M124,116.3v44.3c0,1-1.1,1.8-2.5,1.8h-10c-1.4,0-2.5-0.8-2.5-1.8v-44.3c0-1,1.1-1.8,2.5-1.8h10
		C122.9,114.6,124,115.4,124,116.3z"/>
	<path class="st4" d="M151.3,98.5v62.1c0,1-1.1,1.8-2.5,1.8h-10c-1.4,0-2.5-0.8-2.5-1.8V98.5c0-1,1.1-1.8,2.5-1.8h10
		C150.2,96.8,151.3,97.6,151.3,98.5z"/>
	<path class="st4" d="M184.1,129.3v31.3c0,1-1.1,1.8-2.5,1.8h-10c-1.4,0-2.5-0.8-2.5-1.8v-31.3c0-1,1.1-1.8,2.5-1.8h10
		C183,127.5,184.1,128.3,184.1,129.3z"/>
	<path class="st4" d="M211.4,116.3v44.3c0,1-1.1,1.8-2.5,1.8h-10c-1.4,0-2.5-0.8-2.5-1.8v-44.3c0-1,1.1-1.8,2.5-1.8h10
		C210.3,114.6,211.4,115.4,211.4,116.3z"/>
	<path class="st5" d="M63.9,132.7v27.9c0,1-1.1,1.8-2.5,1.8h-10c-1.4,0-2.5-0.8-2.5-1.8v-27.9c0-1,1.1-1.8,2.5-1.8h10
		C62.8,130.9,63.9,131.7,63.9,132.7z"/>
	<path class="st5" d="M91.2,121v39.7c0,1-1.1,1.8-2.5,1.8h-10c-1.4,0-2.5-0.8-2.5-1.8V121c0-1,1.1-1.8,2.5-1.8h10
		C90.1,119.2,91.2,120,91.2,121z"/>
	<path class="st5" d="M124,132.7v27.9c0,1-1.1,1.8-2.5,1.8h-10c-1.4,0-2.5-0.8-2.5-1.8v-27.9c0-1,1.1-1.8,2.5-1.8h10
		C122.9,130.9,124,131.7,124,132.7z"/>
	<path class="st5" d="M151.3,121v39.7c0,1-1.1,1.8-2.5,1.8h-10c-1.4,0-2.5-0.8-2.5-1.8V121c0-1,1.1-1.8,2.5-1.8h10
		C150.2,119.2,151.3,120,151.3,121z"/>
	<path class="st5" d="M184.1,141.2v19.4c0,1-1.1,1.8-2.5,1.8h-10c-1.4,0-2.5-0.8-2.5-1.8v-19.4c0-1,1.1-1.8,2.5-1.8h10
		C183,139.5,184.1,140.3,184.1,141.2z"/>
	<path class="st5" d="M211.4,132.7v27.9c0,1-1.1,1.8-2.5,1.8h-10c-1.4,0-2.5-0.8-2.5-1.8v-27.9c0-1,1.1-1.8,2.5-1.8h10
		C210.3,130.9,211.4,131.7,211.4,132.7z"/>
	<path class="st6" d="M320.5,321.7h-218c-6.1,0-11.1-3.9-11.1-8.7V149.8c0-4.8,5-8.7,11.1-8.7h218c6.1,0,11.1,3.9,11.1,8.7V313
		C331.6,317.8,326.6,321.7,320.5,321.7z"/>
	<path class="st5" d="M227.4,167.2H123.9c-1.8,0-3.3-1.2-3.3-2.6c0-1.4,1.5-2.6,3.3-2.6h103.5c1.8,0,3.3,1.2,3.3,2.6
		C230.7,166,229.2,167.2,227.4,167.2z"/>
	<path class="st5" d="M194.1,180.3h-70.2c-1.8,0-3.3-1.2-3.3-2.6c0-1.4,1.5-2.6,3.3-2.6h70.2c1.8,0,3.3,1.2,3.3,2.6
		C197.5,179.1,196,180.3,194.1,180.3z"/>
	<path class="st3" d="M141.5,201.7H123c-1.3,0-2.4-0.8-2.4-1.9s1.1-1.9,2.4-1.9h18.5c1.3,0,2.4,0.8,2.4,1.9
		C143.8,200.9,142.8,201.7,141.5,201.7z"/>
	<path class="st5" d="M277.1,266H220c-1.3,0-2.4-0.8-2.4-1.9v-7.6c0-1,1.1-1.9,2.4-1.9h57.1c1.3,0,2.4,0.8,2.4,1.9v7.6
		C279.5,265.2,278.4,266,277.1,266z"/>
	<path class="st5" d="M300.1,286.6H220c-1.3,0-2.4-0.8-2.4-1.9v-7.6c0-1,1.1-1.9,2.4-1.9h80.2c1.3,0,2.4,0.8,2.4,1.9v7.6
		C302.5,285.7,301.4,286.6,300.1,286.6z"/>
	<path class="st5" d="M156.2,298.8c0-1.9,2-3.5,4.4-3.5c-17.3,0-31.3-11.1-31.3-24.6c0-13.6,14.1-24.6,31.3-24.6
		s31.3,11.1,31.3,24.6c0-1.9,2-3.5,4.4-3.5c2.5,0,4.4,1.6,4.4,3.5c0-17.4-18-31.6-40.2-31.6s-40.2,14.2-40.2,31.6s18,31.6,40.2,31.6
		C158.2,302.3,156.2,300.7,156.2,298.8z"/>
	<path class="st3" d="M196.4,267.1c-2.5,0-4.4,1.6-4.4,3.5c0,13.6-14.1,24.6-31.3,24.6c-2.5,0-4.4,1.6-4.4,3.5c0,1.9,2,3.5,4.4,3.5
		c22.2,0,40.2-14.2,40.2-31.6C200.8,268.7,198.8,267.1,196.4,267.1z"/>
</g>
</svg>
