<?xml version="1.0" encoding="utf-8"?>
<!-- Generator: Adobe Illustrator 24.3.0, SVG Export Plug-In . SVG Version: 6.00 Build 0)  -->
<svg version="1.1" id="Capa_1" xmlns="http://www.w3.org/2000/svg" xmlns:xlink="http://www.w3.org/1999/xlink" x="0px" y="0px"
	 viewBox="0 0 102 36.9" style="enable-background:new 0 0 102 36.9;" xml:space="preserve">
<style type="text/css">
	.st0{fill:#C5428A;}
	.st1{fill-rule:evenodd;clip-rule:evenodd;fill:#FFFFFF;}
	.st2{fill:#17248C;}
	.st3{fill:#2B94C2;}
</style>
<path class="st0" d="M34.9,0.4H2.6v36h32.3V0.4z"/>
<path class="st1" d="M16,11c-0.5,0-1,0.1-1.5,0.3c-0.5,0.2-0.9,0.5-1.3,0.9c-0.4,0.4-0.7,0.9-0.8,1.4c-0.2,0.5-0.3,1.1-0.2,1.7
	c0,0.8-0.2,6.5,0.3,7.9c0.2,0.5,0.4,0.9,0.8,1.3c0.3,0.4,0.7,0.7,1.2,0.9c0.5,0.2,1.1,0.3,1.6,0.3c6,0.3,8.2,0.1,9.1-2.5
	c0.2-0.6,0.3-1.2,0.3-1.8c0.3-6.7,0-8.1-1.1-9.3C23.5,11.3,22.5,10.7,16,11L16,11z M16,24.5c-0.4,0-0.8-0.1-1.2-0.3
	c-0.3-0.1-0.6-0.3-0.8-0.6c-0.2-0.2-0.4-0.5-0.5-0.9c-0.4-1.1-0.3-6.5-0.2-7.4c0-0.8,0.2-1.6,0.7-2.2c0.7-0.7,1.5-1.1,7.4-0.8
	c0.7,0,1.5,0.3,2,0.8c0.7,0.7,1,1.7,0.7,8.3c0,0.5-0.1,0.9-0.2,1.4C23.4,24.5,22,24.8,16,24.5L16,24.5z M21.5,14.4
	c0,0.2,0,0.4,0.1,0.5c0.1,0.1,0.2,0.3,0.4,0.3c0.1,0.1,0.3,0.1,0.5,0.1c0.2,0,0.3-0.1,0.4-0.2c0.1-0.1,0.2-0.3,0.2-0.5
	c0-0.2,0-0.4,0-0.5c-0.1-0.2-0.2-0.3-0.3-0.4c-0.1-0.1-0.3-0.2-0.4-0.2c-0.2,0-0.4,0.1-0.6,0.3C21.6,14,21.5,14.2,21.5,14.4z
	 M15.3,18.4c0,0.8,0.2,1.5,0.6,2.1c0.4,0.6,0.9,1.1,1.5,1.4c0.6,0.3,1.3,0.4,2,0.2c0.7-0.1,1.3-0.5,1.8-1c0.5-0.5,0.8-1.2,0.9-2
	c0.1-0.7,0.1-1.5-0.2-2.2c-0.3-0.7-0.7-1.3-1.3-1.7c-0.6-0.4-1.2-0.6-1.9-0.6c-0.5,0-0.9,0.1-1.3,0.3s-0.8,0.5-1.1,0.8
	s-0.6,0.8-0.7,1.2C15.4,17.4,15.3,17.9,15.3,18.4z M16.5,18.4c0-0.5,0.1-1,0.4-1.4c0.2-0.4,0.6-0.7,1-0.9c0.4-0.2,0.9-0.2,1.3-0.1
	c0.4,0.1,0.8,0.3,1.1,0.7c0.3,0.3,0.5,0.8,0.6,1.3c0.1,0.5,0,1-0.1,1.4c-0.2,0.5-0.5,0.8-0.8,1.1c-0.4,0.3-0.8,0.4-1.2,0.4
	c-0.3,0-0.6-0.1-0.9-0.2c-0.3-0.1-0.5-0.3-0.7-0.5c-0.2-0.2-0.4-0.5-0.5-0.8C16.6,19,16.5,18.7,16.5,18.4z"/>
<path class="st2" d="M67.3,0.4H34.9v36h32.3V0.4z"/>
<path class="st1" d="M52.3,25.9v-6.8h1.8l0.3-3h-2.1v-1.5c0-0.8,0-1.5,1-1.5h1V11c-0.6-0.1-1.1-0.1-1.7-0.1c-1.8,0-2.9,1.2-2.9,3.5
	v1.7h-2v3h2v6.8H52.3z"/>
<path class="st3" d="M99.6,0.4H67.3v36h32.3V0.4z"/>
<path class="st1" d="M80.9,24.4c1,0,2-0.2,3-0.6c1-0.4,1.8-1.1,2.6-1.9c0.7-0.8,1.3-1.8,1.7-2.8c0.4-1.1,0.6-2.2,0.6-3.3
	c0-0.1,0-0.3,0-0.4c0.5-0.4,1-1,1.4-1.6c-0.5,0.2-1,0.4-1.6,0.5c0.6-0.4,1-1,1.2-1.7c-0.5,0.4-1.1,0.6-1.8,0.7
	c-0.5-0.6-1.2-0.9-1.9-1c-0.7,0-1.4,0.3-2,0.8c-0.4,0.4-0.6,0.8-0.8,1.3c-0.1,0.5-0.2,1,0,1.6c-1.1-0.1-2.2-0.4-3.1-0.9
	c-1-0.5-1.8-1.3-2.5-2.3c-0.4,0.7-0.5,1.5-0.3,2.2c0.2,0.8,0.6,1.4,1.2,1.8c-0.4,0-0.9-0.1-1.3-0.4v0c0,0.7,0.2,1.4,0.6,1.9
	c0.4,0.5,1,0.9,1.6,1c-0.4,0.1-0.8,0.1-1.2,0.1c0.2,0.6,0.5,1.1,1,1.5c0.5,0.4,1,0.6,1.6,0.6c-1,0.8-2.2,1.3-3.4,1.3
	c-0.2,0-0.4,0-0.7,0C78,23.9,79.4,24.4,80.9,24.4z"/>
</svg>
